<svg width="100" height="101" viewBox="0 0 100 101" fill="none" xmlns="http://www.w3.org/2000/svg">
<path d="M30.3438 24.9479C33.7031 24.9479 36.4219 22.2136 36.4219 18.8542C36.4219 15.4948 33.6875 12.7604 30.3438 12.7604C27 12.7604 24.2656 15.4948 24.2656 18.8542C24.2656 22.2136 27 24.9479 30.3438 24.9479ZM30.3438 15.8698C31.9688 15.8698 33.2969 17.1979 33.2969 18.8386C33.2969 20.4792 31.9688 21.8073 30.3438 21.8073C28.7188 21.8073 27.3906 20.4792 27.3906 18.8386C27.3906 17.1979 28.7188 15.8698 30.3438 15.8698Z" fill="#139140"/>
<path d="M31.9054 34.401C37.9679 34.401 43.3585 30.9323 45.921 25.4792H56.1398C56.5616 25.4792 56.9523 25.3073 57.2491 25.026L60.6866 21.5729L64.1241 25.026C64.421 25.3229 64.8116 25.4792 65.2335 25.4792H66.7804C67.2023 25.4792 67.5929 25.3073 67.8898 25.026L71.3273 21.5729L74.7804 25.026C75.0773 25.3229 75.4679 25.4792 75.8898 25.4792H80.046C80.7335 25.4792 81.3429 25.026 81.546 24.3698L83.421 18.276C83.8585 16.8385 83.6085 15.3073 82.7023 14.1042C81.8116 12.901 80.4366 12.1979 78.9366 12.1979H45.921C43.4679 6.96354 38.3116 3.51041 32.4991 3.29166C28.4054 3.13541 24.4366 4.63541 21.3585 7.51041C18.2804 10.401 16.5148 14.2604 16.3898 18.3854C16.2648 22.6354 17.8273 26.651 20.796 29.6823C23.7335 32.7135 27.6866 34.3698 31.9054 34.3698V34.401ZM23.5148 9.80729C25.8585 7.60416 28.8429 6.41666 31.9366 6.41666H32.4054C37.3273 6.60416 41.6554 9.71354 43.4523 14.3385C43.6866 14.9323 44.2648 15.3385 44.9054 15.3385H78.921C79.421 15.3385 79.8741 15.5729 80.171 15.9635C80.4679 16.3698 80.5616 16.8854 80.4054 17.3698L78.8741 22.3542H76.5304L72.4366 18.2604C72.1398 17.9635 71.7491 17.8073 71.3273 17.8073C70.9054 17.8073 70.5148 17.9792 70.2179 18.2604L66.1398 22.3542H65.8898L61.8116 18.2604C61.5148 17.9635 61.1241 17.8073 60.7023 17.8073C60.2804 17.8073 59.8898 17.9792 59.5929 18.2604L55.5148 22.3542H44.921C44.2804 22.3542 43.7023 22.7448 43.4679 23.3542C41.5929 28.1667 37.0773 31.276 31.9366 31.276C28.5773 31.276 25.421 29.9479 23.0773 27.526C20.7179 25.1042 19.4679 21.8854 19.5616 18.4948C19.6554 15.2135 21.0616 12.1354 23.5304 9.82291L23.5148 9.80729Z" fill="#139140"/>
<path d="M92.7956 61.0417L76.7331 39.573C75.5456 37.9792 73.2644 37.6355 71.6394 38.7917L67.2019 41.9792C66.405 42.5573 65.8894 43.4011 65.7331 44.3542C65.6394 44.9636 65.7331 45.5573 65.9206 46.1198C64.2175 46.6355 61.405 47.2448 58.1394 47.073C55.3425 46.9167 52.6081 47.1511 50.0144 47.7449C47.405 47.1355 44.6706 46.9167 41.8738 47.073C38.6238 47.2605 35.7956 46.6355 34.0925 46.1198C34.2956 45.5573 34.3738 44.9636 34.28 44.3542C34.1394 43.3855 33.6081 42.5417 32.8113 41.9792L28.3738 38.7917C26.7644 37.6355 24.4675 37.9792 23.28 39.573L7.21752 61.0417C6.63939 61.823 6.38939 62.7761 6.54564 63.7292C6.68627 64.698 7.21752 65.5417 8.01439 66.1042L12.4519 69.2917C13.0925 69.7605 13.8425 69.9792 14.5925 69.9792C15.7175 69.9792 16.8269 69.4792 17.5456 68.5105L17.8738 68.073C19.2488 70.6198 21.1394 73.3386 23.53 76.1824C22.9675 76.8855 22.655 77.6199 22.5925 78.3855C22.4363 80.4167 23.2488 82.4948 24.7644 83.9167C25.9675 85.0573 27.5144 85.6667 29.1081 85.6667C29.28 85.6667 29.4675 85.6511 29.6394 85.6355C29.9206 87.073 30.655 88.4324 31.7488 89.4636C32.9831 90.6355 34.5925 91.2605 36.2331 91.2605H36.405C36.7331 92.573 37.4206 93.8073 38.4363 94.7448C39.6394 95.8542 41.1394 96.4324 42.7019 96.4324C42.9831 96.4324 43.28 96.4167 43.5613 96.3699C44.7019 96.2136 45.9206 95.6042 47.2019 94.6042C51.5144 96.2292 54.9363 97.0261 57.5769 97.0261C59.0925 97.0261 60.3581 96.7605 61.405 96.2449C63.5769 95.1824 64.405 93.2448 64.8894 91.6511C65.5769 91.7292 66.2331 91.7917 66.8425 91.7917C68.3269 91.7917 69.5769 91.5417 70.6081 91.0573C72.8738 89.9792 73.7175 87.9636 74.1863 86.3386C74.3894 85.6355 74.4363 84.9167 74.3581 84.1824C74.5144 84.1824 74.6706 84.198 74.8113 84.198C76.2956 84.198 77.5456 83.948 78.5769 83.4636C80.8425 82.3855 81.6706 80.3698 82.155 78.7292C83.0613 75.6355 80.9519 72.9324 79.7331 71.6824C80.03 70.7292 80.7019 69.1042 81.9831 67.8542L82.4675 68.5105C83.1863 69.4636 84.2956 69.9792 85.4206 69.9792C86.1706 69.9792 86.9206 69.7605 87.5613 69.2917L91.9988 66.1042C92.7956 65.5261 93.3113 64.6824 93.4675 63.7292C93.6081 62.7761 93.3738 61.8073 92.7956 61.0417ZM14.2644 66.7605L9.82689 63.573C9.68627 63.4792 9.63939 63.3386 9.62377 63.2605C9.62377 63.1824 9.62377 63.0417 9.71752 62.9167L25.78 41.448C25.9519 41.2136 26.3113 41.1667 26.5456 41.3386L30.9831 44.5261C31.1238 44.6198 31.1706 44.7605 31.1863 44.8386C31.1863 44.9167 31.1863 45.0573 31.0925 45.1823L15.03 66.6511C14.8581 66.8855 14.4988 66.9323 14.2644 66.7605ZM26.8894 81.6667C26.0613 80.8855 25.6081 79.7292 25.6863 78.6511C25.7175 78.323 26.53 77.1198 29.9206 75.6355C31.0925 75.1198 32.4988 75.448 33.3269 76.448C33.905 77.1667 34.0613 78.1198 33.7956 78.9792C31.78 80.0886 30.4988 81.2292 29.8894 82.448C29.7644 82.4949 29.6394 82.5261 29.5144 82.5417C28.2331 82.7292 27.3113 82.073 26.8894 81.6667ZM33.8738 87.198C32.9988 86.3699 32.53 85.1823 32.6238 84.0261C32.655 83.5886 33.6238 82.3698 37.0456 80.8542C37.4363 80.6823 37.8581 80.5886 38.2644 80.5886C39.1706 80.5886 40.0456 80.9948 40.655 81.7136C41.5925 82.8698 41.5144 84.5417 40.4519 85.5886C38.4519 87.5886 37.2175 88.0261 36.6706 88.1042C35.655 88.2448 34.655 87.9167 33.8738 87.1823V87.198ZM43.1238 93.2761C42.1706 93.4011 41.2488 93.1042 40.5144 92.4323C39.9206 91.8855 39.5144 91.1511 39.3581 90.3855C40.405 89.8074 41.5144 88.9792 42.6706 87.8074C43.1238 87.3542 43.4675 86.8386 43.7331 86.3074C44.8581 85.9167 46.1394 86.2449 46.9206 87.198C47.8113 88.2761 47.7331 89.8542 46.7175 90.8698C45.3269 92.2761 44.0144 93.1511 43.1238 93.2761ZM79.155 77.8542C78.7644 79.1511 78.2956 80.1355 77.2331 80.6511C75.6238 81.4167 71.8425 81.5417 62.8894 77.823C62.1081 77.4949 61.1863 77.8699 60.8425 78.6667C60.5144 79.4636 60.8894 80.3855 61.6863 80.7136C65.3738 82.2448 68.4831 83.2605 71.0769 83.7917C71.2956 84.4011 71.3269 84.948 71.1863 85.4636C70.7956 86.7605 70.3269 87.7449 69.2488 88.2605C67.6394 89.0261 63.8425 89.1511 54.905 85.4324C54.1081 85.1042 53.2019 85.4792 52.8581 86.2761C52.53 87.073 52.905 87.9948 53.7019 88.323C56.7956 89.6042 59.4675 90.5261 61.78 91.1042C61.4206 92.198 60.9519 93.0261 60.0144 93.4948C58.7175 94.1355 55.8581 94.3698 49.655 92.2292C51.0769 90.1198 50.9988 87.2917 49.3269 85.2605C48.0925 83.7605 46.2331 82.9949 44.3738 83.073C44.2644 81.9167 43.8425 80.7605 43.0456 79.7917C41.5613 77.9792 39.2175 77.198 36.9988 77.6511C36.8894 76.5261 36.4519 75.4324 35.7175 74.5105C33.9988 72.4324 31.0769 71.7449 28.6394 72.823C27.5769 73.2917 26.6706 73.7605 25.8894 74.2449C23.2488 71.0886 21.2019 68.0417 19.9363 65.3386L32.2488 48.8855C34.03 49.5105 37.6706 50.4949 42.03 50.2605C42.5456 50.2292 43.0613 50.2292 43.5769 50.2292C43.3894 50.323 43.2019 50.4167 43.0144 50.5261C39.8738 52.323 36.6238 53.5886 33.5925 54.6823C32.6238 55.0261 31.8581 55.7605 31.4675 56.698C31.0925 57.6042 31.1081 58.6355 31.5144 59.5261C32.4831 61.6199 35.4675 66.1824 42.2488 63.3386C52.7175 58.9636 58.1238 63.2917 63.8738 67.8699C67.6081 70.8542 71.4519 73.9167 76.53 73.9167C76.8113 73.9167 77.1081 73.8855 77.3894 73.8542C78.1394 74.5886 79.6081 76.3073 79.1394 77.9167L79.155 77.8542ZM76.7644 70.7136C72.655 70.8074 69.4831 68.2605 65.8425 65.3542C59.9363 60.6355 53.2331 55.2917 41.0613 60.3855C37.8738 61.7136 35.6863 60.9792 34.3738 58.1355C34.3269 58.0417 34.3269 57.9324 34.3738 57.823C34.4206 57.698 34.53 57.5886 34.6706 57.5417C37.8425 56.4011 41.2331 55.0886 44.5925 53.1667C48.4675 50.948 53.0925 49.9167 57.9675 50.198C62.3269 50.448 65.9675 49.448 67.7488 48.823L80.1081 65.3386C78.1863 67.0573 77.2019 69.323 76.7644 70.698V70.7136ZM90.1863 63.573L85.7488 66.7605C85.4988 66.9323 85.155 66.8855 84.9831 66.6511L68.9206 45.1823C68.8269 45.0573 68.8269 44.9167 68.8269 44.8386C68.8269 44.7448 68.8894 44.6198 69.03 44.5261L73.4675 41.3386C73.5613 41.2761 73.6863 41.2292 73.7956 41.2292C73.9675 41.2292 74.1394 41.3073 74.2331 41.448L90.2956 62.9167C90.3894 63.0417 90.3894 63.1824 90.3894 63.2605C90.3894 63.3542 90.3269 63.4792 90.1863 63.573Z" fill="#139140"/>
</svg>
