<svg width="34" height="34" viewBox="0 0 34 34" fill="none" xmlns="http://www.w3.org/2000/svg">
<path d="M32.574 10.0178C32.5707 10.0157 29.0958 7.93569 29.0958 7.93569L28.3158 4.70525C27.9697 3.27181 26.6516 2.31373 25.1811 2.42779L21.2213 2.73425C21.2213 2.73425 18.9403 0.721148 18.9358 0.717363C17.8133 -0.238796 16.1837 -0.238796 15.0612 0.717363C15.0567 0.721148 12.7757 2.73425 12.7757 2.73425L8.81588 2.42779C7.35721 2.31452 6.04924 3.25588 5.69007 4.66953L4.60418 8.12955C4.60418 8.12955 1.43024 10.0152 1.42606 10.0178C0.169751 10.7899 -0.333823 12.3397 0.228772 13.7028L1.58367 16.9861L0.228772 20.2694C-0.333823 21.6326 0.169751 23.1823 1.42613 23.9544C1.42998 23.9568 4.8981 26.0233 4.8981 26.0233L5.68137 29.267C6.00881 30.6233 7.20637 31.5537 8.57973 31.5536C8.78979 31.5536 8.55383 31.5615 12.7346 31.2411C12.7346 31.2411 15.0575 33.2796 15.0612 33.2827C15.6225 33.7608 16.3105 33.9999 16.9986 33.9999C17.6866 33.9999 18.3747 33.7608 18.9359 33.2827C18.9397 33.2795 21.2626 31.2411 21.2626 31.2411L25.1812 31.5444C26.6512 31.658 27.9698 30.7004 28.3158 29.267L29.0958 26.0364C33.348 23.4912 32.4464 24.0332 32.5741 23.9544C33.8303 23.1822 34.3339 21.6325 33.7713 20.2694L32.4164 16.986L33.7713 13.7027C34.3338 12.3397 33.8303 10.79 32.574 10.0178ZM30.4184 17.366L31.9301 21.0293C32.1171 21.4822 31.9509 21.997 31.5351 22.2552L27.7144 24.5423C27.4851 24.6795 27.3206 24.9032 27.2578 25.1629L26.3797 28.7996C26.2643 29.2774 25.8256 29.5965 25.3348 29.5587L20.9979 29.2231C20.7308 29.2024 20.4658 29.2905 20.2642 29.4675L17.6397 31.7706C17.2671 32.0841 16.7299 32.0841 16.3574 31.7705L13.733 29.4675C13.5313 29.2905 13.2662 29.2022 12.9993 29.2231L8.66238 29.5587C8.17195 29.5966 7.73285 29.2774 7.61753 28.7996L6.73592 25.1485C6.67305 24.8881 6.5078 24.664 6.27763 24.5268L2.46421 22.2546C2.04901 21.9962 1.88316 21.4818 2.06999 21.0292L3.5817 17.366C3.68215 17.1226 3.68215 16.8495 3.5817 16.6062L2.06979 12.9429C1.8831 12.4906 2.04874 11.9765 2.46348 11.718L5.94899 9.64731C6.15985 9.52203 6.31706 9.32339 6.39049 9.08936C7.67502 4.99392 7.60252 5.23432 7.61739 5.17264C7.73271 4.6949 8.17063 4.37529 8.66225 4.41353L13.042 4.75252C13.3108 4.77324 13.576 4.68441 13.7779 4.50628L16.3583 2.22881C16.7303 1.91638 17.2665 1.91638 17.6385 2.22868L20.2191 4.50628C20.421 4.68454 20.6869 4.77324 20.955 4.75252L25.3347 4.41353C25.8246 4.37569 26.2643 4.69483 26.3796 5.17271L27.2578 8.80933C27.3205 9.06911 27.485 9.29278 27.7143 9.43008L31.535 11.7171C31.9508 11.9753 32.1171 12.49 31.9301 12.9429L30.4183 16.6062C30.318 16.8496 30.318 17.1227 30.4184 17.366Z" fill="#139140"/>
</svg>
