<svg width="44" height="44" viewBox="0 0 44 44" fill="none" xmlns="http://www.w3.org/2000/svg">
<path d="M40.2796 33.6053C40.2796 34.2653 40.133 34.9437 39.8213 35.6037C39.5096 36.2637 39.1063 36.887 38.5746 37.4737C37.6763 38.4637 36.6863 39.1787 35.568 39.637C34.468 40.0953 33.2763 40.3337 31.993 40.3337C30.123 40.3337 28.1246 39.8937 26.0163 38.9953C23.908 38.097 21.7996 36.887 19.7096 35.3653C17.6013 33.8253 15.603 32.1203 13.6963 30.232C11.808 28.3253 10.103 26.327 8.5813 24.237C7.07797 22.147 5.86797 20.057 4.98797 17.9853C4.10797 15.8953 3.66797 13.897 3.66797 11.9903C3.66797 10.7437 3.88797 9.55199 4.32797 8.45199C4.76797 7.33366 5.46464 6.30699 6.4363 5.39033C7.60964 4.23533 8.89297 3.66699 10.2496 3.66699C10.763 3.66699 11.2763 3.77699 11.7346 3.99699C12.2113 4.21699 12.633 4.54699 12.963 5.02366L17.2163 11.0187C17.5463 11.477 17.7846 11.8987 17.9496 12.302C18.1146 12.687 18.2063 13.072 18.2063 13.4203C18.2063 13.8603 18.078 14.3003 17.8213 14.722C17.583 15.1437 17.2346 15.5837 16.7946 16.0237L15.4013 17.472C15.1996 17.6737 15.108 17.912 15.108 18.2053C15.108 18.352 15.1263 18.4803 15.163 18.627C15.218 18.7737 15.273 18.8837 15.3096 18.9937C15.6396 19.5987 16.208 20.387 17.0146 21.3403C17.8396 22.2937 18.7196 23.2653 19.673 24.237C20.663 25.2087 21.6163 26.107 22.588 26.932C23.5413 27.7387 24.3296 28.2887 24.953 28.6187C25.0446 28.6553 25.1546 28.7103 25.283 28.7653C25.4296 28.8203 25.5763 28.8387 25.7413 28.8387C26.053 28.8387 26.2913 28.7287 26.493 28.527L27.8863 27.152C28.3446 26.6937 28.7846 26.3453 29.2063 26.1253C29.628 25.8687 30.0496 25.7403 30.508 25.7403C30.8563 25.7403 31.223 25.8137 31.6263 25.9787C32.0296 26.1437 32.4513 26.382 32.9096 26.6937L38.978 31.002C39.4546 31.332 39.7846 31.717 39.9863 32.1753C40.1696 32.6337 40.2796 33.092 40.2796 33.6053Z" stroke="#139140" stroke-width="1.8" stroke-miterlimit="10"/>
<path d="M33.9167 16.5002C33.9167 15.4002 33.055 13.7135 31.7717 12.3385C30.5983 11.0735 29.04 10.0835 27.5 10.0835" stroke="#139140" stroke-width="1.8" stroke-linecap="round" stroke-linejoin="round"/>
<path d="M40.3333 16.5003C40.3333 9.40533 34.595 3.66699 27.5 3.66699" stroke="#139140" stroke-width="1.8" stroke-linecap="round" stroke-linejoin="round"/>
</svg>
