<svg width="34" height="34" viewBox="0 0 34 34" fill="none" xmlns="http://www.w3.org/2000/svg">
<path d="M31.1268 25.9677C31.1268 26.4777 31.0134 27.0018 30.7726 27.5118C30.5318 28.0218 30.2201 28.5035 29.8093 28.9568C29.1151 29.7218 28.3501 30.2743 27.4859 30.6285C26.6359 30.9827 25.7151 31.1668 24.7234 31.1668C23.2784 31.1668 21.7343 30.8268 20.1051 30.1327C18.4759 29.4385 16.8468 28.5035 15.2318 27.3277C13.6026 26.1377 12.0584 24.8202 10.5851 23.361C9.12594 21.8877 7.80844 20.3435 6.6326 18.7285C5.47094 17.1135 4.53594 15.4985 3.85594 13.8977C3.17594 12.2827 2.83594 10.7385 2.83594 9.26516C2.83594 8.30183 3.00594 7.381 3.34594 6.531C3.68594 5.66683 4.22427 4.8735 4.9751 4.16516C5.88177 3.27266 6.87344 2.8335 7.92177 2.8335C8.31844 2.8335 8.71511 2.9185 9.06927 3.0885C9.43761 3.2585 9.76344 3.5135 10.0184 3.88183L13.3051 8.51433C13.5601 8.8685 13.7443 9.19433 13.8718 9.506C13.9993 9.8035 14.0701 10.101 14.0701 10.3702C14.0701 10.7102 13.9709 11.0502 13.7726 11.376C13.5884 11.7018 13.3193 12.0418 12.9793 12.3818L11.9026 13.501C11.7468 13.6568 11.6759 13.841 11.6759 14.0677C11.6759 14.181 11.6901 14.2802 11.7184 14.3935C11.7609 14.5068 11.8034 14.5918 11.8318 14.6768C12.0868 15.1443 12.5259 15.7535 13.1493 16.4902C13.7868 17.2268 14.4668 17.9777 15.2034 18.7285C15.9684 19.4793 16.7051 20.1735 17.4559 20.811C18.1926 21.4343 18.8018 21.8593 19.2834 22.1143C19.3543 22.1427 19.4393 22.1852 19.5384 22.2277C19.6518 22.2702 19.7651 22.2843 19.8926 22.2843C20.1334 22.2843 20.3176 22.1993 20.4734 22.0435L21.5501 20.981C21.9043 20.6268 22.2443 20.3577 22.5701 20.1877C22.8959 19.9893 23.2218 19.8902 23.5759 19.8902C23.8451 19.8902 24.1284 19.9468 24.4401 20.0743C24.7518 20.2018 25.0776 20.386 25.4318 20.6268L30.1209 23.956C30.4893 24.211 30.7443 24.5085 30.9001 24.8627C31.0418 25.2168 31.1268 25.571 31.1268 25.9677Z" stroke="white" stroke-width="1.8" stroke-miterlimit="10"/>
<path d="M26.2122 12.7503C26.2122 11.9003 25.5464 10.597 24.5547 9.53449C23.6481 8.55699 22.4439 7.79199 21.2539 7.79199" stroke="white" stroke-width="1.8" stroke-linecap="round" stroke-linejoin="round"/>
<path d="M31.1706 12.7502C31.1706 7.26766 26.7364 2.8335 21.2539 2.8335" stroke="white" stroke-width="1.8" stroke-linecap="round" stroke-linejoin="round"/>
</svg>
