<svg width="34" height="34" viewBox="0 0 34 34" fill="none" xmlns="http://www.w3.org/2000/svg">
<path d="M28.3333 9.97325V24.0266C28.3333 26.1799 28.135 27.7099 27.625 28.8008C27.625 28.8149 27.6108 28.8433 27.5966 28.8574C27.285 29.2541 26.8742 29.4524 26.3925 29.4524C25.6417 29.4524 24.735 28.9566 23.7575 27.9083C22.5959 26.6616 20.8108 26.7607 19.7908 28.1207L18.36 30.0191C17.7934 30.7841 17.0425 31.1666 16.2917 31.1666C15.5408 31.1666 14.79 30.7841 14.2233 30.0191L12.7784 28.1066C11.7725 26.7608 10.0017 26.6616 8.83999 27.8941L8.82581 27.9083C7.22497 29.6224 5.80836 29.8774 4.98669 28.8574C4.97253 28.8433 4.95833 28.8149 4.95833 28.8008C4.44833 27.7099 4.25 26.1799 4.25 24.0266V9.97325C4.25 7.81992 4.44833 6.28992 4.95833 5.19908C4.95833 5.18492 4.95836 5.17075 4.98669 5.15658C5.79419 4.12242 7.22497 4.37742 8.82581 6.09158L8.83999 6.10575C10.0017 7.33825 11.7725 7.23908 12.7784 5.89325L14.2233 3.98075C14.79 3.21575 15.5408 2.83325 16.2917 2.83325C17.0425 2.83325 17.7934 3.21575 18.36 3.98075L19.7908 5.87909C20.8108 7.23909 22.5959 7.33825 23.7575 6.09158C24.735 5.04325 25.6417 4.54742 26.3925 4.54742C26.8742 4.54742 27.285 4.75992 27.5966 5.15658C27.625 5.17075 27.625 5.18492 27.625 5.19908C28.135 6.28992 28.3333 7.81992 28.3333 9.97325Z" stroke="#139140" stroke-width="1.5" stroke-linecap="round" stroke-linejoin="round"/>
<path d="M11.332 14.5208H22.6654" stroke="#139140" stroke-width="1.5" stroke-linecap="round" stroke-linejoin="round"/>
<path d="M11.332 19.4792H19.832" stroke="#139140" stroke-width="1.5" stroke-linecap="round" stroke-linejoin="round"/>
</svg>
