<svg width="26" height="27" viewBox="0 0 26 27" fill="none" xmlns="http://www.w3.org/2000/svg">
<g filter="url(#filter0_d_6034_6473)">
<path d="M13.0013 1.66675C17.6038 1.66675 21.3346 5.39758 21.3346 10.0001C21.3346 14.6026 17.6038 18.3334 13.0013 18.3334C8.3988 18.3334 4.66797 14.6026 4.66797 10.0001C4.66797 5.39758 8.3988 1.66675 13.0013 1.66675ZM13.0013 3.33341C11.2332 3.33341 9.5375 4.03579 8.28726 5.28604C7.03701 6.53628 6.33464 8.23197 6.33464 10.0001C6.33464 11.7682 7.03701 13.4639 8.28726 14.7141C9.5375 15.9644 11.2332 16.6667 13.0013 16.6667C14.7694 16.6667 16.4651 15.9644 17.7153 14.7141C18.9656 13.4639 19.668 11.7682 19.668 10.0001C19.668 8.23197 18.9656 6.53628 17.7153 5.28604C16.4651 4.03579 14.7694 3.33341 13.0013 3.33341ZM13.0013 5.00008C13.2054 5.00011 13.4024 5.07504 13.5549 5.21068C13.7075 5.34631 13.8049 5.53321 13.8288 5.73591L13.8346 5.83341V9.65508L16.0905 11.9109C16.2399 12.0609 16.3267 12.2621 16.3332 12.4737C16.3396 12.6854 16.2653 12.8915 16.1253 13.0503C15.9852 13.2091 15.79 13.3087 15.5792 13.3287C15.3685 13.3488 15.158 13.2879 14.9905 13.1584L14.9121 13.0892L12.4121 10.5892C12.2826 10.4596 12.1994 10.2909 12.1755 10.1092L12.168 10.0001V5.83341C12.168 5.6124 12.2558 5.40044 12.412 5.24416C12.5683 5.08788 12.7803 5.00008 13.0013 5.00008Z" fill="#FCC845"/>
</g>
<defs>
<filter id="filter0_d_6034_6473" x="-1" y="0" width="28" height="28" filterUnits="userSpaceOnUse" color-interpolation-filters="sRGB">
<feFlood flood-opacity="0" result="BackgroundImageFix"/>
<feColorMatrix in="SourceAlpha" type="matrix" values="0 0 0 0 0 0 0 0 0 0 0 0 0 0 0 0 0 0 127 0" result="hardAlpha"/>
<feOffset dy="4"/>
<feGaussianBlur stdDeviation="2"/>
<feComposite in2="hardAlpha" operator="out"/>
<feColorMatrix type="matrix" values="0 0 0 0 0 0 0 0 0 0 0 0 0 0 0 0 0 0 0.25 0"/>
<feBlend mode="normal" in2="BackgroundImageFix" result="effect1_dropShadow_6034_6473"/>
<feBlend mode="normal" in="SourceGraphic" in2="effect1_dropShadow_6034_6473" result="shape"/>
</filter>
</defs>
</svg>
