<svg width="44" height="44" viewBox="0 0 44 44" fill="none" xmlns="http://www.w3.org/2000/svg">
<g clip-path="url(#clip0_6027_7443)">
<path d="M9.19531 16.3281C9.19531 23.4361 14.978 29.2188 22.086 29.2188C29.1939 29.2188 34.9766 23.4361 34.9766 16.3281C34.9766 9.22016 29.1939 3.4375 22.086 3.4375C14.978 3.4375 9.19531 9.22016 9.19531 16.3281ZM22.086 5.15625C28.2463 5.15625 33.2579 10.1678 33.2579 16.3281C33.2579 22.4885 28.2463 27.5 22.086 27.5C15.9256 27.5 10.9141 22.4885 10.9141 16.3281C10.9141 10.1678 15.9256 5.15625 22.086 5.15625Z" fill="#139140"/>
<path d="M14.1274 14.796L17.4585 18.0781L16.6921 22.6909C16.6387 23.0121 16.7713 23.3357 17.0348 23.5271C17.298 23.7184 17.6468 23.7443 17.9358 23.5946L22.086 21.4394L26.2359 23.5946C26.5225 23.7433 26.8713 23.7201 27.1369 23.5271C27.4004 23.3357 27.533 23.0121 27.4796 22.6909L26.7132 18.0781L30.0443 14.796C30.2763 14.5678 30.3592 14.228 30.2585 13.9182C30.1578 13.6087 29.8909 13.3828 29.569 13.3341L24.9461 12.6382L22.8544 8.45511C22.7091 8.16406 22.4113 7.9801 22.086 7.9801C21.7604 7.9801 21.463 8.16406 21.3173 8.45511L19.2256 12.6382L14.6027 13.3341C14.2808 13.3824 14.0139 13.6087 13.9132 13.9182C13.8125 14.228 13.8957 14.5678 14.1274 14.796ZM19.9228 14.2713C20.1994 14.2297 20.4384 14.0562 20.5636 13.8061L22.086 10.761L23.6084 13.8061C23.7336 14.0562 23.9726 14.2297 24.2492 14.2713L27.6139 14.7779L25.1892 17.1664C24.9901 17.3627 24.8988 17.6437 24.9444 17.9197L25.5024 21.2769L22.4818 19.7086C22.3579 19.6441 22.222 19.6119 22.086 19.6119C21.95 19.6119 21.8141 19.6441 21.6899 19.7086L18.6693 21.2769L19.2272 17.9197C19.2732 17.6437 19.1819 17.3627 18.9825 17.1664L16.5581 14.7779L19.9228 14.2713Z" fill="#139140"/>
<path d="M22.9453 0.859376C22.9453 1.33405 22.5606 1.71875 22.0859 1.71875C21.6113 1.71875 21.2266 1.33405 21.2266 0.859376C21.2266 0.384705 21.6113 0 22.0859 0C22.5606 0 22.9453 0.384705 22.9453 0.859376Z" fill="#139140"/>
<path d="M18.0358 0.506563C10.8066 2.35187 5.75781 8.85795 5.75781 16.3282C5.75781 20.9678 7.70853 25.3395 11.1329 28.4356L5.95554 37.5601C5.78903 37.8539 5.80985 38.2177 6.00858 38.4903C6.20731 38.7632 6.54703 38.8945 6.87769 38.8257L12.7574 37.6048L14.8239 43.428C14.936 43.7449 15.223 43.9668 15.5581 43.9967C15.8931 44.0266 16.2143 43.8577 16.3805 43.5653L22.086 33.5348L27.7911 43.5653C27.9448 43.8356 28.2308 43.9997 28.5377 43.9997C28.5628 43.9997 28.5884 43.9987 28.6135 43.9967C28.9486 43.9668 29.2356 43.7446 29.348 43.428L31.4142 37.6048L37.2939 38.8257C37.6242 38.8942 37.9643 38.7629 38.163 38.4903C38.3621 38.2177 38.3826 37.8539 38.2161 37.5601L33.0386 28.4356C36.4631 25.3395 38.4138 20.9678 38.4138 16.3282C38.4138 8.85795 33.3649 2.35187 26.1361 0.506563C25.6759 0.389071 25.2083 0.666689 25.0908 1.12659C24.9733 1.58649 25.2509 2.05445 25.7108 2.17194C32.1783 3.82288 36.6954 9.64415 36.6954 16.3282C36.6954 24.463 30.0886 30.9375 22.086 30.9375C14.0777 30.9375 7.47657 24.4576 7.47657 16.3282C7.47657 9.64415 11.9933 3.82288 18.4608 2.17194C18.9207 2.05445 19.1983 1.58649 19.0812 1.12659C18.9637 0.666689 18.4961 0.389071 18.0358 0.506563ZM15.8155 41.0829L14.1267 36.3238C13.983 35.9189 13.5627 35.6822 13.1421 35.7695L8.38764 36.7568L12.4851 29.5354C14.8743 31.2722 17.7031 32.3303 20.6448 32.5922L15.8155 41.0829ZM31.0295 35.7695C30.6092 35.6822 30.1886 35.9189 30.0449 36.3238L28.3564 41.0829L23.5268 32.5922C26.4688 32.3303 29.2973 31.2722 31.6868 29.5354L35.7843 36.7568L31.0295 35.7695Z" fill="#139140"/>
</g>
<defs>
<clipPath id="clip0_6027_7443">
<rect width="44" height="44" fill="white"/>
</clipPath>
</defs>
</svg>
