<svg width="34" height="34" viewBox="0 0 34 34" fill="none" xmlns="http://www.w3.org/2000/svg">
<path d="M17 32.0267C16.5784 32.0264 16.1638 31.9183 15.7957 31.7127L11.0207 29.0599C8.64719 27.7403 6.66949 25.8103 5.29229 23.4698C3.91509 21.1292 3.18842 18.4632 3.1875 15.7475V8.38682C3.18722 7.77403 3.41426 7.18292 3.8247 6.72789C4.23513 6.27286 4.79977 5.98626 5.40934 5.92356C7.30886 5.7222 9.17836 5.2997 10.9799 4.66465C12.6311 4.08122 14.215 3.32243 15.7044 2.4013C16.0944 2.16313 16.5431 2.03711 17.0001 2.03711C17.457 2.03711 17.905 2.16313 18.295 2.4013C19.7847 3.3223 21.3688 4.08108 23.0201 4.66465C24.8216 5.29972 26.6911 5.72223 28.5907 5.9236C29.2002 5.9863 29.7649 6.2729 30.1753 6.72792C30.5857 7.18294 30.8128 7.77404 30.8125 8.38682V15.7475C30.8116 18.4632 30.0849 21.1293 28.7077 23.4698C27.3305 25.8104 25.3528 27.7403 22.9793 29.0599L18.2043 31.7127C17.8362 31.9183 17.4216 32.0264 17 32.0267ZM16.8222 4.20945C15.203 5.20967 13.4814 6.03381 11.6868 6.66782C9.72937 7.35877 7.69771 7.81798 5.63339 8.03607C5.54564 8.04358 5.46392 8.08382 5.40447 8.1488C5.34503 8.21378 5.31219 8.29875 5.3125 8.38682V15.7475C5.31334 18.0842 5.93864 20.3782 7.12369 22.3921C8.30873 24.4059 10.0105 26.0665 12.0527 27.2019L16.8278 29.8547C16.8802 29.8846 16.9396 29.9004 17 29.9004C17.0604 29.9004 17.1198 29.8846 17.1722 29.8547L21.9473 27.2019C23.9895 26.0665 25.6913 24.4059 26.8763 22.3921C28.0614 20.3782 28.6867 18.0842 28.6875 15.7475V8.38682C28.6878 8.29874 28.6549 8.21378 28.5955 8.1488C28.536 8.08383 28.4543 8.0436 28.3665 8.03611C26.3022 7.81802 24.2706 7.35881 22.3131 6.66786C20.5186 6.03384 18.797 5.20968 17.1777 4.20945C17.1241 4.17686 17.0626 4.15963 16.9999 4.15963C16.9372 4.15963 16.8758 4.17686 16.8222 4.20945Z" fill="#139140"/>
<path d="M20.5404 24.4375H13.457C12.6119 24.4366 11.8017 24.1005 11.2041 23.5029C10.6066 22.9053 10.2705 22.0951 10.2695 21.25V17C10.2705 16.1549 10.6066 15.3447 11.2041 14.7471C11.8017 14.1495 12.6119 13.8134 13.457 13.8125H20.5404C21.3855 13.8134 22.1957 14.1495 22.7932 14.7471C23.3908 15.3447 23.7269 16.1549 23.7279 17V21.25C23.7269 22.0951 23.3908 22.9053 22.7932 23.5029C22.1957 24.1005 21.3855 24.4366 20.5404 24.4375ZM13.457 15.9375C13.1753 15.9378 12.9053 16.0499 12.7061 16.249C12.5069 16.4482 12.3948 16.7183 12.3945 17V21.25C12.3948 21.5317 12.5069 21.8018 12.7061 22.001C12.9053 22.2001 13.1753 22.3122 13.457 22.3125H20.5404C20.8221 22.3122 21.0921 22.2001 21.2913 22.001C21.4905 21.8018 21.6026 21.5317 21.6029 21.25V17C21.6026 16.7183 21.4905 16.4482 21.2913 16.249C21.0921 16.0499 20.8221 15.9378 20.5404 15.9375H13.457Z" fill="#139140"/>
<path d="M19.8346 15.9362H14.168C13.8862 15.9361 13.616 15.8242 13.4168 15.6249C13.2175 15.4257 13.1055 15.1555 13.1055 14.8737V12.0404C13.1055 11.0071 13.5159 10.0162 14.2465 9.28559C14.9771 8.55498 15.9681 8.14453 17.0013 8.14453C18.0345 8.14453 19.0255 8.55498 19.7561 9.28559C20.4867 10.0162 20.8971 11.0071 20.8971 12.0404V14.8737C20.8971 15.1555 20.7851 15.4257 20.5859 15.6249C20.3866 15.8242 20.1164 15.9361 19.8346 15.9362ZM15.2305 13.8112H18.7721V12.0404C18.7721 11.5707 18.5856 11.1203 18.2535 10.7882C17.9214 10.4561 17.471 10.2695 17.0013 10.2695C16.5316 10.2695 16.0812 10.4561 15.7491 10.7882C15.417 11.1203 15.2305 11.5707 15.2305 12.0404V13.8112Z" fill="#139140"/>
</svg>
