<svg width="50" height="50" viewBox="0 0 50 50" fill="none" xmlns="http://www.w3.org/2000/svg">
<path d="M25.0013 39.2813C25.431 39.2813 25.7825 38.9298 25.7825 38.5001V33.0313C29.1778 34.8454 34.9911 35.3618 34.7825 29.5001C34.7825 21.8438 25.97 11.4298 25.595 10.9923C25.2981 10.6337 24.7044 10.6306 24.4075 10.9923C24.0325 11.4298 15.22 21.8438 15.22 29.5001C14.9481 35.2681 20.8442 34.8884 24.22 33.0313V38.5001C24.22 38.9298 24.5716 39.2813 25.0013 39.2813ZM20.4856 25.5548C19.7614 24.8501 20.8778 23.7165 21.5872 24.4454L24.22 27.0782V22.2813L22.5403 20.5939C21.8146 19.8899 22.938 18.7665 23.6419 19.4923L25.0013 20.8517L26.3606 19.4923C27.0646 18.7665 28.188 19.8899 27.4622 20.5939L25.7825 22.2813V27.0782L28.4153 24.4454C29.1239 23.7173 30.2419 24.8501 29.5169 25.5548L25.7825 29.2892V31.2892C25.2505 30.8923 24.7513 30.8923 24.22 31.2892V29.2892L20.4856 25.5548Z" fill="#FCC845"/>
<path d="M25.0017 3.12512C19.7392 3.12512 14.7876 4.95402 10.8673 8.30246V6.6798C10.8822 5.66808 9.28999 5.66496 9.30483 6.6798V10.0853C9.29624 10.515 9.67046 10.8548 10.0861 10.8665H13.4908C14.5025 10.8814 14.5056 9.28918 13.4908 9.30402H12.0962C31.0642 -5.8702 55.8556 18.7845 40.7345 37.8493C40.0814 38.6165 41.3134 39.6376 41.9447 38.8376C53.6361 25.0782 43.09 2.7759 25.0009 3.1259L25.0017 3.12512Z" fill="#15AB49"/>
<path d="M25.0014 46.875C30.2522 46.875 35.2037 45.0437 39.135 41.6929V43.3187C39.1194 44.3304 40.7131 44.3336 40.6975 43.3187V39.9132C40.7053 39.4836 40.3334 39.1414 39.9162 39.132H36.5115C35.4998 39.1171 35.4967 40.7093 36.5115 40.6945H37.9022C19.1194 55.764 -5.63846 31.5515 9.04044 12.4351C9.68107 11.657 8.42794 10.6578 7.8131 11.4679C-3.55331 25.0906 7.20451 47.3859 25.0014 46.875Z" fill="#15AB49"/>
</svg>
