<svg width="34" height="34" viewBox="0 0 34 34" fill="none" xmlns="http://www.w3.org/2000/svg">
<path d="M30.6999 20.2583L30.1332 27.3416C29.9207 29.5091 29.7507 31.1666 25.9116 31.1666H8.08989C4.25073 31.1666 4.08073 29.5091 3.86823 27.3416L3.30156 20.2583C3.18823 19.0824 3.55656 17.9916 4.22239 17.1558C4.23656 17.1416 4.23656 17.1416 4.25073 17.1274C5.02989 16.1783 6.20573 15.5833 7.52323 15.5833H26.4782C27.7957 15.5833 28.9574 16.1783 29.7224 17.0991C29.7366 17.1133 29.7507 17.1274 29.7507 17.1416C30.4449 17.9774 30.8274 19.0683 30.6999 20.2583Z" stroke="#139140" stroke-width="1.5" stroke-miterlimit="10"/>
<path d="M4.95703 16.1926V8.89681C4.95703 4.08014 6.1612 2.87598 10.9779 2.87598H12.777C14.5762 2.87598 14.987 3.41431 15.667 4.32098L17.4662 6.72931C17.9195 7.32431 18.1887 7.69264 19.3929 7.69264H23.0054C27.822 7.69264 29.0262 8.89681 29.0262 13.7135V16.2493" stroke="#139140" stroke-width="1.5" stroke-miterlimit="10" stroke-linecap="round" stroke-linejoin="round"/>
<path d="M13.3594 24.0833H20.641" stroke="#139140" stroke-width="1.5" stroke-miterlimit="10" stroke-linecap="round" stroke-linejoin="round"/>
</svg>
