<svg width="44" height="44" viewBox="0 0 44 44" fill="none" xmlns="http://www.w3.org/2000/svg">
<path d="M38.2674 7.14463L31.3466 0.2191C31.2552 0.127748 31.1 0.0866699 31.0224 0.0866699H8.20969C6.76705 0.0866699 5.59375 1.25989 5.59375 2.70252V41.2928C5.59375 42.7354 6.76705 43.9133 8.20969 43.9133H35.7839C37.2266 43.9133 38.4044 42.7355 38.4044 41.2928V7.46415C38.4044 7.37744 38.3542 7.23134 38.2674 7.14463ZM37.4914 41.2929C37.4914 42.2333 36.7244 43.0003 35.784 43.0003H8.20969C7.26927 43.0003 6.50684 42.2333 6.50684 41.2929V2.70261C6.50684 1.76211 7.26927 0.999756 8.20969 0.999756H30.5658V5.3048C30.5658 6.74743 31.7391 7.92065 33.1863 7.92065H37.4913L37.4914 41.2929Z" fill="#15AB49"/>
<path d="M10.7963 7.9224H24.3727C24.625 7.9224 24.8292 7.71795 24.8292 7.4659C24.8292 7.21384 24.625 7.0094 24.3727 7.0094H10.7963C10.544 7.0094 10.3398 7.21384 10.3398 7.4659C10.3398 7.71795 10.5439 7.9224 10.7963 7.9224Z" fill="#FCC845"/>
<path d="M10.7963 13.3294H32.8541C33.1064 13.3294 33.3106 13.1249 33.3106 12.8729C33.3106 12.6207 33.1064 12.4164 32.8541 12.4164H10.7963C10.544 12.4164 10.3398 12.6208 10.3398 12.8729C10.3398 13.1249 10.5439 13.3294 10.7963 13.3294Z" fill="#FCC845"/>
<path d="M32.8331 26.2777L31.3859 25.9628C31.1485 24.9675 30.7559 24.0271 30.2218 23.1552L31.0207 21.9088C31.3084 21.4568 31.2444 20.8588 30.8701 20.4844L29.7197 19.334C29.3362 18.9551 28.7518 18.8911 28.2953 19.1833L27.0444 19.9868C26.1724 19.4481 25.232 19.0601 24.2368 18.8227L23.9218 17.371C23.8031 16.8414 23.3465 16.4716 22.8079 16.4716H21.1872C20.6439 16.4716 20.1874 16.8413 20.0687 17.371L19.7536 18.8227C18.763 19.0601 17.818 19.4481 16.946 19.9868L15.6951 19.1788C15.2386 18.8911 14.6542 18.9551 14.2661 19.334L13.1248 20.4844C12.7459 20.8588 12.6819 21.4613 12.9696 21.9088L13.7731 23.1552C13.2344 24.0271 12.8463 24.9676 12.6043 25.9628L11.1571 26.2777C10.6276 26.3964 10.2578 26.8575 10.2578 27.4008V29.0169C10.2578 29.5602 10.6276 30.0167 11.1571 30.1354L12.6043 30.4505C12.8463 31.4457 13.2343 32.3862 13.7731 33.2581L12.9696 34.509C12.6774 34.9655 12.7413 35.5499 13.1248 35.9334L14.2707 37.0838C14.6541 37.4627 15.243 37.5267 15.695 37.2344L16.9459 36.431C17.8178 36.9697 18.7629 37.3577 19.7536 37.5951L20.0686 39.0468C20.1873 39.5764 20.6439 39.9417 21.1871 39.9417H22.8078C23.3464 39.9417 23.803 39.5765 23.9217 39.0423L24.2367 37.5951C25.2319 37.3576 26.1723 36.9697 27.0443 36.431L28.2952 37.239C28.7517 37.5266 29.3361 37.4627 29.7242 37.0792L30.8655 35.9333C31.249 35.5498 31.3129 34.9654 31.0207 34.5089L30.2218 33.258C30.756 32.3906 31.1485 31.4456 31.3859 30.4504L32.8376 30.1354C33.3626 30.0167 33.7324 29.5601 33.7324 29.0168V27.4007C33.7324 26.8575 33.3626 26.3964 32.8331 26.2777ZM21.9952 33.7876C18.9182 33.7876 16.4164 31.2859 16.4164 28.2089C16.4164 25.1319 18.9181 22.6301 21.9952 22.6301C25.0721 22.6301 27.5785 25.1319 27.5785 28.2089C27.5785 31.2859 25.0721 33.7876 21.9952 33.7876Z" fill="#15AB49"/>
<circle cx="22" cy="28" r="4" fill="#FCC845"/>
</svg>
