<svg width="90" height="80" viewBox="0 0 90 80" fill="none" xmlns="http://www.w3.org/2000/svg">
<path d="M30.3742 40.4532C30.3742 35.1628 26.0693 30.8588 20.778 30.8588C15.4875 30.8588 11.1836 35.1628 11.1836 40.4532C11.1836 45.7437 15.4875 50.0476 20.778 50.0476C26.0693 50.0476 30.3742 45.7435 30.3742 40.4532ZM14.6993 40.4532C14.6993 37.1015 17.4263 34.3745 20.778 34.3745C24.1308 34.3745 26.8584 37.1015 26.8584 40.4532C26.8584 43.8049 24.1308 46.5319 20.778 46.5319C17.4263 46.5319 14.6993 43.8049 14.6993 40.4532Z" fill="#139140"/>
<path d="M22.5948 62.6566C24.7468 62.6566 26.6525 61.2072 27.2304 59.1284L27.7472 57.2542C27.777 57.1462 27.8527 57.0566 27.9489 57.0149C29.2135 56.4666 30.4176 55.7698 31.5256 54.9457C31.6126 54.8814 31.7299 54.8599 31.8415 54.8891L33.7287 55.378C35.8142 55.9162 38.0223 54.9913 39.0995 53.127L40.9129 49.9831C41.99 48.1191 41.6883 45.7437 40.1774 44.2052L38.8109 42.8174C38.7307 42.7349 38.6919 42.627 38.7043 42.5191C38.8619 41.1485 38.8617 39.7566 38.7042 38.3858C38.6919 38.2796 38.7304 38.1724 38.8105 38.091L40.1792 36.6995C41.6883 35.1629 41.99 32.7875 40.9134 30.9242L39.0986 27.7783C38.0219 25.915 35.8139 24.9899 33.7273 25.5286L31.8394 26.0177C31.7293 26.046 31.6121 26.0251 31.5275 25.9623C30.4173 25.1365 29.2131 24.4396 27.9494 23.8917C27.8524 23.8497 27.7768 23.7601 27.7469 23.6518L27.2292 21.7742C26.6523 19.6989 24.7464 18.2495 22.5946 18.2495H18.9629C16.8083 18.2495 14.9022 19.6997 14.3277 21.7765L13.809 23.6526C13.7793 23.7601 13.7042 23.8492 13.607 23.8912C12.3443 24.4386 11.14 25.1351 10.0259 25.9623C9.94135 26.0252 9.82569 26.0458 9.71441 26.0171L7.82717 25.5283C5.74288 24.99 3.53518 25.9154 2.45849 27.7787L0.643853 30.9216C-0.436352 32.7861 -0.133825 35.1628 1.37917 36.7004L2.74327 38.0873C2.82448 38.1703 2.86403 38.2791 2.85137 38.3874C2.69369 39.7589 2.6944 41.1511 2.85155 42.5226C2.86368 42.627 2.82413 42.7369 2.74502 42.8172L1.37934 44.2057C-0.133825 45.7439 -0.436352 48.1203 0.642447 49.9824L2.45867 53.1279C3.53518 54.9911 5.74323 55.9164 7.82823 55.3775L9.71582 54.8886C9.82533 54.8603 9.94153 54.8807 10.0275 54.9447C11.14 55.7709 12.3445 56.4673 13.6081 57.0151C13.7055 57.0573 13.7786 57.1443 13.8094 57.2559L14.3279 59.1296C14.9024 61.206 16.8083 62.6564 18.963 62.6564H22.5948V62.6566ZM17.7164 58.1923L17.1983 56.3204C16.8838 55.179 16.0844 54.2563 15.0058 53.7894C13.9899 53.3489 13.0202 52.7881 12.1248 52.1231C11.1866 51.4251 9.96403 51.1918 8.83302 51.4856L6.94789 51.9737C6.38643 52.12 5.79245 51.8702 5.50311 51.3695L3.68601 48.2224C3.39666 47.7229 3.47875 47.0849 3.88588 46.6711L5.25103 45.2831C6.08127 44.4401 6.4796 43.2864 6.34424 42.12C6.21768 41.0159 6.21715 39.8944 6.34407 38.7903C6.47907 37.6238 6.08162 36.4704 5.25191 35.6242L3.8857 34.2351C3.47875 33.8215 3.39666 33.1838 3.68741 32.6821L5.50311 29.5376C5.79263 29.0363 6.38643 28.7872 6.94701 28.9326L8.83144 29.4205C9.97932 29.7196 11.1798 29.487 12.1237 28.7844C13.0204 28.1187 13.9901 27.5577 15.005 27.1177C16.084 26.6509 16.8833 25.7292 17.1982 24.5896L17.7167 22.7141C17.8712 22.1557 18.3838 21.7656 18.9634 21.7656H22.5951C23.174 21.7656 23.6868 22.1565 23.8415 22.7127L24.3581 24.5861C24.6722 25.726 25.471 26.6484 26.5507 27.1172C27.5676 27.5581 28.5362 28.1187 29.4318 28.7847C30.3784 29.4868 31.5787 29.7183 32.7234 29.4209L34.6085 28.9327C35.171 28.7872 35.7657 29.0363 36.0547 29.5366L37.8694 32.6824C38.1591 33.1838 38.0777 33.8228 37.6723 34.2353L36.3052 35.6253C35.4753 36.4683 35.077 37.6218 35.2122 38.7889C35.3389 39.8921 35.3391 41.0131 35.2124 42.1163C35.0772 43.2834 35.4748 44.4367 36.3031 45.281C36.3038 45.2819 36.3047 45.2828 36.3054 45.2835L37.6713 46.6704C38.0775 47.0842 38.1589 47.7232 37.8687 48.2256L36.0553 51.3695C35.7656 51.8707 35.1709 52.1198 34.6094 51.9744L32.7246 51.4863C31.5785 51.189 30.3784 51.42 29.4297 52.1235C28.536 52.7881 27.5672 53.3489 26.5496 53.7899C25.4708 54.2582 24.6719 55.1808 24.3579 56.3204L23.842 58.1909C23.6864 58.7506 23.1735 59.1414 22.5946 59.1414H18.9629C18.3835 59.1409 17.8709 58.7508 17.7164 58.1923Z" fill="#139140"/>
<path d="M84.9005 51.5592V22.9071C84.9005 20.1383 82.648 17.8858 79.8792 17.8858H55.1073C52.3385 17.8858 50.0859 20.1383 50.0859 22.9071V32.4643C50.0859 33.435 50.8731 34.2221 51.8438 34.2221C52.8145 34.2221 53.6017 33.435 53.6017 32.4643V22.9071C53.6017 22.0769 54.2772 21.4015 55.1073 21.4015H79.879C80.7093 21.4015 81.3846 22.0771 81.3846 22.9071V49.8425C80.0793 49.4554 78.7057 49.2924 77.3461 49.3607C72.0133 49.6247 67.3647 53.5414 66.1999 58.7527H55.1073C54.277 58.7527 53.6017 58.0772 53.6017 57.2471V47.928C53.6017 46.9573 52.8145 46.1701 51.8438 46.1701C50.8731 46.1701 50.0859 46.9573 50.0859 47.928V57.2471C50.0859 60.0159 52.3385 62.2684 55.1073 62.2684H65.9462C66.3985 68.4999 71.6095 73.4326 77.9544 73.4326C84.5952 73.4326 89.9982 68.03 89.9982 61.389C89.9983 57.3336 87.9815 53.7426 84.9005 51.5592ZM77.9545 69.9167C73.2521 69.9167 69.4264 66.0911 69.4264 61.3888C69.4264 56.7271 73.3832 52.8166 78.0447 52.863C82.6524 52.9121 86.4824 56.7815 86.4824 61.3888C86.4826 66.0911 82.657 69.9167 77.9545 69.9167Z" fill="#139140"/>
<path d="M60.6446 32.0162H74.5317C75.5024 32.0162 76.2895 31.229 76.2895 30.2583C76.2895 29.2877 75.5024 28.5005 74.5317 28.5005H60.6446C59.6739 28.5005 58.8867 29.2877 58.8867 30.2583C58.8867 31.229 59.6737 32.0162 60.6446 32.0162Z" fill="#139140"/>
<path d="M60.6446 41.8233H74.5317C75.5024 41.8233 76.2895 41.0362 76.2895 40.0655C76.2895 39.0948 75.5024 38.3076 74.5317 38.3076H60.6446C59.6739 38.3076 58.8867 39.0948 58.8867 40.0655C58.8867 41.0362 59.6737 41.8233 60.6446 41.8233Z" fill="#139140"/>
<path d="M60.6446 51.9819H65.2783C66.249 51.9819 67.0362 51.1947 67.0362 50.224C67.0362 49.2534 66.249 48.4662 65.2783 48.4662H60.6446C59.6739 48.4662 58.8867 49.2534 58.8867 50.224C58.8867 51.1947 59.6737 51.9819 60.6446 51.9819Z" fill="#139140"/>
<path d="M80.1127 58.4005L76.5639 61.9494L75.4619 60.8474C74.7753 60.1611 73.6622 60.1611 72.9758 60.8474C72.2893 61.534 72.2893 62.6469 72.9758 63.3335L75.3208 65.6784C75.6641 66.0215 76.1139 66.1932 76.5637 66.1932C77.0136 66.1932 77.4634 66.0215 77.8067 65.6784L82.5987 60.8864C83.2851 60.2 83.2851 59.0869 82.5987 58.4003C81.912 57.7142 80.7993 57.7142 80.1127 58.4005Z" fill="#139140"/>
<path d="M62.9137 70.0522C56.8913 74.1723 49.8359 76.3503 42.5102 76.3503C35.797 76.3503 29.3931 74.5534 23.7623 71.1231L26.3532 70.7105C27.3119 70.5578 27.9655 69.6569 27.8128 68.6981C27.6602 67.7392 26.7589 67.0879 25.8004 67.2384L18.9087 68.3357C17.8856 68.4988 17.2252 69.5452 17.4873 70.5405L18.8633 77.119C19.0593 78.0556 20.0064 78.6759 20.9437 78.4796C21.894 78.2808 22.5033 77.3493 22.3045 76.399L21.8137 74.0529C28.0228 77.8673 35.0947 79.866 42.51 79.866C50.5472 79.866 58.289 77.4757 64.8987 72.9537C65.7001 72.4056 65.9052 71.3115 65.3568 70.5105C64.809 69.7091 63.7149 69.5039 62.9137 70.0522Z" fill="#139140"/>
<path d="M18.4149 12.6175C18.8082 12.6175 19.2039 12.4862 19.5312 12.2169C25.9809 6.90709 34.142 3.98288 42.5108 3.98288C49.4985 3.98288 56.3406 6.02306 62.1633 9.78681L59.4404 10.2201C58.4817 10.3727 57.8279 11.2736 57.9805 12.2323C58.131 13.1784 59.0472 13.8417 59.9927 13.6923L66.8837 12.5957C67.8592 12.44 68.5324 11.4687 68.3282 10.4998L66.9298 3.81184C66.7313 2.86172 65.8007 2.25209 64.8494 2.45108C63.8992 2.64972 63.2898 3.58121 63.4886 4.53151L63.9544 6.75942C57.5911 2.67838 50.1299 0.467163 42.511 0.467163C33.3292 0.467163 24.3746 3.67596 17.2969 9.50239C16.5474 10.1196 16.44 11.2272 17.057 11.9768C17.4043 12.3992 17.9076 12.6175 18.4149 12.6175Z" fill="#139140"/>
<path d="M50.8701 41.738C52.1927 42.6443 53.9605 41.3298 53.5385 39.8091C53.108 38.2579 50.8926 38.0847 50.2407 39.5662C49.9028 40.3338 50.1621 41.2751 50.8701 41.738Z" fill="#139140"/>
</svg>
