<svg width="44" height="44" viewBox="0 0 44 44" fill="none" xmlns="http://www.w3.org/2000/svg">
<g clip-path="url(#clip0_6024_1310)">
<path d="M38.0413 7.60024C25.7025 -4.81754 4.21166 3.42833 3.31813 20.8826C1.40472 21.4314 0 23.1958 0 25.2832V32.1034H2.58173V29.8316H6.57498V32.1034H9.15671V25.2832C9.15671 23.2195 7.784 21.471 5.9039 20.9012C6.47128 11.6071 14.2114 4.21912 23.6458 4.21912C46.4135 4.94346 47.4925 37.4028 24.9367 39.7259V34.4241C24.0929 34.5266 23.1987 34.5266 22.3549 34.4241V42.354H23.6458C41.684 42.3843 50.8124 20.3258 38.0413 7.60024Z" fill="#15AB49"/>
<path d="M22.3563 31.8184V26.1611L18.1082 22.6649L19.7488 20.6715L22.3562 22.8174V16.574H24.9379V22.8547L27.5559 20.7463L29.1752 22.7571L24.9378 26.1695V31.8184C28.8772 31.1968 31.8993 27.7785 31.8993 23.6672C32.1772 21.0969 27.02 13.4967 23.6435 9.66797C20.6795 13.184 15.3945 20.1766 15.3945 23.6672C15.3948 27.7786 18.417 31.1968 22.3563 31.8184Z" fill="#FCC845"/>
</g>
<defs>
<clipPath id="clip0_6024_1310">
<rect width="44" height="44" fill="white"/>
</clipPath>
</defs>
</svg>
