<svg width="100" height="101" viewBox="0 0 100 101" fill="none" xmlns="http://www.w3.org/2000/svg">
<path d="M62.4648 66.103C62.4648 66.0435 62.4847 65.9344 62.5244 65.7749L68.0724 47.5796C68.2311 47.0822 68.5943 46.6992 69.1612 46.4306C69.728 46.162 70.3788 46.0278 71.1151 46.0278C71.8505 46.0278 72.5021 46.162 73.0689 46.4306C73.6358 46.6992 73.9982 47.0822 74.1577 47.5796L79.7355 65.7749C79.7752 65.9344 79.7958 66.0435 79.7958 66.103C79.7958 66.6203 79.4723 67.0681 78.8261 67.4458C78.1799 67.8234 77.5085 68.0119 76.8127 68.0119C75.9574 68.0119 75.4501 67.7242 75.2914 67.1475L74.2774 63.419H67.9832L66.9692 67.1475C66.8098 67.7242 66.3024 68.0119 65.4479 68.0119C64.7514 68.0119 64.08 67.8234 63.4338 67.4458C62.7876 67.0681 62.4648 66.6203 62.4648 66.103ZM68.9376 59.8393H73.2925L71.1151 51.8452L68.9376 59.8393Z" fill="#139140"/>
<path d="M85.7979 34.8987H65.8554V25.111C65.8554 17.2802 59.4849 10.9089 51.6533 10.9089H14.2021C6.37131 10.9089 0 17.2802 0 25.111V41.7843C0 49.5083 6.19736 55.8117 13.8817 55.9833C13.8306 57.6031 13.6497 59.4074 13.3408 61.3727C13.1317 62.6995 13.6253 64.0034 14.6599 64.8609C15.3542 65.4362 16.2003 65.7352 17.0647 65.7352C17.495 65.7352 17.9298 65.6605 18.3533 65.5094C21.1685 64.5031 26.0658 61.9579 28.5912 55.9864H42.6659V65.7749C42.6659 73.6057 49.0372 79.977 56.868 79.977H71.4088C73.9349 85.9485 78.8315 88.493 81.6475 89.5C82.0702 89.6511 82.505 89.7251 82.9353 89.7251C83.7997 89.7251 84.6458 89.426 85.3401 88.8508C86.3754 87.994 86.8683 86.6894 86.6592 85.3626C86.3503 83.398 86.1694 81.5929 86.1183 79.9732C93.8026 79.8023 100 73.4989 100 65.7749V49.1016C100 41.2701 93.6287 34.8987 85.7979 34.8987ZM96.0938 65.7741C96.0938 71.4519 91.4749 76.0708 85.7979 76.0708H84.169C83.1192 76.0708 82.2571 76.9008 82.2174 77.9507C82.1327 80.2059 82.3174 82.8289 82.7667 85.7502C79.9232 84.6905 76.2764 82.3879 74.6094 77.4044C74.3431 76.6079 73.597 76.0708 72.7577 76.0708H56.868C51.1909 76.0708 46.5721 71.4519 46.5721 65.7741V54.0356C46.5721 54.0348 46.5721 54.034 46.5721 54.0333C46.5721 54.0325 46.5721 54.0317 46.5721 54.031V49.1009C46.5721 47.3499 47.0192 45.6211 47.8645 44.1021C48.3894 43.1591 48.0507 41.9704 47.1077 41.4455C46.1655 40.9206 44.976 41.2601 44.4511 42.2024C43.2831 44.3012 42.6659 46.6862 42.6659 49.1009V52.0801H27.2423C26.4023 52.0801 25.6561 52.6172 25.3899 53.4138C23.7236 58.3973 20.0768 60.7006 17.2333 61.7596C17.6819 58.8383 17.8665 56.2153 17.7826 53.96C17.7429 52.9102 16.8808 52.0801 15.8302 52.0801H14.2021C8.52509 52.0801 3.90625 47.4613 3.90625 41.7843V25.111C3.90625 19.434 8.52509 14.8151 14.2021 14.8151H51.6533C57.3303 14.8151 61.9492 19.434 61.9492 25.111V34.8995H59.1797C58.1009 34.8995 57.2266 35.7738 57.2266 36.8526C57.2266 37.9314 58.1009 38.8058 59.1797 38.8058H85.7979C91.4749 38.8058 96.0938 43.4246 96.0938 49.1016V65.7741Z" fill="#139140"/>
<path d="M40.5494 27.0191C41.6282 27.0191 42.5025 26.1447 42.5025 25.0659C42.5025 23.9872 41.6282 23.1128 40.5494 23.1128H33.0985V20.19C33.0985 19.1112 32.2242 18.2369 31.1454 18.2369C30.0674 18.2369 29.1923 19.1112 29.1923 20.19V23.1128H21.7422C20.6634 23.1128 19.7891 23.9872 19.7891 25.0659C19.7891 26.1447 20.6634 27.0191 21.7422 27.0191H34.6877C34.3177 28.6449 33.4045 31.2702 31.1538 34.2266C30.0704 32.8037 29.3083 31.4769 28.775 30.334C28.3187 29.3567 27.156 28.9341 26.1787 29.3911C25.2014 29.8473 24.7787 31.0092 25.2349 31.9866C25.9414 33.4995 26.9836 35.2855 28.5125 37.1852C26.6349 39.0026 24.2103 40.858 21.0761 42.6181C20.1354 43.1461 19.8013 44.3363 20.3292 45.277C20.687 45.9156 21.3508 46.2741 22.0344 46.2741C22.3579 46.2741 22.6859 46.194 22.9881 46.0239C26.387 44.1158 29.0565 42.0841 31.1546 40.0661C33.2351 42.0711 35.897 44.1127 39.3028 46.0239C39.6057 46.194 39.9337 46.2741 40.2572 46.2741C40.94 46.2741 41.6038 45.9156 41.9624 45.277C42.4903 44.3363 42.1554 43.1461 41.2155 42.6181C38.0782 40.8573 35.6613 38.9965 33.7951 37.1875C37.1757 32.9814 38.2949 29.1439 38.6634 27.0191H40.5494Z" fill="#139140"/>
<path d="M51.3148 36.2293H51.3102C50.2322 36.2293 49.3594 37.1036 49.3594 38.1824C49.3594 39.2612 50.2368 40.1356 51.3148 40.1356C52.3936 40.1356 53.2679 39.2612 53.2679 38.1824C53.2679 37.1036 52.3936 36.2293 51.3148 36.2293Z" fill="#139140"/>
</svg>
