<svg width="18" height="18" viewBox="0 0 18 18" fill="none" xmlns="http://www.w3.org/2000/svg">
<path d="M9.00075 6.75C8.40401 6.75 7.83172 6.98705 7.40976 7.40901C6.9878 7.83097 6.75075 8.40326 6.75075 9C6.75075 9.59674 6.9878 10.169 7.40976 10.591C7.83172 11.0129 8.40401 11.25 9.00075 11.25C9.59749 11.25 10.1698 11.0129 10.5917 10.591C11.0137 10.169 11.2508 9.59674 11.2508 9C11.2508 8.40326 11.0137 7.83097 10.5917 7.40901C10.1698 6.98705 9.59749 6.75 9.00075 6.75ZM9.00075 5.25C9.99531 5.25 10.9491 5.64509 11.6524 6.34835C12.3557 7.05161 12.7507 8.00544 12.7507 9C12.7507 9.99456 12.3557 10.9484 11.6524 11.6517C10.9491 12.3549 9.99531 12.75 9.00075 12.75C8.00619 12.75 7.05236 12.3549 6.3491 11.6517C5.64584 10.9484 5.25075 9.99456 5.25075 9C5.25075 8.00544 5.64584 7.05161 6.3491 6.34835C7.05236 5.64509 8.00619 5.25 9.00075 5.25ZM13.8757 5.0625C13.8757 5.31114 13.777 5.5496 13.6012 5.72541C13.4253 5.90123 13.1869 6 12.9382 6C12.6896 6 12.4512 5.90123 12.2753 5.72541C12.0995 5.5496 12.0007 5.31114 12.0007 5.0625C12.0007 4.81386 12.0995 4.5754 12.2753 4.39959C12.4512 4.22377 12.6896 4.125 12.9382 4.125C13.1869 4.125 13.4253 4.22377 13.6012 4.39959C13.777 4.5754 13.8757 4.81386 13.8757 5.0625ZM9.00075 3C7.14525 3 6.84225 3.00525 5.979 3.0435C5.391 3.07125 4.9965 3.15 4.6305 3.2925C4.32437 3.40528 4.04754 3.58548 3.8205 3.81975C3.58595 4.04671 3.4055 4.32355 3.2925 4.62975C3.15 4.99725 3.07125 5.391 3.04425 5.97825C3.00525 6.80625 3 7.09575 3 9C3 10.8562 3.00525 11.1585 3.0435 12.0217C3.07125 12.609 3.15 13.0043 3.29175 13.3695C3.41925 13.6958 3.56925 13.9305 3.81825 14.1795C4.071 14.4315 4.30575 14.5822 4.62825 14.7067C4.99875 14.85 5.39325 14.9295 5.97825 14.9565C6.80625 14.9955 7.09575 15 9 15C10.8562 15 11.1585 14.9948 12.0217 14.9565C12.6082 14.9288 13.0028 14.85 13.3695 14.7083C13.6756 14.5955 13.9525 14.4153 14.1795 14.181C14.4323 13.929 14.583 13.6942 14.7075 13.371C14.85 13.002 14.9295 12.6075 14.9565 12.021C14.9955 11.1937 15 10.9035 15 9C15 7.1445 14.9948 6.8415 14.9565 5.97825C14.9288 5.39175 14.8493 4.99575 14.7075 4.62975C14.5947 4.32362 14.4145 4.04679 14.1803 3.81975C13.9533 3.58521 13.6764 3.40475 13.3702 3.29175C13.0027 3.14925 12.6082 3.0705 12.0217 3.0435C11.1945 3.0045 10.905 3 9 3M9 1.5C11.0378 1.5 11.292 1.5075 12.0922 1.545C12.8902 1.5825 13.4347 1.70775 13.9125 1.89375C14.4075 2.08425 14.8245 2.34225 15.2415 2.7585C15.623 3.1333 15.9181 3.58685 16.1063 4.0875C16.2915 4.56525 16.4175 5.10975 16.455 5.9085C16.4903 6.708 16.5 6.96225 16.5 9C16.5 11.0378 16.4925 11.292 16.455 12.0915C16.4175 12.891 16.2915 13.434 16.1063 13.9125C15.9181 14.4131 15.623 14.8667 15.2415 15.2415C14.8667 15.623 14.4131 15.9181 13.9125 16.1063C13.4347 16.2915 12.8902 16.4175 12.0922 16.455C11.292 16.4903 11.0378 16.5 9 16.5C6.96225 16.5 6.708 16.4925 5.90775 16.455C5.10975 16.4175 4.566 16.2915 4.0875 16.1063C3.58685 15.9181 3.1333 15.623 2.7585 15.2415C2.37698 14.8667 2.08186 14.4131 1.89375 13.9125C1.70775 13.4347 1.5825 12.8903 1.545 12.0915C1.509 11.292 1.5 11.0378 1.5 9C1.5 6.96225 1.5075 6.708 1.545 5.9085C1.5825 5.109 1.70775 4.566 1.89375 4.0875C2.08186 3.58685 2.37698 3.1333 2.7585 2.7585C3.1333 2.37698 3.58685 2.08186 4.0875 1.89375C4.56525 1.70775 5.109 1.5825 5.90775 1.545C6.70875 1.50975 6.963 1.5 9.00075 1.5" fill="white"/>
</svg>
