<svg width="13" height="13" viewBox="0 0 13 13" fill="none" xmlns="http://www.w3.org/2000/svg">
<path d="M11.9505 0C12.2439 0 12.4922 0.0959195 12.6953 0.28776C12.8984 0.4796 13 0.722222 13 1.01562V11.8828C13 12.1762 12.8984 12.4358 12.6953 12.6615C12.4922 12.8872 12.2439 13 11.9505 13H1.11719C0.823785 13 0.564236 12.8872 0.338542 12.6615C0.112847 12.4358 0 12.1762 0 11.8828V1.01562C0 0.722222 0.107205 0.4796 0.321615 0.28776C0.536024 0.0959195 0.801215 0 1.11719 0H11.9505ZM4.02865 10.8333V5.04427H2.16667V10.8333H4.02865ZM2.4375 3.8763C2.4375 3.8763 2.48264 3.92426 2.57292 4.02018C2.66319 4.1161 2.85503 4.16406 3.14844 4.16406C3.44184 4.16406 3.68446 4.06814 3.8763 3.8763C4.06814 3.68446 4.16406 3.45312 4.16406 3.18229C4.16406 2.88889 4.07378 2.64627 3.89323 2.45443C3.71267 2.26259 3.47569 2.16667 3.18229 2.16667C2.88889 2.16667 2.64627 2.26259 2.45443 2.45443C2.26259 2.64627 2.16667 2.88889 2.16667 3.18229C2.16667 3.45312 2.25694 3.68446 2.4375 3.8763ZM10.8333 10.8333V7.44792C10.8333 6.61285 10.6359 5.9809 10.2409 5.55208C9.84592 5.12326 9.33247 4.90885 8.70052 4.90885C8.02344 4.90885 7.4592 5.22483 7.00781 5.85677V5.04427H5.14583V10.8333H7.00781V7.54948C7.00781 7.32378 7.03038 7.1658 7.07552 7.07552C7.25608 6.62413 7.57205 6.39844 8.02344 6.39844C8.65538 6.39844 8.97135 6.81597 8.97135 7.65104V10.8333H10.8333Z" fill="white"/>
</svg>
