<svg width="44" height="44" viewBox="0 0 44 44" fill="none" xmlns="http://www.w3.org/2000/svg">
<path d="M21.9987 0C13.9117 0 7.33203 6.57963 7.33203 14.6667C7.33203 17.0944 7.93901 19.5015 9.09289 21.6366L21.1967 43.5273C21.3578 43.8192 21.6649 44 21.9987 44C22.3326 44 22.6396 43.8192 22.8008 43.5273L34.909 21.6294C36.0584 19.5015 36.6654 17.0943 36.6654 14.6666C36.6654 6.57963 30.0858 0 21.9987 0ZM33.3004 20.7494L21.9987 41.1892L10.7016 20.7575C9.69626 18.8973 9.16542 16.791 9.16542 14.6667C9.16542 7.59026 14.9224 1.83339 21.9987 1.83339C29.0751 1.83339 34.832 7.59034 34.832 14.6667C34.832 16.7909 34.3012 18.8973 33.3004 20.7494Z" fill="#139140"/>
<path d="M21.9974 7.33301C17.9538 7.33301 14.6641 10.6228 14.6641 14.6663C14.6641 18.7099 17.9538 21.9997 21.9974 21.9997C26.0409 21.9997 29.3307 18.7099 29.3307 14.6664C29.3307 10.6229 26.0409 7.33301 21.9974 7.33301ZM21.9974 20.1664C18.9645 20.1664 16.4974 17.6993 16.4974 14.6664C16.4974 11.6335 18.9645 9.1664 21.9974 9.1664C25.0303 9.1664 27.4974 11.6335 27.4974 14.6664C27.4974 17.6992 25.0303 20.1664 21.9974 20.1664Z" fill="#139140"/>
</svg>
