<svg width="44" height="44" viewBox="0 0 44 44" fill="none" xmlns="http://www.w3.org/2000/svg">
<g clip-path="url(#clip0_6027_7454)">
<path d="M44.0001 16.5148C43.9814 12.3729 40.6085 9.0305 36.4666 9.04943C32.3248 9.06835 28.9823 12.441 29.0013 16.5828C29.0133 19.2293 30.4193 21.6736 32.7009 23.0145C30.8119 25.0424 29.3376 27.4204 28.3612 30.0139H15.6418C14.6726 27.4033 13.2055 25.0058 11.3222 22.9544C14.886 20.8438 16.064 16.2439 13.9534 12.6801C11.8428 9.11627 7.24288 7.93832 3.67908 10.0489C0.115291 12.1595 -1.06266 16.7594 1.04792 20.3232C1.56491 21.1962 2.2539 21.9554 3.07274 22.5545C1.09632 24.6299 -0.00329433 27.388 0.0029344 30.2539V40.0132C0.0029344 40.5654 0.450684 41.0131 1.00289 41.0131H16.0019C16.5541 41.0131 17.0019 40.5654 17.0019 40.0132V37.5032C17.0019 37.3331 17.0019 37.1734 17.0019 37.0133H27.0011V37.5032V40.0132C27.0011 40.5654 27.4489 41.0131 28.0011 41.0131H43.0001C43.5523 41.0131 44.0001 40.5654 44.0001 40.0132V30.2539C44.0063 27.388 42.9067 24.6299 40.9303 22.5545C42.8588 21.1466 43.9993 18.9026 44.0001 16.5148ZM31.0009 16.5148C31.0009 13.4773 33.4632 11.0151 36.5007 11.0151C39.5381 11.0151 42.0004 13.4773 42.0004 16.5148C42.0004 19.5523 39.5381 22.0145 36.5007 22.0145C33.4654 22.009 31.0064 19.5499 31.0009 16.5148ZM2.00284 16.5148C2.00284 13.4773 4.4651 11.0151 7.50257 11.0151C10.54 11.0151 13.0023 13.4773 13.0023 16.5148C13.0023 19.5523 10.5398 22.0145 7.50257 22.0145C4.4675 22.009 2.00835 19.5499 2.00284 16.5148ZM20.0017 35.0134H11.5522L6.85262 27.4838C6.55987 27.0145 5.94203 26.8713 5.47272 27.1638C5.00341 27.4565 4.86015 28.0744 5.15266 28.5437L10.1524 36.543C10.3354 36.836 10.6569 37.0138 11.0024 37.0131H15.0022V37.503V39.013H2.00284V30.2537C1.99373 27.8017 2.96997 25.449 4.71257 23.7241C4.76504 23.6604 4.80888 23.5897 4.84266 23.514C6.27694 24.0758 7.85281 24.1668 9.34244 23.7739C11.4506 25.9065 13.0442 28.4919 14.002 31.3334C14.145 31.7587 14.5537 32.0368 15.002 32.0133H20.5017C21.3301 32.0133 22.0016 32.6848 22.0016 33.5133C22.0016 34.3417 21.3301 35.0132 20.5017 35.0132H20.0017V35.0134ZM23.6515 35.0134C24.1179 34.0678 24.1179 32.9591 23.6515 32.0136H27.7313C27.4657 32.9977 27.275 34.0005 27.1614 35.0134H23.6515ZM39.2904 23.7243C41.033 25.4492 42.0095 27.802 42.0002 30.2539V39.0132H36.0007V29.014C36.0007 28.4618 35.5529 28.014 35.0007 28.014C34.4485 28.014 34.0008 28.4618 34.0008 29.014V39.0132H29.001V37.5032C28.9886 32.3566 31.0251 27.4168 34.6606 23.7742C36.1499 24.167 37.7258 24.076 39.1603 23.5142C39.1941 23.5899 39.2377 23.6604 39.2904 23.7243Z" fill="#139140"/>
<path d="M19.4035 11.8152C19.5765 11.9451 19.7871 12.0153 20.0034 12.0153C20.2465 12.015 20.4811 11.9261 20.6634 11.7654L28.6628 4.76597C29.0928 4.41956 29.1606 3.78998 28.8142 3.35995C28.4678 2.92993 27.8382 2.86214 27.4082 3.20855C27.3854 3.22676 27.3636 3.24592 27.3428 3.26604L20.0036 9.72524L16.6037 7.21554C16.1619 6.88422 15.5352 6.97382 15.2039 7.41558C14.8726 7.85734 14.9622 8.48405 15.4039 8.81537L19.4035 11.8152Z" fill="#139140"/>
</g>
<defs>
<clipPath id="clip0_6027_7454">
<rect width="44" height="44" fill="white"/>
</clipPath>
</defs>
</svg>
