<svg width="90" height="91" viewBox="0 0 90 91" fill="none" xmlns="http://www.w3.org/2000/svg">
<g clip-path="url(#clip0_6024_1670)">
<path d="M42.8047 45.437C42.8043 45.9562 42.9889 46.4585 43.3255 46.8538C43.3575 46.8934 43.3958 46.935 43.4386 46.9781L43.4523 46.9923C43.4567 46.9967 43.4602 47.0008 43.4647 47.0052L55.533 58.8031C55.9494 59.2075 56.509 59.4303 57.0894 59.4228C57.6698 59.4153 58.2235 59.178 58.6293 58.763C59.035 58.3479 59.2596 57.7889 59.254 57.2085C59.2483 56.6281 59.0128 56.0736 58.599 55.6666L47.1908 44.514V33.3229C47.1908 32.7412 46.9597 32.1834 46.5485 31.7722C46.1372 31.3609 45.5794 31.1298 44.9977 31.1298C44.4161 31.1298 43.8583 31.3609 43.447 31.7722C43.0357 32.1834 42.8047 32.7412 42.8047 33.3229V45.437Z" fill="#139140"/>
<path d="M44.9977 20.2992C45.5793 20.2992 46.1371 20.0682 46.5484 19.657C46.9597 19.2457 47.1907 18.688 47.1908 18.1064V12.8136C47.1908 12.232 46.9597 11.6741 46.5485 11.2629C46.1372 10.8516 45.5794 10.6205 44.9977 10.6205C44.4161 10.6205 43.8583 10.8516 43.447 11.2629C43.0357 11.6741 42.8047 12.232 42.8047 12.8136V18.1064C42.8047 18.688 43.0358 19.2457 43.4471 19.657C43.8583 20.0682 44.4161 20.2992 44.9977 20.2992Z" fill="#139140"/>
<path d="M42.8047 77.5197C42.8047 78.1013 43.0357 78.6591 43.447 79.0704C43.8583 79.4817 44.4161 79.7127 44.9977 79.7127C45.5794 79.7127 46.1372 79.4817 46.5485 79.0704C46.9597 78.6591 47.1908 78.1013 47.1908 77.5197V72.2269C47.1908 71.6453 46.9597 71.0875 46.5485 70.6762C46.1372 70.2649 45.5794 70.0339 44.9977 70.0339C44.4161 70.0339 43.8583 70.2649 43.447 70.6762C43.0357 71.0875 42.8047 71.6453 42.8047 72.2269V77.5197Z" fill="#139140"/>
<path d="M69.8672 45.1667C69.8672 45.7483 70.0982 46.3061 70.5095 46.7173C70.9207 47.1286 71.4785 47.3597 72.0601 47.3597H77.3528C77.9345 47.3597 78.4923 47.1287 78.9036 46.7174C79.3148 46.3061 79.5459 45.7483 79.5459 45.1667C79.5459 44.585 79.3148 44.0272 78.9036 43.616C78.4923 43.2047 77.9345 42.9736 77.3528 42.9736H72.0601C71.4785 42.9737 70.9207 43.2048 70.5095 43.616C70.0982 44.0273 69.8672 44.5851 69.8672 45.1667Z" fill="#139140"/>
<path d="M17.9389 42.9736H12.6462C12.0645 42.9736 11.5067 43.2047 11.0955 43.616C10.6842 44.0272 10.4531 44.585 10.4531 45.1667C10.4531 45.7483 10.6842 46.3061 11.0955 46.7174C11.5067 47.1287 12.0645 47.3597 12.6462 47.3597H17.9389C18.5206 47.3597 19.0784 47.1287 19.4897 46.7174C19.9009 46.3061 20.132 45.7483 20.132 45.1667C20.132 44.585 19.9009 44.0272 19.4897 43.616C19.0784 43.2047 18.5206 42.9736 17.9389 42.9736Z" fill="#139140"/>
<path d="M76.8198 13.347C72.5342 9.06106 67.4269 5.68515 61.8044 3.4218C56.1819 1.15846 50.1601 0.0543427 44.1003 0.17571C38.0406 0.297077 32.0678 1.64143 26.5404 4.12809C21.013 6.61474 16.045 10.1925 11.9344 14.6465L9.32704 12.0391C8.82701 11.5391 8.19498 11.1918 7.50484 11.0378C6.8147 10.8837 6.09496 10.9293 5.42976 11.1691C4.76456 11.409 4.18138 11.8333 3.7484 12.3923C3.31542 12.9514 3.05052 13.6222 2.98468 14.3262L1.47665 30.4638C1.42844 30.9797 1.48836 31.4999 1.65259 31.9912C1.81682 32.4826 2.08175 32.9343 2.43044 33.3175C2.77913 33.7006 3.20392 34.0068 3.67767 34.2165C4.15141 34.4262 4.66369 34.5348 5.18177 34.5353C5.2979 34.5353 5.41462 34.5298 5.53192 34.5189L21.6695 33.0106C22.3736 32.9447 23.0443 32.6798 23.6034 32.2468C24.1625 31.8139 24.5868 31.2307 24.8266 30.5655C25.0665 29.9003 25.1121 29.1805 24.958 28.4904C24.8039 27.8003 24.4566 27.1682 23.9566 26.6682L19.6538 22.3654C19.2419 21.9576 18.6852 21.7295 18.1055 21.7309C17.5258 21.7324 16.9702 21.9633 16.5603 22.3732C16.1504 22.7831 15.9194 23.3386 15.9179 23.9183C15.9165 24.498 16.1445 25.0547 16.5524 25.4667L19.8602 28.7746L5.91794 30.0778L7.22118 16.1356L10.5294 19.4432C11.3858 20.2998 12.7411 20.2342 13.5975 19.3773C13.6207 19.3541 14.057 18.8574 14.3046 18.5719C18.1171 14.1714 22.8313 10.6421 28.1274 8.22323C33.4235 5.80439 39.1778 4.55256 45.0001 4.55262C67.3946 4.55262 85.6142 22.7722 85.6142 45.1667C85.6142 67.5612 67.3946 85.7808 45.0001 85.7808C22.6056 85.7808 4.38601 67.5612 4.38601 45.1667C4.3886 44.8771 4.33379 44.5898 4.22475 44.3215C4.1157 44.0531 3.95458 43.809 3.75069 43.6033C3.5468 43.3976 3.30417 43.2343 3.03682 43.1228C2.76947 43.0114 2.48269 42.954 2.19305 42.954C1.9034 42.954 1.61662 43.0114 1.34927 43.1228C1.08192 43.2343 0.839295 43.3976 0.635402 43.6033C0.43151 43.809 0.27039 44.0531 0.161346 44.3215C0.0523024 44.5898 -0.00250525 44.8771 8.78979e-05 45.1667C0.00011126 54.0668 2.63933 62.7671 7.58399 70.1673C12.5287 77.5675 19.5567 83.3352 27.7793 86.7412C36.002 90.1471 45.05 91.0383 53.7791 89.3019C62.5082 87.5656 70.5265 83.2798 76.8198 76.9865C85.2589 68.5473 90 57.1014 90 45.1667C90 33.232 85.2589 21.7861 76.8198 13.347Z" fill="#139140"/>
<path d="M59.361 72.2298C60.5722 72.2298 61.5541 71.2479 61.5541 70.0367C61.5541 68.8256 60.5722 67.8437 59.361 67.8437C58.1498 67.8437 57.168 68.8256 57.168 70.0367C57.168 71.2479 58.1498 72.2298 59.361 72.2298Z" fill="#139140"/>
<path d="M70.2227 61.6916C71.4183 61.4976 72.2302 60.3712 72.0362 59.1756C71.8422 57.9801 70.7158 57.1682 69.5202 57.3622C68.3247 57.5562 67.5127 58.6826 67.7067 59.8782C67.9007 61.0737 69.0272 61.8856 70.2227 61.6916Z" fill="#139140"/>
<path d="M30.6384 72.2298C31.8495 72.2298 32.8314 71.2479 32.8314 70.0367C32.8314 68.8256 31.8495 67.8437 30.6384 67.8437C29.4272 67.8437 28.4453 68.8256 28.4453 70.0367C28.4453 71.2479 29.4272 72.2298 30.6384 72.2298Z" fill="#139140"/>
<path d="M20.1305 61.7193C21.3417 61.7193 22.3236 60.7374 22.3236 59.5262C22.3236 58.3151 21.3417 57.3332 20.1305 57.3332C18.9194 57.3332 17.9375 58.3151 17.9375 59.5262C17.9375 60.7374 18.9194 61.7193 20.1305 61.7193Z" fill="#139140"/>
<path d="M71.8954 31.6469C72.3589 30.5279 71.8275 29.245 70.7085 28.7815C69.5895 28.318 68.3067 28.8494 67.8431 29.9684C67.3796 31.0874 67.911 32.3702 69.03 32.8337C70.149 33.2973 71.4319 32.7659 71.8954 31.6469Z" fill="#139140"/>
<path d="M59.361 22.4895C60.5722 22.4895 61.5541 21.5077 61.5541 20.2965C61.5541 19.0853 60.5722 18.1035 59.361 18.1035C58.1498 18.1035 57.168 19.0853 57.168 20.2965C57.168 21.5077 58.1498 22.4895 59.361 22.4895Z" fill="#139140"/>
<path d="M30.6384 22.4895C31.8495 22.4895 32.8314 21.5076 32.8314 20.2964C32.8314 19.0853 31.8495 18.1034 30.6384 18.1034C29.4272 18.1034 28.4453 19.0853 28.4453 20.2964C28.4453 21.5076 29.4272 22.4895 30.6384 22.4895Z" fill="#139140"/>
</g>
<defs>
<clipPath id="clip0_6024_1670">
<rect width="90" height="90" fill="white" transform="translate(0 0.166687)"/>
</clipPath>
</defs>
</svg>
