<svg width="25" height="24" viewBox="0 0 25 24" fill="none" xmlns="http://www.w3.org/2000/svg">
<path fill-rule="evenodd" clip-rule="evenodd" d="M10.4382 12.6461L8.19016 11.8971C5.83716 11.1131 4.66016 10.7211 4.66016 10.0001C4.66016 9.2801 5.83716 8.8871 8.19016 8.1031L16.7032 5.2651C18.3592 4.7131 19.1872 4.4371 19.6242 4.8741C20.0612 5.3111 19.7852 6.1391 19.2342 7.7941L16.3952 16.3081C15.6112 18.6611 15.2192 19.8381 14.4982 19.8381C13.7782 19.8381 13.3852 18.6611 12.6012 16.3081L11.8512 14.0611L16.2052 9.7071C16.3873 9.5185 16.4881 9.2659 16.4858 9.0037C16.4836 8.74151 16.3784 8.49069 16.193 8.30529C16.0076 8.11988 15.7568 8.01471 15.4946 8.01243C15.2324 8.01015 14.9798 8.11095 14.7912 8.2931L10.4382 12.6461Z" fill="#15AB49"/>
</svg>
