<svg width="34" height="34" viewBox="0 0 34 34" fill="none" xmlns="http://www.w3.org/2000/svg">
<path d="M11.5362 13.1178C11.3832 13.4517 11.3161 13.8186 11.341 14.185C11.366 14.5515 11.4822 14.9059 11.6792 15.2159C11.8761 15.526 12.1475 15.7819 12.4686 15.9603C12.7896 16.1386 13.1503 16.2339 13.5176 16.2373L20.4824 16.2373C20.8524 16.2382 21.2166 16.1449 21.5407 15.9662C21.8648 15.7874 22.138 15.5292 22.3348 15.2158C23.5941 13.0558 20.8801 10.6767 19.027 10.0172C19.5654 9.59541 19.9589 9.01615 20.1525 8.36014C20.3462 7.70412 20.3303 7.00404 20.1073 6.35745C19.8842 5.71086 19.4649 5.14998 18.9079 4.75296C18.3509 4.35594 17.684 4.14257 17 4.14258C16.316 4.14259 15.649 4.35597 15.0921 4.75301C14.5351 5.15004 14.1158 5.71093 13.8928 6.35753C13.6697 7.00412 13.6539 7.7042 13.8475 8.36021C14.0412 9.01622 14.4347 9.59547 14.9731 10.0173C13.4631 10.5565 12.2276 11.671 11.5362 13.1178ZM16.9999 5.20506C17.587 5.21043 18.1483 5.44742 18.5615 5.86447C18.9748 6.28153 19.2066 6.8449 19.2066 7.43202C19.2066 8.01915 18.9748 8.58251 18.5615 8.99956C18.1482 9.4166 17.587 9.65359 16.9999 9.65894C16.4128 9.65357 15.8516 9.41658 15.4383 8.99953C15.0251 8.58247 14.7932 8.0191 14.7932 7.43198C14.7932 6.84485 15.0251 6.28149 15.4384 5.86444C15.8516 5.44739 16.4128 5.21041 16.9999 5.20506ZM16.9999 10.724C17.9427 10.7269 18.8656 10.9958 19.6624 11.4999C20.4591 12.0039 21.0974 12.7226 21.5039 13.5733C21.5861 13.743 21.6231 13.9311 21.6114 14.1193C21.5997 14.3075 21.5396 14.4895 21.4369 14.6477C21.3356 14.8093 21.1948 14.9425 21.0278 15.0347C20.8608 15.1269 20.6731 15.1751 20.4824 15.1748H13.5175C13.3268 15.1751 13.139 15.1269 12.9721 15.0347C12.8051 14.9425 12.6643 14.8093 12.5629 14.6477C12.4603 14.4895 12.4002 14.3075 12.3885 14.1193C12.3767 13.9311 12.4138 13.743 12.496 13.5733C12.9024 12.7226 13.5408 12.0039 14.3375 11.4998C15.1343 10.9958 16.0571 10.7269 16.9999 10.724Z" fill="#139140" stroke="#139140" stroke-width="0.5"/>
<path d="M28.3856 14.07H24.3091C24.1696 14.072 24.0365 14.1289 23.9386 14.2283C23.8406 14.3277 23.7857 14.4617 23.7857 14.6012C23.7857 14.7408 23.8406 14.8747 23.9386 14.9741C24.0365 15.0735 24.1696 15.1304 24.3092 15.1325H28.3856C28.7529 15.129 29.1135 15.0338 29.4345 14.8553C29.7555 14.6769 30.0268 14.421 30.2237 14.1109C30.4205 13.8009 30.5367 13.4465 30.5616 13.08C30.5864 12.7136 30.5192 12.3467 30.3661 12.0129C29.6755 10.5654 28.4391 9.45069 26.928 8.91324C27.3213 8.60649 27.6396 8.21415 27.8586 7.766C28.0776 7.31785 28.1916 6.82569 28.1919 6.32689C28.0389 1.97625 21.7677 1.97247 21.6132 6.32695C21.6136 6.82777 21.7286 7.32187 21.9493 7.7714C22.1701 8.22094 22.4908 8.61399 22.8869 8.92047C22.3781 9.15094 21.2308 9.39337 21.6049 10.1613C21.6784 10.2814 21.7965 10.3674 21.9333 10.4006C22.0701 10.4339 22.2144 10.4116 22.3349 10.3388C23.1095 9.8684 23.9987 9.62035 24.905 9.62178C25.847 9.62382 26.7693 9.89197 27.5656 10.3953C28.3618 10.8987 28.9997 11.6168 29.4056 12.4669C29.4843 12.6386 29.5188 12.8273 29.5059 13.0158C29.4929 13.2042 29.433 13.3865 29.3316 13.5459C29.2302 13.7052 29.0905 13.8367 28.9253 13.9282C28.76 14.0198 28.5745 14.0685 28.3856 14.07ZM24.9027 4.10021C25.4897 4.1055 26.051 4.34243 26.4642 4.75945C26.8775 5.17646 27.1094 5.73981 27.1094 6.32692C27.1093 6.91402 26.8775 7.47737 26.4642 7.89437C26.0509 8.31138 25.4897 8.5483 24.9026 8.55358C24.3155 8.54829 23.7543 8.31135 23.341 7.89434C22.9278 7.47732 22.6959 6.91397 22.6959 6.32687C22.6959 5.73977 22.9278 5.17642 23.3411 4.75941C23.7543 4.34241 24.3156 4.10549 24.9027 4.10021Z" fill="#139140" stroke="#139140" stroke-width="0.5"/>
<path d="M3.76443 14.1154C3.96124 14.428 4.23427 14.6855 4.55788 14.8636C4.88149 15.0417 5.24507 15.1347 5.61447 15.1338H9.69093C9.83008 15.1311 9.96264 15.074 10.0601 14.9747C10.1576 14.8753 10.2122 14.7417 10.2122 14.6025C10.2122 14.4633 10.1576 14.3297 10.0601 14.2304C9.96261 14.1311 9.83005 14.0739 9.6909 14.0713H5.61447C5.42562 14.0698 5.24014 14.0211 5.07494 13.9296C4.90973 13.8381 4.77005 13.7067 4.66864 13.5474C4.56722 13.3881 4.50728 13.2059 4.4943 13.0175C4.48131 12.8291 4.51568 12.6404 4.59428 12.4687C4.89636 11.8436 5.32503 11.2881 5.85311 10.8374C6.38119 10.3866 6.99716 10.0506 7.66197 9.85043C8.32677 9.65031 9.02591 9.5905 9.71504 9.6748C10.4042 9.75911 11.0683 9.98568 11.6652 10.3402C11.7857 10.4129 11.93 10.4351 12.0668 10.4019C12.2035 10.3686 12.3216 10.2826 12.3952 10.1627C12.7704 9.39369 11.6201 9.15372 11.1132 8.92177C11.654 8.50186 12.0501 7.92358 12.2463 7.26766C12.4424 6.61175 12.4289 5.91095 12.2075 5.2631C11.9862 4.61525 11.568 4.05269 11.0115 3.65398C10.455 3.25526 9.7878 3.04029 9.10317 3.03907C8.41855 3.03785 7.75064 3.25045 7.19268 3.64718C6.63472 4.04391 6.21458 4.60497 5.99091 5.25203C5.76725 5.89909 5.75121 6.59984 5.94506 7.25645C6.13891 7.91306 6.53295 8.49274 7.07218 8.91458C5.2135 9.57268 2.50367 11.954 3.76443 14.1154ZM9.09742 4.10152C9.68461 4.10666 10.246 4.34352 10.6594 4.76056C11.0728 5.17759 11.3047 5.74103 11.3047 6.32823C11.3047 6.91544 11.0728 7.47888 10.6594 7.8959C10.246 8.31292 9.68456 8.54977 9.09738 8.5549C8.51019 8.54976 7.94881 8.3129 7.53541 7.89587C7.12202 7.47883 6.89008 6.91539 6.89009 6.32819C6.89009 5.74098 7.12204 5.17755 7.53544 4.76052C7.94885 4.3435 8.51024 4.10665 9.09742 4.10152Z" fill="#139140" stroke="#139140" stroke-width="0.5"/>
<path d="M28.9973 20.9749L21.7546 23.1155C21.6921 22.668 21.5155 22.2441 21.2417 21.8846C20.968 21.5252 20.6063 21.2423 20.1914 21.0631C20.0843 21.0462 14.1254 18.4438 14.0152 18.4246C13.2584 18.1942 12.4625 18.1215 11.6765 18.2109C10.8905 18.3003 10.1313 18.5499 9.44557 18.9443L2.39068 23.0174C2.26865 23.0879 2.1796 23.2039 2.14312 23.34C2.10664 23.4762 2.12571 23.6212 2.19613 23.7432L5.19946 28.9452C5.23925 29.0143 5.29411 29.0735 5.35995 29.1184C5.4258 29.1633 5.50092 29.1928 5.57974 29.2046L16.6063 30.8798C18.1117 31.1119 19.6519 30.856 21.0013 30.1494L30.6686 25.1129C31.157 24.8519 31.5317 24.4196 31.7206 23.8991C31.9095 23.3785 31.8992 22.8065 31.6919 22.2931C31.4845 21.7796 31.0946 21.361 30.5972 21.1176C30.0997 20.8743 29.5299 20.8235 28.9973 20.9749ZM30.1778 24.1707L20.5105 29.2072C19.3605 29.8085 18.0485 30.0267 16.7658 29.8298L5.99192 28.193L3.38211 23.6722L9.97682 19.8647C10.532 19.545 11.1465 19.3419 11.7827 19.2676C12.419 19.1933 13.0638 19.2494 13.6777 19.4325L19.7738 22.04C20.1118 22.19 20.3856 22.455 20.5466 22.7879C20.7076 23.1208 20.7453 23.5 20.653 23.858C20.5608 24.2161 20.3445 24.5298 20.0427 24.7434C19.7408 24.9571 19.373 25.0567 19.0046 25.0246L14.8037 24.6018C14.7343 24.5949 14.6642 24.6016 14.5974 24.6217C14.5306 24.6418 14.4684 24.6749 14.4143 24.7191C14.3603 24.7632 14.3155 24.8176 14.2825 24.8791C14.2495 24.9405 14.2289 25.0079 14.2219 25.0773C14.2149 25.1467 14.2217 25.2169 14.2418 25.2837C14.2619 25.3505 14.295 25.4127 14.3391 25.4667C14.3833 25.5207 14.4376 25.5655 14.4991 25.5986C14.5606 25.6316 14.6279 25.6522 14.6974 25.6592L18.8986 26.082C19.5001 26.1439 20.1044 25.9951 20.6085 25.6612C21.1125 25.3272 21.485 24.8286 21.6625 24.2506L29.2987 21.9939C29.5786 21.9154 29.8775 21.943 30.1384 22.0712C30.3992 22.1994 30.6036 22.4194 30.7125 22.6889C30.8213 22.9584 30.8269 23.2585 30.7283 23.532C30.6296 23.8054 30.4336 24.0328 30.1778 24.1707Z" fill="#139140" stroke="#139140" stroke-width="0.5"/>
</svg>
