<svg width="34" height="34" viewBox="0 0 34 34" fill="none" xmlns="http://www.w3.org/2000/svg">
<path d="M31.1654 16.9999C31.1654 9.17992 24.8187 2.83325 16.9987 2.83325C9.1787 2.83325 2.83203 9.17992 2.83203 16.9999C2.83203 24.8199 9.1787 31.1666 16.9987 31.1666" stroke="#139140" stroke-width="1.5" stroke-linecap="round" stroke-linejoin="round"/>
<path d="M11.331 4.25H12.7477C9.98516 12.5233 9.98516 21.4767 12.7477 29.75H11.331" stroke="#139140" stroke-width="1.5" stroke-linecap="round" stroke-linejoin="round"/>
<path d="M21.25 4.25C22.6242 8.38667 23.3183 12.6933 23.3183 17" stroke="#139140" stroke-width="1.5" stroke-linecap="round" stroke-linejoin="round"/>
<path d="M4.25 22.6667V21.25C8.38667 22.6242 12.6933 23.3184 17 23.3184" stroke="#139140" stroke-width="1.5" stroke-linecap="round" stroke-linejoin="round"/>
<path d="M4.25 12.7499C12.5233 9.98735 21.4767 9.98735 29.75 12.7499" stroke="#139140" stroke-width="1.5" stroke-linecap="round" stroke-linejoin="round"/>
<path d="M27.6238 20.8251C27.0997 20.6692 26.5047 20.5701 25.853 20.5701C22.9205 20.5701 20.5547 22.9501 20.5547 25.8684C20.5547 28.8009 22.9347 31.1667 25.853 31.1667C28.7713 31.1667 31.1513 28.7867 31.1513 25.8684C31.1513 24.7776 30.8255 23.7575 30.2588 22.9217" stroke="#139140" stroke-width="1.5" stroke-linecap="round" stroke-linejoin="round"/>
<path d="M28.388 20.9667L26.6172 18.9409" stroke="#139140" stroke-width="1.5" stroke-linecap="round" stroke-linejoin="round"/>
<path d="M28.3887 20.9668L26.3203 22.4685" stroke="#139140" stroke-width="1.5" stroke-linecap="round" stroke-linejoin="round"/>
</svg>
