<svg width="34" height="34" viewBox="0 0 34 34" fill="none" xmlns="http://www.w3.org/2000/svg">
<path d="M27.0008 26.4493L23.9692 20.4001L20.9375 26.4493" stroke="#139140" stroke-width="1.5" stroke-linecap="round" stroke-linejoin="round"/>
<path d="M21.4922 25.3726H26.4789" stroke="#139140" stroke-width="1.5" stroke-linecap="round" stroke-linejoin="round"/>
<path d="M23.9701 31.1667C20.0034 31.1667 16.7734 27.9509 16.7734 23.97C16.7734 20.0034 19.9893 16.7734 23.9701 16.7734C27.9368 16.7734 31.1668 19.9892 31.1668 23.97C31.1668 27.9509 27.9509 31.1667 23.9701 31.1667Z" stroke="#139140" stroke-width="1.5" stroke-linecap="round" stroke-linejoin="round"/>
<path d="M7.11037 2.83325H12.6637C15.5962 2.83325 17.0129 4.24995 16.942 7.11161V12.6649C17.0129 15.5974 15.5962 17.0141 12.6637 16.9433H7.11037C4.2487 17 2.83203 15.5832 2.83203 12.6507V7.09743C2.83203 4.24993 4.2487 2.83325 7.11037 2.83325Z" stroke="#139140" stroke-width="1.5" stroke-linecap="round" stroke-linejoin="round"/>
<path d="M12.7673 8.2876H7.01562" stroke="#139140" stroke-width="1.5" stroke-linecap="round" stroke-linejoin="round"/>
<path d="M9.875 7.32422V8.28754" stroke="#139140" stroke-width="1.5" stroke-linecap="round" stroke-linejoin="round"/>
<path d="M11.3208 8.27344C11.3208 10.7526 9.38 12.7642 7 12.7642" stroke="#139140" stroke-width="1.5" stroke-linecap="round" stroke-linejoin="round"/>
<path d="M12.7654 12.7643C11.7312 12.7643 10.7962 12.2118 10.1445 11.3335" stroke="#139140" stroke-width="1.5" stroke-linecap="round" stroke-linejoin="round"/>
<path d="M2.83203 21.25C2.83203 26.7325 7.2662 31.1667 12.7487 31.1667L11.2612 28.6875" stroke="#139140" stroke-width="1.5" stroke-linecap="round" stroke-linejoin="round"/>
<path d="M31.1667 12.7499C31.1667 7.26742 26.7325 2.83325 21.25 2.83325L22.7375 5.31242" stroke="#139140" stroke-width="1.5" stroke-linecap="round" stroke-linejoin="round"/>
</svg>
