<svg width="27" height="27" viewBox="0 0 27 27" fill="none" xmlns="http://www.w3.org/2000/svg">
<path d="M12.6424 22.5373C13.1705 22.2186 13.8316 22.2186 14.3596 22.5373L19.7906 25.8153C21.049 26.5748 22.6013 25.4466 22.2673 24.0153L20.8258 17.8379C20.6857 17.2372 20.8898 16.6084 21.3561 16.2044L26.1567 12.0458C27.2676 11.0834 26.6737 9.25858 25.2091 9.13437L18.8922 8.59861C18.2781 8.54653 17.7433 8.15885 17.5029 7.59143L15.0309 1.75922C14.4583 0.408392 12.5438 0.408378 11.9712 1.75922L9.49925 7.59143C9.25874 8.15885 8.72393 8.54653 8.10986 8.59861L1.79297 9.13437C0.32841 9.25858 -0.26547 11.0834 0.845464 12.0458L5.64603 16.2044C6.11223 16.6084 6.31635 17.2372 6.17619 17.8379L4.7348 24.0153C4.40083 25.4466 5.95313 26.5748 7.21147 25.8153L12.6424 22.5373Z" fill="#FFCA64"/>
</svg>
