<svg width="44" height="44" viewBox="0 0 44 44" fill="none" xmlns="http://www.w3.org/2000/svg">
<path d="M40.3382 15.7642V11.6944C40.3382 11.5409 40.2563 11.399 40.1234 11.3223L22.0011 0.859375L3.66406 11.4463V32.6202L21.7863 43.083C21.9192 43.1598 22.083 43.1598 22.216 43.083L40.1234 32.7442C40.2563 32.6674 40.3382 32.5255 40.3382 32.3721V23.5949" stroke="#139140" stroke-width="1.71875" stroke-miterlimit="10" stroke-linecap="round" stroke-linejoin="round"/>
<path d="M21.9453 42.8755V20.9941" stroke="#139140" stroke-width="1.71875" stroke-miterlimit="10" stroke-linecap="round" stroke-linejoin="round"/>
<path d="M21.9426 20.9942L3.89062 11.5653" stroke="#139140" stroke-width="1.71875" stroke-miterlimit="10" stroke-linecap="round" stroke-linejoin="round"/>
<path d="M14.138 10.4031L9.9375 8.20911" stroke="#139140" stroke-width="1.71875" stroke-miterlimit="10" stroke-linecap="round" stroke-linejoin="round"/>
<path d="M13.5662 32.1117L3.89062 27.058" stroke="#139140" stroke-width="1.71875" stroke-miterlimit="10" stroke-linecap="round" stroke-linejoin="round"/>
<path d="M21.9457 28.3386L11.375 22.8173" stroke="#139140" stroke-width="1.71875" stroke-miterlimit="10" stroke-linecap="round" stroke-linejoin="round"/>
<path d="M39.9315 11.6582L21.9453 20.9942" stroke="#139140" stroke-width="1.71875" stroke-miterlimit="10" stroke-linecap="round" stroke-linejoin="round"/>
<path d="M40.1065 26.7631L31.9883 31.2333" stroke="#139140" stroke-width="1.71875" stroke-miterlimit="10" stroke-linecap="round" stroke-linejoin="round"/>
<path d="M32.3192 21.5354L29.8748 22.8042C29.5915 22.9512 29.4138 23.2437 29.4138 23.5628V26.0968C29.4138 26.4159 29.2361 26.7084 28.9529 26.8554L21.9453 30.4931" stroke="#139140" stroke-width="1.71875" stroke-miterlimit="10" stroke-linecap="round" stroke-linejoin="round"/>
<path d="M34.0298 22.3286C34.9739 22.3286 35.7392 21.5633 35.7392 20.6191C35.7392 19.675 34.9739 18.9097 34.0298 18.9097C33.0857 18.9097 32.3203 19.675 32.3203 20.6191C32.3203 21.5633 33.0857 22.3286 34.0298 22.3286Z" stroke="#139140" stroke-width="1.71875" stroke-miterlimit="10" stroke-linecap="round" stroke-linejoin="round"/>
<path d="M30.2798 33.8213C31.2239 33.8213 31.9892 33.0559 31.9892 32.1118C31.9892 31.1677 31.2239 30.4023 30.2798 30.4023C29.3357 30.4023 28.5703 31.1677 28.5703 32.1118C28.5703 33.0559 29.3357 33.8213 30.2798 33.8213Z" stroke="#139140" stroke-width="1.71875" stroke-miterlimit="10" stroke-linecap="round" stroke-linejoin="round"/>
<path d="M9.48681 23.5948C10.4309 23.5948 11.1963 22.8295 11.1963 21.8854C11.1963 20.9413 10.4309 20.1759 9.48681 20.1759C8.5427 20.1759 7.77734 20.9413 7.77734 21.8854C7.77734 22.8295 8.5427 23.5948 9.48681 23.5948Z" stroke="#139140" stroke-width="1.71875" stroke-miterlimit="10" stroke-linecap="round" stroke-linejoin="round"/>
<path d="M24.436 11.6279C25.3801 11.6279 26.1455 10.8626 26.1455 9.91845C26.1455 8.97434 25.3801 8.20898 24.436 8.20898C23.4919 8.20898 22.7266 8.97434 22.7266 9.91845C22.7266 10.8626 23.4919 11.6279 24.436 11.6279Z" stroke="#139140" stroke-width="1.71875" stroke-miterlimit="10" stroke-linecap="round" stroke-linejoin="round"/>
<path d="M15.8501 12.8706C16.7942 12.8706 17.5596 12.1052 17.5596 11.1611C17.5596 10.217 16.7942 9.45166 15.8501 9.45166C14.906 9.45166 14.1406 10.217 14.1406 11.1611C14.1406 12.1052 14.906 12.8706 15.8501 12.8706Z" stroke="#139140" stroke-width="1.71875" stroke-miterlimit="10" stroke-linecap="round" stroke-linejoin="round"/>
<path d="M15.2798 34.6522C16.2239 34.6522 16.9892 33.8869 16.9892 32.9427C16.9892 31.9986 16.2239 31.2333 15.2798 31.2333C14.3357 31.2333 13.5703 31.9986 13.5703 32.9427C13.5703 33.8869 14.3357 34.6522 15.2798 34.6522Z" stroke="#139140" stroke-width="1.71875" stroke-miterlimit="10" stroke-linecap="round" stroke-linejoin="round"/>
<path d="M26.3047 11.0095L32.8518 14.7316" stroke="#139140" stroke-width="1.71875" stroke-miterlimit="10" stroke-linecap="round" stroke-linejoin="round"/>
<circle cx="40.2812" cy="19.6865" r="0.859375" fill="#139140"/>
</svg>
