<svg width="44" height="37" viewBox="0 0 44 37" fill="none" xmlns="http://www.w3.org/2000/svg">
<g clip-path="url(#clip0_6024_1293)">
<path fill-rule="evenodd" clip-rule="evenodd" d="M22.6241 9.24725V16.3572C22.6241 16.717 22.3358 17.0115 21.9834 17.0115C21.6311 17.0115 21.3428 16.717 21.3428 16.3572V10.8503C16.378 11.0247 12.6838 6.21571 14.0291 1.33036C14.1038 1.05774 14.3387 0.872357 14.6056 0.850548C15.7801 0.730595 16.9866 0.894167 18.0863 1.35217C19.5598 1.96284 20.8303 3.05332 21.6631 4.49275C22.6027 1.52665 25.4748 -0.327171 28.4751 0.0435921C28.7633 0.0763066 28.9769 0.294403 29.0303 0.567023C29.2865 1.58117 29.2972 2.63894 29.0623 3.66399C28.379 6.68462 25.6884 8.77834 22.6668 8.6802C22.6668 8.87648 22.6561 9.06187 22.6241 9.24725Z" fill="#FCC845"/>
<path fill-rule="evenodd" clip-rule="evenodd" d="M16.7948 24.4923C16.6239 24.176 16.72 23.7835 17.0297 23.5981C17.3393 23.4236 17.7237 23.5217 17.9052 23.838L19.2185 26.1607C19.3893 26.4769 19.2932 26.8695 18.9836 27.0549C18.6846 27.2294 18.2896 27.1312 18.1187 26.815L16.7948 24.4923Z" fill="#15AB49"/>
<path fill-rule="evenodd" clip-rule="evenodd" d="M21.2148 22.9436C21.2148 22.5837 21.5031 22.2893 21.8555 22.2893C22.2078 22.2893 22.4961 22.5837 22.4961 22.9436V25.7788C22.4961 26.1387 22.2078 26.4331 21.8555 26.4331C21.5031 26.4331 21.2148 26.1387 21.2148 25.7788V22.9436Z" fill="#15AB49"/>
<path fill-rule="evenodd" clip-rule="evenodd" d="M25.8081 23.8379C25.9789 23.5217 26.374 23.4127 26.6836 23.598C26.9933 23.7834 27.1 24.176 26.9185 24.4922L25.6052 26.8259C25.4344 27.1312 25.0394 27.2402 24.7297 27.0658C24.4201 26.8913 24.3133 26.4878 24.4948 26.1716L25.8081 23.8379Z" fill="#15AB49"/>
<path d="M40.2108 22.0822C42.2714 19.4869 42.0792 15.7138 39.7623 13.3475C37.2532 10.7957 33.2066 10.7957 30.7082 13.3475C27.708 16.4117 28.402 21.537 32.0749 23.6634C30.6228 25.1901 29.0213 28.0035 27.6332 30.0536L23.2236 30.359L22.4442 30.4789C22.2841 30.5225 22.1346 30.5662 21.9958 30.6207C21.6434 30.4898 21.227 30.3917 20.7679 30.359L16.3583 30.0536C14.9703 28.0035 13.3581 25.201 11.9167 23.6634C13.8812 22.5184 15.1625 20.3811 15.1625 17.9711C15.1625 14.3507 12.2904 11.4282 8.75627 11.4282C6.99456 11.4282 5.39301 12.1588 4.22921 13.3475C1.92298 15.7138 1.72011 19.4869 3.78078 22.0822C2.60631 23.1618 1.76282 24.9066 1.17559 26.9349C0.332101 29.8792 0.0117909 33.445 0.00111389 36.2803C-0.0202402 36.6947 0.268039 37 0.641735 37H10.8917C11.2547 37 11.543 36.6947 11.5323 36.3348L11.4682 33.4232L11.8099 33.9903C12.7495 35.5387 13.6891 35.6151 15.045 35.7132L15.5469 35.7568L20.6611 35.9204C21.163 35.9313 21.6114 35.8659 22.0065 35.7459C22.0065 35.7459 22.551 35.9422 23.3518 35.9204L28.466 35.7568C28.4874 35.7568 28.4981 35.7568 28.5194 35.7568C30.0356 35.5933 31.1246 35.7677 32.203 33.9903L32.5447 33.4232L32.4806 36.3348C32.4806 36.6947 32.7582 37 33.1212 37H43.3605C43.7128 37 44.0011 36.7056 44.0011 36.3457C44.0011 32.3982 43.3285 24.9284 40.2108 22.0822ZM5.13676 21.6678C3.14016 19.6286 3.14016 16.3136 5.13676 14.2744C7.13336 12.2352 10.3792 12.2352 12.3758 14.2744C14.3724 16.3136 14.3724 19.6177 12.3758 21.6678C10.3792 23.707 7.13336 23.707 5.13676 21.6678ZM35.2353 23.1945C32.4059 23.1945 30.121 20.8609 30.121 17.9711C30.121 15.0813 32.4059 12.7368 35.2353 12.7368C38.054 12.7368 40.3496 15.0922 40.3496 17.9711C40.3496 20.85 38.0647 23.1945 35.2353 23.1945Z" fill="#15AB49"/>
</g>
<defs>
<clipPath id="clip0_6024_1293">
<rect width="44" height="37" fill="white"/>
</clipPath>
</defs>
</svg>
