<svg width="17" height="15" viewBox="0 0 17 15" fill="none" xmlns="http://www.w3.org/2000/svg">
<path d="M17.0094 2.08203C16.577 2.77474 16.0006 3.39323 15.28 3.9375V4.38281C15.28 6.98047 14.3733 9.33691 12.5598 11.4521C10.7464 13.5674 8.3385 14.625 5.33613 14.625C3.41461 14.625 1.6372 14.0807 0.00390625 12.9922C0.38821 13.0417 0.664429 13.0664 0.832562 13.0664C2.44184 13.0664 3.88298 12.5469 5.15598 11.5078C4.4114 11.4831 3.73886 11.2419 3.13839 10.7842C2.53791 10.3265 2.12959 9.73893 1.91342 9.02148C2.20165 9.07096 2.41782 9.0957 2.56193 9.0957C2.80212 9.0957 3.11437 9.04622 3.49867 8.94727C2.70605 8.77409 2.03952 8.3597 1.49909 7.7041C0.958662 7.0485 0.688448 6.28776 0.688448 5.42188V5.38477C1.21687 5.68164 1.74528 5.83008 2.2737 5.83008C1.24089 5.13737 0.724477 4.13542 0.724477 2.82422C0.724477 2.20573 0.8806 1.61198 1.19285 1.04297C3.04231 3.39323 5.4322 4.64258 8.36252 4.79102C8.31448 4.61784 8.29047 4.3457 8.29047 3.97461C8.29047 2.96029 8.62673 2.10677 9.29926 1.41406C9.9718 0.721354 10.8005 0.375 11.7852 0.375C12.77 0.375 13.6107 0.758464 14.3072 1.52539C15.0278 1.40169 15.7724 1.10482 16.541 0.634766C16.3008 1.50065 15.7844 2.16862 14.9918 2.63867C15.7364 2.56445 16.4089 2.37891 17.0094 2.08203Z" fill="white"/>
</svg>
