<svg width="14" height="14" viewBox="0 0 14 14" fill="none" xmlns="http://www.w3.org/2000/svg">
<g clip-path="url(#clip0_6034_6555)">
<path d="M6.9987 2.33325C6.07572 2.33325 5.17347 2.60695 4.40604 3.11973C3.63861 3.63251 3.04047 4.36134 2.68726 5.21406C2.33405 6.06678 2.24164 7.0051 2.4217 7.91034C2.60177 8.81558 3.04622 9.6471 3.69887 10.2997C4.35151 10.9524 5.18303 11.3969 6.08828 11.5769C6.99352 11.757 7.93183 11.6646 8.78456 11.3114C9.63728 10.9581 10.3661 10.36 10.8789 9.59258C11.3917 8.82515 11.6654 7.9229 11.6654 6.99992C11.6654 5.76224 11.1737 4.57526 10.2985 3.70009C9.42336 2.82492 8.23638 2.33325 6.9987 2.33325ZM6.9987 10.8888C6.22955 10.8888 5.47767 10.6607 4.83815 10.2334C4.19862 9.80609 3.70018 9.19873 3.40584 8.48813C3.11149 7.77753 3.03448 6.9956 3.18454 6.24123C3.33459 5.48686 3.70497 4.79393 4.24884 4.25006C4.79271 3.70619 5.48565 3.33581 6.24002 3.18575C6.99439 3.0357 7.77631 3.11271 8.48691 3.40705C9.19752 3.70139 9.80488 4.19984 10.2322 4.83937C10.6595 5.47889 10.8876 6.23077 10.8876 6.99992C10.8876 7.51061 10.787 8.01631 10.5916 8.48813C10.3961 8.95995 10.1097 9.38866 9.74856 9.74978C9.38744 10.1109 8.95873 10.3973 8.48691 10.5928C8.01509 10.7882 7.5094 10.8888 6.9987 10.8888Z" fill="#FCC845"/>
<path d="M7.00165 7.80489C6.86757 7.80489 6.73898 7.75163 6.64417 7.65682C6.54936 7.56201 6.49609 7.43342 6.49609 7.29934V4.966C6.49609 4.83192 6.54936 4.70333 6.64417 4.60852C6.73898 4.51371 6.86757 4.46045 7.00165 4.46045C7.13573 4.46045 7.26432 4.51371 7.35913 4.60852C7.45394 4.70333 7.5072 4.83192 7.5072 4.966V7.29934C7.5072 7.43342 7.45394 7.56201 7.35913 7.65682C7.26432 7.75163 7.13573 7.80489 7.00165 7.80489Z" fill="#FCC845"/>
<path d="M6.98177 9.53556C7.30394 9.53556 7.5651 9.2744 7.5651 8.95223C7.5651 8.63006 7.30394 8.3689 6.98177 8.3689C6.6596 8.3689 6.39844 8.63006 6.39844 8.95223C6.39844 9.2744 6.6596 9.53556 6.98177 9.53556Z" fill="#FCC845"/>
</g>
<defs>
<clipPath id="clip0_6034_6555">
<rect width="14" height="14" fill="white"/>
</clipPath>
</defs>
</svg>
