<svg width="44" height="44" viewBox="0 0 44 44" fill="none" xmlns="http://www.w3.org/2000/svg">
<g clip-path="url(#clip0_6027_7406)">
<path d="M42.8661 31.9556C42.4083 31.8299 41.9354 32.0992 41.8099 32.557C40.239 38.2825 34.9907 42.2812 29.0469 42.2812C22.029 42.2812 16.2705 36.7904 15.8394 29.8793C23.3803 29.4362 29.4365 23.3798 29.8793 15.8388C35.462 16.1917 40.2958 20.0677 41.8019 25.5071C41.9286 25.9646 42.4021 26.2325 42.8594 26.106C43.3169 25.9793 43.585 25.5059 43.4583 25.0485C42.6027 21.9584 40.7263 19.1721 38.1748 17.2026C35.7608 15.3394 32.9092 14.2816 29.8825 14.1171C29.4472 6.25934 22.9176 0 14.9531 0C6.70794 0 0 6.70794 0 14.9531C0 22.9179 6.2596 29.4474 14.1176 29.8824C14.5525 37.7404 21.0821 44 29.0469 44C35.7625 44 41.6923 39.4815 43.4674 33.0118C43.593 32.5541 43.3238 32.0812 42.8661 31.9556ZM15.8431 28.1569C16.2828 21.5671 21.5671 16.2828 28.1569 15.8431C27.7171 22.4329 22.4328 27.7172 15.8431 28.1569ZM1.71875 14.9531C1.71875 7.65566 7.65566 1.71875 14.9531 1.71875C21.971 1.71875 27.7295 7.20964 28.1606 14.1207C20.6198 14.5637 14.5638 20.6198 14.1208 28.1605C7.20964 27.7295 1.71875 21.971 1.71875 14.9531Z" fill="#139140"/>
<path d="M28.1757 33.3354C28.6503 33.3354 29.0351 32.9507 29.0351 32.476V30.5264L33.6557 35.1471C33.9868 35.4781 34.5399 35.4781 34.8711 35.1471C35.2067 34.8115 35.2067 34.2673 34.8711 33.9316L30.2505 29.311H32.1902C32.6648 29.311 33.0496 28.9263 33.0496 28.4517C33.0496 27.977 32.6648 27.5923 32.1902 27.5923H28.1758C27.7079 27.5923 27.3163 27.9837 27.3164 28.4517V32.4759C27.3163 32.9507 27.7011 33.3354 28.1757 33.3354Z" fill="#139140"/>
<path d="M15.4588 16.5955C15.9267 16.5955 16.3182 16.2041 16.3182 15.7361V11.7118C16.3182 11.2371 15.9335 10.8524 15.4588 10.8524C14.9842 10.8524 14.5995 11.2371 14.5995 11.7118V13.6614L9.97885 9.04075C9.64327 8.70517 9.09911 8.70517 8.76344 9.04075C8.42777 9.37634 8.42785 9.92049 8.76344 10.2562L13.384 14.8768H11.4443C10.9697 14.8768 10.585 15.2615 10.585 15.7361C10.585 16.2108 10.9697 16.5955 11.4443 16.5955H15.4588Z" fill="#139140"/>
<path d="M43.9819 28.8793C43.8955 28.4192 43.4275 28.1141 42.9721 28.2047C42.5135 28.2959 42.2055 28.7555 42.2975 29.2144C42.3895 29.6731 42.8479 29.9811 43.3073 29.889C43.7649 29.7973 44.0751 29.3384 43.9819 28.8793Z" fill="#139140"/>
</g>
<defs>
<clipPath id="clip0_6027_7406">
<rect width="44" height="44" fill="white"/>
</clipPath>
</defs>
</svg>
