<svg width="130" height="130" viewBox="0 0 130 130" fill="none" xmlns="http://www.w3.org/2000/svg">
<path d="M30.2148 13.457C30.2148 12.0548 31.3516 10.918 32.7539 10.918H116.543C117.945 10.918 119.082 12.0548 119.082 13.457V68.8086C119.082 70.2109 117.945 71.3477 116.543 71.3477H32.7539C31.3516 71.3477 30.2148 70.2109 30.2148 68.8086V13.457Z" fill="#F2F2F2"/>
<path d="M33.7695 34.7852C33.7695 33.6634 34.679 32.7539 35.8008 32.7539H54.5632C55.6849 32.7539 56.5944 33.6634 56.5944 34.7852V62.9688C56.5944 64.0905 55.6849 65 54.5632 65H35.8008C34.679 65 33.7695 64.0905 33.7695 62.9688V34.7852Z" fill="#389F5D"/>
<path d="M59.8555 34.7852C59.8555 33.6634 60.765 32.7539 61.8867 32.7539H80.6491C81.7709 32.7539 82.6804 33.6634 82.6804 34.7852V62.9688C82.6804 64.0905 81.7709 65 80.6491 65H61.8867C60.765 65 59.8555 64.0905 59.8555 62.9688V34.7852Z" fill="#389F5D"/>
<path d="M85.9375 34.7852C85.9375 33.6634 86.8467 32.7539 87.9688 32.7539H106.731C107.853 32.7539 108.762 33.6634 108.762 34.7852V62.9688C108.762 64.0905 107.853 65 106.731 65H87.9688C86.8467 65 85.9375 64.0905 85.9375 62.9688V34.7852Z" fill="#389F5D"/>
<path d="M111.973 34.8684V62.8855C111.973 64.0534 112.882 65 114.004 65H115.908V32.7539H114.004C112.882 32.7539 111.973 33.7007 111.973 34.8684Z" fill="#389F5D"/>
<path d="M35.8008 56.6356C35.8008 56.3471 36.0346 56.1133 36.3231 56.1133H46.9775C47.2659 56.1133 47.4998 56.3471 47.4998 56.6356C47.4998 56.924 47.2659 57.1579 46.9775 57.1579H36.3231C36.0346 57.1579 35.8008 56.924 35.8008 56.6356Z" fill="#389F5D"/>
<path d="M35.8008 59.3511C35.8008 59.0627 36.0346 58.8289 36.3231 58.8289H42.298C42.5864 58.8289 42.8203 59.0627 42.8203 59.3511C42.8203 59.6396 42.5864 59.8734 42.298 59.8734H36.3231C36.0346 59.8734 35.8008 59.6396 35.8008 59.3511Z" fill="#389F5D"/>
<path d="M61.6992 56.6356C61.6992 56.3471 61.9331 56.1133 62.2215 56.1133H72.8759C73.1644 56.1133 73.3982 56.3471 73.3982 56.6356C73.3982 56.924 73.1644 57.1579 72.8759 57.1579H62.2215C61.9331 57.1579 61.6992 56.924 61.6992 56.6356Z" fill="#389F5D"/>
<path d="M61.6992 59.3511C61.6992 59.0627 61.9331 58.8289 62.2215 58.8289H68.1964C68.4849 58.8289 68.7187 59.0627 68.7187 59.3511C68.7187 59.6396 68.4849 59.8734 68.1964 59.8734H62.2215C61.9331 59.8734 61.6992 59.6396 61.6992 59.3511Z" fill="#389F5D"/>
<path d="M87.5977 56.6356C87.5977 56.3471 87.8315 56.1133 88.1199 56.1133H98.7744C99.0628 56.1133 99.2966 56.3471 99.2966 56.6356C99.2966 56.924 99.0628 57.1579 98.7744 57.1579H88.1199C87.8315 57.1579 87.5977 56.924 87.5977 56.6356Z" fill="#389F5D"/>
<path d="M87.5977 59.3511C87.5977 59.0627 87.8315 58.8289 88.1199 58.8289H94.0949C94.3833 58.8289 94.6171 59.0627 94.6171 59.3511C94.6171 59.6396 94.3833 59.8734 94.0949 59.8734H88.1199C87.8315 59.8734 87.5977 59.6396 87.5977 59.3511Z" fill="#389F5D"/>
<path d="M115.908 56.1133H114.018C113.73 56.1133 113.496 56.3471 113.496 56.6356C113.496 56.924 113.73 57.1579 114.018 57.1579H115.908V56.1133Z" fill="#389F5D"/>
<path d="M115.908 58.8291H114.018C113.73 58.8291 113.496 59.063 113.496 59.3514C113.496 59.6398 113.73 59.8737 114.018 59.8737H115.908V58.8291Z" fill="#389F5D"/>
<path d="M54.5632 32.7539H35.8008C34.679 32.7539 33.7695 33.6634 33.7695 34.7852V54.082H56.5944V34.7852C56.5944 33.6634 55.6849 32.7539 54.5632 32.7539Z" fill="#4BBA73"/>
<path d="M80.6491 32.7539H61.8867C60.765 32.7539 59.8555 33.6634 59.8555 34.7852V54.082H82.6804V34.7852C82.6804 33.6634 81.7709 32.7539 80.6491 32.7539Z" fill="#4BBA73"/>
<path d="M106.735 32.7539H87.9727C86.8506 32.7539 85.9414 33.6634 85.9414 34.7852V54.082H108.766V34.7852C108.766 33.6634 107.857 32.7539 106.735 32.7539Z" fill="#4BBA73"/>
<path d="M111.973 34.1524V54.082H115.908V32.7539H114.004C112.882 32.7539 111.973 33.38 111.973 34.1524Z" fill="#4BBA73"/>
<path d="M97.2461 40.3924C96.1492 40.4531 95.5703 39.0493 95.418 38.3398C94.3008 38.3398 91.4266 39.1 88.8672 42.1408L90.9238 44.2693L92.5234 42.5209C92.8553 44.397 93.2679 48.2186 92.6438 50.2585C92.5371 50.6076 92.7847 51.0352 93.1498 51.0352H101.342C101.707 51.0352 101.955 50.6076 101.848 50.2585C101.224 48.2188 101.637 44.397 101.969 42.5209L103.568 44.2693L105.625 42.1408C103.066 39.1 100.191 38.3398 99.0742 38.3398C98.9219 39.0493 98.343 40.4531 97.2461 40.3924Z" fill="#F2F2F2"/>
<path d="M34.1641 16.1346C34.1641 15.9179 34.3365 15.7422 34.549 15.7422H38.973C39.1856 15.7422 39.3577 15.9179 39.3577 16.1346C39.3577 16.3513 39.1856 16.527 38.973 16.527H34.549C34.3365 16.527 34.1641 16.3513 34.1641 16.1346Z" fill="#389F5D"/>
<path d="M34.1641 17.9005C34.1641 17.6838 34.3365 17.5081 34.549 17.5081H38.973C39.1856 17.5081 39.3577 17.6838 39.3577 17.9005C39.3577 18.1172 39.1856 18.2929 38.973 18.2929H34.549C34.3365 18.2929 34.1641 18.1172 34.1641 17.9005Z" fill="#389F5D"/>
<path d="M34.1641 19.6661C34.1641 19.4494 34.3365 19.2737 34.549 19.2737H38.973C39.1856 19.2737 39.3577 19.4494 39.3577 19.6661C39.3577 19.8828 39.1856 20.0585 38.973 20.0585H34.549C34.3365 20.0585 34.1641 19.8828 34.1641 19.6661Z" fill="#389F5D"/>
<path d="M33.7771 16.1346C33.7771 16.3513 33.605 16.527 33.3925 16.527C33.18 16.527 33.0078 16.3513 33.0078 16.1346C33.0078 15.9179 33.18 15.7422 33.3925 15.7422C33.605 15.7422 33.7771 15.9179 33.7771 16.1346Z" fill="#389F5D"/>
<path d="M33.7771 17.9005C33.7771 18.1172 33.605 18.2929 33.3925 18.2929C33.18 18.2929 33.0078 18.1172 33.0078 17.9005C33.0078 17.6838 33.18 17.5081 33.3925 17.5081C33.605 17.5081 33.7771 17.6838 33.7771 17.9005Z" fill="#389F5D"/>
<path d="M33.7771 19.6661C33.7771 19.8828 33.605 20.0585 33.3925 20.0585C33.18 20.0585 33.0078 19.8828 33.0078 19.6661C33.0078 19.4494 33.18 19.2737 33.3925 19.2737C33.605 19.2737 33.7771 19.4494 33.7771 19.6661Z" fill="#389F5D"/>
<path fill-rule="evenodd" clip-rule="evenodd" d="M108.672 15.4289C108.672 15.3215 108.759 15.2344 108.866 15.2344H110.941L111.114 16.1342H116.066L115.286 19.7626H111.878L112.04 20.4395H115.527C115.635 20.4395 115.722 20.5266 115.722 20.634C115.722 20.7415 115.635 20.8286 115.527 20.8286H111.708L111.458 19.604L110.763 16.3657L110.62 15.6235H108.866C108.759 15.6235 108.672 15.5364 108.672 15.4289ZM111.807 19.3735H112.639L112.441 18.1429H111.543L111.807 19.3735ZM111.459 17.7538H112.378L112.18 16.5233H111.195L111.459 17.7538ZM112.574 16.5233L112.772 17.7538H114.141L114.373 16.5233H112.574ZM114.769 16.5233L114.537 17.7538H115.32L115.584 16.5233H114.769ZM115.236 18.1429H114.464L114.233 19.3735H114.972L115.236 18.1429ZM113.837 19.3735L114.068 18.1429H112.835L113.033 19.3735H113.837Z" fill="#F2F2F2"/>
<path d="M112.917 21.5061C112.917 21.8284 112.656 22.0897 112.334 22.0897C112.011 22.0897 111.75 21.8284 111.75 21.5061C111.75 21.1837 112.011 20.9224 112.334 20.9224C112.656 20.9224 112.917 21.1837 112.917 21.5061Z" fill="#F2F2F2"/>
<path d="M115.253 21.5061C115.253 21.8284 114.992 22.0897 114.67 22.0897C114.347 22.0897 114.086 21.8284 114.086 21.5061C114.086 21.1837 114.347 20.9224 114.67 20.9224C114.992 20.9224 115.253 21.1837 115.253 21.5061Z" fill="#F2F2F2"/>
<path d="M39.8789 40.8976L41.6598 39.1167L49.0066 46.4635L47.2254 48.2444L39.8789 40.8976Z" fill="#F2F2F2"/>
<path d="M42.3274 41.5657C43.1882 40.7052 43.1437 39.2653 42.2281 38.3497C41.5362 37.6576 40.5447 37.4633 39.7302 37.7812L41.1117 39.1627L39.9245 40.35L38.543 38.9685C38.2251 39.783 38.4193 40.7745 39.1114 41.4664C40.0268 42.382 41.4669 42.4264 42.3274 41.5657Z" fill="#F2F2F2"/>
<path d="M47.0785 46.3151C47.9393 45.4543 49.3792 45.4988 50.2947 46.4144C50.9866 47.1063 51.1811 48.0978 50.8632 48.9123L49.4815 47.5308L48.2942 48.7181L49.6757 50.0998C48.8612 50.4177 47.8697 50.2232 47.1778 49.5313C46.2622 48.6157 46.2178 47.1758 47.0785 46.3151Z" fill="#F2F2F2"/>
<path d="M64.4922 39.8633C64.4922 39.5827 64.7194 39.3555 65 39.3555H78.2031C78.4837 39.3555 78.7109 39.5827 78.7109 39.8633V47.4805H64.4922V39.8633Z" fill="#F2F2F2"/>
<path d="M62.9688 47.8613C62.9688 48.212 63.2529 48.4961 63.6035 48.4961H79.3457C79.6963 48.4961 79.9805 48.212 79.9805 47.8613C79.9805 47.5107 79.6963 47.2266 79.3457 47.2266H63.6035C63.2529 47.2266 62.9688 47.5107 62.9688 47.8613Z" fill="#F2F2F2"/>
<path fill-rule="evenodd" clip-rule="evenodd" d="M62.9688 47.2266H79.9805V46.9727H62.9688V47.2266Z" fill="#3EF47F"/>
<path d="M44.6875 18.2812C44.6875 16.4583 46.1652 14.9805 47.9883 14.9805H101.309C103.132 14.9805 104.609 16.4583 104.609 18.2812C104.609 20.1042 103.132 21.582 101.309 21.582H47.9883C46.1652 21.582 44.6875 20.1042 44.6875 18.2812Z" fill="#F2F2F2"/>
<path fill-rule="evenodd" clip-rule="evenodd" d="M101.309 15.2344H47.9883C46.3056 15.2344 44.9414 16.5985 44.9414 18.2812C44.9414 19.964 46.3056 21.3281 47.9883 21.3281H101.309C102.991 21.3281 104.355 19.964 104.355 18.2812C104.355 16.5985 102.991 15.2344 101.309 15.2344ZM47.9883 14.9805C46.1652 14.9805 44.6875 16.4583 44.6875 18.2812C44.6875 20.1042 46.1652 21.582 47.9883 21.582H101.309C103.132 21.582 104.609 20.1042 104.609 18.2812C104.609 16.4583 103.132 14.9805 101.309 14.9805H47.9883Z" fill="#389F5D"/>
<path fill-rule="evenodd" clip-rule="evenodd" d="M49.0885 16.7578C48.4925 16.7578 47.9883 17.2689 47.9883 17.9258C47.9883 18.5826 48.4925 19.0937 49.0885 19.0937C49.4124 19.0937 49.7062 18.9451 49.9098 18.7029C50.0825 18.4973 50.1889 18.2257 50.1889 17.9258C50.1889 17.2689 49.6846 16.7578 49.0885 16.7578ZM47.4805 17.9258C47.4805 17.0121 48.1889 16.25 49.0885 16.25C49.9883 16.25 50.6967 17.0121 50.6967 17.9258C50.6967 18.2622 50.6012 18.5767 50.4362 18.8403L51.4691 19.8796L51.109 20.2376L50.1033 19.2258C49.8278 19.4596 49.4749 19.6016 49.0885 19.6016C48.1889 19.6016 47.4805 18.8395 47.4805 17.9258Z" fill="#389F5D"/>
<path fill-rule="evenodd" clip-rule="evenodd" d="M53.3828 20.1855V16.25H53.7637V20.1855H53.3828Z" fill="#389F5D"/>
<path d="M17.9414 107.28C18.8763 107.033 20.8443 102.219 21.8088 101.029L26.4093 103.175C26.357 103.287 22.7808 108.034 24.0378 109.44C21.9797 110.338 18.9613 108.12 17.9414 107.28Z" fill="#BCFCD3"/>
<path d="M23.8907 106.971C22.9155 106.867 22.9995 107.436 21.9278 107.746C19.8945 108.335 20.4117 105.456 19.0885 105.746C18.263 105.927 16.9997 108.519 16.5273 109.899C18.5067 111.391 22.4778 113.94 25.2996 115.45C26.1474 115.903 27.1292 116.478 28.0184 116.117C29.3425 115.579 27.6614 112.788 26.4112 111.174C26.2416 110.82 26.0849 110.468 25.9417 110.139L25.9011 110.046C25.8056 109.825 25.7157 109.606 25.6289 109.391C25.4964 109.063 25.3708 108.746 25.2427 108.456C24.8836 107.642 24.5039 107.036 23.8907 106.971Z" fill="#389F5D"/>
<path fill-rule="evenodd" clip-rule="evenodd" d="M24.5614 107.514C24.3584 107.269 24.1379 107.125 23.8745 107.097C23.6428 107.073 23.4828 107.089 23.3568 107.126C23.2307 107.164 23.1297 107.226 23.0165 107.307C22.9862 107.328 22.9554 107.351 22.9233 107.375C22.7114 107.532 22.4473 107.727 21.9603 107.868C21.424 108.024 21.033 107.955 20.7363 107.745C20.4489 107.542 20.27 107.219 20.1244 106.913C20.0886 106.838 20.0566 106.767 20.0254 106.699C19.9891 106.619 19.954 106.542 19.9152 106.462C19.8463 106.321 19.7777 106.196 19.701 106.097C19.6247 105.998 19.5445 105.928 19.4542 105.89C19.3655 105.852 19.2563 105.839 19.1128 105.87L19.0585 105.622C19.2458 105.581 19.4099 105.595 19.5541 105.656C19.6968 105.717 19.8091 105.821 19.9022 105.942C19.9949 106.062 20.0724 106.205 20.1436 106.352C20.181 106.428 20.2203 106.515 20.2594 106.6C20.2914 106.67 20.3232 106.74 20.3537 106.804C20.4984 107.108 20.6541 107.376 20.8829 107.538C21.1024 107.693 21.4093 107.763 21.8896 107.624C22.3313 107.496 22.5622 107.326 22.7712 107.171C22.8041 107.147 22.8363 107.123 22.8688 107.1C22.9904 107.013 23.1182 106.933 23.2842 106.883C23.4502 106.834 23.6454 106.818 23.9013 106.845C24.251 106.882 24.5269 107.074 24.7569 107.352C24.9851 107.627 25.1755 107.996 25.356 108.405C25.4647 108.651 25.5719 108.916 25.6818 109.189C25.7024 109.24 25.7229 109.292 25.7438 109.343C25.8306 109.558 25.9197 109.776 26.0147 109.995L26.0553 110.089V110.089M25.7478 110.017C25.6737 109.844 25.6031 109.672 25.5348 109.504C25.5173 109.5 25.499 109.496 25.4802 109.492C25.4561 109.486 25.4294 109.48 25.401 109.473L25.3913 109.471C25.3592 109.463 25.3245 109.455 25.2877 109.447C25.1401 109.413 24.9592 109.375 24.7703 109.35C24.5808 109.324 24.3879 109.312 24.2158 109.329C24.0422 109.346 23.9028 109.39 23.8078 109.467L23.6482 109.27C23.7978 109.149 23.9936 109.095 24.1913 109.076C24.3904 109.057 24.6048 109.071 24.8043 109.098C25.0043 109.125 25.1939 109.165 25.3442 109.199C25.3703 109.205 25.3951 109.211 25.419 109.217C25.3283 108.992 25.2407 108.776 25.1523 108.572C25.144 108.571 25.1352 108.57 25.126 108.569C24.9774 108.548 24.7127 108.51 24.4175 108.496C24.2273 108.487 24.0311 108.488 23.8552 108.509C23.6769 108.53 23.5322 108.571 23.4359 108.632L23.2992 108.418C23.443 108.326 23.6323 108.28 23.825 108.257C24.0202 108.233 24.2319 108.233 24.4298 108.242C24.6561 108.253 24.873 108.278 25.029 108.299C24.8811 107.985 24.73 107.717 24.5614 107.514M25.8588 110.273C25.773 110.275 25.6717 110.268 25.5691 110.259C25.5345 110.256 25.4992 110.252 25.4629 110.249C25.3376 110.238 25.2032 110.225 25.065 110.219C24.8875 110.211 24.711 110.214 24.5518 110.241C24.3922 110.268 24.2584 110.318 24.159 110.399L23.9994 110.201C24.1446 110.084 24.3249 110.022 24.5092 109.991C24.6938 109.959 24.8907 109.957 25.0763 109.965C25.2212 109.972 25.3636 109.985 25.4899 109.997C25.5249 110 25.5589 110.003 25.5912 110.006C25.6501 110.011 25.7024 110.015 25.7478 110.017M25.8588 110.273C25.9588 110.502 26.0652 110.741 26.1782 110.984C25.9487 110.931 25.6694 110.881 25.3957 110.86C25.1995 110.845 25.002 110.844 24.8254 110.869C24.6509 110.893 24.4835 110.944 24.3598 111.044L24.5194 111.242C24.5915 111.183 24.7063 111.142 24.8606 111.12C25.0127 111.099 25.1905 111.099 25.376 111.113C25.7273 111.14 26.0916 111.218 26.3333 111.285C26.9498 112.085 27.661 113.159 28.0604 114.099C28.2638 114.577 28.3803 115.007 28.3719 115.342C28.3679 115.508 28.3331 115.644 28.2689 115.751C28.2059 115.857 28.1097 115.942 27.9677 115.999L28.0632 116.235C28.2524 116.158 28.3933 116.038 28.487 115.882C28.5794 115.727 28.6208 115.545 28.6259 115.348C28.6355 114.958 28.5019 114.488 28.2942 114C27.8789 113.023 27.1433 111.917 26.5169 111.107M22.5938 111.914C20.7621 110.762 18.983 109.525 17.8203 108.673L17.9703 108.468C19.1289 109.317 20.9031 110.55 22.729 111.699C24.5572 112.849 26.4285 113.908 27.7842 114.412L27.6955 114.65C26.3133 114.136 24.423 113.065 22.5938 111.914Z" fill="#389F5D"/>
<path d="M13.1641 114.689C13.9069 114.07 13.6593 109.984 14.0307 108.498H19.1068C19.1068 108.622 17.8687 113.327 19.602 114.07C18.1164 115.753 14.4434 115.019 13.1641 114.689Z" fill="#BCFCD3"/>
<path d="M18.4233 111.895C17.4958 112.213 17.8121 112.692 16.9719 113.427C15.3781 114.82 14.6302 111.992 13.5533 112.814C12.8815 113.326 12.832 116.209 12.9874 117.66C15.4119 118.176 20.0882 118.808 23.2835 118.983C24.2434 119.036 25.3762 119.142 26.0295 118.439C27.0025 117.392 24.2992 115.573 22.4837 114.638C22.1808 114.39 21.8897 114.137 21.6213 113.899L21.5448 113.832C21.3651 113.672 21.1908 113.511 21.0213 113.353C20.7625 113.112 20.5149 112.878 20.2761 112.669C19.6067 112.083 19.0065 111.694 18.4233 111.895Z" fill="#389F5D"/>
<path fill-rule="evenodd" clip-rule="evenodd" d="M19.2633 112.102C18.9758 111.965 18.7154 111.929 18.4648 112.015C18.2444 112.09 18.1063 112.173 18.008 112.26C17.9096 112.347 17.8441 112.446 17.7757 112.567C17.7574 112.599 17.7391 112.633 17.7201 112.668C17.5943 112.9 17.4376 113.189 17.0558 113.522C16.6354 113.89 16.252 113.993 15.8945 113.928C15.5481 113.865 15.2494 113.648 14.9882 113.432C14.9239 113.379 14.8652 113.329 14.808 113.28C14.7415 113.223 14.6771 113.168 14.6082 113.113C14.4858 113.013 14.3711 112.929 14.2595 112.872C14.1485 112.814 14.0465 112.785 13.9483 112.788C13.8519 112.791 13.7474 112.826 13.6306 112.915L13.4766 112.713C13.629 112.597 13.7834 112.539 13.9402 112.534C14.0953 112.53 14.2409 112.576 14.3764 112.646C14.5112 112.716 14.6418 112.813 14.7683 112.915C14.8347 112.969 14.9067 113.031 14.9783 113.092C15.037 113.142 15.0953 113.191 15.1499 113.237C15.4095 113.451 15.6639 113.628 15.9397 113.678C16.2043 113.726 16.5121 113.66 16.8886 113.331C17.2349 113.028 17.3721 112.776 17.4963 112.548C17.5158 112.512 17.5349 112.477 17.5546 112.442C17.628 112.312 17.7099 112.185 17.8393 112.07C17.9688 111.955 18.139 111.858 18.3824 111.774C18.715 111.66 19.0463 111.718 19.3721 111.872C19.6952 112.026 20.0235 112.279 20.36 112.573C20.5628 112.751 20.7719 112.946 20.9869 113.147C21.0271 113.185 21.0675 113.222 21.1082 113.26C21.2775 113.418 21.4508 113.578 21.6293 113.737L21.7057 113.804C21.7056 113.804 21.7057 113.804 21.7057 113.804M21.3966 113.869C21.2564 113.744 21.1197 113.618 20.9865 113.494C20.9692 113.498 20.9508 113.502 20.932 113.506C20.9078 113.511 20.8809 113.517 20.8523 113.523L20.8427 113.525C20.8103 113.531 20.7755 113.539 20.7386 113.547C20.5906 113.579 20.4105 113.621 20.2285 113.677C20.046 113.734 19.866 113.805 19.7171 113.893C19.567 113.981 19.4596 114.081 19.4059 114.191L19.1778 114.079C19.2623 113.906 19.417 113.775 19.5881 113.674C19.7604 113.572 19.9608 113.495 20.153 113.435C20.3457 113.375 20.5345 113.331 20.6851 113.299C20.7113 113.293 20.7364 113.288 20.7602 113.283C20.5832 113.117 20.4125 112.959 20.2462 112.811C20.2382 112.814 20.2298 112.816 20.2209 112.819C20.0773 112.863 19.8217 112.941 19.548 113.053C19.3718 113.125 19.1943 113.208 19.0438 113.302C18.8913 113.397 18.7773 113.495 18.7161 113.591L18.5017 113.455C18.5932 113.311 18.745 113.189 18.9099 113.086C19.0769 112.983 19.2686 112.893 19.452 112.818C19.6617 112.732 19.8689 112.663 20.0189 112.616C19.7522 112.393 19.5021 112.215 19.2633 112.102M21.6055 114.055C21.5284 114.093 21.4334 114.128 21.3366 114.164C21.304 114.175 21.2706 114.188 21.2365 114.2C21.1179 114.242 20.9909 114.288 20.8631 114.341C20.6988 114.408 20.54 114.486 20.4072 114.578C20.2741 114.669 20.174 114.772 20.1178 114.886L19.8898 114.775C19.9718 114.607 20.1091 114.475 20.2628 114.369C20.4169 114.262 20.5943 114.177 20.7661 114.106C20.9001 114.05 21.0348 114.002 21.1541 113.96C21.1873 113.948 21.2193 113.936 21.2498 113.925C21.3054 113.905 21.3544 113.886 21.3966 113.869M21.6055 114.055C21.7926 114.219 21.9903 114.391 22.195 114.563C21.9646 114.612 21.6907 114.685 21.4336 114.782C21.2494 114.851 21.0701 114.934 20.9205 115.031C20.7727 115.127 20.6425 115.244 20.5727 115.387L20.8007 115.498C20.8415 115.415 20.9279 115.329 21.0586 115.244C21.1875 115.16 21.3486 115.085 21.5228 115.02C21.8526 114.896 22.2155 114.812 22.463 114.77C23.3597 115.235 24.4586 115.909 25.2176 116.591C25.6039 116.938 25.891 117.279 26.0251 117.586C26.0916 117.738 26.1178 117.876 26.1048 118.001C26.0924 118.123 26.0411 118.241 25.9367 118.353L26.1228 118.526C26.2617 118.376 26.3389 118.208 26.3575 118.027C26.376 117.847 26.3364 117.665 26.2579 117.484C26.102 117.127 25.7824 116.758 25.3874 116.402C24.5982 115.693 23.4642 115.001 22.5541 114.532M19.3397 116.921C17.1927 116.651 15.0574 116.282 13.6438 116.001L13.6932 115.752C15.1019 116.032 17.2312 116.4 19.3714 116.669C21.5143 116.939 23.6577 117.107 25.0995 116.992L25.1198 117.245C23.6498 117.363 21.4838 117.191 19.3397 116.921Z" fill="#389F5D"/>
<path d="M19.2009 109.86C20.439 100.946 20.7633 90.1748 20.9614 86.7082C21.0619 84.9499 21.7611 78.2856 22.5874 74.0548C24.1318 75.658 25.7537 82.466 27.3995 84.3558C23.7712 91.0922 24.7869 91.6 20.9614 102.184C21.2503 103.092 23.5119 104.264 25.7898 104.66C29.9919 92.1078 33.6736 89.8226 33.9275 84.3558C34.1171 80.2747 30.4121 69.3502 28.3898 64.1502C25.2204 65.2397 16.6696 62.3342 13.2855 60.6836C12.4231 62.5209 12.0742 66.8228 12.9504 70.9594L14.2758 86.7082C12.5994 95.9164 14.2758 96.1703 13.3611 109.86C15.0944 110.52 18.2105 110.652 19.2009 109.86Z" fill="#389F5D"/>
<path fill-rule="evenodd" clip-rule="evenodd" d="M25.9065 68.5557C25.9349 68.6196 25.9062 68.6948 25.842 68.7232L23.9343 69.572C23.742 69.9435 23.5399 70.5415 23.3358 71.3037C23.1254 72.0895 22.9153 73.0407 22.7125 74.0791C22.6991 74.1479 22.6324 74.1929 22.5636 74.1794C22.4948 74.166 22.4499 74.0992 22.4633 74.0304C22.6667 72.9889 22.8781 72.0316 23.0906 71.2379C23.3023 70.4473 23.5175 69.8097 23.7308 69.4136L23.7513 69.3755L25.7389 68.4912C25.8029 68.4627 25.878 68.4917 25.9065 68.5557Z" fill="#F2F2F2"/>
<path d="M17.4805 33.4374C19.425 32.6835 19.5143 29.287 19.3159 27.6831C19.5889 28.3656 21.4059 31.6773 24.0781 31.7233C24.0897 32.1356 24.1582 32.8953 24.3349 33.4767C24.4576 33.8807 24.5722 34.3377 24.3733 34.7102C23.0624 37.1635 19.3118 34.9611 17.4805 33.4374Z" fill="#BCFCD3"/>
<path d="M20.2073 25.1036C23.3779 24.7557 24.42 22.4644 24.5632 21.2764C25.2774 21.4773 26.7455 22.2463 26.9042 23.7147C27.1025 25.55 27.8962 31.0067 24.8207 31.6517C24.566 31.705 24.3179 31.7276 24.0766 31.7233C21.4045 31.6773 19.5874 28.3656 19.3144 27.6831C17.727 26.9392 17.5782 25.2525 18.1735 24.6572C18.6497 24.181 19.7278 24.7564 20.2073 25.1036Z" fill="#BCFCD3"/>
<path fill-rule="evenodd" clip-rule="evenodd" d="M18.6024 25.3053C18.6278 25.24 18.7014 25.2076 18.7667 25.233C18.9289 25.2961 19.1692 25.4283 19.3762 25.6251C19.5833 25.8221 19.7672 26.0938 19.7899 26.4343C19.7946 26.5041 19.7417 26.5648 19.6717 26.5694C19.6017 26.574 19.5413 26.5212 19.5366 26.4511C19.5196 26.1964 19.3811 25.9803 19.2013 25.8092C19.0213 25.6381 18.8102 25.5223 18.6747 25.4697C18.6094 25.4443 18.577 25.3707 18.6024 25.3053ZM19.2688 27.565C19.3339 27.5391 19.4078 27.5705 19.4339 27.6358C19.5651 27.9638 20.0799 28.9495 20.892 29.857C21.7058 30.7662 22.7971 31.5739 24.0804 31.596C24.1505 31.5972 24.2064 31.6551 24.2052 31.7252C24.2039 31.7953 24.1462 31.8512 24.0761 31.8499C22.6872 31.826 21.5339 30.9549 20.7028 30.0263C19.8701 29.0958 19.3399 28.0845 19.1981 27.73C19.1721 27.665 19.2037 27.5911 19.2688 27.565Z" fill="#389F5D"/>
<path d="M20.2077 25.1037C23.3783 24.7557 24.4203 22.4645 24.5635 21.2764C25.2777 21.4774 26.7457 22.2464 26.9046 23.7147C27.1029 25.5501 27.8966 31.0068 24.8211 31.6517C24.5664 31.705 24.3182 31.7276 24.077 31.7233C24.0889 32.1463 24.1607 32.9349 24.3477 33.5217C25.8659 34.2464 27.3116 35.784 27.8814 36.6389C28.1404 37.0274 28.5025 37.8008 28.8808 38.7248L30.2047 36.6194C30.9742 35.0909 30.1986 33.7477 29.236 32.5447C28.244 31.3043 29.1865 30.5106 29.6329 29.1218C30.0792 27.7329 29.1367 26.5918 28.4921 25.6989C27.8471 24.806 28.0454 23.7147 27.8471 21.1848C27.6882 19.1609 24.54 18.258 22.9856 18.0596C21.2163 17.8777 17.4694 18.3771 16.636 21.8297C15.9911 24.6572 16.9925 24.9126 14.8502 25.5998C12.2211 26.4431 14.8502 28.6754 13.114 29.965C12.1053 30.792 10.6932 32.9613 13.114 35.0248L17.4794 33.4374C19.4239 32.6836 19.5132 29.2871 19.3147 27.6831C17.7273 26.9392 17.5785 25.2525 18.1738 24.6572C18.65 24.181 19.7281 24.7564 20.2077 25.1037Z" fill="#389F5D"/>
<path d="M24.2906 25.9967C24.2906 26.2432 24.1573 26.4433 23.9929 26.4433C23.8286 26.4433 23.6953 26.2432 23.6953 25.9967C23.6953 25.7501 23.8286 25.5503 23.9929 25.5503C24.1573 25.5503 24.2906 25.7501 24.2906 25.9967Z" fill="#389F5D"/>
<path d="M26.9704 26.096C26.9704 26.3426 26.8371 26.5424 26.6726 26.5424C26.5083 26.5424 26.375 26.3426 26.375 26.096C26.375 25.8495 26.5083 25.6497 26.6726 25.6497C26.8371 25.6497 26.9704 25.8495 26.9704 26.096Z" fill="#389F5D"/>
<path fill-rule="evenodd" clip-rule="evenodd" d="M22.563 24.9815C22.354 25.2991 22.2206 25.7453 22.2206 26.2447C22.2206 26.7439 22.354 27.1903 22.563 27.5077C22.7726 27.8263 23.0478 28.0028 23.3338 28.0028C23.6198 28.0028 23.895 27.8263 24.1047 27.5077C24.3136 27.1903 24.447 26.7439 24.447 26.2447C24.447 25.7453 24.3136 25.2991 24.1047 24.9815C23.895 24.6628 23.6198 24.4866 23.3338 24.4866C23.0478 24.4866 22.7726 24.6628 22.563 24.9815ZM22.3508 24.8419C22.59 24.4783 22.9349 24.2327 23.3338 24.2327C23.7327 24.2327 24.0776 24.4783 24.3168 24.8419C24.5299 25.1658 24.6675 25.5935 24.6956 26.0647C24.774 26.0411 24.8628 26.0216 24.953 26.0129C25.0442 26.004 25.1476 26.0058 25.2455 26.0335C25.2698 25.6242 25.3858 25.2521 25.5657 24.9693C25.768 24.6513 26.0633 24.4311 26.4094 24.4311C26.7555 24.4311 27.0508 24.6513 27.2531 24.9693C27.4565 25.2889 27.5781 25.7225 27.5781 26.195C27.5781 26.6675 27.4565 27.1012 27.2531 27.4208C27.0508 27.7387 26.7555 27.9589 26.4094 27.9589C26.0697 27.9589 25.779 27.7466 25.5771 27.4384C25.3831 27.1421 25.2608 26.7439 25.243 26.3064C25.182 26.2689 25.0915 26.2546 24.9772 26.2656C24.8779 26.2752 24.778 26.3021 24.6997 26.3306C24.6853 26.8389 24.5439 27.302 24.3168 27.6473C24.0776 28.0109 23.7327 28.2567 23.3338 28.2567C22.9349 28.2567 22.59 28.0109 22.3508 27.6473C22.1109 27.2827 21.9667 26.7863 21.9667 26.2447C21.9667 25.969 22.004 25.7052 22.0723 25.4645L20.1932 25.2297C20.1237 25.2209 20.0743 25.1575 20.083 25.0879C20.0917 25.0184 20.1552 24.969 20.2247 24.9777L22.1557 25.2191C22.2105 25.0823 22.276 24.9557 22.3508 24.8419ZM25.78 25.1056C25.6063 25.3786 25.4946 25.7633 25.4946 26.195C25.4946 26.2107 25.4948 26.2265 25.4951 26.2422C25.503 26.6627 25.617 27.0354 25.7894 27.2992C25.9628 27.5643 26.1844 27.705 26.4094 27.705C26.6387 27.705 26.8642 27.559 27.0388 27.2845C27.2125 27.0115 27.3242 26.6266 27.3242 26.195C27.3242 25.7633 27.2125 25.3786 27.0388 25.1056C26.8642 24.8312 26.6387 24.685 26.4094 24.685C26.1801 24.685 25.9547 24.8312 25.78 25.1056Z" fill="#389F5D"/>
<path d="M18.3423 32.8845C19.9105 34.7827 22.7993 37.2177 24.5326 34.2462C26.1835 34.8652 27.8933 35.4693 29.3611 37.0707C30.7231 38.5563 30.9788 40.3715 31.7405 42.1488C30.0566 45.12 30.4009 47.2932 30.9788 48.2425L29.1509 45.9716C28.4087 49.4189 28.592 57.5094 29.4591 63.4769C27.0742 66.7269 16.7888 62.6304 12.1674 60.1761C13.2815 57.6731 13.8491 51.7439 12.9186 45.6187C12.9085 45.6144 12.8985 45.6098 12.8885 45.605L11.1908 38.8191L11.1446 38.6345C10.8336 37.3916 10.9145 36.0195 11.935 35.2448C13.6458 33.9456 16.5436 32.9759 18.3423 32.8845Z" fill="#3EF47F"/>
<path fill-rule="evenodd" clip-rule="evenodd" d="M26.7061 38.2343C26.7602 38.1896 26.8402 38.197 26.8849 38.251C27.5196 39.0168 28.3936 40.1002 28.9964 41.318C29.5986 42.5352 29.9396 43.9058 29.4788 45.237C29.2396 45.9289 29.0654 46.9913 28.9555 48.3057C28.8458 49.6174 28.8003 51.1713 28.8151 52.8405C28.8443 56.1791 29.1132 59.973 29.5826 63.2047C29.5928 63.274 29.5448 63.3385 29.4752 63.3487C29.4059 63.3586 29.3414 63.3106 29.3315 63.2413C28.86 59.9968 28.5904 56.1916 28.5612 52.8425C28.5464 51.168 28.5919 49.6062 28.7026 48.2844C28.8128 46.9654 28.989 45.8769 29.2388 45.154C29.6677 43.9152 29.3574 42.62 28.7689 41.4307C28.1806 40.2422 27.3241 39.1788 26.6894 38.413C26.6447 38.359 26.652 38.279 26.7061 38.2343Z" fill="#389F5D"/>
<path fill-rule="evenodd" clip-rule="evenodd" d="M15.6664 38.228C15.7235 38.1871 15.8028 38.2006 15.8435 38.2575C17.1986 40.1547 17.4468 41.3353 17.7577 42.8146C17.8768 43.3813 18.0051 43.9917 18.2084 44.7029C18.2276 44.7704 18.1886 44.8405 18.1212 44.8598C18.0537 44.8791 17.9835 44.84 17.9642 44.7727C17.7527 44.0326 17.6217 43.4087 17.5016 42.8372C17.1947 41.3767 16.9594 40.2567 15.6369 38.405C15.5962 38.3481 15.6094 38.2687 15.6664 38.228Z" fill="#389F5D"/>
<path d="M27.5572 51.8266C25.5762 52.1567 22.0903 50.9641 18.0295 51.1621C14.3931 51.3396 13.5489 48.0292 13.2344 45.7351C14.595 46.1391 16.1828 45.4145 17.5487 44.9216L18.0295 46.9727C22.2189 46.9727 21.3302 49.2578 27.8047 49.0882C28.0937 48.9692 28.6962 48.6076 28.7952 48.1125C29.2081 48.4425 29.9731 48.9844 30.0416 49.2578C30.1686 49.7657 30.3743 52.1798 29.5338 52.6856C29.1695 52.9047 28.3913 52.6856 27.5572 51.8266Z" fill="#BCFCD3"/>
<path d="M34.9135 46.9729C34.5403 48.849 31.6074 49.2581 30.7241 47.8616C29.9735 46.6753 30.7906 44.393 31.1049 43.1643C30.4702 38.0862 31.2205 38.2131 30.0893 31.9924C30.0893 31.9924 28.9465 31.3577 28.3117 32.4352C28.1561 32.4878 27.9867 32.5459 27.8024 32.6102C27.4494 32.7336 27.0838 32.4495 27.1196 32.0772C27.3225 29.9668 27.5279 28.5459 29.3273 28.9456C30.5077 29.2073 32.5012 29.4534 32.5012 31.3577C33.8976 37.8247 35.2865 45.0965 34.9135 46.9729Z" fill="#BCFCD3"/>
<path fill-rule="evenodd" clip-rule="evenodd" d="M32.4712 31.2333C32.5398 31.2186 32.6073 31.2623 32.6223 31.3306C33.3205 34.5648 34.0175 38.002 34.4931 40.8658C34.7307 42.2978 34.9135 43.5879 35.0136 44.6388C35.1131 45.6844 35.1321 46.5081 35.0349 46.9976C35.0212 47.0662 34.9542 47.1108 34.8856 47.0971C34.8168 47.0837 34.7721 47.0166 34.7858 46.9478C34.8749 46.4994 34.8605 45.7103 34.7607 44.6627C34.6617 43.6204 34.4799 42.3366 34.2425 40.9074C33.7679 38.0494 33.0722 34.6171 32.374 31.3844C32.3592 31.3158 32.4027 31.2483 32.4712 31.2333Z" fill="#389F5D"/>
<path fill-rule="evenodd" clip-rule="evenodd" d="M24.7931 29.9236C24.5932 29.7236 24.2395 29.6664 23.8084 29.9409C23.7492 29.9785 23.6708 29.961 23.6331 29.9018C23.5955 29.8429 23.6129 29.7642 23.6721 29.7266C24.1719 29.4085 24.6647 29.4361 24.9726 29.7439C25.0222 29.7936 25.0222 29.8739 24.9726 29.9236C24.923 29.9732 24.8426 29.9732 24.7931 29.9236Z" fill="#389F5D"/>
<path d="M107.65 72.4087C108.235 73.5589 107.667 74.8922 107.31 75.4152C104.403 75.4152 105 71.1801 105.663 69.0625C106.081 69.6985 107.064 71.2585 107.65 72.4087Z" fill="#F2F2F2"/>
<path d="M113.897 78.7876C111.335 78.9704 113.557 81.5849 113.583 81.8462C113.876 85.9871 117.365 81.9856 119.073 79.4673C117.766 80.5129 116.459 78.6046 113.897 78.7876Z" fill="#F2F2F2"/>
<path d="M109.323 97.3228C109.68 93.3492 112.632 82.9497 114.891 81.4021C114.52 81.4021 114.158 81.5283 113.912 81.8061C111.454 84.5836 108.872 93.1082 108.612 96.8643C108.888 90.5034 108.842 83.5004 107.285 75.3071C107.217 74.9489 107.064 74.6114 106.841 74.3225L106.656 74.0823C107.964 82.1342 108.502 95.2525 108.042 97.3228L108.591 98.4471L109.323 97.3228Z" fill="#389F5D"/>
<path d="M116.928 89.8198C115.133 90.9614 111.03 93.7777 108.98 95.911C108.682 96.2216 108.414 96.5557 108.173 96.9043C108.181 95.8326 107.809 93.3019 106.261 91.7543C104.714 90.2065 100.283 86.7349 98.2617 85.1924C98.9153 86.3339 100.238 89.2864 100.301 91.9633C100.364 94.6405 101.826 98.133 102.549 99.5447L106.261 102.656L107.568 105.61C107.647 105.566 107.825 105.463 107.908 105.401C108.41 103.163 111.586 101.279 113.111 100.617C112.609 99.6336 115.446 93.0091 116.928 89.8198Z" fill="#3EF47F"/>
<path d="M118.993 99.78C118.601 99.7366 117.194 99.7277 112.823 100.146C108.946 100.517 107.744 103.494 107.565 105.427C107.435 103.858 106.46 100.475 103.595 99.4926C100.73 98.5094 99.0723 97.2356 98.6016 96.7214C99.1942 98.6298 100.902 102.745 102.994 103.937C105.085 105.129 106.898 105.88 107.542 106.107C112.431 106.368 115.725 103.937 116.405 102.211C117.07 100.522 118.392 99.9717 118.993 99.78Z" fill="#389F5D"/>
<path d="M116.283 109.535C116.283 107.011 114.236 104.965 111.712 104.965H105.516C102.992 104.965 100.945 107.011 100.945 109.535V117.305C100.945 118.286 101.741 119.082 102.723 119.082H114.505C115.487 119.082 116.283 118.286 116.283 117.305V109.535Z" fill="#389F5D"/>
</svg>
