<svg width="130" height="130" viewBox="0 0 130 130" fill="none" xmlns="http://www.w3.org/2000/svg">
<path d="M115.547 49.3584V65.2028C115.547 71.1953 110.689 76.0536 104.696 76.0536H87.5635C86.9624 76.0536 86.3894 76.3095 85.9879 76.7567L83.4685 79.5652C82.6272 80.5027 81.1582 80.5027 80.3173 79.5647L77.8 76.7567C77.3986 76.3089 76.8255 76.0531 76.2244 76.0531H59.0951C53.1011 76.0531 48.2422 71.1942 48.2422 65.2002V49.3584C48.2422 43.3675 53.0995 38.5081 59.093 38.5081H104.696C110.69 38.5081 115.547 43.368 115.547 49.3584Z" fill="white"/>
<path d="M81.8932 80.4169C81.2505 80.4169 80.6359 80.1424 80.2069 79.664L77.6896 76.856C77.3167 76.44 76.7827 76.2018 76.2242 76.2018H59.0949C53.0286 76.2018 48.0938 71.2665 48.0938 65.2007V49.3584C48.0938 43.2936 53.028 38.3599 59.0928 38.3599H104.696C110.761 38.3599 115.695 43.2941 115.695 49.3584V65.2028C115.695 71.2675 110.761 76.2018 104.696 76.2018H87.5633C87.0048 76.2018 86.4708 76.44 86.0985 76.856L83.5791 79.6645C83.1506 80.1429 82.5359 80.4169 81.8932 80.4169ZM59.0928 38.6563C53.1913 38.6563 48.3907 43.4574 48.3907 49.3584V65.2007C48.3907 71.1032 53.1929 75.9054 59.0954 75.9054H76.2247C76.8674 75.9054 77.4821 76.18 77.9111 76.6584L80.4284 79.4664C80.8012 79.8819 81.3353 80.1205 81.8932 80.1205C82.4517 80.1205 82.9858 79.8824 83.3581 79.4664L85.8775 76.6579C86.3065 76.1795 86.9211 75.9054 87.5633 75.9054H104.696C110.597 75.9054 115.398 71.1043 115.398 65.2033V49.3584C115.398 43.4574 110.597 38.6563 104.696 38.6563H59.0928Z" fill="black"/>
<path d="M69.2996 50.4202C69.2996 52.0312 68.7822 53.5225 67.9034 54.7347C66.5654 56.5843 64.3902 57.786 61.9338 57.786C59.4773 57.786 57.3006 56.5843 55.9626 54.7347C55.0838 53.5225 54.5664 52.0312 54.5664 50.4202C54.5664 46.3512 57.8648 43.0529 61.9338 43.0529C66.0012 43.0534 69.2996 46.3517 69.2996 50.4202Z" fill="white"/>
<path d="M61.9374 57.9347C59.533 57.9347 57.2564 56.771 55.8462 54.822C54.9143 53.5366 54.4219 52.0145 54.4219 50.4207C54.4219 46.2768 57.7936 42.9052 61.9374 42.9052C66.0808 42.9052 69.4514 46.2768 69.4514 50.4207C69.4514 52.0145 68.959 53.5366 68.0272 54.8225C66.6174 56.771 64.3409 57.9347 61.9374 57.9347ZM61.9374 43.2016C57.9568 43.2016 54.7183 46.4401 54.7183 50.4207C54.7183 51.9521 55.1915 53.4138 56.0864 54.6483C57.4405 56.5208 59.6276 57.6383 61.9374 57.6383C64.2457 57.6383 66.4328 56.5203 67.7869 54.6483C68.6818 53.4133 69.155 51.9516 69.155 50.4207C69.155 46.4396 65.917 43.2016 61.9374 43.2016Z" fill="black"/>
<path d="M61.9348 50.5783C63.1478 50.5783 64.1312 49.5949 64.1312 48.3818C64.1312 47.1687 63.1478 46.1853 61.9348 46.1853C60.7217 46.1853 59.7383 47.1687 59.7383 48.3818C59.7383 49.5949 60.7217 50.5783 61.9348 50.5783Z" fill="#4BF187"/>
<path d="M61.9345 50.7265C60.6418 50.7265 59.5898 49.6745 59.5898 48.3818C59.5898 47.0891 60.6418 46.0371 61.9345 46.0371C63.2272 46.0371 64.2792 47.0891 64.2792 48.3818C64.2797 49.6745 63.2278 50.7265 61.9345 50.7265ZM61.9345 46.334C60.8051 46.334 59.8868 47.2529 59.8868 48.3823C59.8868 49.5117 60.8056 50.4306 61.9345 50.4306C63.064 50.4306 63.9828 49.5117 63.9828 48.3823C63.9828 47.2523 63.064 46.334 61.9345 46.334Z" fill="black"/>
<path d="M67.9017 54.7352C66.5637 56.5848 64.3886 57.7866 61.9321 57.7866C59.4756 57.7866 57.2989 56.5848 55.9609 54.7352C57.4944 53.2204 59.6056 52.286 61.9321 52.286C64.2581 52.286 66.3682 53.2204 67.9017 54.7352Z" fill="#4BF187"/>
<path d="M61.9318 57.9348C59.5273 57.9348 57.2507 56.771 55.8405 54.8221C55.7979 54.7628 55.8046 54.6811 55.8561 54.6297C57.4832 53.0229 59.6407 52.1378 61.9313 52.1378C64.2208 52.1378 66.3778 53.0229 68.0054 54.6297C68.0574 54.6811 68.0641 54.7628 68.021 54.8221C66.6118 56.771 64.3352 57.9348 61.9318 57.9348ZM56.1572 54.7513C57.5165 56.5615 59.6656 57.6384 61.9318 57.6384C64.1974 57.6384 66.346 56.5615 67.7053 54.7513C66.1453 53.2563 64.1002 52.4347 61.9318 52.4347C59.7623 52.4342 57.7167 53.2558 56.1572 54.7513Z" fill="black"/>
<path d="M115.545 110.375H14.4529C14.3712 110.375 14.3047 110.309 14.3047 110.227C14.3047 110.145 14.3712 110.079 14.4529 110.079H115.545C115.626 110.079 115.693 110.145 115.693 110.227C115.693 110.309 115.627 110.375 115.545 110.375Z" fill="black"/>
<path d="M64.634 67.8313L63.7755 71.2618C63.6117 71.9159 63.1198 72.4422 62.4713 72.6564L60.5198 76.0978L53.3516 71.4843L57.1096 60.3283C57.3847 59.5082 58.3514 59.1421 59.1126 59.567C59.5323 59.8015 59.7881 60.231 59.8115 60.6902C59.8172 60.8087 59.8089 60.9273 59.7824 61.0474L58.7814 65.5673L59.251 65.0088C59.6243 64.5637 60.2265 64.3713 60.7943 64.5137C61.4428 64.6786 61.8972 65.2391 61.9295 65.885C61.9326 65.9432 61.9316 66.0035 61.9279 66.0623L61.8993 66.4721C62.1858 66.1299 62.5946 65.9406 63.0137 65.9198C63.3231 65.9042 63.6387 65.9812 63.9164 66.1543L63.9606 66.1824C64.5222 66.5319 64.7942 67.1959 64.634 67.8313Z" fill="#B2FFCE"/>
<path d="M62.2823 72.7673C61.9386 72.7673 61.2621 72.6628 61.0328 71.8776C60.7769 71.0024 61.6167 67.4123 61.6526 67.26C61.6651 67.2069 61.7181 67.1737 61.7712 67.1867C61.8242 67.1991 61.8575 67.2522 61.8445 67.3057C61.8357 67.3427 60.9808 70.9967 61.2215 71.8225C61.4826 72.7158 62.4129 72.5661 62.4529 72.5593C62.508 72.5499 62.5579 72.5858 62.5673 72.6399C62.5767 72.6935 62.5408 72.7449 62.4872 72.7543C62.4851 72.7543 62.4051 72.7673 62.2823 72.7673Z" fill="#1F2320"/>
<path d="M59.8816 72.3346C59.3736 72.3346 58.9622 72.0752 58.7189 71.5999C58.3294 70.8381 58.7698 67.0129 58.7886 66.8502C58.7948 66.7961 58.8447 66.7571 58.8983 66.7634C58.9524 66.7696 58.9913 66.819 58.9851 66.8731C58.8577 67.963 58.5935 70.9213 58.8946 71.5094C59.1843 72.0752 59.6637 72.1448 59.9273 72.1355C60.439 72.1178 60.8816 71.812 60.998 71.5385C61.0194 71.4881 61.0771 71.4652 61.128 71.4865C61.1785 71.5078 61.2014 71.5661 61.18 71.616C61.0168 71.9992 60.4692 72.3144 59.9341 72.3326C59.9169 72.3346 59.8993 72.3346 59.8816 72.3346Z" fill="#1F2320"/>
<path d="M55.8828 66.6135L59.2134 66.3041C59.8639 66.2438 60.4578 66.6712 60.5977 67.3004C60.7292 67.8927 60.4198 68.4949 59.8572 68.7414L57.512 69.7673L57.6565 71.6081" fill="#B2FFCE"/>
<path d="M57.6615 71.707C57.6106 71.707 57.5674 71.6675 57.5632 71.616L57.4187 69.7752C57.4156 69.7331 57.439 69.6936 57.4774 69.6769L59.8226 68.651C60.3395 68.4248 60.6271 67.8663 60.5064 67.3224C60.378 66.7426 59.8299 66.3479 59.2278 66.403L55.8972 66.7124C55.8446 66.7176 55.7947 66.6776 55.7895 66.623C55.7843 66.5684 55.8244 66.5205 55.879 66.5153L59.2096 66.2059C59.9053 66.1409 60.5491 66.6022 60.6994 67.2792C60.8408 67.9152 60.5054 68.5678 59.9017 68.8319L57.621 69.8293L57.7598 71.6004C57.7645 71.655 57.7234 71.7023 57.6688 71.7065C57.6667 71.707 57.6641 71.707 57.6615 71.707Z" fill="#1F2320"/>
<path d="M59.4724 67.9879C59.242 67.9879 58.9966 67.8178 58.8692 67.5459C58.7766 67.3519 58.7595 67.1398 58.8229 66.965C58.8687 66.8397 58.9545 66.7425 59.0647 66.692C59.3346 66.5683 59.6877 66.7492 59.8499 67.095C59.9425 67.2916 59.9586 67.5043 59.8946 67.6785C59.8489 67.8043 59.7657 67.8974 59.6544 67.9484C59.5962 67.9754 59.5348 67.9879 59.4724 67.9879ZM59.2478 66.8501C59.2124 66.8501 59.1786 66.8569 59.1469 66.8714C59.0678 66.9078 59.0283 66.9786 59.0086 67.0321C58.9639 67.1559 58.9784 67.316 59.0476 67.4611C59.1625 67.7055 59.4012 67.847 59.5717 67.769C59.6503 67.7331 59.6893 67.6629 59.7085 67.6104C59.7537 67.4871 59.7392 67.3259 59.6705 67.1788C59.5775 66.9806 59.4017 66.8501 59.2478 66.8501Z" fill="#1F2320"/>
<path d="M59.971 71.6596C59.9232 71.6596 59.8743 71.656 59.8249 71.6476C59.6076 71.6138 59.4198 71.5067 59.3096 71.3544C59.2316 71.2462 59.2009 71.1266 59.2207 71.008C59.269 70.7168 59.6206 70.5307 60.0007 70.5926C60.2196 70.6279 60.4084 70.7361 60.5176 70.8884C60.5945 70.9956 60.6247 71.1141 60.6049 71.2322C60.5628 71.4854 60.2919 71.6596 59.971 71.6596ZM59.8551 70.7787C59.6315 70.7787 59.4422 70.8858 59.4162 71.0408C59.4022 71.1235 59.438 71.1942 59.4703 71.2389C59.5483 71.3471 59.6928 71.4272 59.8561 71.4526C60.127 71.4968 60.3798 71.3809 60.4099 71.1999C60.4234 71.1183 60.3886 71.0486 60.3569 71.0044C60.2794 70.8962 60.1343 70.8156 59.969 70.7886C59.9305 70.7818 59.892 70.7787 59.8551 70.7787Z" fill="#1F2320"/>
<path d="M62.1937 72.0606C62.1459 72.0606 62.097 72.057 62.0476 72.0486C61.8302 72.0148 61.6425 71.9077 61.5322 71.7554C61.4542 71.6472 61.4236 71.5276 61.4433 71.409C61.4917 71.1178 61.8427 70.9317 62.2233 70.9936C62.4422 71.0289 62.631 71.1371 62.7402 71.2894C62.8172 71.3966 62.8473 71.5151 62.8276 71.6332C62.7849 71.8864 62.514 72.0606 62.1937 72.0606ZM62.0772 71.1797C61.8536 71.1797 61.6643 71.2868 61.6383 71.4418C61.6243 71.5245 61.6602 71.5952 61.6924 71.6399C61.7704 71.7481 61.915 71.8282 62.0782 71.8536C62.3492 71.8973 62.6019 71.7819 62.632 71.6009C62.6456 71.5193 62.6107 71.4496 62.579 71.4054C62.5015 71.2972 62.3564 71.2166 62.1911 71.1896C62.1531 71.1828 62.1147 71.1797 62.0772 71.1797Z" fill="#1F2320"/>
<path d="M61.2721 76.0298C61.2721 76.0298 57.5073 88.7453 45.8323 91.8419C45.4501 91.9433 45.0606 92.0349 44.6612 92.1139C44.628 92.1212 44.5957 92.1264 44.5598 92.1321C42.134 92.5949 39.792 92.2382 37.9881 91.8929C37.5814 91.8149 37.2034 91.7395 36.8571 91.6714C36.829 91.6651 36.8014 91.6605 36.7739 91.6558C35.3293 91.3786 34.4453 91.1035 34.4453 91.1035L35.4775 83.8074C40.8944 83.1007 49.3714 83.9702 52.4607 69.5859L61.2721 76.0298Z" fill="#389F5D"/>
<path d="M45.8325 91.8414C45.4503 91.9428 45.0608 92.0343 44.6614 92.1133C44.6282 92.1206 44.5959 92.1258 44.56 92.1315C42.1342 92.5943 39.7922 92.2376 37.9883 91.8923L41.3282 87.3236L45.8325 91.8414Z" fill="#3FF380"/>
<path d="M16.8711 110.143V90.467C16.8711 86.7324 19.9417 83.705 23.7294 83.705H38.4048C40.932 83.705 43.0219 85.9181 43.1737 88.7531L44.2813 110.143H16.8711V110.143Z" fill="#389F5D"/>
<path d="M21.3818 89.4961C21.3818 89.4961 20.358 99.6059 27.5204 100.871C34.6829 102.136 43.7117 98.0241 43.7117 98.0241L43.7855 101.008L35.9465 105.099L25.521 104.716L20.2685 99.9783L18.1797 94.9296" fill="#3FF380"/>
<path d="M43.0625 102.482L48.5984 98.9674C49.0758 98.4989 49.8516 98.5031 50.3227 98.9799C50.5562 99.2139 50.6696 99.515 50.6696 99.8156C50.6696 100.166 50.5162 100.514 50.2135 100.751L49.4481 101.354" fill="#B2FFCE"/>
<path d="M67.0162 107.666V109.25C67.0162 109.704 66.648 110.072 66.1946 110.072H52.542C51.983 110.072 51.5742 109.522 51.7604 108.995C52.204 107.741 53.3995 106.843 54.805 106.843H66.1946C66.648 106.844 67.0162 107.212 67.0162 107.666Z" fill="#C8FEDB"/>
<path d="M66.1948 110.221H52.5422C52.2255 110.221 51.9265 110.066 51.743 109.806C51.5625 109.551 51.5178 109.237 51.6208 108.946C52.0966 107.6 53.3768 106.696 54.8058 106.696H66.1948C66.7299 106.696 67.1651 107.131 67.1651 107.666V109.251C67.1646 109.786 66.7294 110.221 66.1948 110.221ZM54.8052 106.992C53.5016 106.992 52.3342 107.817 51.9 109.045C51.8298 109.244 51.8605 109.459 51.9848 109.635C52.1127 109.816 52.3212 109.924 52.5417 109.924H66.1943C66.5656 109.924 66.8677 109.622 66.8677 109.251V107.666C66.8677 107.295 66.5656 106.993 66.1943 106.993H54.8052V106.992Z" fill="black"/>
<path d="M86.7392 93.9931L84.3701 108.336C84.2042 109.338 83.3369 110.073 82.3213 110.073H63.1109C62.6034 110.073 62.2176 109.618 62.3003 109.117L64.8498 93.6889C65.166 91.7701 66.8243 90.3624 68.7701 90.3624H83.6572C85.5848 90.3619 87.0533 92.0925 86.7392 93.9931Z" fill="white"/>
<path d="M82.3214 110.221H63.1111C62.8256 110.221 62.5557 110.096 62.3711 109.878C62.1865 109.66 62.107 109.374 62.1538 109.092L64.7033 93.6635C65.033 91.6641 66.7428 90.2133 68.7697 90.2133H83.6568C84.6193 90.2133 85.5288 90.6345 86.1518 91.3687C86.7747 92.1029 87.042 93.0681 86.885 94.0165L84.5158 108.359C84.338 109.438 83.415 110.221 82.3214 110.221ZM68.7702 90.5102C66.8894 90.5102 65.3024 91.857 64.9966 93.7123L62.447 109.141C62.4148 109.337 62.4694 109.535 62.5978 109.687C62.7263 109.838 62.9135 109.924 63.1116 109.924H82.322C83.2699 109.924 84.0697 109.246 84.2241 108.311L86.5932 93.9687C86.7357 93.106 86.4929 92.2283 85.9261 91.5606C85.3593 90.8929 84.5325 90.5097 83.6573 90.5097H68.7702V90.5102Z" fill="black"/>
<path d="M69.2985 90.3624C67.3547 90.3624 65.6959 91.7701 65.3793 93.6883L62.8344 110.025C62.4725 109.895 62.2333 109.521 62.3003 109.117L64.8509 93.6883C65.1655 91.7701 66.8243 90.3624 68.7702 90.3624H69.2985Z" fill="black"/>
<path d="M62.834 110.173C62.8169 110.173 62.8002 110.17 62.7836 110.164C62.3416 110.005 62.0769 109.554 62.1539 109.092L64.7045 93.6634C65.0321 91.6645 66.7418 90.2137 68.7698 90.2137H69.2976C69.3793 90.2137 69.4458 90.2803 69.4458 90.3619C69.4458 90.4436 69.3793 90.5101 69.2976 90.5101C67.4173 90.5101 65.8308 91.8564 65.525 93.7118L62.9801 110.047C62.9734 110.091 62.9474 110.129 62.9094 110.152C62.8865 110.166 62.8606 110.173 62.834 110.173ZM66.8016 91.0509C65.8651 91.611 65.1855 92.5641 64.9972 93.7123L62.4466 109.142C62.4035 109.4 62.5142 109.652 62.7191 109.799L65.2323 93.6655C65.4106 92.587 65.9889 91.6687 66.8016 91.0509Z" fill="black"/>
<path d="M76.7132 102.848C77.659 101.945 77.7594 100.515 76.9373 99.6537C76.1153 98.7924 74.682 98.826 73.7361 99.7288C72.7902 100.632 72.6899 102.062 73.5119 102.923C74.334 103.784 75.7673 103.751 76.7132 102.848Z" fill="#C8FEDB"/>
<path d="M75.0152 103.694C74.3715 103.694 73.7886 103.443 73.3731 102.987C72.9555 102.529 72.759 101.92 72.8193 101.272C72.9425 99.9523 74.1172 98.8785 75.4375 98.8785C76.0812 98.8785 76.6647 99.1297 77.0796 99.5852C77.4972 100.043 77.6938 100.653 77.6334 101.3C77.5102 102.62 76.3355 103.694 75.0152 103.694ZM75.4375 99.1749C74.2659 99.1749 73.2244 100.128 73.1146 101.3C73.0621 101.863 73.2316 102.391 73.592 102.787C73.9503 103.18 74.4552 103.397 75.0147 103.397C76.1863 103.397 77.2278 102.444 77.3376 101.272C77.3901 100.709 77.2206 100.181 76.8602 99.7849C76.5024 99.3918 75.997 99.1749 75.4375 99.1749Z" fill="black"/>
<path d="M55.0797 105.191H52.9373L54.2789 105.502C54.7563 105.612 55.0776 106.051 55.0339 106.533L55.0277 106.597C54.9752 107.151 54.4599 107.549 53.9009 107.463L52.2525 107.217L52.3091 107.24L53.579 107.746C54.0563 107.936 54.3023 108.459 54.1427 108.942C54.0439 109.243 53.8525 109.493 53.6065 109.67C53.3606 109.846 53.0579 109.947 52.7381 109.947L48.2407 110.117L47.5517 110.143H46.0281L43.0625 102.482L49.4481 101.354L54.0803 100.904C54.6205 100.852 55.1021 101.242 55.1546 101.773L55.165 101.887C55.2133 102.378 54.8811 102.826 54.3933 102.927L52.8837 103.247L55.0849 103.255C55.594 103.257 56.0162 103.642 56.0583 104.144C56.0604 104.171 56.0625 104.198 56.0625 104.223C56.0615 104.754 55.6262 105.191 55.0797 105.191Z" fill="#B2FFCE"/>
<path d="M46.0286 110.143L43.0625 102.482L48.2412 110.117L47.5522 110.143H46.0286Z" fill="#9FFFC1"/>
<path d="M54.2001 102.581C53.9536 102.581 53.718 102.368 53.6364 102.052C53.5849 101.851 53.6078 101.649 53.6988 101.496C53.7643 101.386 53.8626 101.31 53.9749 101.282C54.2536 101.213 54.5526 101.445 54.6415 101.799C54.6925 101.999 54.6701 102.201 54.5786 102.355C54.5131 102.464 54.4148 102.54 54.3025 102.568C54.2687 102.577 54.2344 102.581 54.2001 102.581ZM54.0763 101.468C54.0586 101.468 54.0409 101.47 54.0233 101.474C53.9447 101.494 53.8959 101.551 53.8688 101.597C53.8054 101.704 53.7903 101.855 53.8283 102.002C53.8922 102.251 54.0851 102.419 54.2552 102.377C54.3337 102.357 54.3826 102.299 54.4096 102.253C54.4731 102.147 54.4881 101.995 54.4502 101.848C54.3956 101.628 54.2323 101.468 54.0763 101.468Z" fill="#1F2320"/>
<path d="M55.0718 104.865C54.7977 104.865 54.5653 104.602 54.5346 104.246C54.5164 104.041 54.5726 103.845 54.6875 103.709C54.7702 103.611 54.8794 103.552 54.9953 103.542C55.1123 103.532 55.2304 103.573 55.3281 103.656C55.4644 103.772 55.5517 103.955 55.5679 104.16C55.5855 104.364 55.5299 104.561 55.415 104.697C55.3323 104.795 55.2231 104.854 55.1071 104.863C55.0952 104.865 55.0832 104.865 55.0718 104.865ZM55.0297 103.738C55.0234 103.738 55.0177 103.739 55.0115 103.739C54.9303 103.746 54.8726 103.796 54.8388 103.836C54.7587 103.931 54.7187 104.078 54.7317 104.229C54.7535 104.485 54.9184 104.681 55.091 104.667C55.1721 104.66 55.2299 104.61 55.2637 104.569C55.3437 104.474 55.3838 104.328 55.3708 104.176C55.3588 104.025 55.2949 103.887 55.2002 103.807C55.1623 103.775 55.103 103.738 55.0297 103.738Z" fill="#1F2320"/>
<path d="M54.0169 107.106C53.7429 107.106 53.5105 106.842 53.4798 106.487C53.4621 106.281 53.5177 106.085 53.6327 105.949C53.7153 105.851 53.8245 105.792 53.9405 105.783C54.0575 105.773 54.1755 105.814 54.2733 105.897C54.4095 106.012 54.4969 106.196 54.513 106.4C54.5312 106.605 54.4751 106.801 54.3601 106.937C54.2775 107.035 54.1683 107.095 54.0523 107.104C54.0403 107.105 54.0284 107.106 54.0169 107.106ZM53.9748 105.979C53.9686 105.979 53.9629 105.98 53.9566 105.98C53.8755 105.986 53.8178 106.036 53.784 106.077C53.7039 106.172 53.6639 106.319 53.6769 106.471C53.6987 106.726 53.8594 106.922 54.0362 106.908C54.1173 106.901 54.175 106.851 54.2088 106.811C54.2889 106.715 54.3289 106.569 54.3159 106.417C54.304 106.267 54.24 106.129 54.1454 106.048C54.1074 106.016 54.0481 105.979 53.9748 105.979Z" fill="#1F2320"/>
<path d="M53.1658 109.508C53.1502 109.508 53.1351 109.507 53.1195 109.506C53.0025 109.492 52.898 109.432 52.8179 109.331C52.7077 109.191 52.6577 108.994 52.6817 108.788C52.7238 108.425 52.9853 108.155 53.2739 108.188C53.3904 108.201 53.4981 108.264 53.5776 108.365C53.6879 108.505 53.7367 108.702 53.7118 108.906C53.6717 109.249 53.4325 109.508 53.1658 109.508ZM53.2271 108.383C53.0623 108.383 52.9058 108.572 52.8782 108.811C52.8605 108.962 52.8959 109.111 52.9729 109.208C53.0056 109.249 53.0618 109.3 53.1424 109.309C53.3197 109.329 53.4866 109.133 53.5157 108.882C53.5345 108.732 53.4996 108.585 53.4227 108.488C53.3899 108.445 53.3332 108.393 53.2516 108.385C53.2432 108.384 53.2349 108.383 53.2271 108.383Z" fill="#1F2320"/>
<path d="M50.3488 103.313C50.2947 103.313 50.2505 103.269 50.25 103.214C50.2495 103.16 50.2937 103.115 50.3483 103.115L52.9431 103.099H52.9436C52.9977 103.099 53.0419 103.143 53.0424 103.197C53.0429 103.252 52.9987 103.296 52.9441 103.296L50.3493 103.313H50.3488Z" fill="#1F2320"/>
<path d="M52.3382 107.337H50.0793C50.0247 107.337 49.9805 107.293 49.9805 107.239C49.9805 107.184 50.0247 107.14 50.0793 107.14H52.3382C52.3928 107.14 52.4369 107.184 52.4369 107.239C52.4369 107.293 52.3928 107.337 52.3382 107.337Z" fill="#1F2320"/>
<path d="M51.0472 105.333C50.8771 105.333 50.7175 105.33 50.5781 105.323C50.5235 105.321 50.4814 105.275 50.4845 105.22C50.4871 105.165 50.5267 105.124 50.588 105.126C50.9115 105.141 51.3509 105.134 51.7757 105.126C52.2037 105.118 52.6467 105.11 52.9759 105.126C53.0305 105.128 53.0726 105.175 53.0695 105.229C53.0669 105.284 53.0268 105.326 52.966 105.323C52.6431 105.308 52.2042 105.316 51.7788 105.323C51.5318 105.329 51.2796 105.333 51.0472 105.333Z" fill="#1F2320"/>
<path d="M19.96 110.143C19.4239 109.827 18.9299 109.471 18.4864 109.072C14.9062 105.839 14.2494 98.4381 14.3082 93.0634C14.4075 83.9993 22.3817 83.81 22.3817 83.8094C17.891 103.427 26.4257 103.803 45.1468 100.168C45.1468 100.168 46.3682 109.617 46.5118 110.143H19.96V110.143Z" fill="#389F5D"/>
<path d="M34.0855 69.5391C35.509 69.5391 36.6631 68.385 36.6631 66.9614C36.6631 65.5378 35.509 64.3838 34.0855 64.3838C32.6619 64.3838 31.5078 65.5378 31.5078 66.9614C31.5078 68.385 32.6619 69.5391 34.0855 69.5391Z" fill="#9FFFC1"/>
<path d="M33.2248 83.549L32.671 86.4448L25.9531 83.549V77.1769L29.6051 78.1826L32.6715 78.0775L33.0553 81.8777C33.0574 81.8798 33.0574 81.8798 33.0574 81.8798L33.2248 83.549Z" fill="#B2FFCE"/>
<path d="M33.0544 81.8777C32.9556 81.8402 29.7982 80.5917 29.2345 78.8866C29.1414 78.6038 29.2901 78.3724 29.6042 78.1826L32.6706 78.0775L33.0544 81.8777Z" fill="#9FFFC1"/>
<path d="M32.6704 86.5935C32.6506 86.5935 32.6309 86.5894 32.6116 86.5816L25.8943 83.6857C25.8189 83.6535 25.7845 83.5661 25.8168 83.4907C25.849 83.4153 25.9369 83.381 26.0118 83.4132L32.7291 86.3091C32.8045 86.3413 32.8389 86.4287 32.8066 86.5041C32.7822 86.5597 32.7276 86.5935 32.6704 86.5935Z" fill="black"/>
<path d="M29.492 79.8949C33.8498 79.8949 37.3825 76.3622 37.3825 72.0044C37.3825 67.6466 33.8498 64.1139 29.492 64.1139C25.1343 64.1139 21.6016 67.6466 21.6016 72.0044C21.6016 76.3622 25.1343 79.8949 29.492 79.8949Z" fill="#B2FFCE"/>
<path d="M22.6897 74.8161C22.6897 74.8161 30.8594 70.7674 29.1632 64.5274C29.1445 64.4593 29.1252 64.3911 29.1044 64.323C29.1044 64.323 26.649 61.1037 22.4448 64.2357C18.2406 67.3676 18.525 74.4708 22.6897 74.8161Z" fill="black"/>
<path d="M29.8789 68.2152C32.5713 68.2152 34.7539 66.0326 34.7539 63.3402C34.7539 60.6478 32.5713 58.4652 29.8789 58.4652C27.1865 58.4652 25.0039 60.6478 25.0039 63.3402C25.0039 66.0326 27.1865 68.2152 29.8789 68.2152Z" fill="black"/>
<path d="M34.0843 70.6997C34.4545 70.6997 34.7546 70.3996 34.7546 70.0294C34.7546 69.6592 34.4545 69.3591 34.0843 69.3591C33.7142 69.3591 33.4141 69.6592 33.4141 70.0294C33.4141 70.3996 33.7142 70.6997 34.0843 70.6997Z" fill="black"/>
<path d="M30.7875 72.4303C31.1577 72.4303 31.4577 72.1302 31.4577 71.76C31.4577 71.3898 31.1577 71.0897 30.7875 71.0897C30.4173 71.0897 30.1172 71.3898 30.1172 71.76C30.1172 72.1302 30.4173 72.4303 30.7875 72.4303Z" fill="black"/>
<path d="M32.1346 76.6377C32.1086 76.6377 32.0826 76.6371 32.0566 76.6361C31.5407 76.6132 31.0358 76.3626 30.7061 75.9653C30.6536 75.9024 30.6625 75.8088 30.7259 75.7563C30.7883 75.7043 30.8824 75.7126 30.9344 75.7755C31.2116 76.1099 31.6359 76.3205 32.0696 76.3397C32.5064 76.3589 32.9447 76.1863 33.25 75.8779C33.3077 75.8197 33.4018 75.8192 33.4595 75.8769C33.5178 75.9346 33.5183 76.0282 33.4606 76.0865C33.1158 76.4349 32.6249 76.6377 32.1346 76.6377Z" fill="black"/>
<path d="M23.9881 65.9261C25.7678 65.9261 27.2105 64.4833 27.2105 62.7036C27.2105 60.9239 25.7678 59.4812 23.9881 59.4812C22.2084 59.4812 20.7656 60.9239 20.7656 62.7036C20.7656 64.4833 22.2084 65.9261 23.9881 65.9261Z" fill="black"/>
<path d="M23.4335 76.9803C22.1184 77.5237 20.6104 76.8997 20.067 75.5825C19.5236 74.2674 20.1497 72.761 21.4642 72.216C22.7793 71.6726 24.2873 72.2987 24.8307 73.6138C25.3751 74.9309 24.7485 76.4369 23.4335 76.9803Z" fill="#B2FFCE"/>
<path d="M22.7489 75.8228C22.675 75.8228 22.6111 75.7677 22.6017 75.6928C22.5918 75.6117 22.6495 75.5373 22.7307 75.5275C22.9236 75.5035 23.0957 75.3252 23.1404 75.1026C23.1815 74.8983 23.1269 74.6601 22.9865 74.4318C22.8534 74.215 22.661 74.0283 22.4748 73.8484C22.4161 73.7912 22.4145 73.6976 22.4712 73.6388C22.5284 73.5801 22.622 73.5785 22.6807 73.6357C22.8804 73.8291 23.0863 74.0288 23.2392 74.2769C23.4186 74.5686 23.4867 74.8827 23.4311 75.1614C23.3609 75.5108 23.0879 75.7823 22.7671 75.8218C22.7608 75.8223 22.7551 75.8228 22.7489 75.8228Z" fill="black"/>
<path d="M106.661 60.8983L107.405 62.4073C107.519 62.6377 107.739 62.7973 107.993 62.8342L109.658 63.076C110.298 63.1691 110.554 63.9559 110.09 64.4077L108.886 65.5824C108.702 65.7618 108.618 66.0203 108.661 66.2735L108.945 67.9318C109.055 68.5693 108.385 69.056 107.813 68.7549L106.324 67.9718C106.096 67.8522 105.824 67.8522 105.597 67.9718L104.108 68.7549C103.535 69.056 102.866 68.5698 102.975 67.9318L103.26 66.2735C103.303 66.0203 103.219 65.7618 103.035 65.5824L101.83 64.4077C101.367 63.9559 101.623 63.1691 102.263 63.076L103.928 62.8342C104.182 62.7973 104.402 62.6377 104.516 62.4073L105.26 60.8983C105.547 60.3179 106.374 60.3179 106.661 60.8983Z" fill="#389F5D"/>
<path d="M96.059 60.8983L96.8037 62.4073C96.9175 62.6377 97.137 62.7973 97.3913 62.8342L99.0563 63.076C99.6964 63.1691 99.9523 63.9559 99.4889 64.4077L98.2841 65.5824C98.1 65.7618 98.0163 66.0203 98.0595 66.2735L98.3439 67.9318C98.4531 68.5693 97.7839 69.056 97.2113 68.7549L95.7221 67.9718C95.4948 67.8522 95.2229 67.8522 94.9956 67.9718L93.5063 68.7549C92.9338 69.056 92.2641 68.5698 92.3738 67.9318L92.6582 66.2735C92.7019 66.0203 92.6177 65.7618 92.4336 65.5824L91.2287 64.4077C90.7654 63.9559 91.0213 63.1691 91.6614 63.076L93.3264 62.8342C93.5807 62.7973 93.8007 62.6377 93.914 62.4073L94.6587 60.8983C94.9452 60.3179 95.7725 60.3179 96.059 60.8983Z" fill="#389F5D"/>
<path d="M85.4575 60.8983L86.2021 62.4073C86.316 62.6377 86.5354 62.7973 86.7897 62.8342L88.4547 63.076C89.0949 63.1691 89.3507 63.9559 88.8874 64.4077L87.6825 65.5824C87.4985 65.7618 87.4147 66.0203 87.4579 66.2735L87.7423 67.9318C87.8515 68.5693 87.1823 69.056 86.6098 68.7549L85.1205 67.9718C84.8933 67.8522 84.6213 67.8522 84.3941 67.9718L82.9048 68.7549C82.3323 69.056 81.6625 68.5698 81.7722 67.9318L82.0567 66.2735C82.1003 66.0203 82.0161 65.7618 81.832 65.5824L80.6272 64.4077C80.1639 63.9559 80.4197 63.1691 81.0598 63.076L82.7249 62.8342C82.9791 62.7973 83.1991 62.6377 83.3125 62.4073L84.0571 60.8983C84.3436 60.3179 85.1709 60.3179 85.4575 60.8983Z" fill="#389F5D"/>
<path d="M74.8559 60.8983L75.6005 62.4073C75.7144 62.6377 75.9339 62.7973 76.1881 62.8342L77.8532 63.076C78.4933 63.1691 78.7491 63.9559 78.2858 64.4077L77.081 65.5824C76.8969 65.7618 76.8132 66.0203 76.8563 66.2735L77.1408 67.9318C77.25 68.5693 76.5807 69.056 76.0082 68.7549L74.5189 67.9718C74.2917 67.8522 74.0197 67.8522 73.7925 67.9718L72.3032 68.7549C71.7307 69.056 71.0609 68.5698 71.1707 67.9318L71.4551 66.2735C71.4988 66.0203 71.4145 65.7618 71.2305 65.5824L70.0256 64.4077C69.5623 63.9559 69.8181 63.1691 70.4583 63.076L72.1233 62.8342C72.3776 62.7973 72.5975 62.6377 72.7109 62.4073L73.4555 60.8983C73.7426 60.3179 74.5699 60.3179 74.8559 60.8983Z" fill="#389F5D"/>
<path d="M84.9334 44.2307H72.6172V48.9762H84.9334V44.2307Z" fill="#DEFCE9"/>
<path d="M84.9331 49.1244H72.6169C72.5353 49.1244 72.4688 49.0579 72.4688 48.9762V44.2307C72.4688 44.1491 72.5353 44.0825 72.6169 44.0825H84.9331C85.0148 44.0825 85.0814 44.1491 85.0814 44.2307V48.9762C85.0814 49.0579 85.0148 49.1244 84.9331 49.1244ZM72.7651 48.828H84.7844V44.3789H72.7651V48.828Z" fill="black"/>
<path d="M108.528 51.3323H72.6172V51.6287H108.528V51.3323Z" fill="black"/>
<path d="M108.527 53.8372H102.977V54.1336H108.527V53.8372Z" fill="black"/>
<path d="M97.8206 53.8372H72.6172V54.1336H97.8206V53.8372Z" fill="black"/>
<path d="M99.453 56.3414H84.9336V56.6378H99.453V56.3414Z" fill="black"/>
<path d="M82.155 56.3414H72.6172V56.6378H82.155V56.3414Z" fill="black"/>
<path d="M101.837 88.765C100.104 89.532 98.0734 89.1394 96.6081 87.3433L97.3688 86.1733L96.0907 86.6065C95.9898 86.4427 95.8931 86.2685 95.8005 86.087C94.3414 83.2363 94.8557 79.4429 97.2076 78.587C98.9756 77.936 101.125 79.0992 102.582 80.9109L101.475 81.8147L103.179 81.7517C103.397 82.0986 103.586 82.4631 103.746 82.8339C104.938 85.6278 103.932 87.8482 101.837 88.765Z" fill="#389F5D"/>
<path d="M100.112 89.2876C98.7751 89.2876 97.4792 88.647 96.4928 87.4375C96.4522 87.3875 96.4481 87.3168 96.4835 87.2627L97.0112 86.4515L96.1382 86.7474C96.0721 86.7698 96.0004 86.7438 95.964 86.6845C95.8641 86.5223 95.7643 86.3439 95.6681 86.1546C94.7498 84.3611 94.5756 82.134 95.225 80.4814C95.6239 79.4659 96.2916 78.7628 97.1568 78.4482C99.0944 77.7348 101.336 79.1247 102.697 80.8184C102.748 80.8818 102.739 80.9749 102.676 81.0264L101.911 81.6509L103.174 81.6041C103.227 81.602 103.277 81.6285 103.305 81.6733C103.523 82.0206 103.717 82.3914 103.881 82.7757C105.03 85.4661 104.251 87.8706 101.897 88.9013C101.31 89.1607 100.707 89.2876 100.112 89.2876ZM96.7918 87.3329C98.1261 88.9065 100.027 89.4041 101.777 88.6298H101.778C103.968 87.6709 104.687 85.4188 103.608 82.8927C103.461 82.5495 103.29 82.2172 103.098 81.9036L101.481 81.9634C101.413 81.9655 101.359 81.927 101.337 81.8677C101.314 81.8079 101.332 81.7409 101.382 81.7003L102.373 80.8907C101.071 79.3317 99.0148 78.0806 97.2593 78.7269C96.4762 79.0119 95.8688 79.6562 95.5017 80.5901C94.8824 82.1673 95.0514 84.2982 95.9333 86.0199C96.0066 86.164 96.0815 86.3007 96.1569 86.4281L97.3222 86.0335C97.382 86.0132 97.448 86.0329 97.487 86.0829C97.526 86.1328 97.5286 86.2019 97.4943 86.2545L96.7918 87.3329Z" fill="black"/>
<path d="M111.268 89.3204C111.16 89.4666 111.051 89.6038 110.939 89.7333L109.948 89.1468L110.383 90.3032C108.861 91.6615 107.105 91.687 105.791 90.7317C104.203 89.5877 103.741 87.4625 105.206 85.1776C105.401 84.8739 105.62 84.5822 105.859 84.3082L107.266 84.6352L106.498 83.6597C108.018 82.2869 110.003 81.5969 111.364 82.4549C113.178 83.5869 112.965 87.0267 111.268 89.3204Z" fill="#389F5D"/>
<path d="M107.764 91.5429C107.044 91.5429 106.336 91.3141 105.699 90.8513C103.908 89.5607 103.663 87.3018 105.077 85.097C105.275 84.7876 105.499 84.4891 105.743 84.2104C105.779 84.1693 105.834 84.1511 105.888 84.1636L106.884 84.395L106.378 83.7518C106.329 83.6904 106.336 83.602 106.395 83.55C107.823 82.2599 109.936 81.3826 111.439 82.3296C112.086 82.7336 112.521 83.4325 112.696 84.3503C112.997 85.9384 112.482 87.9237 111.384 89.4088C111.277 89.5529 111.164 89.6948 111.048 89.83C111.001 89.8846 110.922 89.8976 110.86 89.8612L110.232 89.4894L110.518 90.2518C110.54 90.309 110.524 90.374 110.478 90.4145C109.638 91.1628 108.692 91.5429 107.764 91.5429ZM105.908 84.473C105.696 84.7216 105.501 84.9852 105.327 85.2577C104.005 87.319 104.22 89.4203 105.874 90.6116C107.188 91.5668 108.839 91.4296 110.204 90.2596L109.805 89.1993C109.783 89.1405 109.801 89.074 109.849 89.0334C109.898 88.9928 109.966 88.9876 110.02 89.0194L110.903 89.542C110.986 89.4411 111.067 89.3376 111.145 89.2326C112.197 87.8109 112.691 85.916 112.403 84.4059C112.245 83.5718 111.856 82.9406 111.281 82.5812C109.944 81.7388 108.037 82.5142 106.697 83.6784L107.378 84.5437C107.417 84.5931 107.421 84.6618 107.387 84.7148C107.353 84.7678 107.29 84.7938 107.228 84.7798L105.908 84.473Z" fill="black"/>
<path d="M103.149 102.057L102.853 102.048C103.232 89.1644 98.5127 81.3889 98.4648 81.3119L98.717 81.1554C98.7654 81.2334 103.532 89.0781 103.149 102.057Z" fill="black"/>
<path d="M104.467 101.951L104.172 101.918C104.176 101.879 104.612 98.0226 105.757 93.9879C107.227 88.804 109.671 84.265 109.695 84.2197L109.956 84.3612C109.931 84.4064 107.503 88.9179 106.042 94.069C104.905 98.0788 104.471 101.912 104.467 101.951Z" fill="black"/>
<path d="M107.506 104.535C107.506 105.085 107.416 105.643 107.252 106.187C106.594 108.337 104.747 110.227 102.572 110.227C99.8452 110.227 97.6367 107.261 97.6367 104.535C97.6367 104.328 97.6492 104.128 97.6747 103.937C97.7002 103.738 97.7381 103.55 97.787 103.368H107.354C107.454 103.726 107.506 104.116 107.506 104.535Z" fill="white"/>
<path d="M107.504 104.535C107.504 105.085 107.413 105.643 107.249 106.187L97.6719 103.937L105.628 103.368H107.352C107.452 103.726 107.504 104.116 107.504 104.535Z" fill="#DEFCE9"/>
<path d="M100.262 97.031C99.0282 97.9529 97.3475 98.0107 95.8609 96.8531L96.2514 95.7882L95.317 96.3633C95.2072 96.2515 95.0991 96.1314 94.9925 96.004C93.3191 94.0098 93.0383 90.9106 94.7465 89.8056C96.0294 88.9689 97.9435 89.5003 99.427 90.6719L98.7141 91.5886L100.053 91.2293C100.289 91.4649 100.504 91.7192 100.698 91.9844C102.15 93.9822 101.756 95.9239 100.262 97.031Z" fill="#389F5D"/>
<path d="M98.229 97.8713C97.3928 97.8713 96.539 97.5697 95.7689 96.9702C95.7179 96.9306 95.6987 96.8625 95.721 96.8022L95.9644 96.1387L95.3945 96.4897C95.3352 96.5255 95.2593 96.5167 95.2109 96.4673C95.1012 96.356 94.9894 96.2323 94.8786 96.0992C93.8209 94.8387 93.2765 93.0967 93.4918 91.662C93.6249 90.777 94.031 90.0921 94.6659 89.6808C96.0829 88.7568 98.124 89.4541 99.5186 90.5554C99.5826 90.6059 99.5935 90.6984 99.5436 90.7629L99.1016 91.3313L100.014 91.0864C100.066 91.0728 100.12 91.0874 100.157 91.1248C100.394 91.3614 100.616 91.6214 100.817 91.897C102.225 93.834 102.042 95.8964 100.35 97.1501C99.7048 97.6321 98.9742 97.8713 98.229 97.8713ZM96.0372 96.8012C97.3658 97.786 98.9419 97.8318 100.173 96.9119C100.173 96.9119 100.173 96.9119 100.173 96.9114C101.722 95.7638 101.88 93.8642 100.577 92.0712C100.402 91.8315 100.211 91.6043 100.007 91.3947L98.7521 91.7317C98.6902 91.7483 98.6252 91.7234 98.5899 91.6703C98.5545 91.6173 98.5571 91.5476 98.5966 91.4972L99.218 90.6979C97.9123 89.7146 96.0829 89.1104 94.8271 89.9294C94.265 90.2928 93.9047 90.9069 93.7846 91.7057C93.5812 93.0603 94.0997 94.7097 95.1054 95.9083C95.1839 96.0024 95.2624 96.0914 95.3399 96.174L96.1724 95.6613C96.2259 95.628 96.2946 95.6327 96.344 95.6728C96.3929 95.7128 96.4111 95.7794 96.3892 95.8386L96.0372 96.8012Z" fill="black"/>
<path d="M104.612 99.036C105.688 99.8394 107.152 99.8899 108.448 98.8811L108.108 97.9529L108.922 98.4542C109.018 98.3569 109.112 98.2519 109.205 98.1411C110.663 96.4033 110.908 93.7029 109.419 92.7399C108.301 92.0108 106.633 92.4742 105.34 93.4949L105.962 94.2936L104.796 93.9806C104.591 94.1855 104.402 94.4075 104.233 94.6384C102.968 96.3794 103.311 98.0714 104.612 99.036Z" fill="#389F5D"/>
<path d="M106.384 99.7875C105.731 99.7875 105.09 99.5774 104.524 99.1547C103.041 98.0554 102.88 96.2484 104.114 94.5511C104.29 94.3098 104.484 94.0826 104.691 93.8756C104.728 93.8382 104.782 93.8236 104.834 93.8372L105.574 94.0358L105.224 93.5855C105.174 93.521 105.185 93.4284 105.249 93.378C106.47 92.4144 108.258 91.8045 109.5 92.6152C110.058 92.976 110.415 93.5772 110.531 94.354C110.72 95.6093 110.244 97.1334 109.319 98.2364C109.222 98.3523 109.124 98.4605 109.029 98.5577C108.98 98.6071 108.904 98.616 108.845 98.5801L108.395 98.3029L108.588 98.8297C108.61 98.89 108.59 98.9581 108.54 98.9976C107.865 99.5234 107.117 99.7875 106.384 99.7875ZM104.841 94.1466C104.667 94.326 104.503 94.5204 104.353 94.7264C103.225 96.2791 103.362 97.9244 104.702 98.917C104.702 98.917 104.702 98.917 104.702 98.9176C105.764 99.7111 107.123 99.6747 108.272 98.8297L107.969 98.0044C107.947 97.9452 107.965 97.8786 108.014 97.8386C108.064 97.7985 108.132 97.7938 108.186 97.8271L108.898 98.2655C108.962 98.1968 109.027 98.1235 109.091 98.0466C109.965 97.0055 110.414 95.574 110.238 94.3988C110.134 93.7087 109.823 93.1778 109.339 92.8648C108.256 92.1586 106.68 92.676 105.549 93.522L106.079 94.2032C106.118 94.2537 106.121 94.3234 106.086 94.3764C106.051 94.4294 105.986 94.4544 105.924 94.4378L104.841 94.1466Z" fill="black"/>
<path d="M101.162 101.948C100.494 95.0035 95.8325 91.5497 95.7852 91.5159L95.9594 91.2756C96.0072 91.3105 100.776 94.8439 101.457 101.92L101.162 101.948Z" fill="black"/>
<path d="M105.005 101.954C104.557 98.7283 107.147 95.0966 107.257 94.9437L107.498 95.1174C107.471 95.1538 104.868 98.8063 105.299 101.914L105.005 101.954Z" fill="black"/>
<path d="M102.572 110.375C99.7087 110.375 97.4883 107.236 97.4883 104.536C97.4883 104.114 97.5408 103.708 97.6448 103.329C97.6625 103.264 97.7212 103.219 97.7878 103.219H107.355C107.422 103.219 107.481 103.264 107.498 103.329C107.602 103.707 107.655 104.113 107.655 104.536C107.655 107.236 105.434 110.375 102.572 110.375ZM97.9027 103.516C97.8242 103.838 97.7847 104.181 97.7847 104.536C97.7847 107.099 99.8756 110.079 102.572 110.079C105.267 110.079 107.359 107.099 107.359 104.536C107.359 104.18 107.319 103.838 107.241 103.516H97.9027Z" fill="black"/>
<path d="M108.34 103.937H96.8061C96.7494 103.937 96.7031 103.891 96.7031 103.834V101.868C96.7031 101.811 96.7494 101.765 96.8061 101.765H108.34C108.396 101.765 108.443 101.811 108.443 101.868V103.834C108.442 103.891 108.396 103.937 108.34 103.937Z" fill="white"/>
<path d="M108.047 104.086H97.0905C96.7931 104.086 96.5508 103.844 96.5508 103.546V102.157C96.5508 101.859 96.7931 101.617 97.0905 101.617H108.047C108.345 101.617 108.587 101.859 108.587 102.157V103.546C108.587 103.843 108.345 104.086 108.047 104.086ZM97.0905 101.914C96.9564 101.914 96.8472 102.023 96.8472 102.157V103.546C96.8472 103.68 96.9564 103.789 97.0905 103.789H108.047C108.182 103.789 108.29 103.68 108.29 103.546V102.157C108.29 102.022 108.182 101.914 108.047 101.914H97.0905Z" fill="black"/>
<path d="M82.7566 33.7552C86.6587 33.7552 89.8219 30.592 89.8219 26.69C89.8219 22.788 86.6587 19.6248 82.7566 19.6248C78.8546 19.6248 75.6914 22.788 75.6914 26.69C75.6914 30.592 78.8546 33.7552 82.7566 33.7552Z" fill="#4BF187"/>
<path d="M85.6086 29.5458L81.6529 29.5209C81.407 29.5183 81.198 29.3404 81.1564 29.0981L81.1636 25.4997C81.109 25.1799 81.3649 24.8924 81.6878 24.908L81.8313 24.9147L82.0388 22.9964C82.095 22.4718 82.6555 22.1629 83.1297 22.3943C83.3674 22.5097 83.5582 22.6912 83.6867 22.9086C83.8161 23.1264 83.8817 23.3818 83.8692 23.6454L83.7964 25.1763L85.9752 25.2881C86.5409 25.3182 86.9866 25.7816 86.9934 26.3484L87.0126 28.1377C87.0209 28.9172 86.3881 29.5516 85.6086 29.5458Z" fill="white"/>
<path d="M80.4158 29.616H79.0586C78.9655 29.616 78.8906 29.5406 78.8906 29.448V25.0207C78.8906 24.9277 78.966 24.8528 79.0586 24.8528H80.4158C80.5089 24.8528 80.5837 24.9282 80.5837 25.0207V29.448C80.5843 29.5406 80.5089 29.616 80.4158 29.616Z" fill="white"/>
<path d="M23.5 42.3664V46.6221C23.5 49.2596 25.6382 51.3978 28.2757 51.3978H31.6598C31.9796 51.3978 32.2906 51.508 32.5324 51.7166C33.0872 52.1939 33.6488 52.9531 34.082 53.612C34.4361 54.1502 35.2406 54.0966 35.5193 53.5152C35.9966 52.5189 36.5853 51.3505 36.7304 51.3245C38.969 50.9288 40.6704 48.973 40.6704 46.6216V42.3659C40.6704 39.7295 38.5332 37.5918 35.8963 37.5918H28.2741C25.6377 37.5928 23.5 39.73 23.5 42.3664Z" fill="white"/>
<path d="M34.7713 54.1336C34.4421 54.1336 34.1421 53.9724 33.9585 53.6931C33.4089 52.8575 32.8826 52.2127 32.436 51.8284C32.2243 51.6459 31.9487 51.5455 31.6601 51.5455H28.276C26.9609 51.5455 25.7243 51.0333 24.794 50.103C23.8638 49.1728 23.3516 47.9367 23.3516 46.6211V42.3654C23.3516 39.6516 25.5595 37.4431 28.2734 37.4431H35.896C38.6099 37.4431 40.8178 39.651 40.8178 42.3654V46.6206C40.8178 49.0053 39.1221 51.0385 36.7811 51.4649C36.7171 51.5278 36.4753 51.8596 35.6522 53.5782C35.4982 53.8996 35.194 54.106 34.8389 54.1299C34.8165 54.133 34.7936 54.1336 34.7713 54.1336ZM28.2739 37.7411C25.7233 37.7411 23.6485 39.8159 23.6485 42.3665V46.6222C23.6485 47.8582 24.13 49.0204 25.0036 49.8945C25.8777 50.7686 27.0394 51.2496 28.2754 51.2496H31.6596C32.0189 51.2496 32.3637 51.3755 32.6289 51.6043C33.1026 52.012 33.633 52.6599 34.206 53.5309C34.3428 53.7389 34.5706 53.8528 34.8196 53.8361C35.0666 53.8195 35.2783 53.676 35.3854 53.4518C36.4524 51.2236 36.5923 51.1992 36.7046 51.1794C38.9167 50.7884 40.522 48.8722 40.522 46.6227V42.3675C40.522 39.8169 38.4472 37.7421 35.8966 37.7421H28.2739V37.7411Z" fill="black"/>
<path d="M27.875 43.4232C27.875 47.463 32.6486 48.8566 32.6486 48.8566C32.6486 48.8566 37.4222 47.463 37.4222 43.4232C37.4222 41.8975 36.1851 40.6604 34.6594 40.6604C33.868 40.6604 33.152 40.9937 32.6486 41.5298C32.1452 40.9942 31.4297 40.6604 30.6378 40.6604C29.1121 40.6604 27.875 41.8975 27.875 43.4232Z" fill="#389F5D"/>
</svg>
