<svg width="620" height="492" viewBox="0 0 620 492" fill="none" xmlns="http://www.w3.org/2000/svg">
<g clip-path="url(#clip0_6027_7208)">
<path d="M600.715 422.274C596.11 438.105 590.39 454.427 581.992 468.816C581.152 470.286 580.269 471.728 579.371 473.141H30.2068C13.2943 460.237 1.47868 440.283 5.95296 419.506C10.4997 397.894 30.0475 381.789 44.8025 363.377C49.3058 357.783 53.7076 351.497 56.7339 345.037C68.1296 320.988 63.2933 292.815 54.8226 267.512C52.7954 261.427 50.58 255.357 48.3356 249.287C41.3273 230.241 34.2177 211.18 32.8566 191.168C29.2656 138.629 71.489 86.6522 126.57 75.8387C159.121 69.4515 192.715 76.0982 225.396 81.75C258.077 87.4019 292.568 91.958 323.96 81.7212C339.932 76.5163 354.412 66.4958 364.258 53.6205C368.949 47.464 372.685 40.601 374.712 33.2767C376.32 27.4951 373.655 16.1625 376.189 11.6353C382.922 -0.418182 412.954 -0.648869 424.813 0.389227C441.971 1.90312 458.739 7.45405 473.914 14.9226C559.852 57.2106 612.443 147.785 621.044 242.006C627.14 303.052 617.569 363.867 600.715 422.274Z" fill="white"/>
<path d="M63.8306 492H564.994C569.15 487.502 572.857 482.614 576.158 477.38C577.027 475.967 577.91 474.525 578.736 473.055H30.5703C40.1994 481.965 51.2186 487.689 63.8306 492Z" fill="#C5F3CC"/>
<path d="M272.886 37.732C266.095 30.1913 255.467 26.1976 245.36 27.5096C237.005 28.6054 229.186 33.0173 220.773 32.8731C213.78 32.7577 207.206 29.456 201.457 25.4767C195.709 21.4973 190.481 16.7682 184.501 13.1493C178.521 9.53034 171.455 7.03602 164.562 8.18946C159.002 9.11222 154.035 12.3419 150.068 16.3501C146.361 20.0987 138.484 30.1193 139.642 37.732H272.886Z" fill="#C5F3CC"/>
<path d="M222.612 111.61C217.819 106.29 210.333 103.478 203.209 104.401C197.315 105.165 191.813 108.279 185.876 108.178C180.939 108.092 176.305 105.771 172.251 102.973C168.196 100.162 164.518 96.8314 160.305 94.2794C150.936 88.6131 142.929 89.5503 136.022 96.5286C133.401 99.1671 127.855 106.246 128.666 111.61H222.612Z" fill="#C5F3CC"/>
<path d="M414.732 29.11C414.124 23.3428 417.918 14.4469 421.958 13.4953C425.998 12.5437 430.052 14.7785 433.73 17.3305C437.408 19.8969 441.057 22.8814 445.126 23.6312C454.48 25.3613 462.979 14.9515 472.406 14.4036C483.106 13.7837 493.242 25.9669 503.653 22.4345C508.33 20.8485 512.631 16.1482 517.409 16.8979C522.217 17.6477 525.677 23.6023 528.588 29.0956H414.732V29.11Z" fill="#C5F3CC"/>
<path d="M558.105 81.9807V440.009C558.105 451.337 548.876 460.53 537.494 460.53H346.127C334.745 460.53 325.516 451.337 325.516 440.009V81.9807C325.516 70.6523 334.745 61.4592 346.127 61.4592H537.494C548.876 61.4592 558.105 70.6523 558.105 81.9807Z" fill="#EBFFEE" stroke="#B5E5BC"/>
<path d="M480.8 60.9592V76.8911C480.8 79.7891 478.44 82.1393 475.529 82.1393H408.068C405.157 82.1393 402.797 79.7891 402.797 76.8911V60.9592H480.8Z" fill="url(#paint0_linear_6027_7208)"/>
<path d="M325 415.368V440.009C325 451.615 334.455 461.03 346.112 461.03H537.492C549.149 461.03 558.604 451.615 558.604 440.009V415.368H325Z" fill="#15AB49"/>
<path d="M467.072 71.5566C467.072 73.1138 465.812 74.3681 464.248 74.3681H435.433C433.869 74.3681 432.609 73.1138 432.609 71.5566C432.609 69.9995 433.869 68.7451 435.433 68.7451H464.248C465.812 68.7451 467.072 69.9995 467.072 71.5566Z" fill="white"/>
<path d="M423.966 71.5566C423.966 73.1138 422.706 74.3681 421.143 74.3681H419.347C417.783 74.3681 416.523 73.1138 416.523 71.5566C416.523 69.9995 417.783 68.7451 419.347 68.7451H421.143C422.706 68.7451 423.966 69.9995 423.966 71.5566Z" fill="white"/>
<path d="M544.543 82.6728C544.543 87.0559 540.966 90.6027 536.564 90.6027C532.162 90.6027 528.586 87.0415 528.586 82.6728C528.586 78.2898 532.162 74.7285 536.564 74.7285C540.966 74.7285 544.543 78.2754 544.543 82.6728Z" fill="#EBF4FE"/>
<path d="M538.997 85.9312C538.779 85.9312 538.562 85.8447 538.403 85.6861L533.523 80.8272C533.19 80.4956 533.19 79.9766 533.523 79.645C533.856 79.3133 534.378 79.3133 534.711 79.645L539.59 84.5038C539.923 84.8354 539.923 85.3545 539.59 85.6861C539.431 85.8447 539.214 85.9312 538.997 85.9312Z" fill="url(#paint1_linear_6027_7208)"/>
<path d="M534.117 85.9312C533.9 85.9312 533.682 85.8447 533.523 85.6861C533.19 85.3545 533.19 84.8354 533.523 84.5038L538.403 79.645C538.736 79.3133 539.257 79.3133 539.59 79.645C539.923 79.9766 539.923 80.4956 539.59 80.8272L534.711 85.6861C534.551 85.8447 534.334 85.9312 534.117 85.9312Z" fill="url(#paint2_linear_6027_7208)"/>
<path d="M362.37 77.6121H341.765C341.331 77.6121 340.969 77.2517 340.969 76.8191C340.969 76.3866 341.316 76.0261 341.765 76.0261H362.37C362.804 76.0261 363.166 76.3722 363.166 76.8191C363.166 77.2661 362.819 77.6121 362.37 77.6121Z" fill="#EBF4FE"/>
<path d="M362.37 83.7398H341.765C341.331 83.7398 340.969 83.3793 340.969 82.9468C340.969 82.5143 341.316 82.1538 341.765 82.1538H362.37C362.804 82.1538 363.166 82.5143 363.166 82.9468C363.166 83.3793 362.819 83.7398 362.37 83.7398Z" fill="#EBF4FE"/>
<path d="M362.37 89.8531H341.765C341.331 89.8531 340.969 89.507 340.969 89.0601C340.969 88.6275 341.316 88.2671 341.765 88.2671H362.37C362.804 88.2671 363.166 88.6275 363.166 89.0601C363.166 89.4926 362.819 89.8531 362.37 89.8531Z" fill="#EBF4FE"/>
<path d="M459.268 437.586C459.268 441.782 455.851 445.17 451.652 445.17H431.945C427.731 445.17 424.328 441.768 424.328 437.586C424.328 433.391 427.745 430.002 431.945 430.002H451.652C455.851 430.002 459.268 433.405 459.268 437.586Z" fill="white"/>
<path d="M510.778 301.394L505.783 305.33C505.015 305.935 503.9 305.316 504.016 304.35L505.044 295.41C505.16 294.444 506.391 294.084 506.999 294.862L510.967 299.851C511.343 300.327 511.256 301.019 510.778 301.394Z" fill="#F45170"/>
<path d="M386.292 300.731L390.491 306.008C390.766 306.339 390.708 306.829 390.361 307.103L388.001 308.963C387.668 309.237 387.175 309.18 386.9 308.834L382.701 303.557C382.426 303.225 382.484 302.735 382.831 302.461L385.192 300.601C385.525 300.341 386.017 300.399 386.292 300.731Z" fill="url(#paint3_linear_6027_7208)"/>
<path d="M486.029 285.145C486.029 286.183 466.235 287.019 441.808 287.019C417.394 287.019 397.586 286.183 397.586 285.145C397.586 284.107 417.394 283.271 441.808 283.271C466.235 283.271 486.029 284.107 486.029 285.145Z" fill="#C5F3CC"/>
<path d="M441.894 277.114C441.489 277.114 441.17 276.797 441.17 276.393C441.17 275.989 441.489 275.672 441.894 275.672C444.283 275.672 446.687 275.571 449.062 275.369C449.467 275.326 449.815 275.629 449.844 276.033C449.873 276.436 449.583 276.782 449.192 276.811C446.788 277.013 444.327 277.114 441.894 277.114ZM432.193 276.581C429.789 276.307 427.356 275.932 424.982 275.456C424.591 275.384 424.33 274.995 424.417 274.605C424.489 274.216 424.866 273.957 425.271 274.043C427.602 274.504 429.992 274.879 432.352 275.153C432.743 275.196 433.032 275.557 432.989 275.946C432.946 276.379 432.526 276.638 432.193 276.581ZM457.967 274.85C457.88 274.461 458.141 274.086 458.532 274C460.863 273.524 463.209 272.947 465.482 272.27C465.873 272.169 466.264 272.371 466.38 272.76C466.495 273.135 466.278 273.538 465.887 273.654C463.556 274.346 461.181 274.923 458.807 275.413C458.43 275.499 458.054 275.24 457.967 274.85ZM415.555 273.005C413.253 272.255 410.951 271.405 408.721 270.467C408.359 270.309 408.185 269.891 408.33 269.516C408.489 269.155 408.909 268.982 409.285 269.126C411.472 270.049 413.745 270.9 416.004 271.635C416.381 271.751 416.598 272.169 416.467 272.544C416.352 272.918 415.946 273.12 415.555 273.005ZM474.112 270.006C473.953 269.646 474.126 269.213 474.488 269.054C476.675 268.132 478.847 267.094 480.961 265.969C481.308 265.767 481.757 265.911 481.946 266.272C482.134 266.618 482.003 267.065 481.641 267.252C479.498 268.391 477.283 269.444 475.053 270.395C474.677 270.539 474.257 270.352 474.112 270.006ZM399.989 266.156C397.875 264.96 395.79 263.662 393.806 262.292C393.473 262.062 393.386 261.615 393.618 261.283C393.85 260.951 394.299 260.865 394.632 261.096C396.601 262.437 398.643 263.72 400.713 264.888C401.061 265.089 401.177 265.522 400.988 265.868C400.786 266.228 400.337 266.358 399.989 266.156ZM488.939 262.018C488.708 261.687 488.795 261.24 489.128 261.009C491.082 259.668 493.008 258.212 494.847 256.698C495.151 256.439 495.615 256.496 495.861 256.799C496.121 257.102 496.078 257.563 495.759 257.808C493.891 259.351 491.937 260.822 489.938 262.191C489.634 262.422 489.171 262.35 488.939 262.018ZM386.118 256.367C384.293 254.781 382.512 253.094 380.818 251.364C380.543 251.075 380.543 250.614 380.832 250.34C381.122 250.066 381.571 250.066 381.861 250.354C383.526 252.07 385.278 253.728 387.059 255.271C387.363 255.53 387.392 255.992 387.131 256.294C386.885 256.597 386.422 256.626 386.118 256.367ZM501.884 251.248C501.595 250.974 501.58 250.513 501.87 250.224C503.521 248.509 505.128 246.706 506.619 244.875C506.865 244.573 507.329 244.515 507.633 244.774C507.937 245.02 507.995 245.481 507.734 245.784C506.214 247.658 504.592 249.489 502.898 251.234C502.637 251.508 502.174 251.522 501.884 251.248ZM374.476 244.025C372.999 242.107 371.594 240.117 370.291 238.07C370.074 237.738 370.175 237.292 370.508 237.075C370.841 236.859 371.29 236.96 371.507 237.292C372.796 239.296 374.172 241.256 375.62 243.145C375.866 243.462 375.808 243.909 375.489 244.154C375.171 244.4 374.722 244.342 374.476 244.025ZM365.527 229.621C364.47 227.458 363.486 225.209 362.617 222.96C362.472 222.585 362.66 222.167 363.037 222.023C363.413 221.879 363.833 222.066 363.978 222.441C364.832 224.661 365.802 226.853 366.83 228.987C367.004 229.347 366.859 229.78 366.497 229.953C366.135 230.126 365.701 229.967 365.527 229.621ZM359.663 213.718C359.069 211.397 358.562 209.003 358.157 206.61C358.085 206.221 358.36 205.846 358.751 205.788C359.142 205.731 359.518 205.99 359.59 206.379C359.981 208.729 360.474 211.08 361.067 213.372C361.169 213.761 360.937 214.151 360.546 214.252C360.126 214.338 359.75 214.093 359.663 213.718ZM357.838 197.671C357.447 197.671 357.129 197.368 357.114 196.979C356.984 194.384 356.984 191.99 357.056 189.712C357.071 189.308 357.361 189.049 357.809 189.02C358.215 189.034 358.519 189.366 358.504 189.77C358.418 192.048 358.432 194.412 358.562 196.921C358.577 197.325 358.273 197.656 357.882 197.671C357.867 197.671 357.853 197.671 357.838 197.671ZM358.562 180.888C358.171 180.831 357.896 180.456 357.954 180.066C358.316 177.673 358.78 175.265 359.344 172.93C359.431 172.54 359.822 172.324 360.213 172.396C360.604 172.497 360.836 172.886 360.749 173.261C360.199 175.554 359.735 177.918 359.373 180.268C359.33 180.658 358.982 180.946 358.562 180.888Z" fill="#4C5C75"/>
<path d="M523.852 178.062C523.432 175.712 522.91 173.377 522.288 171.099C522.186 170.709 522.418 170.32 522.794 170.219C523.2 170.118 523.576 170.349 523.678 170.724C524.3 173.045 524.836 175.424 525.271 177.817C525.343 178.207 525.082 178.581 524.691 178.654C524.344 178.726 523.938 178.481 523.852 178.062ZM519.29 162.058C518.407 159.853 517.422 157.661 516.351 155.542C516.177 155.181 516.322 154.749 516.669 154.576C517.017 154.388 517.466 154.547 517.64 154.893C518.726 157.055 519.739 159.29 520.622 161.525C520.767 161.9 520.594 162.318 520.217 162.462C519.855 162.606 519.435 162.419 519.29 162.058ZM511.573 147.28C510.269 145.305 508.865 143.344 507.388 141.47C507.142 141.152 507.2 140.705 507.504 140.46C507.822 140.215 508.271 140.273 508.517 140.576C510.023 142.479 511.457 144.468 512.774 146.487C512.992 146.819 512.905 147.266 512.572 147.482C512.253 147.713 511.804 147.626 511.573 147.28ZM501.06 134.333C499.38 132.646 497.614 131.002 495.804 129.474C495.5 129.214 495.456 128.767 495.717 128.465C495.978 128.162 496.441 128.133 496.731 128.378C498.57 129.95 500.38 131.608 502.088 133.323C502.363 133.612 502.363 134.059 502.088 134.347C501.799 134.621 501.335 134.621 501.06 134.333ZM387.538 129.474C387.335 129.474 387.132 129.387 386.988 129.214C386.727 128.911 386.77 128.45 387.074 128.205C388.928 126.633 390.868 125.148 392.852 123.75C393.185 123.519 393.634 123.591 393.866 123.923C394.097 124.24 394.025 124.701 393.692 124.932C391.751 126.302 389.84 127.772 388.016 129.301C387.871 129.416 387.697 129.474 387.538 129.474ZM488.578 123.851C488.434 123.851 488.303 123.807 488.173 123.735C486.189 122.409 484.133 121.155 482.048 120.016C481.701 119.828 481.57 119.381 481.758 119.035C481.947 118.689 482.396 118.559 482.743 118.747C484.857 119.915 486.957 121.183 488.969 122.539C489.302 122.755 489.389 123.202 489.172 123.534C489.042 123.735 488.81 123.851 488.578 123.851ZM401.438 119.972C401.178 119.972 400.932 119.843 400.801 119.597C400.613 119.251 400.743 118.804 401.091 118.617C403.22 117.449 405.435 116.368 407.636 115.402C408.012 115.243 408.432 115.402 408.592 115.777C408.751 116.137 408.592 116.57 408.215 116.728C406.043 117.68 403.886 118.747 401.786 119.886C401.67 119.943 401.554 119.972 401.438 119.972ZM473.693 115.935C473.606 115.935 473.505 115.921 473.418 115.878C472.752 115.604 472.086 115.344 471.42 115.085C469.841 114.493 468.249 113.946 466.67 113.455C466.294 113.34 466.077 112.936 466.193 112.547C466.308 112.158 466.714 111.941 467.105 112.071C468.712 112.576 470.334 113.124 471.941 113.729C472.622 113.989 473.302 114.248 473.983 114.537C474.359 114.695 474.533 115.113 474.374 115.474C474.258 115.777 473.983 115.935 473.693 115.935ZM416.961 113.412C416.657 113.412 416.367 113.21 416.266 112.907C416.15 112.518 416.367 112.114 416.744 111.999C419.061 111.293 421.45 110.673 423.81 110.168C424.201 110.082 424.592 110.327 424.664 110.716C424.751 111.105 424.505 111.495 424.114 111.567C421.797 112.071 419.451 112.677 417.178 113.383C417.106 113.412 417.033 113.412 416.961 113.412ZM457.534 111.163C457.49 111.163 457.447 111.163 457.403 111.148C455.072 110.716 452.683 110.37 450.294 110.125C449.888 110.082 449.613 109.736 449.642 109.332C449.685 108.928 450.033 108.654 450.438 108.683C452.857 108.928 455.289 109.274 457.664 109.721C458.055 109.793 458.315 110.168 458.243 110.557C458.171 110.918 457.867 111.163 457.534 111.163ZM433.497 110.11C433.135 110.11 432.816 109.836 432.773 109.462C432.73 109.058 433.019 108.712 433.425 108.669C435.828 108.438 438.29 108.294 440.708 108.265C440.708 108.265 440.708 108.265 440.722 108.265C441.113 108.265 441.446 108.582 441.446 108.971C441.446 109.375 441.128 109.692 440.737 109.707C438.348 109.736 435.944 109.865 433.569 110.096C433.54 110.11 433.526 110.11 433.497 110.11Z" fill="#4C5C75"/>
<path d="M405.737 332.912H356.491C353.971 332.912 351.93 334.945 351.93 337.453C351.93 339.962 353.971 341.995 356.491 341.995H405.751C408.271 341.995 410.313 339.962 410.313 337.453C410.298 334.945 408.256 332.912 405.737 332.912Z" fill="#C5F3CC"/>
<path d="M433.074 337.453C433.074 339.962 435.116 341.995 437.635 341.995H527.107C529.626 341.995 531.668 339.962 531.668 337.453C531.668 334.945 529.626 332.912 527.107 332.912H437.635C435.116 332.912 433.074 334.945 433.074 337.453Z" fill="#C5F3CC"/>
<path d="M463.454 353.602H356.491C353.971 353.602 351.93 355.635 351.93 358.143C351.93 360.652 353.971 362.685 356.491 362.685H463.454C465.973 362.685 468.015 360.652 468.015 358.143C468.015 355.635 465.973 353.602 463.454 353.602Z" fill="#C5F3CC"/>
<path d="M481.672 358.143C481.672 360.652 483.714 362.685 486.233 362.685H527.11C529.629 362.685 531.671 360.652 531.671 358.143C531.671 355.635 529.629 353.602 527.11 353.602H486.233C483.714 353.602 481.672 355.635 481.672 358.143Z" fill="#C5F3CC"/>
<path d="M366.265 374.291H356.491C353.971 374.291 351.93 376.324 351.93 378.833C351.93 381.342 353.971 383.375 356.491 383.375H366.265C368.784 383.375 370.826 381.342 370.826 378.833C370.826 376.324 368.784 374.291 366.265 374.291Z" fill="#C5F3CC"/>
<path d="M390.777 378.833C390.777 381.342 392.819 383.375 395.339 383.375H527.12C529.639 383.375 531.681 381.342 531.681 378.833C531.681 376.324 529.639 374.291 527.12 374.291H395.339C392.819 374.291 390.777 376.324 390.777 378.833Z" fill="#C5F3CC"/>
<path d="M343.025 236.571C343.025 236.787 342.851 236.974 342.62 236.974C340.94 236.974 339.565 238.344 339.565 240.016C339.565 240.233 339.391 240.42 339.159 240.42C338.942 240.42 338.754 240.247 338.754 240.016C338.754 239.209 338.435 238.445 337.856 237.868C337.277 237.291 336.509 236.974 335.698 236.974C335.481 236.974 335.293 236.801 335.293 236.571C335.293 236.354 335.467 236.167 335.698 236.167C337.393 236.167 338.754 234.797 338.754 233.125C338.754 232.908 338.927 232.721 339.159 232.721C339.376 232.721 339.565 232.894 339.565 233.125C339.565 234.826 340.955 236.167 342.62 236.167C342.837 236.167 343.025 236.354 343.025 236.571Z" fill="#C6AEFF"/>
<path d="M528.588 120.592C528.588 120.823 528.4 121.01 528.168 121.01C526.43 121.01 525.026 122.409 525.026 124.139C525.026 124.37 524.838 124.557 524.606 124.557C524.374 124.557 524.186 124.37 524.186 124.139C524.186 123.303 523.853 122.51 523.259 121.919C522.666 121.327 521.869 120.996 521.029 120.996C520.798 120.996 520.609 120.808 520.609 120.578C520.609 120.347 520.798 120.16 521.029 120.16C521.869 120.16 522.666 119.828 523.259 119.237C523.853 118.646 524.186 117.853 524.186 117.017C524.186 116.786 524.374 116.598 524.606 116.598C524.838 116.598 525.026 116.786 525.026 117.017C525.026 117.853 525.359 118.646 525.952 119.237C526.546 119.828 527.343 120.16 528.182 120.16C528.4 120.188 528.588 120.376 528.588 120.592Z" fill="#6EB954"/>
<path d="M378.897 99.3112V149.457C378.897 151.692 377.087 153.494 374.843 153.494H343.479L332.04 169.916C330.433 172.237 326.986 172.237 325.365 169.916L315.127 155.224C314.375 154.143 313.129 153.494 311.797 153.494H282.562C280.318 153.494 278.508 151.677 278.508 149.457V99.3112C278.508 97.0764 280.318 95.2742 282.562 95.2742H374.843C377.087 95.2742 378.897 97.0764 378.897 99.3112Z" fill="#8FB7FF"/>
<path d="M378.895 132.718V149.457C378.895 151.677 377.085 153.494 374.84 153.494H343.477L332.038 169.931C330.416 172.252 326.984 172.252 325.362 169.931L315.111 155.224C314.343 154.143 313.127 153.494 311.795 153.494H282.545C280.316 153.494 278.477 151.692 278.477 149.457V144.079C290.944 148.304 307.451 150.164 325.565 148.65C346.923 146.876 366.008 140.835 378.895 132.718Z" fill="#497BFE"/>
<path d="M309.884 112.85C309.536 113.225 309.348 113.672 309.348 114.176V121.428H299.284V114.176C299.284 113.657 299.096 113.21 298.734 112.835C298.01 112.1 296.765 112.1 296.055 112.85C295.693 113.21 295.52 113.672 295.52 114.176V132.271C295.52 132.79 295.708 133.237 296.07 133.597C296.779 134.304 297.996 134.304 298.734 133.597C299.111 133.237 299.299 132.79 299.299 132.271V125.019H309.362V132.271C309.362 132.79 309.551 133.237 309.913 133.597C310.275 133.958 310.723 134.131 311.245 134.131C311.751 134.131 312.215 133.943 312.577 133.597C312.953 133.237 313.142 132.775 313.142 132.271V114.176C313.142 113.657 312.953 113.21 312.577 112.835C311.824 112.114 310.593 112.114 309.884 112.85Z" fill="#497BFE"/>
<path d="M330.504 126.907C330.851 126.547 331.025 126.114 331.025 125.595C331.025 124.182 330.735 122.87 330.142 121.673C329.548 120.462 328.665 119.482 327.535 118.761C326.391 118.026 325.03 117.665 323.466 117.665C321.816 117.665 320.397 118.069 319.238 118.848C318.094 119.626 317.24 120.664 316.69 121.919C316.154 123.159 315.879 124.514 315.879 125.97C315.879 128.565 316.603 130.627 318.051 132.083C319.499 133.54 321.512 134.289 324.046 134.289C325.262 134.289 326.29 134.174 327.086 133.943C327.868 133.713 328.665 133.381 329.476 132.92C330.33 132.429 330.518 131.795 330.518 131.362C330.518 130.887 330.33 130.454 329.982 130.137C329.432 129.632 328.65 129.531 328.013 129.848C327.463 130.122 326.884 130.339 326.319 130.483C325.74 130.627 325.059 130.699 324.292 130.699C322.887 130.699 321.787 130.368 321.034 129.69C320.397 129.128 319.977 128.392 319.788 127.441H329.128C329.678 127.455 330.142 127.268 330.504 126.907ZM321.729 121.4C322.873 120.866 324.075 120.866 325.204 121.4C325.754 121.659 326.232 122.077 326.623 122.639C326.913 123.072 327.115 123.591 327.217 124.197H319.745C319.846 123.591 320.035 123.072 320.324 122.639C320.715 122.063 321.164 121.673 321.729 121.4Z" fill="#497BFE"/>
<path d="M333.993 111.913C333.645 112.273 333.457 112.734 333.457 113.239V132.271C333.457 132.79 333.645 133.237 333.993 133.597C334.355 133.958 334.804 134.131 335.325 134.131C335.832 134.131 336.295 133.943 336.657 133.597C337.034 133.237 337.222 132.79 337.222 132.271V113.239C337.222 112.706 337.034 112.244 336.672 111.884C335.977 111.192 334.717 111.163 333.993 111.913Z" fill="#497BFE"/>
<path d="M341.317 111.913C340.969 112.273 340.781 112.734 340.781 113.239V132.271C340.781 132.79 340.969 133.237 341.317 133.597C341.679 133.958 342.128 134.131 342.649 134.131C343.156 134.131 343.619 133.943 343.981 133.597C344.358 133.237 344.546 132.79 344.546 132.271V113.239C344.546 112.706 344.358 112.244 343.996 111.884C343.315 111.192 342.055 111.163 341.317 111.913Z" fill="#497BFE"/>
<path d="M362.371 121.645C361.691 120.376 360.735 119.381 359.504 118.689C358.288 117.997 356.869 117.651 355.291 117.651C353.683 117.651 352.264 117.997 351.048 118.689C349.817 119.381 348.862 120.376 348.196 121.659C347.544 122.913 347.211 124.37 347.211 125.97C347.211 127.585 347.544 129.027 348.196 130.281C348.862 131.55 349.817 132.545 351.048 133.251C352.264 133.943 353.698 134.289 355.291 134.289C356.869 134.289 358.288 133.943 359.504 133.251C360.735 132.559 361.691 131.564 362.371 130.295C363.037 129.041 363.371 127.585 363.371 125.984C363.371 124.355 363.037 122.913 362.371 121.645ZM357.347 130.267C356.015 130.944 354.48 130.93 353.191 130.267C352.554 129.949 352.018 129.43 351.613 128.724C351.193 128.003 350.976 127.08 350.976 125.941C350.976 124.831 351.193 123.908 351.613 123.202C352.033 122.495 352.554 121.976 353.191 121.674C353.843 121.356 354.552 121.183 355.291 121.183C356 121.183 356.71 121.342 357.361 121.674C357.998 121.991 358.534 122.495 358.954 123.202C359.389 123.923 359.591 124.831 359.591 125.941C359.591 127.066 359.374 128.003 358.954 128.709C358.534 129.416 357.998 129.935 357.347 130.267Z" fill="#497BFE"/>
<path d="M309.884 110.86C309.536 111.235 309.348 111.682 309.348 112.186V119.439H299.284V112.186C299.284 111.667 299.096 111.22 298.734 110.846C298.01 110.11 296.765 110.11 296.055 110.86C295.693 111.22 295.52 111.682 295.52 112.186V130.267C295.52 130.786 295.708 131.233 296.07 131.593C296.779 132.3 297.996 132.3 298.734 131.593C299.111 131.233 299.299 130.786 299.299 130.267V123.014H309.362V130.267C309.362 130.786 309.551 131.233 309.913 131.593C310.275 131.954 310.723 132.127 311.245 132.127C311.751 132.127 312.215 131.939 312.577 131.593C312.953 131.233 313.142 130.771 313.142 130.267V112.186C313.142 111.667 312.953 111.22 312.577 110.846C311.824 110.11 310.593 110.11 309.884 110.86Z" fill="white"/>
<path d="M330.504 124.903C330.851 124.543 331.025 124.11 331.025 123.591C331.025 122.178 330.735 120.866 330.142 119.669C329.548 118.458 328.665 117.478 327.535 116.757C326.391 116.022 325.03 115.661 323.466 115.661C321.816 115.661 320.397 116.065 319.238 116.843C318.094 117.622 317.24 118.66 316.69 119.914C316.154 121.154 315.879 122.51 315.879 123.966C315.879 126.561 316.603 128.623 318.051 130.079C319.499 131.535 321.512 132.285 324.046 132.285C325.262 132.285 326.29 132.17 327.086 131.939C327.868 131.708 328.665 131.377 329.476 130.915C330.33 130.425 330.518 129.791 330.518 129.358C330.518 128.882 330.33 128.45 329.982 128.133C329.432 127.628 328.65 127.527 328.013 127.844C327.463 128.118 326.884 128.335 326.319 128.479C325.74 128.623 325.059 128.695 324.292 128.695C322.887 128.695 321.787 128.363 321.034 127.686C320.397 127.123 319.977 126.388 319.788 125.437H329.128C329.678 125.451 330.142 125.264 330.504 124.903ZM321.729 119.41C322.873 118.876 324.075 118.876 325.204 119.41C325.754 119.669 326.232 120.087 326.623 120.65C326.913 121.082 327.115 121.601 327.217 122.207H319.745C319.846 121.601 320.035 121.082 320.324 120.65C320.715 120.073 321.164 119.669 321.729 119.41Z" fill="white"/>
<path d="M333.993 109.908C333.645 110.269 333.457 110.73 333.457 111.235V130.267C333.457 130.786 333.645 131.233 333.993 131.593C334.355 131.953 334.804 132.127 335.325 132.127C335.832 132.127 336.295 131.939 336.657 131.593C337.034 131.233 337.222 130.786 337.222 130.267V111.235C337.222 110.701 337.034 110.24 336.672 109.88C335.977 109.187 334.717 109.159 333.993 109.908Z" fill="white"/>
<path d="M341.317 109.908C340.969 110.269 340.781 110.73 340.781 111.235V130.267C340.781 130.786 340.969 131.233 341.317 131.593C341.679 131.953 342.128 132.127 342.649 132.127C343.156 132.127 343.619 131.939 343.981 131.593C344.358 131.233 344.546 130.786 344.546 130.267V111.235C344.546 110.701 344.358 110.24 343.996 109.88C343.315 109.187 342.055 109.159 341.317 109.908Z" fill="white"/>
<path d="M362.371 119.655C361.691 118.386 360.735 117.391 359.504 116.699C358.288 116.007 356.869 115.661 355.291 115.661C353.683 115.661 352.264 116.007 351.048 116.699C349.817 117.391 348.862 118.386 348.196 119.669C347.544 120.924 347.211 122.38 347.211 123.98C347.211 125.595 347.544 127.037 348.196 128.291C348.862 129.56 349.817 130.555 351.048 131.261C352.264 131.953 353.698 132.3 355.291 132.3C356.869 132.3 358.288 131.953 359.504 131.261C360.735 130.569 361.691 129.575 362.371 128.306C363.037 127.051 363.371 125.595 363.371 123.995C363.371 122.366 363.037 120.909 362.371 119.655ZM357.347 128.262C356.015 128.94 354.48 128.926 353.191 128.262C352.554 127.945 352.018 127.426 351.613 126.72C351.193 125.999 350.976 125.076 350.976 123.937C350.976 122.827 351.193 121.904 351.613 121.198C352.033 120.491 352.554 119.972 353.191 119.669C353.843 119.352 354.552 119.179 355.291 119.179C356 119.179 356.71 119.338 357.361 119.669C357.998 119.987 358.534 120.491 358.954 121.198C359.389 121.904 359.591 122.827 359.591 123.937C359.591 125.062 359.374 125.999 358.954 126.705C358.534 127.412 357.998 127.945 357.347 128.262Z" fill="white"/>
<path d="M619.998 210.907V261.052C619.998 263.287 618.174 265.089 615.944 265.089H584.581L573.142 281.511C571.534 283.833 568.088 283.833 566.466 281.511L556.229 266.82C555.476 265.738 554.231 265.089 552.899 265.089H523.664C521.419 265.089 519.609 263.273 519.609 261.052V210.907C519.609 208.672 521.434 206.869 523.664 206.869H615.944C618.188 206.855 619.998 208.672 619.998 210.907Z" fill="#FCC845"/>
<path d="M540.817 234.321C541.136 234.076 541.425 233.773 541.672 233.427C542.135 232.793 542.367 232 542.367 231.063C542.367 229.722 541.874 228.626 540.919 227.833C539.992 227.055 538.674 226.651 537.009 226.651H531.869C531.029 226.651 530.406 227.329 530.406 228.122V241.285C530.406 241.689 530.551 242.049 530.826 242.323C531.101 242.597 531.463 242.741 531.869 242.741H537.139C539.181 242.741 540.701 242.323 541.701 241.501C542.714 240.665 543.221 239.483 543.221 238.012C543.221 236.974 542.902 236.08 542.251 235.388C541.845 234.956 541.368 234.595 540.817 234.321ZM538.891 232.663C538.457 233.024 537.632 233.197 536.473 233.197H533.346V229.448H536.85C537.719 229.448 538.385 229.621 538.862 229.953C539.297 230.27 539.5 230.674 539.5 231.193C539.5 231.841 539.297 232.317 538.891 232.663ZM533.346 235.95H536.951C539.977 235.95 540.325 237.09 540.325 237.94C540.325 238.575 540.108 239.05 539.644 239.396C539.297 239.656 538.544 239.959 536.937 239.959H533.346V235.95Z" fill="#F8A71C"/>
<path d="M553.53 231.293C552.617 230.774 551.56 230.515 550.373 230.515C549.171 230.515 548.1 230.774 547.202 231.293C546.275 231.812 545.566 232.562 545.059 233.514C544.566 234.451 544.32 235.532 544.32 236.743C544.32 237.94 544.566 239.036 545.059 239.973C545.551 240.925 546.275 241.674 547.202 242.193C548.114 242.713 549.186 242.972 550.373 242.972C551.56 242.972 552.617 242.713 553.53 242.193C554.442 241.674 555.166 240.925 555.673 239.973C556.179 239.036 556.426 237.94 556.426 236.743C556.426 235.547 556.165 234.451 555.673 233.514C555.166 232.562 554.442 231.812 553.53 231.293ZM553.472 236.715C553.472 237.536 553.312 238.214 553.008 238.719C552.704 239.238 552.328 239.598 551.85 239.843C550.88 240.334 549.779 240.319 548.838 239.843C548.375 239.598 547.998 239.238 547.694 238.719C547.39 238.214 547.245 237.522 547.245 236.7C547.245 235.893 547.405 235.23 547.694 234.711C547.998 234.206 548.375 233.831 548.824 233.615C549.301 233.384 549.808 233.269 550.344 233.269C550.865 233.269 551.358 233.384 551.835 233.615C552.284 233.831 552.675 234.206 552.979 234.725C553.327 235.244 553.472 235.922 553.472 236.715Z" fill="#F8A71C"/>
<path d="M569.126 235.244C569.126 234.393 568.952 233.6 568.605 232.894C568.257 232.159 567.736 231.582 567.084 231.149C566.418 230.731 565.636 230.515 564.739 230.515C563.783 230.515 562.943 230.717 562.234 231.12C561.857 231.322 561.495 231.582 561.148 231.87C561.104 231.567 560.959 231.279 560.728 231.048C560.148 230.472 559.178 230.486 558.643 231.048C558.367 231.337 558.223 231.683 558.223 232.086V241.386C558.223 241.79 558.367 242.15 558.643 242.424C559.193 242.972 560.148 242.972 560.728 242.424C561.017 242.15 561.177 241.79 561.177 241.386V235.057C561.625 234.523 562.089 234.091 562.581 233.773C563.073 233.456 563.638 233.283 564.261 233.283C565.578 233.283 566.172 233.946 566.172 235.446V241.386C566.172 241.79 566.317 242.15 566.592 242.424C566.882 242.698 567.229 242.842 567.635 242.842C568.04 242.842 568.388 242.698 568.677 242.424C568.967 242.15 569.126 241.79 569.126 241.386V235.244Z" fill="#F8A71C"/>
<path d="M573.153 226.175H573.022C572.588 226.175 572.212 226.334 571.893 226.636C571.589 226.939 571.43 227.329 571.43 227.848C571.43 228.28 571.589 228.669 571.893 228.972C572.197 229.275 572.588 229.434 573.022 229.434H573.153C573.587 229.434 573.978 229.275 574.282 228.972C574.586 228.669 574.746 228.28 574.746 227.761C574.746 227.328 574.586 226.939 574.282 226.636C573.964 226.334 573.573 226.175 573.153 226.175Z" fill="#F8A71C"/>
<path d="M572.022 231.077C571.747 231.351 571.602 231.712 571.602 232.115V244.457C571.602 245.005 571.472 245.106 571.472 245.106C571.399 245.164 571.211 245.25 570.762 245.25C570.704 245.25 570.617 245.236 570.516 245.221C570.357 245.192 570.226 245.178 570.111 245.178C569.749 245.178 569.43 245.308 569.169 245.582C568.923 245.841 568.793 246.144 568.793 246.49C568.793 246.778 568.88 247.052 569.039 247.269C569.198 247.485 569.416 247.643 569.691 247.73C570.125 247.874 570.646 247.946 571.211 247.946C572.341 247.946 573.195 247.615 573.745 246.966C574.281 246.346 574.541 245.51 574.541 244.5V232.115C574.541 231.697 574.397 231.337 574.122 231.063C573.557 230.515 572.572 230.5 572.022 231.077Z" fill="#F8A71C"/>
<path d="M585.56 231.293C584.647 230.774 583.59 230.515 582.403 230.515C581.201 230.515 580.13 230.774 579.217 231.293C578.291 231.812 577.581 232.562 577.074 233.514C576.582 234.451 576.336 235.532 576.336 236.743C576.336 237.94 576.582 239.036 577.074 239.973C577.567 240.925 578.291 241.674 579.217 242.193C580.13 242.713 581.201 242.972 582.403 242.972C583.59 242.972 584.647 242.713 585.56 242.193C586.472 241.674 587.196 240.925 587.703 239.973C588.209 239.036 588.456 237.94 588.456 236.743C588.456 235.547 588.195 234.451 587.703 233.514C587.196 232.562 586.472 231.812 585.56 231.293ZM585.516 236.715C585.516 237.536 585.357 238.214 585.053 238.719C584.749 239.238 584.372 239.598 583.894 239.843C582.924 240.334 581.824 240.319 580.883 239.843C580.419 239.598 580.043 239.238 579.739 238.719C579.435 238.214 579.29 237.522 579.29 236.7C579.29 235.893 579.449 235.23 579.739 234.711C580.043 234.206 580.419 233.831 580.868 233.615C581.346 233.384 581.853 233.269 582.389 233.269C582.91 233.269 583.402 233.384 583.88 233.615C584.343 233.831 584.72 234.206 585.024 234.725C585.357 235.244 585.516 235.922 585.516 236.715Z" fill="#F8A71C"/>
<path d="M598.098 232.072V238.401C597.649 238.935 597.186 239.367 596.693 239.685C596.201 240.016 595.651 240.175 595.014 240.175C593.696 240.175 593.102 239.512 593.102 238.012V232.072C593.102 231.668 592.958 231.308 592.682 231.034C592.132 230.486 591.162 230.486 590.597 231.034C590.308 231.308 590.148 231.668 590.148 232.072V238.228C590.148 239.079 590.322 239.872 590.67 240.579C591.017 241.314 591.524 241.891 592.19 242.309C592.856 242.727 593.638 242.943 594.536 242.943C595.492 242.943 596.331 242.741 597.041 242.338C597.417 242.121 597.779 241.876 598.127 241.588C598.301 242.77 599.807 243.26 600.646 242.395C600.922 242.107 601.066 241.761 601.066 241.357V232.058C601.066 231.654 600.922 231.308 600.646 231.019C599.705 230.14 598.098 230.774 598.098 232.072Z" fill="#F8A71C"/>
<path d="M609.41 230.515C608.339 230.515 607.339 230.947 606.442 231.798C606.196 230.645 604.733 230.255 603.951 231.063C603.676 231.351 603.531 231.697 603.531 232.101V241.4C603.531 241.804 603.676 242.165 603.951 242.439C604.516 243.001 605.443 243.001 606.036 242.439C606.326 242.165 606.485 241.804 606.485 241.4V234.956C606.818 234.48 607.238 234.105 607.701 233.831C608.208 233.528 608.759 233.384 609.482 233.384C609.888 233.384 610.25 233.254 610.54 232.995C610.829 232.735 610.974 232.375 610.974 231.971C610.959 231.193 610.424 230.515 609.41 230.515Z" fill="#F8A71C"/>
<path d="M619.996 244.313V261.052C619.996 263.273 618.186 265.089 615.942 265.089H584.578L573.139 281.526C571.517 283.847 568.086 283.847 566.464 281.526L556.212 266.819C555.445 265.738 554.228 265.089 552.896 265.089H523.647C521.417 265.089 519.578 263.287 519.578 261.052V255.674C532.045 259.899 548.552 261.759 566.667 260.245C588.025 258.457 607.109 252.416 619.996 244.313Z" fill="#F8A71C"/>
<path d="M540.817 232.937C541.136 232.692 541.425 232.389 541.672 232.043C542.135 231.409 542.367 230.616 542.367 229.679C542.367 228.338 541.874 227.242 540.919 226.449C539.992 225.671 538.674 225.267 537.009 225.267H531.869C531.029 225.267 530.406 225.944 530.406 226.737V239.901C530.406 240.305 530.551 240.665 530.826 240.939C531.101 241.213 531.463 241.357 531.869 241.357H537.139C539.181 241.357 540.701 240.939 541.701 240.117C542.714 239.281 543.221 238.099 543.221 236.628C543.221 235.59 542.902 234.696 542.251 234.004C541.845 233.572 541.368 233.211 540.817 232.937ZM538.891 231.279C538.457 231.64 537.632 231.813 536.473 231.813H533.346V228.064H536.85C537.719 228.064 538.385 228.237 538.862 228.569C539.297 228.886 539.5 229.289 539.5 229.809C539.5 230.457 539.297 230.933 538.891 231.279ZM533.346 234.552H536.951C539.977 234.552 540.325 235.691 540.325 236.542C540.325 237.176 540.108 237.652 539.644 237.998C539.297 238.257 538.544 238.56 536.937 238.56H533.346V234.552Z" fill="white"/>
<path d="M553.53 229.909C552.617 229.39 551.56 229.131 550.373 229.131C549.171 229.131 548.1 229.39 547.202 229.909C546.275 230.428 545.566 231.178 545.059 232.13C544.566 233.067 544.32 234.148 544.32 235.359C544.32 236.571 544.566 237.652 545.059 238.589C545.551 239.541 546.275 240.29 547.202 240.809C548.114 241.328 549.186 241.588 550.373 241.588C551.56 241.588 552.617 241.328 553.53 240.809C554.442 240.29 555.166 239.541 555.673 238.589C556.179 237.652 556.426 236.556 556.426 235.359C556.426 234.163 556.165 233.067 555.673 232.13C555.166 231.164 554.442 230.428 553.53 229.909ZM553.472 235.331C553.472 236.152 553.312 236.83 553.008 237.335C552.704 237.854 552.328 238.214 551.85 238.459C550.88 238.95 549.779 238.935 548.838 238.459C548.375 238.214 547.998 237.854 547.694 237.335C547.39 236.83 547.245 236.138 547.245 235.316C547.245 234.509 547.405 233.846 547.694 233.327C547.998 232.822 548.375 232.447 548.824 232.231C549.301 232 549.808 231.885 550.344 231.885C550.865 231.885 551.358 232 551.835 232.231C552.284 232.447 552.675 232.822 552.979 233.341C553.327 233.86 553.472 234.523 553.472 235.331Z" fill="white"/>
<path d="M569.126 233.86C569.126 233.009 568.952 232.216 568.605 231.51C568.257 230.775 567.736 230.198 567.084 229.765C566.418 229.347 565.636 229.131 564.739 229.131C563.783 229.131 562.943 229.333 562.234 229.736C561.857 229.938 561.495 230.198 561.148 230.486C561.104 230.183 560.959 229.895 560.728 229.664C560.148 229.088 559.178 229.102 558.643 229.664C558.367 229.953 558.223 230.299 558.223 230.702V240.002C558.223 240.406 558.367 240.766 558.643 241.04C559.193 241.588 560.148 241.588 560.728 241.04C561.017 240.766 561.177 240.406 561.177 240.002V233.673C561.625 233.139 562.089 232.707 562.581 232.389C563.073 232.072 563.638 231.899 564.261 231.899C565.578 231.899 566.172 232.562 566.172 234.062V240.002C566.172 240.406 566.317 240.766 566.592 241.04C566.882 241.314 567.229 241.458 567.635 241.458C568.04 241.458 568.388 241.314 568.677 241.04C568.967 240.766 569.126 240.406 569.126 240.002V233.86Z" fill="white"/>
<path d="M573.153 224.791H573.022C572.588 224.791 572.212 224.95 571.893 225.252C571.589 225.555 571.43 225.944 571.43 226.464C571.43 226.896 571.589 227.285 571.893 227.588C572.197 227.891 572.588 228.049 573.022 228.049H573.153C573.587 228.049 573.978 227.891 574.282 227.588C574.586 227.285 574.746 226.896 574.746 226.377C574.746 225.944 574.586 225.555 574.282 225.252C573.964 224.95 573.573 224.791 573.153 224.791Z" fill="white"/>
<path d="M572.022 229.693C571.747 229.967 571.602 230.327 571.602 230.731V243.073C571.602 243.621 571.472 243.722 571.472 243.722C571.399 243.779 571.211 243.866 570.762 243.866C570.704 243.866 570.617 243.866 570.516 243.837C570.357 243.808 570.226 243.794 570.111 243.794C569.749 243.794 569.43 243.924 569.169 244.198C568.923 244.457 568.793 244.76 568.793 245.106C568.793 245.394 568.88 245.668 569.039 245.885C569.198 246.101 569.416 246.259 569.691 246.346C570.125 246.49 570.646 246.562 571.211 246.562C572.341 246.562 573.195 246.231 573.745 245.582C574.281 244.962 574.541 244.126 574.541 243.116V230.731C574.541 230.313 574.397 229.953 574.122 229.679C573.557 229.131 572.572 229.116 572.022 229.693Z" fill="white"/>
<path d="M585.56 229.909C584.647 229.39 583.59 229.131 582.403 229.131C581.201 229.131 580.13 229.39 579.217 229.909C578.291 230.428 577.581 231.178 577.074 232.13C576.582 233.067 576.336 234.148 576.336 235.359C576.336 236.571 576.582 237.652 577.074 238.589C577.567 239.541 578.291 240.29 579.217 240.809C580.13 241.328 581.201 241.588 582.403 241.588C583.59 241.588 584.647 241.328 585.56 240.809C586.472 240.29 587.196 239.541 587.703 238.589C588.209 237.652 588.456 236.556 588.456 235.359C588.456 234.163 588.195 233.067 587.703 232.13C587.196 231.178 586.472 230.428 585.56 229.909ZM585.516 235.331C585.516 236.152 585.357 236.83 585.053 237.335C584.749 237.854 584.372 238.214 583.894 238.459C582.924 238.95 581.824 238.935 580.883 238.459C580.419 238.214 580.043 237.854 579.739 237.335C579.435 236.83 579.29 236.138 579.29 235.316C579.29 234.509 579.449 233.846 579.739 233.327C580.043 232.822 580.419 232.447 580.868 232.231C581.346 232 581.853 231.885 582.389 231.885C582.91 231.885 583.402 232 583.88 232.231C584.343 232.447 584.72 232.822 585.024 233.341C585.357 233.86 585.516 234.523 585.516 235.331Z" fill="white"/>
<path d="M598.098 230.688V237.018C597.649 237.551 597.186 237.984 596.693 238.301C596.201 238.632 595.651 238.791 595.014 238.791C593.696 238.791 593.102 238.128 593.102 236.628V230.688C593.102 230.284 592.958 229.924 592.682 229.65C592.132 229.102 591.162 229.102 590.597 229.65C590.308 229.924 590.148 230.284 590.148 230.688V236.845C590.148 237.695 590.322 238.488 590.67 239.195C591.017 239.93 591.524 240.507 592.19 240.925C592.856 241.343 593.638 241.559 594.536 241.559C595.492 241.559 596.331 241.357 597.041 240.954C597.417 240.737 597.779 240.492 598.127 240.204C598.301 241.386 599.807 241.876 600.646 241.011C600.922 240.723 601.066 240.377 601.066 239.973V230.688C601.066 230.284 600.922 229.938 600.646 229.65C599.705 228.756 598.098 229.39 598.098 230.688Z" fill="white"/>
<path d="M609.41 229.131C608.339 229.131 607.339 229.563 606.442 230.414C606.196 229.261 604.733 228.871 603.951 229.679C603.676 229.967 603.531 230.313 603.531 230.717V240.016C603.531 240.824 604.168 241.473 604.994 241.473C605.79 241.473 606.485 240.853 606.485 240.016V233.572C607.195 232.577 608.179 232 609.482 232C610.308 232 610.959 231.423 610.959 230.587C610.959 229.809 610.424 229.131 609.41 229.131Z" fill="white"/>
<path d="M519.813 181.537L525.489 184.421C525.72 184.536 525.995 184.493 526.169 184.305L530.499 179.634C531.527 178.524 533.366 179.562 532.931 181.004L528.949 194.355C528.616 195.479 527.139 195.739 526.43 194.802L518.017 183.671C517.105 182.46 518.451 180.845 519.813 181.537Z" fill="#4C5C75"/>
<path d="M364.819 177.313L360.229 172.901C360.04 172.728 359.765 172.684 359.548 172.814L354.046 176.029C352.728 176.794 351.28 175.265 352.12 174.011L359.852 162.404C360.504 161.424 361.995 161.597 362.401 162.707L367.165 175.799C367.671 177.226 365.905 178.365 364.819 177.313Z" fill="#4C5C75"/>
<path d="M235.352 473.141H187.003C185.816 462.241 181.834 438.264 169.888 432.108C169.888 432.108 170.019 432.54 170.149 433.376L170.496 435.222C171.64 441.941 173.494 458.507 167.007 473.127H102.73C102.73 434.515 109.565 407.28 113.272 395.414C131.053 412.715 211.561 405.737 227.489 386.359C227.663 386.143 227.837 385.927 228.025 385.653C228.995 388.118 230.096 391.233 231.153 395.226C234.917 409.27 238.262 433.607 235.352 473.141Z" fill="#4C5C75"/>
<path d="M139.131 473.141C139.711 465.125 140.463 450.462 138.682 444.709C138.031 442.589 135.931 441.061 134.845 439.245C129.502 430.421 135.106 418.209 144.112 413.105C153.119 408.015 164.138 408.318 174.419 409.63C184.656 410.985 195.067 413.234 205.261 411.519C215.817 409.774 225.518 403.272 231.166 395.27C230.108 391.276 229.008 388.147 228.038 385.696C227.864 385.956 227.69 386.172 227.502 386.403C211.574 405.78 131.066 412.759 113.285 395.457C109.578 407.337 102.743 434.559 102.758 473.156H139.131V473.141Z" fill="#111D33"/>
<path d="M195.736 473.141H187.004C185.817 462.241 181.835 438.264 169.889 432.108L152.73 416.637C154.845 416.983 182.458 423.226 192.97 448.789C195.345 454.557 195.953 463.784 195.736 473.141Z" fill="#111D33"/>
<path d="M288.296 220.869L264.679 273.784C263.723 275.917 264.925 278.556 266.837 278.556H289.049C289.932 278.556 290.757 277.95 291.206 276.955L314.823 224.041C315.779 221.908 314.577 219.269 312.665 219.269H290.453C289.57 219.255 288.745 219.875 288.296 220.869Z" fill="#4C5C75"/>
<path d="M263.446 278.556H266.834C264.937 278.556 263.736 275.903 264.677 273.769L288.293 220.855C288.728 219.86 289.553 219.24 290.451 219.24H287.063C286.179 219.24 285.354 219.86 284.905 220.855L261.288 273.769C260.333 275.917 261.535 278.556 263.446 278.556Z" fill="#111D33"/>
<path d="M307.173 224.027L302.424 234.898C302.236 235.331 302.482 235.879 302.873 235.879H307.014C307.202 235.879 307.361 235.749 307.463 235.547L312.212 224.676C312.401 224.243 312.154 223.695 311.763 223.695H307.622C307.434 223.695 307.26 223.811 307.173 224.027Z" fill="#111D33"/>
<path d="M301.899 266.733C301.407 270.309 300.524 273.495 299.452 276.321C295.659 286.443 289.374 291.648 289.374 291.648C289.374 291.648 252.639 333.417 235.915 332.955C219.205 332.465 218.336 289.744 218.336 289.744L249.96 283.819L250.655 289.355L251.567 296.795L272.896 280.82L270.174 277.806C270.174 277.806 262.355 272.89 263.325 269.804C264.295 266.719 273.026 272.515 273.026 272.515L279.716 277.273C279.716 277.273 275.329 271.015 273.186 269.646C270.739 268.06 267.061 267.872 263.484 262.941C259.893 258.025 265.048 257.434 265.048 257.434C261.978 255.228 261.269 252.012 265.048 251.234C269.957 250.21 292.734 260.202 294.08 260.793C293.4 260.101 286.565 253.252 285.407 249.792C284.219 246.144 287.188 245.524 288.346 245.928C297.57 249.014 302.956 259.005 301.899 266.733Z" fill="#F7A386"/>
<path d="M276.388 274.85C281.122 277.705 282.397 280.344 282.397 280.344L273.043 274.504C273.043 274.504 265.035 269.184 263.529 271.448C263.254 270.857 263.182 270.294 263.341 269.79C264.311 266.704 273.043 272.5 273.043 272.5L276.388 274.85Z" fill="#FEE1BC"/>
<path d="M294.081 260.779C295.616 262.494 298.049 263.936 298.324 264.224C296.977 263.633 269.972 252.2 265.064 253.224C263.818 253.497 263.065 254.031 262.747 254.694C262.095 253.137 262.689 251.681 265.064 251.205C268.973 250.398 287.377 257.924 294.081 260.779Z" fill="#FEE1BC"/>
<path d="M302.03 265.753C301.566 258.616 296.455 250.614 288.361 247.903C287.521 247.601 285.798 247.846 285.32 249.331C284.48 246.058 287.26 245.524 288.361 245.899C297.193 248.869 302.507 258.183 302.03 265.753Z" fill="#FEE1BC"/>
<path d="M299.452 276.321C295.659 286.443 289.374 291.648 289.374 291.648C289.374 291.648 252.639 333.416 235.915 332.955C219.205 332.465 218.336 289.744 218.336 289.744L249.96 283.819L250.655 289.355C248.715 291.561 246.282 293.407 243.835 295.05C239.259 298.107 234.235 300.789 230.789 305.085C227.342 309.382 225.938 315.956 229.312 320.311C232.352 324.203 238.231 324.924 242.85 323.18C247.484 321.406 251.046 317.701 254.116 313.866C257.214 310.03 260.052 305.892 263.904 302.807C267.727 299.779 272.317 297.891 276.574 295.512C286.334 290.033 294.37 281.584 299.322 271.563C299.452 273.12 299.51 274.735 299.452 276.321Z" fill="url(#paint4_linear_6027_7208)"/>
<path d="M265.091 257.39C267.495 258.183 269.826 259.092 272.143 260.058C274.431 261.096 276.748 262.047 278.978 263.201L279.108 263.273L279.18 263.345C280.382 264.628 281.584 265.897 282.713 267.252C283.886 268.564 284.958 269.963 286.058 271.347L286 271.405L278.645 263.878L278.659 263.893L265.062 257.477L265.091 257.39Z" fill="#E27659"/>
<path d="M283.497 281.238C282.368 279.882 281.166 278.614 279.964 277.331L279.892 277.258L279.762 277.186C279.733 277.172 279.689 277.157 279.66 277.143L279.906 278.066L284.149 282.406L284.207 282.348L283.497 281.238Z" fill="#E27659"/>
<path d="M113.779 432.584C113.692 434.169 106.264 433.117 104.106 426.081C101.978 419.016 100.472 417.762 100.472 417.762C100.472 417.762 101.196 446.987 101.572 450.534C101.949 454.081 100.356 459.531 97.2283 456.604C97.2283 456.604 96.2871 459.286 93.1884 455.148C93.1884 455.148 92.5658 457.541 89.9739 454.773C87.353 452.033 80.1855 442.647 80.1855 442.647C80.1855 442.647 78.8968 443.325 77.3764 440.874C75.8705 438.452 74.8714 436.981 74.8714 436.981C74.8714 436.981 72.0188 433.434 71.15 426.614C70.8604 425.144 68.312 392.934 68.2975 392.689C68.2975 392.689 55.1208 337.987 55.5986 319.417C55.9461 306.613 65.6332 269.516 65.6332 269.516L100.356 276.653L100.95 276.783L100.848 277.345C99.9071 282.016 104.251 260.461 91.6825 322.891L91.2771 389.618C91.2771 389.618 104.83 400.085 107.292 405.377C109.739 410.683 113.851 431.026 113.779 432.584Z" fill="#F7A386"/>
<path d="M91.277 389.632L91.6825 322.906C92.2617 320.066 89.6119 333.215 97.2862 295.065H95.2445C87.1068 335.493 89.9159 321.551 89.3078 324.564L88.9023 391.29C88.9023 391.29 102.456 401.758 104.917 407.049C107.104 411.75 110.608 428.388 111.274 433.088C112.707 433.377 113.75 433.175 113.779 432.584C113.866 431.026 109.739 410.683 107.277 405.391C104.83 400.1 91.277 389.632 91.277 389.632Z" fill="#FEE1BC"/>
<path d="M100.834 277.359L95.4183 304.307C94.8826 304.393 94.3468 304.393 93.7531 304.393C88.8734 304.292 84.3123 302.115 79.6497 300.774C74.9582 299.404 69.4848 298.943 65.5753 301.841C61.6367 304.739 60.5363 310.16 60.8259 315.048C61.8539 331.845 75.8994 345.975 76.0587 362.8C76.1456 372.648 71.3962 382.265 72.6849 391.997C73.8578 401.066 80.3592 409.544 78.028 418.699C77.1447 422.217 74.4949 425.461 71.15 426.614C70.8604 425.144 68.312 392.934 68.2975 392.689C68.2975 392.689 55.1208 337.987 55.5986 319.417C55.9461 306.613 65.6332 269.516 65.6332 269.516L100.356 276.653C100.515 276.912 100.675 277.114 100.834 277.359Z" fill="url(#paint5_linear_6027_7208)"/>
<path d="M91.1635 433.939C92.6405 445.358 94.5084 446.483 95.9129 450.851C97.2161 455.249 97.274 456.864 97.2161 456.633C97.2016 456.633 97.1871 456.633 97.1871 456.618C95.4496 449.972 94.3346 448.141 93.35 445.517C91.511 440.081 91.0766 433.506 91.1201 433.924C91.149 433.924 91.1635 433.924 91.1635 433.939Z" fill="#E27659"/>
<path d="M84.7025 435.554C85.2093 439.1 86.2084 442.662 88.1921 445.646C89.2202 447.059 90.5089 448.443 91.3487 450.058C93.1008 453.49 93.2601 455.436 93.1877 455.191C93.1732 455.191 93.1732 455.191 93.1587 455.176C92.594 453.461 91.899 451.803 90.9578 450.274C90.1324 448.66 88.9451 447.362 87.888 445.848C85.9188 442.748 85.0355 439.144 84.6445 435.568C84.6445 435.554 84.659 435.554 84.659 435.539C84.688 435.525 84.7025 435.539 84.7025 435.554Z" fill="#E27659"/>
<path d="M76.4782 432.684C77.4628 434.184 78.3461 435.755 79.0701 437.399C79.7941 439.028 80.4312 440.816 80.1995 442.647C80.1995 442.662 80.185 442.662 80.1706 442.662C80.0258 442.07 80.0258 440.975 78.7515 437.529C78.0999 435.871 77.318 434.256 76.4492 432.699C76.4492 432.684 76.4492 432.67 76.4637 432.67C76.4637 432.67 76.4782 432.67 76.4782 432.684Z" fill="#E27659"/>
<path d="M99.5434 409.774C100.195 414.071 100.557 415.642 100.441 417.56C100.441 417.574 100.427 417.574 100.412 417.574C100.398 417.574 100.398 417.56 100.398 417.56C99.8475 415.7 99.8475 414.085 99.5 409.774C99.5 409.76 99.5145 409.76 99.5145 409.745C99.529 409.76 99.5434 409.76 99.5434 409.774Z" fill="#E27659"/>
<path d="M220.077 208.729C220.077 208.729 240.204 218.966 246.054 238.56C251.903 258.154 248.863 266.272 252.859 282.535C255.132 291.806 226.346 302.432 217.818 298.078C199.877 288.908 201.499 219.442 201.499 219.442L220.077 208.729Z" fill="#049E1F"/>
<path d="M228.852 298.51C239.524 295.829 251.253 289.196 249.776 283.155C245.779 266.892 248.805 258.789 242.956 239.195C237.917 222.225 222.119 212.276 217.992 209.912L220.063 208.729C220.063 208.729 240.204 218.952 246.054 238.546C251.904 258.14 248.863 266.243 252.845 282.535C254.496 289.168 240.233 296.477 228.852 298.51Z" fill="#1EAE3F"/>
<path d="M228.1 386.561C209.855 408.765 106.454 414.734 110.48 386.273C119.559 322.891 71.1812 213.862 88.4413 199.271C105.672 184.68 129.55 179.461 144.276 180.326H144.348C146.477 180.441 148.837 180.715 151.371 181.09C163.577 182.864 179.896 187.391 194.304 193.49C194.637 193.634 194.955 193.778 195.288 193.893C207.307 199.055 217.834 205.312 223.408 211.901C235.933 226.824 231.908 253.137 223.915 289.773C215.951 326.366 243.535 367.832 228.1 386.561Z" fill="url(#paint6_linear_6027_7208)"/>
<path d="M228.099 386.547C209.854 408.779 106.439 414.734 110.493 386.273C114.243 359.989 108.147 325.876 100.922 293.882C109.407 279.681 124.423 260.548 124.423 260.548C124.423 260.548 120.629 285.678 118.949 293.536C113.664 318.523 119.326 344.374 124.987 369.288C126.551 376.108 128.405 383.49 133.907 387.859C140.38 392.992 149.589 392.256 157.813 391.261C173.524 389.358 189.249 387.455 204.96 385.538C210.723 384.845 216.949 383.952 221.221 379.987C225.478 375.993 220.946 370.889 220.902 365.064C220.844 360.292 226.506 360.58 232.327 363.002C233.543 372.547 232.95 380.679 228.099 386.547Z" fill="#049E1F"/>
<path d="M223.766 212.421C223.635 212.262 223.534 212.089 223.404 211.93C209.734 195.638 165.527 181.581 144.256 180.341C129.545 179.476 105.653 184.695 88.4219 199.286C85.5115 201.751 84.4544 206.884 84.7296 214.079C84.8888 208.787 86.0183 204.952 88.4219 202.919C105.653 188.314 129.53 183.109 144.256 183.974C164.152 185.127 209.648 200.511 225.909 215.434L223.766 212.421Z" fill="#1EAE3F"/>
<path d="M121.554 264.599L99.2694 299.649C86.0783 303.586 57.7846 291.229 62.1285 269.891C70.1793 230.313 86.6575 201.492 86.6575 201.492L121.554 264.599Z" fill="#049E1F"/>
<path d="M73.2649 293.68C65.5327 288.389 60.0303 280.185 62.1299 269.891C70.1952 230.299 86.6588 201.492 86.6588 201.492L88.3819 204.635C85.124 210.705 71.6142 237.09 64.577 271.707C62.6946 280.906 66.8793 288.418 73.2649 293.68Z" fill="#1EAE3F"/>
<path d="M195.287 193.908L182.979 228.208L147.793 183.628L150.66 182.979C150.66 182.979 150.921 182.374 151.355 181.105C163.562 182.878 179.88 187.405 194.288 193.504C194.635 193.648 194.954 193.793 195.287 193.908Z" fill="#049E1F"/>
<path d="M181.385 218.39L194.301 182.402C194.301 182.402 206.406 187.42 210.04 185.704C226.099 178.135 241.143 120.866 214.211 112.403C187.278 103.94 164.154 109.664 162.358 141.455C160.563 173.247 155.031 185.012 155.031 185.012L181.385 218.39Z" fill="url(#paint7_linear_6027_7208)"/>
<path d="M194.289 182.402C194.289 182.402 206.394 187.42 210.029 185.704C226.087 178.135 241.131 120.866 214.199 112.403C187.266 103.94 164.142 109.664 162.346 141.455C158.726 156.392 177.159 174.213 194.289 182.402Z" fill="url(#paint8_linear_6027_7208)"/>
<path d="M239.581 117.579C239.132 121.544 238.104 124.701 237.452 125.956C234.86 130.8 225.318 131.824 221.018 130.526C213.532 128.263 191.566 119.929 191.566 119.929C193.187 127.787 191.29 127.239 185.527 130.887C179.736 134.491 179.909 148.952 179.909 148.952L175.681 148.852C176.333 146.862 176.434 144.396 176.087 141.816C175.073 134.304 170.179 132.098 169.107 132.098C169.093 132.098 169.093 132.098 169.093 132.098C168.615 132.04 168.123 132.011 167.659 132.098C163.938 132.703 161.723 138.024 162.693 143.993C162.736 144.18 162.751 144.396 162.823 144.584C161.795 149.818 161.303 154.72 161.303 154.72C161.23 154.475 143.246 116.209 155.511 106.722C163.533 100.45 168.731 108.957 168.731 108.957C166.646 77.8429 206.436 86.263 225.724 92.9962C238.741 97.5523 240.464 109.289 239.581 117.579Z" fill="#8A4852"/>
<path d="M206.987 158.353C206.813 158.209 206.567 158.396 206.596 158.67C206.755 160.213 207.277 161.669 208.145 162.664C209.145 163.818 210.679 164.495 211.997 163.846C213.561 163.068 214.922 161.121 214.155 160.458C213.604 159.982 212.258 161.669 211.476 161.612C208.305 161.366 207.653 158.93 206.987 158.353Z" fill="#E27659"/>
<path d="M198.34 147.049C197.905 148.246 198.542 149.558 199.744 149.991C200.932 150.423 202.264 149.803 202.698 148.607C203.133 147.41 202.495 146.098 201.308 145.665C200.106 145.247 198.774 145.853 198.34 147.049Z" fill="#111D33"/>
<path d="M205.077 149.025C205.048 149.039 204.99 149.039 204.976 149.039C203.745 148.131 202.558 147.251 201.356 146.328C200.169 146.545 199.01 146.862 197.779 147.035C196.534 147.136 195.231 147.078 193.913 146.703C193.87 146.689 193.841 146.646 193.855 146.588C193.87 146.559 193.87 146.545 193.899 146.559C195.086 145.882 196.331 145.535 197.591 145.348C198.88 145.218 200.14 145.276 201.414 145.189H201.486C201.631 145.189 201.761 145.247 201.863 145.319C202.978 146.487 204.049 147.713 205.121 148.909C205.106 148.938 205.106 148.981 205.077 149.025Z" fill="#111D33"/>
<path d="M218.888 150.221C218.439 151.418 219.062 152.73 220.264 153.177C221.451 153.61 222.783 153.018 223.232 151.836C223.681 150.639 223.058 149.327 221.885 148.88C220.669 148.433 219.337 149.039 218.888 150.221Z" fill="#111D33"/>
<path d="M221.612 151.245C221.496 151.562 221.655 151.894 221.974 152.023C222.278 152.139 222.626 151.98 222.741 151.677C222.857 151.36 222.698 151.029 222.394 150.913C222.075 150.769 221.728 150.928 221.612 151.245Z" fill="#FCFCFC"/>
<path d="M201.005 147.684C200.889 148.001 201.063 148.332 201.367 148.448C201.671 148.563 202.018 148.405 202.134 148.087C202.25 147.77 202.076 147.439 201.772 147.323C201.468 147.208 201.121 147.366 201.005 147.684Z" fill="#FCFCFC"/>
<path d="M225.492 152.269C224.203 151.303 222.9 150.351 221.64 149.342L222.074 149.486C220.814 149.688 219.569 150.034 218.309 150.193C217.035 150.279 215.761 150.236 214.429 149.832C214.385 149.818 214.356 149.774 214.371 149.717C214.385 149.688 214.4 149.673 214.414 149.659C215.616 148.996 216.861 148.664 218.121 148.477C219.381 148.376 220.67 148.448 221.944 148.376H222.016C222.161 148.361 222.291 148.434 222.378 148.52C223.479 149.688 224.521 150.913 225.593 152.125C225.622 152.153 225.622 152.211 225.578 152.24C225.564 152.298 225.52 152.298 225.492 152.269Z" fill="#111D33"/>
<path d="M196.953 133.713C201.022 133.28 205.264 133.583 208.667 135.976C209.507 136.568 210.347 137.461 210.318 138.673C210.289 139.739 209.522 140.677 208.667 140.994C207.813 141.311 206.915 141.095 206.133 140.677C205.351 140.259 204.656 139.653 203.918 139.148C201.036 137.173 197.402 136.755 194.086 137.995C193.434 138.24 192.768 138.543 192.102 138.557C191.436 138.572 190.727 138.182 190.509 137.433C190.119 136.02 192.015 135.255 192.812 134.823C194.129 134.102 195.563 133.871 196.953 133.713Z" fill="#111D33"/>
<path d="M226.491 139.192C223.465 137.764 220.12 136.827 216.833 137.764C216.022 137.995 215.125 138.456 214.821 139.393C214.56 140.215 214.893 141.152 215.458 141.628C216.037 142.104 216.79 142.176 217.499 142.075C218.209 141.974 218.918 141.686 219.628 141.498C222.394 140.763 225.304 141.412 227.534 143.272C227.968 143.632 228.388 144.05 228.91 144.238C229.431 144.425 230.082 144.324 230.444 143.805C231.125 142.825 229.88 141.715 229.387 141.167C228.576 140.259 227.534 139.682 226.491 139.192Z" fill="#111D33"/>
<path d="M205.16 170.363C207.896 171.301 210.532 171.762 213.066 171.747C213.558 171.747 213.877 172.252 213.616 172.67C212.733 174.098 210.821 176.578 208.244 176.131C205.696 175.698 204.696 172.699 204.334 171.055C204.233 170.58 204.696 170.205 205.16 170.363Z" fill="#E27659"/>
<path d="M239.578 117.579C239.129 121.544 238.101 124.701 237.449 125.956C234.857 130.8 225.315 131.824 221.015 130.526C213.529 128.263 191.563 119.929 191.563 119.929C193.184 127.787 191.287 127.239 185.524 130.887C179.733 134.491 179.906 148.953 179.906 148.953L175.678 148.852C176.33 146.862 176.359 144.411 176.084 141.816C175.302 134.549 170.176 132.098 169.104 132.098C169.09 132.098 169.09 132.098 169.09 132.098C168.612 132.04 168.12 132.011 167.656 132.098C163.935 132.703 161.72 138.024 162.69 143.993C162.733 144.18 162.748 144.396 162.82 144.584C161.792 149.818 161.3 154.72 161.3 154.72C161.3 154.72 157.274 146.155 154.32 136.092C155.652 133.597 157.376 131.29 159.721 129.676C163.168 127.196 168.018 126.475 171.711 128.551C172.999 129.286 174.085 130.31 175.389 130.988C176.692 131.68 178.371 131.954 179.646 131.132C181.789 129.777 181.094 126.518 180.978 123.952C180.703 118.271 184.743 112.994 189.941 110.601C195.11 108.207 201.134 108.294 206.709 109.519C212.283 110.73 217.54 112.994 222.969 114.84C228.298 116.642 233.916 118.069 239.578 117.579Z" fill="#51383C"/>
<path d="M168.713 108.943C168.713 108.943 172.362 113.34 172.261 119.064C172.261 119.064 174.157 111.826 168.641 106.65L168.713 108.943Z" fill="#51383C"/>
<path d="M505.245 205.529C499.279 234.985 473.143 257.145 441.794 257.145C406.043 257.145 377.055 228.28 377.055 192.697C377.055 183.455 379.009 174.66 382.528 166.715C392.563 144.05 415.325 128.234 441.78 128.234C449.889 128.234 457.635 129.719 464.788 132.429C471.102 134.823 476.937 138.168 482.121 142.291C501.596 157.733 509.98 182.272 505.245 205.529Z" fill="#F3F1FC"/>
<path d="M505.812 202.385C500.787 234.538 473.246 257.145 441.811 257.145C429.691 257.145 418.295 253.8 408.594 248.018C448.254 257.751 488.392 227.761 488.392 185.358C488.392 172.829 484.787 160.703 477.967 150.279C477.706 149.875 477.475 149.515 477.142 149.125C476.678 148.404 476.171 147.669 475.578 146.948C472.291 142.479 468.367 138.456 464.023 134.981C461.735 133.165 459.302 131.478 456.754 129.993C459.505 130.627 462.198 131.449 464.819 132.444C471.132 134.823 476.939 138.168 482.152 142.291C500.367 156.752 509.359 179.807 505.812 202.385Z" fill="#E2DFF4"/>
<path d="M411.647 190.664C412.719 189.77 413.255 188.27 414.514 187.694C416.571 186.742 418.873 188.833 421.117 188.544C422.319 188.386 423.579 187.564 424.621 188.184C425.519 188.717 425.563 189.957 425.91 190.938C426.373 192.293 427.59 193.36 428.994 193.648C429.66 193.778 430.384 193.763 430.964 194.11C432.165 194.816 432.151 196.618 433.107 197.642C433.744 198.334 434.728 198.565 435.655 198.781C437.045 199.084 438.435 199.401 439.825 199.704C440.955 199.949 442.128 200.223 442.996 200.972C444.082 201.895 444.502 203.438 444.3 204.837C444.111 206.235 443.358 207.518 442.446 208.614C441.968 209.176 441.433 209.724 441.172 210.416C440.81 211.397 441.114 212.478 441.259 213.516C441.404 214.554 441.331 215.765 440.491 216.4C439.825 216.904 438.971 217.077 438.146 217.149C437.422 217.222 436.567 217.524 436.032 218.015C435.496 218.505 435.134 219.139 434.801 219.788C434.41 220.552 434.048 221.345 433.729 222.138C432.745 224.632 432.093 227.343 430.355 229.39C429.617 230.255 428.705 230.962 427.677 231.467C427.445 231.582 427.199 231.683 427.025 231.87C426.88 232.014 426.779 232.187 426.692 232.375C425.91 233.86 425.316 235.561 425.693 237.191C425.722 237.306 425.809 237.378 425.896 237.45C427.503 238.964 427.358 241.617 428.676 243.39C428.85 243.621 429.038 243.88 429.052 244.183C429.067 244.688 428.516 245.063 427.995 245.048C427.488 245.034 427.025 244.731 426.62 244.443C425.041 243.333 423.579 242.035 422.435 240.478C420.364 237.652 419.496 234.119 419.076 230.63C418.525 226.017 417.932 221.345 417.888 216.703C417.888 216.068 417.903 215.419 417.671 214.828C417.367 214.05 416.657 213.502 415.919 213.112C415.18 212.723 414.37 212.464 413.646 212.06C413.486 211.973 413.313 211.872 413.197 211.728C412.951 211.426 412.806 211.051 412.661 210.705C412.183 209.58 411.416 208.614 410.677 207.648C409.331 205.903 408.317 203.928 407.694 201.823C407.506 201.174 407.347 200.482 407.477 199.819C407.564 199.401 407.752 199.026 407.941 198.651C408.65 197.368 409.548 196.186 410.619 195.162C411.01 194.787 411.054 194.672 411.068 194.182C411.068 192.855 410.634 191.5 411.647 190.664Z" fill="#6EB954"/>
<path d="M464.815 132.415C464.829 134.39 463.917 136.365 462.324 137.519C461.716 137.966 460.963 138.326 460.63 139.004C460.37 139.508 460.384 140.143 460.08 140.619C459.631 141.311 458.704 141.469 457.879 141.613C454.158 142.248 450.625 143.892 447.772 146.343C446.903 147.078 446.078 147.914 445.006 148.318C443.935 148.722 442.545 148.549 441.937 147.583C441.647 147.136 441.575 146.573 441.546 146.04C441.111 140.013 444.022 138.225 440.663 136.192C438.78 135.053 436.449 134.65 434.277 135.082C433.567 135.226 432.843 135.486 432.438 136.077C431.642 137.23 432.554 138.788 433.538 139.782C434.538 140.777 436.29 142.104 435.537 143.3C434.653 144.699 432.134 145.088 431.989 146.746C431.656 150.625 438.302 153.537 437.086 157.228C436.521 158.958 435.073 160.674 433.263 160.948C432.105 161.121 431.033 160.184 429.86 160.27C428.905 160.342 428.166 161.063 427.37 161.611C426.574 162.145 425.43 162.476 424.735 161.828C424.488 161.597 424.329 161.265 424.04 161.092C423.533 160.818 422.896 161.164 422.577 161.64C422.259 162.116 422.128 162.693 421.839 163.183C420.695 165.129 417.437 165.273 416.727 167.407C416.525 167.998 416.568 168.676 416.235 169.195C415.54 170.248 413.875 169.974 412.832 170.666C411.428 171.603 412.716 173.722 412.166 175.323C411.601 176.952 409.618 174.703 408.532 173.376C406.302 170.666 400.872 172.627 398.671 175.366C396.89 177.586 397.165 183.498 399.931 182.791C400.988 182.532 401.017 180.888 401.871 180.225C402.725 179.562 404.709 178.797 404.912 179.864C405.317 182.128 404.723 185.862 406.939 185.257C407.359 185.141 407.504 184.233 407.894 184.406C409.227 184.997 406.852 187.448 407.518 188.732C408.01 189.654 409.589 188.948 410.573 189.323C411.616 189.712 410.472 191.572 409.371 191.687C408.256 191.803 407.257 191.082 406.389 190.404C399.815 185.343 399.511 184.983 398.512 184.81C398.048 184.738 397.57 184.795 397.107 184.853C394.254 185.17 390.634 184.507 389.838 181.768C389.346 180.052 390.229 172.194 387.159 172.771C384.452 173.275 389.317 179.619 386.884 180.888C385.306 181.71 385.422 177.687 385.089 175.928C384.495 172.8 383.568 169.757 382.555 166.744C392.589 144.079 415.352 128.262 441.806 128.262C449.901 128.234 457.662 129.704 464.815 132.415Z" fill="#6EB954"/>
<path d="M419.321 182.791C419.35 182.921 419.321 183.022 419.278 183.123C419.205 183.224 419.075 183.296 418.974 183.354C418.076 183.729 417.12 184.118 416.179 183.887C415.774 183.757 415.383 183.556 415.035 183.325C414.673 183.094 414.297 182.892 413.964 182.618C413.891 182.561 413.819 182.489 413.833 182.388C413.862 182.33 413.906 182.316 413.935 182.287C414.253 182.157 414.803 182.215 414.847 181.854C414.876 181.696 414.803 181.551 414.673 181.479C414.543 181.407 414.398 181.378 414.239 181.378C413.935 181.35 413.602 181.35 413.297 181.378C412.993 181.436 412.718 181.508 412.4 181.508C412.125 181.508 411.792 181.436 411.589 181.234C411.415 181.076 411.328 180.859 411.154 180.672C410.691 180.11 409.808 180.138 409.316 179.634C409.258 179.562 409.185 179.461 409.084 179.403C408.925 179.288 408.476 179.245 408.548 179.432C408.563 179.461 408.693 179.389 408.707 179.432C408.722 179.518 408.577 179.533 408.548 179.605C408.519 179.677 408.548 179.764 408.519 179.836C408.461 179.994 408.287 180.038 408.157 180.066C407.752 180.138 407.361 180.196 406.984 180.138C406.883 180.124 406.782 180.11 406.709 180.066C406.579 179.965 406.535 179.792 406.579 179.634C406.68 179.317 407.332 178.697 407.853 178.437C409.272 177.716 410.865 178.423 412.255 178.971C413.022 179.273 413.804 179.547 414.412 180.081C414.615 180.254 414.789 180.456 414.992 180.643C415.165 180.802 415.368 180.903 415.6 180.975C415.86 181.076 416.107 181.148 416.396 181.148C416.903 181.177 417.395 181.076 417.873 181.148C418.684 181.292 419.292 182.027 419.321 182.791Z" fill="#6EB954"/>
<path d="M482.151 142.262C481.514 142.565 480.703 142.565 480.008 142.825C479.444 143.055 479.009 143.474 478.56 143.892C477.836 144.569 477.098 145.189 476.403 145.867C476.2 146.069 475.983 146.256 475.838 146.473C475.722 146.66 475.636 146.847 475.563 147.035C475.331 147.583 474.767 148.102 474.897 148.65C475.216 149.918 478.995 148.304 478.618 149.558C478.401 150.293 477.228 150.423 477.069 151.173C477.011 151.432 477.011 151.706 476.91 151.966C476.779 152.326 476.475 152.6 476.2 152.874C475.476 153.566 474.709 154.258 473.71 154.446C472.74 154.633 471.552 154.013 471.523 153.033C471.509 152.672 471.654 152.254 471.422 151.995C471.263 151.807 470.944 151.764 470.814 151.562C470.596 151.245 470.799 150.856 470.785 150.466C470.77 150.063 470.481 149.717 470.104 149.529C469.742 149.356 469.322 149.298 468.902 149.255C468.439 149.198 467.903 149.183 467.527 149.428C466.788 149.933 466.919 151.115 466.253 151.663C466.006 151.865 465.673 151.966 465.413 152.168C464.877 152.586 464.805 153.335 464.776 153.999C464.761 154.431 464.776 154.907 465.08 155.21C465.413 155.541 465.963 155.513 466.397 155.368C466.832 155.21 467.266 154.979 467.715 154.936C468.178 154.893 468.729 155.195 468.758 155.642C468.787 156.104 468.28 156.507 468.352 156.954C468.41 157.257 468.685 157.488 468.931 157.69C469.829 158.411 471.118 159.723 470.481 160.674C469.844 161.64 468.222 160.991 467.078 161.078C465.934 161.164 464.718 161.51 464.081 162.448C463.733 162.952 463.574 163.587 463.443 164.178C463.313 164.783 463.197 165.447 463.487 165.951C464.066 166.932 465.572 166.701 466.47 167.364C466.6 167.465 466.73 167.595 466.745 167.739C466.832 168.301 465.977 168.446 465.702 168.936C465.123 169.988 463.603 170.161 463.11 171.243C462.966 171.545 462.879 171.906 462.748 172.237C462.198 173.636 460.736 174.443 459.592 175.453C457.565 177.241 456.392 179.908 456.464 182.618C456.493 183.93 456.826 185.228 457.159 186.526C457.854 189.236 458.187 190.13 460.185 192.408C461.807 194.268 462.879 195.177 467.469 194.557C469.482 194.326 471.494 194.081 473.507 193.821C475.187 193.663 475.693 193.677 477.344 195.263C475.954 200.973 476.721 202.501 478.155 204.966C481.789 210.95 479.835 212.147 479.704 214.525C479.661 215.78 480.008 216.659 480.703 220.249C481.355 223.436 481.717 224.171 483.397 226.478C485.236 228.944 486.177 229.982 490.144 230.486C492.476 230.789 493.634 230.169 494.141 227.848C495.068 224.229 494.503 222.037 495.545 220.192C496.226 218.952 497.5 218.144 498.34 217.02C498.673 216.587 498.919 216.111 499.31 215.708C499.745 215.246 500.28 214.944 500.758 214.54C503.364 212.291 502.901 208.167 505.261 205.5C509.924 182.402 501.728 157.819 482.151 142.262ZM496.892 169.786C496.559 170.68 495.676 171.257 494.749 171.531C493.706 171.863 492.562 171.863 491.52 171.531C490.477 171.171 489.565 170.536 488.494 170.262C487.422 170.003 486.075 170.262 485.641 171.257C485.54 171.488 485.482 171.762 485.265 171.891C485.134 171.992 484.961 171.992 484.787 171.992C482.267 171.935 479.661 169.974 479.415 167.436C479.4 167.249 479.328 167.191 479.14 167.134C476.982 166.514 474.926 166.874 472.884 167.335C471.958 167.537 471.074 167.768 470.191 167.97C469.12 168.215 467.121 168.878 467.034 167.797C466.948 166.629 469.206 167.018 470.234 166.485C471.002 166.081 471.596 165.346 471.784 164.509C471.842 164.279 471.856 164.034 472.044 163.846C472.378 163.515 473.015 163.702 473.29 163.313C473.507 163.01 473.333 162.534 473.565 162.275C473.811 162.015 474.231 162.13 474.578 162.116C475.549 162.087 476.302 161.078 477.272 161.179C477.605 161.208 477.88 161.381 478.169 161.539C479.299 162.174 480.37 162.866 481.471 163.515C481.645 163.616 481.833 163.716 481.934 163.889C482.195 164.365 482.108 165.014 481.862 165.519C481.558 166.124 480.385 165.562 479.922 166.052C479.531 166.456 480.53 166.96 481.094 166.96C482.412 166.96 483.657 165.937 484.048 164.654C484.077 164.553 484.106 164.452 484.179 164.394C484.338 164.279 484.555 164.365 484.656 164.495C484.758 164.654 484.816 164.827 484.859 165C485.192 165.894 486.206 166.312 487.147 166.514C488.146 166.744 489.189 166.874 490.231 166.845C491.071 166.73 491.158 167.321 491.476 167.826C492.273 169.066 493.953 168.82 495.068 168.287C495.473 168.085 496.081 167.681 496.544 167.955C497.066 168.287 497.066 169.253 496.892 169.786Z" fill="#6EB954"/>
<path d="M460.07 143.127C460.157 143.257 460.244 143.373 460.359 143.459C460.49 143.546 460.649 143.589 460.779 143.517C460.895 143.459 460.982 143.315 461.112 143.3C461.286 143.272 461.46 143.459 461.605 143.373C461.706 143.315 461.706 143.185 461.75 143.084C461.836 142.854 462.126 142.753 462.372 142.724C462.908 142.666 463.458 142.796 463.893 143.113C464.168 143.315 464.399 143.589 464.428 143.92C464.472 144.31 464.24 144.67 463.965 144.959C463.516 145.434 462.966 145.737 462.068 145.752C461.228 145.752 460.606 145.521 460.229 145.492C459.722 145.449 458.868 145.737 458.651 144.843C458.578 144.526 458.607 143.848 458.767 143.531C458.926 143.228 459.23 143.027 459.534 142.854C459.679 142.767 459.708 142.709 459.838 142.81C459.882 142.839 460.07 143.07 460.07 143.127Z" fill="#6EB954"/>
<path d="M445.617 239.022C446.471 237.868 450.467 236.917 453.812 238.791C454.449 239.151 455.391 239.526 455.782 238.906C455.912 238.704 455.912 238.445 455.926 238.214C455.97 237.075 456.303 235.878 457.172 235.129C458.258 234.206 459.821 234.249 461.24 234.336C462.095 234.393 462.297 234.538 462.746 235.273C463.514 236.498 464.527 237.71 465.946 237.998C468.249 238.488 470.29 236.47 472.013 235.504C474.301 234.235 476.864 234.134 477.675 234.451C478.761 234.884 479.109 236.21 479.326 237.363C479.384 237.71 479.442 238.07 479.297 238.387C479.152 238.676 478.862 238.863 478.573 239.022C473.852 241.545 468.205 239.022 462.848 243.289C462.225 243.779 461.646 244.342 460.951 244.717C460.125 245.149 459.17 245.293 458.229 245.409C456.071 245.668 453.885 245.812 451.713 245.812C449.555 245.827 448.064 245.092 446.456 243.707C445.298 242.727 444.618 240.362 445.617 239.022Z" fill="#6EB954"/>
<path d="M482.164 142.277C481.541 142.58 480.701 142.58 480.006 142.839C479.47 143.07 479.007 143.474 478.573 143.892C477.849 144.555 477.11 145.175 476.415 145.881C476.184 146.083 475.981 146.242 475.85 146.472C475.749 146.631 475.691 146.804 475.59 146.934C476.184 147.655 476.69 148.39 477.154 149.111C478.051 149.01 478.819 148.981 478.616 149.572C478.515 149.875 478.283 150.106 477.979 150.264C481.063 154.994 483.554 160.155 485.32 165.648C485.784 166.11 486.479 166.369 487.145 166.514C488.144 166.744 489.172 166.874 490.229 166.845C491.025 166.687 491.214 167.422 491.46 167.84C492.256 169.094 493.95 168.835 495.051 168.301C495.485 168.1 496.079 167.667 496.542 167.97C497.078 168.301 497.078 169.253 496.904 169.786C496.238 171.589 493.386 172.137 491.518 171.545C490.461 171.185 489.563 170.551 488.491 170.291C487.854 170.132 487.203 170.161 486.638 170.392C490.287 185.416 488.419 202.458 480.035 217.077C481.208 222.427 480.933 223.104 483.394 226.507C485.19 228.929 486.204 230.025 490.171 230.501C491.141 230.63 492.227 230.659 492.995 230.039C493.69 229.549 493.95 228.684 494.153 227.862C495.036 224.359 494.501 222.052 495.543 220.221C496.238 218.966 497.498 218.173 498.338 217.049C498.671 216.616 498.931 216.155 499.308 215.722C499.742 215.29 500.278 214.958 500.77 214.569C503.362 212.32 502.971 208.138 505.259 205.601C505.259 205.572 505.259 205.572 505.288 205.529C506.171 200.958 506.548 196.878 506.548 192.697C506.533 172.266 497.006 154.085 482.164 142.277Z" fill="#438929"/>
<path d="M478.571 239.036C473.793 241.574 468.232 239.022 462.831 243.304C461.267 244.601 460.761 245.149 458.212 245.423C456.055 245.683 453.897 245.812 451.696 245.812C450.335 245.841 449.235 245.553 448.25 244.991C453.723 242.77 458.849 239.829 463.425 236.268C464.091 237.09 464.916 237.825 465.944 238.027C468.203 238.503 470.462 236.412 471.983 235.518C473.373 234.754 474.936 234.365 476.529 234.321C476.891 234.321 477.297 234.321 477.659 234.48C478.759 234.912 479.092 236.239 479.28 237.392C479.483 238.286 479.382 238.589 478.571 239.036Z" fill="#438929"/>
</g>
<defs>
<linearGradient id="paint0_linear_6027_7208" x1="402.796" y1="71.5547" x2="480.805" y2="71.5547" gradientUnits="userSpaceOnUse">
<stop offset="1.1e-07" stop-color="#57B3FE"/>
<stop offset="1" stop-color="#497BFE"/>
</linearGradient>
<linearGradient id="paint1_linear_6027_7208" x1="533.28" y1="82.664" x2="539.839" y2="82.664" gradientUnits="userSpaceOnUse">
<stop offset="1.1e-07" stop-color="#57B3FE"/>
<stop offset="1" stop-color="#497BFE"/>
</linearGradient>
<linearGradient id="paint2_linear_6027_7208" x1="533.28" y1="82.664" x2="539.839" y2="82.664" gradientUnits="userSpaceOnUse">
<stop offset="1.1e-07" stop-color="#57B3FE"/>
<stop offset="1" stop-color="#497BFE"/>
</linearGradient>
<linearGradient id="paint3_linear_6027_7208" x1="382.53" y1="304.788" x2="390.662" y2="304.788" gradientUnits="userSpaceOnUse">
<stop stop-color="#8FB7FF"/>
<stop offset="1" stop-color="#9FBCFC"/>
</linearGradient>
<linearGradient id="paint4_linear_6027_7208" x1="218.339" y1="302.246" x2="299.472" y2="302.246" gradientUnits="userSpaceOnUse">
<stop offset="1e-07" stop-color="#F7A386"/>
<stop offset="1" stop-color="#FD6B58"/>
</linearGradient>
<linearGradient id="paint5_linear_6027_7208" x1="55.5909" y1="348.076" x2="100.837" y2="348.076" gradientUnits="userSpaceOnUse">
<stop offset="1e-07" stop-color="#F7A386"/>
<stop offset="1" stop-color="#FD6B58"/>
</linearGradient>
<linearGradient id="paint6_linear_6027_7208" x1="158.784" y1="180.235" x2="158.784" y2="405.476" gradientUnits="userSpaceOnUse">
<stop stop-color="#15AB49"/>
<stop offset="1" stop-color="#34B723"/>
</linearGradient>
<linearGradient id="paint7_linear_6027_7208" x1="230.431" y1="186.615" x2="117.018" y2="110.682" gradientUnits="userSpaceOnUse">
<stop offset="1e-07" stop-color="#FEE1BC"/>
<stop offset="1" stop-color="#FD6B58"/>
</linearGradient>
<linearGradient id="paint8_linear_6027_7208" x1="247.044" y1="158.591" x2="100.011" y2="120.751" gradientUnits="userSpaceOnUse">
<stop offset="1e-07" stop-color="#FEE1BC"/>
<stop offset="1" stop-color="#FD6B58"/>
</linearGradient>
<clipPath id="clip0_6027_7208">
<rect width="620" height="492" fill="white"/>
</clipPath>
</defs>
</svg>
