<svg width="197" height="241" viewBox="0 0 197 241" fill="none" xmlns="http://www.w3.org/2000/svg">
<path opacity="0.15" d="M60.8976 94.6087C64.1987 92.8868 65.4302 88.8659 63.6686 85.6516C61.9077 82.4255 57.8058 81.2093 54.504 82.9312C44.8839 87.9622 35.3012 92.5496 26.0252 96.5705C22.6131 98.0513 21.061 101.965 22.5763 105.311C23.6973 107.779 26.1734 109.248 28.7724 109.248C29.6965 109.248 30.6324 109.067 31.5191 108.681C41.0905 104.528 50.9815 99.7965 60.8976 94.6087ZM147.898 38.0625C150.817 35.7869 151.299 31.6221 148.97 28.7565C146.629 25.9026 142.367 25.4333 139.449 27.7089C118.065 44.3823 96.126 59.2858 74.2376 72.0239C71.0224 73.8898 69.9755 77.9586 71.8848 81.1004C73.1534 83.1828 75.4078 84.3394 77.7114 84.3394C78.8935 84.3394 80.0885 84.0385 81.1722 83.4006C103.578 70.3629 126.034 55.1093 147.898 38.0625ZM183.497 127.908C186.49 125.704 187.081 121.551 184.827 118.637C182.573 115.724 178.323 115.134 175.33 117.35C168.79 122.177 162.112 126.908 155.499 131.388C152.418 133.469 151.655 137.598 153.786 140.608C155.105 142.462 157.21 143.449 159.366 143.449C160.697 143.449 162.04 143.064 163.21 142.269C169.985 137.683 176.808 132.856 183.497 127.908ZM196.947 97.5572C199.793 206.377 86.0747 241 86.0747 241C102.014 219.751 101.3 195.469 101.139 192.375C101.078 192.375 101.017 192.388 100.955 192.388C92.5668 192.593 84.4122 191.774 76.5904 190.051C93.3794 182.996 115.724 172.185 141.924 156.042C145.09 154.092 146.038 149.999 144.043 146.904C142.048 143.811 137.871 142.884 134.706 144.834C100.856 165.685 73.4126 177.422 56.9434 183.467C50.1192 180.372 43.7138 176.52 37.8385 172.018C46.5589 169.116 60.1705 164.012 77.588 155.741C80.9509 154.14 82.3553 150.18 80.7171 146.893C79.0785 143.606 75.0259 142.234 71.6635 143.834C48.678 154.755 32.4675 159.931 26.346 161.701C22.1825 157.33 18.4253 152.586 15.1485 147.519C27.085 143.991 61.1682 132.411 107.643 103.999C110.809 102.06 111.782 97.9787 109.799 94.8732C107.803 91.7794 103.628 90.8277 100.462 92.7778C72.9317 109.608 49.7372 120.372 33.3791 126.933C20.4085 132.146 11.7244 134.722 8.59526 135.576C3.40974 124.284 0.379597 111.812 0.0349681 98.6659C-0.0634976 95.0664 0.0468876 91.5136 0.354722 88.0114C21.0485 80.1383 54.7751 64.8613 95.9907 37.1717C99.0701 35.101 99.8465 30.9712 97.7273 27.9617C95.6093 24.9522 91.396 24.182 88.3171 26.2514C55.3172 48.4265 27.0482 62.4651 6.96954 70.9646C5.60242 71.5416 4.27209 72.0952 2.97857 72.6255C13.5103 31.814 50.7841 1.15119 95.929 0.032196C104.614 -0.185639 113.051 0.706455 121.119 2.57231C117.178 5.62977 113.211 8.61591 109.257 11.5294L107.064 13.1178C104.072 15.3091 103.455 19.4493 105.685 22.3875C107.015 24.1327 109.06 25.0482 111.129 25.0482C112.534 25.0482 113.95 24.6268 115.17 23.736C115.909 23.207 116.648 22.652 117.399 22.1113C123.792 17.4162 130.185 12.5162 136.528 7.47227C152.357 13.9606 166.104 24.3985 176.463 37.5438C158.085 53.1112 139.177 67.4131 120.208 80.1253C117.116 82.196 116.328 86.3141 118.446 89.3353C119.752 91.2011 121.882 92.2125 124.038 92.2125C125.357 92.2125 126.687 91.8391 127.87 91.0443C146.814 78.3554 165.685 64.1144 184.039 48.656C187.057 53.8451 189.607 59.3467 191.614 65.0895C159.723 91.935 126.834 114.628 93.7364 132.59C90.4601 134.371 89.2898 138.405 91.1006 141.596C92.3449 143.775 94.6479 145.003 97.0251 145.003C98.1466 145.003 99.2675 144.737 100.314 144.172C132.451 126.727 164.38 104.961 195.371 79.3434C196.22 84.0269 196.726 88.8413 196.849 93.7542C196.861 94.0784 196.849 94.4038 196.849 94.7293C196.886 95.6434 196.924 96.5822 196.947 97.5572Z" fill="white"/>
</svg>
