<svg width="529" height="345" viewBox="0 0 529 345" fill="none" xmlns="http://www.w3.org/2000/svg">
<path d="M93.9135 200.432H33.2192C29.4649 200.432 26.418 197.385 26.418 193.631V163.325C26.418 159.57 29.4649 156.523 33.2192 156.523H93.9135C97.6677 156.523 100.715 159.57 100.715 163.325V193.631C100.715 197.385 97.6677 200.432 93.9135 200.432Z" fill="#42A766"/>
<path d="M63.5662 217.599L73.1831 194.801H53.9492L63.5662 217.599Z" fill="#42A766"/>
<path d="M63.3359 170.941H80.7199V173.485L89.235 168.575L80.7199 163.664V166.208H63.3359V170.941Z" fill="white"/>
<path d="M89.235 180.925H71.8647V178.395L63.3359 183.305L71.8647 188.216V185.672H89.235V180.925Z" fill="white"/>
<path d="M52.6707 185.401L51.841 185.701C51.841 185.701 49.2565 182.763 47.9234 179.552C46.5904 176.342 46.536 172.438 46.536 172.438L47.1345 172.18L43.4618 163.393C42.8089 163.909 42.1832 164.562 41.6799 165.419C39.5987 168.929 39.8028 174.329 41.8975 179.593C43.9923 184.857 46.2231 189.564 50.3039 192.515C52.7115 194.257 54.7791 194.569 56.3842 194.311L52.6707 185.401Z" fill="white"/>
<path d="M55.3106 184.367L54.168 184.789L57.9223 193.794C58.3439 193.658 58.7248 193.481 59.0649 193.304C60.0306 192.774 60.4659 191.604 60.0579 190.57L58.0991 185.619C57.6638 184.517 56.426 183.959 55.3106 184.367Z" fill="white"/>
<path d="M46.344 161.842C45.8816 162.005 45.3783 162.236 44.875 162.535L48.6293 171.513L49.8943 170.983C50.9961 170.52 51.513 169.282 51.0913 168.167L49.119 163.107C48.6837 162.019 47.4595 161.447 46.344 161.842Z" fill="white"/>
<path d="M421.217 344.428V243.117C421.217 243.117 422.346 215.817 407.996 207.941C393.645 200.065 333.141 204.282 333.141 204.282V344.428H421.217Z" fill="#028017"/>
<path d="M314.217 109.432C314.217 109.432 317.876 140.105 319.277 142.635C320.678 145.165 320.678 145.165 320.678 145.165L327.711 149.953C327.711 149.953 314.204 169.092 297.595 172.18C280.986 175.281 282.401 165.419 282.401 165.419L284.931 160.074L281.558 130.801C281.571 130.828 311.687 117.035 314.217 109.432Z" fill="url(#paint0_linear_6024_692)"/>
<path d="M336.461 152.497L325.484 147.709C325.484 147.709 318.451 159.244 302.128 166.004C285.805 172.765 285.52 168.82 284.676 166.004C283.833 163.189 284.962 160.101 284.962 160.101L283.751 150.253L277.222 152.429L254.56 335.722L312.82 338.538L336.461 152.497Z" fill="white"/>
<path d="M282.703 150.43C282.703 150.43 278.758 159.53 275.099 180.913C271.44 202.296 268.067 238.329 267.224 263.085C266.38 287.842 265.822 344.415 265.822 344.415C265.822 344.415 193.212 344.415 192.369 344.415C191.526 344.415 186.466 316.557 186.466 316.557C186.466 316.557 218.554 289.066 220.241 284.564C221.37 281.558 220.798 225.937 225.586 200.324C230.374 174.71 236.564 169.555 249.513 163.175C262.871 156.592 282.703 150.43 282.703 150.43Z" fill="url(#paint1_linear_6024_692)"/>
<path d="M390.774 305.307L391.332 344.428H305.772C305.772 344.428 302.113 311.224 303.514 308.123C304.943 305.035 390.774 305.307 390.774 305.307Z" fill="#F08A25"/>
<path d="M255.115 52.3018C255.115 52.3018 249.212 62.4356 248.083 74.8139C246.954 87.1921 248.083 118.995 258.216 132.502C268.35 146.009 289.461 142.065 299.024 133.903C307.811 126.408 316.476 118.138 318.72 101.815C320.978 85.4918 313.932 54.5326 293.95 48.0578C273.982 41.6102 255.115 52.3018 255.115 52.3018Z" fill="url(#paint2_linear_6024_692)"/>
<path d="M229.732 326.744C229.732 326.744 230.725 326.744 232.235 326.703C232.589 326.69 232.983 326.703 233.391 326.69C234.847 326.649 236.615 326.608 238.397 326.554C238.792 326.54 239.2 326.527 239.594 326.513C241.362 326.472 242.872 326.69 244.287 326.608H244.328C244.627 326.595 245.062 326.635 245.416 326.649C245.593 326.663 245.756 326.676 245.865 326.663C246.681 326.513 246.844 326.323 247.728 325.928C248.871 325.411 264.337 321.956 276.919 322.038C289.488 322.092 300.764 322.949 302.601 321.412C304.451 319.848 305.566 304.055 294.834 303.021L281.639 308.027C281.639 308.027 251.51 304.45 240.465 312.598C229.392 320.745 229.732 326.744 229.732 326.744Z" fill="#EEC286"/>
<path d="M244.327 326.607C244.626 326.594 245.062 326.635 245.415 326.648C245.687 326.213 246.259 325.424 246.572 325.098C249.972 321.629 258.188 319.385 261.167 318.664C261.439 318.596 261.616 318.323 261.548 318.051C261.493 317.779 261.208 317.616 260.922 317.671C256.583 318.718 247.374 321.398 244.762 325.791C244.681 325.914 244.463 326.335 244.327 326.607Z" fill="#223A7A"/>
<path d="M238.396 326.54C238.791 326.526 239.199 326.526 239.593 326.499C243.307 319.725 249.387 317.78 256.882 315.372L257.331 315.222C257.589 315.141 257.739 314.842 257.657 314.569C257.576 314.311 257.29 314.161 257.004 314.243L256.569 314.393C248.639 316.95 242.246 318.99 238.396 326.54Z" fill="#223A7A"/>
<path d="M232.235 326.69C232.588 326.677 232.983 326.69 233.391 326.677C235.649 321.943 243.103 314.013 252.951 312.176C253.237 312.122 253.414 311.864 253.373 311.578C253.319 311.306 253.047 311.129 252.775 311.17C242.627 313.088 234.425 321.372 232.235 326.69Z" fill="#223A7A"/>
<path d="M311.972 87.9125C311.972 87.9125 305.783 84.9608 301.417 76.6497C297.051 68.3522 297.622 60.8844 297.622 60.8844C297.622 60.8844 289.746 59.6194 277.925 63.1424C266.105 66.6655 252.04 71.44 240.219 64.6931C228.399 57.9327 228.399 47.1051 234.166 42.6027C240.627 37.5562 253.441 40.6303 253.441 40.6303C253.441 40.6303 248.517 35.8423 251.183 33.0266C253.863 30.2108 263.561 33.8699 263.561 33.8699C263.561 33.8699 275.382 24.4434 297.758 25.5724C320.134 26.7014 330.826 42.3171 332.091 59.769C333.356 77.221 327.03 94.673 327.03 94.673L311.972 87.9125Z" fill="#1A2D3D"/>
<path d="M266.583 92.1433C267.848 95.2719 267.821 98.9038 268.134 102.209C268.378 104.794 268.855 107.8 266.488 109.541C265.359 110.371 260.013 112.615 262.761 114.438C263.808 115.132 265.563 114.941 266.76 114.887C267.576 114.846 268.406 114.819 269.235 114.751C270.12 114.683 270.977 114.424 271.861 114.411C272.378 114.411 272.541 115.091 272.119 115.363C270.705 116.247 268.61 116.533 266.964 116.587C265.304 116.655 264.189 116.573 262.693 115.839C261.781 115.39 260.884 114.737 260.747 113.649C260.584 112.425 261.509 111.323 262.434 110.629C263.495 109.84 264.801 109.473 265.876 108.698C267.372 107.637 267.249 105.827 267.141 104.168C266.882 100.169 265.971 96.2377 265.617 92.2522C265.549 91.6673 266.393 91.6673 266.583 92.1433Z" fill="#D66B5D"/>
<path d="M255.074 101.488C255.495 103.855 257.223 105.542 258.923 105.242C260.637 104.943 261.671 102.767 261.263 100.4C260.841 98.0332 259.113 96.3465 257.413 96.6457C255.699 96.9586 254.652 99.1214 255.074 101.488Z" fill="#223A7A"/>
<path d="M276.609 99.6098C276.99 102.167 278.799 104.017 280.636 103.745C282.486 103.473 283.669 101.174 283.288 98.6168C282.907 96.0595 281.098 94.2096 279.262 94.4816C277.425 94.7537 276.228 97.0525 276.609 99.6098Z" fill="#223A7A"/>
<path d="M260.096 91.7211C258.777 91.9387 257.457 91.7211 256.124 91.8163C255.811 91.8435 255.485 91.8843 255.172 91.9115C254.941 91.9387 255.594 91.8435 255.281 91.8979C255.213 91.9115 255.145 91.9251 255.077 91.9251C254.914 91.9523 254.75 91.9931 254.587 92.0339C254.301 92.1019 254.029 92.2108 253.744 92.2652C253.485 92.3196 253.2 92.3876 252.941 92.374C252.792 92.3604 252.655 92.3332 252.506 92.3196C252.601 92.3332 252.683 92.3468 252.778 92.374C252.778 92.4012 252.288 92.3332 252.234 92.3196C251.486 92.1427 251.01 91.2722 251.227 90.5377C251.282 90.32 251.377 90.1432 251.513 89.9664C251.567 89.8983 251.622 89.8167 251.69 89.7487C251.635 89.8031 251.581 89.8711 251.526 89.9255C251.581 89.8439 251.635 89.7759 251.703 89.6943C251.771 89.5719 251.88 89.4631 252.003 89.3951C252.111 89.3134 252.207 89.2318 252.315 89.1502C252.669 88.9054 253.118 88.7693 253.54 88.6605C254.329 88.4565 255.145 88.3613 255.961 88.3477C256.763 88.3477 257.566 88.4293 258.355 88.5381C259.062 88.6333 259.838 88.8781 260.409 89.2998C260.844 89.6263 261.116 90.048 261.048 90.6193C260.98 91.0818 260.599 91.6258 260.096 91.7211Z" fill="#223A7A"/>
<path d="M275.1 87.9538C275.277 87.845 275.467 87.7498 275.644 87.6682C275.807 87.6002 276.242 87.3689 275.916 87.5458C276.038 87.4777 276.161 87.4097 276.283 87.3553C276.827 87.0833 277.399 86.8928 277.984 86.7432C279.262 86.4168 280.622 86.3351 281.942 86.4712C283.343 86.6208 284.635 86.9609 285.846 87.6954C286.023 87.8042 286.199 87.8994 286.335 88.049C286.431 88.1715 286.526 88.2939 286.621 88.4163C286.594 88.3755 286.567 88.3347 286.54 88.2939C286.92 88.5523 287.138 88.9876 287.124 89.4365C287.124 89.8718 286.893 90.239 286.512 90.4431C286.05 90.7015 285.615 90.5791 285.138 90.4567C285.37 90.4567 285.615 90.4567 285.846 90.4567C285.451 90.5111 285.179 90.5383 284.785 90.4431C284.771 90.4431 284.404 90.3479 284.649 90.4023C284.88 90.4567 284.268 90.3615 284.2 90.3479C284.118 90.3343 283.697 90.2935 284.145 90.3343C284.064 90.3207 283.982 90.3207 283.901 90.3071C283.683 90.2799 283.479 90.2526 283.261 90.239C282.336 90.171 281.411 90.1302 280.473 90.0894C279.616 90.0622 278.732 90.0486 277.861 90.0894C277.494 90.103 277.127 90.1166 276.759 90.1302C276.555 90.1302 276.637 90.171 276.787 90.1302C276.705 90.1574 276.637 90.171 276.555 90.1846C276.406 90.2255 276.256 90.2799 276.106 90.3343C275.508 90.5655 274.787 90.1302 274.569 89.5725C274.324 88.9876 274.528 88.2939 275.1 87.9538Z" fill="#223A7A"/>
<path d="M268.42 127.073C267.128 124.475 264.774 122.571 262.068 121.346C264.421 121.102 275.561 120.081 278.363 121.673C281.505 123.455 277.778 130.637 271.276 130.991C270.596 131.031 269.971 130.977 269.372 130.882C269.318 129.576 269.018 128.284 268.42 127.073Z" fill="#223A7A"/>
<path d="M319.852 111.975C319.852 111.975 318.723 116.341 312.248 121.401C305.773 126.461 296.387 130.175 296.387 130.175L295.639 126.897C295.639 126.897 305.351 122.68 309.854 118.028C314.356 113.389 314.914 110.846 314.914 110.846L319.852 111.975Z" fill="#DEE1EB"/>
<path d="M294.524 124.462C289.314 124.217 286.403 128.338 286.05 131.004C285.682 133.67 288.185 136.663 294.048 134.038C301.312 130.76 299.734 124.693 294.524 124.462Z" fill="#223A7A"/>
<path d="M315.769 79.75C315.769 79.75 313.524 63.5767 302.683 52.5859C281.994 31.6245 264.406 32.8895 264.406 32.8895C264.406 32.8895 264.542 29.9378 271.166 27.6797C277.382 25.5714 280.171 26.7004 280.171 26.7004C280.171 26.7004 297.201 28.1014 311.552 44.0027C325.902 59.904 327.453 80.1717 327.453 80.1717L315.769 79.75Z" fill="#DEE1EB"/>
<path d="M317.319 77.778C330.867 75.4792 338.43 86.0755 338.987 96.7807C339.545 107.472 331.778 115.607 321.399 114.79C298.044 112.954 300.71 80.5937 317.319 77.778Z" fill="white"/>
<path d="M324.066 104.384C327.643 104.384 330.663 102.588 332.391 99.4189C334.241 96.0319 334.091 91.856 331.996 88.7818C331.833 88.5505 331.52 88.4961 331.289 88.6458C331.058 88.809 330.99 89.1219 331.153 89.3531C333.03 92.1144 333.166 95.8687 331.493 98.9292C329.915 101.827 327.113 103.472 323.794 103.364C320.692 103.282 318.067 101.867 316.408 99.3781C314.503 96.5352 314.068 92.6177 315.292 89.3803C316.517 86.1701 319.849 83.9937 322.882 84.3882C323.155 84.429 323.413 84.225 323.454 83.9529C323.495 83.6673 323.291 83.4224 323.019 83.3816C319.468 82.9055 315.741 85.3404 314.34 89.0266C312.993 92.5633 313.483 96.8481 315.564 99.9494C317.428 102.724 320.339 104.302 323.767 104.384C323.875 104.384 323.971 104.384 324.066 104.384Z" fill="#818FB3"/>
<path d="M333.929 148.553C333.929 148.553 375.022 158.687 389.373 175.01C403.723 191.333 410.484 271.818 410.756 286.74C411.042 301.662 400.622 307.851 394.433 312.068C388.244 316.285 360.944 323.889 338.989 325.018C317.035 326.147 296.21 325.018 296.21 325.018C296.21 325.018 296.278 320.23 292.904 313.197C289.776 306.668 285.804 305.321 285.804 305.321L304.657 298.561C304.657 298.561 307.962 239.404 313.104 210.757C319.007 177.825 333.929 148.553 333.929 148.553Z" fill="url(#paint3_linear_6024_692)"/>
<path d="M11.8207 227.924L65.6185 334.486L222.469 335.615L174.071 226.414L11.8207 227.924Z" fill="#F6F6F6"/>
<path d="M326.57 334.948L326.543 326.419H225.001L178.29 223.979H15.9033L11.8225 227.923H170.455L219.002 334.866C219.002 334.866 326.57 334.662 326.57 334.948Z" fill="#DAD7D7"/>
<path d="M93.2721 286.726C95.0404 292.044 104.657 296.152 114.75 295.894C124.843 295.635 131.59 291.133 129.808 285.814C128.026 280.496 118.423 276.388 108.33 276.646C98.2506 276.891 91.5037 281.407 93.2721 286.726Z" fill="#DAD7D7"/>
<path d="M219.004 335.545C219.099 335.545 219.194 335.532 219.289 335.491C219.63 335.341 219.779 334.933 219.63 334.593L170.906 227.256H11.8381C11.4573 227.256 11.158 227.555 11.158 227.936C11.158 228.317 11.4573 228.616 11.8381 228.616H170.035L218.405 335.164C218.501 335.396 218.745 335.545 219.004 335.545Z" fill="white"/>
<path d="M3.07678 334.865H529.234V344.999H3.07678V334.865Z" fill="#028017"/>
<path d="M380.747 117.812H446.61C450.691 117.812 453.996 114.506 453.996 110.425V77.5482C453.996 73.4675 450.691 70.1621 446.61 70.1621H380.747C376.666 70.1621 373.361 73.4675 373.361 77.5482V110.425C373.374 114.506 376.666 117.812 380.747 117.812Z" fill="white"/>
<path d="M354.589 93.98L379.332 83.5469V104.427L354.589 93.98Z" fill="white"/>
<path d="M429.306 98.5375C426.79 98.5375 424.75 96.4973 424.75 93.9807C424.75 91.464 426.79 89.4238 429.306 89.4238C431.823 89.4238 433.863 91.464 433.863 93.9807C433.863 96.4973 431.823 98.5375 429.306 98.5375Z" fill="#223A7A"/>
<path d="M413.678 98.5375C411.161 98.5375 409.121 96.4973 409.121 93.9807C409.121 91.464 411.161 89.4238 413.678 89.4238C416.194 89.4238 418.234 91.464 418.234 93.9807C418.234 96.4973 416.194 98.5375 413.678 98.5375Z" fill="#223A7A"/>
<path d="M398.06 98.5375C395.544 98.5375 393.504 96.4973 393.504 93.9807C393.504 91.464 395.544 89.4238 398.06 89.4238C400.577 89.4238 402.617 91.464 402.617 93.9807C402.617 96.4973 400.577 98.5375 398.06 98.5375Z" fill="#223A7A"/>
<path d="M86.768 0H179.394C185.342 0 190.164 4.82184 190.164 10.7704V54.7055C190.164 60.6541 185.342 65.4759 179.394 65.4759H171.092C170.86 69.461 171.432 75.3847 174.754 82.9571C164.05 78.0193 157.894 70.6126 154.671 65.4759H86.768C80.8194 65.4759 75.9976 60.6541 75.9976 54.7055V10.7704C75.9976 4.82184 80.8194 0 86.768 0Z" fill="#FFC107"/>
<path d="M126.277 20.9444H172.217C173.477 20.9444 174.504 19.9171 174.504 18.6577C174.504 17.3984 173.477 16.3711 172.217 16.3711H126.277C125.018 16.3711 123.991 17.3984 123.991 18.6577C123.991 19.9171 125.018 20.9444 126.277 20.9444Z" fill="white"/>
<path d="M93.3402 34.2593H173.108C173.878 34.2593 174.508 33.6296 174.508 32.8591C174.508 32.0886 173.878 31.459 173.108 31.459H93.3402C92.5697 31.459 91.9401 32.0886 91.9401 32.8591C91.9401 33.6296 92.5697 34.2593 93.3402 34.2593Z" fill="white"/>
<path d="M93.3402 42.0288H173.108C173.878 42.0288 174.508 41.3992 174.508 40.6287C174.508 39.8582 173.878 39.2285 173.108 39.2285H93.3402C92.5697 39.2285 91.9401 39.8582 91.9401 40.6287C91.9401 41.3992 92.5697 42.0288 93.3402 42.0288Z" fill="white"/>
<path d="M110.735 50.314H173.096C173.866 50.314 174.496 49.6843 174.496 48.9138C174.496 48.1433 173.866 47.5137 173.096 47.5137H110.735C109.965 47.5137 109.335 48.1433 109.335 48.9138C109.335 49.6843 109.965 50.314 110.735 50.314Z" fill="white"/>
<path d="M93.9677 20.9444H115.881C117.141 20.9444 118.168 19.9171 118.168 18.6577C118.168 17.3984 117.141 16.3711 115.881 16.3711H93.9677C92.7083 16.3711 91.681 17.3984 91.681 18.6577C91.681 19.9171 92.7083 20.9444 93.9677 20.9444Z" fill="white"/>
<path d="M172.998 169.283H132.15C130.654 169.283 129.43 168.059 129.43 166.562V138.65C129.43 137.154 130.654 135.93 132.15 135.93H172.998C174.495 135.93 175.719 137.154 175.719 138.65V166.562C175.719 168.072 174.508 169.283 172.998 169.283Z" fill="white"/>
<path d="M152.855 157.598C152.624 157.598 152.392 157.517 152.202 157.367L129.962 139.004C129.527 138.65 129.472 137.997 129.826 137.562C130.193 137.127 130.832 137.072 131.268 137.426L152.841 155.245L173.857 136.963C174.279 136.596 174.932 136.637 175.299 137.059C175.666 137.48 175.625 138.133 175.204 138.5L153.535 157.353C153.345 157.517 153.1 157.598 152.855 157.598Z" fill="#6F7FA9"/>
<path d="M130.625 168.521C130.367 168.521 130.122 168.426 129.918 168.236C129.51 167.841 129.496 167.202 129.877 166.794L145.425 150.444C145.806 150.035 146.459 150.022 146.867 150.403C147.275 150.797 147.289 151.437 146.908 151.845L131.36 168.195C131.17 168.426 130.898 168.521 130.625 168.521Z" fill="#6F7FA9"/>
<path d="M174.537 167.923C174.279 167.923 174.02 167.827 173.816 167.623L158.323 152.089C157.929 151.695 157.929 151.042 158.323 150.647C158.718 150.253 159.371 150.253 159.765 150.647L175.258 166.181C175.653 166.576 175.653 167.229 175.258 167.623C175.054 167.827 174.796 167.923 174.537 167.923Z" fill="#6F7FA9"/>
<path d="M177.643 148.287C185.178 148.287 191.287 142.178 191.287 134.643C191.287 127.108 185.178 121 177.643 121C170.108 121 164 127.108 164 134.643C164 142.178 170.108 148.287 177.643 148.287Z" fill="#FF5F42"/>
<path d="M174.632 134.74L174.608 134.464C174.912 134.6 175.176 134.776 175.4 134.992C175.624 135.208 175.796 135.444 175.916 135.7C176.036 135.956 176.096 136.22 176.096 136.492C176.096 136.948 175.968 137.368 175.712 137.752C175.464 138.128 175.128 138.432 174.704 138.664C174.28 138.888 173.808 139 173.288 139C172.768 139 172.296 138.888 171.872 138.664C171.448 138.432 171.108 138.128 170.852 137.752C170.604 137.368 170.48 136.948 170.48 136.492C170.48 136.124 170.556 135.808 170.708 135.544C170.868 135.272 171.064 135.044 171.296 134.86C171.536 134.676 171.772 134.524 172.004 134.404L171.908 134.74C171.708 134.66 171.512 134.548 171.32 134.404C171.136 134.252 170.984 134.06 170.864 133.828C170.744 133.596 170.684 133.324 170.684 133.012C170.684 132.564 170.8 132.16 171.032 131.8C171.264 131.432 171.576 131.14 171.968 130.924C172.368 130.708 172.808 130.6 173.288 130.6C173.776 130.6 174.212 130.708 174.596 130.924C174.988 131.14 175.3 131.432 175.532 131.8C175.764 132.16 175.88 132.564 175.88 133.012C175.88 133.356 175.812 133.644 175.676 133.876C175.54 134.108 175.376 134.292 175.184 134.428C174.992 134.564 174.808 134.668 174.632 134.74ZM172.124 133.036C172.124 133.252 172.172 133.444 172.268 133.612C172.372 133.78 172.512 133.916 172.688 134.02C172.864 134.116 173.064 134.164 173.288 134.164C173.512 134.164 173.708 134.116 173.876 134.02C174.052 133.916 174.188 133.78 174.284 133.612C174.388 133.444 174.44 133.252 174.44 133.036C174.44 132.716 174.328 132.452 174.104 132.244C173.888 132.028 173.616 131.92 173.288 131.92C172.952 131.92 172.672 132.028 172.448 132.244C172.232 132.452 172.124 132.716 172.124 133.036ZM173.288 137.68C173.672 137.68 173.996 137.564 174.26 137.332C174.524 137.092 174.656 136.804 174.656 136.468C174.656 136.236 174.596 136.028 174.476 135.844C174.356 135.66 174.192 135.516 173.984 135.412C173.776 135.3 173.544 135.244 173.288 135.244C173.032 135.244 172.8 135.3 172.592 135.412C172.384 135.516 172.22 135.66 172.1 135.844C171.98 136.028 171.92 136.236 171.92 136.468C171.92 136.804 172.052 137.092 172.316 137.332C172.58 137.564 172.904 137.68 173.288 137.68ZM179.466 139.12C179.17 139.12 178.854 139.076 178.518 138.988C178.182 138.892 177.906 138.756 177.69 138.58C177.586 138.492 177.502 138.38 177.438 138.244C177.382 138.1 177.354 137.964 177.354 137.836C177.354 137.7 177.41 137.572 177.522 137.452C177.642 137.332 177.81 137.272 178.026 137.272C178.17 137.272 178.35 137.348 178.566 137.5C178.694 137.58 178.834 137.652 178.986 137.716C179.138 137.78 179.294 137.812 179.454 137.812C179.838 137.812 180.17 137.744 180.45 137.608C180.73 137.464 180.946 137.268 181.098 137.02C181.25 136.772 181.326 136.48 181.326 136.144C181.326 135.84 181.254 135.58 181.11 135.364C180.974 135.148 180.79 134.98 180.558 134.86C180.334 134.74 180.09 134.68 179.826 134.68C179.578 134.68 179.362 134.72 179.178 134.8C178.994 134.88 178.826 134.964 178.674 135.052C178.522 135.132 178.37 135.172 178.218 135.172C177.954 135.172 177.758 135.116 177.63 135.004C177.502 134.884 177.422 134.744 177.39 134.584C177.358 134.424 177.35 134.28 177.366 134.152L177.738 131.236C177.77 131.068 177.85 130.932 177.978 130.828C178.114 130.716 178.274 130.66 178.458 130.66H181.926C182.118 130.66 182.278 130.724 182.406 130.852C182.534 130.98 182.598 131.14 182.598 131.332C182.598 131.516 182.534 131.672 182.406 131.8C182.278 131.92 182.118 131.98 181.926 131.98H178.83L178.962 131.872L178.638 134.308L178.482 133.852C178.53 133.772 178.634 133.696 178.794 133.624C178.954 133.552 179.138 133.492 179.346 133.444C179.554 133.388 179.758 133.36 179.958 133.36C180.494 133.36 180.974 133.484 181.398 133.732C181.822 133.972 182.154 134.304 182.394 134.728C182.642 135.144 182.766 135.616 182.766 136.144C182.766 136.744 182.63 137.268 182.358 137.716C182.086 138.164 181.702 138.512 181.206 138.76C180.718 139 180.138 139.12 179.466 139.12Z" fill="white"/>
<path d="M85.71 129.877H5.97224C2.96609 129.877 0.53125 127.442 0.53125 124.436V111.962C0.53125 108.956 2.96609 106.521 5.97224 106.521H85.71C88.7161 106.521 91.151 108.956 91.151 111.962V124.436C91.151 127.442 88.7161 129.877 85.71 129.877Z" fill="#028017"/>
<path d="M11.7259 124.326C11.3722 124.326 11.0866 124.204 10.8689 123.945C10.6513 123.687 10.5561 123.374 10.5833 122.993L10.9234 119.973C10.9506 119.892 10.937 119.851 10.8825 119.824C10.8281 119.797 10.7737 119.81 10.6921 119.865L8.20286 121.66C7.89 121.891 7.57712 121.973 7.25067 121.905C6.92421 121.837 6.65216 121.647 6.44812 121.307C6.21688 120.898 6.17607 120.545 6.31209 120.232C6.44812 119.919 6.69299 119.715 7.01945 119.579L9.80794 118.314C9.88955 118.287 9.91674 118.246 9.91674 118.205C9.91674 118.151 9.87595 118.11 9.80794 118.096L7.01945 116.831C6.66578 116.682 6.43453 116.437 6.32571 116.11C6.23049 115.784 6.25768 115.444 6.43451 115.117C6.63855 114.791 6.91059 114.587 7.23705 114.519C7.56351 114.451 7.88999 114.519 8.18924 114.723L10.6785 116.559C10.7601 116.614 10.8145 116.627 10.8689 116.6C10.9233 116.573 10.9369 116.518 10.9097 116.45L10.5697 113.431C10.5425 113.05 10.6513 112.723 10.8825 112.479C11.1138 112.22 11.413 112.098 11.8075 112.098C12.1612 112.098 12.4604 112.22 12.6917 112.479C12.9229 112.737 13.0045 113.05 12.9637 113.431L12.6237 116.45C12.5965 116.532 12.6101 116.573 12.6645 116.6C12.7189 116.627 12.7733 116.614 12.8549 116.559L15.3442 114.764C15.6434 114.532 15.9699 114.451 16.3235 114.519C16.6636 114.587 16.9356 114.777 17.1125 115.117C17.3437 115.525 17.3845 115.879 17.2485 116.192C17.1125 116.491 16.8676 116.709 16.5412 116.845L13.7526 118.11C13.671 118.137 13.6438 118.178 13.6438 118.219C13.6438 118.273 13.6846 118.314 13.7526 118.328L16.5412 119.593C16.8948 119.742 17.1397 119.987 17.2485 120.314C17.3573 120.64 17.3165 120.98 17.1125 121.307C16.9356 121.633 16.6772 121.837 16.3235 121.905C15.9835 121.973 15.657 121.905 15.3442 121.701L12.8549 119.865C12.7733 119.81 12.7189 119.797 12.6645 119.824C12.6101 119.851 12.5965 119.905 12.6237 119.973L12.9637 122.993C13.0181 123.374 12.9229 123.701 12.678 123.945C12.4196 124.204 12.1068 124.326 11.7259 124.326Z" fill="white"/>
<path d="M28.2103 124.326C27.8566 124.326 27.5709 124.204 27.3533 123.945C27.1357 123.687 27.0405 123.374 27.0677 122.993L27.4077 119.973C27.4349 119.892 27.4213 119.851 27.3669 119.824C27.3125 119.797 27.2581 119.81 27.1765 119.865L24.6872 121.66C24.3744 121.891 24.0615 121.973 23.735 121.905C23.4086 121.837 23.1365 121.647 22.9325 121.307C22.7013 120.898 22.6604 120.545 22.7965 120.232C22.9325 119.919 23.1774 119.715 23.5038 119.579L26.2923 118.314C26.3739 118.287 26.4012 118.246 26.4012 118.205C26.4012 118.151 26.3603 118.11 26.2923 118.096L23.5038 116.831C23.1502 116.682 22.9189 116.437 22.8101 116.11C22.7149 115.784 22.7421 115.444 22.9189 115.117C23.1229 114.791 23.395 114.587 23.7215 114.519C24.0479 114.451 24.3744 114.519 24.6736 114.723L27.1629 116.559C27.2445 116.614 27.2989 116.627 27.3533 116.6C27.4077 116.573 27.4213 116.518 27.3941 116.45L27.054 113.431C27.0268 113.05 27.1357 112.723 27.3669 112.479C27.5982 112.22 27.8974 112.098 28.2919 112.098C28.6455 112.098 28.9448 112.22 29.176 112.479C29.4073 112.737 29.4889 113.05 29.4481 113.431L29.108 116.45C29.0808 116.532 29.0944 116.573 29.1488 116.6C29.2033 116.627 29.2576 116.614 29.3393 116.559L31.8285 114.764C32.1278 114.532 32.4542 114.451 32.8079 114.519C33.148 114.587 33.4064 114.777 33.5968 115.117C33.8281 115.525 33.8689 115.879 33.7329 116.192C33.5968 116.491 33.352 116.709 33.0256 116.845L30.237 118.11C30.1554 118.137 30.1282 118.178 30.1282 118.219C30.1282 118.273 30.169 118.314 30.237 118.328L33.0256 119.593C33.3792 119.742 33.6241 119.987 33.7329 120.314C33.8417 120.64 33.8009 120.98 33.5968 121.307C33.42 121.633 33.1616 121.837 32.8079 121.905C32.4679 121.973 32.1414 121.905 31.8285 121.701L29.3393 119.865C29.2576 119.81 29.2033 119.797 29.1488 119.824C29.0944 119.851 29.0808 119.905 29.108 119.973L29.4481 122.993C29.5025 123.374 29.4073 123.701 29.1625 123.945C28.904 124.204 28.5911 124.326 28.2103 124.326Z" fill="white"/>
<path d="M44.7103 124.326C44.3566 124.326 44.0709 124.204 43.8533 123.945C43.6357 123.687 43.5405 123.374 43.5677 122.993L43.9077 119.973C43.9349 119.892 43.9213 119.851 43.8669 119.824C43.8125 119.797 43.7581 119.81 43.6765 119.865L41.1872 121.66C40.8744 121.891 40.5615 121.973 40.235 121.905C39.9086 121.837 39.6365 121.647 39.4325 121.307C39.2013 120.898 39.1604 120.545 39.2965 120.232C39.4325 119.919 39.6774 119.715 40.0038 119.579L42.7923 118.314C42.8739 118.287 42.9011 118.246 42.9011 118.205C42.9011 118.151 42.8603 118.11 42.7923 118.096L40.0038 116.831C39.6502 116.682 39.4189 116.437 39.3101 116.11C39.2149 115.784 39.2421 115.444 39.4189 115.117C39.6229 114.791 39.895 114.587 40.2214 114.519C40.5479 114.451 40.8744 114.519 41.1736 114.723L43.6629 116.559C43.7445 116.614 43.7989 116.627 43.8533 116.6C43.9077 116.573 43.9213 116.518 43.8941 116.45L43.554 113.431C43.5268 113.05 43.6357 112.723 43.8669 112.479C44.0982 112.22 44.3974 112.098 44.7919 112.098C45.1455 112.098 45.4448 112.22 45.676 112.479C45.9073 112.737 45.9889 113.05 45.9481 113.431L45.608 116.45C45.5808 116.532 45.5944 116.573 45.6488 116.6C45.7033 116.627 45.7576 116.614 45.8393 116.559L48.3285 114.764C48.6278 114.532 48.9542 114.451 49.3079 114.519C49.648 114.587 49.92 114.777 50.0968 115.117C50.3281 115.525 50.3689 115.879 50.2329 116.192C50.0968 116.491 49.852 116.709 49.5256 116.845L46.737 118.11C46.6554 118.137 46.6282 118.178 46.6282 118.219C46.6282 118.273 46.669 118.314 46.737 118.328L49.5256 119.593C49.8792 119.742 50.1241 119.987 50.2329 120.314C50.3417 120.64 50.3009 120.98 50.0968 121.307C49.92 121.633 49.6616 121.837 49.3079 121.905C48.9679 121.973 48.6414 121.905 48.3285 121.701L45.8393 119.865C45.7576 119.81 45.7033 119.797 45.6488 119.824C45.5944 119.851 45.5808 119.905 45.608 119.973L45.9481 122.993C46.0025 123.374 45.9073 123.701 45.6624 123.945C45.404 124.204 45.0911 124.326 44.7103 124.326Z" fill="white"/>
<path d="M61.1985 124.326C60.8449 124.326 60.5592 124.204 60.3416 123.945C60.1239 123.687 60.0287 123.374 60.0559 122.993L60.396 119.973C60.4232 119.892 60.4096 119.851 60.3552 119.824C60.3008 119.797 60.2464 119.81 60.1647 119.865L57.6755 121.66C57.3627 121.891 57.0498 121.973 56.7233 121.905C56.3969 121.837 56.1248 121.647 55.9208 121.307C55.6895 120.898 55.6487 120.545 55.7847 120.232C55.9208 119.919 56.1656 119.715 56.4921 119.579L59.2806 118.314C59.3622 118.287 59.3894 118.246 59.3894 118.205C59.3894 118.151 59.3486 118.11 59.2806 118.096L56.4921 116.831C56.1384 116.682 55.9072 116.437 55.7984 116.11C55.7031 115.784 55.7303 115.444 55.9072 115.117C56.1112 114.791 56.3833 114.587 56.7097 114.519C57.0362 114.451 57.3626 114.519 57.6619 114.723L60.1512 116.559C60.2328 116.614 60.2872 116.627 60.3416 116.6C60.396 116.573 60.4096 116.518 60.3824 116.45L60.0423 113.431C60.0151 113.05 60.124 112.723 60.3552 112.479C60.5864 112.22 60.8857 112.098 61.2802 112.098C61.6338 112.098 61.9331 112.22 62.1643 112.479C62.3956 112.737 62.4772 113.05 62.4364 113.431L62.0963 116.45C62.0691 116.532 62.0827 116.573 62.1371 116.6C62.1915 116.627 62.2459 116.614 62.3275 116.559L64.8168 114.764C65.1161 114.532 65.4425 114.451 65.7962 114.519C66.1363 114.587 66.4083 114.777 66.5851 115.117C66.8164 115.525 66.8572 115.879 66.7212 116.192C66.5851 116.491 66.3403 116.709 66.0138 116.845L63.2253 118.11C63.1437 118.137 63.1165 118.178 63.1165 118.219C63.1165 118.273 63.1573 118.314 63.2253 118.328L66.0138 119.593C66.3675 119.742 66.6123 119.987 66.7212 120.314C66.83 120.64 66.7892 120.98 66.5851 121.307C66.4083 121.633 66.1499 121.837 65.7962 121.905C65.4561 121.973 65.1297 121.905 64.8168 121.701L62.3275 119.865C62.2459 119.81 62.1915 119.797 62.1371 119.824C62.0827 119.851 62.0691 119.905 62.0963 119.973L62.4364 122.993C62.4908 123.374 62.3956 123.701 62.1507 123.945C61.8923 124.204 61.5794 124.326 61.1985 124.326Z" fill="white"/>
<path d="M77.6985 124.326C77.3449 124.326 77.0592 124.204 76.8416 123.945C76.6239 123.687 76.5287 123.374 76.5559 122.993L76.896 119.973C76.9232 119.892 76.9096 119.851 76.8552 119.824C76.8008 119.797 76.7464 119.81 76.6647 119.865L74.1755 121.66C73.8627 121.891 73.5498 121.973 73.2233 121.905C72.8969 121.837 72.6248 121.647 72.4208 121.307C72.1895 120.898 72.1487 120.545 72.2847 120.232C72.4208 119.919 72.6656 119.715 72.9921 119.579L75.7806 118.314C75.8622 118.287 75.8894 118.246 75.8894 118.205C75.8894 118.151 75.8486 118.11 75.7806 118.096L72.9921 116.831C72.6384 116.682 72.4072 116.437 72.2984 116.11C72.2031 115.784 72.2303 115.444 72.4072 115.117C72.6112 114.791 72.8832 114.587 73.2097 114.519C73.5362 114.451 73.8626 114.519 74.1619 114.723L76.6511 116.559C76.7327 116.614 76.7872 116.627 76.8416 116.6C76.896 116.573 76.9096 116.518 76.8824 116.45L76.5423 113.431C76.5151 113.05 76.624 112.723 76.8552 112.479C77.0864 112.22 77.3857 112.098 77.7802 112.098C78.1338 112.098 78.4331 112.22 78.6643 112.479C78.8956 112.737 78.9772 113.05 78.9364 113.431L78.5963 116.45C78.5691 116.532 78.5827 116.573 78.6371 116.6C78.6915 116.627 78.7459 116.614 78.8275 116.559L81.3168 114.764C81.6161 114.532 81.9425 114.451 82.2962 114.519C82.6363 114.587 82.9083 114.777 83.0851 115.117C83.3164 115.525 83.3572 115.879 83.2212 116.192C83.0851 116.491 82.8403 116.709 82.5138 116.845L79.7253 118.11C79.6437 118.137 79.6165 118.178 79.6165 118.219C79.6165 118.273 79.6573 118.314 79.7253 118.328L82.5138 119.593C82.8675 119.742 83.1123 119.987 83.2212 120.314C83.33 120.64 83.2892 120.98 83.0851 121.307C82.9083 121.633 82.6499 121.837 82.2962 121.905C81.9561 121.973 81.6297 121.905 81.3168 121.701L78.8275 119.865C78.7459 119.81 78.6915 119.797 78.6371 119.824C78.5827 119.851 78.5691 119.905 78.5963 119.973L78.9364 122.993C78.9908 123.374 78.8955 123.701 78.6507 123.945C78.3923 124.204 78.0794 124.326 77.6985 124.326Z" fill="#FF5F42"/>
<defs>
<linearGradient id="paint0_linear_6024_692" x1="331.096" y1="138.051" x2="250.426" y2="147.801" gradientUnits="userSpaceOnUse">
<stop offset="1e-07" stop-color="#FEE1BC"/>
<stop offset="1" stop-color="#FD6B58"/>
</linearGradient>
<linearGradient id="paint1_linear_6024_692" x1="234.584" y1="344.415" x2="234.584" y2="150.43" gradientUnits="userSpaceOnUse">
<stop stop-color="#FCC845"/>
<stop offset="1" stop-color="#EF8522"/>
</linearGradient>
<linearGradient id="paint2_linear_6024_692" x1="324.361" y1="89.0717" x2="199.671" y2="104.558" gradientUnits="userSpaceOnUse">
<stop offset="1e-07" stop-color="#FEE1BC"/>
<stop offset="1" stop-color="#FD6B58"/>
</linearGradient>
<linearGradient id="paint3_linear_6024_692" x1="348.283" y1="325.519" x2="348.283" y2="148.553" gradientUnits="userSpaceOnUse">
<stop stop-color="#FCC845"/>
<stop offset="1" stop-color="#EF8522"/>
</linearGradient>
</defs>
</svg>
