<svg width="499" height="373" viewBox="0 0 499 373" fill="none" xmlns="http://www.w3.org/2000/svg">
<path d="M338.974 138.771C338.974 138.771 225.486 154.982 228.188 268.469C230.89 381.956 356.085 373.851 387.618 372.05C419.139 370.249 482.193 343.231 494.801 286.481C507.397 229.744 501.093 109.952 338.974 138.771Z" fill="white" fill-opacity="0.2"/>
<path d="M135.82 22.3114C124.558 23.7306 113.326 25.5518 102.437 28.7582C69.2527 38.5299 -2.17925 70.4735 0.0510404 164.088C2.95295 285.893 137.317 277.187 171.151 275.261C204.986 273.322 272.656 244.328 286.19 183.426C299.272 124.555 293.386 2.45574 135.82 22.3114Z" fill="white" fill-opacity="0.2"/>
<path d="M1.55061 164.052C0.445988 117.686 17.5635 86.6957 39.0036 66.0628C60.4895 45.3859 86.3888 35.0475 102.861 30.1971C113.635 27.0245 124.774 25.2152 136.007 23.7996C175.216 18.8588 204.845 22.7677 227.041 32.2105C249.215 41.6441 264.068 56.6413 273.685 74.0708C292.964 109.015 291.23 153.831 284.726 183.1C278.068 213.06 258.08 235.242 235.456 250.204C212.813 265.178 187.689 272.811 171.066 273.764C170.796 273.779 170.521 273.795 170.239 273.811C152.797 274.808 111.749 277.154 74.4784 264.652C55.5667 258.308 37.7111 248.166 24.4053 232.157C11.1145 216.167 2.26909 194.21 1.55061 164.052Z" stroke="white" stroke-opacity="0.2" stroke-width="3"/>
<path d="M140.907 78.143C128.661 35.9152 127.761 34.2266 127.761 34.2266L82.9062 45.509L100.768 119.983H124.033L121.969 109.276C123.108 108.951 124.259 108.613 125.397 108.263C133.777 105.749 135.141 99.2319 137.004 95.1918C138.681 91.5394 142.083 82.2082 140.907 78.143Z" fill="url(#paint0_linear_6024_900)"/>
<path d="M82.9062 45.4947L100.768 119.981H106.072L90.8365 43.5059L82.9062 45.4947Z" fill="#028017"/>
<path d="M236.797 137.244C237.422 136.619 244.152 127.338 244.99 127.138C245.828 126.925 258.624 122.097 260.312 121.259C261.988 120.421 264.853 118.595 264.64 119.858C264.428 121.121 262.651 123.973 260.763 125.024C258.874 126.075 256.885 127.25 256.885 127.25C256.885 127.25 269.118 126.913 270.382 126.287C271.645 125.662 277.724 123.973 277.724 123.973L277.098 126.7C277.098 126.7 275.835 130.477 274.159 131.528C272.483 132.579 271.645 137.407 269.331 138.032C267.017 138.658 253.17 143.273 252.545 143.273C251.919 143.273 247.929 149.99 247.929 149.99L236.797 137.244Z" fill="#EEC286"/>
<path d="M82.8291 62.5681C82.6039 62.0427 77.3129 49.6596 82.2662 38.1395C85.1806 31.385 91.0095 26.3942 99.6151 23.3047L100.103 24.6431C91.8851 27.595 86.3189 32.3231 83.5796 38.7023C78.8514 49.6471 84.0799 61.8926 84.1299 62.0052L82.8291 62.5681Z" fill="#F6337A"/>
<path d="M156.018 237.748C156.018 237.748 151.515 233.132 150.339 232.294C150.089 232.119 144.247 228.805 141.108 229.543C133.79 231.256 124.672 232.97 124.672 232.97L126.473 246.479L140.883 243.552C141.758 243.965 144.76 243.827 145.21 244.615C146.411 246.716 146.611 249.168 147.287 249.168C147.962 249.168 147.775 244.99 147.237 243.652C146.849 242.701 144.76 239.549 144.76 239.549C144.76 239.549 146.799 240.475 147.862 241.113C148.162 241.3 148.4 241.463 148.475 241.575C148.813 242.076 151.177 248.155 152.015 248.33C152.853 248.493 151.677 242.088 151.339 241.238C151.327 241.213 151.352 241.263 151.339 241.238C150.952 240.35 148.638 237.861 148.638 237.861C148.638 237.861 153.704 239.937 154.216 240.838C154.717 241.738 157.368 247.905 158.094 247.479C159.332 246.741 156.018 237.748 156.018 237.748Z" fill="#EEC286"/>
<path d="M236.895 255.158H100.492V258.711H236.895V255.158Z" fill="#EFEFEF"/>
<path d="M236.022 136.27C226.878 144.337 195.608 168.303 179.009 188.354C178.634 187.553 163.311 141.11 162.098 139.096C161.085 137.395 130.94 123.574 129.201 123.123C129.176 123.111 96.1296 123.098 94.4285 123.511C77.83 127.589 56.3284 139.197 54.202 143.474C39.9175 172.306 32.963 208.142 29.8984 227.742C29.8984 227.742 38.6667 233.759 52.1131 237.299C52.3508 249.569 53.1137 257.725 53.1137 257.725L127.05 267.068C127.05 267.068 134.23 241.789 146.438 205.19L160.622 224.54C165.863 229.619 169.053 232.896 183.687 222.827C229.768 191.093 249.818 152.243 249.818 152.243L236.022 136.27Z" fill="url(#paint1_linear_6024_900)"/>
<path d="M153.215 197.608L142.658 251.918C142.595 252.244 142.307 252.469 141.982 252.469H99.0665C97.7031 252.469 96.5898 253.569 96.5898 254.945C96.5898 256.309 97.6905 257.422 99.0665 257.422H238.383C238.709 257.422 238.996 257.184 239.059 256.859L250.366 197.307C250.854 194.731 248.865 192.354 246.251 192.379L158.631 193.117C155.979 193.142 153.715 195.018 153.215 197.608Z" fill="#EEEEEE"/>
<path d="M202.897 218.535C202.897 218.535 196.042 216.309 193.928 221.074C191.814 225.84 192.79 232.732 203.985 230.943C205.211 230.743 206.824 228.992 207.612 226.766C207.612 226.778 199.995 226.803 202.897 218.535Z" fill="#122341"/>
<path d="M203.622 215.345C203.622 215.345 203.985 209.179 198.544 208.453C198.544 208.453 196.73 214.62 203.622 215.345Z" fill="#122341"/>
<path d="M247.075 192.367L158.054 193.118C155.74 193.143 153.764 194.781 153.313 197.058L142.531 252.482L249.977 193.906C249.364 192.98 248.301 192.355 247.075 192.367Z" fill="#D1D3D4"/>
<path d="M120.495 158.047L129.188 122.799L94.8906 123.149C94.8906 123.149 114.866 150.53 120.495 158.047Z" fill="#F8B300"/>
<path d="M98.5273 117.518L125.783 116.805L127.659 127.849L112.862 123.622L100.641 130.664L98.5273 117.518Z" fill="white"/>
<path d="M137.657 230.604C137.607 230.604 137.569 230.592 137.519 230.579C109.388 219.147 62.2947 216.533 61.8194 216.508C61.7068 216.508 61.6193 216.445 61.5442 216.358C61.4817 216.27 61.4567 216.157 61.4942 216.057L74.6529 167.5C74.7029 167.313 74.903 167.2 75.0907 167.25C75.2783 167.3 75.3908 167.5 75.3408 167.688L62.2947 215.82C67.1604 216.107 111.002 219.034 137.782 229.917C137.97 229.992 138.057 230.204 137.982 230.379C137.92 230.517 137.795 230.604 137.657 230.604Z" fill="white"/>
<path d="M122.755 164.462C122.755 165.4 121.992 166.175 121.042 166.175C120.104 166.175 119.328 165.412 119.328 164.462C119.328 163.524 120.091 162.748 121.042 162.748C121.992 162.748 122.755 163.524 122.755 164.462Z" fill="white"/>
<path d="M115.202 67.198C115.277 68.1111 114.589 68.9116 113.676 68.9742C112.763 69.0492 111.963 68.3613 111.9 67.4482C111.825 66.535 112.513 65.7345 113.426 65.672C114.339 65.6094 115.14 66.2849 115.202 67.198Z" fill="#20205C"/>
<path d="M129.187 63.7956C129.262 64.7087 128.574 65.5093 127.661 65.5718C126.748 65.6469 125.947 64.9589 125.885 64.0458C125.809 63.1327 126.497 62.3322 127.411 62.2696C128.324 62.2071 129.112 62.8825 129.187 63.7956Z" fill="#20205C"/>
<path d="M126.045 91.6769C124.006 91.6769 122.268 91.1766 120.829 90.1634C117.465 87.7993 117.114 83.5841 117.089 83.3964C117.064 83.1588 117.177 82.9211 117.377 82.771C117.565 82.6209 117.827 82.5834 118.053 82.671C127.234 86.0982 130.748 81.5953 130.899 81.4076C131.136 81.0949 131.574 81.0324 131.887 81.2575C132.199 81.4952 132.274 81.933 132.037 82.2457C131.874 82.4708 128.109 87.4241 118.715 84.4096C119.028 85.6729 119.804 87.7118 121.655 89.0001C123.669 90.4136 126.496 90.6262 130.048 89.6506C130.423 89.5505 130.823 89.7632 130.924 90.1509C131.024 90.5262 130.811 90.9264 130.423 91.0265C128.847 91.4643 127.384 91.6769 126.045 91.6769Z" fill="#20205C"/>
<path d="M123.982 73.2043C123.644 73.2043 123.331 72.9542 123.281 72.6039C123.219 72.2162 123.481 71.8534 123.869 71.7909C123.881 71.7909 125.02 71.5908 126.333 70.7527C125.82 70.415 124.544 69.9147 123.294 69.602C122.918 69.5019 122.681 69.1266 122.781 68.7389C122.881 68.3636 123.269 68.126 123.644 68.2261C125.482 68.6889 127.709 69.4769 127.909 70.6026C127.959 70.8653 127.947 71.3906 127.309 71.8159C125.645 72.9417 124.144 73.1918 124.082 73.2043C124.057 73.1918 124.019 73.2043 123.982 73.2043Z" fill="#20205C"/>
<path d="M138.282 22.244C137.944 19.5423 112.903 24.7457 112.903 24.7457C112.903 24.7457 115.042 16.7654 115.717 14.4139C116.392 12.0498 80.1936 26.4093 77.5043 29.4488C74.8025 32.4883 73.3516 57.4047 73.3516 57.4047L90.5754 93.8663L97.3299 92.5154L92.264 70.9137L95.979 70.5759L95.3036 51.6635C95.3036 51.6635 97.2548 51.0506 99.7565 50.2625C100.419 50.225 101.07 50.175 101.708 50.1249C104.347 50.4627 107.524 50.7128 111.139 50.7128C115.154 50.7128 119.695 50.4001 124.548 49.5371L124.423 48.8366C117.13 50.1375 110.564 50.175 105.41 49.7872C123.735 47.8109 130.127 42.6075 130.127 42.6075C125.574 44.4337 118.156 45.7345 111.714 46.5976C116.868 45.1216 127.012 42.1697 130.977 39.6305C135.705 36.5785 138.62 24.9458 138.282 22.244Z" fill="#291444"/>
<path d="M81.2148 59.0061C81.2148 59.0061 76.5117 65.0976 78.4005 77.4308C80.2892 89.7639 93.5855 92.0029 98.3136 84.3728C103.042 76.7428 98.864 44.3714 81.2148 59.0061Z" fill="#028017"/>
<path d="M79.9515 65.9604C80.039 61.2573 83.6539 57.7425 85.6928 56.1289C84.3043 56.7418 82.8159 57.6674 81.2148 59.0058C81.2148 59.0058 76.5117 65.0973 78.4005 77.4305C79.7263 86.0862 86.6684 89.7636 92.3222 88.5503C90.4084 88.1625 88.2194 87.4246 84.4044 85.5733C79.4887 83.2093 79.8389 72.5147 79.9515 65.9604Z" fill="#5FCE73"/>
<path d="M84.8314 61.9448C83.9809 61.9448 83.2304 61.3319 83.0803 60.4688C82.9802 59.8684 80.5912 45.5215 89.472 34.214C95.476 26.5715 105.12 22.2561 118.103 21.4056C119.067 21.3305 119.93 22.081 119.992 23.0692C120.055 24.0448 119.317 24.8954 118.329 24.9579C106.408 25.7334 97.6399 29.586 92.2864 36.3904C84.3812 46.4346 86.5576 59.7308 86.5826 59.8684C86.7452 60.8316 86.1073 61.7572 85.1317 61.9198C85.0441 61.9323 84.9315 61.9448 84.8314 61.9448Z" fill="#028017"/>
<path d="M111.975 93.2775C101.13 93.2775 93.7751 83.8587 93.6875 83.7462L95.3761 82.4453C95.4011 82.4828 97.9903 85.81 102.243 88.3367C107.834 91.6514 113.538 92.0517 119.217 89.5625L120.08 91.5138C117.216 92.7646 114.501 93.2775 111.975 93.2775Z" fill="#028017"/>
<path d="M127.773 92.1399L122.257 93.4032C120.619 93.7785 118.98 92.7528 118.605 91.1142C118.229 89.4756 119.255 87.8371 120.894 87.4618L126.41 86.1985C128.048 85.8232 129.687 86.8489 130.062 88.4875C130.425 90.1261 129.399 91.7647 127.773 92.1399Z" fill="#028017"/>
<path d="M93.1126 85.8749C92.8749 85.8749 92.6372 85.7498 92.5122 85.5371C92.2995 85.1994 92.4121 84.7616 92.7373 84.5615C98.3035 81.1092 96.7649 71.5654 95.3515 66.1869C93.2501 58.1691 88.1968 58.5944 88.1343 58.5944C87.734 58.6194 87.3963 58.3442 87.3588 57.9564C87.3212 57.5687 87.6089 57.2185 87.9967 57.1809C88.2593 57.1559 94.3258 56.6306 96.7274 65.8241C98.2409 71.5779 99.8295 81.8347 93.4878 85.7748C93.3627 85.8373 93.2376 85.8749 93.1126 85.8749Z" fill="#5FCE73"/>
<path d="M259.824 130.59C259.636 130.59 259.486 130.452 259.473 130.252C259.461 130.052 259.611 129.889 259.799 129.877C259.861 129.877 265.69 129.489 267.766 129.251C269.83 129.026 276.56 127.012 276.635 126.987C276.822 126.937 277.022 127.037 277.073 127.225C277.123 127.413 277.022 127.613 276.835 127.663C276.56 127.75 269.968 129.714 267.841 129.952C265.74 130.19 259.899 130.577 259.836 130.577C259.836 130.59 259.836 130.59 259.824 130.59Z" fill="#F6337A"/>
<path d="M260.761 133.842C260.573 133.842 260.411 133.692 260.411 133.505C260.398 133.305 260.548 133.142 260.749 133.129C260.799 133.129 265.689 132.892 267.778 132.667C269.842 132.442 273.244 131.478 273.282 131.466C273.469 131.416 273.67 131.516 273.72 131.716C273.77 131.904 273.657 132.104 273.469 132.154C273.332 132.191 269.967 133.142 267.853 133.38C265.752 133.617 260.836 133.855 260.786 133.855C260.774 133.842 260.774 133.842 260.761 133.842Z" fill="#F6337A"/>
<path d="M262.798 137.095C262.623 137.095 262.473 136.957 262.448 136.782C262.423 136.582 262.561 136.407 262.761 136.382C262.823 136.369 269.253 135.594 271.467 134.906C271.654 134.844 271.854 134.956 271.917 135.144C271.98 135.331 271.867 135.531 271.679 135.594C269.403 136.294 263.111 137.057 262.849 137.095C262.824 137.095 262.811 137.095 262.798 137.095Z" fill="#F6337A"/>
<path d="M171.153 275.259C185.775 274.421 206.714 268.53 226.877 257.197H53.25C95.6405 279.925 151.077 276.397 171.153 275.259Z" fill="#38BA4E"/>
<path d="M358.173 288.044C355.421 282.528 354.52 272.934 355.521 259.538C356.259 249.581 357.835 241.138 357.847 241.051L358.548 241.176C358.485 241.514 352.369 274.823 358.811 287.719L358.173 288.044Z" fill="#291444"/>
<path d="M358.2 241.126C358.2 241.126 348.694 310.984 386.732 334.888C417.915 354.488 443.256 358.816 470.337 332.686C470.337 332.686 451.362 321.541 448.547 311.497C448.547 311.497 465.058 323.643 478.067 325.894C478.067 325.894 460.918 318.139 452.175 301.978C441.843 282.866 438.391 225.228 424.544 203.526C412.924 185.314 380.277 184.163 367.244 204.326C354.173 224.502 358.2 241.126 358.2 241.126Z" fill="#291444"/>
<path d="M364.03 276.635L325.017 316.511L301.251 260.762L301.451 252.944C301.451 252.944 298.812 245.064 300.788 237.447C302.764 229.829 295.472 242.55 294.872 246.378C294.872 246.378 281.188 242.512 280.162 240.136C279.136 237.759 276.172 235.658 276.172 235.658L276.972 241.887C276.972 241.887 275.822 244.164 276.51 245.752C277.198 247.341 276.259 249.955 277.71 251.593C279.161 253.22 289.118 262.05 289.118 262.05L290.294 264.239C290.294 264.239 302.614 338.626 321.552 340.602C340.84 342.616 384.056 298.912 384.056 298.912L364.03 276.635Z" fill="#EEC286"/>
<path d="M369.469 255.783L379.088 285.728L401.59 275.171L385.054 210.016L369.469 255.783Z" fill="#EFA3B7"/>
<path d="M371.034 274.861C371.034 274.861 385.006 276.724 396.914 266.43C396.914 266.43 411.135 256.874 423.356 264.704C433.312 271.283 418.628 366.684 418.628 366.684L353.385 364.244L356.149 322.492L350.383 289.383C350.383 289.383 355.499 283.954 359.264 280.302C367.619 272.246 371.034 274.861 371.034 274.861Z" fill="url(#paint2_linear_6024_900)"/>
<path d="M310.141 366.059C310.141 366.059 334.932 334.901 418.612 366.685C418.612 366.685 353.382 375.665 310.141 366.059Z" fill="#0E8B23"/>
<path d="M409.196 215.384L379.789 266.33C379.789 266.33 370.17 261.401 361.014 255.935C354.685 252.158 353.722 246.917 353.147 243.427C352.546 239.725 353.259 231.669 355.01 228.142C371.909 193.932 370.546 195.083 370.546 195.083L409.196 215.384Z" fill="url(#paint3_linear_6024_900)"/>
<path d="M405.005 229.417C404.067 229.617 380.177 239.899 380.177 239.899L374.16 261.676L409.446 244.965L414.9 226.215L405.005 229.417Z" fill="#363463"/>
<path d="M418.176 309.346L404.392 293.836L396.099 300.628C393.172 291.196 385.405 262.953 385.405 262.953L400.727 251.558L403.529 246.567C403.529 246.567 411.109 227.442 409.408 227.642C407.707 227.83 401.015 241.664 401.015 241.664C401.015 241.664 407.482 227.104 406.043 227.067C404.592 227.029 402.766 231.57 402.015 232.508C401.265 233.458 396.299 245.879 396.037 246.592C395.774 247.305 390.37 250.294 390.37 250.294C390.37 250.294 394.548 239.775 393.347 239.5C392.146 239.225 387.218 250.682 386.956 251.395C386.693 252.108 382.79 253.447 380.101 254.097C377.424 254.747 372.458 258.95 371.921 260.864C371.383 262.778 373.934 286.481 375.761 294.824C381.089 319.165 383.178 325.306 388.256 331.11C392.647 336.126 408.933 322.817 418.176 309.346Z" fill="#EEC286"/>
<path d="M419.729 201.825C412.712 197.322 405.845 195.446 400.291 194.208C398.127 190.718 391.085 183.301 372.91 191.406C355.874 198.998 359.664 217.811 359.664 217.811C359.664 217.811 368.057 205.528 383.242 202.363C380.478 212.42 378.852 231.808 389.359 243.653L408.934 259.688C408.934 259.688 417.627 246.655 421.23 241.914C427.284 233.921 437.916 213.495 419.729 201.825Z" fill="#291444"/>
<path d="M467.72 315.487C458.251 312.46 449.896 298.301 442.891 273.384C437.7 254.897 435.236 237.06 435.211 236.885L435.911 236.785C436.011 237.498 445.843 307.757 467.932 314.812L467.72 315.487Z" fill="#291444"/>
<path d="M474.651 331.785C461.004 325.731 453.299 318.076 449.234 312.71C444.819 306.881 443.643 302.54 443.605 302.353L444.293 302.178C444.344 302.353 449.159 319.702 474.951 331.134L474.651 331.785Z" fill="#291444"/>
<path d="M377.226 224.004C377.063 224.904 377.664 225.767 378.564 225.942C379.465 226.105 380.328 225.505 380.503 224.604C380.666 223.703 380.078 222.84 379.165 222.665C378.264 222.503 377.401 223.103 377.226 224.004Z" fill="#20205C"/>
<path d="M365.457 220.625C365.294 221.526 365.882 222.389 366.795 222.564C367.696 222.727 368.559 222.126 368.721 221.226C368.884 220.325 368.296 219.462 367.383 219.287C366.495 219.137 365.619 219.725 365.457 220.625Z" fill="#20205C"/>
<path d="M369.718 230.53C369.655 230.53 369.593 230.518 369.53 230.505C369.468 230.493 368.004 230.08 366.466 228.791C365.89 228.304 365.928 227.791 366.003 227.528C366.316 226.427 368.617 225.877 370.493 225.614C370.881 225.552 371.244 225.827 371.294 226.215C371.344 226.602 371.081 226.965 370.693 227.015C369.405 227.203 368.092 227.541 367.554 227.828C368.792 228.816 369.893 229.129 369.893 229.129C370.268 229.229 370.493 229.629 370.393 230.005C370.318 230.317 370.031 230.53 369.718 230.53Z" fill="#20205C"/>
<path d="M380.764 227.855C376.361 210.206 383.766 200.549 383.841 200.449L384.404 200.887C384.329 200.975 377.137 210.381 381.452 227.68L380.764 227.855Z" fill="#291444"/>
<path d="M362.893 219.748L362.242 219.448C368.822 205.039 383.031 202.049 383.169 202.012L383.306 202.712C383.181 202.75 369.322 205.677 362.893 219.748Z" fill="#291444"/>
<path d="M367.62 244.505C366.594 244.505 365.531 244.242 364.455 243.729C364.105 243.554 363.955 243.129 364.117 242.778C364.292 242.428 364.705 242.278 365.068 242.441C366.644 243.204 368.095 243.279 369.471 242.691C371.697 241.74 373.236 239.264 374.049 237.6C367.444 240.177 362.967 236.912 362.766 236.762C362.454 236.524 362.391 236.087 362.629 235.761C362.866 235.449 363.304 235.386 363.617 235.624C363.805 235.761 368.395 239.051 375.074 235.561C375.337 235.424 375.65 235.461 375.862 235.649C376.088 235.836 376.163 236.137 376.075 236.412C376 236.649 374.086 242.278 370.021 243.992C369.258 244.342 368.445 244.505 367.62 244.505Z" fill="#20205C"/>
<path d="M354.148 351.185C353.423 334.037 355.574 320.54 357.5 312.235C359.602 303.229 361.903 298.213 361.928 298.15L362.579 298.451C362.491 298.651 353.473 318.501 354.861 351.148L354.148 351.185Z" fill="white"/>
<path d="M412.799 234.896C412.799 234.896 418.253 190.142 372.91 191.405C372.91 191.405 408.284 191.905 412.799 234.896Z" fill="#69B588"/>
<path d="M288.327 248.454C288.289 248.454 288.239 248.442 288.201 248.429C287.951 248.342 282.21 246.215 281.009 245.502C279.808 244.789 276.694 241.737 276.556 241.612C276.419 241.475 276.419 241.249 276.556 241.112C276.694 240.974 276.919 240.962 277.057 241.112C277.082 241.137 280.246 244.226 281.372 244.902C282.51 245.577 288.377 247.754 288.439 247.766C288.627 247.829 288.714 248.041 288.652 248.217C288.602 248.367 288.477 248.454 288.327 248.454Z" fill="#F6337A"/>
<path d="M286.453 250.569C286.416 250.569 286.378 250.569 286.341 250.557C286.141 250.494 281.513 248.968 280.312 248.255C279.136 247.555 276.409 245.666 276.297 245.578C276.134 245.466 276.097 245.241 276.209 245.078C276.322 244.915 276.547 244.878 276.71 244.99C276.735 245.016 279.536 246.954 280.687 247.642C281.813 248.318 286.516 249.869 286.566 249.881C286.754 249.944 286.854 250.144 286.791 250.331C286.741 250.482 286.604 250.569 286.453 250.569Z" fill="#F6337A"/>
<path d="M286.054 254.096C286.003 254.096 285.953 254.083 285.903 254.058C285.591 253.908 278.123 250.519 276.935 249.806C276.772 249.706 276.71 249.48 276.81 249.318C276.91 249.155 277.135 249.093 277.298 249.193C278.436 249.881 286.116 253.37 286.191 253.408C286.366 253.496 286.454 253.696 286.366 253.883C286.329 254.021 286.191 254.096 286.054 254.096Z" fill="#F6337A"/>
<path d="M36.5383 125.149L35.375 124.336C36.6759 122.472 37.4389 121.471 37.4764 121.434L38.6021 122.297C38.5896 122.297 37.8141 123.31 36.5383 125.149Z" fill="white"/>
<path d="M135.693 361.531L135.68 360.105C138.032 360.092 140.434 360.03 142.823 359.917L142.885 361.343C140.484 361.443 138.057 361.518 135.693 361.531ZM128.488 361.431C126.087 361.343 123.66 361.205 121.296 361.018L121.408 359.604C123.748 359.792 126.149 359.93 128.538 360.017L128.488 361.431ZM150.077 360.868L149.965 359.454C151.778 359.304 153.617 359.129 155.443 358.916C155.994 358.854 156.532 358.791 157.082 358.729L157.245 360.142C156.694 360.205 156.156 360.267 155.606 360.33C153.755 360.542 151.904 360.718 150.077 360.868ZM114.141 360.267C111.752 359.967 109.363 359.604 107.024 359.179L107.274 357.778C109.588 358.191 111.965 358.554 114.329 358.854L114.141 360.267ZM164.362 359.242L164.162 357.828C166.551 357.503 168.927 357.14 171.241 356.765L171.466 358.166C169.152 358.554 166.763 358.916 164.362 359.242ZM99.9568 357.741C97.6053 357.19 95.2662 356.59 92.9897 355.927L93.39 354.564C95.6415 355.214 97.968 355.827 100.295 356.365L99.9568 357.741ZM178.546 356.953L178.283 355.552C180.635 355.114 182.999 354.639 185.288 354.138L185.588 355.527C183.287 356.027 180.91 356.502 178.546 356.953ZM192.593 353.913L192.255 352.537C194.594 351.962 196.921 351.349 199.16 350.711L199.548 352.074C197.284 352.712 194.944 353.325 192.593 353.913ZM86.1227 353.713C83.8587 352.912 81.5947 352.037 79.3932 351.124L79.9436 349.81C82.1201 350.723 84.3465 351.587 86.598 352.375L86.1227 353.713ZM206.44 349.998L206.002 348.647C208.303 347.909 210.58 347.134 212.756 346.333L213.244 347.671C211.043 348.459 208.754 349.248 206.44 349.998ZM72.8389 348.134C70.675 347.071 68.5361 345.933 66.4722 344.757L67.1727 343.519C69.2115 344.682 71.3379 345.808 73.4643 346.858L72.8389 348.134ZM219.948 345.045L219.398 343.731C221.625 342.806 223.826 341.83 225.915 340.842L226.528 342.13C224.414 343.131 222.2 344.107 219.948 345.045ZM60.3182 340.98C58.3169 339.666 56.328 338.265 54.4143 336.827L55.2648 335.689C57.1536 337.115 59.1049 338.49 61.0937 339.791L60.3182 340.98ZM232.957 338.878L232.282 337.627C234.395 336.489 236.472 335.288 238.448 334.062L239.199 335.276C237.185 336.514 235.083 337.727 232.957 338.878ZM48.798 332.311C46.9718 330.748 45.1832 329.109 43.482 327.433L44.4702 326.42C46.1588 328.071 47.9225 329.685 49.7237 331.236L48.798 332.311ZM245.19 331.273L244.365 330.11C246.316 328.721 248.217 327.258 250.006 325.782L250.919 326.883C249.105 328.384 247.179 329.86 245.19 331.273ZM38.4787 322.23C36.8777 320.454 35.3141 318.59 33.8257 316.714L34.9389 315.825C36.4024 317.677 37.9534 319.515 39.5294 321.267L38.4787 322.23ZM256.285 322.055L255.297 321.029C257.01 319.365 258.649 317.627 260.175 315.863L261.251 316.789C259.7 318.602 258.036 320.366 256.285 322.055ZM265.729 311.135L264.565 310.309C265.954 308.371 267.242 306.369 268.405 304.343L269.644 305.056C268.455 307.107 267.142 309.159 265.729 311.135ZM29.5353 310.91C28.1719 308.933 26.8586 306.895 25.6203 304.843L26.8461 304.105C28.0594 306.132 29.3602 308.145 30.7111 310.097L29.5353 310.91ZM272.933 298.589L271.633 298.014C272.596 295.85 273.459 293.623 274.184 291.397L275.535 291.835C274.785 294.111 273.909 296.388 272.933 298.589ZM22.1054 298.539C21.0047 296.4 19.9665 294.199 19.0159 292.01L20.3168 291.447C21.2549 293.611 22.2806 295.775 23.3688 297.889L22.1054 298.539ZM16.3516 285.293C15.5386 283.016 14.8006 280.702 14.1627 278.401L15.5386 278.013C16.164 280.277 16.8895 282.553 17.69 284.805L16.3516 285.293ZM277.399 284.83L276.01 284.542C276.498 282.203 276.849 279.839 277.074 277.525L278.487 277.663C278.262 280.027 277.899 282.441 277.399 284.83ZM12.4991 271.371C12.0238 268.97 11.6485 266.568 11.3859 264.229L12.7993 264.066C13.062 266.368 13.4372 268.732 13.9 271.096L12.4991 271.371ZM44.6453 270.671C42.1562 270.658 39.7171 270.433 37.3905 269.995L37.6532 268.594C39.8922 269.007 42.2562 269.232 44.6578 269.245L44.6453 270.671ZM51.9001 270.145L51.7 268.732C53.326 268.494 54.9896 268.169 56.6657 267.769C57.3162 267.619 57.9291 267.419 58.517 267.181L59.0548 268.494C58.4044 268.757 57.7164 268.982 57.0035 269.145C55.2773 269.57 53.5637 269.908 51.9001 270.145ZM30.3734 267.956C28.0094 266.993 25.8454 265.805 23.9442 264.417L24.7822 263.266C26.5834 264.579 28.6473 265.717 30.9113 266.63L30.3734 267.956ZM64.8586 263.791L63.6704 263.003C64.8461 261.239 65.6091 259.088 65.9594 256.599L67.3728 256.799C66.9851 259.501 66.147 261.852 64.8586 263.791ZM19.0159 258.963C17.6275 256.987 16.3141 254.935 15.1259 252.859L16.3642 252.146C17.5399 254.172 18.8158 256.199 20.1917 258.137L19.0159 258.963ZM10.8855 256.999C10.873 256.561 10.8731 256.111 10.8731 255.673C10.8731 253.647 10.9606 251.658 11.1482 249.744L12.5616 249.882C12.3865 251.746 12.299 253.697 12.299 255.673C12.299 256.099 12.299 256.536 12.3115 256.974L10.8855 256.999ZM65.8593 249.644C65.5341 247.405 64.9337 245.116 64.0956 242.852L65.434 242.352C66.3096 244.704 66.9225 247.093 67.2728 249.432L65.8593 249.644ZM11.7987 246.442C10.798 244.253 9.8724 242.002 9.07187 239.738L10.4102 239.262C11.1982 241.489 12.0989 243.703 13.087 245.842L11.7987 246.442ZM13.6999 242.915L12.3115 242.577C12.9119 240.088 13.6999 237.761 14.6505 235.66L15.9389 236.248C15.0383 238.262 14.2753 240.501 13.6999 242.915ZM61.0311 236.536C59.7928 234.497 58.3669 232.608 56.7908 230.944L57.829 229.969C59.4551 231.72 60.9436 233.671 62.2444 235.798L61.0311 236.536ZM6.97045 232.808C6.38256 230.494 5.88224 228.118 5.49449 225.729L6.89541 225.503C7.28316 227.842 7.77099 230.194 8.34637 232.458L6.97045 232.808ZM19.6413 230.357L18.5531 229.431C20.2292 227.455 22.1555 225.891 24.2694 224.753L24.9448 226.004C22.981 227.054 21.1923 228.518 19.6413 230.357ZM51.4623 226.416C49.4735 225.116 47.3596 224.102 45.1832 223.44L45.5959 222.076C47.8975 222.789 50.1239 223.84 52.2378 225.228L51.4623 226.416ZM31.4366 223.402L31.0614 222.026C33.5005 221.351 35.9521 221 38.3286 221V222.426C36.0772 222.426 33.7632 222.752 31.4366 223.402ZM4.63142 218.561C4.44379 216.21 4.34375 213.771 4.34375 211.344H5.76967C5.78218 213.746 5.86975 216.135 6.05737 218.449L4.63142 218.561ZM5.99481 204.214L4.56889 204.114C4.7315 201.763 4.98164 199.349 5.29435 196.935L6.70779 197.122C6.39508 199.511 6.15742 201.9 5.99481 204.214ZM7.87105 190.093L6.47013 189.817C6.92043 187.503 7.45829 185.139 8.04618 182.788L9.4221 183.138C8.84672 185.464 8.32134 187.804 7.87105 190.093ZM11.3609 176.258L9.99747 175.846C10.6854 173.582 11.4484 171.28 12.2615 169.004L13.5998 169.479C12.7993 171.743 12.0363 174.019 11.3609 176.258ZM16.139 162.8L14.8256 162.262C15.7137 160.073 16.6644 157.846 17.665 155.632L18.9659 156.22C17.9652 158.422 17.0271 160.623 16.139 162.8ZM22.0179 149.766L20.742 149.128C21.7927 147.002 22.9185 144.85 24.0567 142.736L25.3076 143.412C24.1818 145.513 23.0686 147.652 22.0179 149.766ZM28.8349 137.195L27.6091 136.47C28.8349 134.393 30.0982 132.317 31.3741 130.328L32.5748 131.091C31.3115 133.067 30.0482 135.119 28.8349 137.195Z" fill="white"/>
<path d="M277.269 270.157C277.181 267.98 276.969 266.717 276.969 266.704L278.37 266.467C278.382 266.517 278.595 267.818 278.682 270.094L277.269 270.157Z" fill="white"/>
<path d="M421.241 112.49L419.815 112.427C419.827 112.089 419.84 111.752 419.852 111.414L421.278 111.464C421.266 111.802 421.253 112.152 421.241 112.49ZM419.815 104.359C419.702 101.983 419.49 99.6186 419.177 97.3546L420.59 97.1544C420.916 99.4685 421.128 101.87 421.241 104.284L419.815 104.359ZM417.864 90.45C417.313 88.161 416.625 85.897 415.85 83.7206L417.188 83.2328C417.989 85.4467 418.677 87.7608 419.252 90.1123L417.864 90.45ZM312.281 83.5079L312.081 82.0945C314.258 81.7818 316.422 81.0188 318.51 79.843L319.211 81.0814C316.972 82.3572 314.645 83.1702 312.281 83.5079ZM304.952 83.0201C302.612 82.3572 300.424 81.2314 298.422 79.6804L299.298 78.5547C301.149 80.0056 303.188 81.0438 305.339 81.6567L304.952 83.0201ZM413.098 77.2663C412.06 75.1775 410.896 73.1261 409.621 71.1748L410.809 70.3993C412.11 72.4006 413.298 74.502 414.361 76.6409L413.098 77.2663ZM324.977 76.6409L323.977 75.6278C325.703 73.9266 327.116 72.0879 328.192 70.1742L329.43 70.8746C328.292 72.901 326.791 74.8397 324.977 76.6409ZM293.506 74.2518C292.193 72.188 291.217 69.924 290.63 67.5349L292.006 67.1972C292.556 69.4362 293.469 71.5626 294.707 73.5013L293.506 74.2518ZM405.468 65.5211C403.992 63.7449 402.391 62.0063 400.69 60.3677L401.678 59.342C403.416 61.0181 405.055 62.7943 406.556 64.608L405.468 65.5211ZM331.919 63.9951L330.518 63.7449C330.744 62.5066 330.856 61.2307 330.856 59.9424C330.856 58.9417 330.794 57.9161 330.656 56.8779L332.069 56.6903C332.207 57.7785 332.282 58.8792 332.282 59.9299C332.27 61.3183 332.144 62.6817 331.919 63.9951ZM291.443 60.3552L290.029 60.2426C290.217 57.8285 290.805 55.4394 291.743 53.1379L293.056 53.6758C292.168 55.8522 291.63 58.1037 291.443 60.3552ZM395.386 55.7396C393.572 54.3137 391.646 52.9503 389.645 51.6619L390.408 50.4611C392.447 51.762 394.411 53.1629 396.262 54.6139L395.386 55.7396ZM194.429 51.024L193.641 49.8357C193.666 49.8232 195.892 48.3348 199.807 46.1333L200.508 47.3716C196.655 49.548 194.454 51.0115 194.429 51.024ZM328.93 50.161C328.142 48.0596 327.116 45.9457 325.878 43.8693L327.104 43.1438C328.379 45.2952 329.443 47.4842 330.256 49.6606L328.93 50.161ZM383.553 48.1221C381.515 47.0464 379.363 46.0332 377.174 45.0951L377.737 43.7817C379.963 44.7324 382.14 45.7581 384.216 46.8588L383.553 48.1221ZM296.546 47.7344L295.42 46.8588C295.583 46.6461 295.758 46.4335 295.921 46.2208C297.146 44.7324 298.848 43.3314 300.974 42.0806L301.699 43.3064C299.711 44.4822 298.134 45.758 297.021 47.1214C296.859 47.3216 296.696 47.5342 296.546 47.7344ZM206.762 44.0319L206.111 42.7686C208.213 41.6929 210.377 40.6422 212.541 39.6415L213.141 40.9299C210.99 41.918 208.838 42.9687 206.762 44.0319ZM370.582 42.5684C368.393 41.8179 366.117 41.1175 363.828 40.5046L364.203 39.1287C366.53 39.7541 368.831 40.4545 371.058 41.2175L370.582 42.5684ZM308.054 40.442L307.591 39.1037C309.717 38.3657 312.044 37.7152 314.52 37.1774L314.821 38.5658C312.394 39.0912 310.117 39.7291 308.054 40.442ZM356.936 38.891C354.647 38.4282 352.295 38.0405 349.956 37.7153L350.156 36.3018C352.52 36.627 354.897 37.0273 357.211 37.4901L356.936 38.891ZM321.863 38.4908C319.836 37.3025 317.747 36.1767 315.646 35.1636L316.271 33.8877C318.098 34.7758 319.924 35.7389 321.7 36.7521L321.6 35.9766C323.902 35.6889 326.303 35.4763 328.742 35.3512L328.817 36.7771C326.691 36.8897 324.602 37.0648 322.576 37.29L321.863 38.4908ZM219.633 38.078L219.082 36.7646C221.284 35.8515 223.523 34.9634 225.737 34.1504L226.225 35.4888C224.048 36.2893 221.822 37.1649 219.633 38.078ZM342.927 36.9648C340.575 36.7896 338.198 36.6771 335.859 36.6395L335.884 35.2136C338.248 35.2511 340.65 35.3512 343.039 35.5388L342.927 36.9648ZM232.929 33.1622L232.491 31.8114C234.768 31.0734 237.082 30.3854 239.333 29.76L239.708 31.1359C237.47 31.7363 235.193 32.4242 232.929 33.1622ZM309.167 32.3492C306.99 31.4986 304.739 30.7356 302.487 30.0602L302.9 28.6968C305.189 29.3848 307.466 30.1603 309.68 31.0233L309.167 32.3492ZM246.588 29.3973L246.275 28.0088C248.614 27.4835 250.978 27.0082 253.292 26.5954L253.543 27.9963C251.241 28.3966 248.902 28.8719 246.588 29.3973ZM295.67 28.309C293.394 27.8212 291.067 27.4084 288.728 27.0707L288.928 25.6573C291.305 25.9825 293.682 26.4078 295.983 26.9081L295.67 28.309ZM260.535 26.9707L260.36 25.5572C262.749 25.2695 265.138 25.0569 267.489 24.9068L267.577 26.3327C265.263 26.4703 262.886 26.683 260.535 26.9707ZM281.699 26.3452C279.385 26.1826 277.008 26.1076 274.644 26.1076V24.6816C277.046 24.6816 279.46 24.7692 281.799 24.9193L281.699 26.3452Z" fill="white"/>
<path d="M170.726 104.36C170.726 104.36 196.718 107.412 203.185 91.7393C203.185 91.7393 245.462 95.8295 263.912 82.921C282.349 70.0124 286.002 37.9663 269.403 16.7648C253.305 -3.79874 176.267 -6.28788 158.743 14.0005C141.219 34.2889 152.414 74.4153 166.123 82.2455C172.577 85.9354 186.411 88.6998 186.411 88.6998C186.411 88.6998 188.25 101.596 170.726 104.36Z" fill="#028017"/>
<path d="M194.268 55.8411C194.268 58.1801 192.379 60.0689 190.04 60.0689C187.701 60.0689 185.812 58.1801 185.812 55.8411C185.812 53.502 187.701 51.6133 190.04 51.6133C192.379 51.6133 194.268 53.502 194.268 55.8411Z" fill="white"/>
<path d="M207.423 60.0689C209.758 60.0689 211.651 58.176 211.651 55.8411C211.651 53.5061 209.758 51.6133 207.423 51.6133C205.088 51.6133 203.195 53.5061 203.195 55.8411C203.195 58.176 205.088 60.0689 207.423 60.0689Z" fill="white"/>
<path d="M224.814 60.0689C227.149 60.0689 229.042 58.176 229.042 55.8411C229.042 53.5061 227.149 51.6133 224.814 51.6133C222.479 51.6133 220.586 53.5061 220.586 55.8411C220.586 58.176 222.479 60.0689 224.814 60.0689Z" fill="white"/>
<path d="M246.424 55.8411C246.424 58.1801 244.536 60.0689 242.197 60.0689C239.858 60.0689 237.969 58.1801 237.969 55.8411C237.969 53.502 239.858 51.6133 242.197 51.6133C244.536 51.6133 246.424 53.502 246.424 55.8411Z" fill="white"/>
<path d="M376.626 169.866C376.626 169.866 386.42 169.866 387.57 158.346C387.57 158.346 356.45 164.687 350.121 151.429C344.129 138.908 342.053 109.939 366.256 101.871C390.46 93.8031 430.261 93.2277 436.553 108.788C443.082 124.924 438.479 157.57 405.057 156.032C405.057 156.032 395.838 171.78 376.626 169.866Z" fill="#FFC107"/>
<path d="M380.354 134.781C380.354 137.12 378.465 139.008 376.126 139.008C373.787 139.008 371.898 137.12 371.898 134.781C371.898 132.441 373.787 130.553 376.126 130.553C378.453 130.553 380.354 132.441 380.354 134.781Z" fill="white"/>
<path d="M393.509 139.008C395.844 139.008 397.737 137.115 397.737 134.781C397.737 132.446 395.844 130.553 393.509 130.553C391.174 130.553 389.281 132.446 389.281 134.781C389.281 137.115 391.174 139.008 393.509 139.008Z" fill="white"/>
<path d="M410.9 139.008C413.235 139.008 415.127 137.115 415.127 134.781C415.127 132.446 413.235 130.553 410.9 130.553C408.565 130.553 406.672 132.446 406.672 134.781C406.672 137.115 408.565 139.008 410.9 139.008Z" fill="white"/>
<defs>
<linearGradient id="paint0_linear_6024_900" x1="78.6347" y1="72.9671" x2="180.628" y2="84.4588" gradientUnits="userSpaceOnUse">
<stop offset="1e-07" stop-color="#FEE1BC"/>
<stop offset="1" stop-color="#FD6B58"/>
</linearGradient>
<linearGradient id="paint1_linear_6024_900" x1="139.858" y1="123.119" x2="139.858" y2="267.068" gradientUnits="userSpaceOnUse">
<stop stop-color="#FCC845"/>
<stop offset="1" stop-color="#F7762C"/>
</linearGradient>
<linearGradient id="paint2_linear_6024_900" x1="388.6" y1="261.621" x2="388.6" y2="381.5" gradientUnits="userSpaceOnUse">
<stop stop-color="#028017"/>
<stop offset="1" stop-color="#41B952"/>
</linearGradient>
<linearGradient id="paint3_linear_6024_900" x1="348.811" y1="227.266" x2="446.898" y2="240.114" gradientUnits="userSpaceOnUse">
<stop offset="1e-07" stop-color="#FEE1BC"/>
<stop offset="1" stop-color="#FD6B58"/>
</linearGradient>
</defs>
</svg>
