<svg width="119" height="100" viewBox="0 0 119 100" fill="none" xmlns="http://www.w3.org/2000/svg">
<g opacity="0.5">
<path d="M0.201508 98.7483C0.100052 98.9512 0.100266 99.0527 0.100266 99.2556C32.1611 91.7477 97.2973 101.589 125.909 63.1363C145.084 37.3659 138.083 -5.24648 134.837 -19.9579C134.532 -21.4798 134.228 -22.5959 134.025 -23.509C133.721 -24.6251 133.619 -25.2338 133.619 -25.2338C133.619 -25.2338 133.213 -25.4368 132.3 -25.9441C124.082 -29.901 79.5421 -49.6854 44.1332 -24.2193C5.57899 3.47879 9.43422 67.0933 0.201508 98.7483Z" fill="url(#paint0_linear_6024_1453)"/>
<path d="M3.24597 95.7045C3.24597 95.7045 2.02849 97.0235 0.100784 98.7483C0.100784 98.9512 -0.000778181 99.0527 -0.000778198 99.2556C32.0601 91.7477 97.1963 101.589 125.808 63.1363C146.911 34.728 136.258 -13.8705 133.924 -23.509C116.473 0.435118 62.802 68.9195 3.24597 95.7045Z" fill="url(#paint1_linear_6024_1453)"/>
<path d="M44.0337 -24.1158C5.58097 3.58229 9.53777 67.0952 0.203598 98.7502C8.42172 91.4452 63.5137 72.9797 133.926 -23.4057C133.621 -24.5217 133.52 -25.1305 133.52 -25.1305C133.52 -25.1305 83.1966 -52.3212 44.0337 -24.1158Z" fill="url(#paint2_linear_6024_1453)"/>
<path d="M115.664 60.3967C115.664 60.3967 116.577 56.4398 117.693 50.3523C118.809 44.3662 120.027 36.2495 120.534 28.1329C120.635 26.1037 120.838 24.0746 120.838 22.0455C120.94 20.0163 120.94 18.0886 120.838 16.1609C120.838 15.2477 120.838 14.2332 120.737 13.32C120.737 12.4069 120.635 11.4937 120.534 10.682C120.432 9.76891 120.433 8.95724 120.331 8.14557C120.23 7.73974 120.23 7.33395 120.23 6.92812C120.128 6.52229 120.128 6.11645 120.027 5.81207C119.925 5.10186 119.824 4.39159 119.621 3.68138C119.519 3.07263 119.418 2.36255 119.215 1.7538C119.012 1.14505 118.911 0.637722 118.809 0.130432C118.606 -0.376862 118.505 -0.782746 118.403 -1.18858C118.2 -2.00024 117.896 -2.60892 117.693 -3.01475C117.49 -3.42059 117.389 -3.62348 117.389 -3.62348L117.389 -3.72504C117.084 -4.43524 117.49 -5.3484 118.2 -5.65277C118.911 -5.95715 119.824 -5.55129 120.128 -4.84109C120.128 -4.84109 120.23 -4.63809 120.432 -4.1308C120.635 -3.62351 120.94 -3.01479 121.143 -2.10167C121.244 -1.69583 121.447 -1.1886 121.549 -0.579853C121.65 -0.0725595 121.751 0.536171 121.954 1.14492C122.056 1.75367 122.157 2.464 122.36 3.17421C122.462 3.88442 122.563 4.59464 122.665 5.40631C122.665 5.81214 122.766 6.21793 122.766 6.62376C122.766 7.02959 122.868 7.43538 122.868 7.84121C122.969 8.65288 122.969 9.5661 123.07 10.4792C123.172 11.3924 123.172 12.3054 123.172 13.2185C123.172 14.1316 123.172 15.1462 123.172 16.0593C123.172 17.987 123.07 20.0163 122.969 22.0455C122.867 24.0746 122.665 26.1037 122.462 28.1329C121.548 36.351 120.128 44.3662 118.809 50.4537C117.49 56.4397 116.374 60.3967 116.374 60.3967C116.374 60.5996 116.171 60.5995 115.968 60.5995C115.664 60.8024 115.562 60.5996 115.664 60.3967Z" fill="url(#paint3_linear_6024_1453)"/>
<path d="M104.198 71.6624C104.198 71.6624 105.01 67.6041 106.024 61.5166C107.039 55.4291 108.256 47.2109 109.169 38.9928C109.372 36.9636 109.575 34.8329 109.677 32.9052C109.88 30.8761 109.981 28.8469 110.083 26.9192C110.184 24.9915 110.184 23.1652 110.184 21.339C110.184 19.6142 110.184 17.8894 110.083 16.3675C110.083 15.6573 109.981 14.8457 109.88 14.2369C109.778 13.5267 109.778 12.918 109.677 12.3092C109.474 11.0917 109.271 10.0771 109.068 9.26543C108.967 8.85959 108.865 8.55521 108.764 8.14938C108.662 7.845 108.561 7.64217 108.459 7.43925C108.256 7.03342 108.155 6.83052 108.155 6.83052L108.053 6.62756C107.749 5.91736 108.053 5.0042 108.865 4.69983C109.575 4.39545 110.488 4.69985 110.793 5.51151C110.793 5.51151 110.894 5.81591 111.097 6.3232C111.199 6.62758 111.3 6.93192 111.503 7.23629C111.604 7.64212 111.706 8.0479 111.807 8.45374C112.01 9.36687 112.213 10.5844 112.416 11.8019C112.518 12.4106 112.518 13.1208 112.619 13.831C112.72 14.5412 112.721 15.3529 112.721 16.0631C112.822 17.6865 112.721 19.4112 112.721 21.136C112.619 22.9623 112.518 24.7887 112.416 26.8178C112.213 28.7455 112.01 30.7747 111.807 32.8038C111.604 34.833 111.3 36.8622 110.996 38.9928C108.662 55.5305 104.807 71.6624 104.807 71.6624C104.807 71.8653 104.604 71.9667 104.401 71.8652C104.299 71.9667 104.198 71.8653 104.198 71.6624Z" fill="url(#paint4_linear_6024_1453)"/>
<path d="M92.5293 80.0814C92.5293 80.0814 93.341 76.3273 94.3556 70.6457C95.3702 64.964 96.689 57.3547 97.7036 49.7453C98.2109 45.8899 98.6169 42.1358 98.9212 38.5848C99.1241 36.7585 99.2255 35.0338 99.327 33.4105C99.327 32.5988 99.4285 31.7872 99.4285 31.077C99.4285 30.2653 99.4285 29.5551 99.4285 28.8449C99.4285 28.1347 99.4285 27.4245 99.4285 26.8157C99.4285 26.207 99.327 25.5982 99.327 24.9894C99.2255 24.3807 99.2255 23.8734 99.124 23.4676C99.0226 22.9603 99.0227 22.5544 98.9212 22.1486C98.7183 21.4384 98.6168 20.8297 98.5153 20.4238C98.4138 20.018 98.3125 19.9165 98.3125 19.9165L98.2109 19.7135C97.9066 19.0033 98.3124 18.0903 99.124 17.8874C99.8342 17.583 100.747 17.9888 100.95 18.8004C100.95 18.8004 101.052 19.1048 101.255 19.6121C101.458 20.1194 101.559 20.8297 101.762 21.7428C101.864 22.1487 101.864 22.6559 101.965 23.1632C101.965 23.6705 102.066 24.2793 102.066 24.888C102.066 25.4968 102.066 26.1055 102.066 26.8157C102.066 27.526 102.066 28.2361 102.066 28.9463C102.066 29.6565 101.965 30.4682 101.965 31.1784C101.864 31.99 101.864 32.8018 101.762 33.6134C101.661 35.2368 101.458 37.063 101.255 38.7878C100.849 42.3388 100.24 46.1942 99.6314 50.0496C96.9934 65.2684 93.341 80.1828 93.341 80.1828C93.341 80.3857 93.1381 80.4872 92.9352 80.3857C92.6308 80.3857 92.5293 80.2843 92.5293 80.0814Z" fill="url(#paint5_linear_6024_1453)"/>
<path d="M78.8364 82.4167C78.8364 82.4167 82.3875 69.43 85.0254 56.3418C86.3444 49.7471 87.4604 43.1523 87.7648 38.1809C87.7648 37.5721 87.8664 36.9634 87.8664 36.4561C87.8664 35.9488 87.8664 35.34 87.8664 34.8327C87.8664 34.3254 87.8664 33.9196 87.8664 33.5137C87.8664 33.1079 87.7648 32.7021 87.7648 32.3977C87.7648 32.0933 87.6634 31.7889 87.6634 31.586C87.6634 31.2816 87.5619 31.1802 87.5619 30.9773C87.4604 30.6729 87.4605 30.5715 87.4605 30.5715L87.3591 30.3685C87.1561 29.5569 87.5619 28.7453 88.3735 28.5424C89.1852 28.3394 89.997 28.7452 90.1999 29.4555C90.1999 29.4555 90.3014 29.6583 90.4028 30.1656C90.5043 30.3685 90.5042 30.6729 90.6056 30.9773C90.6056 31.2816 90.7072 31.6875 90.7072 32.0933C90.7072 32.4991 90.8086 32.905 90.8086 33.4123C90.8086 33.9196 90.8086 34.3254 90.8086 34.9341C90.7071 35.9487 90.6057 37.1663 90.5042 38.4852C89.8955 43.5582 88.4751 50.153 86.8517 56.7478C83.6051 69.8359 79.4453 82.6197 79.4453 82.6197C79.4453 82.8226 79.2423 82.9239 79.0394 82.8225C78.9379 82.721 78.8364 82.6196 78.8364 82.4167Z" fill="url(#paint6_linear_6024_1453)"/>
<path d="M65.1401 84.2418C65.1401 84.2418 66.2561 81.7054 67.778 77.7485C69.2999 73.7916 71.2277 68.5158 72.9525 63.24C74.6773 57.9642 76.199 52.4854 76.8078 48.427C77.0107 47.4124 77.1121 46.4993 77.1121 45.6876C77.1121 45.2818 77.1121 44.8761 77.1121 44.5717C77.1121 44.2673 77.1121 43.9628 77.1121 43.6585C77.1121 43.3541 77.0107 43.1512 77.0107 42.9483C77.0107 42.7454 76.9093 42.6439 76.9093 42.5424C76.8079 42.3395 76.8078 42.238 76.8078 42.238L76.7064 41.9337C76.5035 41.122 76.9093 40.3104 77.6195 40.1075C78.4311 39.9046 79.2429 40.3104 79.4458 41.0206C79.4458 41.0206 79.5471 41.2235 79.6486 41.6293C79.7501 41.8322 79.7502 42.0352 79.7502 42.3396C79.7502 42.644 79.8516 42.9483 79.8516 43.3541C79.8516 43.6585 79.8516 44.0643 79.8516 44.4701C79.8516 44.876 79.8516 45.2819 79.7502 45.7892C79.6487 46.7023 79.4458 47.7168 79.2428 48.7314C78.3297 52.9926 76.5034 58.3699 74.5757 63.6458C70.5174 74.1974 65.6475 84.3434 65.6475 84.3434C65.546 84.4448 65.343 84.5462 65.2415 84.4448C65.1401 84.6477 65.0387 84.4447 65.1401 84.2418Z" fill="url(#paint7_linear_6024_1453)"/>
<path d="M52.2515 85.3585C52.2515 85.3585 56.7156 77.1404 60.4696 68.7194C62.3973 64.4581 64.1222 60.1968 65.0353 56.9501C65.5426 55.3268 65.7455 54.008 65.9484 53.0948C65.9484 52.689 66.0498 52.2831 66.0498 52.0802C66.0498 51.8773 66.0498 51.7758 66.0498 51.7758L66.0498 51.5729C66.0498 50.7612 66.7601 50.1525 67.5718 50.1525C68.3834 50.1525 68.9922 50.8628 68.9922 51.6744C68.9922 51.6744 68.9922 51.6744 68.9922 51.7758C68.9922 51.7758 68.9922 51.9788 68.9922 52.2831C68.9922 52.5875 68.8907 53.0949 68.7892 53.6022C68.5863 54.7182 68.1805 56.1386 67.5718 57.8634C66.3543 61.2115 64.325 65.4726 62.1943 69.6324C57.8316 77.952 52.9618 85.8658 52.9618 85.8658C52.8603 85.9673 52.6573 86.0687 52.5558 85.9672C52.15 85.6629 52.15 85.5614 52.2515 85.3585Z" fill="url(#paint8_linear_6024_1453)"/>
<path d="M39.8757 88.0953C39.8757 88.0953 40.6875 86.7763 41.905 84.7471C43.0211 82.718 44.5428 79.9786 45.8617 77.1378C46.5719 75.7174 47.0792 74.2969 47.6879 72.9779C47.9923 72.2677 48.1953 71.659 48.3982 71.0502C48.6011 70.4415 48.8042 69.8327 48.9057 69.3254C49.1086 68.8181 49.2098 68.3109 49.3113 67.8036C49.4127 67.6007 49.4129 67.3978 49.5144 67.1949C49.5144 66.992 49.5142 66.789 49.6156 66.6876C49.7171 66.0788 49.7172 65.6729 49.7172 65.6729L49.7172 65.5715C49.8187 64.9628 50.3259 64.557 50.9347 64.6584C51.5434 64.7599 51.9492 65.2671 51.8477 65.8759C51.8477 65.8759 51.8477 65.8758 51.8477 65.9773C51.8477 65.9773 51.7464 66.3831 51.6449 67.0933C51.6449 67.2963 51.5434 67.4993 51.5434 67.7022C51.4419 67.9051 51.442 68.108 51.3406 68.4123C51.2391 68.9196 51.0363 69.427 50.8334 70.0357C50.6305 70.6445 50.4275 71.2531 50.1231 71.8619C49.8188 72.4706 49.6159 73.1809 49.21 73.7896C48.6013 75.1086 47.8909 76.529 47.0792 77.9495C44.0354 83.4282 40.3832 88.6026 40.3832 88.6026C40.2817 88.7041 40.18 88.7041 40.0785 88.6026C39.7742 88.2982 39.7743 88.1968 39.8757 88.0953Z" fill="url(#paint9_linear_6024_1453)"/>
<path d="M28.0036 91.4432C28.0036 91.4432 31.859 87.0805 35.3086 82.4134C37.0334 80.0799 38.6565 77.6448 39.5697 75.8185C39.7726 75.3112 39.9755 74.9054 40.1784 74.6011C40.2798 74.1952 40.3813 73.8909 40.4827 73.688C40.4827 73.4851 40.5842 73.2821 40.4827 73.1807C40.4827 73.0792 40.4827 73.0793 40.4827 73.0793L40.4827 72.7749C40.4827 72.1661 41.0917 71.7602 41.5989 71.7603C42.2077 71.7603 42.6133 72.2675 42.6133 72.8763C42.6133 72.8763 42.6133 72.9777 42.6133 73.2821C42.6133 73.5864 42.5119 73.8909 42.4105 74.2967C42.309 74.7025 42.1062 75.1083 41.9033 75.5142C41.7004 75.92 41.3958 76.4273 41.0915 76.9346C39.874 78.8623 38.0479 81.1958 36.2217 83.4279C32.3662 87.8921 28.3079 91.9505 28.3079 91.9505C28.2065 92.052 28.105 92.052 28.0036 91.9505C28.0036 91.6461 28.0036 91.5447 28.0036 91.4432Z" fill="url(#paint10_linear_6024_1453)"/>
<path d="M110.795 5.81268C110.795 5.81268 109.679 5.40678 107.853 4.79803C105.925 4.08782 103.186 3.17475 99.9393 2.16017C93.3445 0.0295427 84.5178 -2.60836 75.488 -4.63752C73.2559 -5.14482 71.0238 -5.6521 68.7917 -6.05794C66.5596 -6.46377 64.3274 -6.86961 62.1968 -7.17398C61.0808 -7.3769 60.0664 -7.47845 59.0518 -7.5799C58.0372 -7.68136 57.0224 -7.78281 56.0078 -7.88427C54.0801 -8.08718 52.1526 -8.18863 50.4278 -8.18863C48.703 -8.18863 47.0797 -8.18853 45.7608 -8.08707C45.0506 -8.08707 44.4418 -7.98573 43.833 -7.88427C43.5287 -7.88427 43.2241 -7.78271 43.0212 -7.78271C42.7168 -7.78271 42.514 -7.68136 42.2097 -7.57991C41.7024 -7.47845 41.2965 -7.37685 40.8906 -7.27539C40.4848 -7.17393 40.1805 -7.07248 39.9776 -6.97103C39.4703 -6.76811 39.1657 -6.66666 39.1657 -6.66666C38.9628 -6.56521 38.8616 -6.66671 38.7601 -6.86962C38.6587 -7.07254 38.76 -7.17393 38.9629 -7.27539C38.9629 -7.27539 39.2672 -7.37699 39.7744 -7.57991C40.0788 -7.68136 40.3835 -7.78275 40.6878 -7.98567C41.0937 -8.08713 41.4993 -8.18858 42.0065 -8.29003C42.2095 -8.39149 42.514 -8.39154 42.8184 -8.49299C43.1228 -8.59445 43.4271 -8.59434 43.7315 -8.6958C44.3402 -8.79726 44.949 -8.89886 45.6592 -9.00032C47.0796 -9.20323 48.703 -9.30468 50.4278 -9.30468C52.1526 -9.30468 54.0802 -9.30458 56.1094 -9.20312C57.124 -9.10166 58.1384 -9.10177 59.153 -9.00032C60.1676 -8.89886 61.2838 -8.79726 62.2984 -8.6958C64.429 -8.49288 66.6611 -8.08708 68.9947 -7.78271C71.2267 -7.37688 73.5603 -6.97109 75.7923 -6.56526C84.9236 -4.73901 93.9534 -2.4054 100.65 -0.477693C103.998 0.536891 106.737 1.34846 108.766 1.95721C110.694 2.56596 111.81 2.97185 111.81 2.97185C112.622 3.17477 113.028 4.08782 112.723 4.79803C112.419 5.71116 111.607 6.11705 110.795 5.81268C110.897 5.81268 110.897 5.81268 110.795 5.81268Z" fill="url(#paint11_linear_6024_1453)"/>
<path d="M102.674 16.1631C102.674 16.1631 101.66 15.7572 99.7321 15.1485C97.9059 14.5397 95.1664 13.5251 91.9198 12.612C85.325 10.5828 76.4982 8.14787 67.5698 6.62599C65.3377 6.22016 63.1056 5.81432 60.8735 5.50994C58.6415 5.20557 56.4094 5.00258 54.2788 4.79966C52.1482 4.59674 50.1189 4.4953 48.0897 4.4953C46.162 4.4953 44.2342 4.4954 42.6108 4.59686C41.7992 4.59686 40.9876 4.6982 40.176 4.79966C39.3643 4.79966 38.6541 4.90116 37.9438 5.00262C36.5234 5.10408 35.4073 5.40843 34.3927 5.61135C33.3782 5.81426 32.6679 6.01721 32.1607 6.11867C31.6534 6.22013 31.3491 6.32163 31.3491 6.32163C31.1462 6.32163 31.0447 6.22013 30.9432 6.11867C30.9432 5.91575 31.0449 5.81436 31.1463 5.7129C31.1463 5.7129 31.4506 5.6114 31.9578 5.50994C32.4651 5.40848 33.2768 5.10413 34.1899 4.90122C35.2045 4.6983 36.3206 4.39385 37.741 4.19094C38.4513 4.08948 39.1615 3.98803 39.9731 3.88657C40.7848 3.78511 41.5964 3.68361 42.408 3.68361C44.1328 3.58215 46.0607 3.48071 47.9884 3.37925C50.0176 3.37925 52.0467 3.37935 54.2788 3.48081C56.4094 3.58227 58.6416 3.78522 60.9751 3.98813C63.2072 4.19105 65.5406 4.49529 67.7726 4.79966C76.9039 6.11862 85.9336 8.24929 92.6299 10.0755C95.978 10.9887 98.7175 11.8003 100.645 12.409C102.573 13.0178 103.689 13.4237 103.689 13.4237C104.501 13.7281 104.906 14.5397 104.602 15.2499C104.399 15.9601 103.486 16.366 102.674 16.1631C102.776 16.1631 102.776 16.1631 102.674 16.1631Z" fill="url(#paint12_linear_6024_1453)"/>
<path d="M90.2948 29.8571C90.2948 29.8571 90.0919 29.7556 89.686 29.5527C89.2802 29.3498 88.6715 29.0455 87.8599 28.6396C86.2365 27.828 83.9029 26.8133 80.9606 25.5958C79.5402 24.9871 77.9168 24.3784 76.2935 23.7697C74.6701 23.1609 72.844 22.5522 71.0177 22.0449C69.1915 21.4361 67.2637 20.9288 65.2345 20.4215C63.2054 19.9142 61.2777 19.5083 59.2485 19.1025C57.2194 18.6967 55.1901 18.3923 53.161 18.1894C52.1464 18.088 51.1319 17.9865 50.1173 17.8851C49.1028 17.8851 48.0881 17.7835 47.175 17.7835C45.2473 17.7835 43.3197 17.7836 41.5949 17.8851C40.6818 17.9865 39.8701 17.9865 39.0584 18.1894C38.2468 18.2909 37.4349 18.3923 36.6232 18.5952C35.913 18.7981 35.1014 18.8996 34.4927 19.0011C33.7825 19.204 33.1737 19.407 32.5649 19.5084C31.9562 19.6099 31.3476 19.8127 30.8403 20.0156C30.333 20.2185 29.8256 20.32 29.4198 20.5229C28.6081 20.8273 27.8979 21.1317 27.492 21.3346C27.0862 21.5375 26.7817 21.639 26.7817 21.639C26.6803 21.7404 26.4776 21.6389 26.3761 21.436C26.2747 21.3345 26.3759 21.1317 26.4774 21.0302C26.4774 21.0302 26.6804 20.9288 27.1877 20.7259C27.5935 20.523 28.3037 20.2186 29.1154 19.8128C29.5212 19.6099 30.0287 19.4069 30.536 19.3055C31.0432 19.1026 31.6518 18.8997 32.2606 18.6967C32.8693 18.4938 33.4781 18.2909 34.1883 18.088C34.8985 17.8851 35.6087 17.7836 36.4204 17.5807C37.2321 17.3778 38.0436 17.2763 38.8553 17.0734C39.667 16.9719 40.5802 16.8705 41.4933 16.769C43.3196 16.5661 45.2473 16.4646 47.175 16.4646C48.1895 16.4646 49.204 16.4646 50.2186 16.4646C51.2332 16.5661 52.2479 16.5662 53.2625 16.6676C55.2917 16.8705 57.4223 17.0734 59.5529 17.3777C61.6835 17.6821 63.7127 18.088 65.7419 18.4938C67.771 18.8996 69.8002 19.4069 71.6265 19.9142C73.5542 20.4215 75.3804 20.9288 77.1051 21.5376C78.8299 22.0449 80.4534 22.6536 81.9753 23.1609C84.9175 24.277 87.3525 25.2916 89.0773 26.0018C89.889 26.4076 90.5992 26.7119 91.005 26.9149C91.4109 27.1178 91.7152 27.2192 91.7152 27.2192C92.4254 27.5236 92.7298 28.4367 92.4255 29.1469C91.9182 29.8572 91.1064 30.2629 90.2948 29.8571Z" fill="url(#paint13_linear_6024_1453)"/>
<path d="M79.446 39.8002C79.446 39.8002 78.6342 39.4957 77.1123 38.887C75.5904 38.3797 73.3585 37.5681 70.7205 36.7564C65.3432 35.1331 58.1398 33.3069 50.8348 32.1908C49.0085 31.8865 47.1822 31.6834 45.356 31.582C43.5297 31.379 41.7035 31.3791 39.9787 31.2776C39.0655 31.2776 38.2539 31.2776 37.4422 31.2776C36.6305 31.2776 35.8187 31.3792 35.007 31.3792C34.1953 31.4806 33.4853 31.4805 32.6737 31.582C31.9634 31.6834 31.2533 31.785 30.5431 31.8865C29.2242 32.0894 27.9049 32.3936 26.7889 32.698C25.6729 32.9009 24.7597 33.3068 23.9481 33.5097C23.1364 33.7126 22.6293 34.0171 22.2235 34.22C21.8176 34.3214 21.6147 34.4229 21.6147 34.4229C21.4118 34.5244 21.3103 34.4229 21.2088 34.22C21.1073 34.0171 21.2089 33.9155 21.3104 33.8141C21.3104 33.8141 21.5133 33.7126 21.9191 33.5097C22.3249 33.3068 22.9335 33.0024 23.6437 32.698C24.4554 32.3936 25.3685 32.0893 26.4845 31.7849C27.6006 31.3791 28.8183 31.1762 30.2388 30.8718C30.949 30.7704 31.6591 30.5674 32.3693 30.4659C33.181 30.3645 33.891 30.263 34.7026 30.1616C35.5143 30.0601 36.326 30.0602 37.2391 29.9587C38.0508 29.9587 38.964 29.8572 39.8771 29.8572C41.6019 29.8572 43.5297 29.8573 45.356 29.9587C47.1822 30.0602 49.1098 30.1616 50.936 30.3645C58.444 31.1762 65.8505 32.6981 71.3293 34.22C74.0686 34.9302 76.3007 35.6404 77.924 36.1477C79.5473 36.655 80.4605 36.9594 80.4605 36.9594C81.1707 37.2638 81.5765 38.0754 81.3735 38.7856C81.0692 39.6987 80.2576 40.1046 79.446 39.8002Z" fill="url(#paint14_linear_6024_1453)"/>
<path d="M68.1766 52.0792C68.1766 52.0792 67.3649 51.8763 66.0459 51.6734C64.6255 51.369 62.6976 50.9632 60.3641 50.5573C55.5956 49.6442 49.3054 48.6295 42.9136 47.9193C41.2902 47.7164 39.7683 47.615 38.145 47.5136C36.6231 47.4121 34.9996 47.3107 33.4777 47.2092C31.9558 47.1077 30.5356 47.1077 29.2166 47.2092C27.8977 47.2092 26.5787 47.3107 25.3611 47.4122C24.1437 47.5136 23.1291 47.7164 22.216 47.9193C21.3028 48.1222 20.4911 48.3252 19.8823 48.6296C19.5779 48.7311 19.2737 48.9339 19.0708 49.0354C18.7664 49.1368 18.665 49.2383 18.4621 49.3397C18.1577 49.5427 17.9546 49.6443 17.9546 49.6443C17.8531 49.7457 17.6504 49.6442 17.549 49.5427C17.4475 49.4412 17.5488 49.2384 17.6502 49.1369C17.6502 49.1369 17.8533 49.0355 18.1577 48.8326C18.3606 48.7311 18.5635 48.5281 18.7664 48.4266C19.0708 48.3252 19.2737 48.1223 19.6795 48.0209C20.3897 47.7165 21.2013 47.4121 22.1144 47.2092C23.129 46.9048 24.1437 46.7019 25.3611 46.6005C26.5787 46.3976 27.8975 46.296 29.3179 46.1946C30.7383 46.0931 32.1589 46.0932 33.6808 46.0932C35.2027 46.0932 36.7245 46.0931 38.3478 46.1946C39.9711 46.296 41.5946 46.2961 43.2179 46.3975C49.7113 46.8033 56.103 47.6149 60.8716 48.2237C63.3066 48.5281 65.2342 48.8326 66.6546 49.1369C68.075 49.3399 68.8867 49.5427 68.8867 49.5427C69.6984 49.6442 70.2058 50.4558 70.1043 51.2675C69.8 51.6733 68.9883 52.1806 68.1766 52.0792Z" fill="url(#paint15_linear_6024_1453)"/>
<path d="M53.47 64.3548C53.47 64.3548 53.3687 64.2533 53.0643 64.1519C52.76 64.0504 52.3539 63.8476 51.8466 63.7461C51.3393 63.5432 50.7305 63.3402 49.9189 63.1372C49.2086 62.9343 48.397 62.63 47.3824 62.4271C45.5561 61.9198 43.4258 61.4124 40.9908 60.9051C39.7733 60.7022 38.5556 60.4993 37.3381 60.2964C36.1206 60.195 34.8017 59.9921 33.5842 59.8907C32.2652 59.7892 31.0477 59.6877 29.7287 59.6877C29.12 59.6877 28.5113 59.6877 27.9026 59.6877C27.2938 59.6877 26.6851 59.6878 26.0764 59.7893C25.4676 59.7893 24.8588 59.8907 24.3515 59.8907C23.7427 59.8907 23.2356 59.9922 22.6268 60.0936C21.5108 60.1951 20.496 60.2965 19.5829 60.4994C18.6698 60.7023 17.7567 60.9052 17.0464 61.0067C16.3362 61.2096 15.626 61.4125 15.1187 61.6154C14.0027 61.9198 13.3941 62.1227 13.3941 62.1227C13.2926 62.1227 13.1912 62.1227 13.0897 62.0212C13.0897 61.9197 13.0895 61.8183 13.191 61.7168C13.191 61.7168 13.7999 61.5139 14.9159 61.1081C15.4232 60.9052 16.1334 60.7023 16.8436 60.4994C17.6553 60.2965 18.467 60.0936 19.3801 59.8907C20.2932 59.5863 21.4091 59.4848 22.4237 59.2819C22.931 59.1805 23.5399 59.079 24.1487 58.9776C24.7574 58.9776 25.3661 58.8761 25.9748 58.7746C26.5836 58.7746 27.1923 58.6732 27.801 58.6732C28.4098 58.6732 29.0185 58.6731 29.7287 58.5716C31.0477 58.4702 32.2652 58.5716 33.5842 58.5716C34.9032 58.5716 36.2222 58.7746 37.4397 58.876C38.6572 59.0789 39.9761 59.1804 41.1936 59.3833C43.6286 59.7892 45.8606 60.195 47.7883 60.6008C48.7014 60.8037 49.6146 61.0067 50.3248 61.2097C51.1364 61.4126 51.7453 61.6155 52.3541 61.8184C52.8614 62.0213 53.3687 62.1227 53.6731 62.2242C53.9774 62.3256 54.0787 62.4271 54.0787 62.4271C54.6874 62.63 54.9919 63.2388 54.789 63.8475C54.6875 64.2534 54.0787 64.5578 53.47 64.3548Z" fill="url(#paint16_linear_6024_1453)"/>
<path d="M41.2949 73.8929C41.2949 73.8929 41.1934 73.8928 40.9905 73.7913C40.7876 73.6899 40.483 73.5884 40.0771 73.487C39.6713 73.3855 39.1641 73.2841 38.5553 73.1826C37.9466 73.0812 37.3378 72.8783 36.6276 72.7769C35.9174 72.6754 35.1059 72.5739 34.2942 72.4725C33.4826 72.371 32.5693 72.371 31.6562 72.2695C30.7431 72.2695 29.83 72.168 28.8154 72.168C27.9023 72.168 26.8876 72.1681 25.873 72.2695L24.3512 72.3709C23.8439 72.4724 23.4382 72.4724 22.9309 72.5739C22.4237 72.6753 22.0177 72.6754 21.5104 72.7769C21.0031 72.8783 20.5972 72.9798 20.1914 73.0812C19.6841 73.1827 19.2782 73.2841 18.8724 73.3856C18.4665 73.487 18.0607 73.5884 17.6549 73.7913C17.2491 73.8928 16.8433 73.9942 16.4375 74.0957C16.0316 74.1972 15.7274 74.4002 15.3216 74.5016C14.6114 74.806 14.0026 75.0088 13.3938 75.2118C12.8865 75.5161 12.3791 75.7191 11.9733 75.922C11.1616 76.3279 10.7558 76.5308 10.7558 76.5308C10.6544 76.5308 10.5529 76.5308 10.4515 76.4294C10.35 76.3279 10.4516 76.2263 10.553 76.1248C10.553 76.1248 10.9588 75.922 11.7705 75.4147C12.1763 75.2118 12.582 74.9074 13.1907 74.603C13.698 74.2987 14.4085 74.0957 15.0172 73.7913C15.3216 73.5884 15.7273 73.4869 16.1331 73.284C16.5389 73.1826 16.9447 72.9797 17.3506 72.8783C17.7564 72.7768 18.1622 72.5739 18.568 72.4725C18.9738 72.371 19.4812 72.2695 19.887 72.0666C20.2928 71.9651 20.8003 71.8637 21.3076 71.6608C21.8149 71.5593 22.2205 71.4579 22.7278 71.3564C23.2351 71.255 23.7426 71.1534 24.1484 71.0519L25.6702 70.8491C26.6848 70.6462 27.6993 70.6462 28.7138 70.5448C29.7284 70.4433 30.6416 70.4432 31.6562 70.4432C32.5693 70.4432 33.4824 70.4433 34.3955 70.5448C35.3086 70.5448 36.1205 70.6461 36.8307 70.7476C37.6424 70.849 38.2509 70.9505 38.8597 71.0519C39.4684 71.1534 39.9758 71.255 40.483 71.3564C40.8889 71.4579 41.2948 71.5592 41.4977 71.5592C41.7006 71.6607 41.9036 71.6608 41.9036 71.6608C42.5124 71.7623 42.8166 72.3709 42.7151 72.9797C42.5122 73.6899 41.9036 73.9944 41.2949 73.8929Z" fill="url(#paint17_linear_6024_1453)"/>
<path d="M3.04913 95.1984C3.04913 95.1984 3.75937 94.894 4.97687 94.2853C6.19437 93.6765 8.02061 92.7634 10.3541 91.6474C11.4702 91.0387 12.6876 90.3283 14.1081 89.6181C14.8183 89.2123 15.5287 88.8064 16.2389 88.5021C16.9491 88.0962 17.6593 87.589 18.471 87.1832C19.9929 86.2701 21.616 85.2554 23.3408 84.2408C25.0656 83.1248 26.7906 82.0088 28.6168 80.7913C32.2693 78.3563 36.2261 75.6169 40.1829 72.5732C42.2121 71.0513 44.2414 69.428 46.372 67.8046C48.5027 66.1813 50.5318 64.4566 52.6624 62.6303C56.9237 59.0793 61.0835 55.3253 65.3447 51.3684C67.4753 49.4407 69.6059 47.4114 71.6351 45.3823C73.7657 43.3531 75.7948 41.3239 77.9255 39.1933C82.0852 35.0335 86.1436 30.7723 89.999 26.511C93.9559 22.2498 97.7099 17.9885 101.261 13.8287C104.812 9.66893 108.262 5.50916 111.407 1.65375C114.552 -2.30313 117.494 -6.05699 120.234 -9.50658C125.205 -15.8985 129.162 -21.4788 132.104 -25.6386C133.017 -25.2327 133.423 -24.9283 133.423 -24.9283C133.423 -24.9283 133.626 -24.3196 133.829 -23.2035C134.032 -22.3919 134.336 -21.1743 134.641 -19.6524C131.8 -15.8985 128.35 -11.4344 124.19 -6.26C121.35 -2.81041 118.306 0.943511 115.059 4.79893C111.711 8.65435 108.262 12.7127 104.508 16.8725C100.754 21.0323 96.8982 25.1922 92.8398 29.352C88.7815 33.6132 84.6218 37.773 80.3605 41.8313C78.2299 43.8605 76.0992 45.8896 73.9686 47.9187C71.7365 49.8464 69.6059 51.8756 67.3739 53.8033C63.0111 57.6587 58.6485 61.4128 54.2858 64.8624C52.1552 66.5872 50.0244 68.3119 47.7923 69.8338C45.6617 71.4571 43.5311 73.0805 41.5019 74.5009C37.3421 77.4432 33.3851 80.0811 29.6312 82.5161C27.7035 83.6321 25.8774 84.8496 24.1526 85.8642C22.4278 86.8788 20.7029 87.7919 19.181 88.705C18.3693 89.1109 17.6593 89.6182 16.8476 90.024C16.1374 90.4299 15.427 90.7342 14.7168 91.1401C13.2964 91.8503 12.0791 92.5605 10.8616 93.0678C8.52808 94.1839 6.70174 94.9955 5.38278 95.6043C4.16528 96.213 3.45505 96.5174 3.45505 96.5174C3.15068 96.6188 2.74498 96.5174 2.64352 96.213C2.64352 95.7057 2.74477 95.2998 3.04913 95.1984Z" fill="url(#paint18_linear_6024_1453)"/>
</g>
<defs>
<linearGradient id="paint0_linear_6024_1453" x1="10.372" y1="20.7547" x2="126.157" y2="51.8292" gradientUnits="userSpaceOnUse">
<stop stop-color="#B0FF20"/>
<stop offset="0.1444" stop-color="#A9F722"/>
<stop offset="0.3684" stop-color="#96E128"/>
<stop offset="0.644" stop-color="#76BD32"/>
<stop offset="0.9579" stop-color="#4B8C40"/>
<stop offset="1" stop-color="#458542"/>
</linearGradient>
<linearGradient id="paint1_linear_6024_1453" x1="46.2723" y1="103.665" x2="149.311" y2="-36.3173" gradientUnits="userSpaceOnUse">
<stop stop-color="#ACFF00"/>
<stop offset="0.1351" stop-color="#A5F703"/>
<stop offset="0.3447" stop-color="#91E10B"/>
<stop offset="0.6026" stop-color="#70BD18"/>
<stop offset="0.8963" stop-color="#438C2B"/>
<stop offset="1" stop-color="#327932"/>
</linearGradient>
<linearGradient id="paint2_linear_6024_1453" x1="11.0867" y1="20.6799" x2="109.215" y2="47.0162" gradientUnits="userSpaceOnUse">
<stop stop-color="#ACFF00"/>
<stop offset="0.1351" stop-color="#A5F703"/>
<stop offset="0.3447" stop-color="#91E10B"/>
<stop offset="0.6026" stop-color="#70BD18"/>
<stop offset="0.8963" stop-color="#438C2B"/>
<stop offset="1" stop-color="#327932"/>
</linearGradient>
<linearGradient id="paint3_linear_6024_1453" x1="1.2698" y1="95.7076" x2="143.846" y2="11.9338" gradientUnits="userSpaceOnUse">
<stop stop-color="#B0FF20"/>
<stop offset="0.1444" stop-color="#A9F722"/>
<stop offset="0.3684" stop-color="#96E128"/>
<stop offset="0.644" stop-color="#76BD32"/>
<stop offset="0.9579" stop-color="#4B8C40"/>
<stop offset="1" stop-color="#458542"/>
</linearGradient>
<linearGradient id="paint4_linear_6024_1453" x1="3.30796" y1="99.1355" x2="145.859" y2="15.374" gradientUnits="userSpaceOnUse">
<stop stop-color="#B0FF20"/>
<stop offset="0.1444" stop-color="#A9F722"/>
<stop offset="0.3684" stop-color="#96E128"/>
<stop offset="0.644" stop-color="#76BD32"/>
<stop offset="0.9579" stop-color="#4B8C40"/>
<stop offset="1" stop-color="#458542"/>
</linearGradient>
<linearGradient id="paint5_linear_6024_1453" x1="5.24679" y1="102.484" x2="147.832" y2="18.704" gradientUnits="userSpaceOnUse">
<stop stop-color="#B0FF20"/>
<stop offset="0.1444" stop-color="#A9F722"/>
<stop offset="0.3684" stop-color="#96E128"/>
<stop offset="0.644" stop-color="#76BD32"/>
<stop offset="0.9579" stop-color="#4B8C40"/>
<stop offset="1" stop-color="#458542"/>
</linearGradient>
<linearGradient id="paint6_linear_6024_1453" x1="4.9919" y1="101.94" x2="147.532" y2="18.1865" gradientUnits="userSpaceOnUse">
<stop stop-color="#B0FF20"/>
<stop offset="0.1444" stop-color="#A9F722"/>
<stop offset="0.3684" stop-color="#96E128"/>
<stop offset="0.644" stop-color="#76BD32"/>
<stop offset="0.9579" stop-color="#4B8C40"/>
<stop offset="1" stop-color="#458542"/>
</linearGradient>
<linearGradient id="paint7_linear_6024_1453" x1="4.80387" y1="101.692" x2="147.375" y2="17.9206" gradientUnits="userSpaceOnUse">
<stop stop-color="#B0FF20"/>
<stop offset="0.1444" stop-color="#A9F722"/>
<stop offset="0.3684" stop-color="#96E128"/>
<stop offset="0.644" stop-color="#76BD32"/>
<stop offset="0.9579" stop-color="#4B8C40"/>
<stop offset="1" stop-color="#458542"/>
</linearGradient>
<linearGradient id="paint8_linear_6024_1453" x1="4.18442" y1="100.606" x2="146.718" y2="16.8566" gradientUnits="userSpaceOnUse">
<stop stop-color="#B0FF20"/>
<stop offset="0.1444" stop-color="#A9F722"/>
<stop offset="0.3684" stop-color="#96E128"/>
<stop offset="0.644" stop-color="#76BD32"/>
<stop offset="0.9579" stop-color="#4B8C40"/>
<stop offset="1" stop-color="#458542"/>
</linearGradient>
<linearGradient id="paint9_linear_6024_1453" x1="4.20556" y1="100.635" x2="146.746" y2="16.8824" gradientUnits="userSpaceOnUse">
<stop stop-color="#B0FF20"/>
<stop offset="0.1444" stop-color="#A9F722"/>
<stop offset="0.3684" stop-color="#96E128"/>
<stop offset="0.644" stop-color="#76BD32"/>
<stop offset="0.9579" stop-color="#4B8C40"/>
<stop offset="1" stop-color="#458542"/>
</linearGradient>
<linearGradient id="paint10_linear_6024_1453" x1="3.7791" y1="99.9289" x2="146.356" y2="16.1565" gradientUnits="userSpaceOnUse">
<stop stop-color="#B0FF20"/>
<stop offset="0.1444" stop-color="#A9F722"/>
<stop offset="0.3684" stop-color="#96E128"/>
<stop offset="0.644" stop-color="#76BD32"/>
<stop offset="0.9579" stop-color="#4B8C40"/>
<stop offset="1" stop-color="#458542"/>
</linearGradient>
<linearGradient id="paint11_linear_6024_1453" x1="-21.8229" y1="56.2952" x2="120.698" y2="-27.4445" gradientUnits="userSpaceOnUse">
<stop stop-color="#B0FF20"/>
<stop offset="0.1444" stop-color="#A9F722"/>
<stop offset="0.3684" stop-color="#96E128"/>
<stop offset="0.644" stop-color="#76BD32"/>
<stop offset="0.9579" stop-color="#4B8C40"/>
<stop offset="1" stop-color="#458542"/>
</linearGradient>
<linearGradient id="paint12_linear_6024_1453" x1="-18.7729" y1="61.5131" x2="123.758" y2="-22.2329" gradientUnits="userSpaceOnUse">
<stop stop-color="#B0FF20"/>
<stop offset="0.1444" stop-color="#A9F722"/>
<stop offset="0.3684" stop-color="#96E128"/>
<stop offset="0.644" stop-color="#76BD32"/>
<stop offset="0.9579" stop-color="#4B8C40"/>
<stop offset="1" stop-color="#458542"/>
</linearGradient>
<linearGradient id="paint13_linear_6024_1453" x1="-14.5749" y1="68.6574" x2="127.955" y2="-15.0892" gradientUnits="userSpaceOnUse">
<stop stop-color="#B0FF20"/>
<stop offset="0.1444" stop-color="#A9F722"/>
<stop offset="0.3684" stop-color="#96E128"/>
<stop offset="0.644" stop-color="#76BD32"/>
<stop offset="0.9579" stop-color="#4B8C40"/>
<stop offset="1" stop-color="#458542"/>
</linearGradient>
<linearGradient id="paint14_linear_6024_1453" x1="-11.6219" y1="73.6731" x2="130.909" y2="-10.073" gradientUnits="userSpaceOnUse">
<stop stop-color="#B0FF20"/>
<stop offset="0.1444" stop-color="#A9F722"/>
<stop offset="0.3684" stop-color="#96E128"/>
<stop offset="0.644" stop-color="#76BD32"/>
<stop offset="0.9579" stop-color="#4B8C40"/>
<stop offset="1" stop-color="#458542"/>
</linearGradient>
<linearGradient id="paint15_linear_6024_1453" x1="-7.67405" y1="80.39" x2="134.825" y2="-3.338" gradientUnits="userSpaceOnUse">
<stop stop-color="#B0FF20"/>
<stop offset="0.1444" stop-color="#A9F722"/>
<stop offset="0.3684" stop-color="#96E128"/>
<stop offset="0.644" stop-color="#76BD32"/>
<stop offset="0.9579" stop-color="#4B8C40"/>
<stop offset="1" stop-color="#458542"/>
</linearGradient>
<linearGradient id="paint16_linear_6024_1453" x1="-4.65093" y1="85.5333" x2="137.849" y2="1.80584" gradientUnits="userSpaceOnUse">
<stop stop-color="#B0FF20"/>
<stop offset="0.1444" stop-color="#A9F722"/>
<stop offset="0.3684" stop-color="#96E128"/>
<stop offset="0.644" stop-color="#76BD32"/>
<stop offset="0.9579" stop-color="#4B8C40"/>
<stop offset="1" stop-color="#458542"/>
</linearGradient>
<linearGradient id="paint17_linear_6024_1453" x1="-1.32043" y1="91.2171" x2="141.186" y2="7.48572" gradientUnits="userSpaceOnUse">
<stop stop-color="#B0FF20"/>
<stop offset="0.1444" stop-color="#A9F722"/>
<stop offset="0.3684" stop-color="#96E128"/>
<stop offset="0.644" stop-color="#76BD32"/>
<stop offset="0.9579" stop-color="#4B8C40"/>
<stop offset="1" stop-color="#458542"/>
</linearGradient>
<linearGradient id="paint18_linear_6024_1453" x1="-7.65079" y1="80.325" x2="125.811" y2="1.90792" gradientUnits="userSpaceOnUse">
<stop stop-color="#B0FF20"/>
<stop offset="0.1444" stop-color="#A9F722"/>
<stop offset="0.3684" stop-color="#96E128"/>
<stop offset="0.644" stop-color="#76BD32"/>
<stop offset="0.9579" stop-color="#4B8C40"/>
<stop offset="1" stop-color="#458542"/>
</linearGradient>
</defs>
</svg>
