<svg width="130" height="130" viewBox="0 0 130 130" fill="none" xmlns="http://www.w3.org/2000/svg">
<path d="M3.08594 114.582H127.166V115.737H3.08594V114.582Z" fill="#1A492B"/>
<path d="M103.715 24.2623V101.24C103.715 101.424 103.679 101.607 103.608 101.778C103.537 101.949 103.434 102.104 103.303 102.235C103.173 102.366 103.017 102.469 102.847 102.54C102.676 102.611 102.493 102.647 102.308 102.647H40.496C40.1225 102.647 39.7641 102.499 39.4996 102.235C39.2352 101.972 39.0864 101.613 39.0859 101.24V24.2623C39.0861 24.0773 39.1227 23.8942 39.1936 23.7233C39.2646 23.5524 39.3685 23.3972 39.4994 23.2665C39.6304 23.1358 39.7858 23.0322 39.9568 22.9616C40.1278 22.8909 40.311 22.8547 40.496 22.8549H102.308C102.493 22.8547 102.676 22.8911 102.846 22.9617C103.017 23.0324 103.172 23.1361 103.303 23.2668C103.434 23.3974 103.537 23.5526 103.608 23.7234C103.679 23.8942 103.715 24.0775 103.715 24.2623Z" fill="#D7F4E1"/>
<path d="M99.625 26.9487V98.5542H43.1836L43.1836 26.9487L99.625 26.9487Z" fill="white"/>
<path d="M83.3516 109.925H112.666V114.633H83.3516V109.925Z" fill="#83FCAE"/>
<path d="M109.004 105.95H87.0145C86.5165 105.95 86.0389 106.148 85.6867 106.5C85.3346 106.852 85.1367 107.33 85.1367 107.828V109.925H110.882V107.828C110.882 107.33 110.684 106.852 110.332 106.5C109.98 106.148 109.502 105.95 109.004 105.95Z" fill="#70FEA3"/>
<path d="M102.77 98.4834L106.832 92.0701L109.397 93.6949L105.335 100.108L102.77 98.4834Z" fill="#389F5D"/>
<path d="M127.286 107.378C127.431 108.012 127.325 108.677 126.992 109.236C126.257 110.486 124.54 110.802 123.318 110.028L106.001 99.06L108.734 94.7451L126.16 105.782C126.757 106.16 127.139 106.741 127.286 107.378V107.378ZM101.58 104.168L100.647 105.64C100.602 105.711 100.543 105.772 100.475 105.821C100.406 105.869 100.329 105.903 100.247 105.921C100.166 105.94 100.081 105.942 99.9985 105.927C99.916 105.913 99.8371 105.883 99.7663 105.838L88.9919 99.0135C88.9211 98.9686 88.8599 98.9103 88.8117 98.8418C88.7634 98.7733 88.7292 98.696 88.7108 98.6143C88.6925 98.5325 88.6904 98.448 88.7047 98.3654C88.719 98.2829 88.7495 98.204 88.7943 98.1332L89.7272 96.6605C89.772 96.5897 89.8303 96.5284 89.8988 96.4802C89.9673 96.432 90.0446 96.3977 90.1263 96.3793C90.2081 96.361 90.2926 96.3589 90.3752 96.3732C90.4577 96.3876 90.5366 96.418 90.6074 96.4629L101.382 103.287C101.453 103.332 101.514 103.39 101.562 103.459C101.61 103.527 101.645 103.605 101.663 103.686C101.681 103.768 101.683 103.853 101.669 103.935C101.655 104.018 101.624 104.097 101.579 104.168H101.58Z" fill="#389F5D"/>
<path d="M91.1875 96.8297L91.9666 95.5997L101.583 101.69L100.803 102.92L91.1875 96.8297Z" fill="#389F5D"/>
<path d="M91.2969 95.1749L92.0759 93.9449L103.034 100.885L102.255 102.115L91.2969 95.1749Z" fill="#389F5D"/>
<path d="M111.459 88.564L112.392 87.091C112.437 87.0202 112.467 86.9413 112.482 86.8588C112.496 86.7762 112.494 86.6917 112.476 86.6099C112.457 86.5282 112.423 86.4509 112.375 86.3824C112.327 86.3139 112.265 86.2556 112.195 86.2107L101.42 79.3866C101.349 79.3418 101.27 79.3113 101.188 79.297C101.105 79.2827 101.021 79.2847 100.939 79.3031C100.857 79.3214 100.78 79.3557 100.711 79.4039C100.643 79.4522 100.584 79.5134 100.54 79.5842L99.6068 81.0573C99.562 81.128 99.5315 81.2069 99.5172 81.2895C99.5029 81.372 99.505 81.4566 99.5233 81.5383C99.5416 81.62 99.5759 81.6974 99.6242 81.7659C99.6724 81.8344 99.7336 81.8927 99.8044 81.9375L110.579 88.7619C110.65 88.8068 110.728 88.8372 110.811 88.8515C110.894 88.8659 110.978 88.8638 111.06 88.8454C111.142 88.8271 111.219 88.7928 111.287 88.7446C111.356 88.6964 111.414 88.6351 111.459 88.5643L111.459 88.564Z" fill="#389F5D"/>
<path d="M110 88.3951L109.221 89.6252L99.6049 83.5347L100.384 82.3046L110 88.3951Z" fill="#389F5D"/>
<path d="M109.895 90.0494L109.115 91.2795L98.1577 84.3391L98.9367 83.1091L109.895 90.0494Z" fill="#389F5D"/>
<path d="M92.7461 94.3696L98.8301 84.7639L108.446 90.8544L102.362 100.46L92.7461 94.3696Z" fill="#389F5D"/>
<path d="M84.377 21.5714V28.9204C84.3766 29.1327 84.2921 29.3363 84.1419 29.4864C83.9918 29.6366 83.7882 29.7211 83.5759 29.7215H59.2301C59.0172 29.7218 58.8129 29.6376 58.6621 29.4874C58.5113 29.3372 58.4263 29.1332 58.4258 28.9204V21.5714C58.4263 21.3585 58.5113 21.1546 58.6621 21.0044C58.8129 20.8542 59.0172 20.77 59.2301 20.7703H83.5759C83.7882 20.7706 83.9918 20.8552 84.1419 21.0053C84.2921 21.1555 84.3766 21.359 84.377 21.5714Z" fill="#389F5D"/>
<path d="M74.9703 19.4017V23.4101C74.9706 23.5665 74.9401 23.7215 74.8803 23.8661C74.8206 24.0107 74.7329 24.1421 74.6222 24.2528C74.5116 24.3634 74.3802 24.4511 74.2356 24.5108C74.091 24.5706 73.936 24.6012 73.7795 24.6009H69.0233C68.3675 24.6009 67.8359 24.0693 67.8359 23.4101V19.4017C67.8359 17.4306 69.4335 15.8365 71.4014 15.8365C72.3854 15.8365 73.2777 16.2332 73.924 16.8794C74.2559 17.2102 74.5192 17.6033 74.6988 18.0362C74.8784 18.469 74.9706 18.9331 74.9703 19.4017Z" fill="#60FE99"/>
<path d="M71.4018 20.4955C72.1868 20.4955 72.8231 19.8591 72.8231 19.0742C72.8231 18.2892 72.1868 17.6528 71.4018 17.6528C70.6168 17.6528 69.9805 18.2892 69.9805 19.0742C69.9805 19.8591 70.6168 20.4955 71.4018 20.4955Z" fill="#389F5D"/>
<path d="M48.9414 34.7837H93.8636V41.1875H48.9414V34.7837Z" fill="#389F5D"/>
<path d="M81.2208 79.417H95.6207V80.091H81.2208V79.417ZM47.1836 79.417H61.576V80.091H47.1836V79.417ZM69.0874 79.417H78.4763V80.091H69.0874V79.417ZM47.1836 76.1431H79.2705V76.817H47.1836V76.1431ZM82.0152 76.1431H95.6207V76.817H82.0152V76.1431ZM57.6041 72.8691H66.2708V73.5431H57.6041V72.8691ZM47.1836 72.8691H54.7149V73.5431H47.1836V72.8691ZM72.4819 72.8691H95.6207V73.5431H72.4819V72.8691ZM47.1836 69.5948H61.8649V70.2688H47.1836V69.5948ZM64.2485 69.5948H70.6763V70.2688H64.2485V69.5948ZM72.4819 69.5948H79.1986V70.2688H72.4819V69.5948ZM80.7152 69.5948H95.6207V70.2688H80.7152V69.5948ZM47.1836 66.3208H50.5983V66.9948H47.1836V66.3208ZM54.7874 66.3208H62.5152V66.9948H54.7874V66.3208ZM64.3208 66.3208H74.8652V66.9948H64.3208V66.3208ZM77.1041 66.3208H86.7097V66.9948H77.1041V66.3208ZM88.7319 66.3208H95.6207V66.9948H88.7319V66.3208ZM60.2763 63.0469H68.8708V63.7208H60.2763V63.0469ZM47.1836 63.0469H59.5538V63.7208H47.1836V63.0469ZM71.9763 63.0469H88.6597V63.7208H71.9763V63.0469ZM91.1874 63.0469H95.6207V63.7208H91.1874V63.0469ZM65.4763 59.7726H79.343V60.4466H65.4763V59.7726ZM81.5819 59.7726H95.6207V60.4466H81.5819V59.7726ZM47.1836 59.7726H61.7205V60.4466H47.1836V59.7726ZM47.1836 56.4986H52.476V57.1726H47.1836V56.4986ZM53.993 56.4986H64.0319V57.1726H53.993V56.4986ZM67.5708 56.4986H77.0319V57.1726H67.5708V56.4986ZM80.1374 56.4986H95.6207V57.1726H80.1374V56.4986ZM87.4319 53.2246H95.6207V53.8986H87.4319V53.2246ZM47.1836 53.2246H54.8594V53.8986H47.1836V53.2246ZM56.1597 53.2246H60.9985V53.8986H56.1597V53.2246ZM63.3819 53.2246H85.4097V53.8986H63.3819V53.2246ZM75.9486 49.9504H95.6207V50.6243H75.9486V49.9504ZM47.1836 49.9504H51.7538V50.6243H47.1836V49.9504ZM53.7041 49.9504H59.2652V50.6243H53.7041V49.9504ZM62.1541 49.9504H74.2874V50.6243H62.1541V49.9504ZM73.7819 46.6764H83.8208V47.3504H73.7819V46.6764ZM54.4263 46.6764H59.5541V47.3504H54.4263V46.6764ZM47.1836 46.6764H52.1872V47.3504H47.1836V46.6764ZM62.5152 46.6764H72.6985V47.3504H62.5152V46.6764ZM87.793 46.6764H95.6207V47.3504H87.793V46.6764Z" fill="#D7F4E1"/>
<path d="M55.3554 94.9976C58.4081 94.9976 60.8827 92.523 60.8827 89.4703C60.8827 86.4177 58.4081 83.943 55.3554 83.943C52.3028 83.943 49.8281 86.4177 49.8281 89.4703C49.8281 92.523 52.3028 94.9976 55.3554 94.9976Z" fill="#389F5D"/>
<path d="M54.4629 91.7922L52.8281 90.1571L53.6451 89.3401L54.4629 90.1579L57.0638 87.5574L57.8808 88.3744L54.4629 91.7922Z" fill="white"/>
<path d="M24.3829 114.486L24.3078 113.998L21.0078 90.1954H33.6271L34.1069 114.485L24.3829 114.486Z" fill="#3AC96D"/>
<path d="M21.0078 90.1954L24.3081 113.998L25.8536 90.1954H21.0078Z" fill="#1CB553"/>
<path d="M11.7656 114.486V90.1954H25.8498L22.425 114.485L11.7656 114.486Z" fill="#3AC96D"/>
<path d="M57.8423 69.3073C58.5697 68.8977 59.7106 68.3843 60.0413 68.9835C60.5408 69.8813 57.8163 70.7887 57.8163 70.7887C57.8163 70.7887 60.1858 70.5282 59.4789 71.784C58.7697 73.0415 52.4427 74.6723 52.4427 74.6723L50.6328 69.567C50.6328 69.567 52.7368 65.9946 53.4824 66.8093C53.8288 67.1877 53.2195 69.1109 53.2195 69.1109C53.2195 69.1109 56.9485 66.094 57.5633 66.9682C57.8911 67.4411 57.1767 68.087 56.449 68.5859C57.7048 67.8787 59.4743 66.9829 59.6563 67.4292C59.851 67.9102 58.6275 68.7986 57.8423 69.307V69.3073Z" fill="#BDFED4"/>
<path d="M28.9219 32.9397C29.5335 33.5077 30.1601 35.488 30.3068 36.3099C30.6921 38.4796 30.5406 40.7107 29.8654 42.8084C29.7614 43.1291 29.6349 43.4625 29.3743 43.6771C28.9727 44.0079 28.3713 43.955 27.8931 43.7499C27.116 43.4168 26.5186 42.744 26.1471 41.9845C25.7756 41.225 25.6106 40.3809 25.5193 39.5405C25.3023 37.5297 25.4836 35.4958 26.0529 33.555M18.3038 61.2159C18.1486 61.2811 17.9854 61.3409 17.8387 61.4253C17.3626 61.6997 17.1338 62.1952 16.9298 62.723L12.0932 65.0023L11.9216 64.97C11.8151 64.9508 11.709 64.929 11.6036 64.9047C10.9261 64.7524 10.2458 64.5074 9.84077 63.9632C9.40281 63.3759 9.38923 62.5621 9.5877 61.8578C9.78906 61.1558 10.1753 60.5219 10.4991 59.8638C10.8198 59.2081 11.0839 58.4873 11.0076 57.7607C10.9151 56.9013 10.3712 56.1615 10.1617 55.3237C9.84886 54.0557 10.3602 52.6985 11.1983 51.6973C12.0331 50.6962 13.358 50.4105 14.2966 49.502C14.5356 49.2684 14.7777 49.0381 15.0229 48.811L16.9544 49.1238C16.9544 49.1238 17.1364 49.9073 17.3351 50.8052C17.52 51.6458 17.7188 52.5922 17.7815 53.0767C17.9392 54.2464 18.0859 56.6676 18.1894 58.6996C18.2385 59.6951 18.2763 60.5982 18.3038 61.2159Z" fill="#062D14"/>
<path d="M11.9188 64.97L12.0904 65.0026L11.4375 65.31L11.6007 64.9047C11.7067 64.9289 11.8128 64.9509 11.9188 64.97Z" fill="#3D9C5F"/>
<path d="M12.0938 65.0026L16.9306 62.7229C16.7619 63.147 16.6151 63.5908 16.3621 63.9579C15.9079 64.6218 15.119 65.0026 14.322 65.1193C13.5818 65.2311 12.831 65.1386 12.0938 65.0026ZM17.8392 61.4253C17.9862 61.3409 18.1494 61.2808 18.3043 61.2158C18.3262 61.7381 18.3372 62.0591 18.3372 62.0591L16.9306 62.7229C17.1346 62.1951 17.3634 61.7 17.8392 61.4253ZM18.8783 60.8296C18.7425 61.0254 18.5299 61.126 18.3043 61.2158C18.2768 60.5982 18.2393 59.6951 18.1902 58.6996C18.2393 58.8082 18.2962 58.9145 18.3615 59.0177C18.5383 59.3034 18.7616 59.5619 18.8974 59.8664C19.0334 60.1738 19.0716 60.5548 18.8783 60.8296Z" fill="#3D9C5F"/>
<path d="M17.3377 50.8046C15.1433 50.7534 14.2969 49.5023 14.2969 49.5023C14.7253 49.0868 15.0234 48.8115 15.0234 48.8115L16.9552 49.125C16.9552 49.125 17.1387 49.9073 17.3377 50.8046ZM52.8286 74.9707C52.8286 74.9707 44.1712 82.7545 38.552 82.4824C38.1114 82.4627 37.7131 82.4009 37.3597 82.2888C33.9289 81.2171 29.4656 74.748 27.8663 72.282C27.4792 71.6872 27.2605 71.3252 27.2605 71.3252L26.9127 55.3826C26.9127 55.3826 32.2398 55.9269 35.0452 61.3242C37.8506 66.7189 39.7136 73.1961 39.7136 73.1961L50.6327 68.9358L52.8283 74.9707H52.8286Z" fill="#389F5D"/>
<path d="M38.5529 82.4824C38.1123 82.4627 37.714 82.4009 37.3607 82.2888C33.9298 81.2171 29.4665 74.748 27.8672 72.282L31.4246 59.958L33.4023 64.6429C33.4023 64.6429 36.0673 67.799 36.1375 70.6746C36.1993 73.1516 35.4783 79.7977 38.5529 82.4824Z" fill="#47B970"/>
<path d="M11.0278 90.4217C11.0793 91.4926 11.1223 92.404 11.1547 93.0896H34.7849L34.0627 77.2038C34.0627 77.2038 33.9385 76.3106 34.2718 75.6465C35.257 73.7135 35.87 69.7046 32.4293 66.0698C32.4293 66.0698 32.2069 59.2416 29.8371 57.209C28.2641 55.8593 27.4451 55.3058 25.3801 55.1117C23.2805 54.9129 19.6234 55.025 17.5235 55.2185C15.2546 55.4277 11.12 56.5671 9.88587 58.4801C9.16451 59.5998 9.35345 64.19 9.78389 68.9168C10.162 73.084 10.7317 84.3316 11.0278 90.4217Z" fill="#389F5D"/>
<path d="M21.6692 80.2851L20.9498 87.4166L11.0291 90.4216C10.733 84.3312 10.1633 73.0839 9.78516 68.9167C10.6833 64.6949 11.4168 59.7864 12.5065 59.2418C12.5065 59.2418 15.1952 60.7224 15.6103 64.1284C16.1026 68.1639 13.173 78.3865 13.173 78.3865L21.6692 80.2851Z" fill="#47B970"/>
<path d="M20.8359 81.5952C20.8359 81.5952 25.5194 78.2198 26.306 78.7208C27.0826 79.2179 25.0318 81.6657 25.0318 81.6657" fill="#BDFED4"/>
<path d="M27.1788 76.1974H27.9415L25.672 89.0047H24.9093C24.2743 89.0047 23.8508 88.4902 23.9635 87.8549L25.8248 77.3495C25.9377 76.7119 26.5435 76.1974 27.1788 76.1974Z" fill="#062D14"/>
<path d="M26.5477 77.3495L24.6861 87.8549C24.5735 88.4902 24.997 89.0047 25.6322 89.0047H31.5816C32.2166 89.0047 32.8224 88.4902 32.9351 87.8549L34.7967 77.3495C34.9093 76.7119 34.4861 76.1974 33.8508 76.1974H27.9015C27.2665 76.1974 26.6607 76.7119 26.5477 77.3495Z" fill="#0E381D"/>
<path d="M25.0293 81.6657C25.5822 81.6027 29.6949 81.1408 29.4207 82.1704C29.3216 82.5445 28.507 82.9741 28.1438 83.0645C29.2653 83.0963 30.8562 83.4406 30.7505 83.9528C30.6034 84.6658 29.241 84.5927 28.7664 84.5456C29.2488 84.6112 30.6329 84.8576 30.3457 85.525C30.171 85.9312 28.5044 86.0516 27.9797 86.069C28.3617 86.1943 29.8107 86.5254 29.1572 87.1945C28.3166 88.0554 20.0312 86.8076 20.0312 86.8076L20.8338 81.5952" fill="#BDFED4"/>
<path d="M10.1687 58.0736C7.13333 59.458 1.68027 77.9313 2.80202 82.8464C4.3964 89.8346 20.9494 87.4166 20.9494 87.4166L21.6691 80.2851L11.2994 79.1281C11.2994 79.1281 15.6934 69.7675 15.241 63.5772C14.8724 58.539 10.1687 58.0736 10.1687 58.0736Z" fill="#389F5D"/>
<path d="M24.2233 59.2771C19.6806 60.5832 17.5234 55.2188 17.5234 55.2188L17.9464 48.4842L20.5065 47.9989L22.7156 49.519L24.7558 50.9222L24.4943 53.6291L24.3626 55.0071C24.3626 55.0071 25.8579 58.8068 24.2233 59.2771Z" fill="#BDFED4"/>
<path d="M24.7594 50.9222L24.498 53.6291C24.498 53.6291 19.6244 51.7955 18.9103 49.7031C18.4302 48.2901 21.0001 48.9445 22.7193 49.5191L24.7594 50.9222Z" fill="#89F1AE"/>
<path d="M26.5954 52.5021C21.4352 53.9696 17.9481 48.483 17.9481 48.483C17.9481 48.483 14.9826 48.0266 14.8685 45.7845C14.7544 43.5422 16.5406 43.2752 17.1496 43.9209C17.1496 43.9209 17.9481 34.3402 24.0295 34.493C26.42 34.5522 28.0329 37.1551 28.8016 40.3598C29.9878 45.3076 29.625 51.6406 26.5954 52.5021Z" fill="#BDFED4"/>
<path d="M29.7718 37.9241C29.2712 43.3185 19.5241 38.15 20.4762 39.8747C21.4284 41.5965 19.9297 41.4023 18.8495 43.5309C18.045 45.116 18.1302 45.8983 17.9259 45.9833C17.6732 46.0887 17.4805 45.5788 17.3505 45.04C17.0333 43.7239 15.0836 43.7891 14.8946 45.1296C14.8655 45.3462 14.8571 45.5651 14.8695 45.7833C14.9839 48.0277 17.949 48.4819 17.949 48.4819L17.8349 50.3019C8.27993 47.9988 9.5496 31.6223 22.9 31.0772C28.0472 30.8671 30.2699 32.5297 29.7718 37.9241Z" fill="#062D14"/>
<path d="M23.6365 44.2255C23.8925 44.2138 24.0858 43.893 24.0682 43.5091C24.0506 43.1251 23.8288 42.8234 23.5728 42.8351C23.3169 42.8468 23.1236 43.1676 23.1412 43.5515C23.1588 43.9355 23.3806 44.2372 23.6365 44.2255Z" fill="#062D14"/>
<path d="M22.8981 42.5138C22.8682 42.5137 22.8391 42.5044 22.8147 42.4871C22.7903 42.4698 22.7719 42.4453 22.762 42.4171C22.7522 42.3889 22.7513 42.3583 22.7595 42.3296C22.7677 42.3008 22.7846 42.2754 22.808 42.2567C23.7197 41.5295 24.2969 42.0322 24.3209 42.0539C24.3495 42.0794 24.3667 42.1152 24.3689 42.1534C24.3711 42.1917 24.3579 42.2292 24.3324 42.2578C24.3069 42.2864 24.2711 42.3037 24.2328 42.3058C24.1946 42.308 24.1571 42.2949 24.1285 42.2694C24.1091 42.2529 23.698 41.9163 22.9879 42.4823C22.9625 42.5028 22.9308 42.514 22.8981 42.5141V42.5138Z" fill="#062D14"/>
<path d="M27.5584 44.2255C27.8144 44.2138 28.0076 43.893 27.99 43.5091C27.9724 43.1251 27.7507 42.8234 27.4947 42.8351C27.2388 42.8468 27.0455 43.1676 27.0631 43.5515C27.0807 43.9355 27.3025 44.2372 27.5584 44.2255Z" fill="#062D14"/>
<path d="M26.82 42.5138C26.7901 42.5137 26.7609 42.5044 26.7366 42.4871C26.7122 42.4698 26.6938 42.4453 26.6839 42.4171C26.674 42.3889 26.6731 42.3583 26.6814 42.3296C26.6896 42.3008 26.7065 42.2754 26.7298 42.2567C27.6419 41.5295 28.2188 42.0322 28.243 42.0539C28.2716 42.0794 28.2889 42.1152 28.2911 42.1534C28.2932 42.1917 28.2801 42.2292 28.2546 42.2578C28.2291 42.2864 28.1933 42.3037 28.155 42.3058C28.1168 42.308 28.0792 42.2949 28.0506 42.2694C28.0313 42.2529 27.6202 41.9163 26.9098 42.4823C26.8844 42.5027 26.8529 42.5139 26.8203 42.5141L26.82 42.5138Z" fill="#062D14"/>
<path d="M26.3644 47.1883C26.3351 47.1884 26.3064 47.1795 26.2823 47.1629C26.2581 47.1463 26.2396 47.1228 26.2292 47.0954C26.2187 47.068 26.2169 47.0381 26.224 47.0096C26.231 46.9811 26.2465 46.9555 26.2685 46.9361C26.397 46.8214 26.4707 46.6697 26.4753 46.5088C26.4771 46.43 26.4626 46.3517 26.4328 46.2787C26.403 46.2058 26.3585 46.1397 26.302 46.0847C26.2477 46.0298 26.1841 45.9819 26.1209 45.9337C26.0762 45.9 26.0323 45.8652 25.9894 45.8294C25.6898 45.5746 25.4879 45.2172 25.4061 44.796C25.3351 44.4291 25.3573 44.0625 25.379 43.7083C25.3798 43.6892 25.3845 43.6704 25.3927 43.6531C25.4009 43.6357 25.4124 43.6202 25.4267 43.6074C25.4409 43.5946 25.4576 43.5847 25.4757 43.5784C25.4938 43.5721 25.513 43.5694 25.5321 43.5706C25.5512 43.5718 25.5699 43.5767 25.5871 43.5852C25.6043 43.5937 25.6197 43.6055 25.6323 43.6199C25.6448 43.6344 25.6544 43.6512 25.6604 43.6694C25.6665 43.6876 25.6688 43.7068 25.6673 43.726C25.6471 44.0622 25.6257 44.41 25.6898 44.7408C25.7592 45.097 25.9273 45.3975 26.1766 45.6092C26.215 45.6419 26.2558 45.6728 26.2965 45.704C26.3702 45.7606 26.4435 45.8172 26.5068 45.8808C26.6799 46.0541 26.7711 46.2803 26.7639 46.5175C26.757 46.7587 26.6492 46.984 26.4606 47.1519C26.4341 47.1755 26.3998 47.1884 26.3644 47.1883ZM25.2071 49.1152C24.6033 49.1152 24.0053 48.7986 23.6696 48.2962C23.6578 48.2805 23.6493 48.2625 23.6447 48.2435C23.6401 48.2244 23.6394 48.2045 23.6427 48.1852C23.646 48.1658 23.6532 48.1473 23.6638 48.1308C23.6745 48.1143 23.6885 48.1002 23.7048 48.0893C23.7211 48.0784 23.7395 48.0709 23.7588 48.0673C23.7781 48.0637 23.798 48.0642 23.8171 48.0685C23.8363 48.0729 23.8543 48.0811 23.8702 48.0927C23.8861 48.1042 23.8994 48.1189 23.9094 48.1358C24.2032 48.5744 24.7365 48.8456 25.2603 48.8254C25.2986 48.824 25.3359 48.8379 25.364 48.864C25.392 48.89 25.4086 48.9262 25.41 48.9645C25.4115 49.0028 25.3976 49.0401 25.3715 49.0682C25.3454 49.0963 25.3093 49.1129 25.2709 49.1143C25.2498 49.115 25.2283 49.1153 25.2071 49.1152Z" fill="#89F1AE"/>
<path d="M112.124 66.5482C114.626 66.5482 116.654 64.52 116.654 62.0181C116.654 59.5162 114.626 57.488 112.124 57.488C109.622 57.488 107.594 59.5162 107.594 62.0181C107.594 64.52 109.622 66.5482 112.124 66.5482Z" fill="#DAF9E5"/>
<path d="M112.122 64.6791C113.591 64.6791 114.783 63.4877 114.783 62.0181C114.783 60.5485 113.591 59.3572 112.122 59.3572C110.652 59.3572 109.461 60.5485 109.461 62.0181C109.461 63.4877 110.652 64.6791 112.122 64.6791Z" fill="white"/>
<path d="M113.922 65.3905L117.688 69.1568C117.791 69.26 117.914 69.3418 118.049 69.3977C118.183 69.4536 118.328 69.4823 118.474 69.4823C118.62 69.4823 118.764 69.4536 118.899 69.3977C119.034 69.3418 119.157 69.26 119.26 69.1568C119.468 68.9482 119.586 68.6654 119.586 68.3703C119.587 68.0752 119.47 67.792 119.262 67.5829L115.496 63.8167L113.922 65.3905Z" fill="#DAF9E5"/>
<path d="M33.7983 28.0763C35.3961 27.1537 35.9439 25.1114 35.0218 23.5147C34.0998 21.9181 32.0572 21.3717 30.4594 22.2944C28.8616 23.217 28.3138 25.2593 29.2359 26.856C30.1579 28.4526 32.2005 28.999 33.7983 28.0763Z" fill="#DAF9E5"/>
<path d="M34.3669 24.8152C34.5708 26.0517 33.7348 27.2182 32.4978 27.423C31.2607 27.6278 30.0942 26.7924 29.89 25.5556C29.8274 25.1791 29.8611 24.7928 29.9879 24.4327C30.1147 24.0727 30.3304 23.7505 30.6151 23.4962C30.9364 23.2081 31.3333 23.0179 31.7591 22.9478C32.1847 22.877 32.6218 22.9293 33.0186 23.0986C33.3699 23.2478 33.6778 23.4834 33.9135 23.7835C34.1492 24.0837 34.3052 24.4386 34.3669 24.8152Z" fill="white"/>
<path d="M32.7246 21.2842L33.0242 23.0984L33.0213 23.0987C32.6246 22.9295 32.1877 22.8772 31.7623 22.9479C31.3365 23.0179 30.9396 23.2082 30.6183 23.4962L30.6157 23.4968L30.3164 21.6826L32.7246 21.2842Z" fill="#B3F7CB"/>
<path d="M43.6069 20.4936C45.2047 19.5709 45.7525 17.5286 44.8304 15.932C43.9084 14.3353 41.8658 13.7889 40.268 14.7116C38.6702 15.6342 38.1224 17.6765 39.0445 19.2732C39.9665 20.8698 42.0091 21.4162 43.6069 20.4936Z" fill="#DAF9E5"/>
<path d="M42.6971 15.4639C42.9781 15.5629 43.2368 15.7163 43.4584 15.9153C43.6801 16.1143 43.8602 16.3551 43.9887 16.6239C44.1172 16.8927 44.1913 17.1841 44.207 17.4816C44.2227 17.779 44.1795 18.0767 44.0801 18.3575C43.9808 18.6384 43.8272 18.8971 43.628 19.1187C43.4288 19.3403 43.1879 19.5205 42.919 19.649C42.6502 19.7775 42.3587 19.8518 42.0611 19.8676C41.7635 19.8834 41.4658 19.8405 41.1848 19.7412C40.8248 19.6147 40.5026 19.3991 40.2483 19.1146C39.9939 18.8301 39.8157 18.4858 39.7303 18.1139C39.6329 17.6937 39.6577 17.2543 39.8019 16.8477C39.9455 16.4409 40.2024 16.0835 40.5423 15.8178C40.8426 15.582 41.1976 15.4259 41.5744 15.364C41.9512 15.3022 42.3372 15.3365 42.6971 15.4639Z" fill="white"/>
<path d="M38.8057 15.2034L40.5402 15.8152L40.5393 15.8178C40.1994 16.0835 39.9425 16.4409 39.7989 16.8477C39.6547 17.2543 39.6299 17.6937 39.7273 18.1139L39.7264 18.1162L37.9922 17.5044L38.8057 15.2034Z" fill="#B3F7CB"/>
<path d="M38.6131 16.5892C38.606 16.5932 38.5984 16.5963 38.5905 16.5984C38.3233 16.6692 38.0382 16.7019 37.7426 16.6952C37.7181 16.6946 37.6948 16.6843 37.6779 16.6666C37.661 16.6489 37.6518 16.6251 37.6524 16.6006C37.6529 16.5761 37.6632 16.5528 37.681 16.5359C37.6987 16.5189 37.7225 16.5097 37.747 16.5103C38.0153 16.5175 38.2833 16.487 38.5432 16.4196C38.5649 16.4137 38.588 16.4159 38.6082 16.4259C38.6284 16.4358 38.6443 16.4528 38.6528 16.4736C38.6614 16.4944 38.6621 16.5176 38.6548 16.5389C38.6475 16.5602 38.6326 16.5781 38.6131 16.5892Z" fill="#B3F7CB"/>
<path d="M37.8416 16.9578C37.7647 17.002 37.6737 17.0243 37.5798 17.0197C37.4818 17.016 37.384 17.0088 37.2866 16.998C37.2251 16.9926 37.1652 16.9748 37.1108 16.9456C37.0564 16.9164 37.0085 16.8764 36.97 16.8281C36.9356 16.7852 36.9106 16.7356 36.8964 16.6825C36.8821 16.6294 36.8791 16.5739 36.8874 16.5196C36.9041 16.4098 36.9648 16.3116 37.0584 16.2428C37.1505 16.1787 37.2615 16.1484 37.3715 16.1582L37.3744 16.1585C37.457 16.1683 37.5382 16.1729 37.6191 16.1767C37.8488 16.1882 38.0322 16.3673 38.0467 16.5944C38.0498 16.6483 38.0413 16.7022 38.0219 16.7525C38.0025 16.8028 37.9725 16.8484 37.934 16.8862C37.9065 16.9142 37.8756 16.9382 37.8416 16.9578ZM37.1866 16.3801C37.156 16.3976 37.1297 16.4217 37.1095 16.4507C37.0894 16.4797 37.076 16.5128 37.0702 16.5476C37.0659 16.577 37.0678 16.6069 37.0756 16.6356C37.0835 16.6642 37.0972 16.6909 37.1159 16.714C37.1606 16.7715 37.2282 16.807 37.306 16.814C37.4001 16.8252 37.494 16.8307 37.5885 16.8351C37.6276 16.8377 37.6669 16.8322 37.7037 16.8187C37.7405 16.8052 37.7741 16.7841 37.8023 16.7568C37.8223 16.7374 37.838 16.7139 37.8483 16.6879C37.8585 16.662 37.8631 16.6341 37.8618 16.6063C37.8574 16.5416 37.8294 16.4809 37.783 16.4357C37.7366 16.3905 37.6752 16.364 37.6104 16.3613C37.5246 16.3581 37.439 16.3517 37.3536 16.3422C37.2954 16.3374 37.2372 16.3508 37.1866 16.3801Z" fill="#B3F7CB"/>
<path d="M37.2627 16.647C37.2452 16.657 37.2249 16.6611 37.2049 16.6585C36.9286 16.6223 36.6536 16.5775 36.3801 16.5242C36.3682 16.5219 36.3568 16.5173 36.3466 16.5107C36.3364 16.504 36.3277 16.4954 36.3208 16.4854C36.3139 16.4753 36.3091 16.464 36.3066 16.4521C36.3042 16.4402 36.304 16.4279 36.3063 16.416C36.3086 16.404 36.3131 16.3927 36.3198 16.3825C36.3265 16.3723 36.3351 16.3635 36.3451 16.3567C36.3552 16.3498 36.3664 16.345 36.3784 16.3425C36.3903 16.34 36.4025 16.3399 36.4145 16.3422C36.6722 16.3907 36.9472 16.4404 37.228 16.4751C37.2472 16.4775 37.2652 16.4858 37.2795 16.499C37.2937 16.5122 37.3034 16.5295 37.3072 16.5485C37.3111 16.5675 37.3088 16.5873 37.3008 16.6049C37.2928 16.6226 37.2795 16.6373 37.2627 16.647Z" fill="#B3F7CB"/>
<path d="M36.4926 16.7683C36.3987 16.8226 36.2849 16.8416 36.1751 16.8205L35.9125 16.7717C35.6776 16.7298 35.5138 16.5109 35.5473 16.2838C35.5647 16.1711 35.6305 16.07 35.7287 16.0062C35.8284 15.9434 35.948 15.9204 36.0638 15.9415H36.0644L36.3322 15.9914C36.576 16.0379 36.7346 16.2555 36.6936 16.4866C36.683 16.5455 36.6595 16.6013 36.6247 16.65C36.59 16.6987 36.5448 16.7391 36.4926 16.7683ZM35.8379 16.1558L35.8287 16.1616C35.8026 16.1781 35.7803 16.2 35.7634 16.2258C35.7464 16.2516 35.7352 16.2807 35.7305 16.3112C35.7111 16.4401 35.8079 16.5655 35.9457 16.59L36.2095 16.6391C36.2451 16.6463 36.2817 16.6463 36.3173 16.6391C36.3529 16.632 36.3868 16.6178 36.4169 16.5975C36.4414 16.5812 36.4624 16.5602 36.4787 16.5356C36.495 16.511 36.5062 16.4835 36.5116 16.4545C36.5347 16.3239 36.4409 16.2003 36.2979 16.1729L36.0306 16.1235C35.9646 16.1114 35.8964 16.1228 35.8379 16.1558Z" fill="#B3F7CB"/>
<path d="M35.9225 16.4175C35.9037 16.4283 35.8817 16.4321 35.8604 16.4282C35.536 16.3707 35.2855 16.3387 35.0478 16.3242C35.0356 16.3235 35.0238 16.3203 35.0128 16.315C35.0019 16.3096 34.9922 16.3022 34.9841 16.2931C34.9761 16.2839 34.9699 16.2733 34.9659 16.2618C34.962 16.2503 34.9604 16.2381 34.9611 16.226C34.9619 16.2139 34.965 16.202 34.9704 16.1911C34.9757 16.1801 34.9832 16.1704 34.9923 16.1623C35.0014 16.1543 35.012 16.1481 35.0235 16.1442C35.035 16.1402 35.0472 16.1386 35.0593 16.1393C35.3043 16.1547 35.5614 16.1876 35.8928 16.2462C35.9114 16.2496 35.9286 16.2586 35.9419 16.2721C35.9552 16.2855 35.9641 16.3027 35.9674 16.3213C35.9706 16.34 35.9681 16.3592 35.9601 16.3764C35.952 16.3935 35.9389 16.4078 35.9225 16.4173V16.4175Z" fill="#B3F7CB"/>
<path d="M35.1384 16.586C35.0665 16.6273 34.9827 16.6496 34.8946 16.6458C34.868 16.6458 34.8368 16.6452 34.8051 16.6444C34.7559 16.6432 34.7063 16.6418 34.658 16.6455C34.4249 16.6513 34.2281 16.4886 34.1949 16.2671C34.1872 16.2095 34.1923 16.151 34.2099 16.0957C34.2276 16.0404 34.2573 15.9897 34.2969 15.9473C34.3726 15.862 34.4887 15.8103 34.6231 15.8028C34.6897 15.799 34.7565 15.7983 34.8233 15.8008C34.8556 15.8017 34.888 15.8022 34.9206 15.8022C35.0581 15.808 35.1812 15.8652 35.2621 15.96C35.3346 16.0446 35.3678 16.1506 35.3554 16.259C35.3473 16.3267 35.3234 16.3915 35.2856 16.4483C35.2479 16.5051 35.1977 16.5523 35.1384 16.586ZM34.4884 16.0273C34.4683 16.0387 34.4502 16.0534 34.4347 16.0706C34.413 16.0929 34.3967 16.1199 34.3869 16.1494C34.3771 16.1789 34.3741 16.2102 34.3781 16.2411C34.3887 16.3043 34.422 16.3616 34.4718 16.4021C34.5215 16.4426 34.5844 16.4636 34.6485 16.4612C34.6982 16.4569 34.7539 16.4583 34.81 16.4598C34.8394 16.4603 34.8686 16.4612 34.8978 16.4609C35.0362 16.4667 35.1569 16.3667 35.1717 16.2379C35.1747 16.2096 35.1719 16.1809 35.1633 16.1538C35.1547 16.1266 35.1405 16.1015 35.1217 16.0802C35.0957 16.0515 35.0641 16.0284 35.0289 16.0124C34.9937 15.9964 34.9555 15.9878 34.9169 15.9871C34.8868 15.9871 34.8527 15.9863 34.8186 15.9857C34.758 15.9842 34.6973 15.9828 34.6355 15.9871H34.634C34.5783 15.9903 34.5283 16.0045 34.4884 16.0273Z" fill="#B3F7CB"/>
<path d="M34.5716 16.3098C34.5593 16.3169 34.5456 16.3211 34.5315 16.322C34.2654 16.3402 33.9976 16.3878 33.7356 16.4638C33.7239 16.4672 33.7117 16.4683 33.6996 16.4669C33.6875 16.4656 33.6758 16.4619 33.6652 16.4561C33.6545 16.4502 33.6451 16.4423 33.6375 16.4329C33.6299 16.4234 33.6243 16.4125 33.6209 16.4008C33.6175 16.3892 33.6164 16.3769 33.6177 16.3649C33.6191 16.3528 33.6228 16.3411 33.6286 16.3304C33.6345 16.3198 33.6423 16.3104 33.6518 16.3028C33.6613 16.2952 33.6722 16.2895 33.6839 16.2861C33.9561 16.2069 34.2361 16.1571 34.519 16.1377C34.5398 16.1363 34.5605 16.142 34.5777 16.1538C34.5948 16.1656 34.6075 16.1829 34.6136 16.2029C34.6197 16.2228 34.6188 16.2443 34.6112 16.2637C34.6036 16.2831 34.5896 16.2994 34.5716 16.3098Z" fill="#B3F7CB"/>
<path d="M33.7853 16.7844C33.7608 16.7985 33.7351 16.8103 33.7085 16.8197C33.6513 16.8364 33.6013 16.857 33.551 16.8772L33.4788 16.9061C33.3773 16.9477 33.2641 16.9507 33.1606 16.9145C33.057 16.8783 32.9703 16.8054 32.9169 16.7096C32.8894 16.6582 32.8739 16.6012 32.8714 16.543C32.869 16.4847 32.8797 16.4266 32.9028 16.3731C32.9548 16.2578 33.0481 16.168 33.1599 16.1246L33.2344 16.0952C33.3023 16.0677 33.3702 16.0403 33.4404 16.0198C33.5629 15.9764 33.6995 15.9868 33.811 16.0489C33.9101 16.1044 33.98 16.1966 34.0031 16.302C34.0227 16.3951 34.0121 16.492 33.973 16.5788C33.9338 16.6655 33.8681 16.7375 33.7853 16.7844ZM33.1902 16.3144C33.138 16.3453 33.0966 16.3918 33.072 16.4473C33.0602 16.4752 33.0547 16.5054 33.0561 16.5357C33.0574 16.566 33.0655 16.5956 33.0798 16.6224C33.1411 16.7345 33.2896 16.7853 33.41 16.7342L33.482 16.7059C33.5377 16.683 33.5938 16.6608 33.6516 16.644C33.7117 16.6228 33.7622 16.5805 33.7936 16.525C33.8251 16.4694 33.8354 16.4044 33.8226 16.3419C33.8161 16.3139 33.8036 16.2878 33.786 16.2651C33.7685 16.2424 33.7463 16.2238 33.7209 16.2104C33.6868 16.1923 33.6492 16.1815 33.6107 16.1789C33.5722 16.1763 33.5335 16.182 33.4973 16.1954C33.4285 16.2162 33.3661 16.2416 33.3034 16.2665L33.226 16.2974C33.2137 16.3021 33.2017 16.3078 33.1902 16.3144Z" fill="#B3F7CB"/>
<path d="M32.5448 17.0572C32.5243 17.069 32.5 17.0725 32.477 17.0669C32.454 17.0614 32.434 17.0472 32.4212 17.0274C32.4083 17.0075 32.4035 16.9835 32.4078 16.9603C32.4121 16.937 32.4251 16.9163 32.4442 16.9023C32.6726 16.734 32.9184 16.5907 33.1774 16.4751C33.1886 16.4699 33.2007 16.467 33.2129 16.4666C33.2252 16.4662 33.2375 16.4682 33.249 16.4726C33.2605 16.4769 33.271 16.4835 33.2799 16.492C33.2888 16.5005 33.2959 16.5106 33.3009 16.5219C33.3058 16.5331 33.3084 16.5453 33.3086 16.5575C33.3088 16.5698 33.3066 16.582 33.302 16.5934C33.2974 16.6048 33.2906 16.6152 33.282 16.624C33.2733 16.6327 33.263 16.6396 33.2517 16.6444C33.0017 16.7558 32.7647 16.8942 32.5448 17.0572Z" fill="#B3F7CB"/>
<path d="M32.3826 17.6066C32.3019 17.6543 32.2082 17.6754 32.1149 17.6668C32.0215 17.6582 31.9333 17.6205 31.8626 17.5589C31.8197 17.5199 31.7859 17.4719 31.7639 17.4183C31.7418 17.3647 31.7319 17.3068 31.7349 17.2489C31.7384 17.1343 31.7933 17.0207 31.8897 16.9291C31.9377 16.8823 31.99 16.8396 32.042 16.7977C32.0671 16.7775 32.0923 16.7573 32.1171 16.7362C32.2278 16.6495 32.3615 16.6143 32.4863 16.6362C32.5967 16.6556 32.6891 16.7168 32.7472 16.8087C32.805 16.9025 32.8262 17.0143 32.8068 17.1228C32.7873 17.2312 32.7286 17.3287 32.6417 17.3966C32.6221 17.4139 32.5975 17.4335 32.573 17.4535C32.5348 17.4841 32.4967 17.5147 32.4618 17.5491C32.4375 17.5709 32.4108 17.5902 32.3826 17.6066ZM32.2708 16.8543C32.2578 16.8618 32.2454 16.8702 32.2335 16.8795C32.211 16.8988 32.1844 16.9199 32.1584 16.9413C32.1105 16.98 32.0625 17.0187 32.0186 17.0617L32.0171 17.0629C31.9565 17.1207 31.9218 17.1886 31.9198 17.255C31.9178 17.2859 31.9227 17.3169 31.9342 17.3457C31.9457 17.3745 31.9635 17.4004 31.9862 17.4214C32.0833 17.5075 32.2338 17.5049 32.3352 17.4148C32.3707 17.3789 32.4138 17.3443 32.4571 17.3093C32.48 17.2911 32.5025 17.2729 32.5247 17.2536C32.5766 17.2143 32.612 17.1571 32.6242 17.0932C32.6364 17.0293 32.6244 16.9631 32.5906 16.9075C32.5755 16.8838 32.5555 16.8636 32.532 16.8483C32.5085 16.8329 32.482 16.8226 32.4542 16.8182C32.3907 16.8084 32.3258 16.8212 32.2708 16.8543Z" fill="#B3F7CB"/>
<path d="M31.6076 18.0319C31.5895 18.0423 31.5685 18.0464 31.5478 18.0434C31.5272 18.0403 31.5081 18.0304 31.4939 18.0152C31.4796 18 31.4708 17.9804 31.4691 17.9596C31.4673 17.9388 31.4727 17.9181 31.4842 17.9007C31.642 17.6651 31.8244 17.447 32.0285 17.2501C32.0372 17.2417 32.0475 17.235 32.0588 17.2306C32.0701 17.2261 32.0822 17.2239 32.0943 17.2241C32.1064 17.2243 32.1184 17.2269 32.1295 17.2318C32.1407 17.2366 32.1508 17.2436 32.1592 17.2523C32.1676 17.261 32.1743 17.2713 32.1787 17.2826C32.1832 17.2939 32.1854 17.306 32.1852 17.3181C32.185 17.3302 32.1824 17.3422 32.1776 17.3534C32.1727 17.3645 32.1658 17.3746 32.157 17.383C31.9625 17.5707 31.7886 17.7786 31.6382 18.0033C31.6303 18.0151 31.6199 18.0247 31.6076 18.0319Z" fill="#B3F7CB"/>
<path d="M31.5574 18.6882C31.4456 18.7529 31.306 18.7699 31.1789 18.7229C31.066 18.6795 30.9819 18.5905 30.9466 18.4779C30.9101 18.3592 30.9219 18.2309 30.9793 18.1208L31.0186 18.046C31.0512 17.9807 31.0871 17.9172 31.1263 17.8556C31.1586 17.8001 31.2022 17.7521 31.2543 17.7147C31.3064 17.6773 31.3659 17.6514 31.4288 17.6387C31.5406 17.617 31.6538 17.6424 31.7394 17.7086C31.9159 17.8443 31.9627 18.0957 31.848 18.2927C31.8162 18.3412 31.7922 18.3875 31.7682 18.4337L31.7307 18.5053C31.692 18.5833 31.6304 18.646 31.5574 18.6882ZM31.1419 18.2086C31.094 18.2982 31.113 18.3889 31.1234 18.4239C31.1414 18.4811 31.1856 18.5276 31.2439 18.5501C31.3044 18.5705 31.3702 18.5686 31.4294 18.5447C31.4886 18.5208 31.5372 18.4765 31.5666 18.4198C31.5808 18.3938 31.5926 18.3713 31.6042 18.3487C31.6313 18.2965 31.6585 18.2442 31.6914 18.1951C31.7231 18.14 31.7341 18.0754 31.7221 18.013C31.7102 17.9505 31.6762 17.8945 31.6264 17.855C31.6034 17.8379 31.5771 17.8259 31.549 17.8198C31.521 17.8138 31.492 17.8139 31.464 17.8201C31.4262 17.8282 31.3905 17.8443 31.3593 17.8673C31.3281 17.8902 31.3022 17.9195 31.2832 17.9533C31.2439 18.0131 31.2133 18.0723 31.1827 18.1312L31.1422 18.2083L31.1419 18.2086Z" fill="#B3F7CB"/>
<path d="M31.0919 19.279C31.0764 19.288 31.0586 19.2922 31.0407 19.2913C31.0228 19.2904 31.0056 19.2842 30.9911 19.2737C30.9766 19.2631 30.9655 19.2486 30.9592 19.2318C30.9528 19.2151 30.9514 19.1968 30.9552 19.1793C31.0144 18.9014 31.1051 18.6312 31.2256 18.3739C31.2309 18.3629 31.2382 18.3531 31.2472 18.345C31.2562 18.3368 31.2667 18.3306 31.2782 18.3265C31.2896 18.3224 31.3018 18.3207 31.3139 18.3213C31.326 18.3219 31.3379 18.3249 31.3489 18.3301C31.3598 18.3354 31.3696 18.3427 31.3778 18.3517C31.3859 18.3607 31.3922 18.3712 31.3963 18.3827C31.4003 18.3941 31.4021 18.4062 31.4015 18.4184C31.4008 18.4305 31.3978 18.4424 31.3926 18.4533C31.2782 18.6978 31.1921 18.9546 31.1361 19.2186C31.1333 19.2312 31.128 19.2431 31.1204 19.2535C31.1128 19.2639 31.1031 19.2726 31.0919 19.279Z" fill="#B3F7CB"/>
<path d="M31.1721 19.9975C31.1056 20.0359 31.03 20.056 30.9532 20.0556C30.8953 20.0546 30.8383 20.0408 30.7864 20.0152C30.7344 19.9897 30.6888 19.9529 30.6527 19.9077C30.579 19.8193 30.545 19.6979 30.5571 19.5668C30.5617 19.4997 30.5727 19.4336 30.5837 19.3674C30.5892 19.3357 30.5944 19.3036 30.599 19.2715C30.625 19.1329 30.7015 19.0179 30.8099 18.9514C30.8554 18.9225 30.9066 18.9037 30.96 18.8962C31.0134 18.8887 31.0678 18.8928 31.1196 18.9081C31.3356 18.9717 31.472 19.1953 31.4304 19.4174C31.4269 19.4434 31.4217 19.4743 31.4165 19.5052C31.4082 19.5535 31.3998 19.6017 31.3969 19.6505C31.3787 19.8025 31.292 19.9282 31.1721 19.9975ZM30.9116 19.106C30.8772 19.1274 30.8478 19.156 30.8254 19.1897C30.803 19.2235 30.788 19.2616 30.7816 19.3016C30.7775 19.331 30.7717 19.3645 30.766 19.3981C30.7558 19.4587 30.7457 19.5188 30.7414 19.5801V19.5824C30.7336 19.665 30.753 19.7387 30.7954 19.7901C30.8144 19.8146 30.8386 19.8345 30.8662 19.8485C30.8938 19.8625 30.9242 19.8702 30.9552 19.871C31.0852 19.871 31.1964 19.7696 31.2126 19.6341C31.2155 19.5841 31.2247 19.5289 31.2342 19.474C31.2392 19.4454 31.2441 19.4168 31.2478 19.3882C31.2604 19.3244 31.2489 19.2581 31.2156 19.2023C31.1822 19.1464 31.1294 19.1048 31.0673 19.0855C31.0413 19.078 31.014 19.0759 30.9872 19.0794C30.9603 19.0829 30.9345 19.0918 30.9113 19.1057L30.9116 19.106Z" fill="#B3F7CB"/>
<path d="M31.0292 20.6295C31.0159 20.6372 31.001 20.6414 30.9858 20.6419C30.9705 20.6424 30.9553 20.6391 30.9416 20.6323C30.928 20.6255 30.9162 20.6154 30.9074 20.6029C30.8985 20.5904 30.8929 20.5759 30.8911 20.5608C30.8565 20.2799 30.8502 19.9962 30.8723 19.714C30.8745 19.6898 30.8861 19.6674 30.9047 19.6517C30.9233 19.636 30.9473 19.6283 30.9716 19.6302C30.9959 19.6321 31.0184 19.6435 31.0343 19.6619C31.0502 19.6803 31.0582 19.7042 31.0566 19.7285C31.0355 19.998 31.0416 20.2704 31.0748 20.5379C31.0771 20.556 31.0739 20.5743 31.0658 20.5906C31.0577 20.6069 31.045 20.6204 31.0292 20.6295Z" fill="#B3F7CB"/>
<path d="M31.2585 21.3538C31.197 21.3904 31.1265 21.4093 31.0548 21.4083C30.9832 21.4073 30.9133 21.3864 30.8529 21.348C30.7489 21.2808 30.6755 21.1755 30.6483 21.0548L30.6296 20.9695C30.6127 20.9004 30.5992 20.8305 30.5891 20.7601C30.5666 20.633 30.5984 20.5001 30.6772 20.4001C30.7474 20.3112 30.8497 20.2566 30.9574 20.2499C31.1813 20.2366 31.3812 20.3972 31.4226 20.6232C31.4295 20.6804 31.441 20.7312 31.4526 20.782C31.4587 20.8092 31.465 20.8364 31.4705 20.8635C31.4922 20.9572 31.4834 21.0553 31.4452 21.1435C31.407 21.2318 31.3416 21.3055 31.2585 21.3538ZM30.8292 21.0158C30.8459 21.0887 30.8905 21.1521 30.9534 21.1926C30.9791 21.2086 31.0081 21.2186 31.0382 21.2219C31.0683 21.2252 31.0987 21.2217 31.1273 21.2116C31.1868 21.1885 31.236 21.1447 31.2659 21.0882C31.2957 21.0318 31.3043 20.9665 31.29 20.9042C31.2842 20.8745 31.2784 20.8488 31.2723 20.8231C31.2584 20.7663 31.2474 20.7088 31.2394 20.6509C31.2281 20.5881 31.1944 20.5316 31.1446 20.4918C31.0947 20.452 31.0321 20.4316 30.9684 20.4345C30.9397 20.4366 30.9119 20.4449 30.8866 20.4587C30.8614 20.4725 30.8395 20.4915 30.8222 20.5145C30.799 20.5452 30.7825 20.5804 30.7739 20.6179C30.7652 20.6554 30.7646 20.6943 30.772 20.7321C30.7809 20.8014 30.7954 20.865 30.8098 20.9285L30.8292 21.0158Z" fill="#B3F7CB"/>
<path d="M31.4338 21.9177L31.4309 21.9194C31.4202 21.9251 31.4085 21.9287 31.3964 21.9298C31.3843 21.931 31.3721 21.9298 31.3605 21.9263C31.3489 21.9227 31.3381 21.9169 31.3287 21.9092C31.3193 21.9015 31.3116 21.892 31.3058 21.8813C31.1716 21.6308 31.0672 21.3654 30.9947 21.0906C30.9891 21.0671 30.9929 21.0423 31.0054 21.0216C31.0178 21.0008 31.0378 20.9858 31.0612 20.9797C31.0846 20.9736 31.1095 20.9769 31.1304 20.9888C31.1514 21.0008 31.1669 21.0205 31.1735 21.0438C31.24 21.298 31.3394 21.5505 31.4691 21.7943C31.4803 21.8154 31.4829 21.8401 31.4763 21.8631C31.4698 21.8861 31.4545 21.9057 31.4338 21.9177Z" fill="#B3F7CB"/>
<path d="M117.753 26.2482C117.753 26.2482 116.811 31.4872 113.607 32.505C110.403 31.4872 109.461 26.2482 109.461 26.2482C112.778 25.6074 113.607 23.4968 113.607 23.4968C113.607 23.4968 114.436 25.6074 117.753 26.2482Z" fill="#DAF9E5"/>
<path d="M112.625 29.6804L111.734 28.3117L112.461 27.839L112.879 28.4812L115.386 26.8505L115.859 27.577L112.625 29.6804Z" fill="white"/>
</svg>
