<svg width="516" height="72" viewBox="0 0 516 72" fill="none" xmlns="http://www.w3.org/2000/svg">
<path d="M196.013 25.7173H174.439C173.605 25.7173 172.93 25.0559 172.93 24.2394C172.93 23.4236 173.605 22.7619 174.439 22.7619H196.013C196.847 22.7619 197.523 23.4236 197.523 24.2394C197.523 25.0559 196.847 25.7173 196.013 25.7173Z" fill="white"/>
<path d="M196.013 37.7559H174.439C173.605 37.7559 172.93 37.0939 172.93 36.278C172.93 35.4619 173.605 34.8002 174.439 34.8002H196.013C196.847 34.8002 197.523 35.4619 197.523 36.278C197.523 37.0939 196.847 37.7559 196.013 37.7559Z" fill="white"/>
<path d="M196.013 49.7959H174.439C173.605 49.7959 172.93 49.1338 172.93 48.3176C172.93 47.5019 173.605 46.8401 174.439 46.8401H196.013C196.847 46.8401 197.523 47.5019 197.523 48.3176C197.523 49.1338 196.847 49.7959 196.013 49.7959Z" fill="white"/>
<path d="M77.2024 27.8482H68.3906V22.7485H92.3865V27.8482H83.5752V49.7959H77.2024V27.8482Z" fill="white"/>
<path d="M106.913 27.8482H101.72V37.2765H106.913C110.807 37.2765 112.774 35.499 112.774 32.5623C112.774 29.587 110.807 27.8482 106.913 27.8482ZM112.892 49.7959L107.582 42.2612H101.72V49.7959H95.3477V22.7485H107.267C114.624 22.7485 119.226 26.496 119.226 32.5623C119.226 36.6198 117.141 39.595 113.561 41.1023L119.738 49.7959H112.892Z" fill="white"/>
<path d="M140.388 39.2474L136.022 28.8916L131.655 39.2474H140.388ZM142.394 43.9997H129.61L127.171 49.7959H120.641L132.914 22.7485H139.208L151.52 49.7959H144.833L142.394 43.9997Z" fill="white"/>
<path d="M156.329 25.2209H146.652V22.7485H168.917V25.2209H159.24V49.7959H156.329V25.2209Z" fill="white"/>
<path d="M221.39 49.7959L212.499 37.8947L203.649 49.7959H200.305L210.769 35.8857L200.974 22.7485H204.317L212.617 33.7991L220.878 22.7485H224.025L214.27 35.8084L224.773 49.7959H221.39Z" fill="white"/>
<path d="M236.669 25.2209H226.992V22.7485H249.257V25.2209H239.58V49.7959H236.669V25.2209Z" fill="white"/>
<mask id="mask0_6024_552" style="mask-type:luminance" maskUnits="userSpaceOnUse" x="0" y="0" width="58" height="72">
<path d="M17.8552 28.3705C18.8231 27.8631 19.1842 26.6782 18.6677 25.731C18.1514 24.7804 16.9487 24.422 15.9806 24.9294C13.16 26.4119 10.3503 27.7637 7.63062 28.9486C6.63018 29.3849 6.1751 30.5381 6.6194 31.5242C6.94806 32.2513 7.67407 32.6842 8.43609 32.6842C8.70702 32.6842 8.98146 32.6311 9.24142 32.5173C12.0478 31.2934 14.9478 29.8992 17.8552 28.3705ZM43.3639 11.7077C44.2197 11.0372 44.3609 9.80993 43.6782 8.96552C42.9916 8.12455 41.7422 7.98624 40.8864 8.6568C34.6166 13.57 28.1842 17.9617 21.7665 21.7153C20.8238 22.2652 20.5169 23.4641 21.0767 24.3899C21.4486 25.0036 22.1096 25.3444 22.785 25.3444C23.1316 25.3444 23.482 25.2557 23.7998 25.0677C30.3693 21.2259 36.9531 16.731 43.3639 11.7077ZM53.8016 38.1829C54.6792 37.5336 54.8523 36.3097 54.1914 35.4511C53.5305 34.5927 52.2846 34.4189 51.407 35.0717C49.4893 36.4941 47.5315 37.8884 45.5924 39.2084C44.6892 39.8216 44.4655 41.0385 45.0902 41.9253C45.4769 42.4718 46.0942 42.7625 46.7263 42.7625C47.1165 42.7625 47.5101 42.6491 47.8532 42.4148C49.8398 41.0634 51.8403 39.6409 53.8016 38.1829ZM57.7452 29.2393C58.5795 61.3059 25.2372 71.5083 25.2372 71.5083C29.9107 65.2467 29.7011 58.0915 29.6542 57.1796C29.6361 57.1796 29.6182 57.1835 29.6001 57.1835C27.1407 57.244 24.7497 57.0025 22.4564 56.495C27.3789 54.4161 33.9304 51.2303 41.6123 46.4733C42.5404 45.8986 42.8185 44.6925 42.2335 43.7807C41.6485 42.8691 40.4239 42.5959 39.4958 43.1706C29.5712 49.3148 21.5246 52.7736 16.6959 54.5548C14.695 53.6428 12.8169 52.5076 11.0943 51.1809C13.6511 50.3258 17.642 48.822 22.7489 46.3847C23.7349 45.9128 24.1467 44.7459 23.6663 43.7773C23.1859 42.8088 21.9977 42.4044 21.0118 42.8759C14.2724 46.094 9.5195 47.6192 7.72467 48.1408C6.50391 46.8528 5.4023 45.455 4.44154 43.9619C7.94134 42.9222 17.9346 39.5098 31.5611 31.1376C32.4894 30.5663 32.7746 29.3635 32.1932 28.4484C31.6081 27.5368 30.3837 27.2563 29.4556 27.831C21.3836 32.7905 14.583 35.9621 9.78678 37.8955C5.9838 39.4318 3.4376 40.1908 2.52014 40.4425C0.99974 37.115 0.111298 33.4398 0.0102527 29.566C-0.0186175 28.5054 0.0137475 27.4585 0.104005 26.4264C6.17145 24.1064 16.0601 19.6047 28.1446 11.4453C29.0474 10.8351 29.2751 9.61813 28.6537 8.7313C28.0327 7.84449 26.7974 7.61753 25.8946 8.22734C16.219 14.7618 7.93057 18.8986 2.04348 21.4032C1.64264 21.5732 1.25258 21.7363 0.873318 21.8926C3.96122 9.86648 14.8899 0.830925 28.1265 0.50119C30.6728 0.436996 33.1467 0.699875 35.5122 1.24969C34.3566 2.15065 33.1937 3.03059 32.0343 3.88914L31.3914 4.35719C30.5139 5.00291 30.3332 6.22292 30.9869 7.08872C31.377 7.60301 31.9765 7.87276 32.5831 7.87276C32.9949 7.87276 33.4103 7.74858 33.7679 7.48609C33.9845 7.3302 34.2012 7.16666 34.4215 7.00734C36.296 5.6238 38.1702 4.1799 40.0303 2.69359C44.6713 4.60555 48.702 7.68134 51.7392 11.5549C46.3505 16.1422 40.8067 20.3566 35.2449 24.1026C34.3386 24.7128 34.1075 25.9263 34.7285 26.8165C35.1114 27.3664 35.736 27.6644 36.3681 27.6644C36.7547 27.6644 37.1446 27.5544 37.4915 27.3201C43.0461 23.5811 48.5791 19.3846 53.9603 14.8294C54.8453 16.3585 55.5929 17.9797 56.1814 19.6719C46.8309 27.5826 37.1879 34.2698 27.4836 39.5625C26.523 40.0874 26.1799 41.2763 26.7108 42.2165C27.0756 42.8585 27.7509 43.2205 28.4478 43.2205C28.7767 43.2205 29.1053 43.1419 29.4121 42.9756C38.8349 37.8351 48.1963 31.4211 57.283 23.8722C57.532 25.2523 57.6802 26.671 57.7164 28.1187C57.7199 28.2142 57.7164 28.3101 57.7164 28.406C57.7273 28.6754 57.7382 28.952 57.7452 29.2393Z" fill="white"/>
</mask>
<g mask="url(#mask0_6024_552)">
<path d="M17.8552 28.3705C18.8231 27.8631 19.1842 26.6782 18.6677 25.731C18.1514 24.7804 16.9487 24.422 15.9806 24.9294C13.16 26.4119 10.3503 27.7637 7.63062 28.9486C6.63018 29.3849 6.1751 30.5381 6.6194 31.5242C6.94806 32.2513 7.67407 32.6842 8.43609 32.6842C8.70702 32.6842 8.98146 32.6311 9.24142 32.5173C12.0478 31.2934 14.9478 29.8992 17.8552 28.3705ZM43.3639 11.7077C44.2197 11.0372 44.3609 9.80993 43.6782 8.96552C42.9916 8.12455 41.7422 7.98624 40.8864 8.6568C34.6166 13.57 28.1842 17.9617 21.7665 21.7153C20.8238 22.2652 20.5169 23.4641 21.0767 24.3899C21.4486 25.0036 22.1096 25.3444 22.785 25.3444C23.1316 25.3444 23.482 25.2557 23.7998 25.0677C30.3693 21.2259 36.9531 16.731 43.3639 11.7077ZM53.8016 38.1829C54.6792 37.5336 54.8523 36.3097 54.1914 35.4511C53.5305 34.5927 52.2846 34.4189 51.407 35.0717C49.4893 36.4941 47.5315 37.8884 45.5924 39.2084C44.6892 39.8216 44.4655 41.0385 45.0902 41.9253C45.4769 42.4718 46.0942 42.7625 46.7263 42.7625C47.1165 42.7625 47.5101 42.6491 47.8532 42.4148C49.8398 41.0634 51.8403 39.6409 53.8016 38.1829ZM57.7452 29.2393C58.5795 61.3059 25.2372 71.5083 25.2372 71.5083C29.9107 65.2467 29.7011 58.0915 29.6542 57.1796C29.6361 57.1796 29.6182 57.1835 29.6001 57.1835C27.1407 57.244 24.7497 57.0025 22.4564 56.495C27.3789 54.4161 33.9304 51.2303 41.6123 46.4733C42.5404 45.8986 42.8185 44.6925 42.2335 43.7807C41.6485 42.8691 40.4239 42.5959 39.4958 43.1706C29.5712 49.3148 21.5246 52.7736 16.6959 54.5548C14.695 53.6428 12.8169 52.5076 11.0943 51.1809C13.6511 50.3258 17.642 48.822 22.7489 46.3847C23.7349 45.9128 24.1467 44.7459 23.6663 43.7773C23.1859 42.8088 21.9977 42.4044 21.0118 42.8759C14.2724 46.094 9.5195 47.6192 7.72467 48.1408C6.50391 46.8528 5.4023 45.455 4.44154 43.9619C7.94134 42.9222 17.9346 39.5098 31.5611 31.1376C32.4894 30.5663 32.7746 29.3635 32.1932 28.4484C31.6081 27.5368 30.3837 27.2563 29.4556 27.831C21.3836 32.7905 14.583 35.9621 9.78678 37.8955C5.9838 39.4318 3.4376 40.1908 2.52014 40.4425C0.99974 37.115 0.111298 33.4398 0.0102527 29.566C-0.0186175 28.5054 0.0137475 27.4585 0.104005 26.4264C6.17145 24.1064 16.0601 19.6047 28.1446 11.4453C29.0474 10.8351 29.2751 9.61813 28.6537 8.7313C28.0327 7.84449 26.7974 7.61753 25.8946 8.22734C16.219 14.7618 7.93057 18.8986 2.04348 21.4032C1.64264 21.5732 1.25258 21.7363 0.873318 21.8926C3.96122 9.86648 14.8899 0.830925 28.1265 0.50119C30.6728 0.436996 33.1467 0.699875 35.5122 1.24969C34.3566 2.15065 33.1937 3.03059 32.0343 3.88914L31.3914 4.35719C30.5139 5.00291 30.3332 6.22292 30.9869 7.08872C31.377 7.60301 31.9765 7.87276 32.5831 7.87276C32.9949 7.87276 33.4103 7.74858 33.7679 7.48609C33.9845 7.3302 34.2012 7.16666 34.4215 7.00734C36.296 5.6238 38.1702 4.1799 40.0303 2.69359C44.6713 4.60555 48.702 7.68134 51.7392 11.5549C46.3505 16.1422 40.8067 20.3566 35.2449 24.1026C34.3386 24.7128 34.1075 25.9263 34.7285 26.8165C35.1114 27.3664 35.736 27.6644 36.3681 27.6644C36.7547 27.6644 37.1446 27.5544 37.4915 27.3201C43.0461 23.5811 48.5791 19.3846 53.9603 14.8294C54.8453 16.3585 55.5929 17.9797 56.1814 19.6719C46.8309 27.5826 37.1879 34.2698 27.4836 39.5625C26.523 40.0874 26.1799 41.2763 26.7108 42.2165C27.0756 42.8585 27.7509 43.2205 28.4478 43.2205C28.7767 43.2205 29.1053 43.1419 29.4121 42.9756C38.8349 37.8351 48.1963 31.4211 57.283 23.8722C57.532 25.2523 57.6802 26.671 57.7164 28.1187C57.7199 28.2142 57.7164 28.3101 57.7164 28.406C57.7273 28.6754 57.7382 28.952 57.7452 29.2393Z" fill="#10843A"/>
</g>
<path d="M56.1812 19.6721C56.6546 21.0274 57.0226 22.4285 57.2828 23.8724C48.196 31.4212 38.8346 37.8352 29.4119 42.9758C29.1051 43.1421 28.7764 43.2207 28.4476 43.2207C27.7506 43.2207 27.0754 42.8586 26.7105 42.2167C26.1796 41.2764 26.5227 40.0876 27.4833 39.5627C37.1877 34.2699 46.8307 27.5828 56.1812 19.6721Z" fill="white"/>
<path d="M54.1934 35.4513C54.8543 36.3099 54.6812 37.5338 53.8036 38.1831C51.8423 39.6411 49.8418 41.0636 47.8552 42.415C47.5121 42.6493 47.1185 42.7627 46.7283 42.7627C46.0962 42.7627 45.4789 42.472 45.0922 41.9255C44.4675 41.0387 44.6912 39.8218 45.5944 39.2086C47.5335 37.8886 49.4913 36.4943 51.409 35.0719C52.2865 34.4191 53.5325 34.5929 54.1934 35.4513Z" fill="white"/>
<path d="M51.7381 11.5551C52.5507 12.5909 53.2949 13.684 53.9593 14.8295C48.578 19.3848 43.045 23.5812 37.4904 27.3203C37.1435 27.5545 36.7537 27.6646 36.3671 27.6646C35.735 27.6646 35.1103 27.3665 34.7274 26.8167C34.1064 25.9264 34.3375 24.7129 35.2439 24.1028C40.8056 20.3568 46.3495 16.1424 51.7381 11.5551Z" fill="white"/>
<path d="M43.6779 8.96539C44.3605 9.8098 44.2193 11.0371 43.3636 11.7076C36.9528 16.7309 30.3689 21.2257 23.7994 25.0676C23.4817 25.2556 23.1313 25.3442 22.7847 25.3442C22.1093 25.3442 21.4483 25.0034 21.0764 24.3898C20.5166 23.464 20.8235 22.265 21.7662 21.7152C28.1839 17.9616 34.6163 13.5699 40.8861 8.65666C41.7419 7.9861 42.9913 8.12442 43.6779 8.96539Z" fill="white"/>
<path d="M42.2329 43.7813C42.818 44.6931 42.5399 45.8992 41.6117 46.4739C33.9299 51.2309 27.3784 54.4167 22.4558 56.4956C20.4477 56.0452 18.5226 55.3925 16.6953 54.5553C21.5241 52.7742 29.5707 49.3154 39.4953 43.1711C40.4234 42.5965 41.6479 42.8696 42.2329 43.7813Z" fill="white"/>
<path d="M35.5119 1.24949C37.0686 1.60751 38.5817 2.09352 40.0299 2.69339C38.1699 4.1797 36.2956 5.6236 34.4212 7.00713C34.2009 7.16646 33.9842 7.33 33.7675 7.48589C33.41 7.74838 32.9946 7.87256 32.5828 7.87256C31.9762 7.87256 31.3766 7.60281 30.9865 7.08852C30.3329 6.22271 30.5135 5.00272 31.391 4.35699L32.0339 3.88894C33.1933 3.03039 34.3563 2.15045 35.5119 1.24949Z" fill="white"/>
<path d="M32.1926 28.4485C32.774 29.3635 32.4887 30.5664 31.5605 31.1376C17.9339 39.5099 7.94073 42.9222 4.44093 43.9619C3.7222 42.8404 3.07946 41.6663 2.51953 40.4425C3.43699 40.1908 5.98319 39.4318 9.78617 37.8955C14.5824 35.9622 21.383 32.7905 29.455 27.831C30.3831 27.2563 31.6075 27.5368 32.1926 28.4485Z" fill="white"/>
<path d="M28.6552 8.73065C29.2765 9.61747 29.0489 10.8344 28.146 11.4446C16.0616 19.604 6.17291 24.1058 0.105469 26.4258C0.235537 24.8753 0.495671 23.3607 0.874783 21.892C1.25405 21.7357 1.6441 21.5725 2.04494 21.4025C7.93203 18.8979 16.2205 14.7611 25.8961 8.22668C26.7988 7.61687 28.0342 7.84383 28.6552 8.73065Z" fill="white"/>
<path d="M23.6643 43.777C24.1446 44.7457 23.7328 45.9125 22.7468 46.3845C17.64 48.8217 13.6491 50.3256 11.0923 51.1807C9.88959 50.258 8.75908 49.2401 7.72266 48.1406C9.51748 47.6189 14.2704 46.0937 21.0098 42.8757C21.9956 42.4042 23.1839 42.8085 23.6643 43.777Z" fill="white"/>
<path d="M18.6679 25.7304C19.1844 26.6776 18.8233 27.8624 17.8554 28.3698C14.948 29.8986 12.048 31.2928 9.24161 32.5166C8.98165 32.6305 8.70722 32.6836 8.43629 32.6836C7.67427 32.6836 6.94826 32.2507 6.6196 31.5236C6.1753 30.5374 6.63038 29.3843 7.63082 28.9479C10.3505 27.7631 13.1602 26.4113 15.9808 24.9288C16.9489 24.4214 18.1516 24.7798 18.6679 25.7304Z" fill="white"/>
</svg>
