<svg width="158" height="45" viewBox="0 0 158 45" fill="none" xmlns="http://www.w3.org/2000/svg">
<path d="M124.25 15.9844H110.574C110.045 15.9844 109.617 15.5651 109.617 15.0475C109.617 14.5305 110.045 14.111 110.574 14.111H124.25C124.778 14.111 125.207 14.5305 125.207 15.0475C125.207 15.5651 124.778 15.9844 124.25 15.9844Z" fill="#15AB49"/>
<path d="M124.25 23.6128H110.574C110.045 23.6128 109.617 23.1932 109.617 22.676C109.617 22.1587 110.045 21.7393 110.574 21.7393H124.25C124.778 21.7393 125.207 22.1587 125.207 22.676C125.207 23.1932 124.778 23.6128 124.25 23.6128Z" fill="#15AB49"/>
<path d="M124.25 31.2417H110.574C110.045 31.2417 109.617 30.822 109.617 30.3046C109.617 29.7876 110.045 29.3681 110.574 29.3681H124.25C124.778 29.3681 125.207 29.7876 125.207 30.3046C125.207 30.822 124.778 31.2417 124.25 31.2417Z" fill="#15AB49"/>
<path d="M48.9372 17.3344H43.3516V14.103H58.5623V17.3344H52.9768V31.2417H48.9372V17.3344Z" fill="#0C1118"/>
<path d="M67.7706 17.3344H64.4791V23.3087H67.7706C70.2391 23.3087 71.486 22.1824 71.486 20.3216C71.486 18.4363 70.2391 17.3344 67.7706 17.3344ZM71.5607 31.2417L68.1945 26.4673H64.4791V31.2417H60.4395V14.103H67.9952C72.6582 14.103 75.5754 16.4776 75.5754 20.3216C75.5754 22.8926 74.254 24.7778 71.9848 25.7329L75.8999 31.2417H71.5607Z" fill="#0C1118"/>
<path d="M88.9903 24.5576L86.2225 17.9956L83.4547 24.5576H88.9903ZM90.2621 27.5689H82.1579L80.6122 31.2417H76.4727L84.2526 14.103H88.2424L96.047 31.2417H91.8079L90.2621 27.5689Z" fill="#0C1118"/>
<path d="M99.095 15.6697H92.9609V14.103H107.074V15.6697H100.94V31.2417H99.095V15.6697Z" fill="#15AB49"/>
<path d="M140.336 31.2417L134.701 23.7005L129.091 31.2417H126.971L133.604 22.4275L127.395 14.103H129.514L134.776 21.1052L140.012 14.103H142.007L135.823 22.3785L142.481 31.2417H140.336Z" fill="#15AB49"/>
<path d="M150.021 15.6697H143.887V14.103H158V15.6697H151.866V31.2417H150.021V15.6697Z" fill="#15AB49"/>
<mask id="mask0_230_1543" style="mask-type:luminance" maskUnits="userSpaceOnUse" x="0" y="0" width="37" height="45">
<path d="M11.3182 17.6655C11.9317 17.344 12.1606 16.5932 11.8332 15.993C11.5059 15.3907 10.7436 15.1636 10.1299 15.4851C8.34196 16.4245 6.56095 17.2811 4.83695 18.0318C4.20279 18.3083 3.91432 19.039 4.19596 19.6639C4.40429 20.1246 4.8645 20.3989 5.34754 20.3989C5.51927 20.3989 5.69323 20.3653 5.85802 20.2931C7.63693 19.5177 9.47524 18.6342 11.3182 17.6655ZM27.4878 7.10711C28.0303 6.6822 28.1198 5.90454 27.6871 5.36948C27.2519 4.83659 26.4599 4.74895 25.9174 5.17385C21.9431 8.28715 17.8656 11.07 13.7975 13.4485C13.2 13.7969 13.0054 14.5566 13.3602 15.1432C13.596 15.5321 14.015 15.748 14.4432 15.748C14.6629 15.748 14.885 15.6918 15.0864 15.5727C19.2507 13.1383 23.4241 10.2901 27.4878 7.10711ZM34.1042 23.8832C34.6604 23.4718 34.7702 22.6963 34.3512 22.1522C33.9323 21.6083 33.1425 21.4981 32.5863 21.9118C31.3706 22.8131 30.1296 23.6966 28.9005 24.533C28.3279 24.9216 28.1861 25.6927 28.5821 26.2546C28.8272 26.6009 29.2185 26.7851 29.6192 26.7851C29.8665 26.7851 30.1161 26.7132 30.3335 26.5647C31.5928 25.7084 32.8609 24.8071 34.1042 23.8832ZM36.6039 18.2161C37.1328 38.5352 15.9975 45 15.9975 45C18.96 41.0323 18.8272 36.4984 18.7974 35.9206C18.7859 35.9206 18.7746 35.923 18.7631 35.923C17.2041 35.9614 15.6885 35.8083 14.2348 35.4868C17.3551 34.1694 21.5081 32.1508 26.3775 29.1365C26.9658 28.7723 27.1421 28.008 26.7713 27.4303C26.4004 26.8526 25.6242 26.6796 25.0359 27.0437C18.7448 30.937 13.6442 33.1287 10.5833 34.2573C9.31497 33.6795 8.12448 32.9601 7.03253 32.1195C8.65326 31.5776 11.1831 30.6247 14.4202 29.0803C15.0452 28.7813 15.3063 28.0419 15.0018 27.4281C14.6972 26.8144 13.944 26.5582 13.3191 26.857C9.04711 28.8961 6.03429 29.8625 4.89657 30.1931C4.12275 29.3769 3.42445 28.4912 2.81544 27.5451C5.03392 26.8863 11.3685 24.724 20.0062 19.4189C20.5946 19.0569 20.7754 18.2948 20.4069 17.7149C20.036 17.1372 19.2598 16.9595 18.6715 17.3237C13.5548 20.4663 9.24398 22.476 6.20372 23.7011C3.79306 24.6746 2.17905 25.1555 1.59748 25.315C0.633722 23.2065 0.0705506 20.8777 0.00649904 18.4231C-0.0118014 17.751 0.00871436 17.0876 0.0659273 16.4337C3.912 14.9636 10.1803 12.111 17.8405 6.94077C18.4128 6.55412 18.5571 5.783 18.1632 5.22107C17.7696 4.65913 16.9865 4.51532 16.4143 4.90172C10.281 9.04229 5.02709 11.6636 1.29533 13.2506C1.04125 13.3584 0.793996 13.4618 0.553586 13.5608C2.51097 5.94037 9.43855 0.214954 17.829 0.00601196C19.4431 -0.0346603 21.0113 0.131912 22.5107 0.480309C21.7782 1.0512 21.041 1.60878 20.3061 2.15281L19.8986 2.44939C19.3424 2.85855 19.2279 3.63161 19.6422 4.18023C19.8895 4.50611 20.2695 4.67704 20.654 4.67704C20.9151 4.67704 21.1784 4.59836 21.405 4.43203C21.5424 4.33325 21.6797 4.22963 21.8194 4.12867C23.0076 3.25198 24.1956 2.33705 25.3747 1.39524C28.3166 2.60676 30.8716 4.55575 32.7968 7.01026C29.381 9.91703 25.8669 12.5875 22.3413 14.9612C21.7668 15.3478 21.6203 16.1167 22.014 16.6809C22.2567 17.0293 22.6526 17.2181 23.0533 17.2181C23.2984 17.2181 23.5455 17.1484 23.7654 17C27.2864 14.6307 30.7937 11.9716 34.2048 9.08514C34.7657 10.0541 35.2396 11.0813 35.6127 12.1536C29.6856 17.1663 23.573 21.4036 17.4215 24.7574C16.8126 25.09 16.5951 25.8433 16.9316 26.4391C17.1629 26.8459 17.5909 27.0753 18.0327 27.0753C18.2412 27.0753 18.4495 27.0255 18.644 26.9201C24.6169 23.6628 30.551 19.5985 36.311 14.8152C36.4688 15.6897 36.5628 16.5886 36.5857 17.506C36.5879 17.5665 36.5857 17.6273 36.5857 17.688C36.5926 17.8587 36.5995 18.034 36.6039 18.2161Z" fill="white"/>
</mask>
<g mask="url(#mask0_230_1543)">
<path d="M11.3182 17.6655C11.9317 17.344 12.1606 16.5932 11.8332 15.993C11.5059 15.3907 10.7436 15.1636 10.1299 15.4851C8.34196 16.4245 6.56095 17.2811 4.83695 18.0318C4.20279 18.3083 3.91432 19.039 4.19596 19.6639C4.40429 20.1246 4.8645 20.3989 5.34754 20.3989C5.51927 20.3989 5.69323 20.3653 5.85802 20.2931C7.63693 19.5177 9.47524 18.6342 11.3182 17.6655ZM27.4878 7.10711C28.0303 6.6822 28.1198 5.90454 27.6871 5.36948C27.2519 4.83659 26.4599 4.74895 25.9174 5.17385C21.9431 8.28715 17.8656 11.07 13.7975 13.4485C13.2 13.7969 13.0054 14.5566 13.3602 15.1432C13.596 15.5321 14.015 15.748 14.4432 15.748C14.6629 15.748 14.885 15.6918 15.0864 15.5727C19.2507 13.1383 23.4241 10.2901 27.4878 7.10711ZM34.1042 23.8832C34.6604 23.4718 34.7702 22.6963 34.3512 22.1522C33.9323 21.6083 33.1425 21.4981 32.5863 21.9118C31.3706 22.8131 30.1296 23.6966 28.9005 24.533C28.3279 24.9216 28.1861 25.6927 28.5821 26.2546C28.8272 26.6009 29.2185 26.7851 29.6192 26.7851C29.8665 26.7851 30.1161 26.7132 30.3335 26.5647C31.5928 25.7084 32.8609 24.8071 34.1042 23.8832ZM36.6039 18.2161C37.1328 38.5352 15.9975 45 15.9975 45C18.96 41.0323 18.8272 36.4984 18.7974 35.9206C18.7859 35.9206 18.7746 35.923 18.7631 35.923C17.2041 35.9614 15.6885 35.8083 14.2348 35.4868C17.3551 34.1694 21.5081 32.1508 26.3775 29.1365C26.9658 28.7723 27.1421 28.008 26.7713 27.4303C26.4004 26.8526 25.6242 26.6796 25.0359 27.0437C18.7448 30.937 13.6442 33.1287 10.5833 34.2573C9.31497 33.6795 8.12448 32.9601 7.03253 32.1195C8.65326 31.5776 11.1831 30.6247 14.4202 29.0803C15.0452 28.7813 15.3063 28.0419 15.0018 27.4281C14.6972 26.8144 13.944 26.5582 13.3191 26.857C9.04711 28.8961 6.03429 29.8625 4.89657 30.1931C4.12275 29.3769 3.42445 28.4912 2.81544 27.5451C5.03392 26.8863 11.3685 24.724 20.0062 19.4189C20.5946 19.0569 20.7754 18.2948 20.4069 17.7149C20.036 17.1372 19.2598 16.9595 18.6715 17.3237C13.5548 20.4663 9.24398 22.476 6.20372 23.7011C3.79306 24.6746 2.17905 25.1555 1.59748 25.315C0.633722 23.2065 0.0705506 20.8777 0.00649904 18.4231C-0.0118014 17.751 0.00871436 17.0876 0.0659273 16.4337C3.912 14.9636 10.1803 12.111 17.8405 6.94077C18.4128 6.55412 18.5571 5.783 18.1632 5.22107C17.7696 4.65913 16.9865 4.51532 16.4143 4.90172C10.281 9.04229 5.02709 11.6636 1.29533 13.2506C1.04125 13.3584 0.793996 13.4618 0.553586 13.5608C2.51097 5.94037 9.43855 0.214954 17.829 0.00601196C19.4431 -0.0346603 21.0113 0.131912 22.5107 0.480309C21.7782 1.0512 21.041 1.60878 20.3061 2.15281L19.8986 2.44939C19.3424 2.85855 19.2279 3.63161 19.6422 4.18023C19.8895 4.50611 20.2695 4.67704 20.654 4.67704C20.9151 4.67704 21.1784 4.59836 21.405 4.43203C21.5424 4.33325 21.6797 4.22963 21.8194 4.12867C23.0076 3.25198 24.1956 2.33705 25.3747 1.39524C28.3166 2.60676 30.8716 4.55575 32.7968 7.01026C29.381 9.91703 25.8669 12.5875 22.3413 14.9612C21.7668 15.3478 21.6203 16.1167 22.014 16.6809C22.2567 17.0293 22.6526 17.2181 23.0533 17.2181C23.2984 17.2181 23.5455 17.1484 23.7654 17C27.2864 14.6307 30.7937 11.9716 34.2048 9.08514C34.7657 10.0541 35.2396 11.0813 35.6127 12.1536C29.6856 17.1663 23.573 21.4036 17.4215 24.7574C16.8126 25.09 16.5951 25.8433 16.9316 26.4391C17.1629 26.8459 17.5909 27.0753 18.0327 27.0753C18.2412 27.0753 18.4495 27.0255 18.644 26.9201C24.6169 23.6628 30.551 19.5985 36.311 14.8152C36.4688 15.6897 36.5628 16.5886 36.5857 17.506C36.5879 17.5665 36.5857 17.6273 36.5857 17.688C36.5926 17.8587 36.5995 18.034 36.6039 18.2161Z" fill="url(#paint0_linear_230_1543)"/>
</g>
<path d="M35.6127 12.1535C35.9128 13.0123 36.1461 13.9001 36.311 14.815C30.551 19.5984 24.617 23.6627 18.644 26.92C18.4495 27.0254 18.2412 27.0752 18.0328 27.0752C17.5909 27.0752 17.1629 26.8458 16.9317 26.439C16.5951 25.8432 16.8126 25.0899 17.4215 24.7573C23.573 21.4035 29.6856 17.1662 35.6127 12.1535Z" fill="white"/>
<path d="M34.3528 22.1523C34.7718 22.6963 34.662 23.4719 34.1058 23.8832C32.8625 24.8071 31.5944 25.7085 30.3351 26.5648C30.1177 26.7133 29.8681 26.7852 29.6208 26.7852C29.2201 26.7852 28.8288 26.6009 28.5837 26.2547C28.1877 25.6927 28.3295 24.9217 28.9021 24.5331C30.1312 23.6967 31.3722 22.8131 32.5879 21.9118C33.1441 21.4982 33.9339 21.6084 34.3528 22.1523Z" fill="white"/>
<path d="M32.7968 7.01042C33.3119 7.66678 33.7836 8.35945 34.2047 9.0853C30.7936 11.9717 27.2863 14.6308 23.7653 17.0001C23.5454 17.1485 23.2983 17.2183 23.0533 17.2183C22.6526 17.2183 22.2566 17.0294 22.0139 16.681C21.6202 16.1169 21.7667 15.348 22.3413 14.9613C25.8668 12.5877 29.381 9.91719 32.7968 7.01042Z" fill="white"/>
<path d="M27.6876 5.36951C28.1203 5.90458 28.0308 6.68223 27.4883 7.10714C23.4246 10.2902 19.2512 13.1383 15.0869 15.5728C14.8855 15.6919 14.6634 15.748 14.4437 15.748C14.0155 15.748 13.5965 15.5321 13.3608 15.1433C13.0059 14.5566 13.2005 13.7969 13.798 13.4485C17.8661 11.07 21.9436 8.28718 25.9179 5.17389C26.4604 4.74899 27.2524 4.83663 27.6876 5.36951Z" fill="white"/>
<path d="M26.77 27.4308C27.1409 28.0086 26.9646 28.7728 26.3762 29.137C21.5068 32.1513 17.3539 34.17 14.2336 35.4873C12.9606 35.2019 11.7403 34.7883 10.582 34.2578C13.6429 33.1292 18.7436 30.9375 25.0346 27.0442C25.623 26.6801 26.3992 26.8531 26.77 27.4308Z" fill="white"/>
<path d="M22.5121 0.480022C23.4989 0.706879 24.458 1.01484 25.376 1.39495C24.197 2.33676 23.0089 3.2517 21.8207 4.12838C21.681 4.22934 21.5437 4.33296 21.4063 4.43174C21.1797 4.59807 20.9164 4.67676 20.6554 4.67676C20.2708 4.67676 19.8908 4.50583 19.6435 4.17995C19.2292 3.63133 19.3437 2.85827 19.8999 2.4491L20.3074 2.15252C21.0424 1.6085 21.7796 1.05092 22.5121 0.480022Z" fill="white"/>
<path d="M20.4071 17.7152C20.7756 18.2951 20.5948 19.0572 20.0064 19.4192C11.3687 24.7243 5.03409 26.8866 2.81561 27.5454C2.36001 26.8348 1.95259 26.0908 1.59766 25.3153C2.17922 25.1558 3.79323 24.6749 6.20389 23.7014C9.24415 22.4763 13.555 20.4666 18.6717 17.324C19.26 16.9598 20.0361 17.1376 20.4071 17.7152Z" fill="white"/>
<path d="M18.1637 5.22099C18.5576 5.78293 18.4133 6.55405 17.841 6.9407C10.1808 12.111 3.91248 14.9635 0.0664062 16.4336C0.148855 15.4511 0.313751 14.4914 0.554065 13.5607C0.794475 13.4617 1.04172 13.3583 1.29581 13.2506C5.02757 11.6635 10.2815 9.04222 16.4148 4.90165C16.987 4.51524 17.7701 4.65905 18.1637 5.22099Z" fill="white"/>
<path d="M15.0017 27.4283C15.3062 28.0421 15.0451 28.7814 14.4201 29.0805C11.183 30.6249 8.65317 31.5778 7.03244 32.1196C6.27008 31.535 5.55346 30.89 4.89648 30.1933C6.0342 29.8627 9.04702 28.8963 13.319 26.8571C13.9439 26.5584 14.6972 26.8146 15.0017 27.4283Z" fill="white"/>
<path d="M11.8331 15.993C12.1605 16.5932 11.9317 17.344 11.3182 17.6655C9.47518 18.6342 7.63687 19.5176 5.85796 20.2931C5.69317 20.3653 5.51921 20.3989 5.34747 20.3989C4.86443 20.3989 4.40423 20.1246 4.19589 19.6639C3.91426 19.039 4.20273 18.3083 4.83689 18.0318C6.56089 17.281 8.3419 16.4244 10.1299 15.4851C10.7435 15.1635 11.5059 15.3906 11.8331 15.993Z" fill="white"/>
<defs>
<linearGradient id="paint0_linear_230_1543" x1="-0.0861009" y1="22.5" x2="36.7467" y2="22.5" gradientUnits="userSpaceOnUse">
<stop stop-color="#15A949"/>
<stop offset="0.005618" stop-color="#15A949"/>
<stop offset="0.999757" stop-color="#09090A"/>
<stop offset="1" stop-color="#09090A"/>
</linearGradient>
</defs>
</svg>
