<svg width="454" height="294" viewBox="0 0 454 294" fill="none" xmlns="http://www.w3.org/2000/svg">
<g filter="url(#filter0_d_6024_1526)">
<path d="M123.028 9.64649V276.354H66.6397V63.1702H65.0769L4 101.457V51.4497L70.0256 9.64649H123.028Z" fill="#15AB49" fill-opacity="0.4" shape-rendering="crispEdges"/>
<path d="M332.403 226.346V212.281C332.403 201.603 334.66 191.792 339.174 182.85C343.776 173.821 350.417 166.615 359.099 161.232C367.868 155.762 378.547 153.028 391.135 153.028C403.898 153.028 414.62 155.719 423.302 161.102C432.07 166.484 438.669 173.69 443.096 182.72C447.611 191.662 449.868 201.516 449.868 212.281V226.346C449.868 237.025 447.611 246.879 443.096 255.908C438.582 264.85 431.94 272.013 423.172 277.395C414.403 282.865 403.724 285.6 391.135 285.6C378.373 285.6 367.651 282.865 358.969 277.395C350.287 272.013 343.689 264.85 339.174 255.908C334.66 246.879 332.403 237.025 332.403 226.346ZM370.299 212.281V226.346C370.299 232.51 371.775 238.327 374.727 243.797C377.765 249.266 383.235 252.001 391.135 252.001C399.036 252.001 404.419 249.31 407.284 243.927C410.236 238.544 411.711 232.684 411.711 226.346V212.281C411.711 205.944 410.322 200.04 407.544 194.57C404.766 189.101 399.296 186.366 391.135 186.366C383.322 186.366 377.896 189.101 374.857 194.57C371.818 200.04 370.299 205.944 370.299 212.281ZM195.533 73.7187V59.6541C195.533 48.8885 197.834 39.0346 202.435 30.0923C207.036 21.0631 213.678 13.8572 222.36 8.47444C231.129 3.09168 241.72 0.400299 254.135 0.400299C266.985 0.400299 277.75 3.09168 286.432 8.47444C295.114 13.8572 301.712 21.0631 306.227 30.0923C310.741 39.0346 312.999 48.8885 312.999 59.6541V73.7187C312.999 84.4842 310.698 94.3381 306.096 103.28C301.582 112.223 294.94 119.385 286.172 124.768C277.49 130.064 266.811 132.712 254.135 132.712C241.46 132.712 230.738 130.021 221.969 124.638C213.287 119.168 206.689 112.006 202.174 103.15C197.747 94.2079 195.533 84.3974 195.533 73.7187ZM233.69 59.6541V73.7187C233.69 80.0565 235.166 85.9167 238.117 91.2995C241.156 96.6822 246.495 99.3736 254.135 99.3736C262.123 99.3736 267.549 96.6822 270.414 91.2995C273.366 85.9167 274.842 80.0565 274.842 73.7187V59.6541C274.842 53.3163 273.453 47.4126 270.674 41.943C267.896 36.4735 262.383 33.7387 254.135 33.7387C246.409 33.7387 241.069 36.5169 238.117 42.0733C235.166 47.6297 233.69 53.4899 233.69 59.6541ZM212.723 276.354L396.084 9.64649H430.204L246.843 276.354H212.723Z" fill="#15AB49" fill-opacity="0.4" shape-rendering="crispEdges"/>
<path d="M70.2991 10.5896H122.085V275.41H67.5828V63.1702V62.2271H66.6397H65.0769H64.8058L64.576 62.3712L4.94307 99.753V51.9688L70.2991 10.5896ZM359.596 162.033L359.598 162.032C368.188 156.674 378.685 153.971 391.135 153.971C403.766 153.971 414.305 156.634 422.805 161.903L422.808 161.905C431.429 167.197 437.902 174.27 442.25 183.135L442.255 183.145C446.698 191.945 448.925 201.652 448.925 212.281V226.346C448.925 236.887 446.698 246.595 442.253 255.486C437.819 264.266 431.301 271.298 422.678 276.592L422.672 276.595C414.083 281.953 403.586 284.657 391.135 284.657C378.508 284.657 367.97 281.951 359.472 276.597L359.466 276.594C350.929 271.301 344.453 264.269 340.018 255.486C335.573 246.595 333.346 236.887 333.346 226.346V212.281C333.346 201.741 335.572 192.078 340.015 183.277C344.538 174.403 351.06 167.326 359.596 162.033ZM373.897 244.244L373.902 244.255C377.153 250.105 382.998 252.944 391.135 252.944C399.261 252.944 405.034 250.156 408.113 244.376C411.142 238.851 412.655 232.835 412.655 226.346V212.281C412.655 205.8 411.233 199.75 408.385 194.143C405.392 188.251 399.514 185.423 391.135 185.423C383.079 185.423 377.281 188.265 374.033 194.112C370.915 199.724 369.356 205.785 369.356 212.281V226.346C369.356 232.668 370.871 238.638 373.897 244.244ZM203.274 30.5238L203.275 30.5205C207.797 21.6466 214.319 14.5696 222.855 9.2769C231.447 4.00332 241.859 1.34337 254.135 1.34337C266.854 1.34337 277.437 4.00685 285.935 9.27596C294.47 14.5678 300.948 21.6431 305.383 30.514L305.385 30.5173C309.828 39.3181 312.055 49.0249 312.055 59.6541V73.7187C312.055 84.345 309.786 94.0494 305.258 102.849L305.255 102.855C300.821 111.637 294.303 118.67 285.679 123.964C277.178 129.149 266.68 131.769 254.135 131.769C241.596 131.769 231.056 129.108 222.467 123.837C213.928 118.456 207.451 111.422 203.017 102.727C198.66 93.9252 196.476 84.2608 196.476 73.7187V59.6541C196.476 49.0278 198.746 39.3233 203.274 30.5238ZM237.29 91.753L237.296 91.7631C240.544 97.516 246.25 100.317 254.135 100.317C262.343 100.317 268.162 97.532 271.243 91.7487C274.272 86.2235 275.785 80.208 275.785 73.7187V59.6541C275.785 53.173 274.363 47.1223 271.515 41.516C268.521 35.6204 262.596 32.7956 254.135 32.7956C246.155 32.7956 240.44 35.6909 237.285 41.6308C234.262 47.3205 232.747 53.3324 232.747 59.6541V73.7187C232.747 80.2096 234.26 86.2266 237.29 91.753ZM214.516 275.41L396.58 10.5896H428.411L246.347 275.41H214.516Z" stroke="white" stroke-opacity="0.3" stroke-width="1.88615" shape-rendering="crispEdges"/>
</g>
<defs>
<filter id="filter0_d_6024_1526" x="0" y="0.400299" width="453.867" height="293.199" filterUnits="userSpaceOnUse" color-interpolation-filters="sRGB">
<feFlood flood-opacity="0" result="BackgroundImageFix"/>
<feColorMatrix in="SourceAlpha" type="matrix" values="0 0 0 0 0 0 0 0 0 0 0 0 0 0 0 0 0 0 127 0" result="hardAlpha"/>
<feOffset dy="4"/>
<feGaussianBlur stdDeviation="2"/>
<feComposite in2="hardAlpha" operator="out"/>
<feColorMatrix type="matrix" values="0 0 0 0 0 0 0 0 0 0 0 0 0 0 0 0 0 0 0.25 0"/>
<feBlend mode="normal" in2="BackgroundImageFix" result="effect1_dropShadow_6024_1526"/>
<feBlend mode="normal" in="SourceGraphic" in2="effect1_dropShadow_6024_1526" result="shape"/>
</filter>
</defs>
</svg>
