<svg width="130" height="130" viewBox="0 0 130 130" fill="none" xmlns="http://www.w3.org/2000/svg">
<g clip-path="url(#clip0_6027_3181)">
<path d="M115.049 104.675H21.6424C21.5379 104.675 21.4531 104.591 21.4531 104.486C21.4531 104.382 21.5379 104.297 21.6424 104.297H115.049C115.154 104.297 115.239 104.382 115.239 104.486C115.239 104.591 115.154 104.675 115.049 104.675Z" fill="#389F5D"/>
<path d="M116.812 33.293V90.4285C116.812 92.6681 114.997 94.4871 112.753 94.4871H67.6133C65.3736 94.4871 63.5547 92.6681 63.5547 90.4285V33.293H116.812Z" fill="white"/>
<path d="M112.751 94.6764H67.6112C65.2691 94.6764 63.3633 92.7706 63.3633 90.4286V33.293C63.3633 33.1885 63.448 33.1038 63.5526 33.1038H116.81C116.914 33.1038 116.999 33.1885 116.999 33.293V90.4286C116.999 92.7712 115.093 94.6764 112.751 94.6764ZM63.7418 33.4823V90.4286C63.7418 92.5621 65.4776 94.2979 67.6112 94.2979H112.751C114.885 94.2979 116.621 92.5621 116.621 90.4286V33.4823H63.7418Z" fill="#389F5D"/>
<path d="M116.812 34.2254V32.2504C116.812 29.7908 114.817 27.7966 112.358 27.7966H68.0085C65.5494 27.7966 63.5547 29.7914 63.5547 32.2504V34.2254H116.812Z" fill="#389F5D"/>
<path d="M116.81 34.4145H63.5526C63.448 34.4145 63.3633 34.3298 63.3633 34.2252V32.2498C63.3633 29.6893 65.4464 27.6067 68.0069 27.6067H112.356C114.917 27.6067 116.999 29.6898 116.999 32.2498V34.2252C116.999 34.3298 116.914 34.4145 116.81 34.4145ZM63.7418 34.036H116.621V32.2503C116.621 29.8988 114.708 27.9858 112.356 27.9858H68.0069C65.6554 27.9858 63.7418 29.8988 63.7418 32.2503V34.036Z" fill="#389F5D"/>
<path d="M67.1598 32.252C67.6429 32.252 68.0344 31.8604 68.0344 31.3773C68.0344 30.8943 67.6429 30.5027 67.1598 30.5027C66.6767 30.5027 66.2852 30.8943 66.2852 31.3773C66.2852 31.8604 66.6767 32.252 67.1598 32.252Z" fill="white"/>
<path d="M69.7574 32.252C70.2405 32.252 70.6321 31.8604 70.6321 31.3773C70.6321 30.8943 70.2405 30.5027 69.7574 30.5027C69.2744 30.5027 68.8828 30.8943 68.8828 31.3773C68.8828 31.8604 69.2744 32.252 69.7574 32.252Z" fill="white"/>
<path d="M72.3551 32.252C72.8382 32.252 73.2297 31.8604 73.2297 31.3773C73.2297 30.8943 72.8382 30.5027 72.3551 30.5027C71.8721 30.5027 71.4805 30.8943 71.4805 31.3773C71.4805 31.8604 71.8721 32.252 72.3551 32.252Z" fill="white"/>
<path d="M72.4465 63.8904C72.4465 63.8904 73.3242 64.7827 72.1631 65.5507C72.1631 65.5507 72.9025 66.7582 71.8261 67.117C70.6384 67.5121 69.2297 67.808 69.2297 67.808L67.6567 84.0404C67.5673 85.1916 67.053 86.266 66.2122 87.0538C65.3417 87.8681 64.2097 88.2997 63.0584 88.2997C62.5394 88.2997 62.0158 88.2123 61.5119 88.0329L51.7109 84.5494L55.0369 76.5809L60.5447 78.5637L61.3855 71.5484L63.3517 64.3922C63.439 63.7983 63.6475 63.2284 63.9627 62.7193L65.0848 60.9108C65.3635 60.5546 65.8555 60.4407 66.2631 60.6393C66.6027 60.8068 66.8013 61.1458 66.8013 61.502C66.8013 61.6424 66.7696 61.7833 66.7041 61.919L65.6157 64.1665L72.0206 62.4016C72.4667 62.2778 72.9514 62.5545 73.0143 63.01C73.0528 63.2918 72.9363 63.609 72.4465 63.8904Z" fill="white"/>
<path d="M63.0526 88.489C62.5019 88.489 61.9601 88.3954 61.4427 88.2113L51.6417 84.7279C51.5929 84.7107 51.5528 84.6738 51.532 84.6259C51.5107 84.5786 51.5102 84.5245 51.5305 84.4762L54.8564 76.5077C54.8954 76.4146 55.0015 76.3689 55.0951 76.4027L60.3788 78.3048L61.1915 71.5256C61.1926 71.5162 61.1947 71.5069 61.1967 71.498L63.1629 64.3418C63.2497 63.7417 63.4639 63.1546 63.7957 62.6195L64.9179 60.811C65.2626 60.369 65.8559 60.2327 66.3401 60.4693C66.7379 60.6654 66.9843 61.0611 66.9843 61.5026C66.9843 61.6742 66.9453 61.8421 66.8689 62.0018L65.9625 63.8733L71.9644 62.2197C72.2441 62.1422 72.5447 62.189 72.7881 62.3491C73.0153 62.4984 73.1599 62.7246 73.1963 62.9851C73.2321 63.2456 73.1713 63.6101 72.7179 63.9377C72.8359 64.114 72.9789 64.4052 72.943 64.7463C72.9092 65.0682 72.7277 65.3584 72.4022 65.6095C72.5145 65.8461 72.6841 66.3089 72.5364 66.7145C72.436 66.9896 72.2155 67.1857 71.8807 67.2975C70.9109 67.6199 69.784 67.8793 69.3997 67.9646L67.8403 84.0597C67.7472 85.2583 67.2126 86.3721 66.3364 87.1927C65.4425 88.0283 64.2762 88.489 63.0526 88.489ZM51.9569 84.4377L61.5696 87.8541C62.0464 88.0236 62.5456 88.1099 63.0526 88.1099C64.18 88.1099 65.2538 87.6856 66.0769 86.915C66.884 86.1589 67.3764 85.1329 67.4622 84.0253L69.0357 67.7894C69.0435 67.7072 69.1044 67.6396 69.185 67.6225C69.199 67.6193 70.5968 67.324 71.7605 66.9371C71.9831 66.8627 72.1199 66.7478 72.1797 66.5845C72.2982 66.2611 72.0866 65.7999 71.9951 65.6491C71.9425 65.5622 71.9675 65.4489 72.0523 65.3927C72.3658 65.1852 72.5379 64.9549 72.565 64.7084C72.6055 64.3376 72.3081 64.0256 72.3045 64.0225C72.2639 63.9804 72.2447 63.9221 72.253 63.8639C72.2613 63.8062 72.2951 63.7547 72.3461 63.7261C72.7012 63.5223 72.8562 63.2966 72.8198 63.0366C72.799 62.8858 72.7137 62.7537 72.579 62.6653C72.4287 62.567 72.2363 62.5369 72.0642 62.5847L65.6594 64.3496C65.5881 64.3693 65.5112 64.3454 65.4639 64.2882C65.416 64.231 65.4067 64.1515 65.4389 64.0844L66.5273 61.8369C66.5787 61.7298 66.6053 61.617 66.6053 61.5026C66.6053 61.2067 66.4394 60.941 66.1726 60.8094C65.8481 60.6508 65.4498 60.7429 65.2273 61.0278L64.1171 62.8192C63.8129 63.3096 63.6163 63.8483 63.5326 64.4198L61.5654 71.5849L60.7261 78.5861C60.7194 78.6433 60.6866 78.6943 60.6372 78.725C60.5883 78.7551 60.528 78.7614 60.4739 78.7421L55.1356 76.8202L51.9569 84.4377Z" fill="#389F5D"/>
<path d="M69.6772 64.5543C69.5867 64.5543 69.5066 64.4893 69.491 64.3968C69.4734 64.2938 69.5425 64.1961 69.6455 64.1784L72.4124 63.7047C72.5159 63.687 72.6136 63.7561 72.6313 63.8591C72.649 63.9621 72.5798 64.0598 72.4769 64.0775L69.71 64.5512C69.6985 64.5533 69.6876 64.5543 69.6772 64.5543Z" fill="#389F5D"/>
<path d="M69.6267 65.9089C69.5279 65.9089 69.4447 65.8319 69.4379 65.7321C69.4311 65.6275 69.5097 65.5376 69.6142 65.5308L72.1487 65.3623C72.2532 65.3545 72.3431 65.4346 72.3499 65.5386C72.3567 65.6431 72.2781 65.7331 72.1736 65.7399L69.6391 65.9083C69.635 65.9089 69.6308 65.9089 69.6267 65.9089Z" fill="#389F5D"/>
<path d="M59.5327 65.877L60.7773 68.8752L73.5293 63.5817L72.2847 60.5834L59.5327 65.877Z" fill="#5CFF97"/>
<path d="M60.77 69.0649C60.7456 69.0649 60.7211 69.0603 60.6977 69.0504C60.6509 69.0311 60.6145 68.9942 60.5953 68.948L59.3504 65.9496C59.3104 65.8529 59.3561 65.7421 59.4529 65.7021L72.2048 60.408C72.2511 60.3887 72.3031 60.3887 72.3494 60.408C72.3962 60.4272 72.4326 60.4641 72.4518 60.5104L73.6967 63.5087C73.7367 63.6055 73.691 63.7162 73.5943 63.7563L60.8423 69.0504C60.8194 69.0603 60.7945 69.0649 60.77 69.0649ZM59.7727 65.9798L60.8725 68.6281L73.2745 63.4791L72.1747 60.8307L59.7727 65.9798Z" fill="#389F5D"/>
<path d="M58.022 66.5033L59.531 65.8767L60.7759 68.875L59.2668 69.5016C58.7286 69.7252 58.1364 69.525 57.9414 69.0549L57.4026 67.757C57.2071 67.2875 57.4832 66.7269 58.022 66.5033Z" fill="#5EE890"/>
<path d="M58.8155 69.7819C58.3548 69.7819 57.9347 69.5396 57.7636 69.1278L57.2249 67.8298C56.9903 67.2646 57.3138 66.5912 57.9466 66.3286L59.4557 65.702C59.5524 65.662 59.6631 65.7077 59.7032 65.8044L60.9481 68.8028C60.9881 68.8995 60.9423 69.0102 60.8456 69.0503L59.3366 69.6769C59.165 69.7481 58.9871 69.7819 58.8155 69.7819ZM58.0917 66.678C57.6518 66.8606 57.4199 67.3124 57.5743 67.6848L58.113 68.9827C58.2675 69.355 58.7511 69.5094 59.1915 69.3269L60.5253 68.7731L59.4255 66.1242L58.0917 66.678Z" fill="#389F5D"/>
<path d="M72.2812 60.583L74.3742 60.9018L75.3784 61.0557L74.7778 61.8742L73.5261 63.5813L72.2812 60.583Z" fill="white"/>
<path d="M73.5247 63.7706C73.5174 63.7706 73.5096 63.7701 73.5018 63.7691C73.4342 63.7608 73.3759 63.7171 73.3494 63.6536L72.1045 60.6553C72.078 60.5924 72.0879 60.5196 72.13 60.466C72.1721 60.4125 72.2392 60.3854 72.3079 60.3953L75.405 60.868C75.4705 60.8779 75.5261 60.9216 75.5516 60.9829C75.5766 61.0443 75.5683 61.114 75.5293 61.1675L73.677 63.6932C73.6417 63.7426 73.5845 63.7706 73.5247 63.7706ZM72.5835 60.8207L73.5709 63.1981L75.0394 61.1951L72.5835 60.8207Z" fill="#389F5D"/>
<path d="M74.3711 60.9019L75.3752 61.0558L74.7746 61.8743L74.3711 60.9019Z" fill="#389F5D"/>
<path d="M74.777 62.0635C74.7697 62.0635 74.7619 62.063 74.7541 62.0619C74.6865 62.0536 74.6283 62.0094 74.6018 61.9465L74.1983 60.9741C74.1717 60.9112 74.1816 60.8384 74.2243 60.7848C74.2664 60.7307 74.334 60.7042 74.4016 60.7146L75.4057 60.8686C75.4712 60.8784 75.5269 60.9221 75.5523 60.9835C75.5773 61.0448 75.569 61.1145 75.53 61.1681L74.9294 61.9866C74.8935 62.0349 74.8368 62.0635 74.777 62.0635ZM74.6772 61.14L74.8233 61.4915L75.0401 61.1956L74.6772 61.14Z" fill="#389F5D"/>
<path d="M60.1501 67.5657C60.0758 67.5657 60.0056 67.5215 59.9754 67.4487C59.9354 67.352 59.9811 67.2412 60.0779 67.2012L72.8293 61.9071C72.9255 61.867 73.0368 61.9128 73.0768 62.0095C73.1169 62.1062 73.0711 62.217 72.9744 62.257L60.2229 67.5512C60.199 67.561 60.1746 67.5657 60.1501 67.5657Z" fill="#389F5D"/>
<path d="M61.3826 71.5473L61.6088 69.2432L61.1091 66.3796C61.0628 65.8081 61.4668 65.298 62.0336 65.2122C62.6587 65.1175 63.2333 65.5725 63.2848 66.2023L63.4023 67.6427C63.4023 67.6427 65.3351 68.1476 65.1661 70.1979" fill="white"/>
<path d="M61.3832 71.7372C61.3769 71.7372 61.3707 71.7367 61.3645 71.7362C61.2605 71.7258 61.184 71.6332 61.1944 71.5292L61.4175 69.2511L60.9225 66.4129C60.8663 65.7276 61.3426 65.1259 62.0056 65.0256C62.3571 64.9725 62.7149 65.0682 62.9921 65.2876C63.2692 65.5071 63.445 65.8352 63.4736 66.1878L63.5812 67.5034C64.0357 67.6698 65.5083 68.3551 65.3555 70.2141C65.3471 70.3181 65.2567 70.3956 65.1511 70.3873C65.0466 70.379 64.9696 70.2874 64.9779 70.1829C65.1313 68.3203 63.4268 67.8455 63.3545 67.8263C63.277 67.8055 63.2209 67.7384 63.2141 67.6588L63.0961 66.2184C63.0753 65.9668 62.9546 65.7416 62.7565 65.5846C62.5584 65.428 62.3119 65.362 62.0618 65.4C61.5953 65.4707 61.2594 65.8945 61.2974 66.3646L61.795 69.211C61.7976 69.2277 61.7987 69.2448 61.7966 69.262L61.5709 71.5661C61.5615 71.6639 61.4794 71.7372 61.3832 71.7372Z" fill="#389F5D"/>
<path d="M60.5408 80.5143C60.4363 80.5143 60.3516 80.4296 60.3516 80.325V78.5638C60.3516 78.4593 60.4363 78.3745 60.5408 78.3745C60.6454 78.3745 60.7301 78.4593 60.7301 78.5638V80.325C60.7301 80.4296 60.6454 80.5143 60.5408 80.5143Z" fill="#389F5D"/>
<path d="M51.0464 74.6736L57.939 76.7364L55.1685 86.7027L48.0195 83.9623L51.0464 74.6736Z" fill="#389F5D"/>
<path d="M55.1665 86.8926C55.1436 86.8926 55.1207 86.8885 55.0989 86.8801L47.9499 84.1397C47.8522 84.1023 47.8033 83.9926 47.8407 83.8953C47.8782 83.7976 47.9879 83.7492 48.0851 83.7861L55.0396 86.4522L57.7046 76.8649L54.8155 76.0002C54.7151 75.97 54.6584 75.8645 54.6881 75.7646C54.7182 75.6643 54.8238 75.6076 54.9236 75.6377L57.9906 76.5555C58.0894 76.5852 58.1466 76.6881 58.119 76.7875L55.3485 86.7543C55.3339 86.8058 55.2991 86.8484 55.2512 86.8729C55.2247 86.8859 55.1956 86.8926 55.1665 86.8926Z" fill="#389F5D"/>
<path d="M48.5014 104.672L49.2741 91.6135L30.6571 93.3774L27.9219 104.672H48.5014Z" fill="#389F5D"/>
<path d="M51.5568 74.8942C51.5568 74.8942 46.1846 73.1225 44.2991 72.8391C42.0538 72.5016 35.3218 72.7471 35.3218 72.7471C34.1404 72.8079 33.1503 73.6623 32.9168 74.8219L28.4688 96.3005L50.4543 95.6115L53.2254 77.7406C53.4241 76.5145 52.7236 75.32 51.5568 74.8942Z" fill="#389F5D"/>
<path d="M50.4512 95.8013C50.4418 95.8013 50.432 95.8008 50.4221 95.7992C50.3186 95.7831 50.2479 95.6864 50.264 95.5829L52.7766 79.3786C52.7928 79.2752 52.89 79.2044 52.993 79.2206C53.0964 79.2367 53.1672 79.3334 53.151 79.4369L50.6384 95.6411C50.6238 95.7342 50.5432 95.8013 50.4512 95.8013Z" fill="#389F5D"/>
<path d="M33.222 99.3132C33.222 99.3132 33.911 100.687 32.4836 100.991C32.4836 100.991 32.6615 101.888 32.0203 102.163C31.4119 102.426 31.0334 102.244 30.997 102.228C31.0292 102.304 31.402 103.2 30.5773 103.621C29.9044 103.968 29.3694 103.511 29.0199 102.817C28.67 102.121 28.0434 101.89 28.0434 101.89C28.0434 101.89 25.877 102.147 24.7455 101.64C23.7783 101.21 22.027 99.1156 22.027 99.1156L13.995 87.2482C13.3112 86.114 13.0507 84.774 13.2556 83.4683C13.4194 82.4278 13.8692 81.473 14.5265 80.7008C15.1827 79.924 16.0464 79.3301 17.0469 78.9963L26.2889 75.9314L29.6304 83.7044L22.8907 86.7926L27.8224 94.4101C27.8224 94.4101 31.8815 94.8729 33.1674 96.0648C33.9105 96.7522 35.0602 98.8707 33.222 99.3132Z" fill="white"/>
<path d="M30.1281 103.93C30.0225 103.93 29.9185 103.913 29.8156 103.88C29.4474 103.76 29.1141 103.422 28.852 102.903C28.5868 102.375 28.1474 102.143 28.0169 102.084C27.6732 102.121 25.7513 102.298 24.6697 101.813C23.6744 101.37 21.9563 99.3241 21.8835 99.2372L13.8401 87.3547C13.1298 86.1769 12.8584 84.7896 13.07 83.4391C13.2364 82.3814 13.6904 81.3924 14.3835 80.5786C15.0705 79.7653 15.9716 79.1564 16.9882 78.8174L26.2307 75.7525C26.3248 75.7218 26.4252 75.767 26.4642 75.8575L29.8057 83.6305C29.8463 83.7251 29.8041 83.8343 29.7105 83.8775L23.17 86.8748L27.9347 94.2343C28.5572 94.3118 32.0739 94.7928 33.298 95.9274C33.7884 96.3804 34.6022 97.6169 34.3573 98.5571C34.2798 98.8545 34.0619 99.2341 33.4769 99.4374C33.5627 99.6917 33.6584 100.136 33.4701 100.529C33.3313 100.818 33.0703 101.021 32.6927 101.135C32.7151 101.449 32.6813 102.087 32.0968 102.338C31.7599 102.484 31.4822 102.509 31.2752 102.49C31.3652 102.959 31.2482 103.493 30.6658 103.791C30.4843 103.883 30.3044 103.93 30.1281 103.93ZM28.0445 101.7C28.0668 101.7 28.0892 101.705 28.11 101.712C28.1386 101.723 28.8109 101.978 29.19 102.732C29.4053 103.16 29.6622 103.432 29.9321 103.519C30.1094 103.577 30.2924 103.555 30.4916 103.453C31.1333 103.125 30.8805 102.437 30.8239 102.302C30.7937 102.231 30.8098 102.148 30.8655 102.094C30.9206 102.039 31.0038 102.024 31.075 102.055C31.1608 102.094 31.4655 102.198 31.9465 101.989C32.4379 101.778 32.3007 101.035 32.2991 101.028C32.2799 100.926 32.3449 100.827 32.4457 100.806C32.7936 100.732 33.0235 100.583 33.129 100.364C33.324 99.9574 33.0578 99.4031 33.0547 99.3979C33.0287 99.3464 33.0276 99.2856 33.0521 99.2331C33.0765 99.1806 33.1233 99.1421 33.1795 99.1286C33.6365 99.0183 33.9023 98.7999 33.9907 98.4598C34.1701 97.7719 33.558 96.682 33.0406 96.2036C31.815 95.0674 27.8422 94.6025 27.8027 94.5978C27.7465 94.5916 27.6961 94.5604 27.6649 94.5125L22.7332 86.8951C22.7035 86.8488 22.6952 86.7921 22.7103 86.739C22.7254 86.686 22.7628 86.6428 22.8133 86.62L29.3845 83.6086L26.1849 76.1648L17.1078 79.1762C16.1573 79.4928 15.3149 80.0622 14.6727 80.823C14.0242 81.5843 13.5999 82.5088 13.4444 83.4974C13.2463 84.7594 13.5001 86.0568 14.1589 87.1504L22.1851 99.0095C22.1908 99.0147 23.9079 101.059 24.8236 101.468C25.8937 101.947 28.0008 101.705 28.0226 101.702C28.0299 101.701 28.0372 101.7 28.0445 101.7Z" fill="#389F5D"/>
<path d="M38.6861 72.6689L34.8937 72.7334C34.069 72.7475 33.2511 72.8884 32.469 73.1515L24.9727 75.6839L28.1135 85.2654L33.7175 83.0523C36.5369 82.3924 38.5493 79.9032 38.6039 77.0078L38.6861 72.6689Z" fill="#389F5D"/>
<path d="M28.1119 85.4559C28.0844 85.4559 28.0568 85.4496 28.0313 85.4382C27.984 85.4158 27.9481 85.3753 27.9315 85.3259L24.7907 75.7444C24.7584 75.6456 24.8115 75.5395 24.9098 75.5062L32.4066 72.9738C32.507 72.9405 32.613 72.9936 32.6468 73.0924C32.6801 73.1912 32.6271 73.2988 32.5278 73.3321L25.2088 75.8047L28.2284 85.017L33.6458 82.8777C33.7425 82.8392 33.8532 82.8871 33.8912 82.9843C33.9297 83.0816 33.8818 83.1918 33.7846 83.2298L28.1806 85.4429C28.1592 85.4512 28.1358 85.4559 28.1119 85.4559Z" fill="#389F5D"/>
<path d="M33.2252 99.3138C33.2252 99.3138 32.9824 98.4896 32.337 97.8365C31.5825 97.0721 29.6133 96.6104 29.6133 96.6104" fill="white"/>
<path d="M33.2234 99.5031C33.1418 99.5031 33.0664 99.4501 33.042 99.3674C33.0394 99.3596 32.8022 98.5791 32.2006 97.9691C31.4929 97.252 29.5871 96.7991 29.5684 96.7944C29.4664 96.7705 29.403 96.6686 29.4269 96.5667C29.4508 96.4647 29.5528 96.4018 29.6547 96.4257C29.7374 96.445 31.6868 96.9093 32.4705 97.7034C33.1413 98.383 33.3945 99.2249 33.4054 99.2602C33.4351 99.3606 33.3774 99.4656 33.2775 99.4953C33.2593 99.5005 33.2411 99.5031 33.2234 99.5031Z" fill="#389F5D"/>
<path d="M32.4873 100.99C32.4873 100.99 32.0952 99.6335 31.2887 99.0927C30.4822 98.5514 28.7734 97.8572 28.7734 97.8572" fill="white"/>
<path d="M32.4852 101.18C32.403 101.18 32.3276 101.126 32.3032 101.043C32.2995 101.03 31.9199 99.7454 31.181 99.2499C30.4 98.7257 28.7167 98.0393 28.7001 98.0326C28.6034 97.993 28.5566 97.8828 28.5961 97.7861C28.6356 97.6888 28.7469 97.6426 28.8426 97.6821C28.9133 97.7107 30.5783 98.3903 31.3921 98.9358C32.246 99.5088 32.6505 100.88 32.6672 100.938C32.6963 101.039 32.6386 101.144 32.5382 101.173C32.52 101.178 32.5023 101.18 32.4852 101.18Z" fill="#389F5D"/>
<path d="M30.9945 102.224C30.9945 102.224 30.2608 100.605 29.7288 100.246C29.1969 99.8874 27.7383 99.4761 27.7383 99.4761" fill="white"/>
<path d="M30.9927 102.414C30.9209 102.414 30.8518 102.372 30.82 102.302C30.6219 101.865 30.0208 100.673 29.6214 100.403C29.1212 100.066 27.6995 99.6623 27.685 99.6581C27.5841 99.6295 27.5258 99.525 27.5539 99.4246C27.582 99.3243 27.687 99.265 27.7874 99.2936C27.8482 99.3107 29.2824 99.7174 29.8331 100.089C30.3931 100.467 31.0878 101.975 31.1653 102.146C31.2085 102.241 31.1658 102.353 31.0707 102.396C31.0452 102.408 31.0187 102.414 30.9927 102.414Z" fill="#389F5D"/>
<path d="M22.895 86.9825C22.842 86.9825 22.7884 86.9602 22.751 86.916L21.4905 85.4413C21.4229 85.3617 21.4322 85.2421 21.5113 85.1745C21.5908 85.1069 21.7104 85.1157 21.778 85.1953L23.0385 86.67C23.1061 86.7496 23.0968 86.8692 23.0177 86.9368C22.9818 86.9675 22.9387 86.9825 22.895 86.9825Z" fill="#389F5D"/>
<path d="M41.3186 74.8025L39.7695 73.2253L40.601 66.574L47.2279 67.9551L47.608 74.05L47.1 74.8004C46.0023 76.9417 43.005 76.519 41.3186 74.8025Z" fill="white"/>
<path d="M44.6002 76.4427C43.4053 76.4427 42.1131 75.8837 41.1812 74.9357L39.6322 73.3586C39.5916 73.3175 39.5724 73.2598 39.5796 73.2026L40.4111 66.5513C40.4179 66.4987 40.446 66.4514 40.4886 66.4207C40.5318 66.3901 40.5848 66.3786 40.6373 66.3895L47.2642 67.7707C47.3474 67.7878 47.4093 67.8591 47.4145 67.9443L47.7951 74.0393C47.7977 74.0809 47.7863 74.1225 47.7629 74.1573L47.2543 74.9077C46.8326 75.7329 46.0984 76.2571 45.1426 76.4027C44.9658 76.4292 44.7843 76.4427 44.6002 76.4427ZM41.4516 74.67C42.4287 75.6648 43.8894 76.2108 45.0864 76.0277C45.9169 75.9009 46.5539 75.4469 46.9298 74.7142L47.4134 73.9977L47.0463 68.1113L40.7616 66.8014L39.9665 73.1579L41.4516 74.67Z" fill="#389F5D"/>
<path d="M40.6943 67.4804C38.5753 64.3516 38.6408 60.3694 38.6408 60.3694L46.1221 56.1902C46.3056 56.3176 51.1229 57.8989 52.1489 63.6407C52.9897 68.3462 49.5853 71.1001 44.0468 70.0627" fill="white"/>
<path d="M46.2764 70.4709C45.564 70.4709 44.8069 70.3976 44.0134 70.2489C43.9104 70.2296 43.8428 70.1308 43.862 70.0279C43.8813 69.9249 43.9816 69.8573 44.083 69.8766C46.9581 70.4153 49.321 69.9384 50.737 68.5344C51.9018 67.3795 52.3261 65.6989 51.9647 63.674C51.3719 60.3569 49.3231 57.785 46.1958 56.432C46.1708 56.421 46.1495 56.4117 46.1308 56.4039L38.8326 60.4807C38.8425 61.1338 38.985 64.6168 40.8533 67.3749C40.9121 67.4617 40.8892 67.5792 40.8029 67.638C40.716 67.6967 40.5985 67.6739 40.5398 67.5875C38.4114 64.4452 38.4509 60.5322 38.4535 60.3673C38.4546 60.2997 38.4915 60.2379 38.5502 60.2051L46.0315 56.0259C46.0944 55.9905 46.1719 55.9941 46.2317 56.0357C46.2436 56.0414 46.2852 56.0591 46.3461 56.0851C49.5935 57.4907 51.7213 60.1625 52.337 63.6085C52.7218 65.7613 52.2606 67.5579 51.0037 68.8043C49.8951 69.9026 48.2586 70.4709 46.2764 70.4709Z" fill="#389F5D"/>
<path d="M44.6347 58.5009C44.9701 59.2643 44.735 60.2383 44.0881 60.7645C43.6045 61.1581 42.9363 61.3121 42.5344 61.7884C42.2567 62.1175 42.1465 62.5585 42.1173 62.988C42.0877 63.4175 42.1309 63.8491 42.1173 64.2797C42.1137 64.3977 42.0986 64.5293 42.0076 64.6037C41.8537 64.729 41.6223 64.5927 41.5058 64.4321C41.4185 64.3109 41.2812 64.0114 41.1013 64.0062C41.0222 64.0041 40.8959 64.1201 40.8309 64.1606C40.5823 64.3166 40.3337 64.4731 40.0852 64.6291C39.7311 64.8517 39.3769 65.0737 39.0233 65.2963C39.0233 65.2963 35.401 62.039 36.4535 59.7427C37.506 57.4464 39.5246 57.8119 39.5246 57.8119C39.3494 56.5109 39.4945 55.1865 40.0535 53.9988C40.613 52.8111 41.6499 51.8195 42.9171 51.4768C44.1843 51.1341 45.6617 51.5194 46.4817 52.5443C46.7776 52.0722 47.0807 51.5912 47.5082 51.2334C47.9356 50.8757 48.5165 50.6552 49.0568 50.7919C49.6303 50.937 50.0458 51.4518 50.2611 52.0025C50.7441 53.2359 50.3432 54.7601 49.3157 55.5962C49.8336 55.721 50.1295 56.3253 50.0499 56.852C49.9704 57.3788 49.6038 57.8203 49.1862 58.151C47.8566 59.205 46.0751 59.3979 44.6347 58.5009Z" fill="#389F5D"/>
<path d="M46.5617 62.6496C46.1114 62.6034 45.6652 62.8602 45.4297 63.3007L46.5617 62.6496Z" fill="white"/>
<path d="M45.431 63.4899C45.4009 63.4899 45.3702 63.4826 45.3421 63.4675C45.2501 63.4181 45.2152 63.3032 45.2646 63.2111C45.5371 62.7015 46.053 62.4067 46.5829 62.4613C46.6869 62.4717 46.7628 62.5648 46.7519 62.6688C46.7409 62.7728 46.6463 62.8492 46.5444 62.8378C46.1715 62.7998 45.7987 63.0161 45.5985 63.3895C45.5642 63.4535 45.4986 63.4899 45.431 63.4899Z" fill="#389F5D"/>
<path d="M49.4871 62.7755C49.6114 63.1015 49.8917 63.2991 50.1127 63.2149C50.3316 63.1311 50.4086 62.7963 50.2822 62.4692C50.1559 62.1416 49.8751 61.944 49.6561 62.0282C49.4357 62.114 49.3608 62.4479 49.4871 62.7755Z" fill="#389F5D"/>
<path d="M46.1541 64.1207C46.2804 64.4483 46.5607 64.6438 46.7817 64.5596C47.0006 64.4758 47.0755 64.1415 46.9512 63.8139C46.8249 63.4863 46.5446 63.2887 46.3236 63.375C46.1041 63.4587 46.0293 63.7926 46.1541 64.1207Z" fill="#389F5D"/>
<path d="M49.8938 61.3044C49.4434 61.2581 48.9973 61.515 48.7617 61.9555L49.8938 61.3044Z" fill="white"/>
<path d="M48.7592 62.1446C48.729 62.1446 48.6983 62.1374 48.6703 62.1223C48.5782 62.0729 48.5434 61.958 48.5928 61.8659C48.8653 61.3563 49.3827 61.0615 49.911 61.1161C50.015 61.1265 50.0909 61.2196 50.08 61.3236C50.0691 61.4276 49.9749 61.5035 49.8725 61.4926C49.4986 61.4541 49.1263 61.6709 48.9266 62.0443C48.8923 62.1082 48.8268 62.1446 48.7592 62.1446Z" fill="#389F5D"/>
<path d="M41.2878 63.9833C41.2878 63.9833 39.0154 62.4077 38.0071 62.9839C36.9983 63.56 38.0919 67.2848 39.4361 67.4091C40.7803 67.5339 41.7183 66.8407 41.7183 66.8407" fill="white"/>
<path d="M39.7605 67.6136C39.6493 67.6136 39.5343 67.6084 39.4163 67.5975C38.5375 67.5158 37.8017 66.1976 37.5292 64.9377C37.2999 63.8784 37.4429 63.0865 37.9114 62.8192C38.992 62.202 41.1515 63.6595 41.3944 63.8275C41.4802 63.8873 41.5015 64.0048 41.4422 64.0911C41.3829 64.1769 41.2654 64.1988 41.1786 64.139C40.5738 63.7198 38.8412 62.7246 38.0997 63.1484C37.796 63.3215 37.7159 64.0084 37.8995 64.8581C38.1402 65.9709 38.7866 67.1591 39.4517 67.221C40.7023 67.337 41.5956 66.6953 41.6045 66.6885C41.6887 66.6272 41.8073 66.6448 41.8691 66.7291C41.931 66.8133 41.9133 66.9314 41.8291 66.9932C41.7917 67.0203 40.9732 67.6136 39.7605 67.6136Z" fill="#389F5D"/>
<path d="M39.2656 65.779C39.2058 65.779 39.1465 65.7509 39.1101 65.6979C38.9468 65.4633 38.8303 65.1914 38.7731 64.9121C38.7232 64.6662 38.7539 64.48 38.8667 64.3427C38.9619 64.2273 39.1158 64.1592 39.2801 64.1592C39.2817 64.1592 39.2833 64.1592 39.2848 64.1592C39.4039 64.1602 39.5266 64.194 39.6592 64.2627C39.8251 64.3485 39.9749 64.4701 40.0924 64.6157C40.1579 64.6969 40.1449 64.8165 40.0638 64.882C39.9827 64.9475 39.8636 64.935 39.7975 64.8534C39.7133 64.7489 39.6051 64.6605 39.4855 64.5991C39.4065 64.558 39.3399 64.5383 39.2817 64.5377C39.2375 64.5367 39.1824 64.5554 39.159 64.5835C39.1241 64.6256 39.1189 64.7135 39.1444 64.8367C39.1907 65.0661 39.2864 65.2886 39.4205 65.4815C39.4803 65.5673 39.459 65.6854 39.3732 65.7452C39.3405 65.7681 39.303 65.779 39.2656 65.779Z" fill="#389F5D"/>
<path d="M48.5625 63.7629C48.7695 64.2257 48.9769 64.6885 49.1839 65.1508C49.3087 65.4301 49.4356 65.7202 49.4054 66.0161C49.3753 66.312 49.1397 66.6141 48.7851 66.6625" fill="white"/>
<path d="M48.7867 66.8517C48.6937 66.8517 48.612 66.7825 48.5995 66.6879C48.5855 66.5844 48.6578 66.4887 48.7618 66.4747C49.0311 66.4383 49.1986 66.2012 49.2189 65.9968C49.2443 65.7462 49.1268 65.4831 49.0129 65.2283L48.3915 63.8404C48.3489 63.7447 48.3915 63.6329 48.4867 63.5903C48.5819 63.5476 48.6942 63.5903 48.7368 63.6859L49.3582 65.0738C49.4861 65.3603 49.6312 65.6843 49.5953 66.0353C49.5589 66.392 49.2781 66.7867 48.8122 66.8501C48.8034 66.8512 48.7951 66.8517 48.7867 66.8517Z" fill="#389F5D"/>
<path d="M47.1064 68.1652C46.8464 68.1652 46.5848 68.0971 46.3602 67.9676C46.0528 67.7903 45.8116 67.4965 45.6977 67.1611C45.6639 67.0623 45.7169 66.9546 45.8162 66.9208C45.9156 66.887 46.0227 66.9401 46.0565 67.0394C46.1418 67.289 46.3212 67.5079 46.55 67.64C46.7788 67.7721 47.0585 67.8178 47.317 67.7664C47.4194 67.7461 47.5192 67.8121 47.5395 67.9151C47.5598 68.0175 47.4932 68.1174 47.3908 68.1376C47.2972 68.1558 47.2015 68.1652 47.1064 68.1652Z" fill="#389F5D"/>
<path d="M51.706 47.0304C55.9145 47.0304 59.3261 43.6188 59.3261 39.4104C59.3261 35.2019 55.9145 31.7903 51.706 31.7903C47.4976 31.7903 44.0859 35.2019 44.0859 39.4104C44.0859 43.6188 47.4976 47.0304 51.706 47.0304Z" fill="#5EE890"/>
<path d="M54.0312 46.2619L56.9734 46.965C57.4497 47.0788 57.8943 46.6847 57.8387 46.198L57.4924 43.1929L54.0312 46.2619Z" fill="#5CFF97"/>
<path d="M48.5496 40.8105C47.3692 39.6301 47.3686 37.7087 48.5496 36.5278C49.7305 35.3469 51.6514 35.3474 52.8323 36.5278C54.0127 37.7082 54.0132 39.6296 52.8323 40.8105C51.6514 41.9909 49.73 41.9909 48.5496 40.8105ZM49.4055 39.9546C50.1142 40.6634 51.2676 40.6634 51.9764 39.9546C52.6851 39.2459 52.6851 38.0925 51.9764 37.3837C51.2676 36.675 50.1142 36.675 49.4055 37.3837C48.6967 38.0925 48.6967 39.2459 49.4055 39.9546Z" fill="white"/>
<path d="M54.9042 42.8621C55.2012 42.5651 55.2012 42.0836 54.9042 41.7862L53.1191 40.001C52.8222 39.7041 52.3406 39.7041 52.0432 40.001C51.7458 40.2979 51.7463 40.7795 52.0432 41.0769L53.8284 42.8621C54.1258 43.1595 54.6073 43.1595 54.9042 42.8621Z" fill="white"/>
<path d="M28.9575 63.9548C29.784 63.9548 30.4541 63.2848 30.4541 62.4582C30.4541 61.6317 29.784 60.9617 28.9575 60.9617C28.131 60.9617 27.4609 61.6317 27.4609 62.4582C27.4609 63.2848 28.131 63.9548 28.9575 63.9548Z" fill="#389F5D"/>
<path d="M29.8349 56.3639C29.3466 57.3607 29.3794 58.5354 29.9191 59.5041L29.9873 59.6258L26.0098 61.8426L25.9417 61.7209C25.3925 60.736 24.3869 60.112 23.2631 59.9929C21.2159 59.7751 19.3013 58.5988 18.2223 56.6629C16.3856 53.3681 17.6903 49.1728 21.1587 47.5337C24.1622 46.1152 27.8111 47.2108 29.5416 50.0448C30.7673 52.0479 30.7865 54.4253 29.8349 56.3639Z" fill="#5EE890"/>
<path d="M26.9378 60.9706C26.8728 60.9706 26.8093 60.9373 26.7745 60.877L24.0206 56.197C23.7715 56.2828 23.5167 56.3551 23.2577 56.4138L22.2432 56.6432C21.9718 56.7045 21.692 56.6556 21.4564 56.5048C21.2219 56.354 21.0607 56.1206 21.003 55.8476C20.9385 55.5428 21.0139 55.2282 21.2094 54.9854C21.405 54.7426 21.6962 54.6022 22.0082 54.5996C22.0139 54.5996 22.0201 54.5996 22.0264 54.5996C22.888 54.5996 23.6961 55.0291 24.1802 55.7342C24.7428 55.5122 25.2732 55.2168 25.7579 54.8549C25.4105 54.0666 25.4734 53.1456 25.9352 52.4104C26.1011 52.1462 26.3736 51.973 26.683 51.934C26.9924 51.8956 27.2997 51.997 27.5248 52.2117C27.7266 52.4041 27.8405 52.6641 27.8452 52.9428C27.8499 53.2221 27.7448 53.4852 27.5493 53.6844L26.8202 54.4269C26.6346 54.6162 26.4391 54.7946 26.2352 54.961L28.7676 59.7642C28.8165 59.8568 28.7812 59.9712 28.6886 60.02C28.596 60.0689 28.4816 60.033 28.4328 59.941L25.9316 55.1965C25.4521 55.5475 24.9316 55.8377 24.3809 56.0608L27.1011 60.6836C27.1541 60.7735 27.1239 60.8895 27.034 60.9425C27.0033 60.9618 26.9705 60.9706 26.9378 60.9706ZM22.0264 54.9786C22.0212 54.9786 22.016 54.9786 22.0108 54.9786C21.8132 54.9802 21.6286 55.0691 21.5048 55.223C21.381 55.377 21.3332 55.5761 21.3738 55.7696C21.4102 55.9427 21.5121 56.0904 21.6613 56.1861C21.81 56.2818 21.9868 56.313 22.16 56.274L23.1745 56.0446C23.3898 55.9958 23.602 55.937 23.8105 55.8684C23.3914 55.3135 22.7294 54.9786 22.0264 54.9786ZM26.8125 52.3053C26.7849 52.3053 26.7579 52.3069 26.7303 52.3105C26.5343 52.335 26.3616 52.4452 26.2561 52.6121C25.8791 53.2127 25.813 53.9579 26.0662 54.6105C26.2337 54.4696 26.3954 54.3203 26.5498 54.1628L27.2789 53.4202C27.4026 53.2938 27.4692 53.1269 27.4666 52.9501C27.4635 52.7733 27.3912 52.6085 27.2633 52.4868C27.1411 52.3693 26.9794 52.3053 26.8125 52.3053Z" fill="white"/>
<path d="M31.3051 60.9836L26.4774 63.6746C26.4005 63.7172 26.3038 63.6896 26.2606 63.6132L25.2232 61.7521C25.1806 61.6752 25.2081 61.5784 25.2846 61.5353L30.1122 58.8443C30.1892 58.8016 30.2859 58.8292 30.3291 58.9056L31.3665 60.7667C31.4096 60.8437 31.3821 60.9409 31.3051 60.9836Z" fill="#389F5D"/>
<path d="M19.8607 45.7372L19.3906 45.9993L19.9304 46.9676L20.4005 46.7056L19.8607 45.7372Z" fill="#5EE890"/>
<path d="M16.5144 48.788L16.2383 49.25L17.1899 49.8187L17.466 49.3568L16.5144 48.788Z" fill="#5EE890"/>
<path d="M24.2803 44.7688L23.7422 44.7612L23.7265 45.8698L24.2647 45.8774L24.2803 44.7688Z" fill="#5EE890"/>
<path d="M111.488 41.0281H80.1719V67.0234H111.488V41.0281Z" fill="white"/>
<path d="M111.487 67.2132H110.603C110.499 67.2132 110.414 67.1285 110.414 67.0239C110.414 66.9194 110.499 66.8347 110.603 66.8347H111.298V66.1405C111.298 66.0359 111.382 65.9512 111.487 65.9512C111.591 65.9512 111.676 66.0359 111.676 66.1405V67.0239C111.676 67.1285 111.591 67.2132 111.487 67.2132Z" fill="#389F5D"/>
<path d="M108.867 67.213H107.129C107.025 67.213 106.94 67.1283 106.94 67.0238C106.94 66.9192 107.025 66.8345 107.129 66.8345H108.867C108.972 66.8345 109.056 66.9192 109.056 67.0238C109.056 67.1283 108.972 67.213 108.867 67.213ZM105.391 67.213H103.653C103.548 67.213 103.464 67.1283 103.464 67.0238C103.464 66.9192 103.548 66.8345 103.653 66.8345H105.391C105.495 66.8345 105.58 66.9192 105.58 67.0238C105.58 67.1283 105.495 67.213 105.391 67.213ZM101.915 67.213H100.177C100.072 67.213 99.9875 67.1283 99.9875 67.0238C99.9875 66.9192 100.072 66.8345 100.177 66.8345H101.915C102.019 66.8345 102.104 66.9192 102.104 67.0238C102.104 67.1283 102.019 67.213 101.915 67.213ZM98.4384 67.213H96.7001C96.5956 67.213 96.5108 67.1283 96.5108 67.0238C96.5108 66.9192 96.5956 66.8345 96.7001 66.8345H98.4384C98.543 66.8345 98.6277 66.9192 98.6277 67.0238C98.6277 67.1283 98.543 67.213 98.4384 67.213ZM94.9617 67.213H93.2234C93.1188 67.213 93.0341 67.1283 93.0341 67.0238C93.0341 66.9192 93.1188 66.8345 93.2234 66.8345H94.9617C95.0662 66.8345 95.151 66.9192 95.151 67.0238C95.151 67.1283 95.0662 67.213 94.9617 67.213ZM91.4855 67.213H89.7477C89.6432 67.213 89.5584 67.1283 89.5584 67.0238C89.5584 66.9192 89.6432 66.8345 89.7477 66.8345H91.4855C91.59 66.8345 91.6748 66.9192 91.6748 67.0238C91.6748 67.1283 91.59 67.213 91.4855 67.213ZM88.0093 67.213H86.2715C86.1669 67.213 86.0822 67.1283 86.0822 67.0238C86.0822 66.9192 86.1669 66.8345 86.2715 66.8345H88.0093C88.1138 66.8345 88.1986 66.9192 88.1986 67.0238C88.1986 67.1283 88.1138 67.213 88.0093 67.213ZM84.5326 67.213H82.7947C82.6902 67.213 82.6055 67.1283 82.6055 67.0238C82.6055 66.9192 82.6902 66.8345 82.7947 66.8345H84.5326C84.6371 66.8345 84.7219 66.9192 84.7219 67.0238C84.7219 67.1283 84.6371 67.213 84.5326 67.213Z" fill="#389F5D"/>
<path d="M81.0571 67.2132H80.1737C80.0691 67.2132 79.9844 67.1285 79.9844 67.0239V66.1405C79.9844 66.0359 80.0691 65.9512 80.1737 65.9512C80.2782 65.9512 80.3629 66.0359 80.3629 66.1405V66.8347H81.0571C81.1617 66.8347 81.2464 66.9194 81.2464 67.0239C81.2464 67.1285 81.1617 67.2132 81.0571 67.2132Z" fill="#389F5D"/>
<path d="M80.1737 64.4655C80.0691 64.4655 79.9844 64.3807 79.9844 64.2762V62.4125C79.9844 62.308 80.0691 62.2232 80.1737 62.2232C80.2782 62.2232 80.3629 62.308 80.3629 62.4125V64.2762C80.3629 64.3807 80.2782 64.4655 80.1737 64.4655ZM80.1737 60.7381C80.0691 60.7381 79.9844 60.6533 79.9844 60.5488V58.6851C79.9844 58.5806 80.0691 58.4959 80.1737 58.4959C80.2782 58.4959 80.3629 58.5806 80.3629 58.6851V60.5488C80.3629 60.6533 80.2782 60.7381 80.1737 60.7381ZM80.1737 57.0107C80.0691 57.0107 79.9844 56.926 79.9844 56.8215V54.9578C79.9844 54.8533 80.0691 54.7685 80.1737 54.7685C80.2782 54.7685 80.3629 54.8533 80.3629 54.9578V56.8215C80.3629 56.926 80.2782 57.0107 80.1737 57.0107ZM80.1737 53.2834C80.0691 53.2834 79.9844 53.1986 79.9844 53.0941V51.2304C79.9844 51.1259 80.0691 51.0411 80.1737 51.0411C80.2782 51.0411 80.3629 51.1259 80.3629 51.2304V53.0941C80.3629 53.1986 80.2782 53.2834 80.1737 53.2834ZM80.1737 49.556C80.0691 49.556 79.9844 49.4713 79.9844 49.3667V47.5031C79.9844 47.3985 80.0691 47.3138 80.1737 47.3138C80.2782 47.3138 80.3629 47.3985 80.3629 47.5031V49.3667C80.3629 49.4713 80.2782 49.556 80.1737 49.556ZM80.1737 45.8287C80.0691 45.8287 79.9844 45.7439 79.9844 45.6394V43.7757C79.9844 43.6712 80.0691 43.5864 80.1737 43.5864C80.2782 43.5864 80.3629 43.6712 80.3629 43.7757V45.6394C80.3629 45.7439 80.2782 45.8287 80.1737 45.8287Z" fill="#389F5D"/>
<path d="M80.1737 42.1012C80.0691 42.1012 79.9844 42.0164 79.9844 41.9119V41.0279C79.9844 40.9234 80.0691 40.8386 80.1737 40.8386H81.0571C81.1617 40.8386 81.2464 40.9234 81.2464 41.0279C81.2464 41.1324 81.1617 41.2172 81.0571 41.2172H80.3629V41.9119C80.3629 42.0164 80.2782 42.1012 80.1737 42.1012Z" fill="#389F5D"/>
<path d="M108.867 41.2172H107.129C107.025 41.2172 106.94 41.1324 106.94 41.0279C106.94 40.9234 107.025 40.8386 107.129 40.8386H108.867C108.972 40.8386 109.056 40.9234 109.056 41.0279C109.056 41.1324 108.972 41.2172 108.867 41.2172ZM105.391 41.2172H103.653C103.548 41.2172 103.464 41.1324 103.464 41.0279C103.464 40.9234 103.548 40.8386 103.653 40.8386H105.391C105.495 40.8386 105.58 40.9234 105.58 41.0279C105.58 41.1324 105.495 41.2172 105.391 41.2172ZM101.915 41.2172H100.177C100.072 41.2172 99.9875 41.1324 99.9875 41.0279C99.9875 40.9234 100.072 40.8386 100.177 40.8386H101.915C102.019 40.8386 102.104 40.9234 102.104 41.0279C102.104 41.1324 102.019 41.2172 101.915 41.2172ZM98.4384 41.2172H96.7001C96.5956 41.2172 96.5108 41.1324 96.5108 41.0279C96.5108 40.9234 96.5956 40.8386 96.7001 40.8386H98.4384C98.543 40.8386 98.6277 40.9234 98.6277 41.0279C98.6277 41.1324 98.543 41.2172 98.4384 41.2172ZM94.9617 41.2172H93.2234C93.1188 41.2172 93.0341 41.1324 93.0341 41.0279C93.0341 40.9234 93.1188 40.8386 93.2234 40.8386H94.9617C95.0662 40.8386 95.151 40.9234 95.151 41.0279C95.151 41.1324 95.0662 41.2172 94.9617 41.2172ZM91.4855 41.2172H89.7477C89.6432 41.2172 89.5584 41.1324 89.5584 41.0279C89.5584 40.9234 89.6432 40.8386 89.7477 40.8386H91.4855C91.59 40.8386 91.6748 40.9234 91.6748 41.0279C91.6748 41.1324 91.59 41.2172 91.4855 41.2172ZM88.0093 41.2172H86.2715C86.1669 41.2172 86.0822 41.1324 86.0822 41.0279C86.0822 40.9234 86.1669 40.8386 86.2715 40.8386H88.0093C88.1138 40.8386 88.1986 40.9234 88.1986 41.0279C88.1986 41.1324 88.1138 41.2172 88.0093 41.2172ZM84.5326 41.2172H82.7947C82.6902 41.2172 82.6055 41.1324 82.6055 41.0279C82.6055 40.9234 82.6902 40.8386 82.7947 40.8386H84.5326C84.6371 40.8386 84.7219 40.9234 84.7219 41.0279C84.7219 41.1324 84.6371 41.2172 84.5326 41.2172Z" fill="#389F5D"/>
<path d="M111.487 42.1014C111.382 42.1014 111.298 42.0166 111.298 41.9121V41.2179H110.603C110.499 41.2179 110.414 41.1332 110.414 41.0286C110.414 40.9241 110.499 40.8394 110.603 40.8394H111.487C111.591 40.8394 111.676 40.9241 111.676 41.0286V41.9121C111.676 42.0166 111.591 42.1014 111.487 42.1014Z" fill="#389F5D"/>
<path d="M111.486 64.4655C111.382 64.4655 111.297 64.3807 111.297 64.2762V62.4125C111.297 62.308 111.382 62.2232 111.486 62.2232C111.591 62.2232 111.675 62.308 111.675 62.4125V64.2762C111.675 64.3807 111.591 64.4655 111.486 64.4655ZM111.486 60.7381C111.382 60.7381 111.297 60.6533 111.297 60.5488V58.6851C111.297 58.5806 111.382 58.4959 111.486 58.4959C111.591 58.4959 111.675 58.5806 111.675 58.6851V60.5488C111.675 60.6533 111.591 60.7381 111.486 60.7381ZM111.486 57.0107C111.382 57.0107 111.297 56.926 111.297 56.8215V54.9578C111.297 54.8533 111.382 54.7685 111.486 54.7685C111.591 54.7685 111.675 54.8533 111.675 54.9578V56.8215C111.675 56.926 111.591 57.0107 111.486 57.0107ZM111.486 53.2834C111.382 53.2834 111.297 53.1986 111.297 53.0941V51.2304C111.297 51.1259 111.382 51.0411 111.486 51.0411C111.591 51.0411 111.675 51.1259 111.675 51.2304V53.0941C111.675 53.1986 111.591 53.2834 111.486 53.2834ZM111.486 49.556C111.382 49.556 111.297 49.4713 111.297 49.3667V47.5031C111.297 47.3985 111.382 47.3138 111.486 47.3138C111.591 47.3138 111.675 47.3985 111.675 47.5031V49.3667C111.675 49.4713 111.591 49.556 111.486 49.556ZM111.486 45.8287C111.382 45.8287 111.297 45.7439 111.297 45.6394V43.7757C111.297 43.6712 111.382 43.5864 111.486 43.5864C111.591 43.5864 111.675 43.6712 111.675 43.7757V45.6394C111.675 45.7439 111.591 45.8287 111.486 45.8287Z" fill="#389F5D"/>
<path d="M82.15 39.4104H78.9141V42.6464H82.15V39.4104Z" fill="#E6FCEE"/>
<path d="M82.1518 42.8355H78.9158C78.8113 42.8355 78.7266 42.7507 78.7266 42.6462V39.4102C78.7266 39.3057 78.8113 39.2209 78.9158 39.2209H82.1518C82.2563 39.2209 82.3411 39.3057 82.3411 39.4102V42.6462C82.3411 42.7507 82.2563 42.8355 82.1518 42.8355ZM79.1051 42.4569H81.9625V39.5995H79.1051V42.4569Z" fill="#389F5D"/>
<path d="M113.107 39.4104H109.871V42.6464H113.107V39.4104Z" fill="#E6FCEE"/>
<path d="M113.105 42.8355H109.869C109.764 42.8355 109.68 42.7507 109.68 42.6462V39.4102C109.68 39.3057 109.764 39.2209 109.869 39.2209H113.105C113.209 39.2209 113.294 39.3057 113.294 39.4102V42.6462C113.294 42.7507 113.209 42.8355 113.105 42.8355ZM110.058 42.4569H112.916V39.5995H110.058V42.4569Z" fill="#389F5D"/>
<path d="M82.15 64.9622H78.9141V68.1981H82.15V64.9622Z" fill="#E6FCEE"/>
<path d="M82.1518 68.3872H78.9158C78.8113 68.3872 78.7266 68.3025 78.7266 68.1979V64.962C78.7266 64.8575 78.8113 64.7727 78.9158 64.7727H82.1518C82.2563 64.7727 82.3411 64.8575 82.3411 64.962V68.1979C82.3411 68.3025 82.2563 68.3872 82.1518 68.3872ZM79.1051 68.0087H81.9625V65.1513H79.1051V68.0087Z" fill="#389F5D"/>
<path d="M113.107 64.9622H109.871V68.1981H113.107V64.9622Z" fill="#E6FCEE"/>
<path d="M113.105 68.3872H109.869C109.764 68.3872 109.68 68.3025 109.68 68.1979V64.962C109.68 64.8575 109.764 64.7727 109.869 64.7727H113.105C113.209 64.7727 113.294 64.8575 113.294 64.962V68.1979C113.294 68.3025 113.209 68.3872 113.105 68.3872ZM110.058 68.0087H112.916V65.1513H110.058V68.0087Z" fill="#389F5D"/>
<path d="M101.528 48.8134H101.045C100.363 48.8134 99.76 48.8004 99.2374 48.7739L98.434 48.7541H97.3093C97.1756 48.7541 97.0514 48.7609 96.938 48.7739L96.235 48.7936C96.1949 49.2476 96.1247 49.843 96.0244 50.5798C95.9172 51.3167 95.8236 52.1949 95.743 53.2147C95.5688 55.2936 95.405 56.7772 95.2511 57.6653L95.1508 58.7116C95.0436 60.6132 94.5481 61.5638 93.6646 61.5638C93.4301 61.5638 93.221 61.4847 93.037 61.3272C92.8529 61.1691 92.7608 60.9751 92.7608 60.7448C92.7608 60.633 92.8076 60.426 92.9012 60.1229C92.9948 59.8135 93.0921 59.1889 93.1924 58.2477C93.273 57.4974 93.3297 57.0075 93.3635 56.7772C93.5039 55.9545 93.6381 54.6322 93.765 52.8101C93.8388 51.8892 93.9158 51.1061 93.9958 50.4613L94.1768 48.9117L92.7406 48.9512C91.5825 48.9975 90.6902 48.9449 90.0641 48.7936C89.438 48.6423 89.125 48.3792 89.125 48.0037C89.125 47.6418 89.2389 47.3392 89.4666 47.0958C89.6944 46.8525 89.969 46.7303 90.2903 46.7303C90.4042 46.7303 90.595 46.7401 90.8628 46.7599C92.0141 46.8649 92.7842 46.9175 93.1727 46.9175C93.8892 46.9175 94.8096 46.8779 95.9344 46.7989C96.5974 46.7526 97.173 46.7297 97.6618 46.7297C98.1168 46.7297 98.7195 46.7433 99.4694 46.7693L100.805 46.789C101.093 46.7958 101.394 46.7958 101.709 46.789C102.024 46.7823 102.263 46.8452 102.427 46.9762C102.591 47.1078 102.673 47.2955 102.673 47.5389C102.673 47.868 102.568 48.1623 102.357 48.4223C102.145 48.6839 101.869 48.8134 101.528 48.8134Z" fill="#389F5D"/>
<path d="M74.2783 39.8486H68.6836V45.4433H74.2783V39.8486Z" fill="#389F5D"/>
<path d="M74.2762 45.6332H68.6815C68.5769 45.6332 68.4922 45.5484 68.4922 45.4439V39.8487C68.4922 39.7442 68.5769 39.6594 68.6815 39.6594H74.2762C74.3807 39.6594 74.4654 39.7442 74.4654 39.8487V45.4434C74.4654 45.5484 74.3807 45.6332 74.2762 45.6332ZM68.8707 45.2546H74.0869V40.038H68.8707V45.2546Z" fill="#389F5D"/>
<path d="M74.2783 45.4438H68.6836V51.0385H74.2783V45.4438Z" fill="#5CFF97"/>
<path d="M74.2762 51.2279H68.6815C68.5769 51.2279 68.4922 51.1431 68.4922 51.0386V45.4439C68.4922 45.3394 68.5769 45.2546 68.6815 45.2546H74.2762C74.3807 45.2546 74.4654 45.3394 74.4654 45.4439V51.0386C74.4654 51.1431 74.3807 51.2279 74.2762 51.2279ZM68.8707 50.8493H74.0869V45.6332H68.8707V50.8493Z" fill="#389F5D"/>
<path d="M74.2783 51.0386H68.6836V56.6333H74.2783V51.0386Z" fill="#5EE890"/>
<path d="M74.2762 56.8224H68.6815C68.5769 56.8224 68.4922 56.7376 68.4922 56.6331V51.0384C68.4922 50.9339 68.5769 50.8491 68.6815 50.8491H74.2762C74.3807 50.8491 74.4654 50.9339 74.4654 51.0384V56.6331C74.4654 56.7376 74.3807 56.8224 74.2762 56.8224ZM68.8707 56.4438H74.0869V51.2277H68.8707V56.4438Z" fill="#389F5D"/>
<path d="M112.666 88.0693C112.681 89.4276 111.593 90.5482 110.235 90.5638L93.9807 90.7281C92.6198 90.7484 91.5039 89.66 91.4842 88.2997L91.3401 75.7817C91.3198 74.4235 92.4082 73.305 93.7664 73.2873L110.021 73.123C111.384 73.1079 112.499 74.1957 112.518 75.554L112.666 88.0693Z" fill="#389F5D"/>
<path d="M110.267 85.9741L94.4844 86.1816C94.4844 86.1816 95.6871 79.6104 98.0511 79.5792C99.5544 79.5594 101.512 83.2634 103.009 83.3409C103.922 83.3882 104.557 80.7024 105.473 80.6904C107.346 80.6655 110.267 85.9741 110.267 85.9741Z" fill="white"/>
<path d="M104.263 79.6237C104.769 79.1133 104.78 78.3034 104.287 77.8149C103.795 77.3264 102.985 77.3441 102.479 77.8546C101.973 78.365 101.962 79.1748 102.455 79.6634C102.947 80.1519 103.757 80.1342 104.263 79.6237Z" fill="white"/>
<path d="M86.8446 88.4161C86.8446 89.0323 86.5945 89.5923 86.191 89.9964C85.787 90.4004 85.2264 90.65 84.6107 90.65H73.2227C71.9882 90.65 70.9883 89.6506 70.9883 88.4156C70.9883 87.7994 71.2384 87.2393 71.6419 86.8353C72.046 86.4312 72.6039 86.1816 73.2222 86.1816H84.6102C85.8447 86.1822 86.8446 87.1821 86.8446 88.4161Z" fill="#5EE890"/>
<path d="M84.6081 90.8398H73.2201C71.8837 90.8398 70.7969 89.7525 70.7969 88.4161C70.7969 87.7682 71.0491 87.1593 71.5062 86.7022C71.9632 86.2446 72.5722 85.9929 73.2201 85.9929H84.6081C85.9445 85.9929 87.0313 87.0802 87.0313 88.4161C87.0313 89.0646 86.7791 89.673 86.322 90.1306C85.8649 90.5882 85.2565 90.8398 84.6081 90.8398ZM73.2201 86.3715C72.673 86.3715 72.1593 86.5842 71.7734 86.97C71.3876 87.3558 71.1749 87.8696 71.1749 88.4166C71.1749 89.544 72.0922 90.4613 73.2196 90.4613H84.6076C85.1546 90.4613 85.6684 90.2486 86.0542 89.8628C86.44 89.4769 86.6527 88.9632 86.6527 88.4161C86.6527 87.2888 85.7354 86.3715 84.6081 86.3715H73.2201Z" fill="#389F5D"/>
<path d="M85.1845 76.3786H71.4783C71.3738 76.3786 71.2891 76.2938 71.2891 76.1893C71.2891 76.0848 71.3738 76 71.4783 76H85.1845C85.289 76 85.3738 76.0848 85.3738 76.1893C85.3743 76.2938 85.289 76.3786 85.1845 76.3786Z" fill="#389F5D"/>
<path d="M81.901 78.8205H71.4822C71.3777 78.8205 71.293 78.7357 71.293 78.6312C71.293 78.5267 71.3777 78.4419 71.4822 78.4419H81.901C82.0055 78.4419 82.0902 78.5267 82.0902 78.6312C82.0902 78.7357 82.0055 78.8205 81.901 78.8205Z" fill="#389F5D"/>
<path d="M81.901 81.2631H71.4822C71.3777 81.2631 71.293 81.1783 71.293 81.0738C71.293 80.9693 71.3777 80.8845 71.4822 80.8845H81.901C82.0055 80.8845 82.0902 80.9693 82.0902 81.0738C82.0902 81.1783 82.0055 81.2631 81.901 81.2631Z" fill="#389F5D"/>
<path d="M81.901 83.705H71.4822C71.3777 83.705 71.293 83.6202 71.293 83.5157C71.293 83.4112 71.3777 83.3264 71.4822 83.3264H81.901C82.0055 83.3264 82.0902 83.4112 82.0902 83.5157C82.0902 83.6202 82.0055 83.705 81.901 83.705Z" fill="#389F5D"/>
<path d="M37.1828 41.0061L35.9936 41.7544C35.4356 42.1023 34.7019 41.9353 34.353 41.3815L33.6042 40.1923C33.2553 39.638 33.4222 38.9043 33.9765 38.5553L35.1668 37.8029C35.7211 37.454 36.4543 37.6209 36.8074 38.1757L37.5552 39.3686C37.9036 39.924 37.7372 40.6572 37.1828 41.0061Z" fill="#5EE890"/>
<path d="M57.0912 27.7629L56.2347 28.3021C55.8328 28.5528 55.3044 28.4326 55.0533 28.0333L54.514 27.1768C54.2629 26.7775 54.383 26.2492 54.7824 25.998L55.6393 25.4562C56.0387 25.205 56.567 25.3251 56.8208 25.725L57.3595 26.5846C57.6106 26.9834 57.4905 27.5117 57.0912 27.7629Z" fill="#5EE890"/>
<path d="M42.1896 29.0815L41.5614 29.4767C41.2665 29.6608 40.8792 29.5724 40.6946 29.2796L40.2994 28.6515C40.1153 28.3587 40.2031 27.9713 40.4959 27.7867L41.1246 27.3894C41.4174 27.2053 41.8048 27.2932 41.9914 27.5865L42.3866 28.2167C42.5707 28.5095 42.4823 28.8969 42.1896 29.0815Z" fill="#5EE890"/>
<path d="M23.7091 70.8759L23.0809 71.2711C22.7861 71.4552 22.3987 71.3668 22.2141 71.0741L21.8189 70.4459C21.6348 70.1531 21.7227 69.7657 22.0154 69.5811L22.6441 69.1838C22.9369 68.9998 23.3243 69.0877 23.511 69.3809L23.9062 70.0112C24.0902 70.3039 24.0018 70.6913 23.7091 70.8759Z" fill="#5EE890"/>
</g>
<defs>
<clipPath id="clip0_6027_3181">
<rect width="130" height="130" fill="white"/>
</clipPath>
</defs>
</svg>
