<svg width="130" height="130" viewBox="0 0 130 130" fill="none" xmlns="http://www.w3.org/2000/svg">
<path fill-rule="evenodd" clip-rule="evenodd" d="M21.497 66.1624C18.3285 66.97 15.6635 72.7009 14.4152 75.2105C8.23073 87.6458 12.1632 101.724 26.7073 104.496C59.8657 110.815 49.9597 76.7941 91.5705 87.4061C114.265 93.194 121.402 73.4621 117.319 63.5712C111.077 48.4483 96.5579 57.7367 89.9032 50.309C86.7993 46.8448 90.3946 47.4666 92.0213 44.5327C95.6559 37.9766 90.4208 30.6802 85.3709 27.3857C76.5763 21.6482 63.7606 25.1745 56.6753 37.7713C54.2696 42.0484 51.2462 51.7085 38.1957 47.4162C27.0102 43.7375 18.4721 53.8814 21.497 66.1624Z" fill="#BEEDCF"/>
<path fill-rule="evenodd" clip-rule="evenodd" d="M70.1651 35.1239C70.2082 35.2856 70.1356 35.4615 69.9814 35.5426C69.8025 35.6366 69.5811 35.5676 69.4868 35.3887C69.4206 35.2624 69.4007 35.0954 69.4654 34.8981C69.5397 34.6721 69.7574 34.3594 70.0389 34.0422C70.1729 33.8907 70.4045 33.8769 70.5557 34.0109C70.7071 34.1452 70.721 34.3768 70.5869 34.528C70.4614 34.6693 70.3493 34.8074 70.2659 34.9331C70.2238 34.9961 70.1817 35.0863 70.1651 35.1239ZM71.6263 33.5022C71.4763 33.6378 71.2445 33.6262 71.109 33.4763C70.9737 33.3263 70.9853 33.0945 71.1352 32.959C71.2604 32.8458 71.3539 32.7637 71.3929 32.7279C71.5824 32.5561 71.7767 32.3883 71.9757 32.2248C72.132 32.0965 72.363 32.1192 72.4913 32.2757C72.6195 32.4319 72.5968 32.6627 72.4406 32.7909C72.2511 32.9466 72.0659 33.1064 71.8855 33.2702C71.8462 33.3059 71.7522 33.3886 71.6263 33.5022ZM73.617 31.9161C73.4495 32.029 73.2217 31.9844 73.1088 31.8168C72.9959 31.649 73.0405 31.4212 73.2081 31.3086C73.518 31.1 73.8357 30.9014 74.16 30.713C74.3349 30.6114 74.5591 30.6711 74.6607 30.8457C74.7622 31.0206 74.7028 31.2449 74.5279 31.3464C74.2175 31.5266 73.9136 31.7168 73.617 31.9161ZM75.8293 30.6656C75.6464 30.7515 75.4282 30.6724 75.3425 30.4895C75.2566 30.3063 75.3357 30.0881 75.5186 30.0024C75.8575 29.8437 76.2014 29.6958 76.5492 29.5592C76.7374 29.4851 76.95 29.5779 77.0241 29.7661C77.0979 29.9543 77.0052 30.167 76.817 30.2408C76.4836 30.3718 76.1541 30.5137 75.8293 30.6656ZM78.2063 29.7643C78.0126 29.8215 77.8087 29.7104 77.7518 29.5164C77.6946 29.3226 77.8057 29.1188 77.9997 29.0618C78.36 28.9558 78.7229 28.862 79.0867 28.7806C79.284 28.7368 79.48 28.861 79.5241 29.0583C79.568 29.2556 79.4435 29.4516 79.2462 29.4957C78.8982 29.5733 78.551 29.663 78.2063 29.7643ZM80.6905 29.2445C80.4899 29.2695 80.307 29.1268 80.282 28.9263C80.2568 28.7257 80.3994 28.5425 80.6 28.5176C80.9739 28.471 81.3473 28.4382 81.72 28.4183C81.9218 28.4075 82.0944 28.5627 82.1052 28.7645C82.1161 28.9663 81.9609 29.1389 81.759 29.1498C81.4035 29.1687 81.0472 29.2002 80.6905 29.2445ZM83.225 29.142C83.0232 29.1334 82.8659 28.9626 82.8745 28.7605C82.8831 28.5587 83.0539 28.4014 83.2557 28.41C83.6309 28.4259 84.0043 28.4546 84.376 28.4957C84.5768 28.5178 84.7219 28.699 84.6997 28.8998C84.6776 29.1006 84.4964 29.2458 84.2956 29.2236C83.9403 29.1843 83.5833 29.1568 83.225 29.142ZM85.7456 29.4511C85.5476 29.4108 85.4193 29.2173 85.4597 29.0193C85.5 28.8212 85.6935 28.693 85.8915 28.7333C86.2581 28.8079 86.6222 28.8943 86.9833 28.992C87.1783 29.045 87.294 29.2463 87.2411 29.4413C87.1881 29.6363 86.9868 29.752 86.7918 29.6991C86.4459 29.6053 86.0969 29.5224 85.7456 29.4511ZM88.1932 30.1433C88.0032 30.0742 87.9052 29.8638 87.9743 29.6739C88.0433 29.4839 88.2537 29.3859 88.4437 29.4549C88.7944 29.5826 89.1416 29.721 89.4845 29.8694C89.67 29.9498 89.7554 30.1654 89.675 30.3509C89.5947 30.5366 89.379 30.622 89.1935 30.5416C88.864 30.3988 88.5304 30.266 88.1932 30.1433ZM90.5201 31.1796C90.3417 31.0851 90.2735 30.8631 90.3682 30.6845C90.4629 30.5061 90.6849 30.4378 90.8633 30.5326C91.1926 30.7072 91.5174 30.8914 91.8369 31.0846C92.01 31.1892 92.0654 31.4144 91.9609 31.5875C91.8563 31.7604 91.631 31.8161 91.4579 31.7115C91.1503 31.5253 90.8374 31.3479 90.5201 31.1796ZM92.6895 32.5208C92.525 32.4034 92.4865 32.1746 92.6036 32.0101C92.7208 31.8453 92.9498 31.8067 93.1144 31.9242C93.418 32.1401 93.7158 32.3646 94.0076 32.5969C94.1656 32.7229 94.1918 32.9534 94.0658 33.1117C93.9398 33.2697 93.7092 33.2959 93.5513 33.1699C93.2698 32.9459 92.9823 32.7292 92.6895 32.5208ZM94.6702 34.1301C94.5218 33.993 94.5125 33.761 94.6496 33.6126C94.7867 33.4639 95.0187 33.4549 95.1671 33.5919C95.441 33.8446 95.7083 34.1049 95.9681 34.3718C96.1092 34.5166 96.1062 34.7487 95.9613 34.8898C95.8164 35.0306 95.5844 35.0276 95.4435 34.8827C95.1926 34.6252 94.9346 34.374 94.6702 34.1301ZM96.433 35.976C96.303 35.8213 96.3229 35.59 96.4776 35.46C96.6323 35.3297 96.8636 35.3496 96.9936 35.5043C97.2337 35.7901 97.466 36.0818 97.69 36.3794C97.8117 36.5409 97.7792 36.7707 97.6177 36.8922C97.4565 37.0139 97.2267 36.9814 97.105 36.8198C96.8888 36.5329 96.6648 36.2514 96.433 35.976ZM97.9468 38.0295C97.8377 37.8595 97.8871 37.6327 98.0574 37.5236C98.2275 37.4145 98.4543 37.4641 98.5634 37.6342C98.7649 37.9487 98.9577 38.2684 99.1409 38.5929C99.2401 38.7688 99.1779 38.9925 99.0018 39.0918C98.8259 39.1911 98.6022 39.1289 98.5029 38.953C98.3265 38.6405 98.1411 38.3324 97.9468 38.0295ZM99.187 40.2655C99.098 40.0841 99.1729 39.8643 99.3545 39.7754C99.5359 39.6865 99.7554 39.7613 99.8446 39.9427C100.006 40.2723 100.164 40.6069 100.319 40.946C100.402 41.13 100.321 41.3472 100.137 41.4308C99.9527 41.5145 99.7355 41.4331 99.6518 41.2491C99.5007 40.9165 99.3457 40.5887 99.187 40.2655ZM100.24 42.6148C100.164 42.4276 100.254 42.2137 100.441 42.1373C100.628 42.061 100.842 42.1509 100.918 42.3379C101.058 42.6785 101.192 43.0227 101.323 43.3704C101.394 43.5597 101.298 43.7711 101.109 43.8421C100.92 43.9132 100.708 43.8172 100.637 43.6279C100.509 43.2868 100.377 42.9489 100.24 42.6148ZM101.133 45.0301C101.07 44.8384 101.174 44.631 101.365 44.5673C101.557 44.5035 101.765 44.6073 101.829 44.7991C101.945 45.1488 102.057 45.5013 102.163 45.8563C102.222 46.0498 102.112 46.2544 101.919 46.3126C101.725 46.3711 101.521 46.2612 101.462 46.0677C101.357 45.7195 101.248 45.3736 101.133 45.0301ZM101.864 47.4996C101.813 47.3041 101.931 47.1041 102.126 47.0532C102.322 47.0025 102.522 47.1199 102.573 47.3157C102.666 47.673 102.753 48.0323 102.836 48.3934C102.881 48.5904 102.758 48.7869 102.561 48.832C102.364 48.8771 102.167 48.7537 102.122 48.5566C102.041 48.2026 101.955 47.8504 101.864 47.4996ZM102.424 50.0122C102.387 49.8134 102.518 49.6222 102.717 49.5849C102.916 49.5479 103.107 49.6791 103.144 49.8779C103.212 50.2415 103.275 50.6064 103.331 50.972C103.362 51.1718 103.225 51.359 103.025 51.39C102.826 51.421 102.638 51.2839 102.607 51.0841C102.552 50.7258 102.491 50.3685 102.424 50.0122ZM102.803 52.5566C102.781 52.3558 102.926 52.1746 103.127 52.1524C103.328 52.1303 103.509 52.2751 103.531 52.4762C103.572 52.8446 103.606 53.2135 103.635 53.5821C103.65 53.7837 103.499 53.9598 103.298 53.9754C103.096 53.9908 102.92 53.8398 102.904 53.6383C102.876 53.2777 102.843 52.9169 102.803 52.5566ZM102.983 55.1201C102.977 54.918 103.136 54.7492 103.338 54.7434C103.54 54.7376 103.709 54.8968 103.715 55.0989C103.726 55.4703 103.73 55.8412 103.726 56.2111C103.725 56.4132 103.559 56.5759 103.357 56.5742C103.155 56.5727 102.992 56.4071 102.994 56.205C102.997 55.844 102.993 55.4824 102.983 55.1201ZM102.943 57.6858C102.955 57.4843 103.129 57.3306 103.331 57.3429C103.533 57.3555 103.686 57.5294 103.674 57.7312C103.651 58.1026 103.62 58.4727 103.582 58.8411C103.561 59.0422 103.381 59.1886 103.18 59.1676C102.979 59.147 102.833 58.9668 102.854 58.7658C102.891 58.4072 102.92 58.0474 102.943 57.6858ZM102.658 60.232C102.69 60.0324 102.879 59.8973 103.078 59.9301C103.278 59.9631 103.413 60.1516 103.38 60.3511C103.319 60.719 103.25 61.0846 103.173 61.4474C103.131 61.645 102.936 61.7712 102.738 61.7291C102.541 61.6868 102.415 61.4923 102.457 61.2945C102.532 60.9427 102.599 60.5885 102.658 60.232ZM102.1 62.7272C102.156 62.5329 102.359 62.42 102.553 62.4757C102.747 62.5311 102.86 62.734 102.804 62.9285C102.702 63.2873 102.591 63.6428 102.47 63.9948C102.404 64.186 102.195 64.2878 102.004 64.2223C101.813 64.1566 101.711 63.9479 101.777 63.7569C101.894 63.417 102.001 63.0736 102.1 62.7272ZM101.246 65.1317C101.326 64.946 101.542 64.86 101.728 64.9399C101.913 65.0198 101.999 65.2355 101.919 65.4212C101.772 65.7638 101.614 66.1025 101.447 66.4366C101.356 66.6173 101.136 66.6903 100.956 66.5999C100.775 66.5094 100.702 66.2892 100.792 66.1085C100.953 65.787 101.104 65.4612 101.246 65.1317ZM100.08 67.3958C100.185 67.2232 100.411 67.1683 100.583 67.2731C100.756 67.3782 100.811 67.6037 100.706 67.7763C100.513 68.0948 100.309 68.408 100.095 68.7159C99.9792 68.8819 99.7506 68.9227 99.5848 68.8073C99.4188 68.6919 99.3777 68.4637 99.4934 68.2976C99.699 68.0021 99.8945 67.7015 100.08 67.3958ZM98.6032 69.4675C98.7324 69.312 98.9635 69.2906 99.1189 69.4196C99.2744 69.5489 99.2958 69.7799 99.1668 69.9354C98.9295 70.2211 98.6818 70.5013 98.4238 70.7752C98.2852 70.9223 98.0534 70.9294 97.906 70.7908C97.7588 70.6522 97.752 70.4204 97.8906 70.2733C98.138 70.0102 98.3756 69.7416 98.6032 69.4675ZM96.8366 71.3033C96.9861 71.167 97.2179 71.1773 97.3542 71.3267C97.4905 71.4759 97.4799 71.7077 97.3307 71.844C97.0589 72.0922 96.7825 72.3381 96.5013 72.5805C96.3483 72.7125 96.1168 72.6954 95.9847 72.5422C95.853 72.389 95.8701 72.1577 96.023 72.0257C96.2989 71.7881 96.5701 71.5467 96.8366 71.3033ZM94.8774 72.9698C95.0364 72.8451 95.2666 72.8728 95.3916 73.0318C95.5163 73.1905 95.4886 73.4211 95.3296 73.5458C95.0381 73.7748 94.7421 73.9988 94.4417 74.2165C94.2782 74.3352 94.0489 74.2987 93.9302 74.1349C93.8115 73.9711 93.8483 73.7421 94.0119 73.6234C94.3046 73.4112 94.5931 73.193 94.8774 72.9698ZM92.7891 74.4556C92.9597 74.3473 93.1862 74.3977 93.2948 74.5683C93.4031 74.7388 93.3527 74.9654 93.1821 75.0737C92.8672 75.274 92.5482 75.4663 92.2249 75.6494C92.049 75.7492 91.8253 75.6872 91.7255 75.5114C91.626 75.3355 91.688 75.1118 91.8639 75.0122C92.1763 74.8351 92.4847 74.6494 92.7891 74.4556ZM90.5569 75.6847C90.7406 75.6006 90.958 75.6812 91.0424 75.8649C91.1266 76.0488 91.046 76.2663 90.8623 76.3507C90.53 76.5029 90.1873 76.648 89.8391 76.7906C89.6521 76.8672 89.4379 76.7775 89.3613 76.5905C89.2847 76.4033 89.3744 76.1894 89.5616 76.1128C89.9003 75.974 90.2336 75.8331 90.5569 75.6847ZM88.169 76.6749C88.356 76.5981 88.5702 76.6878 88.6468 76.8748C88.7234 77.062 88.6339 77.2759 88.4467 77.3525C88.1118 77.4898 87.778 77.6309 87.4504 77.7803C87.2665 77.8642 87.0491 77.7831 86.9651 77.5992C86.8815 77.4152 86.9626 77.1978 87.1466 77.1141C87.4827 76.9607 87.8251 76.8158 88.169 76.6749ZM85.7774 77.8229C85.951 77.7191 86.176 77.7755 86.2798 77.9489C86.3836 78.1222 86.3272 78.3475 86.1538 78.4513C85.851 78.6327 85.5607 78.829 85.2886 79.0454C85.1301 79.1712 84.8995 79.1447 84.7738 78.9865C84.6481 78.8282 84.6745 78.5977 84.8328 78.472C85.1301 78.2356 85.4468 78.0209 85.7774 77.8229Z" fill="#0C371B"/>
<path fill-rule="evenodd" clip-rule="evenodd" d="M48.8595 58.4724C48.8237 58.6712 48.6333 58.8037 48.4345 58.768C48.2354 58.7322 48.1029 58.5417 48.1386 58.3429C48.2042 57.9783 48.2949 57.6077 48.409 57.2337C48.468 57.0405 48.6731 56.9314 48.8663 56.9906C49.0596 57.0496 49.1687 57.2544 49.1097 57.4477C49.0041 57.7931 48.92 58.1355 48.8595 58.4724ZM49.6255 56.0886C49.5423 56.2728 49.3254 56.3549 49.1412 56.2717C48.957 56.1886 48.8749 55.9714 48.958 55.7872C49.1097 55.4508 49.2783 55.1142 49.4615 54.7794C49.5587 54.602 49.7815 54.537 49.9586 54.634C50.136 54.7312 50.201 54.954 50.104 55.1311C49.9299 55.4493 49.7699 55.7688 49.6255 56.0886ZM50.8684 53.8788C50.7556 54.0464 50.5278 54.0907 50.3602 53.9779C50.1927 53.8647 50.1483 53.6369 50.2612 53.4694C50.4686 53.162 50.6873 52.8584 50.9163 52.5598C51.0395 52.3995 51.2696 52.3693 51.4301 52.4923C51.5903 52.6155 51.6206 52.8455 51.4973 53.0058C51.2774 53.2923 51.0675 53.5838 50.8684 53.8788ZM52.4402 51.876C52.3046 52.0259 52.0728 52.0375 51.9229 51.9017C51.773 51.7661 51.7614 51.5343 51.897 51.3844C52.1477 51.1075 52.4067 50.8376 52.6728 50.5763C52.8171 50.4347 53.0492 50.437 53.1908 50.5811C53.3324 50.7255 53.3301 50.9575 53.186 51.0992C52.93 51.3504 52.6811 51.6096 52.4402 51.876ZM54.277 50.114C54.1216 50.2427 53.8905 50.2211 53.7615 50.0653C53.6325 49.9096 53.6542 49.6786 53.8099 49.5498C54.1006 49.3089 54.3972 49.0794 54.6981 48.8625C54.8621 48.7443 55.0911 48.7813 55.2093 48.9454C55.3275 49.1094 55.2904 49.3384 55.1264 49.4566C54.8387 49.664 54.5552 49.8837 54.277 50.114ZM56.3547 48.6624C56.1794 48.7629 55.9554 48.7022 55.8548 48.5268C55.7545 48.3515 55.8153 48.1275 55.9906 48.0269C56.3232 47.8365 56.6589 47.6629 56.9957 47.5081C57.1794 47.4237 57.3971 47.5044 57.4815 47.688C57.5659 47.8717 57.485 48.0894 57.3014 48.1736C56.9841 48.3195 56.6679 48.483 56.3547 48.6624ZM58.6547 47.6669C58.4604 47.7226 58.2573 47.6102 58.2016 47.4159C58.1457 47.2217 58.2581 47.0186 58.4523 46.9629C58.828 46.8548 59.2029 46.7732 59.5748 46.7202C59.7749 46.6918 59.9606 46.8309 59.9891 47.0309C60.0175 47.2312 59.8782 47.4167 59.6781 47.4454C59.339 47.4938 58.9973 47.5684 58.6547 47.6669Z" fill="#0C371B"/>
<path fill-rule="evenodd" clip-rule="evenodd" d="M53.4007 61.5407C53.2634 61.6868 53.0333 61.6957 52.8854 61.5594C52.794 61.4752 52.7481 61.3666 52.7718 61.2265C52.7794 61.1812 52.7995 61.0952 52.8897 61.0098C52.963 60.9408 53.444 60.6636 53.9072 60.4167C54.0855 60.3214 54.3075 60.3892 54.4028 60.5674C54.4978 60.7458 54.4302 60.9677 54.2518 61.063C53.926 61.2366 53.4859 61.4913 53.4007 61.5407ZM53.4929 61.3606C53.529 61.2139 53.472 61.1038 53.3818 61.0206C53.4788 61.1101 53.5166 61.2399 53.4929 61.3606ZM55.5686 60.4386C55.3804 60.5122 55.1677 60.4195 55.0942 60.2312C55.0203 60.043 55.1133 59.8304 55.3015 59.7565C55.647 59.6212 55.9982 59.494 56.3542 59.3771C56.5462 59.3141 56.7534 59.4187 56.8166 59.6107C56.8796 59.8026 56.7748 60.01 56.5828 60.073C56.2398 60.1856 55.9015 60.3081 55.5686 60.4386ZM57.9965 59.6752C57.7995 59.721 57.6025 59.5983 57.5569 59.4015C57.511 59.2045 57.6337 59.0074 57.8305 58.9618C58.1969 58.8764 58.566 58.8044 58.9364 58.7477C59.1362 58.7169 59.3231 58.8543 59.3539 59.0541C59.3844 59.2539 59.2471 59.4411 59.0472 59.4716C58.6955 59.5257 58.3448 59.594 57.9965 59.6752ZM60.4965 59.3373C60.2945 59.3431 60.1257 59.1838 60.1199 58.9817C60.1143 58.7797 60.2736 58.6111 60.4756 58.6053C60.6467 58.6003 60.8178 58.5993 60.9886 58.6023C61.1975 58.6061 61.4054 58.6159 61.612 58.6318C61.8136 58.6474 61.9645 58.8235 61.9491 59.0251C61.9335 59.2267 61.7574 59.3776 61.5558 59.3622C61.3636 59.3473 61.1701 59.338 60.9758 59.3347C60.8163 59.3317 60.6565 59.3327 60.4965 59.3373ZM62.9887 59.5761C62.7912 59.5323 62.6665 59.3368 62.7103 59.1392C62.7539 58.9419 62.9494 58.8172 63.147 58.8608C63.5156 58.9424 63.8802 59.0422 64.2402 59.1586C64.4325 59.2209 64.5381 59.4275 64.4758 59.6197C64.4138 59.812 64.2072 59.9175 64.0147 59.8556C63.6769 59.7462 63.3347 59.6525 62.9887 59.5761ZM65.3728 60.386C65.1891 60.3018 65.1083 60.0843 65.1924 59.9004C65.2763 59.7167 65.494 59.6358 65.6777 59.7198C66.0179 59.8755 66.353 60.045 66.6828 60.2275C66.8599 60.3252 66.9242 60.5482 66.8264 60.7251C66.7287 60.902 66.5057 60.9662 66.3288 60.8685C66.0151 60.6954 65.6964 60.5339 65.3728 60.386ZM67.5793 61.6372C67.412 61.5238 67.3681 61.296 67.4815 61.1285C67.5947 60.9612 67.8227 60.9173 67.99 61.0307C68.2982 61.2396 68.601 61.4586 68.8981 61.6861C69.0586 61.809 69.0891 62.0391 68.9661 62.1996C68.8431 62.3601 68.6131 62.3906 68.4526 62.2676C68.1669 62.0487 67.8756 61.838 67.5793 61.6372ZM69.5902 63.2067C69.439 63.0729 69.4249 62.8411 69.559 62.6899C69.693 62.5385 69.9246 62.5244 70.076 62.6584C70.3544 62.9053 70.6271 63.1588 70.8934 63.4178C71.0383 63.5587 71.0415 63.7908 70.9004 63.9356C70.7596 64.0805 70.5275 64.0838 70.3827 63.9429C70.1244 63.6917 69.8603 63.4461 69.5902 63.2067ZM71.4129 65.0055C71.2766 64.8566 71.2867 64.6245 71.4356 64.4882C71.5848 64.3516 71.8166 64.3617 71.9532 64.5109C72.2051 64.786 72.4505 65.0649 72.6886 65.3461C72.8192 65.5003 72.8 65.7316 72.6456 65.8624C72.4914 65.9929 72.26 65.9738 72.1295 65.8193C71.8975 65.5454 71.6586 65.2736 71.4129 65.0055ZM73.0588 66.9751C72.9361 66.8146 72.9668 66.5845 73.1273 66.4618C73.2881 66.3391 73.5181 66.3699 73.6408 66.5306C73.83 66.7786 74.0137 67.0265 74.1911 67.2739C74.309 67.4382 74.2715 67.6672 74.1072 67.7849C73.9432 67.9028 73.7141 67.8653 73.5962 67.701C73.4229 67.4596 73.2435 67.2172 73.0588 66.9751Z" fill="#0C371B"/>
<path fill-rule="evenodd" clip-rule="evenodd" d="M71.8985 81.6888C71.7921 81.5167 71.8456 81.291 72.0174 81.1847C72.1895 81.0783 72.4152 81.1317 72.5216 81.3036C72.609 81.4452 72.6687 81.6185 72.7156 81.8032C72.7662 82.0038 72.7985 82.2212 72.8741 82.3961C72.9539 82.5818 72.8683 82.7975 72.6826 82.8774C72.4969 82.9575 72.2812 82.8716 72.2013 82.6861C72.1245 82.5077 72.0784 82.2948 72.0302 82.0864C71.9967 81.9413 71.9657 81.7979 71.8985 81.6888ZM73.021 84.045C72.8988 83.884 72.9305 83.6539 73.0915 83.532C73.2525 83.4098 73.4823 83.4413 73.6045 83.6025C73.8154 83.8804 74.047 84.1432 74.2947 84.3869C74.4385 84.5287 74.4405 84.7608 74.2987 84.9049C74.1568 85.0488 73.9248 85.0508 73.7809 84.909C73.5083 84.6406 73.253 84.3511 73.021 84.045ZM74.9934 85.8969C74.8266 85.7825 74.7842 85.5542 74.8986 85.3877C75.013 85.2209 75.241 85.1786 75.4078 85.293C75.7011 85.4943 76.003 85.6775 76.3119 85.8437C76.4898 85.9395 76.5565 86.1617 76.4608 86.3399C76.365 86.5178 76.1428 86.5845 75.9647 86.4888C75.6328 86.3101 75.3086 86.1131 74.9934 85.8969ZM77.3795 87.1255C77.1897 87.0555 77.0927 86.8446 77.163 86.6551C77.2331 86.4653 77.4437 86.3683 77.6334 86.4384C77.966 86.5616 78.3047 86.6682 78.6476 86.7594C78.8431 86.8113 78.9595 87.0121 78.9074 87.2074C78.8555 87.4027 78.6547 87.5191 78.4594 87.4672C78.094 87.3702 77.7337 87.2565 77.3795 87.1255ZM79.9717 87.7748C79.7716 87.7458 79.6328 87.5601 79.6618 87.3601C79.6907 87.16 79.8764 87.0212 80.0765 87.0499C80.429 87.1011 80.7843 87.1381 81.1413 87.1623C81.3429 87.1759 81.4956 87.3508 81.482 87.5523C81.4681 87.7542 81.2935 87.9068 81.0917 87.893C80.7162 87.8678 80.3423 87.8287 79.9717 87.7748ZM82.6266 87.9235C82.4246 87.9288 82.2562 87.769 82.251 87.5669C82.2457 87.3649 82.4057 87.1965 82.6077 87.1913C82.9479 87.1824 83.2883 87.1633 83.6277 87.1343C83.6456 87.1328 83.6637 87.1313 83.6819 87.1295C83.8832 87.1119 84.0611 87.261 84.0787 87.4624C84.0963 87.6637 83.9472 87.8416 83.7459 87.8592C83.7272 87.861 83.7086 87.8625 83.6897 87.864C83.3359 87.8942 82.9814 87.9144 82.6266 87.9235ZM85.2617 87.6712C85.0619 87.7032 84.8739 87.5672 84.8419 87.3676C84.8102 87.1681 84.9462 86.9801 85.1458 86.9481C85.5001 86.8914 85.8541 86.8254 86.2073 86.7501C86.4049 86.7077 86.5996 86.8342 86.6417 87.0318C86.684 87.2296 86.5576 87.4241 86.36 87.4664C85.9944 87.5443 85.628 87.6125 85.2617 87.6712ZM87.8413 87.0958C87.647 87.1517 87.444 87.0393 87.388 86.8451C87.3321 86.651 87.4445 86.4477 87.6387 86.392C87.9842 86.2925 88.3273 86.1839 88.668 86.0665C88.859 86.0005 89.0676 86.102 89.1336 86.2933C89.1994 86.4842 89.0979 86.6929 88.9069 86.7589C88.5544 86.8806 88.1989 86.993 87.8413 87.0958ZM90.3322 86.2081C90.1465 86.288 89.9309 86.2018 89.8512 86.0161C89.7714 85.8304 89.8575 85.6147 90.0432 85.5351C90.3736 85.3932 90.7001 85.2423 91.0219 85.0826C91.2028 84.9926 91.4227 85.0664 91.5127 85.2473C91.6026 85.4285 91.5288 85.6485 91.3477 85.7384C91.0138 85.9042 90.6752 86.0609 90.3322 86.2081ZM92.6901 85.0037C92.517 85.1078 92.2918 85.0516 92.1877 84.8785C92.0837 84.7051 92.1398 84.4799 92.3129 84.3758C92.6208 84.1909 92.9229 83.9968 93.218 83.7938C93.3845 83.6794 93.6126 83.7214 93.7272 83.888C93.8419 84.0545 93.7995 84.2826 93.633 84.3972C93.3256 84.6089 93.0111 84.8109 92.6901 85.0037ZM94.857 83.473C94.7013 83.602 94.4703 83.5803 94.3413 83.4246C94.2125 83.2689 94.2339 83.0379 94.3896 82.9089C94.6655 82.6803 94.9331 82.443 95.1919 82.1963C95.338 82.0567 95.5701 82.0623 95.7097 82.2086C95.849 82.355 95.8435 82.5871 95.6971 82.7264C95.4262 82.9847 95.1458 83.2336 94.857 83.473ZM96.7561 81.6115C96.6246 81.7649 96.3933 81.7826 96.2398 81.651C96.0864 81.5195 96.0685 81.2882 96.2 81.1348C96.4321 80.8642 96.654 80.5847 96.8649 80.2962C96.9844 80.1332 97.2137 80.0974 97.3769 80.2169C97.54 80.3363 97.5755 80.5656 97.4563 80.7286C97.2341 81.0325 97.0005 81.3268 96.7561 81.6115ZM98.2966 79.437C98.1961 79.6121 97.9721 79.6729 97.7967 79.5721C97.6213 79.4713 97.5609 79.2473 97.6616 79.0722C97.7982 78.8343 97.928 78.5912 98.0502 78.343C98.086 78.2704 98.1207 78.1979 98.155 78.1253C98.2407 77.9421 98.4589 77.863 98.6418 77.9487C98.825 78.0343 98.9041 78.2525 98.8184 78.4357C98.7821 78.5128 98.7451 78.5899 98.7073 78.6668C98.5781 78.9291 98.441 79.1858 98.2966 79.437ZM99.3861 76.998C99.3236 77.1903 99.117 77.2956 98.9248 77.2331C98.7325 77.1706 98.6272 76.9637 98.6894 76.7715C98.8003 76.4311 98.894 76.0887 98.9721 75.745C99.0167 75.5477 99.213 75.424 99.41 75.4686C99.6073 75.5134 99.731 75.7097 99.6864 75.9067C99.6035 76.2721 99.5038 76.6359 99.3861 76.998ZM99.9344 74.3811C99.9142 74.5824 99.7346 74.7293 99.5333 74.7092C99.3322 74.6887 99.1853 74.5091 99.2054 74.308C99.241 73.9533 99.2609 73.5982 99.2654 73.2432C99.2682 73.0411 99.4345 72.8791 99.6366 72.8819C99.8386 72.8844 100.001 73.0507 99.9979 73.2528C99.9931 73.629 99.9719 74.0054 99.9344 74.3811ZM99.9304 71.7123C99.9505 71.9136 99.8036 72.093 99.6023 72.1132C99.4012 72.1333 99.2216 71.9862 99.2017 71.7851C99.1661 71.4306 99.1168 71.0771 99.0538 70.7253C99.018 70.5265 99.1508 70.336 99.3496 70.3003C99.5486 70.2647 99.7391 70.3973 99.7746 70.5963C99.8409 70.9667 99.8931 71.3391 99.9304 71.7123ZM99.4282 69.0986C99.4834 69.2932 99.3702 69.4957 99.1757 69.5509C98.9814 69.6061 98.7786 69.493 98.7234 69.2985C98.6262 68.955 98.5166 68.6141 98.3954 68.2762C98.3271 68.086 98.4264 67.8761 98.6166 67.8078C98.8068 67.7398 99.0167 67.8388 99.085 68.0291C99.2115 68.3826 99.3264 68.7393 99.4282 69.0986ZM98.5045 66.6102C98.5889 66.7939 98.5085 67.0116 98.3248 67.096C98.1414 67.1807 97.9237 67.1001 97.839 66.9166C97.6894 66.5911 97.5291 66.2698 97.3593 65.9531C97.2638 65.7747 97.3311 65.5527 97.5092 65.4572C97.6874 65.3617 97.9096 65.4288 98.0048 65.6069C98.1817 65.9367 98.3485 66.2713 98.5045 66.6102ZM97.229 64.2881C97.3384 64.4582 97.289 64.685 97.1189 64.7943C96.9488 64.9034 96.7221 64.854 96.613 64.684C96.4187 64.3816 96.2159 64.0848 96.005 63.7938C95.8863 63.63 95.9231 63.401 96.0866 63.2823C96.2504 63.1636 96.4797 63.2004 96.5981 63.3639C96.8171 63.666 97.0275 63.9744 97.229 64.2881Z" fill="#0C371B"/>
<path fill-rule="evenodd" clip-rule="evenodd" d="M57.6562 40.7909C57.7414 40.8837 58.3139 40.9379 58.4625 40.9867C58.9314 41.1406 59.4839 41.5337 59.6951 41.9941C59.9195 42.4823 59.3082 43.7799 59.9342 43.9803C60.9594 44.3092 63.2025 42.3732 63.8107 43.9718C64.227 45.0667 62.7166 46.3055 62.8745 47.4762C63.0362 48.6763 64.8453 48.4317 65.1393 49.4864C65.4209 50.4969 64.3137 51.5546 64.285 52.5721C64.2355 54.2759 66.2357 54.9019 66.6566 56.3628C66.8168 56.9175 66.7131 58.1842 67.305 58.5014C67.7229 58.7266 68.2621 58.1718 68.5275 57.9304C69.3323 57.1992 70.2515 55.394 71.4152 55.2439C72.3313 55.1255 72.7538 56.803 73.1074 57.3981C73.3419 57.7927 73.605 58.137 74.0793 57.8569C75.7135 56.8897 76.3967 54.6559 77.9782 53.5517C78.4177 53.2453 79.3934 52.6425 79.9366 53.0844C80.5231 53.561 80.2036 54.8918 80.5378 55.5449C80.8837 56.2204 81.5925 56.5833 81.8548 57.3462C82.3353 58.7459 81.8555 60.2733 82.0776 61.7094C82.2285 62.6882 82.726 63.5548 83.0386 64.4834C83.4696 65.7631 83.6507 67.1111 84.002 68.4117C84.347 69.6877 84.7448 71.2321 85.7305 72.1768C86.0981 72.5289 86.7356 72.9545 87.2749 72.7804C88.1725 72.4902 88.5091 71.2003 88.694 70.4134C89.2047 68.24 89.0322 65.938 89.9382 63.852C91.4262 60.4296 97.6069 60.2857 96.9585 55.8498C96.6792 53.937 95.1154 52.6093 94.5583 50.8265C94.2094 49.71 95.2501 48.0193 94.4214 47.0877C93.3196 45.8497 91.0199 47.2177 90.0427 47.9752C89.8469 48.1269 88.9006 49.2682 88.6654 49.0523C88.27 48.6902 88.5787 47.3771 88.6166 46.9322C88.7404 45.4899 88.7381 43.7552 87.6355 42.6642C86.6273 41.6668 85.2609 41.0849 84.0522 40.3777C82.9504 39.7324 81.9778 38.8843 80.7375 38.5029C79.1629 38.0185 77.4088 37.9179 75.7862 37.6239C74.2302 37.3415 72.7801 36.7782 71.1692 36.9252C68.9887 37.124 67.1271 38.2189 65.0248 38.6205C63.5035 38.9107 61.9785 38.5021 60.4503 38.6484C59.3322 38.7559 58.6498 40.2941 57.6562 40.7909Z" fill="#389F5D"/>
<path fill-rule="evenodd" clip-rule="evenodd" d="M67.119 42.1754C66.8176 41.9278 66.6253 41.5523 66.6253 41.1323C66.6253 40.3874 67.23 39.7827 67.9748 39.7827C68.7197 39.7827 69.3244 40.3874 69.3244 41.1323C69.3244 41.5854 69.1006 41.9866 68.7576 42.2314C68.9217 42.3064 69.0729 42.4106 69.203 42.5405C69.489 42.8266 69.6497 43.2146 69.6497 43.6192V44.5329H66.0859V43.6192C66.0859 43.2146 66.2466 42.8266 66.5327 42.5405C66.6993 42.374 66.9002 42.25 67.119 42.1754Z" fill="white"/>
<path fill-rule="evenodd" clip-rule="evenodd" d="M87.9393 54.6467C87.6379 54.3991 87.4456 54.0237 87.4456 53.6036C87.4456 52.8587 88.0504 52.254 88.7952 52.254C89.54 52.254 90.1447 52.8587 90.1447 53.6036C90.1447 54.0567 89.9209 54.4579 89.5779 54.7027C89.742 54.7777 89.8932 54.8819 90.0233 55.0119C90.3093 55.298 90.47 55.6859 90.47 56.0905V57.0042H86.9062V56.0905C86.9062 55.6859 87.0669 55.298 87.353 55.0119C87.5196 54.8453 87.7206 54.7213 87.9393 54.6467Z" fill="white"/>
<path fill-rule="evenodd" clip-rule="evenodd" d="M74.576 50.8846C74.2747 50.6371 74.0823 50.2616 74.0823 49.8415C74.0823 49.0966 74.6871 48.4919 75.4319 48.4919C76.1768 48.4919 76.7814 49.0966 76.7814 49.8415C76.7814 50.2946 76.5576 50.6958 76.2146 50.9406C76.3788 51.0156 76.5299 51.1198 76.66 51.2498C76.946 51.5359 77.1068 51.9239 77.1068 52.3284V53.2422H73.543V52.3284C73.543 51.9239 73.7036 51.5359 73.9897 51.2498C74.1563 51.0832 74.3573 50.9592 74.576 50.8846Z" fill="white"/>
<path fill-rule="evenodd" clip-rule="evenodd" d="M44.6612 59.1099C44.1242 59.7312 44.6264 60.6365 44.2279 61.3422C43.5996 62.4549 42.008 62.8193 42.7895 64.3521C42.9094 64.5866 43.058 64.8056 43.2204 65.0121C43.4727 65.3325 43.776 65.5986 44.0607 65.888C44.4136 66.2471 44.7331 67.2483 45.3328 67.2305C45.7282 67.2189 46.1545 66.8475 46.4408 66.6115C47.0962 66.0714 47.9767 65.0996 48.8565 64.9858C49.6016 64.8899 50.5556 65.3735 51.235 65.6528C51.4911 65.7588 51.9268 66.1875 52.227 65.994C52.5311 65.799 52.5968 65.2528 52.651 64.9348C52.8228 63.9281 52.7044 62.4781 52.0073 61.661C51.2807 60.8091 50.0079 60.4508 49.118 59.7769C48.6708 59.4388 48.1756 58.9188 47.5775 58.9118C46.9128 58.9041 46.5956 59.3792 46.2985 59.8914C46.1948 60.0701 45.965 60.5615 45.6864 60.4771C45.4496 60.4059 45.2152 59.8728 45.0782 59.6802C44.9421 59.4883 44.7974 59.3018 44.6612 59.1099Z" fill="#389F5D"/>
<path fill-rule="evenodd" clip-rule="evenodd" d="M74.2442 65.1453C74.6314 64.5403 73.7462 63.1669 73.0702 63.23C72.6122 63.2728 72.2123 63.8109 71.7838 63.7637C71.4251 63.7241 70.873 62.682 70.5897 63.2282C70.1721 64.0318 70.303 65.2372 70.1424 66.1151C69.9333 67.2554 67.9729 70.8578 67.068 71.5654C62.619 75.0445 62.4575 76.7488 63.3737 77.7669C63.5193 77.9293 63.6755 78.0816 63.838 78.2273C66.3973 80.5315 70.8672 81.554 73.9431 79.6768C74.9286 79.0755 75.7469 78.2172 76.6433 77.4957C77.0382 77.1783 77.556 76.6691 78.0886 76.6187C79.0224 76.5306 80.2856 77.8432 80.5648 78.6355C80.6923 78.9967 81.0644 81.5999 81.8182 80.356C81.8936 80.231 81.9638 80.1025 82.0333 79.9743C82.1315 79.7919 82.2257 79.6079 82.3057 79.4162C82.4375 79.1024 82.5283 78.7748 82.5981 78.4411C83.4031 74.5878 80.1648 70.9601 78.4557 67.8141C78.0118 66.9957 77.7574 66.2334 77.5519 65.3323C77.4815 65.0251 77.3462 64.6281 76.9681 64.6176C76.5806 64.6074 76.4534 65.1279 76.3518 65.4083C76.0307 66.2959 74.7924 64.3808 74.2442 65.1453Z" fill="#389F5D"/>
<path fill-rule="evenodd" clip-rule="evenodd" d="M69.8221 65.7936C69.5207 65.546 69.3284 65.1705 69.3284 64.7504C69.3284 64.0056 69.9332 63.4009 70.678 63.4009C71.4229 63.4009 72.0275 64.0056 72.0275 64.7504C72.0275 65.2036 71.8037 65.6048 71.4607 65.8496C71.6248 65.9245 71.776 66.0287 71.9061 66.1587C72.1921 66.4448 72.3529 66.8328 72.3529 67.2374V68.1511H68.7891V67.2374C68.7891 66.8328 68.9497 66.4448 69.2358 66.1587C69.4024 65.9922 69.6034 65.8681 69.8221 65.7936Z" fill="white"/>
<path fill-rule="evenodd" clip-rule="evenodd" d="M69.8221 75.2318C69.5207 74.9842 69.3284 74.6087 69.3284 74.1887C69.3284 73.4438 69.9332 72.8391 70.678 72.8391C71.4229 72.8391 72.0275 73.4438 72.0275 74.1887C72.0275 74.6418 71.8037 75.043 71.4607 75.2878C71.6248 75.3628 71.776 75.4669 71.9061 75.5969C72.1921 75.883 72.3529 76.271 72.3529 76.6756V77.5893H68.7891V76.6756C68.7891 76.271 68.9497 75.883 69.2358 75.5969C69.4024 75.4304 69.6034 75.3064 69.8221 75.2318Z" fill="white"/>
<path fill-rule="evenodd" clip-rule="evenodd" d="M76.3573 72.8568C76.0559 72.6092 75.8636 72.2337 75.8636 71.8137C75.8636 71.0688 76.4683 70.4641 77.2131 70.4641C77.958 70.4641 78.5627 71.0688 78.5627 71.8137C78.5627 72.2668 78.3389 72.668 77.9958 72.9128C78.16 72.9878 78.3111 73.0919 78.4412 73.2219C78.7272 73.508 78.888 73.896 78.888 74.3006V75.2143H75.3242V74.3006C75.3242 73.896 75.4849 73.508 75.771 73.2219C75.9375 73.0554 76.1385 72.9314 76.3573 72.8568Z" fill="white"/>
<path fill-rule="evenodd" clip-rule="evenodd" d="M46.5646 62.5922C46.2996 62.3745 46.1305 62.0444 46.1305 61.675C46.1305 61.0201 46.6622 60.4884 47.3171 60.4884C47.972 60.4884 48.5037 61.0201 48.5037 61.675C48.5037 62.0734 48.3069 62.4262 48.0053 62.6414C48.1496 62.7074 48.2825 62.799 48.3969 62.9133C48.6484 63.1648 48.7898 63.506 48.7898 63.8617V64.6651H45.6562V63.8617C45.6562 63.506 45.7975 63.1648 46.0491 62.9133C46.1955 62.7668 46.3722 62.6578 46.5646 62.5922Z" fill="white"/>
<path fill-rule="evenodd" clip-rule="evenodd" d="M23.6023 103.684C23.3727 103.606 23.1464 103.525 22.9235 103.441C22.915 99.133 22.7462 95.1652 23.2106 90.8721C23.2358 90.6387 23.263 90.4039 23.2921 90.1691C23.4453 88.9298 23.6539 87.6603 23.9366 86.3463C24.1927 85.1558 24.5095 83.9272 24.9009 82.6506C26.9931 75.8271 32.5515 76.9623 35.0148 81.7114C35.1582 81.9878 35.2912 82.2765 35.4124 82.5766C35.4841 82.7547 35.5565 82.9349 35.6296 83.1173C36.2438 84.651 36.9028 86.3563 37.5644 88.2641C38.0068 89.5394 38.4502 90.9058 38.882 92.3727C39.8842 95.7762 40.8242 99.7204 41.5434 104.326C37.7122 105.443 32.9799 105.692 26.7056 104.496C25.6111 104.288 24.5768 104.015 23.6023 103.684Z" fill="#083117"/>
<path fill-rule="evenodd" clip-rule="evenodd" d="M23.6022 103.683C24.9803 99.7614 26.0745 96.1012 27.7353 92.3802C27.7817 92.2762 27.8285 92.1724 27.8759 92.068C28.9981 89.5994 30.3798 87.0998 32.2684 84.4767C32.3537 84.3581 32.4398 84.2399 32.5272 84.1206C33.3435 83.0092 34.1843 82.2206 35.0148 81.7104C35.6759 81.3039 36.3305 81.0739 36.9612 80.9975C37.5786 80.9225 38.1733 80.994 38.7287 81.1917C40.7984 81.9265 42.3272 84.4026 42.4758 87.5157C42.5358 88.7771 42.6199 90.0659 42.6933 91.4187C42.8869 94.9756 43.0082 98.9704 42.4323 104.045C42.1414 104.144 41.8455 104.237 41.5436 104.325C37.7123 105.442 32.98 105.691 26.7058 104.495C25.611 104.287 24.5768 104.014 23.6022 103.683Z" fill="#234C32"/>
<path fill-rule="evenodd" clip-rule="evenodd" d="M40.8981 66.8812C37.6925 63.1572 28.638 62.8485 25.5296 66.5907C22.4211 70.3329 22.0477 79.544 22.2474 89.3337C22.3491 94.3194 46.4095 93.6417 44.7615 88.9353C40.955 78.0645 44.1033 70.6057 40.8981 66.8812Z" fill="#389F5D"/>
<path fill-rule="evenodd" clip-rule="evenodd" d="M22.25 89.3782C22.4677 89.5612 22.6909 89.7379 22.9208 89.9058C25.7679 91.9892 29.7875 92.9296 33.2091 91.8414C33.9641 91.6015 34.7077 91.2335 35.3751 90.8081C40.5163 87.5288 36.3942 81.3969 36.0521 76.7865C35.8901 74.6026 36.0283 72.3994 36.6835 70.3025C36.8703 69.7046 37.0742 69.0996 37.3819 68.5511C37.4447 68.4393 37.8145 68.1357 37.8329 68.0532C38.3985 68.116 39.774 67.8007 41.3119 67.434C43.8224 71.3174 41.136 78.5777 44.7624 88.9352C46.4054 93.6272 22.4937 94.3147 22.25 89.3782Z" fill="#389F5D"/>
<path fill-rule="evenodd" clip-rule="evenodd" d="M35.0824 59.3668H30.8711V64.2217C30.9063 65.7441 34.6365 66.0832 35.0824 64.2217V59.3668Z" fill="#A0FBC1"/>
<path fill-rule="evenodd" clip-rule="evenodd" d="M63.8008 57.9431C61.2875 54.3455 61.4762 49.3609 64.5298 45.9518C68.0922 41.9748 74.2132 41.6381 78.1902 45.2005C82.1672 48.7629 82.5039 54.8838 78.9415 58.8608C75.8878 62.27 70.954 63.0042 67.1024 60.9005L62.6757 65.8425C62.7122 66.6254 62.4534 67.4227 61.8892 68.0527L56.8534 73.6747C55.7126 74.9482 53.7552 75.0559 52.4818 73.9153L52.4679 73.9028C51.1943 72.762 51.0869 70.8048 52.2277 69.5313L57.2635 63.9093C57.8278 63.2793 58.5917 62.9346 59.3741 62.8851L63.8008 57.9431ZM76.5766 47.0019C73.5937 44.33 69.003 44.5827 66.3313 47.5654C63.6595 50.5481 63.9119 55.1389 66.8947 57.8107C69.8774 60.4824 74.4684 60.2299 77.1401 57.2473C79.8118 54.2646 79.5593 49.6736 76.5766 47.0019Z" fill="#234C32"/>
<path fill-rule="evenodd" clip-rule="evenodd" d="M55.9007 69.9296L47.1493 74.5856C47.1493 74.5856 41.9098 64.1847 36.9874 65.2942C34.6406 65.8232 31.4433 70.9115 34.8947 74.6878C37.2017 77.2119 43.3242 82.5421 47.1978 82.1496C51.0719 81.7571 58.1384 72.3322 58.1384 72.3322C58.1384 72.3322 62.2192 71.1166 62.1346 68.0108C62.1161 67.322 58.635 69.798 58.635 69.798C58.635 69.798 59.8044 67.4459 58.7728 67.264C58.0364 67.1343 55.9007 69.9296 55.9007 69.9296Z" fill="#A0FBC1"/>
<path fill-rule="evenodd" clip-rule="evenodd" d="M44.957 70.9463C44.5025 73.2738 42.5311 75.2404 40.828 76.7204C40.1888 77.2758 39.5367 77.818 38.8556 78.3209C37.2055 77.017 35.7741 75.6493 34.8957 74.6881C31.4443 70.9121 34.6417 65.8233 36.9886 65.2945C39.925 64.6328 42.9745 68.0674 44.957 70.9463Z" fill="#389F5D"/>
<path fill-rule="evenodd" clip-rule="evenodd" d="M36.2493 54.329L30.3711 55.0123L30.4921 61.2673C30.4921 61.2673 35.2896 63.221 36.2493 62.0645C37.2085 60.9081 36.2493 54.329 36.2493 54.329Z" fill="#A0FBC1"/>
<path fill-rule="evenodd" clip-rule="evenodd" d="M29.7564 61.0323C29.3579 61.1997 28.9204 61.2919 28.4614 61.2919C26.6114 61.2919 25.1094 59.7899 25.1094 57.9398C25.1094 57.1653 25.3726 56.4517 25.8142 55.8838C25.6419 55.4788 25.5467 55.0331 25.5467 54.5654C25.5467 52.703 27.0586 51.1908 28.9211 51.1908C29.1305 51.1908 29.3354 51.2099 29.5342 51.2466C29.8868 50.3314 30.7751 49.6816 31.8137 49.6816C32.483 49.6816 33.0898 49.9514 33.531 50.388C34.0883 49.9733 34.7788 49.7276 35.5262 49.7276C37.3733 49.7276 38.8727 51.2272 38.8727 53.0741C38.8727 54.9211 37.3733 56.4205 35.5262 56.4205C34.7712 56.4205 34.0744 56.17 33.5143 55.7477C33.9144 56.2582 34.153 56.901 34.153 57.5991C34.153 58.3797 33.8548 59.0911 33.366 59.6256C33.4945 59.8852 33.5668 60.1775 33.5668 60.4865C33.5668 61.5595 32.6957 62.4306 31.6227 62.4306C30.7393 62.4306 29.9927 61.8399 29.7564 61.0323Z" fill="black"/>
</svg>
