<svg width="232" height="160" viewBox="0 0 232 160" fill="none" xmlns="http://www.w3.org/2000/svg">
<path d="M31.4141 105.971C31.4141 109.987 34.9843 113.241 39.3608 113.241H47.6962C47.6962 111.585 47.3939 109.987 46.8181 108.49C45.7527 105.669 43.7517 103.236 41.1747 101.508C41.1459 101.494 41.1315 101.479 41.1171 101.465C40.93 101.35 40.7572 101.235 40.5701 101.119C40.4549 101.047 40.3397 100.99 40.239 100.932C39.3896 100.515 38.425 100.27 37.3885 100.27C34.7252 100.27 32.465 101.868 31.702 104.085C31.6732 104.157 31.6444 104.243 31.63 104.344C31.5004 104.819 31.4429 105.323 31.4285 105.841C31.4141 105.87 31.4141 105.913 31.4141 105.971Z" fill="#2ADD6A"/>
<path d="M15.8935 4.18921C24.6752 4.18921 31.7869 10.2788 31.7869 17.7937V31.3981H0V17.7937C0 10.2788 7.11175 4.18921 15.8935 4.18921Z" fill="#389F5D"/>
<path d="M121.737 123.117C120.499 123.117 119.333 122.8 118.383 122.239C118.224 122.138 118.052 122.037 117.908 121.922C116.684 121.072 115.748 120.022 115.028 118.971C113.574 116.854 112.898 114.421 112.898 111.974V57.7433V17.8225C112.898 17.8081 112.898 17.7937 112.898 17.7793C112.898 10.2644 105.786 4.1748 97.0043 4.1748H15.8957C15.6222 4.1748 15.3487 4.17481 15.0751 4.18921C14.5281 4.2036 13.9954 4.26118 13.4772 4.31877C10.0652 4.76505 6.99884 6.1471 4.66665 8.14818C3.54374 9.09833 2.59358 10.2068 1.85938 11.4017C2.89591 9.86133 4.8394 8.8248 7.07082 8.8248C8.3089 8.8248 9.475 9.14152 10.4252 9.70297C10.5835 9.80375 10.7563 9.90452 10.9002 10.0053C12.1239 10.8547 13.0597 11.9056 13.7795 12.9565C15.2335 15.0728 15.9101 17.5057 15.9101 19.9531V31.3693V116.091H16.0829C16.5724 119.071 18.1847 121.749 20.5601 123.793C23.4394 126.255 27.4127 127.781 31.8036 127.781H112.912C113.186 127.781 113.459 127.781 113.733 127.767C114.28 127.752 114.812 127.695 115.331 127.637C115.604 127.608 115.863 127.565 116.137 127.522C116.382 127.479 116.641 127.421 116.886 127.364C117.159 127.306 117.418 127.248 117.677 127.162C118.124 127.047 118.57 126.903 119.002 126.745C119.203 126.673 119.405 126.601 119.606 126.529C119.765 126.457 119.923 126.399 120.081 126.327C120.125 126.313 120.168 126.284 120.211 126.269C120.369 126.198 120.528 126.126 120.686 126.054C121.046 125.881 121.406 125.694 121.751 125.492C121.924 125.391 122.097 125.291 122.27 125.19C122.428 125.089 122.601 124.974 122.759 124.873C122.903 124.772 123.047 124.672 123.205 124.556C123.22 124.542 123.249 124.528 123.277 124.499C123.58 124.283 123.868 124.052 124.156 123.808C124.3 123.693 124.429 123.563 124.559 123.448C124.688 123.318 124.832 123.203 124.947 123.074C125.077 122.944 125.192 122.814 125.322 122.685L125.336 122.67C125.696 122.267 126.042 121.864 126.358 121.432C126.56 121.144 126.761 120.856 126.948 120.554C125.912 122.08 123.968 123.117 121.737 123.117Z" fill="#E3FFED"/>
<path d="M36.2368 99.2765C37.2014 98.9022 38.2523 98.7007 39.3608 98.7007H71.4213V113.241H39.3608C34.9699 113.241 31.4141 109.987 31.4141 105.971C31.4141 102.962 33.4007 100.385 36.2368 99.2765Z" fill="#389F5D"/>
<path d="M31.8 127.781H112.894V127.767C117.285 127.767 121.258 126.14 124.138 123.52C127.017 120.9 128.802 117.257 128.802 113.241C128.802 105.208 121.69 98.7007 112.894 98.7007H39.358C38.2495 98.7007 37.1842 98.9022 36.234 99.2765C34.017 100.14 32.3183 101.897 31.6992 104.07C32.4622 101.853 34.7224 100.255 37.3857 100.255C38.4223 100.255 39.3868 100.486 40.2362 100.918C40.3514 100.975 40.4665 101.033 40.5673 101.105C40.7545 101.206 40.9416 101.321 41.1144 101.45C41.1432 101.465 41.1576 101.479 41.172 101.494C43.7633 103.221 45.7644 105.654 46.8153 108.476C47.3767 109.959 47.6935 111.557 47.6935 113.227C47.6935 121.26 40.5817 127.781 31.8 127.781Z" fill="#F4F4F4"/>
<path d="M100.209 49.0768H43.4594C43.3442 49.0768 43.2578 48.9904 43.2578 48.8753V46.5143C43.2578 46.3991 43.3442 46.3127 43.4594 46.3127H100.209C100.325 46.3127 100.411 46.3991 100.411 46.5143V48.8753C100.411 48.9761 100.325 49.0768 100.209 49.0768Z" fill="#A2E9BC"/>
<path d="M100.209 62.1054H43.4594C43.3442 62.1054 43.2578 62.019 43.2578 61.9038V59.5429C43.2578 59.4277 43.3442 59.3413 43.4594 59.3413H100.209C100.325 59.3413 100.411 59.4277 100.411 59.5429V61.9038C100.411 62.019 100.325 62.1054 100.209 62.1054Z" fill="#A2E9BC"/>
<path d="M100.209 75.1484H43.4594C43.3442 75.1484 43.2578 75.062 43.2578 74.9468V72.5858C43.2578 72.4707 43.3442 72.3843 43.4594 72.3843H100.209C100.325 72.3843 100.411 72.4707 100.411 72.5858V74.9468C100.411 75.062 100.325 75.1484 100.209 75.1484Z" fill="#A2E9BC"/>
<path d="M100.209 88.3066H43.4594C43.3442 88.3066 43.2578 88.2202 43.2578 88.105V85.744C43.2578 85.6288 43.3442 85.5425 43.4594 85.5425H100.209C100.325 85.5425 100.411 85.6288 100.411 85.744V88.105C100.411 88.2058 100.325 88.3066 100.209 88.3066Z" fill="#A2E9BC"/>
<path d="M99.6817 36.1201H29.8742C29.8166 36.1201 29.7734 36.0769 29.7734 36.0193V34.8388C29.7734 34.7812 29.8166 34.738 29.8742 34.738H99.6673C99.7249 34.738 99.7681 34.7812 99.7681 34.8388V36.0193C99.7824 36.0625 99.7249 36.1201 99.6817 36.1201Z" fill="#A2E9BC"/>
<path d="M45.1195 25.5676V26.9929C44.5725 27.0361 44.2558 27.0505 44.155 27.0505C42.7585 27.0505 42.0675 26.4458 42.0675 25.2221C41.722 25.2365 41.5205 25.2509 41.4341 25.2509C40.1816 25.2509 39.2027 24.7902 38.526 23.8689C37.8494 22.9475 37.5039 21.7814 37.5039 20.3706C37.5039 18.9885 37.8494 17.8368 38.5548 16.9155C39.2603 15.9941 40.2392 15.5334 41.5061 15.5334C42.4274 15.5334 43.1616 15.7494 43.7087 16.1813C44.2558 16.6132 44.6876 17.1746 45.0188 17.88C45.3355 18.5855 45.5082 19.406 45.5082 20.3562C45.5082 22.3717 44.846 23.8113 43.5071 24.6751C43.2912 24.819 43.1904 24.9342 43.1904 25.035C43.1904 25.1933 43.2624 25.3373 43.4064 25.4525C43.5503 25.5676 43.7375 25.6252 43.9822 25.6252C44.1406 25.6252 44.3997 25.6108 44.7164 25.5964C44.7884 25.582 44.9324 25.582 45.1195 25.5676ZM41.4629 23.8401C42.9313 23.8401 43.6655 22.6884 43.6655 20.3706C43.6655 19.1469 43.464 18.2543 43.0753 17.7073C42.6866 17.1602 42.1683 16.8867 41.5205 16.8867C40.0664 16.8867 39.3322 18.0816 39.3322 20.457C39.3322 22.7028 40.0376 23.8401 41.4629 23.8401Z" fill="#7DD89E"/>
<path d="M53.8718 15.6775V21.7095C53.8718 22.5301 53.7855 23.1491 53.5983 23.5954C53.4112 24.0417 53.0657 24.416 52.533 24.7327C52.0003 25.0494 51.3669 25.2078 50.6039 25.2078C49.8409 25.2078 49.2075 25.0638 48.718 24.7903C48.2285 24.5168 47.8686 24.1425 47.6527 23.653C47.4367 23.1779 47.3359 22.5589 47.3359 21.8247V15.6631H49.0635V21.6951C49.0635 22.5157 49.2362 23.0628 49.5818 23.3219C49.9273 23.581 50.3304 23.7106 50.791 23.7106C51.3237 23.7106 51.7412 23.5666 52.0579 23.2931C52.3746 23.0196 52.533 22.4869 52.533 21.6951V15.6631H53.8718V15.6775Z" fill="#7DD89E"/>
<path d="M63.303 25.0638H61.489L60.7404 22.8324H57.127L56.3928 25.0638H54.9531L58.0771 15.6631H60.1646L63.303 25.0638ZM60.2797 21.4792L58.9121 17.2899L57.5445 21.4792H60.2797Z" fill="#7DD89E"/>
<path d="M70.5568 25.0638H64.7695V15.6631H66.5547V23.5234H70.5568V25.0638Z" fill="#7DD89E"/>
<path d="M73.855 25.0638H72.1562V15.6631H73.855V25.0638Z" fill="#7DD89E"/>
<path d="M79.5572 25.0638H77.7432V17.1171H75.2383V15.6631H82.0477V17.1171H79.5428V25.0638H79.5572Z" fill="#7DD89E"/>
<path d="M87.8197 25.0636H86.0202V21.1046L82.8242 15.6772H84.8829L87.1143 19.5498L89.245 15.6772H90.8717L87.8341 21.1046V25.0636H87.8197Z" fill="#7DD89E"/>
<path d="M36.8239 52.0425H31.9291C31.1373 52.0425 30.5039 51.4091 30.5039 50.6173V45.1899C30.5039 44.1678 31.3389 43.3328 32.361 43.3328H36.8239C37.846 43.3328 38.681 44.1678 38.681 45.1899V50.1854C38.6666 51.2075 37.846 52.0425 36.8239 52.0425ZM32.361 44.4413C31.9435 44.4413 31.6124 44.7724 31.6124 45.1899V50.6173C31.6124 50.79 31.7564 50.934 31.9291 50.934H36.8239C37.2414 50.934 37.5725 50.6029 37.5725 50.1854V45.1899C37.5725 44.7724 37.2414 44.4413 36.8239 44.4413H32.361Z" fill="#389F5D"/>
<path d="M35.1982 49.077C35.1838 49.077 35.1694 49.077 35.155 49.077C34.9103 49.0626 34.6799 48.9474 34.5216 48.7746L32.5205 46.4856C32.3045 46.2409 32.3333 45.8522 32.5781 45.6362C32.8228 45.4203 33.2115 45.4491 33.4274 45.6938L35.1982 47.7237L39.4883 42.7138C39.7042 42.4691 40.0785 42.4403 40.3376 42.6562C40.5824 42.8722 40.6112 43.2465 40.3952 43.5056L35.8172 48.8322C35.6445 48.9762 35.4285 49.077 35.1982 49.077Z" fill="#389F5D"/>
<path d="M37.244 65.0855H31.9174C31.1256 65.0855 30.4922 64.452 30.4922 63.6602V57.801C30.4922 57.0092 31.1256 56.3757 31.9174 56.3757H37.244C38.0358 56.3757 38.6693 57.0092 38.6693 57.801V63.6602C38.6693 64.4376 38.0358 65.0855 37.244 65.0855ZM31.9318 57.4842C31.7591 57.4842 31.6151 57.6282 31.6151 57.801V63.6602C31.6151 63.833 31.7591 63.977 31.9318 63.977H37.2584C37.4312 63.977 37.5751 63.833 37.5751 63.6602V57.801C37.5751 57.6282 37.4312 57.4842 37.2584 57.4842H31.9318Z" fill="#389F5D"/>
<path d="M35.1982 62.6382C35.1838 62.6382 35.1694 62.6382 35.155 62.6382C34.9103 62.6238 34.6799 62.5087 34.5216 62.3359L32.5205 60.0469C32.3045 59.8022 32.3333 59.4135 32.5781 59.1975C32.8228 58.9816 33.2115 59.0104 33.4274 59.2551L35.1982 61.285L39.4883 56.2751C39.7042 56.0304 40.0785 56.0016 40.3376 56.2175C40.5824 56.4334 40.6112 56.8077 40.3952 57.0669L35.8172 62.3935C35.6445 62.5375 35.4285 62.6382 35.1982 62.6382Z" fill="#389F5D"/>
<path d="M37.244 78.1287H31.9174C31.1256 78.1287 30.4922 77.4952 30.4922 76.7034V70.8442C30.4922 70.0524 31.1256 69.4189 31.9174 69.4189H37.244C38.0358 69.4189 38.6693 70.0524 38.6693 70.8442V76.7034C38.6693 77.4808 38.0358 78.1287 37.244 78.1287ZM31.9318 70.5275C31.7591 70.5275 31.6151 70.6714 31.6151 70.8442V76.7034C31.6151 76.8762 31.7591 77.0202 31.9318 77.0202H37.2584C37.4312 77.0202 37.5751 76.8762 37.5751 76.7034V70.8442C37.5751 70.6714 37.4312 70.5275 37.2584 70.5275H31.9318Z" fill="#389F5D"/>
<path d="M35.1982 75.6377C35.1838 75.6377 35.1694 75.6377 35.155 75.6377C34.9103 75.6233 34.6799 75.5082 34.5216 75.3354L32.5205 73.0464C32.3045 72.8017 32.3333 72.413 32.5781 72.197C32.8228 71.9811 33.2115 72.0099 33.4274 72.2546L35.1982 74.2845L39.4883 69.2746C39.7042 69.0299 40.0785 69.0011 40.3376 69.217C40.5824 69.433 40.6112 69.8073 40.3952 70.0664L35.8172 75.393C35.6445 75.5514 35.4285 75.6377 35.1982 75.6377Z" fill="#389F5D"/>
<path d="M37.244 91.2722H31.9174C31.1256 91.2722 30.4922 90.6388 30.4922 89.847V83.9877C30.4922 83.1959 31.1256 82.5625 31.9174 82.5625H37.244C38.0358 82.5625 38.6693 83.1959 38.6693 83.9877V89.847C38.6693 90.6388 38.0358 91.2722 37.244 91.2722ZM31.9318 83.671C31.7591 83.671 31.6151 83.815 31.6151 83.9877V89.847C31.6151 90.0198 31.7591 90.1637 31.9318 90.1637H37.2584C37.4312 90.1637 37.5751 90.0198 37.5751 89.847V83.9877C37.5751 83.815 37.4312 83.671 37.2584 83.671H31.9318Z" fill="#389F5D"/>
<path d="M35.1982 89.1993C35.1838 89.1993 35.1694 89.1993 35.155 89.1993C34.9103 89.1849 34.6799 89.0697 34.5216 88.8969L32.5205 86.6079C32.3045 86.3632 32.3333 85.9745 32.5781 85.7586C32.8228 85.5426 33.2115 85.5714 33.4274 85.8161L35.1982 87.846L39.4883 82.8361C39.7042 82.5914 40.0785 82.5626 40.3376 82.7785C40.5824 82.9945 40.6112 83.3688 40.3952 83.6279L35.8172 88.9545C35.6445 89.1129 35.4285 89.1993 35.1982 89.1993Z" fill="#389F5D"/>
<path d="M214.72 42.9441H153.622C151.808 42.9441 150.34 41.4756 150.34 39.6617V3.28235C150.34 1.46843 151.808 0 153.622 0H214.72C216.534 0 218.002 1.46843 218.002 3.28235V39.6617C218.017 41.4756 216.534 42.9441 214.72 42.9441Z" fill="#7FE3A3"/>
<path d="M204.209 39.6905H162.59C161.625 39.6905 160.848 38.9131 160.848 37.9486V28.4902C160.848 27.5257 161.625 26.7483 162.59 26.7483H204.209C205.174 26.7483 205.951 27.5257 205.951 28.4902V37.9486C205.966 38.9131 205.174 39.6905 204.209 39.6905Z" fill="#B7F9CF"/>
<path d="M204.44 26.1868L204.67 26.3739L205.764 27.3385L206.916 26.4027L207.06 26.2012L207.909 26.9642L205.923 28.231L203.965 26.6043L204.44 26.1868Z" fill="#42DA79"/>
<path d="M209.609 28.8789L201.893 28.8213C201.778 28.8213 201.691 28.7206 201.691 28.591L201.72 23.869C201.72 23.7395 201.807 23.6387 201.922 23.6387L209.638 23.6963C209.753 23.6963 209.84 23.797 209.84 23.9266L209.811 28.6486C209.796 28.7781 209.71 28.8789 209.609 28.8789Z" fill="#06EF5A"/>
<path d="M201.719 23.7825C201.719 23.7969 201.719 23.8113 201.705 23.8401C201.705 23.8545 201.705 23.8689 201.705 23.8832L201.676 28.6052C201.676 28.6772 201.705 28.7348 201.748 28.778L204.526 26.2442L201.719 23.7825Z" fill="#62FA99"/>
<path d="M207.059 26.2733L209.779 28.7639C209.794 28.7351 209.808 28.7063 209.808 28.6631L209.837 23.9411C209.837 23.9123 209.837 23.8691 209.823 23.8403L207.059 26.2733Z" fill="#62FA99"/>
<path d="M209.637 23.7107L201.891 23.6531C201.82 23.6531 201.748 23.7107 201.719 23.7826L205.707 27.2953C205.778 27.3529 205.865 27.3529 205.937 27.2953L209.795 23.8402C209.781 23.7682 209.709 23.7107 209.637 23.7107Z" fill="#96FFBC"/>
<path d="M210.399 23.6531C210.399 24.1714 209.981 24.5889 209.463 24.5889C208.945 24.5889 208.527 24.1714 208.527 23.6531C208.527 23.1349 208.945 22.7174 209.463 22.7174C209.967 22.703 210.399 23.1349 210.399 23.6531Z" fill="#4BEF86"/>
<path d="M209.406 23.2357L209.176 23.3509L209.133 23.1781L209.435 23.0342H209.637V24.2867H209.406V23.2357Z" fill="white"/>
<path d="M170.51 31.5711C170.51 33.4426 168.984 34.9686 167.112 34.9686C165.241 34.9686 163.715 33.4426 163.715 31.5711C163.715 29.6996 165.241 28.1736 167.112 28.1736C168.984 28.1736 170.51 29.6996 170.51 31.5711Z" fill="#7FE3A3"/>
<path d="M168.182 30.7335C168.319 30.1532 167.959 29.5716 167.379 29.4346C166.799 29.2975 166.217 29.6569 166.08 30.2373C165.943 30.8176 166.302 31.3992 166.883 31.5362C167.463 31.6733 168.045 31.3139 168.182 30.7335Z" fill="white"/>
<path d="M168.925 33.4714C168.896 32.4925 168.104 31.7151 167.111 31.7151C166.132 31.7151 165.326 32.4925 165.297 33.4714H168.925Z" fill="white"/>
<path d="M176.41 29.354L177.13 30.808L178.743 31.0528L177.576 32.1901L177.85 33.7881L176.41 33.0394L174.971 33.7881L175.244 32.1901L174.078 31.0528L175.69 30.808L176.41 29.354Z" fill="#7FE3A3"/>
<path d="M177.79 30.9089C177.013 32.3342 175.674 32.8524 175.098 32.9964L174.969 33.7882L176.408 33.0252L177.848 33.7882L177.574 32.1758L178.741 31.0385L177.79 30.9089Z" fill="#63D38B"/>
<path d="M182.371 29.354L183.091 30.808L184.703 31.0528L183.537 32.1901L183.811 33.7881L182.371 33.0394L180.932 33.7881L181.205 32.1901L180.039 31.0528L181.651 30.808L182.371 29.354Z" fill="#7FE3A3"/>
<path d="M183.751 30.9089C182.974 32.3342 181.635 32.8524 181.059 32.9964L180.93 33.7882L182.369 33.0252L183.809 33.7882L183.535 32.1758L184.702 31.0385L183.751 30.9089Z" fill="#63D38B"/>
<path d="M188.328 29.354L189.062 30.808L190.675 31.0528L189.494 32.1901L189.782 33.7881L188.328 33.0394L186.889 33.7881L187.162 32.1901L185.996 31.0528L187.608 30.808L188.328 29.354Z" fill="#7FE3A3"/>
<path d="M189.712 30.9089C188.935 32.3342 187.596 32.8524 187.02 32.9964L186.891 33.7882L188.33 33.0252L189.77 33.7882L189.496 32.1758L190.662 31.0385L189.712 30.9089Z" fill="#63D38B"/>
<path d="M194.301 29.354L195.021 30.808L196.633 31.0528L195.467 32.1901L195.741 33.7881L194.301 33.0394L192.861 33.7881L193.135 32.1901L191.969 31.0528L193.581 30.808L194.301 29.354Z" fill="#7FE3A3"/>
<path d="M195.681 30.9089C194.904 32.3342 193.565 32.8524 192.989 32.9964L192.859 33.7882L194.299 33.0252L195.739 33.7882L195.465 32.1758L196.631 31.0385L195.681 30.9089Z" fill="#63D38B"/>
<path d="M200.262 29.354L200.982 30.808L202.594 31.0528L201.428 32.1901L201.702 33.7881L200.262 33.0394L198.822 33.7881L199.096 32.1901L197.93 31.0528L199.542 30.808L200.262 29.354Z" fill="#7FE3A3"/>
<path d="M201.642 30.9089C200.865 32.3342 199.526 32.8524 198.95 32.9964L198.82 33.7882L200.26 33.0252L201.7 33.7882L201.426 32.1758L202.592 31.0385L201.642 30.9089Z" fill="#63D38B"/>
<path d="M201.675 36.9407H174.984V37.8044H201.675V36.9407Z" fill="white"/>
<path d="M204.209 20.2411H162.59C161.625 20.2411 160.848 19.4637 160.848 18.4991V9.04078C160.848 8.07623 161.625 7.29883 162.59 7.29883H204.209C205.174 7.29883 205.951 8.07623 205.951 9.04078V18.4991C205.966 19.4637 205.174 20.2411 204.209 20.2411Z" fill="#B7F9CF"/>
<path d="M204.44 6.73755L204.67 6.93909L205.764 7.88925L206.916 6.95349L207.06 6.75194L207.909 7.51494L205.923 8.79621L203.965 7.15504L204.44 6.73755Z" fill="#42DA79"/>
<path d="M209.609 9.44386L201.893 9.38627C201.778 9.38627 201.691 9.2855 201.691 9.15593L201.72 4.43396C201.72 4.30439 201.807 4.20361 201.922 4.20361L209.638 4.2612C209.753 4.2612 209.84 4.36197 209.84 4.49154L209.811 9.21351C209.796 9.34308 209.71 9.44386 209.609 9.44386Z" fill="#06EF5A"/>
<path d="M201.719 4.34741C201.719 4.36181 201.719 4.37621 201.705 4.405C201.705 4.4194 201.705 4.43379 201.705 4.44819L201.676 9.17016C201.676 9.24214 201.705 9.29973 201.748 9.34292L204.526 6.80918L201.719 4.34741Z" fill="#62FA99"/>
<path d="M207.059 6.8236L209.779 9.31415C209.794 9.28536 209.808 9.25656 209.808 9.21337L209.837 4.4914C209.837 4.46261 209.837 4.41942 209.823 4.39062L207.059 6.8236Z" fill="#62FA99"/>
<path d="M209.637 4.2612L201.891 4.20361C201.82 4.20361 201.748 4.2612 201.719 4.33318L205.707 7.84587C205.778 7.90345 205.865 7.90345 205.937 7.84587L209.795 4.39076C209.781 4.31878 209.709 4.2612 209.637 4.2612Z" fill="#96FFBC"/>
<path d="M210.399 4.20358C210.399 4.72184 209.981 5.13934 209.463 5.13934C208.945 5.13934 208.527 4.72184 208.527 4.20358C208.527 3.68531 208.945 3.26782 209.463 3.26782C209.967 3.26782 210.399 3.68531 210.399 4.20358Z" fill="#4BEF86"/>
<path d="M209.406 3.80018L209.176 3.91535L209.133 3.7426L209.435 3.59863H209.637V4.85111H209.406V3.80018Z" fill="white"/>
<path d="M170.51 12.1214C170.51 13.9929 168.984 15.5189 167.112 15.5189C165.241 15.5189 163.715 13.9929 163.715 12.1214C163.715 10.2499 165.241 8.72388 167.112 8.72388C168.984 8.72388 170.51 10.2499 170.51 12.1214Z" fill="#7FE3A3"/>
<path d="M168.194 11.2877C168.331 10.7074 167.971 10.1258 167.391 9.98878C166.81 9.85174 166.229 10.2111 166.092 10.7915C165.955 11.3718 166.314 11.9534 166.895 12.0904C167.475 12.2275 168.056 11.8681 168.194 11.2877Z" fill="white"/>
<path d="M168.925 14.0217C168.896 13.0428 168.104 12.2654 167.111 12.2654C166.132 12.2654 165.326 13.0428 165.297 14.0217H168.925Z" fill="white"/>
<path d="M176.41 9.9043L177.13 11.3727L178.743 11.6031L177.576 12.7404L177.85 14.3383L176.41 13.5897L174.971 14.3383L175.244 12.7404L174.078 11.6031L175.69 11.3727L176.41 9.9043Z" fill="#7FE3A3"/>
<path d="M177.79 11.4592C177.013 12.8845 175.674 13.4027 175.098 13.5467L174.969 14.3385L176.408 13.5755L177.848 14.3385L177.574 12.7261L178.741 11.5888L177.79 11.4592Z" fill="#63D38B"/>
<path d="M182.371 9.9043L183.091 11.3727L184.703 11.6031L183.537 12.7404L183.811 14.3383L182.371 13.5897L180.932 14.3383L181.205 12.7404L180.039 11.6031L181.651 11.3727L182.371 9.9043Z" fill="#7FE3A3"/>
<path d="M183.751 11.4592C182.974 12.8845 181.635 13.4027 181.059 13.5467L180.93 14.3385L182.369 13.5755L183.809 14.3385L183.535 12.7261L184.702 11.5888L183.751 11.4592Z" fill="#63D38B"/>
<path d="M188.328 9.9043L189.062 11.3727L190.675 11.6031L189.494 12.7404L189.782 14.3383L188.328 13.5897L186.889 14.3383L187.162 12.7404L185.996 11.6031L187.608 11.3727L188.328 9.9043Z" fill="#7FE3A3"/>
<path d="M189.712 11.4592C188.935 12.8845 187.596 13.4027 187.02 13.5467L186.891 14.3385L188.33 13.5755L189.77 14.3385L189.496 12.7261L190.662 11.5888L189.712 11.4592Z" fill="#63D38B"/>
<path d="M194.301 9.9043L195.021 11.3727L196.633 11.6031L195.467 12.7404L195.741 14.3383L194.301 13.5897L192.861 14.3383L193.135 12.7404L191.969 11.6031L193.581 11.3727L194.301 9.9043Z" fill="#7FE3A3"/>
<path d="M195.681 11.459C194.904 12.8842 193.565 13.4025 192.989 13.5464L192.859 14.3382L194.299 13.5752L195.739 14.3382L195.465 12.7259L196.631 11.5885L195.681 11.459Z" fill="#63D38B"/>
<path opacity="0.2" d="M200.262 9.9043L200.982 11.3727L202.594 11.6031L201.428 12.7404L201.702 14.3383L200.262 13.5897L198.822 14.3383L199.096 12.7404L197.93 11.6031L199.542 11.3727L200.262 9.9043Z" fill="#63D38B"/>
<path d="M201.675 17.4915H174.984V18.3552H201.675V17.4915Z" fill="white"/>
<path d="M211.945 121.159C217.228 118.496 220.942 112.161 220.942 104.747C220.942 103.811 220.885 102.89 220.77 101.983H192.063C191.948 102.89 191.891 103.811 191.891 104.747C191.891 105.021 191.891 105.294 191.905 105.568C196.325 105.582 212.52 105.654 214.651 106.244C217.127 106.921 217.818 108.562 217.358 112.809C216.998 116.077 213.499 119.691 211.945 121.159Z" fill="#9ED7B2"/>
<path d="M211.368 126.082C211.209 125.276 211.094 124.341 211.094 123.304C211.094 122.656 211.137 122.052 211.209 121.49C216.867 119.072 220.927 112.478 220.927 104.747C220.927 103.811 220.869 102.89 220.754 101.983H192.048C191.933 102.89 191.875 103.811 191.875 104.747C191.875 112.435 195.877 118.971 201.463 121.447C201.52 121.994 201.564 122.584 201.578 123.203C201.592 124.297 201.492 125.276 201.348 126.14C195.82 128.645 191.875 135.152 191.875 142.782C191.875 143.991 191.976 145.158 192.163 146.295H220.653C220.84 145.158 220.941 143.991 220.941 142.782C220.941 135.095 216.953 128.559 211.368 126.082Z" stroke="#ACFDC9" stroke-width="14.495" stroke-miterlimit="10"/>
<path d="M211.368 126.082C211.209 125.276 211.094 124.341 211.094 123.304C211.094 122.656 211.137 122.052 211.209 121.49C216.867 119.072 220.927 112.478 220.927 104.747C220.927 103.811 220.869 102.89 220.754 101.983H192.048C191.933 102.89 191.875 103.811 191.875 104.747C191.875 112.435 195.877 118.971 201.463 121.447C201.52 121.994 201.564 122.584 201.578 123.203C201.592 124.297 201.492 125.276 201.348 126.14C195.82 128.645 191.875 135.152 191.875 142.782C191.875 143.991 191.976 145.158 192.163 146.295H220.653C220.84 145.158 220.941 143.991 220.941 142.782C220.941 135.095 216.953 128.559 211.368 126.082Z" fill="#E4FDED"/>
<path opacity="0.29" d="M211.211 146.28H220.655C220.842 145.143 220.943 143.977 220.943 142.768C220.943 135.397 217.257 129.077 212.032 126.399C212.032 126.399 220.453 134.979 211.211 146.28Z" fill="#9ED7B2"/>
<path d="M218.377 144.423C218.262 143.372 217.153 141.659 212.028 140.392C206.903 139.126 207.061 135.757 207.061 135.757C207.061 135.757 207.004 123.275 207.004 122.152C207.004 121.029 208.4 120.151 208.4 120.151C211.841 119.489 214.835 117.157 216.793 113.846C215.598 112.147 214.375 112.967 212.042 114.278C209.422 115.746 209.163 111.542 205.003 109.901C200.857 108.26 196.351 114.263 196.322 114.278C197.848 116.696 199.95 118.539 202.368 119.532H202.354C203.966 120.353 204.672 121.706 204.672 121.706V135.526C204.24 137.024 202.109 139.932 198.193 140.004C194.278 140.076 193.054 144.409 193.054 144.409L191.945 144.438C191.989 145.057 192.06 145.676 192.161 146.28H220.651C220.752 145.676 220.824 145.042 220.867 144.409H218.377V144.423Z" fill="#117234"/>
<path d="M212.617 111.557H212.502C211.854 111.557 211.336 111.038 211.336 110.391V107.108C211.336 106.46 211.854 105.942 212.502 105.942H212.617C213.265 105.942 213.783 106.46 213.783 107.108V110.391C213.783 111.038 213.265 111.557 212.617 111.557Z" fill="#FDFFFE"/>
<path d="M222.194 101.119H190.407C189.514 101.119 188.809 100.399 188.809 99.5213C188.809 98.6288 189.528 97.9233 190.407 97.9233H222.194C223.072 97.9233 223.792 98.6431 223.792 99.5213C223.792 100.399 223.072 101.119 222.194 101.119Z" fill="#28EB6E"/>
<path d="M223.791 94.7849H188.793C187.613 94.7849 186.648 95.7495 186.648 96.93C186.648 98.1105 187.613 99.075 188.793 99.075H223.791C224.971 99.075 225.936 98.1105 225.936 96.93C225.936 95.7495 224.971 94.7849 223.791 94.7849Z" fill="#1FA850"/>
<path d="M222.194 147.144H190.407C189.514 147.144 188.809 147.864 188.809 148.742C188.809 149.635 189.528 150.34 190.407 150.34H222.194C223.072 150.34 223.792 149.62 223.792 148.742C223.792 147.849 223.072 147.144 222.194 147.144Z" fill="#28EB6E"/>
<path d="M223.274 154.501H189.313C187.845 154.501 186.664 153.32 186.664 151.852C186.664 150.383 187.845 149.203 189.313 149.203H223.274C224.742 149.203 225.923 150.383 225.923 151.852C225.937 153.306 224.742 154.501 223.274 154.501Z" fill="#389F5D"/>
<path d="M139.041 113.961C135.068 113.774 131.282 112.176 128.23 109.383C128.23 109.383 126.07 102.933 129.914 94.5548C133.499 86.7377 130.936 71.7799 132.664 66.6981C132.707 66.5685 133.052 65.3016 133.095 65.1721C133.239 64.8121 133.398 64.4666 133.571 64.1211C133.858 63.5309 133.729 59.8742 134.074 59.1256C139.271 55.4834 142.885 51.9995 149.723 51.4668C151.336 51.3372 154.373 49.1058 155.035 50.819C158.721 50.7758 162.19 52.8057 164.307 56.2608C168.726 63.4733 166.984 75.2062 171.663 82.1452C174.341 86.1186 178.976 88.2349 180.07 93.4031C180.675 96.2536 180.013 99.5071 178.789 102.314C177.566 105.107 175.824 107.54 174.096 109.93C174.801 107.987 175.046 105.841 174.83 103.855C173.247 108.073 171.318 112.737 167.891 114.508C164.94 116.034 161.73 114.911 158.692 115.976C160.636 115.401 162.392 113.515 163.184 111.183C159.714 113.155 155.885 113.831 152.372 113.097C146.657 114.436 140.826 113.5 135.946 110.491C136.709 111.946 137.774 113.155 139.041 113.961Z" fill="#26332B"/>
<path d="M86.1032 76.084C84.606 76.5878 79.7401 79.8126 79.4234 80.5612C79.1067 81.3098 81.4101 86.4493 85.7433 87.3275C88.7809 87.9321 90.2062 85.4271 90.6381 84.4338C91.1131 83.3397 91.0987 83.5556 91.3003 81.0507C91.5594 78.0419 88.3922 75.8824 88.3922 75.8824C88.3922 75.8824 87.6149 75.5801 86.1032 76.084Z" fill="#B4FCCE"/>
<path d="M79.6496 81.094C79.9519 80.3598 83.9253 77.1207 85.4945 76.5304C85.6096 76.2137 85.624 75.7386 85.1202 75.2204C83.8965 73.9679 85.4081 72.0532 85.9839 72.629C86.7326 73.392 88.0282 74.515 89.3527 75.134C90.3316 75.5803 90.346 76.6456 90.6195 77.6101C90.9938 78.8914 91.4977 81.1804 91.1378 82.1738C90.7635 83.1671 88.2154 83.4118 88.2154 83.4118L85.5521 83.3831C83.6374 81.4971 81.9962 83.8437 80.2398 82.3321C79.6496 81.8427 79.5632 81.31 79.6496 81.094Z" fill="#96FBBA"/>
<path d="M78.2263 79.6974C78.4711 80.4316 79.2773 81.6841 79.9539 82.116C80.2706 82.3175 80.9904 82.3895 81.3359 82.2455C81.6958 82.116 82.3005 81.7129 82.1277 80.9931C81.8686 79.9133 81.0912 78.6609 80.1122 78.0562C79.3204 77.538 77.9384 78.848 78.2263 79.6974Z" fill="#B4FCCE"/>
<path d="M79.5664 77.9556C79.768 77.9268 79.9695 77.9412 80.1423 78.0564C81.1068 78.6611 81.8842 79.9135 82.1577 80.9932C81.006 80.2014 80.1854 79.0066 79.5664 77.9556Z" fill="#96FBBA"/>
<path d="M80.4593 76.5161C80.0418 76.948 79.8259 77.5382 80.085 78.0853C80.5025 78.9347 81.8125 80.5039 82.8347 80.7054C83.1802 80.7774 83.7848 80.7774 84.044 80.4895C84.3175 80.2015 84.4183 79.5537 84.1879 79.0786C83.7704 78.2293 82.7195 76.8472 81.8845 76.257C81.5534 76.041 80.848 76.113 80.4593 76.5161Z" fill="#B4FCCE"/>
<path d="M81.8705 76.2568C82.7055 76.847 83.7564 78.2291 84.1739 79.0785C84.2603 79.2512 84.3035 79.4384 84.3035 79.6255C84.0156 79.424 83.5981 79.0641 83.0366 78.3874C82.36 77.5956 81.9425 76.7175 81.7266 76.1704C81.7698 76.2136 81.8273 76.228 81.8705 76.2568Z" fill="#96FBBA"/>
<path d="M83.9292 74.3565C83.5549 74.083 82.6623 74.4717 82.432 74.7596C82.1441 75.0907 81.8561 75.6665 81.9713 76.1272C82.2161 77.1062 83.6701 79.1217 84.649 79.5104C85.1673 79.7119 85.9591 79.5103 86.3478 79.0209C86.7365 78.517 86.3478 77.6676 86.0455 77.2069C85.0665 75.7529 84.4763 74.7452 83.9292 74.3565Z" fill="#B4FCCE"/>
<path d="M86.4448 72.6001C86.0705 72.3266 85.178 72.7153 84.9476 73.0032C84.6597 73.3343 84.3718 73.9102 84.4869 74.3709C84.7317 75.3498 86.1857 77.3653 87.1646 77.754C87.6829 77.9555 88.4747 77.754 88.8634 77.2645C89.2521 76.7607 88.8634 75.9113 88.5611 75.4506C87.5965 74.011 87.0063 72.9888 86.4448 72.6001Z" fill="#B4FCCE"/>
<path d="M98.5693 78.2579C99.6778 78.8626 99.9513 80.4894 99.1883 81.9002C98.4109 83.3254 96.8705 83.9732 95.762 83.3686L66.5664 67.4463L69.3161 62.3069L98.5693 78.2579Z" fill="#1FA850"/>
<path d="M64.4933 62.1484L69.316 62.3068L66.5663 67.4463L63.7734 63.5017L64.4933 62.1484Z" fill="#99FFBE"/>
<path d="M67.9352 64.38L69.0581 62.3213H69.1157H69.3172L66.5819 67.4464L63.7891 63.5018L64.4081 62.3501L66.1357 64.783C66.5387 65.3877 67.4889 65.1861 67.9352 64.38Z" fill="#81EFA8"/>
<path d="M94.163 78.7328C94.5229 78.0994 94.3933 77.3508 93.8895 77.0773L70.15 64.1062C69.6462 63.8327 68.9407 64.1206 68.5952 64.7685C68.2353 65.4163 68.3649 66.1505 68.8688 66.424L92.6082 79.3951C93.1121 79.6686 93.8175 79.3807 94.163 78.7328Z" fill="#28EB6E"/>
<path d="M95.6629 76.6742L92.8556 81.7849L91.8047 81.2091L94.612 76.1128L95.6629 76.6742Z" fill="#F8FFFA"/>
<path d="M93.8058 80.0429L92.8556 81.7848L91.8047 81.209L92.7548 79.4814L93.8058 80.0429Z" fill="#CCD6D0"/>
<path d="M95.6588 76.6743L98.5669 78.2579C99.6754 78.8625 99.9489 80.4893 99.1859 81.9002C98.4085 83.3254 96.8681 83.9732 95.7596 83.3686L92.8516 81.785L95.6588 76.6743Z" fill="#117234"/>
<path d="M95.6618 76.6743L98.5698 78.2579C98.901 78.4451 99.1601 78.7186 99.3328 79.0497C99.2753 79.2369 99.1889 79.4096 99.0881 79.5968C98.3107 81.022 96.7703 81.6698 95.6618 81.0652L93.8047 80.0574L95.6618 76.6743Z" fill="#197F3E"/>
<path d="M97.6773 77.7684C96.9575 78.2147 96.1369 78.3011 95.4602 77.9268L95.0859 77.7253L95.6618 76.6743L97.6773 77.7684Z" fill="#117234"/>
<path d="M63.7734 63.5017L62.7656 62.0908L64.4932 62.1484L63.7734 63.5017Z" fill="#117234"/>
<path d="M82.8751 72.8738C80.1399 71.4198 77.8796 70.34 77.8221 70.4552C77.7501 70.5848 79.9095 71.866 82.6448 73.3201C85.3801 74.7741 87.6403 75.8538 87.6979 75.7386C87.7699 75.6234 85.6104 74.3278 82.8751 72.8738Z" fill="white"/>
<path d="M90.0611 75.4507C88.7366 74.8316 87.441 73.7231 86.6924 72.9601C86.1165 72.3699 84.6049 74.299 85.8286 75.5514C86.7212 76.4584 87.6137 77.0342 87.6137 77.0342L87.7001 78.8626C87.7001 78.8626 86.6924 79.7695 85.9294 81.0652C85.3967 81.9866 86.2461 83.7285 86.2461 83.7285L89.8164 85.8016C89.8164 85.8016 91.4575 83.5126 91.8318 82.5192C92.2061 81.5115 91.7023 79.2369 91.328 77.9412C91.04 76.9767 91.0257 75.9113 90.0611 75.4507Z" fill="#B4FCCE"/>
<path d="M130.054 113.198C130.054 113.198 106.358 110.261 101.334 106.187C96.3093 102.127 86.707 87.8459 86.707 87.8459L92.4367 82.0874C92.4367 82.0874 102.485 90.2213 107.236 97.9665C107.236 97.9665 124.411 97.6066 133.855 98.2976C137.497 98.5711 140.664 100.932 141.514 104.243C142.55 108.317 141.485 113.255 130.054 113.198Z" fill="url(#paint0_linear_6027_4867)"/>
<path opacity="0.15" d="M88.5366 86.0176C92.15 90.2933 100.946 100.774 102.832 103.84C105.207 107.713 123.721 109.052 130.329 109.527C134.144 109.8 138.607 108.677 141.716 107.67C141.184 110.65 138.376 113.255 130.07 113.212C130.07 113.212 106.374 110.275 101.349 106.201C96.325 102.141 86.7227 87.8603 86.7227 87.8603L88.5366 86.0176Z" fill="#1F2320"/>
<path d="M140.477 136.39C140.564 143.027 139.153 147.95 135.928 153.939H172.135C169.054 148.339 165.369 143.401 161.395 138.924C161.352 138.881 161.294 138.823 161.266 138.78C161.194 138.708 161.136 138.636 161.093 138.578C161.05 138.521 160.963 138.434 160.963 138.434C157.854 133.007 167.154 126.615 170.71 115.933C174.337 105.05 172.596 99.435 172.596 99.435C158.833 93.5038 150.8 92.2081 135.324 98.7872L134.863 108.202C134.863 108.202 130.746 115.602 131.264 118.899C131.811 122.181 140.405 131.208 140.477 136.39Z" fill="url(#paint1_linear_6027_4867)"/>
<path d="M153.465 96.3399L158.778 94.9722C158.893 93.6622 158.346 92.9279 158.13 88.1772C157.957 84.5781 157.698 81.4973 157.698 81.4973L145.188 84.3334C146.296 86.9967 146.642 89.9335 146.584 92.6976C146.584 92.7552 146.584 92.8128 146.584 92.8704C146.498 96.455 150.629 98.5137 153.465 96.3399Z" fill="#B4FCCE"/>
<path d="M145.188 84.3478C146.296 87.0111 146.642 89.9479 146.584 92.712C146.958 92.8848 147.318 93.0431 147.664 93.1727C149.031 93.7198 154.66 90.5094 158.144 88.1772C158.115 84.7509 157.712 81.4973 157.712 81.4973L145.188 84.3478Z" fill="#96FBBA"/>
<path d="M135.424 74.2129C135.424 74.2129 130.73 69.0014 133.135 63.8475C133.135 63.8475 135.438 62.7534 135.424 65.3016C135.409 67.8353 135.424 74.2129 135.424 74.2129Z" fill="#26332B"/>
<path d="M147.963 53.5399C140.88 53.7703 133.278 56.1888 134.128 66.9428C134.128 66.9428 136.014 77.9416 136.604 80.3314C137.194 82.7211 143.111 91.0854 148.625 90.9126C154.542 90.7111 161.149 81.9294 161.553 79.4964C161.956 77.0634 162.935 66.3382 162.935 66.3382C163.035 55.5554 155.045 53.3096 147.963 53.5399Z" fill="#B4FCCE"/>
<path d="M143.273 74.846C142.726 75.4939 142.251 76.1849 141.689 76.5448C141.502 76.6744 141.473 76.9479 141.603 77.1782C142.179 78.0996 143.662 78.9058 144.569 79.3233C144.698 79.3808 144.785 79.2081 144.669 79.1217C143.719 78.2723 143.273 77.6677 143.086 77.3366C142.985 77.1782 142.971 76.9767 143.028 76.8183C143.172 76.4584 143.446 75.7098 143.618 75.0908C143.69 74.8604 143.417 74.6733 143.273 74.846Z" fill="#88FBB1"/>
<path d="M147.273 70.297C147.201 70.1962 147.475 69.8363 148.094 69.462C148.698 69.1021 149.72 68.7854 150.814 68.8861C151.952 68.9869 152.873 69.462 153.42 69.9227C153.694 70.153 153.881 70.369 153.996 70.5417C154.097 70.7145 154.126 70.8297 154.082 70.8728C154.039 70.916 153.924 70.8872 153.751 70.8153C153.579 70.7289 153.348 70.6137 153.06 70.4841C152.499 70.2106 151.664 69.9083 150.757 69.8219C149.807 69.7355 148.972 69.9083 148.353 70.081C147.748 70.2394 147.359 70.3978 147.273 70.297Z" fill="#2B342E"/>
<path d="M141.961 70.1099C141.874 70.2107 141.529 69.9803 140.982 69.7068C140.435 69.4333 139.686 69.1309 138.779 69.0446C137.915 68.9726 137.095 69.1309 136.519 69.3037C136.231 69.3901 135.986 69.4621 135.828 69.5196C135.655 69.5628 135.54 69.5772 135.497 69.5196C135.468 69.4621 135.511 69.3613 135.641 69.2029C135.77 69.0446 135.986 68.8718 136.274 68.6846C136.864 68.3247 137.786 68.008 138.88 68.1088C139.916 68.2096 140.823 68.6847 141.327 69.1453C141.846 69.6204 142.047 70.0235 141.961 70.1099Z" fill="#2B342E"/>
<path d="M148.556 74.5008C148.527 75.3934 149.017 76.1276 149.664 76.142C150.312 76.1708 150.859 75.4654 150.888 74.5728C150.917 73.6802 150.427 72.946 149.78 72.9316C149.132 72.9172 148.585 73.6226 148.556 74.5008Z" fill="#2B342E"/>
<path d="M137.454 73.0756C137.426 73.8674 137.872 74.544 138.433 74.5584C139.009 74.5728 139.499 73.9538 139.528 73.1476C139.556 72.3558 139.11 71.6792 138.549 71.6648C137.973 71.6504 137.483 72.2694 137.454 73.0756Z" fill="#2B342E"/>
<path d="M135.595 56.088C134.285 57.9307 133.594 60.2053 133.277 62.4511C133.003 64.3946 132.96 66.3525 132.859 68.296C137.783 66.6692 141.742 64.1499 145.067 60.2773C146.162 64.337 149.458 67.5186 152.841 70.2251C156.397 73.0612 160.543 72.7876 164.776 74.5872C165.481 71.4056 166.129 70.4267 166.244 67.1731C166.388 63.171 165.74 59.0392 163.696 55.5553C161.652 52.057 158.096 49.2786 153.993 48.7315C150.221 48.2276 146.118 49.8688 144.146 52.9784C141.886 52.1578 139.05 52.7912 137.164 54.3748C136.559 54.8787 136.041 55.4546 135.595 56.088Z" fill="#26332B"/>
<path d="M144.995 58.0747C146.291 66.1654 156.786 72.9172 156.786 72.9172C155.418 72.1111 154.094 71.2185 152.841 70.2252C149.444 67.5187 146.162 64.3371 145.067 60.2773C141.742 64.1499 137.797 66.6693 132.859 68.2961C132.874 68.0513 132.888 67.821 132.903 67.5762C138.733 65.604 142.433 63.4877 144.995 58.0747Z" fill="#2F3D34"/>
<path d="M152.672 48.645C153.118 48.645 153.55 48.6738 153.982 48.7314C158.085 49.2785 161.655 52.0713 163.685 55.5552C165.729 59.0391 166.377 63.1708 166.233 67.173C166.118 70.4266 165.499 73.6369 164.779 76.8329C164.779 76.8329 164.75 68.5407 164.491 64.4521C163.901 57.6139 159.87 50.2574 152.672 48.645Z" fill="#2F3D34"/>
<path d="M135.598 56.0881C136.044 55.4546 136.562 54.8788 137.167 54.3749C139.053 52.8057 141.889 52.1723 144.149 52.9785C144.999 51.6252 146.266 50.5455 147.734 49.8113C145.819 51.3517 144.768 52.5466 144.495 54.8932C140.91 52.0283 137.354 54.5621 135.555 56.16C135.555 56.1456 135.583 56.1168 135.598 56.0881Z" fill="#2F3D34"/>
<path d="M148.266 53.2664C149.029 60.4357 151.807 65.9639 158.545 69.491C151.62 65.2585 149.417 59.3272 148.266 53.2664Z" fill="#2F3D34"/>
<path d="M162.794 67.1875C159.051 66.2085 155.653 63.8476 153.422 60.6084C155.106 64.0491 158.763 66.6692 162.794 67.1875Z" fill="#2F3D34"/>
<path d="M159.855 80.7775C161.871 80.6479 163.354 79.5106 164.146 78.5605C164.318 78.3445 164.477 78.143 164.577 77.9558C165.168 76.9625 165.384 73.4642 163.915 72.6292C162.893 72.0533 162.116 72.8595 161.756 73.4066C161.597 73.6369 161.511 73.8097 161.511 73.8097L159.855 80.7775Z" fill="#BAFFD3"/>
<path d="M159.625 80.8784C161.64 80.7489 163.354 79.5252 164.145 78.5606C164.217 78.4599 164.275 78.3735 164.333 78.2871C164.923 77.2794 165.139 73.7955 163.67 72.9605C162.835 72.4854 162.173 72.9317 161.756 73.4068C161.597 73.6371 161.511 73.8099 161.511 73.8099L159.625 80.8784Z" fill="#B4FCCE"/>
<path d="M164.331 75.4078C164.403 75.6957 164.346 75.9837 164.245 76.2572C163.827 77.4233 162.604 78.3015 161.438 79.122C161.797 78.5606 161.927 77.9128 161.869 77.2937C161.841 77.0778 161.797 76.8618 161.797 76.6459C161.812 75.7533 163.914 73.7522 164.331 75.4078Z" fill="#96FBBA"/>
<path d="M160.863 79.453C160.863 79.453 160.892 79.4386 160.935 79.4242C160.978 79.3954 161.05 79.3666 161.122 79.3234C161.281 79.2226 161.497 79.0643 161.698 78.8339C161.9 78.6036 162.087 78.2869 162.188 77.9126C162.274 77.5383 162.26 77.1064 162.058 76.6745C162.044 76.6169 162.001 76.5737 161.972 76.5161L161.943 76.4729L161.957 76.4441L162.001 76.3722C162.029 76.329 162.058 76.2858 162.087 76.2426C162.202 76.0698 162.317 75.9115 162.447 75.7675C162.576 75.6236 162.692 75.4796 162.821 75.3644C162.951 75.2349 163.066 75.1197 163.195 75.0333C163.311 74.9469 163.455 74.8893 163.57 74.8749C163.699 74.8606 163.815 74.8893 163.886 74.9325C163.958 74.9757 164.002 75.0189 164.03 75.0621C164.045 75.1053 164.045 75.1197 164.045 75.1197C164.045 75.1197 164.045 75.1053 164.045 75.0621C164.03 75.0189 164.002 74.9613 163.93 74.9038C163.858 74.8462 163.728 74.7886 163.57 74.7886C163.411 74.7886 163.224 74.8318 163.066 74.9181C162.908 75.0045 162.764 75.1053 162.605 75.2205C162.461 75.3356 162.303 75.4652 162.159 75.6236C162.015 75.7675 161.871 75.9403 161.741 76.113C161.713 76.1562 161.684 76.1994 161.641 76.2426L161.598 76.3146L161.54 76.4154L161.497 76.4873C161.511 76.5161 161.526 76.5305 161.54 76.5593L161.598 76.6601C161.626 76.7033 161.655 76.7465 161.669 76.7897C161.842 77.1496 161.885 77.5383 161.842 77.8838C161.799 78.2293 161.669 78.5316 161.526 78.7619C161.382 79.0067 161.209 79.1794 161.079 79.2946C161.022 79.3522 160.964 79.3954 160.921 79.4242C160.878 79.4386 160.863 79.453 160.863 79.453Z" fill="#6FFDA2"/>
<path d="M147.935 82.7497C147.992 82.8216 147.805 83.1096 147.359 83.4263C147.143 83.5846 146.855 83.7286 146.51 83.8582C146.164 83.9733 145.775 84.0741 145.358 84.1029C144.94 84.1317 144.537 84.1029 144.192 84.0453C143.832 83.9733 143.53 83.8726 143.285 83.7574C142.781 83.5127 142.579 83.2679 142.608 83.1815C142.651 83.0808 142.982 83.1672 143.458 83.2535C143.702 83.2967 143.976 83.3399 144.293 83.3687C144.609 83.3831 144.955 83.3975 145.315 83.3687C145.675 83.3399 146.006 83.2823 146.322 83.2103C146.625 83.1384 146.898 83.052 147.129 82.9656C147.575 82.7929 147.877 82.6633 147.935 82.7497Z" fill="#88FBB1"/>
<path opacity="0.1" d="M172.134 153.925C170.608 151.146 168.938 148.541 167.153 146.064C167.095 145.978 167.038 145.906 166.966 145.82C166.203 144.769 165.411 143.747 164.605 142.739C164.432 142.523 164.245 142.293 164.072 142.062C163.194 140.982 162.301 139.932 161.394 138.909C161.351 138.866 161.294 138.809 161.265 138.765C161.193 138.693 161.135 138.622 161.092 138.564C161.063 138.535 161.034 138.492 161.006 138.478C160.991 138.449 160.962 138.434 160.962 138.434C158.328 133.828 164.633 128.515 168.765 120.497C168.823 120.324 168.895 120.18 168.952 120.007C147.847 124.096 134.502 120.151 131.277 118.812C131.292 118.927 131.335 119.043 131.349 119.172C131.868 121.202 134.848 125.003 137.266 128.832C138.994 131.366 140.419 133.957 140.462 136.39C140.549 143.027 139.138 147.95 135.913 153.939H172.134V153.925Z" fill="black"/>
<path d="M146.325 153.925C147.145 150.139 147.563 146.309 147.563 142.321C147.563 140.925 146.872 137.844 146.066 134.274C144.986 129.494 143.777 124.081 143.964 121.476C144.281 116.984 148.83 103.581 148.873 103.452L148.268 103.25C148.081 103.811 143.647 116.854 143.316 121.447C143.129 124.139 144.352 129.61 145.432 134.432C146.195 137.815 146.915 141.011 146.915 142.336C146.915 146.309 146.498 150.139 145.663 153.939H146.325V153.925Z" fill="#68F69B"/>
<path d="M164.175 96.2245L154.112 106.475L151.104 102.242L148.325 104.69L146.41 101.897L143.099 105.424L142.797 96.0518L148.815 96.642L164.175 96.2245Z" fill="#68F69B"/>
<path d="M164.173 96.2246L159.509 89.2568L148.812 96.6421L153.75 104.013L164.173 96.2246Z" fill="#E7FFF0"/>
<path d="M146.468 91.0996L148.815 96.6422L143.574 103.135L142.797 96.0519L146.468 91.0996Z" fill="#E7FFF0"/>
<path d="M228.195 153.925H15.7923C14.1799 153.925 12.8555 155.278 12.8555 156.962C12.8555 158.632 14.1655 160 15.7923 160H228.18C229.793 160 231.117 158.647 231.117 156.962C231.117 155.278 229.807 153.925 228.195 153.925Z" fill="#AFDDC0"/>
<path d="M36.4229 128.559C35.9622 127.292 29.4839 128.89 29.4839 128.89L29.196 129.019C29.1096 128.89 29.0232 128.775 28.9368 128.645C27.6124 126.586 26.1152 123.837 25.1938 121.116C25.1938 121.116 31.9888 121.936 31.8881 120.698C31.7873 119.446 24.8771 120.094 24.8771 120.094C23.9413 116.826 23.9701 113.745 26.2879 112.176C28.2602 110.851 31.557 110.837 34.8825 111.657C34.8969 111.96 35.2136 119.071 36.6964 118.28C38.2224 117.473 35.6311 111.859 35.6311 111.859C38.9566 112.795 42.2246 114.522 44.1537 116.538C43.549 118.942 42.3254 124.312 43.3475 124.197C44.6576 124.053 44.7583 117.243 44.7583 117.243C44.8879 117.416 45.0175 117.589 45.1182 117.761C48.2134 122.584 47.1049 128.947 42.6277 131.942C38.4816 134.72 32.9246 133.655 29.6566 129.653C32.3056 129.638 36.754 129.466 36.4229 128.559Z" fill="url(#paint2_linear_6027_4867)"/>
<path opacity="0.1" d="M29.683 129.653C32.3032 129.624 36.7516 129.451 36.4205 128.559C35.9454 127.292 29.4815 128.89 29.4815 128.89L29.1936 129.02C29.1072 128.89 29.0208 128.775 28.9344 128.645C27.61 126.587 26.1272 123.837 25.1914 121.116C35.2832 128.962 44.6408 125.536 46.8578 124.542C46.6274 127.493 45.1734 130.258 42.6541 131.942C38.5079 134.72 32.9366 133.669 29.683 129.653Z" fill="black"/>
<path opacity="0.3" d="M31.9042 114.191C32.2641 114.58 32.8687 114.292 32.9551 114.018C33.0415 113.745 32.7248 113.385 32.2353 113.212C31.7458 113.039 31.2708 113.111 31.1844 113.385C31.098 113.658 31.4723 113.702 31.9042 114.191Z" fill="white"/>
<path d="M54.0879 130.776C54.6206 130.027 58.6084 132.273 58.6084 132.273L58.7811 132.417C58.8675 132.345 58.9395 132.287 59.0115 132.215C60.2495 131.092 61.7179 129.552 62.8121 127.925C62.8121 127.925 58.1765 127.22 58.4644 126.414C58.7523 125.607 63.2152 127.306 63.2152 127.306C64.4101 125.319 64.9427 123.275 63.6758 121.807C62.6105 120.569 60.4367 119.95 58.0901 119.878C58.0325 120.079 56.5641 124.715 55.7147 123.923C54.8509 123.102 57.543 119.878 57.543 119.878C55.182 119.878 52.7203 120.425 51.0791 121.404C51.0503 123.102 50.9208 126.874 50.2585 126.615C49.4091 126.27 50.5608 121.764 50.5608 121.764C50.4457 121.85 50.3305 121.936 50.2297 122.037C47.3217 124.657 46.9474 129.062 49.366 131.87C51.6118 134.475 55.4844 134.792 58.3492 132.748C56.6217 132.244 53.7136 131.308 54.0879 130.776Z" fill="url(#paint3_linear_6027_4867)"/>
<path opacity="0.1" d="M49.3642 131.856C47.8094 130.056 47.4207 127.609 48.0829 125.392C48.1117 125.478 50.3431 131.265 61.6154 129.48C60.766 130.502 59.8302 131.452 59.0097 132.201C58.9377 132.273 58.8513 132.345 58.7793 132.403L58.6066 132.259C58.6066 132.259 54.6188 130.013 54.0861 130.761C53.7118 131.294 56.6199 132.23 58.3474 132.734C55.4826 134.778 51.61 134.461 49.3642 131.856Z" fill="black"/>
<path d="M44.558 145.186L45.4361 145.316C46.559 137.283 44.9179 132.143 43.3343 129.235C42.0674 126.903 40.6566 125.607 39.9512 125.06C39.7208 124.887 39.3897 124.945 39.2457 125.204L39.0586 125.535L39.2889 125.147C39.1594 125.362 39.217 125.636 39.4041 125.78C40.0231 126.269 41.3908 127.508 42.5857 129.739C44.0973 132.517 45.6521 137.455 44.558 145.186Z" fill="#389F5D"/>
<path d="M45.7804 140.263L45.1758 140.191C45.838 134.677 47.8391 131.582 49.3939 129.955C50.6752 128.616 51.8556 128.026 52.4027 127.81C52.5611 127.738 52.7482 127.839 52.8058 128.012L52.8778 128.3C52.8634 128.3 51.395 128.746 49.797 130.43C48.3142 131.971 46.4139 134.951 45.7804 140.263Z" fill="#389F5D"/>
<path d="M38.6269 139.082H52.5337C53.7718 139.082 54.7076 140.22 54.4916 141.458L52.7209 151.924C52.4473 153.407 51.1805 154.486 49.6977 154.486H41.4774C39.9946 154.486 38.7277 153.407 38.4542 151.924L36.6834 141.458C36.4531 140.22 37.3889 139.082 38.6269 139.082Z" fill="#CAF9DB"/>
<path d="M36.6421 141.184C36.5989 140.061 37.4915 139.082 38.6288 139.082H52.5356C53.6729 139.082 54.5655 140.061 54.5223 141.184H36.6421Z" fill="#A1EBBC"/>
<path d="M38.6296 139.082H42.5022C41.2641 139.082 40.3284 140.22 40.5443 141.458L42.3151 151.924C42.5886 153.407 43.8555 154.486 45.3383 154.486H41.4657C39.9829 154.486 38.716 153.407 38.4425 151.924L36.6717 141.458C36.4558 140.22 37.3915 139.082 38.6296 139.082Z" fill="#A1EBBC"/>
<path d="M139.642 103.163L116.363 109.944L130.212 151.708L153.462 145.503L139.642 103.163Z" fill="#D8F8E3"/>
<path d="M143.357 132.086C145.373 130.344 148.756 131.999 155.796 132.33C156.501 132.359 157.278 132.417 158.113 132.503C158.142 134.547 158.229 136.606 158.07 138.636C156.271 137.758 154.702 137.383 153.636 137.902C149.548 139.917 146.107 139.874 146.107 139.874C146.107 139.874 145.833 142.149 144.451 142.508C143.069 142.868 141.155 140.982 140.276 140.608C139.384 140.234 141.342 133.828 143.357 132.086Z" fill="#B4FCCE"/>
<path d="M172.638 99.406C179.318 103.509 184.99 136.304 184.342 139.327C183.694 142.35 180.268 146.626 175.92 146.511C171.573 146.395 153.045 139.284 153.045 139.284L151.965 130.876L172.019 134.115L168.189 120.194L172.638 99.406Z" fill="url(#paint4_linear_6027_4867)"/>
<path d="M79.5226 151.665L129.334 151.463L110.834 113.443L61.0234 113.644L79.5226 151.665Z" fill="#365E44"/>
<path d="M79.4786 151.607L128.152 151.463L109.855 114.278L61.1953 114.436L79.4786 151.607Z" fill="#6DB888"/>
<path d="M109.538 114.81L61.3249 114.954L61.1953 114.436L109.855 114.278L128.152 151.463H127.692L109.538 114.81Z" fill="#6DB888"/>
<path opacity="0.2" d="M79.4805 151.607C116.594 147.058 108.287 114.81 108.287 114.81L108.748 114.278H109.842L128.125 151.463L79.4805 151.607Z" fill="#A5D7B7"/>
<path d="M79.2031 154.544L149.313 154.328V151.017L79.2031 151.233V154.544Z" fill="#7EC196"/>
<path d="M129.188 154.4L149.313 154.328V151.017L129.188 151.089V154.4Z" fill="#365E44"/>
<path d="M83.7703 119.806L70.7849 119.95L69.8203 118.093L82.8201 117.949L83.7703 119.806Z" fill="#8BCCA2"/>
<path d="M201.736 81.8426C207.286 81.8426 211.785 77.3889 211.785 71.8948C211.785 66.4008 207.286 61.947 201.736 61.947C196.186 61.947 191.688 66.4008 191.688 71.8948C191.688 77.3889 196.186 81.8426 201.736 81.8426Z" fill="#389F5D"/>
<path d="M201.003 76.6457C200.643 76.6457 200.284 76.5305 199.981 76.2857L195.288 72.4995C194.755 72.0676 194.669 71.2902 195.115 70.7576C195.547 70.2249 196.339 70.1529 196.872 70.5848L200.903 73.8384L206.474 67.576C206.935 67.0721 207.712 67.0146 208.23 67.4608C208.749 67.9071 208.792 68.6845 208.345 69.2028L202.198 76.0986C201.882 76.4585 201.435 76.6457 201.003 76.6457Z" fill="#FAFCFB"/>
<defs>
<linearGradient id="paint0_linear_6027_4867" x1="114.264" y1="113.048" x2="114.564" y2="82.3134" gradientUnits="userSpaceOnUse">
<stop stop-color="#93F9B8"/>
<stop offset="0.327" stop-color="#90F9B6"/>
<stop offset="0.594" stop-color="#86F8AF"/>
<stop offset="0.84" stop-color="#77F7A5"/>
<stop offset="1" stop-color="#68F69B"/>
</linearGradient>
<linearGradient id="paint1_linear_6027_4867" x1="131.24" y1="124.16" x2="173.023" y2="124.16" gradientUnits="userSpaceOnUse">
<stop stop-color="#93F9B8"/>
<stop offset="0.327" stop-color="#90F9B6"/>
<stop offset="0.594" stop-color="#86F8AF"/>
<stop offset="0.84" stop-color="#77F7A5"/>
<stop offset="1" stop-color="#68F69B"/>
</linearGradient>
<linearGradient id="paint2_linear_6027_4867" x1="35.596" y1="111.108" x2="35.596" y2="133.499" gradientUnits="userSpaceOnUse">
<stop stop-color="#7EF1A7"/>
<stop offset="0.202" stop-color="#7EEEA6"/>
<stop offset="0.477" stop-color="#7CE6A2"/>
<stop offset="0.793" stop-color="#74D898"/>
<stop offset="1" stop-color="#5DCD85"/>
</linearGradient>
<linearGradient id="paint3_linear_6027_4867" x1="56.0871" y1="119.872" x2="56.0871" y2="134.068" gradientUnits="userSpaceOnUse">
<stop stop-color="#7EF1A7"/>
<stop offset="0.202" stop-color="#7EEEA6"/>
<stop offset="0.477" stop-color="#7CE6A2"/>
<stop offset="0.793" stop-color="#74D898"/>
<stop offset="1" stop-color="#5DCD85"/>
</linearGradient>
<linearGradient id="paint4_linear_6027_4867" x1="184.389" y1="122.956" x2="151.954" y2="122.956" gradientUnits="userSpaceOnUse">
<stop stop-color="#93F9B8"/>
<stop offset="0.327" stop-color="#90F9B6"/>
<stop offset="0.594" stop-color="#86F8AF"/>
<stop offset="0.84" stop-color="#77F7A5"/>
<stop offset="1" stop-color="#68F69B"/>
</linearGradient>
</defs>
</svg>
