<svg width="200" height="142" viewBox="0 0 200 142" fill="none" xmlns="http://www.w3.org/2000/svg">
<g opacity="0.6">
<path d="M158.215 52.5426C157.813 48.1879 158.121 36.3501 169.461 19.8889C170.319 18.6467 170.163 16.9714 169.098 15.9064C164.474 11.2829 161.612 8.36542 159.604 6.32386C156.964 3.63199 155.759 2.40542 153.995 0.806048C152.817 -0.252703 151.035 -0.271139 149.844 0.766673C130.078 17.9664 108.124 53.507 111.301 97.0495C113.162 122.617 131.812 141.175 155.643 141.175C180.099 141.175 199.997 121.28 199.997 96.8235C199.997 73.2304 181.479 53.8823 158.215 52.5426ZM155.643 134.925C135.178 134.925 119.153 118.805 117.533 96.5979C113.959 47.6264 143.069 15.8148 151.865 7.39199C152.722 8.2373 153.702 9.23199 155.145 10.7029C156.885 12.4729 159.265 14.896 162.866 18.5095C149.1 39.7192 151.697 54.8314 152.835 56.9982C153.375 58.0267 154.483 58.7195 155.643 58.7195C176.654 58.7195 193.747 75.8123 193.747 96.8235C193.747 117.832 176.654 134.925 155.643 134.925Z" fill="#D0E9D9"/>
<path d="M47.2282 52.5426C46.8223 48.2001 47.1214 36.3713 58.4739 19.8888C59.3285 18.6466 59.1757 16.9713 58.1107 15.9063C53.4963 11.2919 50.637 8.37756 48.632 6.336C45.9832 3.63819 44.7745 2.40819 43.0107 0.806001C41.8326 -0.252751 40.0504 -0.268063 38.8604 0.763499C19.0942 17.9632 -2.86334 53.4979 0.307287 97.0494C2.1751 122.614 20.8273 141.175 44.6585 141.175C69.1154 141.175 89.0129 121.28 89.0129 96.8235C89.0129 73.2276 70.4948 53.8763 47.2282 52.5426ZM44.6585 134.925C24.1967 134.925 8.1626 118.805 6.53916 96.5947C2.97479 47.611 32.0854 15.8116 40.8804 7.39194C41.741 8.23725 42.7239 9.23819 44.1704 10.7123C45.9067 12.4822 48.2842 14.9023 51.8792 18.5094C38.1126 39.7222 40.7098 54.8313 41.8479 56.9951C42.3882 58.0235 43.4989 58.7194 44.6585 58.7194C65.6701 58.7194 82.7629 75.8122 82.7629 96.8235C82.7629 117.832 65.6701 134.925 44.6585 134.925Z" fill="#D0E9D9"/>
</g>
</svg>
