<svg width="213" height="180" viewBox="0 0 213 180" fill="none" xmlns="http://www.w3.org/2000/svg">
<path d="M204.701 145.76C202.877 152.146 200.803 157.869 197.403 163.343H8.63552C2.82985 158.864 -1.23411 151.98 0.341711 144.847C2.24929 135.724 11.8701 129.338 16.6805 121.21C19.9151 115.902 20.5786 109.847 19.8322 103.627C19.6663 102.3 19.4175 100.973 19.1687 99.729C18.671 97.2409 17.9246 94.8356 17.1781 92.4304C16.5146 90.357 15.6853 88.2006 14.9388 86.1272C12.5336 79.5751 10.0455 72.94 9.63077 66.0561C8.3867 47.8927 22.9009 29.9781 41.8108 26.2458C64.204 21.8501 87.6755 35.452 109.654 28.2364C115.128 26.4117 120.104 23.0113 123.505 18.5326C125.081 16.3762 126.408 14.054 127.071 11.4829C127.652 9.49236 126.739 5.59427 127.569 4.01845C129.891 -0.128459 140.175 -0.211401 144.239 0.120351C150.128 0.61798 155.934 2.52556 161.076 5.09664C183.718 16.2933 200.305 37.8572 207.604 62.6557C215.732 89.2788 212.414 118.805 204.701 145.76Z" fill="#F1FCF5"/>
<path d="M19.8318 103.544C20.4953 108.852 20.0806 114.16 17.8412 119.054C17.5095 119.8 17.0948 120.464 16.763 121.127H210.341C213.326 102.466 213.409 83.2243 208.433 65.0609H198.066C197.402 65.0609 196.822 65.6415 196.822 66.305V88.4494C196.822 89.7765 195.743 90.8546 194.416 90.8546H183.717C182.39 90.8546 181.312 89.7765 181.312 88.4494V61.8263C181.312 61.1628 180.732 60.5822 180.068 60.5822H175.672C175.009 60.5822 174.428 61.1628 174.428 61.8263V80.8191C174.428 82.1461 173.35 83.2243 172.023 83.2243H152.782C151.454 83.2243 150.376 82.1461 150.376 80.8191V57.5965C150.376 56.933 149.796 56.3524 149.132 56.3524H122.26C121.597 56.3524 121.016 56.933 121.016 57.5965V71.1154C121.016 72.4424 119.938 73.5206 118.611 73.5206H103.433C102.106 73.5206 101.028 72.4424 101.028 71.1154V58.0112C101.028 57.3477 100.448 56.7671 99.7841 56.7671H97.5448C96.8812 56.7671 96.3007 57.3477 96.3007 58.0112V83.639C96.3007 84.966 95.2225 86.0442 93.8955 86.0442H89.6656C88.3386 86.0442 87.2604 84.966 87.2604 83.639V73.1059C87.2604 72.1106 86.431 71.2813 85.4358 71.2813H73.4098C72.4145 71.2813 71.5851 72.1106 71.5851 73.1059V87.703C71.5851 89.03 70.5069 90.1082 69.1799 90.1082H62.2961C60.969 90.1082 59.8909 89.03 59.8909 87.703V56.85C59.8909 56.1865 59.3103 55.606 58.6468 55.606H42.1421C41.4786 55.606 40.898 56.1865 40.898 56.85V83.5561C40.898 84.8831 39.8198 85.9613 38.4928 85.9613H14.8555C15.6019 88.0348 16.3484 90.1082 17.0948 92.2646C18.5877 96.8262 19.4171 100.558 19.8318 103.544Z" fill="#CEF2DB"/>
<path d="M37.8275 27.241V123.366H33.5977V28.3192C34.9247 27.9045 36.3346 27.4898 37.8275 27.241ZM77.0572 123.283V28.485C76.9743 28.485 73.4909 27.9045 72.8274 27.7386V123.283H77.0572Z" fill="white"/>
<path d="M210.259 121.127C210.093 122.04 209.761 124.196 209.512 125.357H13.6953C14.7735 123.947 15.8517 122.537 16.6811 121.127H210.259Z" fill="white"/>
<path d="M155.437 123.367V2.77452C154.027 2.2769 152.617 1.77926 151.207 1.44751V123.367H155.437Z" fill="white"/>
<path d="M74.7383 42.6677H154.359V48.2246H74.7383V42.6677Z" fill="white"/>
<path d="M197.157 163.26C194.503 167.987 190.854 172.217 186.043 174.954C178.911 179.101 170.119 179.515 161.743 179.764C120.191 180.759 78.5556 178.603 37.4183 173.295C27.2169 171.968 16.3521 170.309 8.80469 163.26H197.157Z" fill="#DFF4E7"/>
<path d="M63.0431 15.7127C61.4673 13.971 58.9792 13.0586 56.6569 13.3075C53.2564 13.7221 51.2659 16.1274 46.5385 12.8098C45.2114 11.8975 43.9674 10.8193 42.6404 9.90699C41.2304 9.07761 39.6546 8.49705 37.9958 8.74586C36.6688 8.99467 35.5906 9.74112 34.6783 10.6534C33.8489 11.4828 32.0243 13.888 32.2731 15.6297H63.0431V15.7127Z" fill="#F1FCF5"/>
<path d="M76.4809 38.5206C74.8221 36.6959 72.2511 35.7007 69.8458 36.0324C67.8553 36.2812 65.9478 37.3594 63.8743 37.3594C60.3909 37.2765 57.9028 34.2907 55.0829 32.549C51.8483 30.5585 49.1113 30.8903 46.7061 33.2955C45.7938 34.2078 43.8862 36.613 44.218 38.5206H76.4809ZM142.5 10.0728C142.251 8.08228 143.578 5.01357 144.988 4.68182C146.398 4.35006 147.808 5.09651 149.052 6.00883C150.296 6.92114 151.54 7.91641 152.95 8.16522C156.184 8.74579 159.087 5.17945 162.322 5.01357C165.971 4.76476 169.455 8.9946 173.021 7.75053C174.597 7.16996 176.09 5.59414 177.748 5.84295C179.407 6.09177 180.568 8.16522 181.563 10.0728H142.5Z" fill="white"/>
<path d="M100.863 159.61C100.863 161.932 102.771 163.84 105.093 163.84H126.74V155.38H105.093C102.688 155.38 100.863 157.288 100.863 159.61Z" fill="#488A60"/>
<path d="M102.688 159.61C102.688 161.186 104.015 162.513 105.59 162.513H126.74V156.79H105.59C103.932 156.79 102.688 158.034 102.688 159.61Z" fill="white"/>
<path d="M126.658 156.79V157.786H105.923C104.347 157.786 103.02 159.113 103.02 160.688C103.02 160.854 103.02 161.103 103.103 161.269C102.771 160.854 102.605 160.274 102.605 159.693C102.605 158.117 103.932 156.79 105.508 156.79H126.658Z" fill="#DFF4E7"/>
<path d="M81.6211 159.61C81.6211 161.932 83.5287 163.84 85.8509 163.84H105.01C102.687 163.84 100.78 161.932 100.78 159.61C100.78 157.288 102.687 155.38 105.01 155.38H85.8509C83.5287 155.38 81.6211 157.288 81.6211 159.61Z" fill="#56AA74"/>
<path d="M105.507 168.153C105.507 170.475 103.6 172.383 101.277 172.383H81.6211V163.84H101.277C103.6 163.84 105.507 165.748 105.507 168.153Z" fill="#32DF70"/>
<path d="M103.683 168.153C103.683 169.729 102.356 171.056 100.78 171.056H81.6211V165.333H100.78C102.439 165.25 103.683 166.494 103.683 168.153Z" fill="white"/>
<path d="M103.683 168.07C103.683 168.982 103.268 169.812 102.604 170.309C102.853 169.895 103.019 169.397 103.019 168.816C103.019 167.241 101.692 165.914 100.116 165.914H81.6211V165.084H100.78C102.439 165.25 103.683 166.494 103.683 168.07Z" fill="#DFF4E7"/>
<path d="M135.282 168.153C135.282 170.475 133.374 172.383 131.052 172.383H101.277C103.6 172.383 105.507 170.475 105.507 168.153C105.507 165.831 103.6 163.923 101.277 163.923H131.052C133.374 163.84 135.282 165.748 135.282 168.153Z" fill="#51F48C"/>
<path d="M67.8531 163.094H47.5332L42.0593 148.745L40.3176 163.094H22.9006C20.6613 149.077 22.4859 132.573 22.4859 132.573H59.0616C63.2915 137.383 66.7749 156.79 67.8531 163.094Z" fill="#389F5D"/>
<path d="M98.046 73.8523C98.046 73.8523 110.404 72.0277 98.3777 76.5063C98.3777 76.5063 109.657 74.1011 98.6265 78.9945C98.6265 78.9945 108.33 76.7551 98.2119 81.5655C97.2995 81.9802 96.719 82.6437 96.0555 83.0584C95.392 83.4731 94.6455 83.8878 93.4844 84.2196C92.8209 84.4684 92.3233 84.966 92.1574 85.6295C90.8304 90.357 85.5223 109.018 80.629 111.257C74.9892 113.746 65.6172 103.876 65.6172 103.876L71.8376 96.6603L73.1646 95.0845L76.7309 98.8167C76.648 96.7432 79.9655 92.9281 82.0389 91.1034C84.1953 89.2788 85.937 80.6532 85.937 80.6532C85.937 80.6532 88.4252 75.0964 92.3233 73.0229C96.3043 71.0324 102.856 69.8713 103.188 70.8665C103.52 71.6959 103.271 72.3594 98.046 73.8523Z" fill="#86F7AF"/>
<path d="M96.1336 83.1415C95.4701 83.5562 94.7236 83.9709 93.5625 84.3026C92.899 84.5514 92.4014 85.0491 92.2355 85.7126C90.9085 90.44 85.6005 109.101 80.7071 111.34C75.0673 113.829 65.6953 103.959 65.6953 103.959L71.9157 96.7433C72.4133 96.9922 72.9109 97.241 73.4086 97.5727C74.9014 98.6509 75.8138 100.641 75.2332 102.383C74.7356 103.71 73.4915 104.871 73.7403 106.281C73.9891 107.691 75.7308 108.189 77.0578 108.521C78.3848 108.769 80.0436 108.935 80.873 107.857C81.7853 106.613 80.873 104.954 80.79 103.378C80.7071 101.554 81.8682 99.812 83.1953 98.485C84.5223 97.158 86.0152 95.914 86.7616 94.1723C87.9227 91.5182 87.0933 88.2007 88.5033 85.6296C89.2497 84.2197 90.5767 83.2244 92.1526 82.8927C93.4796 82.6439 94.8066 83.1415 96.1336 83.1415Z" fill="url(#paint0_linear_6027_4708)"/>
<path d="M90.665 80.5703C93.9825 78.9945 92.2408 76.6722 92.2408 76.6722C94.3142 76.0917 96.9683 75.7599 96.7195 74.267C96.3877 72.4424 90.7479 74.1011 88.5915 75.594C87.3474 76.5064 86.5181 78.1651 85.9375 81.2338" fill="#86F7AF"/>
<path d="M90.6602 80.5702C91.0749 80.3214 91.0749 80.4044 91.6554 79.9067C91.9872 79.6579 92.236 79.3262 92.4019 78.9944C92.7336 78.248 92.6507 77.3356 92.1531 76.6721C93.4801 76.3404 94.9729 76.0086 95.8853 75.511C96.217 75.3451 96.6317 75.0134 96.6317 74.5987C96.6317 74.4328 96.6317 74.184 96.5488 74.0181C96.217 73.5205 95.3047 73.5205 94.8071 73.5205C93.2312 73.6034 91.3237 74.2669 89.8308 74.9305C89.0843 75.2622 88.255 75.7598 87.7573 76.4233C86.6791 77.7504 86.2644 79.575 86.0156 81.2337C86.3474 79.575 86.6791 77.7504 87.7573 76.4233C88.255 75.7598 89.0843 75.2622 89.8308 74.9305C91.4066 74.184 94.5582 73.1058 96.1341 73.6864C96.6317 73.8523 96.8805 74.184 96.7976 74.6816C96.6317 75.9257 94.2265 76.2575 92.236 76.7551C92.7336 77.4186 92.8166 78.3309 92.4848 79.0774C92.3189 79.4091 91.9872 79.7409 91.7384 79.9897C91.0749 80.4044 90.9919 80.4044 90.6602 80.5702Z" fill="#59E28A"/>
<path d="M76.2288 97.6555C76.2288 101.139 69.0961 106.613 65.8616 106.53C65.6128 106.53 65.3639 106.447 65.0322 106.198C63.5393 105.286 61.6317 102.466 61.4658 102.217C61.5488 102.881 64.3687 123.781 62.7929 133.485C62.544 134.895 62.2952 136.056 61.8805 136.885C57.4019 145.926 20.5774 143.023 21.075 137.798C21.9873 127.513 23.8119 107.691 23.8119 107.691L18.6698 107.608V106.115H13.8594C14.1082 103.047 14.6888 95.4991 15.684 90.1911C16.0987 88.0347 16.5134 86.293 17.094 85.3807C17.1769 85.2978 17.1769 85.2978 17.1769 85.2148C19.748 81.3997 25.8025 77.6675 30.3641 76.0087C31.2764 75.6769 32.0228 75.4281 32.7693 75.2622C32.8522 75.2622 32.8522 75.2623 32.9351 75.1793C36.0868 74.5158 42.556 75.0134 45.7076 75.1793C50.9327 75.4281 59.3095 77.4186 63.7881 80.4874C68.4326 83.639 73.4089 90.1082 75.5653 95.4992C75.7312 95.9968 75.8971 96.4115 76.063 96.8262C76.2288 97.2408 76.2288 97.4067 76.2288 97.6555Z" fill="#4BBA73"/>
<path d="M62.7928 133.568C62.544 134.978 62.2952 136.139 61.8805 136.968C57.4019 146.008 20.5774 143.105 21.075 137.88C21.9873 127.596 23.8119 107.774 23.8119 107.774L18.6698 107.691V106.198H13.8594C14.1082 103.129 14.6888 95.5819 15.684 90.2739C16.4305 89.9422 17.1769 89.6933 17.9233 89.5275C19.8309 89.1128 21.9873 89.1957 23.729 90.108C26.383 91.518 26.7977 95.0014 27.793 97.4895C29.037 100.641 29.2859 104.125 29.12 107.442C28.8712 111.921 27.8759 116.399 27.6271 120.878C27.3783 125.523 28.0418 130.167 29.4517 134.563C29.7006 135.226 29.8664 135.89 30.3641 136.387C31.4422 137.632 33.3498 137.549 35.0086 137.383C39.4043 136.968 45.4588 139.622 48.2787 136.139C49.9374 134.148 45.0441 129.504 47.3664 128.342C48.6104 127.679 49.1081 130.499 49.8545 131.577C50.6009 132.738 51.5133 133.816 52.7573 134.48C54.0014 135.143 55.5772 135.226 56.6554 134.397C57.7336 133.568 55.826 131.826 56.7384 130.831C57.4019 130.333 60.7194 131.992 62.7928 133.568Z" fill="#4BBA73"/>
<path d="M76.2297 97.6557C73.9904 92.2647 69.0971 86.0443 64.5355 82.8927C60.0568 79.824 51.5971 77.8335 46.455 77.5847C43.8009 77.4188 38.9905 77.087 35.5901 77.3358C34.8436 77.4188 34.1801 77.5017 33.5995 77.5847C33.5166 77.5847 33.5166 77.5847 33.4337 77.6676C32.6872 77.8335 31.8579 78.0823 31.0285 78.414C26.4669 80.0728 20.4124 83.805 17.8413 87.6202C17.2607 88.4496 16.7631 90.2742 16.3484 92.5965C15.6849 96.2457 15.0214 102.217 14.6897 106.198H13.7773C14.0262 103.13 14.6067 95.4993 15.602 90.2742C16.0167 88.1178 16.5143 86.3761 17.0119 85.4638C17.0119 85.3808 17.0949 85.3808 17.0949 85.2979C19.6659 81.4828 25.7204 77.7505 30.282 76.0918C31.1114 75.76 31.9408 75.5112 32.6872 75.3453H32.936C36.0877 74.6818 42.5569 75.1795 45.7085 75.3453C50.9336 75.5941 59.3104 77.5847 63.789 80.6534C68.8482 84.0538 74.3222 91.3524 76.0639 97.0751C76.2297 97.241 76.2297 97.4069 76.2297 97.6557Z" fill="#4BBA73"/>
<path d="M54.4182 84.3027C55.8281 89.0301 59.1457 98.0704 61.5509 102.383C55.1646 93.8405 54.4182 84.3027 54.4182 84.3027ZM49.8566 76.3406L48.8613 76.9212C46.7879 78.2482 44.4656 78.9946 42.0604 78.9946C39.987 78.9946 37.8306 78.414 35.6742 77.3358C35.0936 77.087 34.596 76.7553 34.0154 76.4235L32.6055 75.5942L32.7713 75.3453H33.0202C36.1718 74.6818 42.641 75.1795 45.7926 75.3453C46.9538 75.4283 48.2808 75.5941 49.7737 75.76L49.8566 76.3406Z" fill="#45EF82"/>
<path d="M34.8438 75.0964C37.0001 71.5301 35.5902 62.324 35.5902 62.324L47.6992 67.3832C47.2845 72.1107 48.0309 75.677 48.0309 75.677C43.8011 78.2481 39.4053 77.9163 34.8438 75.0964Z" fill="url(#paint1_linear_6027_4708)"/>
<path d="M76.2279 97.6557C76.2279 101.139 69.0952 106.613 65.8606 106.53C65.6118 106.53 65.363 106.447 65.0312 106.198C65.6118 105.203 66.4412 104.457 67.3535 103.793C68.5146 103.047 69.7587 102.549 70.9199 101.885C72.081 101.305 73.3251 100.558 74.2374 99.5632C74.9009 98.8168 75.3985 97.9874 75.5644 97.0751C75.6473 96.6604 75.5644 95.9969 75.6473 95.4993C75.8132 95.9969 75.9791 96.4116 76.145 96.8263C76.2279 97.241 76.2279 97.4068 76.2279 97.6557Z" fill="#45EF82"/>
<path d="M52.2604 53.2836C52.2604 53.2836 54.2509 66.056 48.4452 69.9541C45.2936 72.1105 40.6491 71.7788 36.1704 65.1437C31.9406 58.8404 35.5069 51.5419 35.5069 51.5419L47.6159 49.4684C50.0211 49.0537 52.2604 50.8784 52.2604 53.2836Z" fill="url(#paint2_linear_6027_4708)"/>
<path d="M53.7522 52.0396C53.1716 53.8643 52.4252 55.1913 52.4252 55.1913L51.6787 52.3714C44.5461 57.0159 38.2428 52.9519 37.994 52.7861C38.0769 52.9519 39.0721 55.7718 37.3304 56.6012C35.6717 57.3477 37.7451 62.4898 36.9158 62.5728C36.1693 62.7386 36.1693 58.5088 33.7641 58.0941L33.2665 60.9969C31.276 59.587 30.3636 55.8548 30.4466 53.3666C30.4466 52.7031 30.5295 52.0396 30.6954 51.6249C31.6907 48.805 34.5106 49.8003 34.5106 49.8003C33.5982 43.3311 37.2475 40.1795 46.2048 40.843C50.7664 41.1747 55.9086 45.4875 53.7522 52.0396Z" fill="#488A60"/>
<path d="M53.7563 52.0395C53.1757 53.8641 52.4293 55.1912 52.4293 55.1912L51.6828 52.3713C44.5502 57.0158 38.2469 52.9518 37.9981 52.786C38.081 52.9518 39.0762 55.7717 37.3345 56.6011C35.6758 57.3475 37.7492 62.4897 36.9199 62.5726C36.1734 62.7385 36.1734 58.5087 33.7682 58.094L33.2706 60.9968C32.2753 60.2504 31.5289 59.0063 31.0312 57.5134C31.4459 56.684 32.1924 55.9376 33.1047 55.8547C34.017 55.7717 35.0123 56.1864 35.7587 55.7717C36.2563 55.5229 36.5881 54.8594 36.671 54.2788C36.754 53.6983 36.754 53.0348 37.0028 52.5371C37.5004 51.1272 38.9933 50.3807 40.4862 50.2978C43.389 50.1319 46.2089 52.2054 49.1118 51.7907C49.7753 51.7077 50.5217 51.4589 51.1852 51.2931C51.9316 51.2101 52.6781 51.2101 53.2587 51.5419C53.4245 51.6248 53.5904 51.7907 53.7563 52.0395Z" fill="#385141"/>
<path d="M36.0863 64.2314C35.9204 64.4803 35.5887 64.6461 35.3399 64.5632C35.0911 64.5632 34.8423 64.3144 34.6764 64.0656C34.2617 63.5679 33.847 63.0703 33.4323 62.4897C32.6859 61.3286 32.437 60.0845 32.9347 58.8405C33.2664 58.0111 33.9299 57.7623 34.4276 57.9281C34.6764 58.0111 34.8423 58.2599 35.0911 58.4258C35.5887 59.0063 35.9204 59.7528 36.0863 60.4992C36.1693 60.831 36.1693 61.0798 36.2522 61.4115C36.4181 61.8262 36.501 62.2409 36.584 62.6556C36.584 63.2362 36.4181 63.8167 36.0863 64.2314Z" fill="#86F7AF"/>
<path d="M44.8802 66.4708C44.7144 66.3879 44.5485 66.6367 44.6314 66.8026C45.0461 67.6319 45.7096 68.4613 46.8708 68.4613C48.1148 68.4613 48.6954 67.549 48.9442 66.8026C49.0272 66.6367 48.7783 66.4708 48.6125 66.5538C47.3684 66.8855 46.2073 66.8855 44.8802 66.4708Z" fill="#59E28A"/>
<path d="M44.2988 58.0112C44.8793 58.0942 45.5428 58.4259 45.7916 58.4259C46.0405 58.4259 46.0405 57.9283 45.9575 57.5136C45.9575 57.0989 45.7916 56.9331 45.3769 56.9331C43.8011 56.8501 42.1424 57.0989 40.5665 57.5966C40.2348 57.6795 39.986 57.8454 39.7372 58.0112C39.5713 58.1771 39.4054 58.4259 39.6542 58.5089C39.903 58.5918 40.2348 58.5089 40.5665 58.4259C40.8983 58.343 41.313 58.343 41.6447 58.2601C43.0547 58.0942 43.7182 57.9283 44.2988 58.0112ZM48.4457 56.9331C48.6945 56.6013 49.8556 56.8501 50.4362 57.016L52.1779 57.5136C52.5926 57.5966 52.6755 57.6795 52.7584 58.1771C52.7584 58.343 52.8414 58.5918 52.6755 58.6748C52.5096 58.8406 52.1779 58.6748 52.012 58.5918C51.0997 58.2601 50.1874 58.5918 49.275 58.5918C48.8604 58.5918 48.6945 58.4259 48.5286 58.0942C48.4457 57.6795 48.3627 57.0989 48.4457 56.9331ZM42.64 60.1676C42.5571 60.5823 42.8888 60.997 43.3035 60.997C43.7182 61.08 44.1329 60.7482 44.1329 60.3335C44.2158 59.9188 43.8841 59.5041 43.4694 59.5041C43.0547 59.5041 42.64 59.7529 42.64 60.1676Z" fill="#11331D"/>
<path d="M44.9636 60.3334C44.466 60.0846 43.9683 59.9187 43.4707 59.6699H43.6366C43.2219 59.8358 42.8901 60.0846 42.4754 60.1675C42.0608 60.3334 41.6461 60.4163 41.1484 60.3334C41.4802 60.0016 41.8949 59.8358 42.3096 59.6699C42.7243 59.504 43.139 59.4211 43.5536 59.3381C43.6366 59.3381 43.5536 59.3381 44.9636 60.3334ZM49.6081 60.914C49.5252 61.3286 49.8569 61.7433 50.2716 61.7433C50.6863 61.8263 51.101 61.4945 51.101 61.0798C51.1839 60.6651 50.8522 60.2505 50.4375 60.2505C50.0228 60.1675 49.6911 60.4993 49.6081 60.914Z" fill="#11331D"/>
<path d="M50.6044 60.997C50.6044 61.0799 50.6874 61.2458 50.7703 61.2458C50.8532 61.2458 51.0191 61.1628 51.0191 61.0799C51.0191 60.997 50.9362 60.8311 50.8532 60.8311C50.6874 60.8311 50.6044 60.914 50.6044 60.997ZM43.5547 60.1676C43.5547 60.2505 43.6376 60.4164 43.7206 60.4164C43.8035 60.4164 43.9694 60.3335 43.9694 60.2505C43.9694 60.1676 43.8864 60.0017 43.8035 60.0017C43.6376 60.0017 43.5547 60.0846 43.5547 60.1676Z" fill="#FCFCFC"/>
<path d="M51.9284 61.0799C51.4308 60.831 50.9332 60.6652 50.4356 60.4164H50.6014C50.1867 60.5822 49.855 60.831 49.4403 60.914C49.0256 61.0799 48.6109 61.1628 48.1133 61.0799C48.445 60.7481 48.8597 60.5822 49.2744 60.4164C49.6891 60.2505 50.1038 60.1675 50.5185 60.0846C50.6014 60.0017 50.6014 60.0017 51.9284 61.0799C52.0114 61.0799 52.0114 60.9969 51.9284 61.0799Z" fill="#11331D"/>
<path d="M45.624 62.6555C45.541 62.6555 45.4581 62.6555 45.541 62.7385C45.7069 63.2361 45.8728 63.6508 46.2045 63.8996C46.5363 64.2313 47.1168 64.3143 47.4486 64.0655C47.8633 63.7337 48.195 63.0702 47.9462 62.9043C47.7803 62.8214 47.4486 63.402 47.1998 63.402C46.1216 63.4849 45.7898 62.7385 45.624 62.6555ZM33.8467 61.7432C33.3491 60.5821 33.6809 59.338 34.9249 59.1721C35.0079 59.1721 35.0079 59.1721 35.0079 59.255C35.0079 59.338 35.0079 59.338 34.9249 59.338C34.6761 59.338 34.5102 59.4209 34.3444 59.5039C34.0126 59.6697 33.8467 60.0844 33.7638 60.4991C33.6809 60.8309 33.7638 61.2456 33.9297 61.6603C34.0126 61.4114 34.1785 61.2456 34.5102 61.0797C34.5932 61.0797 34.6761 60.9968 34.7591 60.9968C34.842 60.9968 35.0079 61.0797 35.0079 61.1626C35.0079 61.2456 35.0079 61.2456 34.9249 61.2456C34.842 61.2456 34.842 61.2456 34.842 61.1626L34.7591 61.0797C34.6761 61.0797 34.4273 61.1626 34.2614 61.3285C34.1785 61.4114 34.0956 61.6603 34.0956 61.8261C34.2614 62.075 34.4273 62.4067 34.5932 62.6555V62.7385H34.5102" fill="#59E28A"/>
<path d="M35.9231 51.1273C35.8402 51.0444 33.6009 49.3856 32.1909 50.4638C31.4445 51.0444 30.8639 52.1226 30.4492 53.3666C30.4492 52.7031 30.5322 52.0396 30.698 51.6249C31.6933 48.805 34.5132 49.8003 34.5132 49.8003C35.0938 50.0491 35.6743 50.5467 35.9231 51.1273Z" fill="#385141"/>
<path d="M69.1833 104.042L61.8018 127.348C61.6359 128.011 60.8895 128.509 60.3089 128.509H46.79C46.1265 128.509 45.7947 128.011 46.0435 127.348L53.425 104.042C53.5909 103.378 54.3374 102.881 54.9179 102.881H68.4368C69.1003 102.881 69.4321 103.378 69.1833 104.042Z" fill="#4C755B"/>
<path d="M56.2401 102.881C55.5766 102.881 54.9131 103.378 54.7472 104.042L47.3657 127.348C47.1999 128.011 47.5316 128.509 48.1951 128.509H46.8681C46.2046 128.509 45.8729 128.011 46.1217 127.348L53.5032 104.042C53.669 103.378 54.4155 102.881 54.9961 102.881H56.2401ZM67.4368 104.623L65.3633 111.092C65.3633 111.175 65.1974 111.258 65.1145 111.258H62.7093C62.6264 111.258 62.5434 111.175 62.5434 111.092L64.6169 104.623C64.6169 104.54 64.7827 104.457 64.8657 104.457H67.2709C67.4368 104.457 67.5197 104.54 67.4368 104.623Z" fill="#11331D"/>
<path d="M66.198 105.866C66.115 106.198 65.7833 106.447 65.4515 106.447C65.1198 106.447 64.9539 106.198 65.1198 105.866C65.2027 105.535 65.5345 105.286 65.8662 105.286C66.115 105.286 66.2809 105.535 66.198 105.866Z" fill="#4C755B"/>
<path d="M65.6112 106.115C65.4453 106.115 65.4453 106.032 65.4453 105.866C65.5283 105.701 65.6112 105.618 65.7771 105.618C65.9429 105.618 65.9429 105.701 65.9429 105.866C65.86 106.032 65.6941 106.115 65.6112 106.115Z" fill="#11331D"/>
<path d="M65.612 107.857C65.5291 108.189 65.1973 108.437 64.8656 108.437C64.5338 108.437 64.3679 108.189 64.5338 107.857C64.6168 107.525 64.9485 107.276 65.2803 107.276C65.5291 107.276 65.695 107.525 65.612 107.857Z" fill="#4C755B"/>
<path d="M64.951 108.106C64.7852 108.106 64.7852 108.023 64.7852 107.857C64.8681 107.691 64.951 107.608 65.1169 107.608C65.2828 107.608 65.2828 107.691 65.2828 107.857C65.1998 108.023 65.1169 108.106 64.951 108.106Z" fill="#11331D"/>
<path d="M64.9519 109.848C64.8689 110.179 64.5372 110.428 64.2054 110.428C63.8737 110.428 63.7078 110.179 63.8737 109.848C63.9566 109.516 64.2884 109.267 64.6201 109.267C64.9519 109.267 65.0348 109.516 64.9519 109.848Z" fill="#4C755B"/>
<path d="M64.2909 110.096C64.125 110.096 64.125 110.013 64.125 109.847C64.2079 109.682 64.2909 109.599 64.4567 109.599C64.6226 109.599 64.6226 109.682 64.6226 109.847C64.6226 110.013 64.4567 110.096 64.2909 110.096Z" fill="#11331D"/>
<path d="M52.9259 119.883C52.76 119.883 51.8477 119.8 51.6818 119.717C59.478 121.127 54.4187 121.874 50.8524 121.459C57.9021 122.454 53.8382 123.45 50.2718 123.284C51.433 123.45 52.9259 123.781 52.9259 124.279C52.9259 124.694 51.6818 125.108 50.023 125.357C49.6083 125.44 49.1107 125.523 48.696 125.606C46.7884 125.938 46.042 125.938 45.2955 126.518C44.2174 127.016 39.324 127.845 37.4994 128.011C28.625 128.675 19.9994 127.928 16.516 122.952C14.1108 119.634 14.1938 112.419 14.9402 105.784H27.8785C27.8785 107.028 27.8785 108.272 27.7956 109.433V109.765C27.6297 112.833 27.6297 114.326 26.9662 117.81C34.8454 119.137 40.1534 118.888 40.5681 118.722C41.3975 118.39 43.6368 115.985 45.0467 115.819C46.7055 115.653 49.2766 113.663 49.6913 113.165C50.106 112.668 51.0183 111.506 50.8524 113.497C50.7695 115.487 48.1154 117.312 48.1154 117.312C48.4472 117.395 56.3263 118.722 56.0775 119.468C55.8287 120.215 53.4235 119.883 52.9259 119.883Z" fill="#86F7AF"/>
<path d="M50.8509 113.497C50.7679 112.336 50.0215 113.331 49.6897 113.746C49.2751 114.243 46.704 116.234 45.0452 116.4C43.6353 116.566 41.3959 118.888 40.5666 119.303C40.1519 119.468 32.3557 119.303 24.4766 117.976C25.7206 117.893 26.3841 117.81 26.9647 117.81C34.7609 119.137 40.1519 118.888 40.5666 118.722C41.3959 118.39 43.6353 115.985 45.0452 115.819C46.704 115.653 49.2751 113.663 49.6897 113.165C50.1044 112.75 51.0168 111.506 50.8509 113.497Z" fill="#BCFED4"/>
<path d="M50.023 125.357C49.6083 125.44 49.1107 125.523 48.696 125.606C46.7884 125.938 46.042 125.938 45.2955 126.518C44.2174 127.016 39.324 127.845 37.4994 128.011C28.625 128.675 19.9994 127.928 16.516 122.952C14.1108 119.634 14.1938 112.419 14.9402 105.784H27.8785C27.8785 107.608 27.7956 109.433 27.7956 109.765C26.6345 110.345 25.3904 110.594 24.1463 110.345C23.0681 110.179 22.1558 109.765 21.0776 109.433C20.0824 109.184 18.9212 109.101 18.0089 109.682C16.516 110.594 16.2672 112.668 16.2672 114.492C16.2672 116.483 16.3502 118.805 17.926 120.049C19.17 120.961 20.8288 120.961 22.3217 121.127C25.8051 121.542 28.9567 123.284 32.1913 124.694C35.4259 126.104 39.0752 127.016 42.3927 125.938C43.4709 125.606 44.3832 125.025 45.3785 124.694C46.3737 124.279 47.5349 124.113 48.6131 124.445C49.1936 124.611 49.6913 124.942 50.023 125.357Z" fill="url(#paint3_linear_6027_4708)"/>
<path d="M28.7885 88.5323L16.2648 87.7029C14.6061 93.8403 13.4449 99.1483 13.6937 105.949C13.7767 108.437 26.5491 108.769 28.3738 107.027C32.0231 103.461 28.7885 88.5323 28.7885 88.5323Z" fill="#4BBA73"/>
<path d="M28.2908 107.11C25.471 108.852 13.7767 108.272 13.6937 105.949C13.4449 99.1483 14.6061 93.8403 16.2648 87.7029L17.7577 87.7858C16.1819 93.7574 14.1914 98.9825 14.5231 105.618C14.6061 107.774 25.3051 107.857 28.2908 107.11Z" fill="#45EF82"/>
<path d="M142.578 147.916C142.578 147.916 142.827 151.068 147.969 150.819C153.111 150.57 151.867 145.511 151.867 145.511C151.867 145.511 143.656 146.091 142.578 147.916Z" fill="#AEFFCB"/>
<path d="M186.787 163.26H164.228V154.883L158.671 163.26H141.254C141.669 161.518 139.927 169.231 144.571 147.916L189.109 146.423C191.929 155.215 186.787 163.26 186.787 163.26Z" fill="#389F5D"/>
<path d="M124.998 90.4399C124.915 91.1034 124.75 91.601 124.667 92.0157C124.584 92.3475 124.501 92.5134 124.501 92.5134L119.027 95.5821C119.027 95.5821 116.705 92.6792 108.411 91.9328C106.503 91.7669 105.093 91.5181 104.098 91.3522C100.615 90.6058 101.444 89.6105 101.859 89.6105C102.356 89.6105 105.342 89.4447 105.342 89.4447C100.2 88.4494 100.283 86.7906 102.273 86.8736C104.098 86.9565 106.337 87.1224 106.669 87.2053C101.776 86.1271 102.025 83.7219 104.43 84.3025C106.835 84.8831 109.655 85.2977 109.655 85.2977C103.683 83.2243 106.586 82.1461 109.655 82.8096C112.724 83.4731 117.202 85.4636 117.202 85.4636C116.207 82.229 117.368 80.3215 118.529 80.6532H118.612C119.856 81.0679 120.52 85.3807 123.506 86.7077C124.998 87.3712 125.164 89.03 124.998 90.4399Z" fill="#86F7AF"/>
<path d="M116.542 85.1319C117.537 85.5466 118.947 86.376 118.947 86.5418C118.947 86.5418 112.146 83.639 109.078 82.9755C108 82.7267 106.838 82.7267 106.258 82.8926C106.673 82.4779 108.082 82.3949 109.575 82.7267C111.981 83.2243 115.215 84.5513 116.542 85.1319Z" fill="#BCFED4"/>
<path d="M124.999 90.4399C124.916 91.1034 124.75 91.601 124.667 92.0157C124.584 92.3474 124.501 92.5133 124.501 92.5133L119.027 95.582L124.086 92.7621L124.252 92.2645C124.335 91.8498 124.501 91.2693 124.584 90.6887C124.75 89.2787 124.584 87.62 123.008 86.9565C120.022 85.6295 119.359 81.3167 118.115 80.902H118.032C117.866 80.8191 117.7 80.8191 117.617 80.902C117.866 80.6532 118.198 80.5702 118.529 80.6532H118.612C119.857 81.0679 120.52 85.3806 123.506 86.7077C124.999 87.3712 125.165 89.0299 124.999 90.4399Z" fill="#BCFED4"/>
<path d="M124.998 90.4399C124.915 91.1034 124.749 91.6011 124.666 92.0158C124.583 92.3475 124.5 92.5134 124.5 92.5134L119.027 95.5821C119.027 95.5821 116.704 92.6793 108.41 91.9328C106.503 91.767 105.093 91.5181 104.098 91.3523C104.678 91.1035 105.01 91.1864 108.742 90.8546C110.318 90.6888 111.894 90.6058 113.387 91.1034C114.631 91.5181 115.709 92.3475 116.953 92.7622C118.778 93.3428 123.339 91.3523 124.998 90.4399Z" fill="url(#paint4_linear_6027_4708)"/>
<path d="M155.352 83.7222V101.803C155.352 101.803 153.528 105.784 150.293 110.179C146.727 114.99 141.501 120.215 135.115 121.044C125.08 122.371 122.343 108.935 119.44 100.724C118.776 98.9828 118.196 97.407 117.449 96.3288C116.039 94.1724 124.333 90.1084 126.407 91.5184C129.641 93.6747 135.198 106.281 135.198 106.281C145.483 85.4639 155.352 83.7222 155.352 83.7222Z" fill="#4BBA73"/>
<path d="M150.212 110.179C146.646 114.99 141.421 120.215 135.035 121.044C124.999 122.371 122.262 108.935 119.359 100.724C119.525 100.724 119.857 100.89 120.189 101.305C121.101 102.466 121.599 104.125 122.179 105.452C122.843 106.945 123.506 108.521 124.17 110.013C124.999 111.838 125.829 113.746 127.404 114.907C128.731 115.985 130.473 116.4 132.132 116.731C134.288 117.146 136.528 117.561 138.684 117.146C141.753 116.566 144.407 114.492 146.065 111.838C147.724 109.184 148.554 106.115 148.802 102.964C149.632 105.369 150.129 107.774 150.212 110.179Z" fill="#6FF9A1"/>
<path d="M193.838 75.5111C193.755 75.8429 193.59 76.1746 193.424 76.5064C192.511 78.331 190.604 79.9068 190.936 81.8973C191.101 82.8926 191.848 83.8049 192.097 84.8002C192.677 86.7907 191.35 88.8641 189.609 89.8594C187.867 90.8547 185.71 91.0205 183.637 91.1035C178.412 91.2693 173.27 91.1035 168.045 90.5229C165.888 90.2741 163.649 89.9423 161.658 89.1129C160.248 88.5324 158.921 87.703 157.594 86.9566C156.848 86.5419 156.102 86.1272 155.355 85.7954C153.199 84.8831 150.628 86.7907 148.554 85.7954C148.305 85.7125 148.139 85.5466 147.974 85.2978C147.227 84.1367 148.139 81.8144 147.974 80.2386C147.808 78.331 147.559 76.3405 148.305 74.5159C148.886 73.023 149.964 71.8618 150.462 70.3689C151.789 66.9685 149.881 63.1533 149.798 59.5041C149.798 56.7671 150.876 53.9472 152.867 52.0396C154.857 50.0491 157.594 48.9709 160.331 48.9709L161.493 48.6392C161.575 48.3903 161.741 48.2245 161.824 47.9757C163.151 45.9022 165.639 44.7411 168.128 44.5752C170.865 44.4093 173.519 45.2387 176.007 46.234C179.656 47.6439 183.305 49.6344 185.047 53.1178C187.037 57.0989 185.876 62.241 188.282 66.0562C189.277 67.632 190.77 68.8761 192.014 70.286C193.341 71.7789 194.253 73.6865 193.838 75.5111Z" fill="#56AA74"/>
<path d="M162.732 77.4185C162.732 78.8285 162.732 80.3214 162.151 81.5654C161.654 82.6436 161.073 83.2242 157.59 86.8735C156.843 86.4588 156.097 86.0441 155.35 85.7123C153.194 84.8 150.623 86.7076 148.549 85.7123C148.301 85.6294 148.135 85.4635 147.969 85.2147C148.715 84.3024 149.545 83.473 150.623 82.8924C151.95 82.2289 153.526 82.2289 154.936 81.7313C156.346 81.3166 157.838 80.2384 157.921 78.7455C158.004 77.8332 157.507 77.0038 156.926 76.3403C156.346 75.6768 155.599 75.0963 155.018 74.4328C153.609 72.774 153.194 70.4517 153.36 68.2953C153.443 67.1342 153.691 65.9731 154.023 64.8949C154.106 64.6461 154.272 63.5679 154.604 63.5679C154.936 63.5679 155.101 64.3143 155.267 64.5631C156.18 66.1389 157.59 67.466 159.331 68.1295C160.327 68.5442 161.571 68.71 162.234 69.5394C162.815 70.2859 162.815 71.2811 162.815 72.1934C162.732 74.101 162.732 75.7598 162.732 77.4185Z" fill="#488A60"/>
<path d="M160.495 78.4967C160.744 80.5702 159.417 82.4777 157.675 83.7218C156.016 84.9659 154.026 85.7123 152.284 86.8735C151.454 87.3711 150.708 88.1175 150.625 89.1128C150.542 89.9422 151.123 90.7716 151.869 91.1862C152.616 91.6009 153.445 91.7668 154.357 91.9327C160.578 92.928 166.881 93.2597 173.101 93.0938C174.843 93.0109 176.751 92.9279 178.326 92.0156C180.649 90.7716 181.976 88.1175 182.059 85.4635C182.059 82.8095 180.897 80.2384 179.239 78.2479C174.677 72.774 167.462 71.6129 164.227 66.4707C162.485 63.7337 162.236 60.3333 162.071 57.0987C162.071 56.684 158.504 58.6745 158.255 58.8404C157.343 59.5039 156.845 59.9186 156.514 61.0797C155.601 63.8167 155.518 66.8024 156.182 69.6223C157.426 74.5986 160.163 75.7598 160.495 78.4967Z" fill="#488A60"/>
<path d="M176.668 64.2315C178.243 65.1438 179.405 66.8026 179.653 68.6272C179.902 70.4518 179.239 72.3594 177.912 73.6035C176.916 74.5158 175.755 75.0964 174.677 75.8428C173.599 76.5893 172.687 77.8333 172.77 79.0774C172.852 80.0727 173.516 80.985 174.262 81.5656C175.092 82.1461 176.004 82.5608 176.916 82.9755C178.824 83.8049 180.566 84.8831 182.224 86.2101C182.971 86.7906 183.634 87.3712 184.132 88.1177C184.63 88.8641 184.878 89.8594 184.63 90.6887C184.298 91.8499 183.137 92.5963 182.059 93.0939C178.907 94.5039 175.258 94.5868 172.023 93.3428C168.788 92.0987 166.134 89.6105 164.642 86.5418C163.978 85.1319 163.563 83.4731 163.729 81.8973C164.061 79.0774 166.217 76.6722 166.134 73.8523C166.052 71.9447 164.973 70.203 164.144 68.4613C162.651 65.3097 162.236 61.8263 161.988 58.2599C161.905 57.1817 161.656 55.7718 161.905 54.6936C162.9 54.9424 163.978 55.9377 164.807 56.5183C165.803 57.0988 166.715 57.7623 167.71 58.3429C168.125 58.7576 176.253 63.8997 176.668 64.2315Z" fill="#488A60"/>
<path d="M191.185 147.916C173.27 145.677 153.614 153.722 142.5 147.916C142.915 147.004 143.495 145.843 144.159 144.516C147.227 137.963 151.872 126.352 149.716 113.58C146.232 93.0939 148.14 89.3617 152.618 85.4636C154.36 83.9707 156.599 82.8925 158.839 82.229C161.99 81.2338 164.644 81.0679 164.644 81.0679C168.874 81.0679 172.026 81.8143 174.348 82.8096C174.929 83.0584 175.426 83.3072 175.924 83.639C180.486 86.293 180.9 90.1081 180.9 90.1081V90.1911C181.564 91.8498 195.166 136.968 191.185 147.916Z" fill="#4BBA73"/>
<path d="M191.185 147.916C173.27 145.677 153.614 153.722 142.5 147.916C142.915 147.004 143.495 145.842 144.159 144.515C148.554 144.598 152.453 142.359 156.765 141.613C161.493 140.866 166.22 141.944 170.948 142.691C175.675 143.437 180.734 143.603 184.881 141.198C185.794 140.617 186.706 139.954 187.204 139.042C187.784 138.129 187.867 136.885 187.287 135.973C186.623 134.895 185.296 134.48 184.052 134.397C182.808 134.314 181.564 134.48 180.32 134.231C179.076 133.982 177.915 133.07 177.832 131.826C178.827 132.158 179.905 132.489 180.9 132.406C181.979 132.241 182.974 131.411 182.974 130.416C182.974 129.255 181.979 128.508 181.149 127.679C179.988 126.601 179.076 125.357 178.495 123.864C177.583 121.707 177.334 119.219 177.168 116.897C177.168 116.565 177.085 116.234 177.085 115.819C176.505 108.106 175.924 100.309 177.002 92.6791C178.412 91.7668 179.49 90.8545 180.983 90.2739C181.564 91.8497 195.166 136.968 191.185 147.916Z" fill="#4BBA73"/>
<path d="M178.326 132.738L158.089 137.217L152.283 111.257L149.215 109.93L149.049 108.852C148.883 107.857 149.546 106.862 150.542 106.613L172.189 102.051C173.267 101.802 174.262 102.466 174.428 103.544L179.736 130.416C179.985 131.577 179.321 132.572 178.326 132.738Z" fill="#45EF82"/>
<path d="M152.617 107.94L171.112 103.959C172.19 103.71 173.268 104.457 173.517 105.535L178.908 131.328C179.157 132.407 178.411 133.485 177.415 133.734L157.344 138.212L151.207 110.345C150.875 109.267 151.539 108.189 152.617 107.94Z" fill="white"/>
<path d="M149.215 110.013L170.115 105.535C171.193 105.286 172.272 106.032 172.52 107.11L177.828 133.817C178.077 134.895 177.331 135.89 176.336 136.139L158.172 140.203C157.094 140.452 156.016 139.788 155.767 138.71L149.215 110.013Z" fill="#75FFA7"/>
<path d="M176.337 131.494H176.089C175.757 131.66 175.425 131.826 175.093 131.909C173.269 132.821 170.366 133.485 168.292 133.734C167.712 133.816 164.228 134.314 163.897 133.816C163.565 133.236 165.224 132.904 166.385 132.158C162.901 133.07 157.925 132.241 162.818 130.665C159.75 131.411 157.096 130.001 163.648 128.343C162.735 128.508 159.999 128.923 159.75 128.094C159.418 126.933 166.965 125.44 166.965 125.44C166.965 125.44 161.574 123.366 161.823 122.205C162.155 120.546 172.522 123.947 174.596 123.117L176.337 131.494Z" fill="#86F7AF"/>
<path d="M176.338 131.494H176.089C175.757 131.66 175.425 131.826 175.093 131.909C172.688 133.07 168.044 133.983 165.473 134.066C165.804 133.568 166.468 133.402 167.131 133.236C169.039 132.821 170.864 132.075 172.522 131.163C173.186 130.831 173.849 130.333 174.015 129.67C174.181 129.089 173.932 128.509 173.601 128.011C173.269 127.513 172.854 127.099 172.605 126.518C172.025 125.44 172.274 124.113 172.937 123.201C173.684 123.284 174.264 123.201 174.596 123.118L176.338 131.494Z" fill="url(#paint5_linear_6027_4708)"/>
<path d="M186.126 89.279C182.56 85.7956 178.164 83.9709 174.432 83.0586C174.432 83.0586 171.861 88.1178 174.432 96.0799C176.422 102.217 188.034 117.976 188.034 117.976C188.034 117.976 178.993 120.298 175.012 122.205C172.773 123.367 173.851 132.407 176.339 132.241C187.951 131.66 202.299 131.494 204.621 124.196C206.944 116.98 193.839 96.7434 186.126 89.279Z" fill="#4BBA73"/>
<path d="M178.244 69.5397C177.663 71.2814 176.336 72.4425 175.258 72.1107C173.516 76.1747 170.282 78.8287 166.632 78.8287C161.158 78.8287 156.68 72.6913 156.68 65.1439C156.68 63.2364 157.011 61.4117 157.509 59.67C161.49 58.5918 161.656 55.4402 161.656 55.4402C161.656 55.4402 163.481 60.1677 170.53 62.407C176.668 64.3146 176.17 66.1392 175.921 66.5539C176.17 66.2221 177.165 64.8122 178.244 66.6368C178.575 67.3833 178.575 68.4615 178.244 69.5397Z" fill="#86F7AF"/>
<path d="M176.088 83.722C174.429 87.2883 170.78 89.6106 166.882 89.6106C165.803 89.6106 164.725 89.4447 163.73 89.1129C160.744 88.1177 158.339 85.7954 157.344 82.8926C157.924 82.6438 158.505 82.4779 159.003 82.312C162.154 81.3168 164.808 81.1509 164.808 81.1509C169.038 81.1509 172.19 81.8973 174.512 82.8926C175.01 83.1414 175.59 83.3902 176.088 83.722Z" fill="white"/>
<path d="M174.427 82.8924C173.576 84.7632 172.064 86.2543 170.182 87.0806C168.3 87.9068 166.18 88.0103 164.226 87.3711C161.738 86.5417 159.83 84.6342 158.918 82.2289C160.908 81.6484 162.318 79.7408 162.318 77.6674V77.5844C164.89 79.2432 167.792 79.3261 170.446 77.8332C170.612 77.7503 170.778 77.6673 170.944 77.5015V78.2479C170.944 80.2384 172.188 81.9801 174.013 82.7266C174.179 82.8095 174.344 82.8095 174.427 82.8924Z" fill="#86F7AF"/>
<path d="M193.837 75.5112C193.754 75.843 193.589 76.1747 193.423 76.5065C192.51 74.1842 190.686 72.0279 188.861 70.2032C186.124 67.3833 183.055 64.6464 182.06 60.8312C181.48 58.426 181.728 55.8549 180.982 53.5326C179.821 50.0492 176.255 47.8099 172.605 47.2294C171.112 46.9805 169.537 46.9805 168.044 47.1464C166.717 47.3123 165.39 47.5611 164.063 47.8929C163.399 48.0587 162.404 48.5564 161.906 48.1417C163.233 46.0682 165.721 44.9071 168.21 44.7412C170.947 44.5753 173.601 45.4047 176.089 46.4C179.738 47.8099 183.387 49.8004 185.129 53.2838C187.119 57.2649 185.958 62.407 188.364 66.2222C189.359 67.798 190.852 69.0421 192.096 70.452C193.34 71.779 194.252 73.6866 193.837 75.5112ZM165.804 64.7293C166.053 64.9781 166.8 64.8122 168.375 64.2317C170.283 63.5682 172.191 65.061 172.191 65.061C172.274 65.144 172.439 64.9781 172.356 64.8952C170.864 63.2364 169.122 62.49 167.629 62.7388C166.8 62.9047 166.136 63.4023 165.804 64.0658C165.721 64.3146 165.638 64.5634 165.804 64.7293Z" fill="#488A60"/>
<path d="M163.398 69.1249C163.398 69.7884 163.896 70.286 164.394 70.286C164.974 70.286 165.389 69.7884 165.389 69.1249C165.389 68.4614 164.891 69.3737 164.311 69.3737C163.813 69.3737 163.398 68.4614 163.398 69.1249Z" fill="#59E28A"/>
<path opacity="0.3" d="M158.09 69.9542C158.09 70.4518 158.67 70.8665 159.334 70.8665C159.997 70.8665 160.578 70.4518 160.578 69.9542C160.578 69.4566 159.997 69.0419 159.334 69.0419C158.67 69.0419 158.09 69.4566 158.09 69.9542ZM168.623 69.9542C168.623 70.5348 169.369 71.0324 170.365 71.0324C171.36 71.0324 172.106 70.5348 172.106 69.9542C172.106 69.3736 171.36 68.876 170.365 68.876C169.369 68.793 168.623 69.2907 168.623 69.9542Z" fill="#50DA82"/>
<path d="M168.124 66.7197C168.207 67.2174 168.622 67.6321 169.119 67.5491C169.617 67.4662 170.031 67.0515 169.949 66.5539C169.866 66.0562 169.451 65.6415 168.953 65.7245C168.456 65.7245 168.041 66.1392 168.124 66.7197Z" fill="#11331D"/>
<path d="M168.457 66.8025C168.457 66.9684 168.623 67.0513 168.706 67.0513C168.872 67.0513 168.955 66.8855 168.955 66.8025C168.955 66.6367 168.789 66.5537 168.706 66.5537C168.54 66.5537 168.457 66.7196 168.457 66.8025Z" fill="white"/>
<path d="M166.965 66.388C166.965 66.4709 166.965 66.4709 166.965 66.388C167.462 66.4709 167.794 66.305 168.292 66.2221C168.707 66.1392 168.955 65.9733 169.204 65.8903C169.702 66.2221 170.531 66.388 170.946 66.6368V66.5538C170.531 66.1392 169.702 65.6415 169.204 65.3927C168.955 65.3098 168.541 65.4757 168.043 65.5586C167.711 65.8074 167.38 66.1392 166.965 66.388Z" fill="#11331D"/>
<path d="M162.816 73.0231C162.816 73.0231 164.724 73.5208 166.632 72.3596C166.632 72.3596 165.802 74.3501 164.724 74.516C163.646 74.6819 162.816 73.0231 162.816 73.0231Z" fill="#50DA82"/>
<path d="M174.428 82.8926C173.576 84.7633 172.065 86.2544 170.183 87.0807C168.301 87.907 166.18 88.0104 164.227 87.3713V87.2054C164.392 85.7955 164.558 84.3026 164.724 82.8926C164.807 82.395 164.89 81.8144 165.222 81.3997C165.968 80.4874 167.378 80.985 169.203 79.3263C169.7 78.9116 170.115 78.331 170.447 77.7504C170.613 77.6675 170.779 77.5846 170.945 77.4187V78.1651C170.945 80.1557 172.189 81.8974 174.013 82.6438C174.179 82.8097 174.345 82.8097 174.428 82.8926Z" fill="url(#paint6_linear_6027_4708)"/>
<path d="M188.113 117.975C188.113 117.975 192.343 117.395 194.748 119.8C194.748 119.8 188.776 117.644 186.869 118.307L188.113 117.975ZM135.115 106.115C134.286 106.862 132.959 108.189 132.793 109.599C132.793 109.599 133.954 107.608 135.198 106.281L135.115 106.115Z" fill="#6FF9A1"/>
<path d="M158.672 66.7197C158.755 67.2174 159.17 67.6321 159.667 67.5491C160.165 67.4662 160.579 67.0515 160.497 66.5539C160.414 66.0562 159.999 65.6415 159.501 65.7245C159.087 65.7245 158.672 66.1392 158.672 66.7197Z" fill="#11331D"/>
<path d="M159.004 66.8025C159.004 66.9684 159.17 67.0513 159.253 67.0513C159.419 67.0513 159.502 66.8855 159.502 66.8025C159.502 66.6367 159.336 66.5537 159.253 66.5537C159.087 66.5537 159.004 66.7196 159.004 66.8025Z" fill="white"/>
<path d="M157.594 66.388C157.594 66.4709 157.594 66.4709 157.594 66.388C158.091 66.4709 158.423 66.305 158.921 66.2221C159.335 66.1392 159.584 65.9733 159.833 65.8903C160.331 66.2221 161.16 66.388 161.575 66.6368V66.5538C161.16 66.1392 160.331 65.6415 159.833 65.3927C159.584 65.3098 159.17 65.4757 158.672 65.5586C158.257 65.8074 158.008 66.1392 157.594 66.388Z" fill="#11331D"/>
<path d="M162.653 64.7291C162.404 64.9779 161.658 64.812 160.082 64.2315C158.174 63.568 156.267 65.0609 156.267 65.0609C156.184 65.1438 156.018 64.9779 156.101 64.895C159.004 61.7433 161.989 62.4069 162.653 63.9827C162.736 64.3144 162.819 64.5632 162.653 64.7291Z" fill="#488A60"/>
<path d="M134.037 24.9186V57.3474C134.037 57.928 133.54 58.5086 132.959 58.5086L94.5586 61.6602V34.8712C94.5586 34.5395 94.7245 34.2077 94.9733 33.9589L103.516 26.9091C103.682 26.7433 103.931 26.6603 104.179 26.6603L132.793 23.6746C133.457 23.6746 134.037 24.2551 134.037 24.9186Z" fill="#51F48C"/>
<path d="M101.442 47.561L101.359 49.6345L94.6406 49.9662V61.7434L105.671 50.0492C106.003 49.7174 106.169 49.2198 106.169 48.7222V47.644H101.442V47.561Z" fill="#32DF70"/>
<path d="M71.5039 49.883L72.8309 15.3808C72.8309 14.8002 73.3285 14.3026 73.992 14.3855L105.26 17.0396C105.757 17.1225 106.172 17.5372 106.172 18.0348V48.3902C106.172 48.9707 105.757 49.3854 105.177 49.3854L72.5821 50.8783C72.0015 50.9612 71.5039 50.4636 71.5039 49.883Z" fill="#4BBA73"/>
<path d="M96.7149 38.7695L90.9922 25.2506C90.8263 24.9188 90.6604 24.67 90.4116 24.5041C90.1628 24.2553 89.8311 24.1724 89.4164 24.1724H89.1676C88.7529 24.1724 88.5041 24.2553 88.1723 24.5041C87.9235 24.67 87.7576 25.0017 87.5917 25.2506L81.869 38.7695C81.7861 39.0183 81.7031 39.1842 81.7031 39.35C81.7031 39.6818 81.7861 40.0135 82.0349 40.2624C82.4496 40.677 83.196 40.76 83.6936 40.4282C83.9424 40.2624 84.1083 40.0965 84.1913 39.8477L85.6012 36.5301H92.8998L94.3097 39.8477C94.3927 40.0965 94.5585 40.2624 94.8073 40.4282C95.0562 40.5941 95.305 40.677 95.5538 40.677C95.9685 40.677 96.2173 40.5112 96.4661 40.2624C96.7149 40.0135 96.7979 39.6818 96.7979 39.35C96.8808 39.1012 96.7979 38.9353 96.7149 38.7695ZM91.9874 34.042H86.7624L89.4164 27.7387L91.9874 34.042Z" fill="#45EF82"/>
<path d="M106.172 37.8574V48.4735C106.172 49.0541 105.757 49.4688 105.177 49.4688L72.5821 50.9616C72.0015 50.9616 71.5039 50.464 71.5039 49.8834L71.8357 41.6726C75.8996 43.9948 80.9589 45.4048 86.5157 45.4048C94.5607 45.4048 101.693 42.419 106.172 37.8574Z" fill="#45EF82"/>
<path d="M96.7149 37.8571L90.9922 24.3382C90.8263 24.0065 90.6604 23.7576 90.4116 23.5918C90.1628 23.3429 89.8311 23.26 89.4164 23.26H89.1676C88.7529 23.26 88.5041 23.3429 88.1723 23.5918C87.9235 23.7576 87.7576 24.0894 87.5917 24.3382L81.869 37.8571C81.7861 38.1059 81.7031 38.2718 81.7031 38.4377C81.7031 38.7694 81.7861 39.1012 82.0349 39.35C82.4496 39.7647 83.196 39.8476 83.6936 39.5159C83.9424 39.35 84.1083 39.1841 84.1913 38.9353L85.6012 35.6178H92.8998L94.3097 38.9353C94.3927 39.1841 94.5585 39.35 94.8073 39.5159C95.0562 39.6818 95.305 39.7647 95.5538 39.7647C95.9685 39.7647 96.2173 39.5988 96.4661 39.35C96.7149 39.1012 96.7979 38.7694 96.7979 38.4377C96.8808 38.2718 96.7979 38.1059 96.7149 37.8571ZM91.9874 33.1296H86.7624L89.4164 26.8264L91.9874 33.1296Z" fill="white"/>
<path d="M120.272 33.7934H125.663V37.6085H120.852C120.355 37.6085 119.94 38.0232 119.94 38.5209V44.3265C119.94 46.0682 120.603 46.5659 122.594 46.5659H126.243C127.902 46.5659 128.483 45.9024 128.731 43.4971C128.731 43.2483 128.648 42.9995 128.483 42.8336C128.317 42.6678 128.068 42.5848 127.819 42.5848C127.321 42.5848 126.99 42.9166 126.907 43.4142C126.824 44.8242 126.575 44.8242 126.16 44.8242H122.76C121.93 44.8242 121.93 44.7412 121.93 44.4095V39.4332H125.829V39.9308C125.829 40.4284 126.243 40.8431 126.741 40.8431C127.239 40.8431 127.653 40.4284 127.653 39.9308V32.8811C127.653 32.3834 127.239 31.9688 126.741 31.9688H120.272C119.774 31.9688 119.359 32.3834 119.359 32.8811C119.359 33.3787 119.774 33.7934 120.272 33.7934Z" fill="#32DF70"/>
<path d="M127.57 47.5612H120.354C118.281 47.5612 116.871 47.3953 115.876 46.9806V43.4143H118.198C118.695 43.4143 119.11 42.9996 119.11 42.502C119.11 42.0043 118.695 41.5896 118.198 41.5896H115.876V39.3503H118.613C119.11 39.3503 119.525 38.9356 119.525 38.438C119.525 37.9404 119.11 37.5257 118.613 37.5257H115.876V35.3693H118.198C118.695 35.3693 119.11 34.9546 119.11 34.457C119.11 33.9593 118.695 33.5446 118.198 33.5446H115.876V32.3835C115.876 31.8859 115.461 31.4712 114.963 31.4712C114.466 31.4712 114.051 31.8859 114.051 32.3835V33.5446H111.48C110.982 33.5446 110.568 33.9593 110.568 34.457C110.568 34.9546 110.982 35.3693 111.48 35.3693H114.051V37.5257H110.899C110.402 37.5257 109.987 37.9404 109.987 38.438C109.987 38.9356 110.402 39.3503 110.899 39.3503H114.134V45.6536C113.636 45.073 113.222 44.2437 112.89 43.1655C112.89 42.6678 112.973 42.0873 112.973 41.5067C112.973 41.2579 112.89 41.0091 112.724 40.8432C112.558 40.6773 112.309 40.5944 112.06 40.5944C111.563 40.5944 111.148 41.0091 111.148 41.5067C111.065 43.829 110.899 46.8147 109.987 48.5564C109.821 48.9711 109.987 49.4688 110.319 49.7176C110.485 49.8005 110.65 49.8005 110.733 49.8005H110.982C111.231 49.7176 111.397 49.5517 111.563 49.3029C111.895 48.5564 112.143 47.6441 112.392 46.483C113.968 48.9711 116.705 49.4688 120.437 49.4688H127.57C127.985 49.4688 128.316 49.2199 128.482 48.8053C128.565 48.5564 128.565 48.2247 128.399 47.9759C128.15 47.6441 127.902 47.5612 127.57 47.5612Z" fill="#32DF70"/>
<path d="M120.272 33.0469H125.663V36.862H120.852C120.355 36.862 119.94 37.2767 119.94 37.7744V43.58C119.94 45.3217 120.603 45.8193 122.594 45.8193H126.243C127.902 45.8193 128.483 45.1558 128.731 42.7506C128.731 42.5018 128.648 42.253 128.483 42.0871C128.317 41.9213 128.068 41.8383 127.819 41.8383C127.321 41.8383 126.99 42.1701 126.907 42.6677C126.824 44.0776 126.575 44.0776 126.16 44.0776H122.76C121.93 44.0776 121.93 43.9947 121.93 43.663V38.7696H125.829V39.2672C125.829 39.7649 126.243 40.1796 126.741 40.1796C127.239 40.1796 127.653 39.7649 127.653 39.2672V32.2175C127.653 31.7199 127.239 31.3052 126.741 31.3052H120.272C119.774 31.3052 119.359 31.7199 119.359 32.2175C119.359 32.7151 119.774 33.0469 120.272 33.0469Z" fill="white"/>
<path d="M127.57 46.8146H120.354C118.281 46.8146 116.871 46.6487 115.876 46.234V42.6677H118.198C118.695 42.6677 119.11 42.253 119.11 41.7554C119.11 41.2578 118.695 40.8431 118.198 40.8431H115.876V38.6037H118.613C119.11 38.6037 119.525 38.189 119.525 37.6914C119.525 37.1938 119.11 36.7791 118.613 36.7791H115.876V34.6227H118.198C118.695 34.6227 119.11 34.208 119.11 33.7104C119.11 33.2128 118.695 32.7981 118.198 32.7981H115.876V31.6369C115.876 31.1393 115.461 30.7246 114.963 30.7246C114.466 30.7246 114.051 31.1393 114.051 31.6369V32.7981H111.48C110.982 32.7981 110.568 33.2128 110.568 33.7104C110.568 34.208 110.982 34.6227 111.48 34.6227H114.051V36.7791H110.899C110.402 36.7791 109.987 37.1938 109.987 37.6914C109.987 38.189 110.402 38.6037 110.899 38.6037H114.134V44.907C113.636 44.3265 113.222 43.4971 112.89 42.4189C112.89 41.9213 112.973 41.3407 112.973 40.7601C112.973 40.5113 112.89 40.2625 112.724 40.0966C112.558 39.9307 112.309 39.8478 112.06 39.8478C111.563 39.8478 111.148 40.2625 111.148 40.7601C111.065 43.0824 110.899 46.0682 109.987 47.8099C109.821 48.2245 109.987 48.7222 110.319 48.971C110.485 49.0539 110.65 49.0539 110.733 49.0539H110.982C111.231 48.971 111.397 48.8051 111.563 48.5563C111.895 47.8099 112.143 46.8975 112.392 45.7364C113.968 48.2245 116.705 48.7222 120.437 48.7222H127.57C127.985 48.7222 128.316 48.4734 128.482 48.0587C128.565 47.8099 128.565 47.4781 128.399 47.2293C128.15 46.9805 127.902 46.8146 127.57 46.8146Z" fill="white"/>
<path d="M199.392 17.4545V34.208C199.392 34.8715 198.811 35.4521 198.148 35.4521H181.146L174.925 40.3454C174.511 40.6772 173.93 40.3454 173.93 39.8478V35.4521H170.861C170.198 35.4521 169.617 34.8715 169.617 34.208V17.4545C169.617 16.791 170.198 16.2104 170.861 16.2104H198.148C198.811 16.2104 199.392 16.791 199.392 17.4545Z" fill="#54B978"/>
<path d="M199.392 26.9094V34.208C199.392 34.8715 198.811 35.452 198.148 35.452H181.146L174.925 40.3454C174.511 40.6771 173.93 40.3454 173.93 39.8478V35.452H170.861C170.198 35.452 169.617 34.8715 169.617 34.208V30.9734C173.101 33.8762 179.238 35.1203 185.873 34.0421C191.845 32.9639 196.738 30.227 199.392 26.9094ZM189.274 25.3336C189.274 26.6606 190.352 27.8217 191.762 27.8217C193.089 27.8217 194.25 26.7435 194.25 25.3336C194.25 24.0066 193.172 22.8455 191.762 22.8455C190.435 22.8455 189.274 23.9237 189.274 25.3336ZM182.058 25.3336C182.058 26.6606 183.136 27.8217 184.546 27.8217C185.873 27.8217 187.034 26.7435 187.034 25.3336C187.034 24.0066 185.956 22.8455 184.546 22.8455C183.136 22.8455 182.058 23.9237 182.058 25.3336ZM174.759 25.3336C174.759 26.6606 175.838 27.8217 177.248 27.8217C178.575 27.8217 179.736 26.7435 179.736 25.3336C179.736 24.0066 178.657 22.8455 177.248 22.8455C175.92 22.8455 174.759 23.9237 174.759 25.3336Z" fill="#389F5D"/>
<path d="M6.14844 20.4404V37.1939C6.14844 37.8574 6.729 38.4379 7.39251 38.4379H24.3948L30.6152 43.3313C31.0299 43.663 31.6104 43.3313 31.6104 42.8336V38.4379H34.6791C35.3426 38.4379 35.9232 37.8574 35.9232 37.1939V20.4404C35.9232 19.7769 35.3426 19.1963 34.6791 19.1963H7.39251C6.64607 19.1963 6.14844 19.7769 6.14844 20.4404Z" fill="#8FFFB7"/>
<path d="M6.14844 29.895V37.1936C6.14844 37.8571 6.729 38.4376 7.39251 38.4376H24.3948L30.6152 43.331C31.0299 43.6627 31.6104 43.331 31.6104 42.8334V38.4376H34.6791C35.3426 38.4376 35.9232 37.8571 35.9232 37.1936V33.959C32.4398 36.8618 26.3024 38.1059 19.6673 37.0277C13.6958 35.9495 8.80246 33.2125 6.14844 29.895ZM16.1839 28.3192C16.1839 29.6462 15.1058 30.8073 13.6958 30.8073C12.2859 30.8073 11.2077 29.7291 11.2077 28.3192C11.2077 26.9922 12.2859 25.8311 13.6958 25.8311C15.1058 25.8311 16.1839 26.9922 16.1839 28.3192ZM23.4825 28.3192C23.4825 29.6462 22.4043 30.8073 20.9944 30.8073C19.6673 30.8073 18.5062 29.7291 18.5062 28.3192C18.5062 26.9922 19.5844 25.8311 20.9944 25.8311C22.3214 25.914 23.4825 26.9922 23.4825 28.3192ZM30.6981 28.3192C30.6981 29.6462 29.6199 30.8073 28.21 30.8073C26.883 30.8073 25.7218 29.7291 25.7218 28.3192C25.7218 26.9922 26.8 25.8311 28.21 25.8311C29.6199 25.914 30.6981 26.9922 30.6981 28.3192Z" fill="#49FE8A"/>
<path d="M168.541 109.184L169.371 113.165C169.453 113.414 169.288 113.663 169.039 113.663L154.856 116.566C154.608 116.648 154.442 116.483 154.359 116.234L153.529 112.253C153.446 112.004 153.612 111.755 153.861 111.755L168.044 108.852C168.292 108.852 168.541 109.018 168.541 109.184Z" fill="#45EF82"/>
<defs>
<linearGradient id="paint0_linear_6027_4708" x1="65.6729" y1="97.2949" x2="96.0946" y2="97.2949" gradientUnits="userSpaceOnUse">
<stop stop-color="#86F7AF"/>
<stop offset="1" stop-color="#58FD93"/>
</linearGradient>
<linearGradient id="paint1_linear_6027_4708" x1="54.3997" y1="71.9481" x2="23.7898" y2="67.8841" gradientUnits="userSpaceOnUse">
<stop stop-color="#BCFED4"/>
<stop offset="1" stop-color="#58FD93"/>
</linearGradient>
<linearGradient id="paint2_linear_6027_4708" x1="54.0303" y1="60.5755" x2="20.8459" y2="59.105" gradientUnits="userSpaceOnUse">
<stop stop-color="#BCFED4"/>
<stop offset="1" stop-color="#58FD93"/>
</linearGradient>
<linearGradient id="paint3_linear_6027_4708" x1="14.4716" y1="117.018" x2="49.984" y2="117.018" gradientUnits="userSpaceOnUse">
<stop stop-color="#86F7AF"/>
<stop offset="1" stop-color="#58FD93"/>
</linearGradient>
<linearGradient id="paint4_linear_6027_4708" x1="104.035" y1="93.0268" x2="125.44" y2="93.0268" gradientUnits="userSpaceOnUse">
<stop stop-color="#86F7AF"/>
<stop offset="1" stop-color="#58FD93"/>
</linearGradient>
<linearGradient id="paint5_linear_6027_4708" x1="165.5" y1="128.611" x2="176.333" y2="128.611" gradientUnits="userSpaceOnUse">
<stop stop-color="#86F7AF"/>
<stop offset="1" stop-color="#58FD93"/>
</linearGradient>
<linearGradient id="paint6_linear_6027_4708" x1="164.214" y1="82.6554" x2="174.459" y2="82.6554" gradientUnits="userSpaceOnUse">
<stop stop-color="#86F7AF"/>
<stop offset="1" stop-color="#58FD93"/>
</linearGradient>
</defs>
</svg>
