<svg width="243" height="180" viewBox="0 0 243 180" fill="none" xmlns="http://www.w3.org/2000/svg">
<path d="M242.283 121.326C238.774 145.005 224.821 161.976 204.253 167.767C199.483 169.109 194.358 169.85 188.927 169.935H188.89C187.514 169.956 186.12 169.935 184.704 169.868C184.322 169.853 183.941 169.833 183.56 169.81C180.539 169.623 177.436 169.245 174.255 168.661C171.895 168.229 169.607 167.914 167.378 167.706L167.189 167.69C134.994 164.76 115.324 183.653 75.1216 179.363C2.04623 171.567 -13.7381 84.0989 10.6959 39.2864C25.5205 12.0955 46.4295 -1.39861 79.9289 0.115744C116.91 1.78474 123.838 23.0246 157.193 13.6151C181.552 6.7467 222.438 15.7162 220.536 59.0541C219.632 79.6596 247.506 86.0427 242.283 121.326Z" fill="#CEF2DB"/>
<path d="M84.6525 118.835C84.6525 118.593 84.6476 118.346 84.6375 118.108C84.6228 117.673 84.598 117.237 84.5631 116.807C84.5589 116.7 84.5522 116.593 84.5431 116.486C84.4686 115.655 84.3691 114.829 84.2301 114.018C83.9364 112.231 83.4876 110.473 82.8888 108.765C82.7199 108.265 82.531 107.78 82.3372 107.296L82.0987 106.732C81.8217 106.087 81.5234 105.452 81.2044 104.827L80.9061 104.263C79.8391 102.273 78.5598 100.404 77.0906 98.6887C76.9249 98.4945 76.7576 98.3015 76.5889 98.1099C76.1435 97.6095 75.6811 97.1245 75.2026 96.6557C74.8558 96.3063 74.4979 95.9681 74.1295 95.6415C68.4756 90.5469 60.9783 87.4404 52.7658 87.4404C44.5581 87.4404 37.0658 90.5419 31.4069 95.6415C31.038 95.9693 30.6784 96.3075 30.3288 96.6557C29.8503 97.1245 29.3879 97.6095 28.9425 98.1099C28.7734 98.3028 28.6047 98.4956 28.4406 98.6887C26.9745 100.405 25.697 102.274 24.6301 104.263L24.3318 104.827C24.0137 105.451 23.7108 106.084 23.4375 106.732C23.3582 106.92 23.2785 107.107 23.199 107.296C23.0002 107.78 22.8147 108.27 22.6426 108.765C22.0438 110.474 21.595 112.231 21.3011 114.018C21.1655 114.836 21.0628 115.659 20.9934 116.486C20.9832 116.595 20.9782 116.699 20.9734 116.807C20.9384 117.24 20.9136 117.674 20.8989 118.108C20.8888 118.35 20.8838 118.593 20.884 118.835C20.8789 118.954 20.8789 119.073 20.8789 119.192C20.8789 119.652 20.889 120.117 20.9088 120.571C20.9437 121.462 21.023 122.337 21.1324 123.203C21.2368 124.031 21.3743 124.855 21.5445 125.671C21.6291 126.077 21.7235 126.478 21.8228 126.878C21.9919 127.566 22.1905 128.244 22.404 128.911C22.7407 129.943 23.1288 130.956 23.5669 131.948C23.6313 132.097 23.7009 132.245 23.7703 132.394C24.0867 133.08 24.4281 133.755 24.794 134.417C24.8733 134.565 24.9578 134.714 25.0474 134.857C25.4542 135.575 25.8918 136.274 26.3591 136.954C26.8311 137.652 27.3278 138.329 27.8593 138.987C28.5853 139.894 29.3616 140.76 30.1845 141.579C31.0589 142.456 31.9846 143.281 32.9568 144.048C38.39 148.351 45.258 150.926 52.7159 150.937C52.7335 150.937 52.7509 150.939 52.7684 150.939C52.7884 150.939 52.808 150.937 52.8277 150.937C60.286 150.922 67.1491 148.349 72.5792 144.048C73.5514 143.281 74.4773 142.456 75.3517 141.579C76.1745 140.759 76.9508 139.894 77.6769 138.987C78.2085 138.329 78.7056 137.652 79.1774 136.954C79.6448 136.275 80.0825 135.575 80.4892 134.857C80.5786 134.714 80.6632 134.565 80.7427 134.417C81.1085 133.755 81.4498 133.08 81.7661 132.394C81.8305 132.245 81.9001 132.097 81.9647 131.948C82.4027 130.956 82.7908 129.943 83.1274 128.911C83.3411 128.244 83.5397 127.566 83.7086 126.878C83.8081 126.478 83.9023 126.077 83.9869 125.671C84.1574 124.855 84.2949 124.031 84.3992 123.203C84.5086 122.338 84.5881 121.462 84.6228 120.571C84.6476 120.116 84.6577 119.652 84.6577 119.192C84.6575 119.073 84.6575 118.954 84.6525 118.835ZM81.1647 114.018C81.3147 114.835 81.4291 115.658 81.5076 116.486C81.5177 116.595 81.5276 116.699 81.5322 116.807H72.8704C72.732 114.037 72.3716 111.337 71.7941 108.765H79.6692C80.3381 110.463 80.839 112.222 81.1647 114.018ZM70.0576 119.34C70.0576 121.949 69.8411 124.475 69.4433 126.878H63.4533C63.6664 124.347 63.7724 121.808 63.7711 119.268C63.7711 119.123 63.7683 118.98 63.7676 118.835H70.0497C70.0515 119.004 70.0576 119.171 70.0576 119.34ZM35.4797 119.34C35.4797 119.171 35.4858 119.004 35.4876 118.835H41.7695C41.7688 118.98 41.766 119.123 41.766 119.268C41.766 121.867 41.8747 124.418 42.0838 126.878H36.0941C35.6836 124.387 35.4781 121.865 35.4797 119.34ZM61.2766 119.268C61.2766 121.897 61.1527 124.451 60.9265 126.878H54.0071V118.835H61.2733C61.274 118.98 61.2766 119.123 61.2766 119.268ZM44.2607 119.268C44.2607 119.123 44.2633 118.98 44.2642 118.835H51.5302V126.878H44.6108C44.3767 124.348 44.2599 121.809 44.2607 119.268ZM54.0071 92.1522C55.2823 92.7818 56.4746 94.3624 57.5105 96.6559H54.0071V92.1522ZM51.5302 92.1522V96.6559H48.0268C49.0627 94.3622 50.2553 92.7818 51.5302 92.1522ZM51.5302 98.6887V106.731H45.2386C45.7401 103.681 46.4147 100.953 47.2178 98.6887H51.5302ZM51.5302 108.765V116.807H44.2982C44.3802 113.995 44.599 111.289 44.9348 108.765H51.5302ZM51.5302 128.911V136.954H46.3284C45.6951 134.575 45.1833 131.858 44.8274 128.911H51.5302ZM51.5302 138.987V146.385C49.774 145.517 48.1749 142.84 46.9258 138.987H51.5302ZM54.0071 146.384V138.987H58.6117C57.3622 142.84 55.7635 145.517 54.0071 146.384ZM54.0071 136.954V128.911H60.7099C60.354 131.858 59.8425 134.575 59.2092 136.954H54.0071ZM54.0071 116.807V108.765H60.6025C60.9384 111.289 61.1574 113.995 61.2391 116.807H54.0071ZM54.0071 106.731V98.6887H58.3198C59.1228 100.953 59.7974 103.681 60.2989 106.731H54.0071ZM61.1286 98.6887H64.7056C66.1628 100.993 67.3784 103.711 68.2801 106.731H62.8778C62.4433 103.826 61.8579 101.112 61.1286 98.6887ZM60.4564 96.6557C59.8616 95.0054 59.2076 93.575 58.5062 92.376C60.2383 93.3865 61.8434 94.8402 63.2736 96.6557H60.4564ZM47.0313 92.3758C46.3297 93.5747 45.676 95.0052 45.0811 96.6557H42.2637C43.694 94.8404 45.2995 93.3865 47.0313 92.3758ZM44.4085 98.6887C43.6795 101.112 43.0936 103.826 42.6589 106.731H37.2567C38.1582 103.711 39.3738 100.993 40.8313 98.6887H44.4085ZM42.3821 108.765C42.0698 111.335 41.8745 114.036 41.8011 116.807H35.5511C35.7015 113.99 36.1004 111.29 36.7111 108.765H42.3821ZM42.2842 128.911C42.5992 131.766 43.0543 134.472 43.6397 136.954H39.1658C38.0251 134.551 37.1111 131.842 36.4794 128.911H42.2842ZM44.1614 138.987C44.3536 139.674 44.555 140.345 44.7688 140.988C45.4794 143.128 46.2855 144.928 47.1618 146.378C44.4973 144.862 42.126 142.3 40.2268 138.987L44.1614 138.987ZM58.3755 146.377C59.2518 144.927 60.0577 143.128 60.7683 140.988C60.9821 140.345 61.1833 139.674 61.3755 138.987H65.3103C63.4115 142.3 61.0403 144.862 58.3755 146.377ZM61.8972 136.954C62.4824 134.472 62.9377 131.766 63.2527 128.911H69.0575C68.426 131.842 67.5118 134.551 66.3713 136.954H61.8972ZM63.7355 116.807C63.6622 114.036 63.4673 111.335 63.155 108.765H68.826C69.4367 111.29 69.8354 113.99 69.986 116.807H63.7355ZM77.4284 104.263C77.5429 104.451 77.652 104.639 77.7614 104.827C78.1244 105.449 78.4642 106.085 78.78 106.732H71.2803C70.4798 103.832 69.4006 101.122 68.0618 98.6889H72.977C74.6849 100.356 76.18 102.229 77.4284 104.263ZM70.6567 96.6557H66.8378C65.8001 95.0731 64.6726 93.6846 63.47 92.5067C65.5256 93.3248 67.4803 94.3766 69.2954 95.6415C69.7608 95.9636 70.2149 96.3019 70.6567 96.6557ZM36.2412 95.6415C38.0567 94.3764 40.0116 93.3243 42.0676 92.5061C40.8647 93.6841 39.7372 95.0726 38.6993 96.6555H34.8798C35.3217 96.3019 35.7758 95.9637 36.2412 95.6415ZM27.7702 104.827C29.0833 102.574 30.6961 100.509 32.5645 98.6887H37.4753C36.1367 101.122 35.0573 103.831 34.2568 106.731H26.7516C27.0674 106.084 27.4072 105.449 27.7702 104.827ZM24.024 116.486C24.1038 115.65 24.218 114.829 24.3718 114.018C24.6977 112.222 25.1986 110.463 25.8674 108.765H33.7435C33.166 111.337 32.8055 114.037 32.6669 116.808H23.9994C24.0045 116.699 24.0142 116.595 24.024 116.486ZM24.645 125.671C24.4513 124.865 24.3024 124.039 24.1831 123.203C24.0587 122.337 23.9794 121.462 23.9346 120.571C23.9149 120.111 23.8999 119.651 23.8999 119.191C23.8999 119.073 23.8999 118.954 23.9048 118.835H32.606C32.6045 119.004 32.5986 119.171 32.5986 119.34C32.5986 121.912 32.7936 124.439 33.1706 126.878H24.9534C24.8406 126.478 24.7378 126.076 24.645 125.671ZM28.5849 134.857C28.4854 134.713 28.3912 134.565 28.2969 134.417C27.8844 133.759 27.4919 133.086 27.1342 132.394C27.0561 132.246 26.9798 132.098 26.9056 131.948C26.4123 130.962 25.9761 129.948 25.599 128.911H33.5348C34.1063 131.759 34.9327 134.464 35.9979 136.954H30.1003C29.562 136.279 29.0563 135.58 28.5849 134.857ZM34.6909 141.579C33.6933 140.779 32.7505 139.913 31.8689 138.987H36.9424C37.3641 139.824 37.8225 140.642 38.3164 141.439C39.315 143.043 40.406 144.454 41.5685 145.67C40.445 145.199 39.3526 144.657 38.2979 144.047C37.0344 143.318 35.8285 142.492 34.6909 141.579ZM70.8456 141.579C69.7077 142.492 68.5018 143.318 67.2383 144.047C66.1834 144.658 65.0904 145.201 63.966 145.672C65.1295 144.456 66.2212 143.045 67.2203 141.439C67.7143 140.643 68.1729 139.824 68.5947 138.987H73.6676C72.786 139.913 71.8432 140.779 70.8456 141.579ZM78.6309 131.948C78.5562 132.097 78.4817 132.245 78.4024 132.394C78.0446 133.086 77.652 133.759 77.2395 134.417C77.1465 134.565 77.0505 134.712 76.9515 134.857C76.4801 135.58 75.9744 136.28 75.4361 136.954H69.5392C70.6044 134.464 71.4308 131.76 72.0023 128.911H79.9372C79.5603 129.948 79.1242 130.962 78.6309 131.948ZM72.3672 126.878C72.7439 124.439 72.939 121.913 72.939 119.34C72.939 119.171 72.933 119.004 72.9315 118.835H81.6268C81.6321 118.954 81.6321 119.073 81.6321 119.192C81.6321 119.652 81.622 120.112 81.6022 120.571C81.5624 121.452 81.4795 122.331 81.3538 123.203C81.1835 124.445 80.9262 125.673 80.5837 126.878L72.3672 126.878Z" fill="#E1FFEC"/>
<path d="M170.932 57.7201L163.949 31.8856L181.902 27.0334L184.033 34.9147C186.712 44.8301 180.847 55.0404 170.932 57.7201Z" fill="#AFBEB4"/>
<path d="M181.533 54.8548L170.932 57.7201L163.949 31.8856L181.902 27.0334L186.898 45.5165C187.594 48.3071 183.7 48.8684 183.7 48.8684C183.7 48.8684 185.955 53.9801 181.533 54.8548Z" fill="#45D97A"/>
<path d="M171.367 29.4739C171.367 29.2765 171.406 29.081 171.482 28.8986C171.557 28.7161 171.668 28.5504 171.808 28.4108C171.947 28.2712 172.113 28.1604 172.295 28.0849C172.478 28.0093 172.673 27.9704 172.871 27.9705C173.068 27.9705 173.264 28.0094 173.446 28.085C173.629 28.1605 173.794 28.2713 173.934 28.4109C174.074 28.5506 174.184 28.7163 174.26 28.8988C174.336 29.0812 174.374 29.2767 174.374 29.4742C174.374 29.8729 174.216 30.2554 173.934 30.5373C173.652 30.8193 173.269 30.9777 172.871 30.9776C172.472 30.9776 172.089 30.8192 171.807 30.5372C171.526 30.2552 171.367 29.8727 171.367 29.4739ZM199.844 39.8846L213.111 45.5699L209.617 53.7236L196.351 48.0383L199.844 39.8846Z" fill="#50FF8F"/>
<path d="M204.957 42.7541C204.955 42.5551 204.992 42.3576 205.066 42.1731C205.141 41.9886 205.251 41.8207 205.391 41.6792C205.531 41.5376 205.698 41.4253 205.881 41.3486C206.065 41.2719 206.262 41.2324 206.461 41.2324C206.66 41.2324 206.857 41.2719 207.04 41.3487C207.224 41.4254 207.39 41.5378 207.53 41.6793C207.67 41.8209 207.78 41.9888 207.855 42.1733C207.929 42.3579 207.967 42.5553 207.964 42.7543C207.959 43.1499 207.799 43.5277 207.517 43.8057C207.236 44.0837 206.856 44.2396 206.461 44.2396C206.065 44.2396 205.685 44.0836 205.404 43.8055C205.122 43.5275 204.962 43.1497 204.957 42.7541Z" fill="#3AB365"/>
<path d="M168.68 34.1651L179.522 30.8708L179.618 31.1869L168.776 34.4812L168.68 34.1651ZM169.582 37.1717L180.424 33.8774L180.52 34.1937L169.678 37.488L169.582 37.1717ZM170.484 40.1791L181.326 36.8848L181.422 37.2011L170.58 40.4952L170.484 40.1791ZM171.385 43.1856L182.228 39.8911L182.324 40.2074L171.482 43.5015L171.385 43.1856Z" fill="white"/>
<path d="M129.88 81.6319C121.883 81.6319 116.614 78.5788 113.446 75.7419C111.743 76.2204 109.983 76.4632 108.215 76.4637H89.0165C78.3561 76.4637 69.6836 67.7908 69.6836 57.1303C69.6836 46.4699 78.3563 37.7974 89.0165 37.7974H108.215C118.875 37.7974 127.548 46.4701 127.548 57.1303C127.548 62.4499 125.329 67.5722 121.453 71.2173C123.028 76.3069 127.06 79.3264 134.121 80.7104L136.153 81.1089L134.098 81.3635C132.615 81.5474 131.209 81.6319 129.88 81.6319ZM113.617 75.0032L113.754 75.1282C117.08 78.1575 122.879 81.4964 131.988 80.8996C125.877 79.2752 122.195 76.0916 120.758 71.2085L120.7 71.011L120.852 70.8713C124.687 67.3429 126.886 62.3341 126.886 57.1299C126.886 46.8347 118.51 38.4588 108.215 38.4588H89.0165C78.7214 38.4588 70.3454 46.8347 70.3454 57.1299C70.3454 67.4252 78.7214 75.8012 89.0165 75.8012H108.215C109.983 75.8006 111.742 75.5494 113.439 75.055L113.617 75.0032Z" fill="#3AB365"/>
<path d="M25.1508 75.0684C22.9658 75.0684 20.6341 74.9135 18.1471 74.6053L15.7031 74.3024L18.1199 73.8286C28.6768 71.7589 31.8308 68.4359 33.1834 64.0861C28.574 59.7513 25.9352 53.6603 25.9352 47.3344C25.9352 34.6579 36.2486 24.345 48.9251 24.345H71.754C84.4305 24.345 94.7439 34.6579 94.7439 47.3344C94.7439 60.1206 85.8142 69.0503 73.0281 69.0503L47.8037 67.5019C46.9255 67.5025 46.2433 67.9884 45.5212 68.5027C44.6988 69.0887 43.8516 69.6952 42.7117 69.46C38.4993 73.2133 32.7142 75.0682 25.1508 75.0684ZM20.6787 74.0808C30.3858 74.914 37.4847 73.1573 42.3379 68.737L42.5013 68.5883L42.7131 68.6503C43.5974 68.9066 44.245 68.4453 45.0643 67.8617C45.8189 67.3244 46.6736 66.7157 47.8277 66.7157L73.052 68.2641C85.3505 68.2632 93.9564 59.6573 93.9564 47.3347C93.9564 35.0924 83.9962 25.1322 71.7536 25.1322H48.9251C36.6824 25.1322 26.7225 35.0924 26.7225 47.3347C26.7225 53.5236 29.3378 59.4796 33.8978 63.6756L34.0781 63.8416L34.0089 64.0765C32.4825 69.2623 28.6729 72.1732 20.6787 74.0808Z" fill="#69FF9F"/>
<path d="M89.0178 40.6814H108.216C118.71 40.6814 127.218 49.1889 127.218 59.6835C127.218 65.2168 124.851 70.1959 121.077 73.6688C122.324 77.9067 125.486 80.6082 134.058 82.2886C124.729 83.4451 117.976 81.9736 113.532 77.9263C111.805 78.4298 110.015 78.6855 108.216 78.6857H89.0178C78.5232 78.6857 70.0156 70.1781 70.0156 59.6835C70.0156 49.1891 78.5232 40.6814 89.0178 40.6814Z" fill="#69FF9F"/>
<path d="M121.078 73.669C124.853 70.1961 127.219 65.217 127.219 59.6837C127.219 51.987 122.641 45.3639 116.061 42.377C120.349 45.861 123.091 51.1747 123.091 57.1304C123.091 62.6637 120.724 67.6428 116.95 71.1156C113.319 74.2522 107.9 76.1327 104.089 76.1327H84.8904C82.1847 76.1348 79.5101 75.5567 77.0469 74.4374C80.3148 77.0927 84.4803 78.6863 89.0189 78.6863H108.217C110.016 78.6862 111.806 78.4305 113.534 77.9269C117.978 81.9742 124.73 83.4455 134.059 82.2892C125.488 80.6081 122.325 77.907 121.078 73.669Z" fill="#D6EDDE"/>
<path d="M75.1211 25.1716H52.292C39.8125 25.1716 29.6959 35.2882 29.6959 47.7677C29.6959 54.3474 32.5103 60.2682 36.9984 64.3979C35.5153 69.4374 31.7551 72.6495 21.5625 74.648C32.6563 76.0231 40.6859 74.2735 45.9703 69.4607C48.0242 70.0595 50.1528 70.3636 52.2922 70.3637H75.1213C87.6008 70.3637 97.7174 60.2471 97.7174 47.7677C97.7171 35.2882 87.6006 25.1716 75.1211 25.1716Z" fill="#3AB365"/>
<path d="M82.5428 26.4253C88.6835 30.4647 92.7404 37.4133 92.7404 45.313C92.7404 57.7925 82.6237 67.909 70.1444 67.909H47.3151C45.1198 67.909 43 67.5899 40.9934 67.006C38.1481 69.5971 34.4991 71.2918 30.0127 72.0976C27.8506 73.1098 25.1015 73.9541 21.5625 74.6481C32.6561 76.0234 40.6859 74.2735 45.9701 69.4607C48.0239 70.0595 50.1524 70.3636 52.2918 70.3638H75.1209C87.6003 70.3638 97.7169 60.2472 97.7169 47.7677C97.7171 37.8893 91.3753 29.4966 82.5428 26.4253Z" fill="#D6EDDE"/>
<path d="M74.1423 38.5143C75.934 38.1971 77.7138 37.8161 79.4783 37.3718L78.6572 34.1217C73.9428 35.3129 69.2842 36.0082 64.3868 36.2318V33.4546H61.0346V36.3124C57.4919 36.3194 53.7976 36.0938 49.8428 35.6358L49.457 38.9659C53.4911 39.4332 57.2687 39.6691 60.8949 39.6691C64.2597 39.6691 67.4929 39.461 70.6789 39.0496C70.0968 42.0544 68.3843 47.4902 63.4124 52.2828C58.6589 48.525 57.3407 43.6801 57.2652 43.3877L54.0157 44.2115C54.1014 44.5524 55.5654 50.0644 60.8116 54.4917C58.6394 56.1097 56.0074 57.5834 52.8086 58.7676L53.9729 61.911C57.9035 60.4557 61.0655 58.5776 63.6264 56.5093C65.7584 57.7908 68.3362 58.8498 71.4459 59.4659L72.0974 56.1778C69.8305 55.7286 67.8955 55.0075 66.2458 54.1314C71.996 48.2293 73.6669 41.5358 74.1423 38.5143ZM96.7678 69.0386L104.901 47.8614H107.92L116.587 69.0386H113.394L110.924 62.6249H102.069L99.7435 69.0386H96.7678ZM102.878 60.3424H110.057L107.847 54.4774C107.173 52.6959 106.673 51.2323 106.345 50.0859C106.07 51.4618 105.689 52.8142 105.204 54.1308L102.878 60.3424Z" fill="white"/>
<path d="M57.432 76.1902C57.3698 76.0457 57.3665 75.8826 57.4228 75.7358C57.4792 75.5889 57.5907 75.4699 57.7336 75.4042C57.8766 75.3385 58.0395 75.3313 58.1877 75.3841C58.3359 75.4369 58.4575 75.5456 58.5266 75.6869C61.0793 81.2389 66.679 84.8787 72.7922 84.9598C72.9504 84.964 73.1006 85.0305 73.2103 85.1446C73.32 85.2588 73.3803 85.4116 73.3782 85.5699C73.3761 85.7282 73.3117 85.8793 73.199 85.9905C73.0864 86.1017 72.9344 86.1641 72.7761 86.1642C69.5835 86.1214 66.4661 85.1889 63.7744 83.4716C61.0035 81.7064 58.8106 79.1884 57.432 76.1902Z" fill="#3AB365"/>
<path d="M79.8992 84.0485C76.3012 83.444 71.7256 82.1137 68.7109 80.3547L71.8218 85.5925L70.8619 91.6073C73.0152 88.8602 76.7774 85.9363 79.8992 84.0485ZM110.025 28.0829C110.091 28.228 110.098 28.3937 110.042 28.5435C109.987 28.6933 109.874 28.815 109.729 28.8817C109.584 28.9484 109.418 28.9547 109.268 28.8992C109.118 28.8438 108.997 28.731 108.93 28.5859C106.377 23.0339 100.778 19.3941 94.6645 19.3131C94.5063 19.3088 94.3561 19.2424 94.2464 19.1282C94.1367 19.014 94.0764 18.8612 94.0785 18.7029C94.0806 18.5446 94.145 18.3935 94.2577 18.2823C94.3703 18.1711 94.5222 18.1087 94.6806 18.1086C97.8732 18.1514 100.991 19.0839 103.682 20.8013C106.453 22.5669 108.646 25.0847 110.025 28.0829Z" fill="#3AB365"/>
<path d="M87.5586 20.2246C91.1567 20.8291 95.7322 22.1594 98.7469 23.9184L95.636 18.6806L96.5959 12.6658C94.4426 15.4129 90.6802 18.3368 87.5586 20.2246Z" fill="#3AB365"/>
<path d="M195.29 149.49C195.293 149.5 195.293 149.51 195.29 149.519C195.273 149.943 195.249 150.366 195.218 150.788C195.186 151.212 195.147 151.635 195.101 152.057C195.077 152.266 195.053 152.474 195.026 152.679C195.002 152.869 194.975 153.059 194.946 153.249C194.917 153.469 194.883 153.687 194.845 153.905C194.81 154.108 194.775 154.308 194.738 154.508C194.664 154.908 194.584 155.305 194.496 155.697C194.41 156.09 194.317 156.481 194.216 156.87C194.165 157.065 194.114 157.26 194.061 157.452C194.008 157.644 193.954 157.835 193.898 158.027C193.816 158.313 193.73 158.597 193.64 158.881C193.586 159.053 193.531 159.224 193.475 159.395C193.413 159.585 193.349 159.771 193.285 159.961C193.145 160.368 192.999 160.773 192.848 161.176C192.781 161.352 192.714 161.526 192.648 161.699C192.348 162.47 192.033 163.234 191.701 163.992C191.619 164.181 191.536 164.373 191.451 164.565C191.366 164.757 191.277 164.949 191.192 165.141C191.075 165.4 190.955 165.658 190.835 165.92C190.715 166.175 190.595 166.431 190.472 166.687C190.328 166.999 190.176 167.311 190.024 167.626C189.958 167.757 189.896 167.89 189.832 168.023C189.519 168.661 189.204 169.298 188.888 169.935C187.513 169.956 186.118 169.935 184.702 169.868C184.321 169.853 183.94 169.833 183.559 169.81C180.538 169.623 177.434 169.245 174.253 168.66C171.894 168.229 169.606 167.914 167.377 167.706L167.188 167.69C168.734 156.998 171.115 145.392 172.52 138.867C172.52 138.867 172.517 138.867 172.52 138.864C172.853 137.326 173.193 135.79 173.539 134.254C173.552 134.198 173.563 134.148 173.573 134.1C173.608 133.956 173.632 133.846 173.648 133.772L173.669 133.678L173.677 133.644L178.634 133.081L180.412 132.881L192.309 131.532C192.471 132.033 192.628 132.536 192.778 133.041L192.786 133.07C192.832 133.22 192.874 133.366 192.92 133.513C192.965 133.659 193.008 133.806 193.048 133.95C193.323 134.9 193.578 135.855 193.813 136.816C193.858 137.003 193.904 137.187 193.946 137.371C194.115 138.086 194.271 138.804 194.413 139.525C194.479 139.875 194.546 140.221 194.608 140.565C194.671 140.927 194.731 141.29 194.786 141.653C194.965 142.813 195.098 143.93 195.186 145.01C195.311 146.579 195.343 148.066 195.29 149.49Z" fill="#CCF1D9"/>
<path d="M195.292 149.49C195.295 149.5 195.295 149.51 195.292 149.519C195.276 149.949 195.255 150.37 195.22 150.789C195.191 151.212 195.152 151.635 195.103 152.058C195.079 152.266 195.055 152.474 195.028 152.679C195.004 152.869 194.978 153.059 194.948 153.249C194.919 153.469 194.885 153.687 194.847 153.905C194.812 154.108 194.777 154.308 194.74 154.508C194.668 154.908 194.586 155.305 194.498 155.697C194.412 156.09 194.319 156.481 194.218 156.87C194.167 157.065 194.116 157.26 194.063 157.452C194.01 157.644 193.957 157.836 193.9 158.027C193.818 158.313 193.732 158.597 193.642 158.881C193.588 159.053 193.533 159.224 193.477 159.395C193.415 159.585 193.351 159.771 193.287 159.961C193.147 160.368 193.001 160.773 192.85 161.176C192.783 161.352 192.717 161.526 192.65 161.699C192.35 162.47 192.035 163.234 191.703 163.992C191.621 164.181 191.538 164.373 191.453 164.565C191.368 164.757 191.28 164.949 191.194 165.141C191.077 165.4 190.957 165.658 190.837 165.92C190.717 166.175 190.597 166.431 190.474 166.687C190.351 166.944 190.229 167.202 190.104 167.461C190.077 167.517 190.05 167.57 190.026 167.626C189.96 167.757 189.898 167.89 189.834 168.023C189.529 168.659 189.227 169.296 188.928 169.935H188.89C187.515 169.956 186.12 169.935 184.704 169.868C184.323 169.853 183.942 169.833 183.561 169.81C180.54 169.623 177.436 169.245 174.255 168.66C171.896 168.229 169.608 167.914 167.379 167.706C168.96 156.91 171.208 145.456 172.546 138.966V138.963C172.871 137.392 173.203 135.823 173.541 134.255C173.554 134.198 173.565 134.148 173.575 134.1C173.61 133.956 173.634 133.847 173.65 133.772L173.671 133.679L173.679 133.644L178.636 133.081L180.414 132.881L192.311 131.532C192.473 132.034 192.63 132.537 192.78 133.041C192.785 133.051 192.789 133.06 192.791 133.071C192.834 133.22 192.879 133.366 192.922 133.513C192.967 133.66 193.01 133.806 193.05 133.95C193.326 134.9 193.581 135.856 193.815 136.816C193.861 137.003 193.906 137.187 193.949 137.371C194.118 138.086 194.273 138.805 194.415 139.526C194.485 139.875 194.551 140.221 194.61 140.565C194.676 140.933 194.735 141.296 194.791 141.653C194.972 142.813 195.103 143.93 195.188 145.01C195.313 146.579 195.345 148.066 195.292 149.49Z" fill="#389F5D"/>
<path d="M204.253 167.768C199.483 169.109 194.358 169.85 188.927 169.935H188.89C187.514 169.957 186.12 169.935 184.704 169.869C182.832 159.708 181.48 149.13 180.667 141.939C180.056 136.559 179.75 133.071 179.75 133.071H194.932C197.161 135.394 198.867 137.881 200.171 140.5C204.221 148.637 204.384 158.046 204.253 167.768Z" fill="#CCF1D9"/>
<path d="M204.254 167.768C199.484 169.109 194.359 169.85 188.928 169.935H188.89C187.515 169.957 186.12 169.935 184.704 169.869C184.323 169.853 183.942 169.833 183.56 169.81C181.715 159.87 180.358 149.16 179.54 141.841C179.02 137.212 178.716 133.94 178.636 133.082C178.631 133.007 178.625 132.932 178.617 132.858L180.414 132.882L192.781 133.042L194.284 133.06L194.932 133.071C197.162 135.393 198.868 137.881 200.172 140.5C204.222 148.637 204.384 158.046 204.254 167.768Z" fill="#389F5D"/>
<path d="M147.558 91.1321C147.558 91.1321 151.537 113.536 157.348 115.083C159.978 115.783 163.357 115.196 166.583 114.103C172.038 112.258 177.052 108.975 177.226 108.079L182.76 91.2792C179.575 92.6521 161.427 102.998 159.944 103.988C157.543 100.384 152.729 90.9407 152.558 90.2521C152.558 90.2521 153.202 83.6323 151.477 83.448C149.653 83.2532 151.089 86.7096 150.717 86.2092C150.311 85.6583 147.907 79.8137 146.308 81.5211C142.758 85.3268 147.558 91.1321 147.558 91.1321Z" fill="#C7FFDB"/>
<path d="M163.008 101.609C163.424 105.994 165.966 111.92 166.231 114.667C171.686 112.821 178.263 112.203 178.436 111.307L182.762 91.2791C179.576 92.6522 169.34 97.8522 163.008 101.609Z" fill="#4BBA73"/>
<path d="M204.72 105.962C204.589 115.661 202.199 132.479 201.292 138.529C201.161 139.406 200.677 140.162 199.992 140.636C199.607 140.905 199.165 141.081 198.701 141.15C194.355 141.795 190.1 142.148 185.956 142.138C182.226 142.138 178.586 141.856 175.047 141.241C173.666 140.999 172.607 139.889 172.456 138.498C171.962 133.921 173.398 123.878 173.166 114.108C173.015 107.928 174.954 92.1077 186.495 89.6187L193.256 89.5574C200.838 91.5236 204.014 97.3209 204.539 101.374C204.7 102.574 204.75 104.147 204.72 105.962Z" fill="#4BBA73"/>
<path d="M188.53 82.8557C190.975 83.6117 191.963 84.8328 195.091 83.42C199.85 81.2697 203.867 73.0328 197.547 69.3077C197.11 68.0038 196.67 67.4962 195.004 67.1342C193.339 66.7728 191.632 67.4975 189.337 67.458C187.041 67.4186 183.794 65.0553 181.793 68.3935C179.791 71.7313 184.754 74.3272 187.24 75.971C189.728 77.6147 188.921 80.4503 188.53 82.8557Z" fill="#355741"/>
<path d="M193.353 89.5757C190.893 92.0357 188.573 92.5068 186.496 89.6192L187.081 84.8738L187.325 82.8757H192.769L192.873 84.1146L193.353 89.5757Z" fill="#C7FFDB"/>
<path d="M192.952 84.9973C191.606 86.616 187.899 87.0848 186.895 86.3906L187.326 82.8756L192.8 80.5781L192.952 84.9973Z" fill="#B4F0CA"/>
<path d="M184.009 71.4171C182.896 74.5545 181.805 81.4904 184.467 84.0696C186.152 85.7022 192.268 85.0706 193.517 80.5805C194.992 79.5121 196.074 76.908 194.715 75.7262C193.746 74.8842 192.508 77.1096 190.819 76.7412C190.178 76.6018 192.147 72.3172 190.146 71.575C188.144 70.8332 186.026 72.4416 184.009 71.4171Z" fill="#C7FFDB"/>
<path d="M151.028 62.3435C156.794 53.8602 154.591 42.309 146.108 36.5432C137.624 30.7773 126.073 32.9803 120.307 41.4636C114.541 49.9469 116.744 61.4981 125.227 67.2639C133.711 73.0298 145.262 70.8268 151.028 62.3435Z" fill="#389F5D"/>
<path d="M156.014 45.619C152.531 34.3299 140.472 27.9896 129.132 31.4877C117.79 34.9834 111.396 47.0163 114.881 58.3054C118.054 68.5947 128.348 74.7751 138.733 73.1408C139.759 72.9814 140.771 72.747 141.762 72.4396C142.827 72.1124 143.863 71.7023 144.863 71.213C154.23 66.6561 159.165 55.8364 156.014 45.619ZM140.789 69.2877C131.18 72.2527 120.994 66.8986 118.043 57.3293C115.091 47.7601 120.491 37.6014 130.103 34.6363C139.715 31.6716 149.897 37.0254 152.849 46.5948C155.8 56.1642 150.401 66.3255 140.789 69.2877Z" fill="#3AB365"/>
<path d="M138.242 71.5514L144.384 69.6575L147.272 79.0241L141.131 80.9183L138.242 71.5514Z" fill="#3AB365"/>
<path d="M149.047 78.4295C149.064 78.4831 149.081 78.5398 149.095 78.5943L150.277 82.9216L160.023 118.554L161.617 124.386C162.135 126.279 161.052 128.241 159.17 128.822C157.287 129.402 155.288 128.391 154.646 126.536L152.679 120.819L140.664 85.8864L139.204 81.6449C138.254 78.8919 139.784 75.8979 142.581 75.0353C145.321 74.19 148.212 75.7204 149.047 78.4295Z" fill="#3AB365"/>
<path d="M157.04 119.474L160.023 118.555L161.616 124.386C162.135 126.279 161.053 128.242 159.17 128.822C158.654 128.982 158.11 129.025 157.576 128.949C158.555 128.055 159.006 126.662 158.635 125.306L157.04 119.474ZM149.046 78.4291C149.063 78.4832 149.081 78.5398 149.095 78.5947L150.276 82.9214L147.295 83.8409L146.112 79.5147C146.1 79.4593 146.082 79.4027 146.066 79.3486C145.389 77.1546 143.362 75.7339 141.16 75.7229C141.596 75.4225 142.075 75.1905 142.581 75.0349C145.321 74.1898 148.211 75.7209 149.046 78.4291Z" fill="#269E51"/>
<path d="M150.278 82.9216L160.025 118.555L157.042 119.475L147.297 83.8409L150.278 82.9216Z" fill="#32ED75"/>
<path d="M147.295 83.8408L157.04 119.475L152.679 120.819L140.664 85.8859L147.295 83.8408Z" fill="#69FF9F"/>
<path d="M200.272 109.175C200.272 109.175 194.227 116.456 188.739 120.461C187.426 121.41 186.154 122.172 184.999 122.611C177.002 125.647 158.7 124.628 158.7 124.628C152.886 127.594 151.776 125.219 150.469 122.94C147.242 117.314 153.753 121.434 154.673 119.091C154.673 119.091 150.958 117.959 152.186 116.219C153.406 114.468 160.24 118.499 160.24 118.499C168.886 116.889 173.52 114.427 180.361 113.066C180.95 112.239 181.54 111.411 182.148 110.597C186.553 104.746 191.66 99.421 198.607 95.8833C201.972 100.285 201.873 104.728 200.272 109.175Z" fill="#C7FFDB"/>
<path d="M190.451 120.653L180.906 109.986C185.311 104.136 193.747 91.3133 199.63 96.4297C207.463 103.242 195.94 116.649 190.451 120.653Z" fill="#4BBA73"/>
<path d="M57.8359 109.957H137.242V167.747H57.8359V109.957Z" fill="#45D97A"/>
<path d="M97.2734 109.939H134.838V165.857H97.2734V109.939Z" fill="white"/>
<path d="M134.84 165.856C122.943 161.884 110.422 161.884 97.2754 165.856V109.939C110.192 106.425 122.714 106.425 134.84 109.939V165.856ZM97.2754 165.856H59.7109V109.939H97.2754V165.856Z" fill="white"/>
<path d="M59.7109 165.856C69.9477 157.606 83.0675 165.856 97.2755 165.856V109.939C82.3801 110.627 72.8694 104.668 59.7109 109.939V165.856Z" fill="#EBFFF2"/>
<path d="M99.8067 115.132V114.613C99.8069 114.606 99.8124 114.599 99.8192 114.598C107.07 113.567 114.401 113.218 121.717 113.555C121.724 113.556 121.73 113.562 121.729 113.568V114.088C121.729 114.095 121.724 114.101 121.717 114.1C114.401 113.763 107.07 114.112 99.8192 115.143C99.8124 115.144 99.8063 115.139 99.8067 115.132ZM111.727 122.599C111.692 122.6 111.656 122.595 111.623 122.582C111.59 122.57 111.56 122.551 111.534 122.527C111.509 122.502 111.489 122.473 111.475 122.44C111.461 122.408 111.454 122.372 111.454 122.337C111.455 122.264 111.484 122.194 111.534 122.141C111.585 122.089 111.654 122.057 111.727 122.054C118.633 121.783 125.549 122.124 132.394 123.072C132.544 123.092 132.665 123.232 132.665 123.382C132.665 123.532 132.543 123.637 132.394 123.616C125.549 122.668 118.633 122.328 111.727 122.599ZM123.907 114.222C123.834 114.216 123.765 114.183 123.715 114.13C123.664 114.076 123.635 114.006 123.634 113.932C123.634 113.897 123.641 113.862 123.655 113.83C123.668 113.797 123.689 113.768 123.714 113.744C123.74 113.72 123.771 113.702 123.804 113.69C123.837 113.679 123.872 113.674 123.907 113.677C126.801 113.865 129.687 114.16 132.559 114.562C132.708 114.583 132.83 114.722 132.83 114.872C132.83 115.022 132.708 115.128 132.559 115.106C129.687 114.705 126.801 114.409 123.907 114.222ZM100.078 119.141C99.928 119.162 99.806 119.057 99.8067 118.907C99.8067 118.757 99.928 118.618 100.078 118.596C101.218 118.437 102.361 118.294 103.506 118.168C103.54 118.163 103.575 118.166 103.608 118.176C103.641 118.187 103.672 118.204 103.698 118.227C103.724 118.25 103.744 118.278 103.758 118.31C103.772 118.342 103.779 118.376 103.778 118.411C103.778 118.561 103.656 118.697 103.506 118.713C102.361 118.839 101.218 118.982 100.078 119.141ZM100.078 123.639C99.9282 123.66 99.8065 123.556 99.8067 123.405C99.8067 123.255 99.9277 123.115 100.078 123.095C102.758 122.719 105.45 122.437 108.15 122.249C108.185 122.246 108.22 122.25 108.253 122.262C108.287 122.273 108.317 122.291 108.343 122.315C108.368 122.339 108.389 122.368 108.403 122.4C108.416 122.433 108.423 122.467 108.423 122.503C108.422 122.576 108.393 122.647 108.343 122.701C108.292 122.755 108.224 122.788 108.15 122.794C105.45 122.982 102.758 123.264 100.078 123.639ZM128.437 118.639C128.287 118.623 128.165 118.489 128.165 118.338C128.164 118.304 128.171 118.269 128.185 118.237C128.199 118.205 128.219 118.177 128.245 118.154C128.271 118.13 128.301 118.113 128.334 118.103C128.368 118.092 128.403 118.089 128.437 118.094C129.813 118.237 131.187 118.404 132.559 118.596C132.708 118.617 132.83 118.757 132.83 118.907C132.83 119.057 132.708 119.162 132.559 119.141C131.188 118.949 129.814 118.782 128.437 118.639ZM106.446 118.427C106.412 118.43 106.377 118.427 106.344 118.416C106.311 118.405 106.28 118.387 106.254 118.364C106.229 118.34 106.208 118.311 106.194 118.279C106.181 118.247 106.174 118.213 106.174 118.178C106.174 118.028 106.296 117.895 106.446 117.882C112.803 117.345 119.194 117.327 125.553 117.83C125.627 117.837 125.695 117.871 125.746 117.925C125.796 117.98 125.824 118.05 125.826 118.124C125.826 118.159 125.819 118.194 125.806 118.226C125.792 118.258 125.771 118.287 125.746 118.311C125.72 118.334 125.69 118.352 125.656 118.363C125.623 118.374 125.588 118.378 125.553 118.375C119.194 117.872 112.803 117.889 106.446 118.427ZM100.078 128.047C99.928 128.067 99.806 127.962 99.8067 127.812C99.8067 127.662 99.928 127.522 100.078 127.502C107.158 126.511 114.314 126.17 121.456 126.484C121.529 126.487 121.598 126.519 121.649 126.572C121.7 126.625 121.728 126.695 121.729 126.768C121.729 126.919 121.606 127.035 121.456 127.028C114.314 126.715 107.158 127.056 100.078 128.047ZM111.727 135.539C111.692 135.54 111.656 135.535 111.623 135.522C111.59 135.51 111.56 135.491 111.534 135.467C111.509 135.442 111.489 135.413 111.475 135.38C111.461 135.348 111.454 135.313 111.454 135.277C111.455 135.204 111.484 135.134 111.534 135.081C111.585 135.029 111.654 134.997 111.727 134.994C118.633 134.723 125.549 135.064 132.394 136.012C132.544 136.032 132.665 136.172 132.665 136.322C132.665 136.472 132.543 136.577 132.394 136.557C125.549 135.609 118.633 135.268 111.727 135.539ZM123.907 127.162C123.834 127.156 123.765 127.124 123.715 127.07C123.664 127.016 123.635 126.946 123.634 126.872C123.634 126.837 123.641 126.802 123.655 126.77C123.668 126.737 123.689 126.708 123.714 126.684C123.74 126.66 123.771 126.642 123.804 126.63C123.837 126.619 123.872 126.614 123.907 126.617C126.801 126.805 129.687 127.1 132.559 127.502C132.708 127.522 132.83 127.662 132.83 127.812C132.83 127.963 132.708 128.067 132.559 128.047C129.687 127.645 126.801 127.35 123.907 127.162ZM100.078 132.081C99.928 132.102 99.806 131.997 99.8067 131.847C99.8067 131.697 99.928 131.557 100.078 131.537C101.218 131.377 102.361 131.234 103.506 131.108C103.54 131.104 103.575 131.106 103.608 131.117C103.641 131.127 103.672 131.144 103.698 131.167C103.724 131.19 103.744 131.218 103.758 131.25C103.772 131.282 103.779 131.316 103.778 131.351C103.778 131.501 103.656 131.637 103.506 131.653C102.361 131.779 101.218 131.922 100.078 132.081ZM100.078 136.579C99.9282 136.6 99.8065 136.496 99.8067 136.345C99.8067 136.195 99.9277 136.055 100.078 136.035C102.758 135.66 105.45 135.378 108.15 135.189C108.185 135.186 108.22 135.19 108.253 135.202C108.287 135.213 108.317 135.231 108.343 135.255C108.368 135.279 108.389 135.308 108.402 135.34C108.416 135.373 108.423 135.407 108.423 135.442C108.422 135.516 108.393 135.587 108.343 135.641C108.292 135.694 108.224 135.728 108.15 135.733C105.45 135.922 102.758 136.204 100.078 136.579ZM128.437 131.579C128.287 131.563 128.165 131.428 128.165 131.278C128.164 131.244 128.171 131.209 128.185 131.177C128.199 131.146 128.219 131.117 128.245 131.094C128.271 131.071 128.301 131.053 128.335 131.043C128.368 131.033 128.403 131.03 128.437 131.034C129.813 131.177 131.187 131.345 132.559 131.536C132.708 131.557 132.83 131.697 132.83 131.847C132.83 131.997 132.708 132.102 132.559 132.081C131.188 131.889 129.814 131.722 128.437 131.579ZM106.446 131.367C106.412 131.371 106.377 131.367 106.344 131.356C106.311 131.345 106.28 131.327 106.254 131.304C106.229 131.28 106.208 131.251 106.194 131.219C106.181 131.187 106.174 131.153 106.174 131.118C106.174 130.967 106.296 130.835 106.446 130.822C112.803 130.285 119.194 130.267 125.553 130.77C125.627 130.777 125.695 130.811 125.746 130.865C125.796 130.919 125.824 130.99 125.826 131.064C125.826 131.215 125.703 131.327 125.553 131.315C119.194 130.812 112.803 130.83 106.446 131.367ZM100.078 140.987C99.928 141.008 99.806 140.903 99.8067 140.753C99.8067 140.602 99.928 140.463 100.078 140.442C107.158 139.451 114.314 139.111 121.456 139.424C121.529 139.428 121.598 139.459 121.649 139.512C121.7 139.565 121.728 139.635 121.729 139.709C121.729 139.859 121.606 139.975 121.456 139.969C114.314 139.655 107.158 139.996 100.078 140.987ZM111.727 148.479C111.692 148.48 111.656 148.475 111.623 148.463C111.59 148.45 111.56 148.431 111.534 148.407C111.509 148.382 111.489 148.353 111.475 148.32C111.461 148.288 111.454 148.253 111.454 148.217C111.455 148.144 111.484 148.074 111.534 148.021C111.585 147.969 111.654 147.937 111.727 147.934C118.633 147.663 125.549 148.004 132.394 148.952C132.544 148.972 132.665 149.112 132.665 149.262C132.665 149.412 132.543 149.517 132.394 149.496C125.549 148.549 118.633 148.208 111.727 148.479ZM123.907 140.102C123.834 140.096 123.765 140.064 123.715 140.01C123.664 139.956 123.636 139.886 123.634 139.812C123.634 139.777 123.641 139.742 123.655 139.71C123.669 139.678 123.689 139.649 123.715 139.625C123.74 139.601 123.771 139.582 123.804 139.571C123.837 139.559 123.872 139.554 123.907 139.557C126.801 139.745 129.687 140.04 132.559 140.442C132.708 140.463 132.83 140.602 132.83 140.753C132.83 140.903 132.708 141.008 132.559 140.987C129.687 140.585 126.801 140.29 123.907 140.102ZM100.078 145.021C99.928 145.043 99.806 144.937 99.8067 144.787C99.8067 144.637 99.928 144.498 100.078 144.477C101.218 144.317 102.361 144.174 103.506 144.048C103.655 144.032 103.778 144.141 103.778 144.291C103.778 144.441 103.656 144.577 103.506 144.593C102.361 144.719 101.218 144.862 100.078 145.021ZM100.078 149.519C99.9282 149.54 99.8065 149.436 99.8067 149.285C99.8067 149.136 99.9277 148.996 100.078 148.975C102.758 148.6 105.45 148.318 108.15 148.129C108.185 148.126 108.22 148.13 108.253 148.142C108.287 148.153 108.317 148.171 108.343 148.195C108.368 148.219 108.389 148.248 108.403 148.28C108.416 148.313 108.423 148.347 108.423 148.383C108.422 148.456 108.393 148.527 108.343 148.581C108.292 148.635 108.224 148.668 108.15 148.674C105.45 148.862 102.758 149.144 100.078 149.519ZM128.437 144.519C128.287 144.503 128.165 144.369 128.165 144.218C128.165 144.068 128.286 143.959 128.437 143.974C129.813 144.117 131.187 144.285 132.559 144.476C132.708 144.497 132.83 144.637 132.83 144.787C132.83 144.937 132.708 145.043 132.559 145.021C131.188 144.83 129.814 144.662 128.437 144.519ZM106.446 144.307C106.412 144.311 106.377 144.307 106.344 144.296C106.311 144.285 106.28 144.267 106.254 144.244C106.229 144.22 106.208 144.191 106.194 144.159C106.181 144.127 106.174 144.093 106.174 144.058C106.174 143.908 106.296 143.775 106.446 143.762C112.803 143.225 119.194 143.207 125.553 143.71C125.627 143.717 125.695 143.751 125.746 143.805C125.796 143.86 125.824 143.931 125.826 144.005C125.826 144.04 125.819 144.074 125.806 144.106C125.792 144.138 125.771 144.167 125.746 144.191C125.72 144.215 125.69 144.233 125.656 144.244C125.623 144.255 125.588 144.259 125.553 144.255C119.194 143.752 112.803 143.77 106.446 144.307ZM100.078 153.927C99.928 153.948 99.806 153.843 99.8067 153.693C99.8067 153.543 99.928 153.403 100.078 153.382C107.158 152.392 114.314 152.051 121.456 152.364C121.529 152.368 121.598 152.399 121.649 152.452C121.7 152.505 121.728 152.576 121.729 152.649C121.729 152.684 121.722 152.719 121.708 152.752C121.695 152.784 121.674 152.813 121.649 152.838C121.623 152.862 121.593 152.881 121.56 152.893C121.527 152.905 121.491 152.911 121.456 152.909C114.314 152.595 107.158 152.936 100.078 153.927ZM123.907 153.042C123.834 153.037 123.765 153.004 123.715 152.95C123.664 152.897 123.635 152.826 123.634 152.752C123.634 152.717 123.641 152.682 123.655 152.65C123.668 152.618 123.689 152.589 123.714 152.565C123.74 152.541 123.771 152.522 123.804 152.511C123.837 152.499 123.872 152.495 123.907 152.497C126.801 152.685 129.687 152.98 132.559 153.382C132.708 153.403 132.83 153.543 132.83 153.693C132.83 153.843 132.708 153.948 132.559 153.927C129.687 153.525 126.801 153.23 123.907 153.042ZM100.078 157.962C99.928 157.983 99.806 157.878 99.8067 157.728C99.8067 157.577 99.928 157.438 100.078 157.417C101.218 157.258 102.361 157.115 103.506 156.989C103.655 156.972 103.778 157.081 103.778 157.231C103.778 157.381 103.656 157.518 103.506 157.533C102.361 157.659 101.218 157.802 100.078 157.962ZM128.437 157.459C128.287 157.444 128.165 157.309 128.165 157.159C128.165 157.009 128.286 156.899 128.437 156.914C129.813 157.057 131.187 157.225 132.559 157.417C132.708 157.437 132.83 157.577 132.83 157.727C132.83 157.878 132.708 157.982 132.559 157.961C131.188 157.77 129.814 157.602 128.437 157.459ZM106.446 157.247C106.412 157.251 106.377 157.247 106.344 157.236C106.311 157.225 106.28 157.207 106.254 157.184C106.229 157.16 106.208 157.132 106.194 157.1C106.181 157.068 106.174 157.033 106.174 156.998C106.174 156.848 106.296 156.715 106.446 156.702C112.803 156.165 119.194 156.148 125.553 156.65C125.627 156.657 125.696 156.691 125.746 156.745C125.796 156.8 125.825 156.871 125.826 156.945C125.826 156.98 125.819 157.014 125.806 157.046C125.792 157.079 125.771 157.107 125.746 157.131C125.72 157.155 125.69 157.173 125.656 157.184C125.623 157.195 125.588 157.199 125.553 157.195C119.194 156.693 112.803 156.71 106.446 157.247ZM62.2422 115.631V115.112C62.2424 115.108 62.2437 115.105 62.246 115.102C62.2483 115.099 62.2514 115.097 62.2549 115.096C69.5499 113.374 76.8449 115.081 84.1401 115.668C84.1435 115.669 84.1467 115.67 84.149 115.673C84.1513 115.675 84.1526 115.679 84.1527 115.682V116.202C84.1527 116.209 84.1474 116.214 84.1401 116.213C76.8451 115.626 69.5499 113.919 62.2549 115.641C62.2479 115.643 62.2424 115.638 62.2422 115.631ZM74.1732 123.677C74.0994 123.669 74.031 123.635 73.9808 123.58C73.9306 123.525 73.9021 123.454 73.9006 123.38C73.9006 123.23 74.0227 123.118 74.1732 123.132C81.0578 123.759 87.9427 125.232 94.8274 123.732C94.9774 123.699 95.1 123.793 95.0998 123.943C95.0996 124.093 94.977 124.244 94.8274 124.277C87.9427 125.777 81.0578 124.303 74.1732 123.677ZM86.3278 116.351C86.2546 116.347 86.1858 116.316 86.1352 116.263C86.0846 116.21 86.056 116.139 86.0554 116.066C86.0551 116.031 86.0621 115.996 86.0759 115.964C86.0897 115.931 86.1099 115.902 86.1355 115.877C86.161 115.853 86.1912 115.834 86.2243 115.822C86.2573 115.81 86.2926 115.805 86.3278 115.807C89.2163 115.932 92.1044 115.812 94.993 115.162C95.1433 115.128 95.2658 115.222 95.2654 115.372C95.265 115.522 95.1439 115.673 94.993 115.707C92.1044 116.357 89.2161 116.477 86.3278 116.351ZM62.5146 119.616C62.3639 119.65 62.2424 119.557 62.2422 119.406C62.2424 119.256 62.3637 119.105 62.5146 119.071C63.661 118.813 64.8079 118.638 65.9543 118.53C65.9889 118.526 66.024 118.529 66.0573 118.54C66.0905 118.55 66.121 118.568 66.1468 118.592C66.1726 118.615 66.1931 118.644 66.2069 118.676C66.2206 118.708 66.2274 118.743 66.2267 118.777C66.2267 118.928 66.1043 119.06 65.9543 119.074C64.8079 119.183 63.6612 119.358 62.5146 119.616ZM62.5146 124.114C62.3639 124.148 62.2424 124.055 62.2422 123.904C62.2424 123.754 62.3637 123.603 62.5146 123.569C65.2101 122.963 67.9055 122.817 70.601 122.903C70.7506 122.908 70.8734 123.034 70.8734 123.185C70.8735 123.22 70.8665 123.255 70.8528 123.288C70.839 123.32 70.8188 123.35 70.7933 123.374C70.7679 123.399 70.7377 123.418 70.7047 123.431C70.6716 123.443 70.6364 123.449 70.601 123.448C67.9058 123.362 65.2101 123.507 62.5146 124.114ZM90.8587 120.341C90.8238 120.344 90.7886 120.339 90.7554 120.328C90.7223 120.317 90.6919 120.298 90.6662 120.274C90.6405 120.25 90.6202 120.221 90.6064 120.189C90.5927 120.157 90.5858 120.122 90.5864 120.087C90.5861 119.936 90.7092 119.807 90.8587 119.796C92.2367 119.696 93.6149 119.506 94.9928 119.196C95.143 119.163 95.2656 119.255 95.2652 119.406C95.2647 119.556 95.1437 119.708 94.9928 119.741C93.6149 120.052 92.2367 120.241 90.8587 120.341ZM68.8977 118.928C68.8621 118.929 68.8268 118.922 68.7938 118.908C68.7608 118.895 68.7308 118.875 68.7055 118.85C68.6801 118.825 68.66 118.795 68.6463 118.763C68.6325 118.73 68.6254 118.694 68.6254 118.659C68.6257 118.586 68.6544 118.517 68.7053 118.465C68.7562 118.414 68.8253 118.384 68.8977 118.383C75.2561 118.331 81.6145 119.835 87.9728 119.884C88.0451 119.885 88.1143 119.914 88.1654 119.965C88.2164 120.016 88.2452 120.086 88.2454 120.158C88.2454 120.308 88.1233 120.43 87.9728 120.429C81.6147 120.381 75.2563 118.876 68.8977 118.928ZM62.5146 128.521C62.3639 128.555 62.2424 128.462 62.2422 128.312C62.2424 128.161 62.3637 128.01 62.5146 127.977C69.6365 126.375 76.7582 127.988 83.8801 128.587C83.9537 128.595 84.0221 128.629 84.0723 128.683C84.1225 128.737 84.151 128.808 84.1524 128.882C84.153 128.917 84.1462 128.952 84.1324 128.984C84.1186 129.016 84.0982 129.045 84.0724 129.068C84.0467 129.092 84.0163 129.11 83.9831 129.121C83.9499 129.132 83.9148 129.136 83.8801 129.132C76.7584 128.533 69.6365 126.92 62.5146 128.521ZM74.1732 136.617C74.0994 136.609 74.031 136.575 73.9808 136.52C73.9306 136.465 73.9021 136.394 73.9006 136.32C73.9006 136.17 74.0227 136.059 74.1732 136.072C81.0578 136.698 87.9427 138.173 94.8274 136.672C94.9774 136.639 95.1 136.733 95.0998 136.883C95.0996 137.033 94.977 137.184 94.8274 137.217C87.9427 138.718 81.0578 137.243 74.1732 136.617ZM86.3278 129.292C86.2547 129.288 86.1859 129.256 86.1353 129.203C86.0847 129.15 86.0562 129.08 86.0554 129.007C86.0551 128.971 86.0621 128.937 86.0759 128.904C86.0897 128.872 86.1099 128.842 86.1354 128.818C86.161 128.794 86.1912 128.775 86.2243 128.763C86.2573 128.75 86.2925 128.745 86.3278 128.747C89.2163 128.873 92.1044 128.752 94.993 128.102C95.1433 128.069 95.2658 128.162 95.2654 128.312C95.265 128.462 95.1439 128.614 94.993 128.647C92.1044 129.297 89.2161 129.418 86.3278 129.292ZM62.5146 132.556C62.3639 132.59 62.2424 132.497 62.2422 132.346C62.2424 132.197 62.3637 132.045 62.5146 132.011C63.661 131.753 64.8079 131.579 65.9543 131.47C65.9889 131.466 66.024 131.47 66.0572 131.48C66.0904 131.491 66.1209 131.509 66.1467 131.532C66.1724 131.556 66.1929 131.584 66.2067 131.616C66.2205 131.648 66.2273 131.683 66.2267 131.718C66.2267 131.868 66.1043 132 65.9543 132.015C64.8079 132.124 63.6612 132.298 62.5146 132.556ZM62.5146 137.054C62.3639 137.088 62.2424 136.995 62.2422 136.845C62.2424 136.694 62.3637 136.543 62.5146 136.509C65.2101 135.903 67.9055 135.757 70.601 135.843C70.7506 135.848 70.8734 135.975 70.8734 136.125C70.8735 136.16 70.8665 136.195 70.8528 136.228C70.839 136.261 70.8188 136.29 70.7934 136.315C70.7679 136.339 70.7377 136.358 70.7047 136.371C70.6716 136.384 70.6364 136.389 70.601 136.388C67.9058 136.302 65.2101 136.448 62.5146 137.054ZM90.8587 133.281C90.8238 133.284 90.7886 133.279 90.7555 133.268C90.7224 133.257 90.692 133.238 90.6664 133.214C90.6407 133.191 90.6203 133.162 90.6066 133.129C90.5928 133.097 90.5859 133.062 90.5864 133.027C90.5876 132.954 90.6162 132.883 90.6665 132.829C90.7169 132.775 90.7853 132.742 90.8587 132.736C92.2367 132.636 93.6149 132.447 94.9928 132.137C95.143 132.103 95.2656 132.196 95.2652 132.346C95.2647 132.497 95.1437 132.648 94.9928 132.681C93.6149 132.992 92.2367 133.181 90.8587 133.281ZM68.8977 131.868C68.8622 131.869 68.8268 131.862 68.7938 131.849C68.7608 131.836 68.7308 131.816 68.7055 131.791C68.6801 131.766 68.66 131.736 68.6463 131.703C68.6325 131.67 68.6254 131.635 68.6254 131.599C68.6257 131.527 68.6544 131.458 68.7053 131.406C68.7562 131.354 68.8253 131.325 68.8977 131.324C75.2561 131.272 81.6145 132.776 87.9728 132.825C88.0452 132.825 88.1144 132.854 88.1654 132.905C88.2165 132.957 88.2453 133.026 88.2454 133.098C88.2454 133.249 88.1233 133.371 87.9728 133.369C81.6147 133.32 75.2563 131.817 68.8977 131.868ZM62.5146 141.462C62.3639 141.495 62.2424 141.403 62.2422 141.252C62.2424 141.102 62.3637 140.95 62.5146 140.917C69.6365 139.315 76.7582 140.929 83.8801 141.528C83.9537 141.535 84.0221 141.569 84.0723 141.623C84.1225 141.678 84.151 141.749 84.1524 141.823C84.153 141.857 84.1462 141.892 84.1324 141.924C84.1186 141.956 84.0982 141.985 84.0724 142.009C84.0467 142.032 84.0163 142.05 83.9831 142.061C83.9499 142.072 83.9148 142.076 83.8801 142.072C76.7584 141.473 69.6365 139.86 62.5146 141.462ZM74.1732 149.557C74.0994 149.549 74.0309 149.515 73.9807 149.46C73.9306 149.406 73.902 149.334 73.9006 149.26C73.9006 149.11 74.0227 148.998 74.1732 149.012C81.0578 149.639 87.9427 151.113 94.8274 149.612C94.9774 149.579 95.1 149.673 95.0998 149.824C95.0996 149.974 94.977 150.124 94.8274 150.157C87.9427 151.658 81.0578 150.184 74.1732 149.557ZM86.3278 142.232C86.2546 142.228 86.1858 142.196 86.1352 142.143C86.0846 142.09 86.056 142.02 86.0554 141.947C86.0551 141.911 86.0621 141.876 86.0759 141.844C86.0897 141.812 86.1099 141.782 86.1354 141.758C86.161 141.734 86.1912 141.715 86.2243 141.702C86.2573 141.69 86.2925 141.685 86.3278 141.687C89.2163 141.813 92.1044 141.692 94.993 141.042C95.1433 141.008 95.2658 141.102 95.2654 141.252C95.265 141.402 95.1439 141.554 94.993 141.587C92.1044 142.237 89.2161 142.358 86.3278 142.232ZM62.5146 145.496C62.3639 145.53 62.2424 145.437 62.2422 145.287C62.2424 145.137 62.3637 144.985 62.5146 144.951C63.661 144.694 64.8079 144.519 65.9543 144.41C65.9889 144.406 66.024 144.41 66.0572 144.42C66.0904 144.431 66.1209 144.449 66.1467 144.472C66.1725 144.496 66.193 144.524 66.2068 144.556C66.2206 144.588 66.2273 144.623 66.2267 144.658C66.2267 144.808 66.1043 144.941 65.9543 144.955C64.8079 145.064 63.6612 145.238 62.5146 145.496ZM62.5146 149.994C62.3639 150.028 62.2424 149.935 62.2422 149.785C62.2424 149.635 62.3637 149.483 62.5146 149.449C65.2101 148.843 67.9055 148.697 70.601 148.783C70.7506 148.788 70.8734 148.915 70.8734 149.065C70.8735 149.1 70.8665 149.135 70.8528 149.168C70.839 149.201 70.8188 149.23 70.7933 149.255C70.7679 149.279 70.7377 149.298 70.7047 149.311C70.6716 149.324 70.6364 149.329 70.601 149.328C67.9058 149.242 65.2101 149.388 62.5146 149.994ZM90.8587 146.221C90.8238 146.224 90.7886 146.22 90.7555 146.208C90.7224 146.197 90.692 146.178 90.6664 146.155C90.6407 146.131 90.6203 146.102 90.6066 146.069C90.5928 146.037 90.5859 146.002 90.5864 145.967C90.5861 145.817 90.7092 145.687 90.8587 145.676C92.2367 145.577 93.6149 145.387 94.9928 145.077C95.143 145.043 95.2656 145.136 95.2652 145.287C95.2647 145.437 95.1437 145.588 94.9928 145.622C93.6149 145.932 92.2367 146.122 90.8587 146.221ZM68.8977 144.809C68.8621 144.809 68.8268 144.802 68.7938 144.789C68.7608 144.776 68.7307 144.756 68.7054 144.731C68.6801 144.706 68.66 144.676 68.6462 144.643C68.6325 144.61 68.6254 144.575 68.6254 144.539C68.6257 144.467 68.6544 144.397 68.7053 144.346C68.7563 144.294 68.8253 144.265 68.8977 144.264C75.2561 144.212 81.6145 145.716 87.9728 145.765C88.0451 145.765 88.1143 145.794 88.1654 145.845C88.2164 145.897 88.2452 145.966 88.2454 146.038C88.2454 146.188 88.1233 146.311 87.9728 146.31C81.6147 146.261 75.2563 144.757 68.8977 144.809ZM62.5146 154.402C62.3639 154.436 62.2424 154.343 62.2422 154.192C62.2424 154.042 62.3637 153.891 62.5146 153.857C69.6365 152.255 76.7582 153.869 83.8801 154.468C83.9537 154.475 84.0221 154.509 84.0724 154.563C84.1226 154.618 84.1511 154.689 84.1524 154.763C84.153 154.798 84.1462 154.832 84.1324 154.864C84.1186 154.896 84.0982 154.925 84.0724 154.949C84.0467 154.972 84.0163 154.99 83.9831 155.001C83.9499 155.012 83.9148 155.016 83.8801 155.013C76.7584 154.414 69.6365 152.8 62.5146 154.402ZM86.3278 155.172C86.2546 155.168 86.1858 155.136 86.1352 155.083C86.0846 155.03 86.056 154.96 86.0554 154.887C86.0552 154.851 86.0622 154.817 86.076 154.784C86.0898 154.752 86.1101 154.723 86.1356 154.698C86.1611 154.674 86.1913 154.655 86.2243 154.643C86.2574 154.631 86.2926 154.625 86.3278 154.627C89.2163 154.753 92.1044 154.632 94.993 153.983C95.1433 153.949 95.2658 154.042 95.2654 154.192C95.265 154.342 95.1439 154.493 94.993 154.527C92.1044 155.177 89.2161 155.298 86.3278 155.172ZM62.5146 158.436C62.3639 158.471 62.2424 158.377 62.2422 158.227C62.2424 158.077 62.3637 157.925 62.5146 157.892C63.661 157.634 64.8079 157.459 65.9543 157.35C65.9889 157.346 66.024 157.35 66.0572 157.361C66.0903 157.371 66.1208 157.389 66.1466 157.412C66.1724 157.436 66.1929 157.465 66.2067 157.497C66.2205 157.529 66.2273 157.563 66.2267 157.598C66.2267 157.748 66.1043 157.881 65.9543 157.895C64.8079 158.004 63.6612 158.179 62.5146 158.436ZM90.8587 159.161C90.8238 159.164 90.7886 159.16 90.7555 159.148C90.7224 159.137 90.692 159.119 90.6664 159.095C90.6407 159.071 90.6203 159.042 90.6066 159.01C90.5928 158.977 90.5859 158.942 90.5864 158.907C90.5875 158.834 90.6161 158.763 90.6664 158.709C90.7168 158.656 90.7853 158.623 90.8587 158.617C92.2367 158.517 93.6149 158.327 94.9928 158.017C95.143 157.983 95.2656 158.076 95.2652 158.227C95.2647 158.377 95.1437 158.528 94.9928 158.562C93.6149 158.872 92.2367 159.062 90.8587 159.161ZM68.8977 157.749C68.8621 157.749 68.8268 157.743 68.7938 157.729C68.7608 157.716 68.7307 157.696 68.7054 157.671C68.6801 157.646 68.66 157.616 68.6462 157.583C68.6325 157.551 68.6254 157.515 68.6254 157.48C68.6257 157.407 68.6544 157.338 68.7053 157.286C68.7563 157.235 68.8253 157.205 68.8977 157.204C75.2561 157.152 81.6145 158.656 87.9728 158.705C88.0451 158.706 88.1143 158.735 88.1654 158.786C88.2164 158.837 88.2452 158.906 88.2454 158.979C88.2454 159.129 88.1233 159.251 87.9728 159.25C81.6147 159.201 75.2563 157.697 68.8977 157.749Z" fill="#57D384"/>
</svg>
