<svg width="130" height="130" viewBox="0 0 130 130" fill="none" xmlns="http://www.w3.org/2000/svg">
<path d="M115.384 103.701C115.631 102.879 115.751 102.023 115.739 101.165L118.099 99.892L117.484 97.5284L114.925 97.6832C114.897 97.6241 114.876 97.565 114.847 97.5112C114.46 96.7537 113.954 96.0634 113.348 95.4667L114.208 93.0162L112.187 91.7516L110.404 93.6538C109.563 93.3719 108.679 93.2408 107.793 93.2667L106.741 91.0591L104.43 91.6961L104.489 94.1371C104.435 94.1661 104.38 94.1879 104.326 94.2175C103.58 94.634 102.907 95.1693 102.334 95.8023L99.9158 95.1612L98.8025 97.3529L100.581 98.8484C100.295 99.7484 100.162 100.69 100.188 101.634L97.8984 102.946L98.5484 105.299L101.042 105.083C101.055 105.109 101.064 105.135 101.078 105.161C101.458 105.907 101.953 106.587 102.547 107.178L101.83 109.934L103.94 111.038L105.531 109.022C106.385 109.307 107.284 109.436 108.183 109.403L109.431 111.726L111.719 111.001L111.535 108.486C111.555 108.475 111.576 108.467 111.594 108.456C112.365 108.025 113.058 107.467 113.643 106.805L116.002 107.603L117.226 105.476L115.384 103.701ZM106.94 105.69C106.088 105.476 105.319 105.013 104.73 104.362C104.142 103.711 103.759 102.899 103.631 102.03C103.503 101.162 103.636 100.274 104.012 99.4811C104.389 98.6876 104.992 98.0237 105.746 97.5731C106.5 97.1225 107.37 96.9056 108.247 96.9498C109.124 96.9939 109.968 97.2972 110.673 97.8211C111.378 98.3451 111.911 99.0663 112.206 99.8935C112.501 100.721 112.544 101.617 112.33 102.468C112.042 103.61 111.313 104.591 110.302 105.195C109.291 105.799 108.082 105.977 106.94 105.69Z" fill="#5EE890"/>
<path d="M106.447 107.639C105.21 107.327 104.094 106.656 103.238 105.709C102.383 104.762 101.828 103.583 101.643 102.321C101.457 101.059 101.65 99.7702 102.198 98.6177C102.745 97.4653 103.621 96.5009 104.716 95.8466C105.812 95.1922 107.076 94.8773 108.35 94.9415C109.624 95.0058 110.851 95.4464 111.874 96.2077C112.898 96.9689 113.673 98.0166 114.102 99.2182C114.53 100.42 114.592 101.722 114.281 102.959C113.862 104.618 112.801 106.042 111.333 106.92C109.864 107.797 108.107 108.056 106.447 107.639ZM109.475 95.6155C108.334 95.3279 107.133 95.385 106.025 95.7797C104.917 96.1743 103.95 96.8888 103.248 97.8326C102.546 98.7765 102.139 99.9075 102.08 101.082C102.02 102.257 102.311 103.424 102.914 104.434C103.517 105.444 104.407 106.252 105.469 106.756C106.532 107.261 107.721 107.439 108.885 107.268C110.049 107.097 111.136 106.585 112.009 105.796C112.881 105.007 113.501 103.977 113.788 102.836C114.172 101.307 113.933 99.6878 113.124 98.3342C112.316 96.9805 111.003 96.0028 109.475 95.6155Z" fill="white"/>
<path d="M31.4534 44.6679C31.8238 43.4334 32.0031 42.1495 31.9853 40.8607L35.5278 38.9491L34.6048 35.4037L30.7639 35.6359C30.7225 35.5502 30.6912 35.4622 30.6457 35.3777C30.0646 34.2402 29.3043 33.2037 28.3937 32.3079L29.686 28.6283L26.6505 26.7297L23.9749 29.5868C22.7124 29.1636 21.3852 28.9667 20.0542 29.0053L18.4777 25.6868L15.0084 26.6429L15.1018 30.3065C15.0203 30.349 14.9369 30.3821 14.856 30.4247C13.7365 31.0499 12.7264 31.8535 11.8654 32.8037L8.23544 31.8411L6.56376 35.1354L9.23349 37.3809C8.8036 38.7321 8.60385 40.1459 8.64258 41.5633L5.20703 43.5328L6.17849 47.0665L9.92249 46.7409C9.94199 46.7799 9.95558 46.82 9.97567 46.859C10.5467 47.9783 11.2912 49.0002 12.1815 49.8869L11.1055 54.0232L14.2745 55.6778L16.663 52.6553C17.9453 53.0826 19.2938 53.2763 20.6445 53.2273L22.5183 56.7136L25.9527 55.624L25.6761 51.8481C25.7063 51.8315 25.7352 51.8197 25.7677 51.8032C26.9251 51.1558 27.9651 50.318 28.844 49.3249L32.3841 50.5227L34.2224 47.3318L31.4534 44.6679ZM18.7767 47.6544C17.498 47.3326 16.3434 46.6388 15.459 45.6608C14.5746 44.6828 14.0001 43.4645 13.8081 42.16C13.6162 40.8555 13.8153 39.5233 14.3805 38.332C14.9456 37.1407 15.8514 36.1437 16.9831 35.4672C18.1149 34.7906 19.4219 34.4649 20.7388 34.5312C22.0557 34.5974 23.3234 35.0527 24.3815 35.8395C25.4396 36.6262 26.2407 37.7091 26.6834 38.9511C27.1261 40.1931 27.1905 41.5386 26.8686 42.8172C26.4367 44.5316 25.3417 46.0042 23.8242 46.9113C22.3068 47.8185 20.4912 48.0857 18.7767 47.6544Z" fill="#E0E6E2"/>
<path d="M18.0407 50.5817C12.862 49.2782 9.7089 44.0043 11.013 38.8226C12.3172 33.641 17.591 30.4908 22.7721 31.795C27.9532 33.0991 31.104 38.373 29.8004 43.554C28.4969 48.7351 23.22 51.8853 18.0407 50.5817ZM22.5854 32.5295C17.8103 31.327 12.9471 34.2342 11.7452 39.0088C10.5433 43.7833 13.45 48.6471 18.2251 49.8496C23.0002 51.0521 27.864 48.1448 29.0659 43.3726C30.2678 38.6005 27.36 33.732 22.5854 32.5295Z" fill="#E0E6E2"/>
<path d="M92.4217 29.0266L95.199 28.0457L92.3626 27.1794C91.9478 27.0844 91.5675 26.8761 91.2642 26.5776C90.9608 26.279 90.7464 25.9021 90.6448 25.4889L89.619 21.3064L88.7971 25.4569C88.712 25.8858 88.5064 26.2814 88.2043 26.5974C87.9022 26.9134 87.5163 27.1367 87.0917 27.2409L84.4805 28.2342L87.0574 29.0509C87.4977 29.138 87.9027 29.3524 88.2224 29.6675C88.542 29.9826 88.7621 30.3846 88.8556 30.8236L89.7236 34.8737L90.6649 30.7615C90.7621 30.3351 90.9791 29.9452 91.2903 29.6379C91.6015 29.3305 91.994 29.1185 92.4217 29.0266Z" fill="#272727"/>
<path d="M15.215 93.2326L16.941 92.6227L15.1778 92.0838C14.9199 92.0247 14.6835 91.8951 14.4949 91.7095C14.3064 91.5239 14.1731 91.2895 14.11 91.0326L13.4724 88.4326L12.9607 91.0137C12.908 91.2804 12.7802 91.5264 12.5924 91.7229C12.4046 91.9194 12.1646 92.0582 11.9006 92.1228L10.2773 92.7403L11.8793 93.2485C12.153 93.3023 12.405 93.4351 12.604 93.6305C12.803 93.826 12.9404 94.0755 12.9991 94.3482L13.5386 96.8667L14.1218 94.3092C14.1826 94.0443 14.3177 93.8022 14.5114 93.6115C14.705 93.4207 14.9491 93.2893 15.215 93.2326Z" fill="#272727"/>
<path d="M118.739 81.0344L121.294 80.1314L118.684 79.3337C118.302 79.2463 117.952 79.0545 117.673 78.7796C117.394 78.5048 117.197 78.1577 117.104 77.7773L116.158 73.9275L115.404 77.7483C115.326 78.1429 115.137 78.5069 114.859 78.7977C114.581 79.0885 114.225 79.2939 113.835 79.3899L111.43 80.3046L113.802 81.0562C114.206 81.1365 114.579 81.3336 114.873 81.6232C115.167 81.9129 115.37 82.2823 115.456 82.686L116.255 86.4146L117.122 82.6292C117.212 82.237 117.412 81.8786 117.698 81.5961C117.985 81.3136 118.346 81.1187 118.739 81.0344Z" fill="#272727"/>
<path d="M22.1679 43.6362H108.933C108.976 43.6362 109.017 43.6445 109.056 43.6607C109.095 43.6768 109.13 43.7004 109.16 43.7302C109.19 43.76 109.213 43.7954 109.23 43.8343C109.246 43.8733 109.254 43.915 109.254 43.9571V101.945C109.254 101.987 109.246 102.029 109.23 102.067C109.213 102.106 109.19 102.142 109.16 102.171C109.13 102.201 109.095 102.225 109.056 102.241C109.017 102.257 108.976 102.265 108.933 102.265H22.1679C22.1258 102.265 22.0842 102.257 22.0453 102.241C22.0064 102.225 21.971 102.201 21.9413 102.171C21.9115 102.142 21.8879 102.106 21.8719 102.067C21.8558 102.029 21.8476 101.987 21.8477 101.945V43.9571C21.8476 43.915 21.8558 43.8733 21.8719 43.8343C21.8879 43.7954 21.9115 43.76 21.9413 43.7302C21.971 43.7004 22.0063 43.6768 22.0452 43.6607C22.0841 43.6445 22.1258 43.6362 22.1679 43.6362Z" fill="#272727"/>
<path d="M19.9723 42.3091H107.781C107.823 42.3086 107.865 42.3165 107.904 42.3322C107.943 42.3479 107.979 42.3711 108.009 42.4006C108.039 42.4301 108.063 42.4652 108.08 42.5039C108.096 42.5427 108.105 42.5843 108.105 42.6264V100.618C108.105 100.66 108.096 100.701 108.08 100.74C108.063 100.779 108.039 100.814 108.009 100.843C107.979 100.873 107.943 100.896 107.904 100.912C107.865 100.928 107.823 100.935 107.781 100.935H19.9723C19.9301 100.935 19.8884 100.928 19.8493 100.912C19.8102 100.896 19.7746 100.873 19.7445 100.843C19.7145 100.814 19.6905 100.779 19.674 100.74C19.6575 100.701 19.6488 100.66 19.6484 100.618V42.627C19.6487 42.5849 19.6574 42.5432 19.6738 42.5043C19.6903 42.4655 19.7142 42.4303 19.7443 42.4008C19.7744 42.3713 19.81 42.348 19.8491 42.3322C19.8883 42.3165 19.9301 42.3086 19.9723 42.3091Z" fill="white"/>
<path d="M107.781 101.181H19.972C19.8218 101.182 19.6776 101.123 19.5708 101.018C19.464 100.912 19.4034 100.768 19.4023 100.618V42.627C19.4034 42.4769 19.464 42.3334 19.5708 42.2279C19.6776 42.1225 19.8219 42.0637 19.972 42.0645H107.781C107.931 42.0637 108.075 42.1225 108.182 42.2279C108.289 42.3334 108.35 42.4769 108.351 42.627V100.618C108.35 100.768 108.289 100.912 108.182 101.018C108.076 101.123 107.931 101.182 107.781 101.181ZM19.972 42.5555C19.9522 42.5547 19.9328 42.5618 19.9182 42.5752C19.9036 42.5886 19.8949 42.6072 19.894 42.627V100.618C19.8943 100.628 19.8966 100.638 19.9006 100.647C19.9047 100.656 19.9106 100.664 19.9178 100.671C19.9251 100.678 19.9336 100.683 19.9429 100.686C19.9522 100.69 19.9621 100.691 19.972 100.691H107.781C107.801 100.692 107.82 100.685 107.835 100.671C107.85 100.658 107.859 100.639 107.86 100.619V42.627C107.859 42.6072 107.85 42.5885 107.835 42.5751C107.82 42.5618 107.801 42.5547 107.781 42.5555H19.972Z" fill="#272727"/>
<path d="M19.9723 42.1802H107.781C107.962 42.1802 108.105 42.1973 108.105 42.2144V47.9977C108.105 48.0148 107.962 48.0284 107.781 48.0284H19.9723C19.7915 48.0284 19.6485 48.0148 19.6485 47.9977V42.2144C19.6461 42.1973 19.7891 42.1802 19.9723 42.1802Z" fill="#272727"/>
<path d="M107.781 48.2773H19.972C19.7049 48.2773 19.4023 48.2773 19.4023 48.0007V42.2146C19.4023 41.9351 19.7185 41.9351 19.972 41.9351H107.781C108.035 41.9351 108.351 41.9351 108.351 42.2146V47.9978C108.351 48.2773 108.049 48.2773 107.781 48.2773ZM19.8916 47.7821H107.86V42.4273H107.782H19.972H19.894L19.8916 47.7821Z" fill="#272727"/>
<path d="M99.2773 42.2861C99.277 41.587 99.484 40.9034 99.8721 40.3219C100.26 39.7404 100.812 39.2871 101.458 39.0192C102.104 38.7514 102.814 38.681 103.5 38.8171C104.186 38.9532 104.816 39.2896 105.311 39.7838C105.805 40.278 106.142 40.9077 106.279 41.5933C106.415 42.279 106.346 42.9898 106.078 43.6358C105.811 44.2818 105.358 44.8341 104.777 45.2227C104.196 45.6114 103.512 45.8189 102.813 45.8192C102.349 45.8194 101.89 45.7282 101.461 45.5507C101.032 45.3733 100.642 45.1131 100.314 44.785C99.9852 44.457 99.7247 44.0674 99.5469 43.6386C99.3691 43.2099 99.2775 42.7503 99.2773 42.2861Z" fill="#5EE890"/>
<path d="M102.817 46.0644C102.068 46.0651 101.337 45.8438 100.714 45.4285C100.092 45.0132 99.6065 44.4226 99.3198 43.7314C99.0331 43.0402 98.9579 42.2796 99.1037 41.5456C99.2496 40.8117 99.6098 40.1375 100.139 39.6084C100.668 39.0793 101.342 38.719 102.076 38.5732C102.81 38.4274 103.571 38.5026 104.262 38.7893C104.953 39.076 105.544 39.5612 105.959 40.1837C106.374 40.8062 106.596 41.5378 106.595 42.2861C106.594 43.2879 106.196 44.2483 105.487 44.9567C104.779 45.6651 103.818 46.0634 102.817 46.0644ZM102.817 38.9953C102.166 38.995 101.53 39.1875 100.989 39.5486C100.448 39.9097 100.026 40.4232 99.7769 41.024C99.5276 41.6249 99.4621 42.2862 99.5887 42.9242C99.7153 43.5623 100.028 44.1485 100.488 44.6087C100.948 45.069 101.534 45.3825 102.171 45.5098C102.809 45.637 103.471 45.5723 104.072 45.3236C104.673 45.075 105.187 44.6537 105.549 44.1131C105.91 43.5724 106.103 42.9366 106.104 42.2861C106.103 41.4142 105.756 40.5783 105.14 39.9615C104.524 39.3446 103.688 38.9972 102.817 38.9953Z" fill="#272727"/>
<path d="M89.7109 42.2861C89.7106 41.5868 89.9177 40.9031 90.306 40.3215C90.6943 39.74 91.2463 39.2866 91.8924 39.0189C92.5384 38.7511 93.2493 38.681 93.9351 38.8174C94.621 38.9538 95.251 39.2905 95.7455 39.785C96.2399 40.2796 96.5765 40.9096 96.7128 41.5955C96.8491 42.2814 96.7788 42.9923 96.511 43.6383C96.2431 44.2842 95.7897 44.8362 95.2081 45.2245C94.6264 45.6127 93.9427 45.8196 93.2434 45.8192C92.3065 45.8188 91.4081 45.4465 90.7457 44.784C90.0833 44.1214 89.7111 43.223 89.7109 42.2861Z" fill="#5CFF97"/>
<path d="M93.2428 46.0644C92.4946 46.0644 91.7633 45.8425 91.1413 45.4268C90.5193 45.0111 90.0346 44.4202 89.7485 43.729C89.4623 43.0377 89.3877 42.2771 89.5339 41.5434C89.6801 40.8098 90.0406 40.1359 90.5699 39.6071C91.0991 39.0784 91.7733 38.7185 92.5071 38.573C93.241 38.4274 94.0015 38.5028 94.6925 38.7896C95.3834 39.0764 95.9738 39.5617 96.3889 40.1841C96.8041 40.8064 97.0253 41.538 97.0246 42.2861C97.0236 43.2885 96.6248 44.2495 95.9156 44.958C95.2065 45.6664 94.2451 46.0644 93.2428 46.0644ZM93.2428 38.9953C92.5924 38.9957 91.9567 39.1888 91.4161 39.5504C90.8755 39.9119 90.4543 40.4256 90.2055 41.0265C89.9568 41.6274 89.8918 42.2886 90.0188 42.9264C90.1458 43.5643 90.459 44.1501 90.9189 44.61C91.3787 45.0699 91.9646 45.3831 92.6024 45.51C93.2403 45.637 93.9014 45.572 94.5024 45.3233C95.1033 45.0746 95.617 44.6533 95.9785 44.1127C96.34 43.5721 96.5332 42.9364 96.5335 42.2861C96.5331 41.4135 96.1862 40.5767 95.5692 39.9597C94.9521 39.3426 94.1154 38.9958 93.2428 38.9953Z" fill="#272727"/>
<path d="M80.1797 42.2861C80.1793 41.587 80.3863 40.9034 80.7745 40.3219C81.1626 39.7404 81.7145 39.2871 82.3603 39.0192C83.0061 38.7514 83.7168 38.681 84.4026 38.8171C85.0884 38.9532 85.7184 39.2896 86.213 39.7838C86.7075 40.278 87.0445 40.9077 87.1811 41.5933C87.3178 42.279 87.2481 42.9898 86.9808 43.6358C86.7134 44.2818 86.2606 44.8341 85.6794 45.2227C85.0982 45.6114 84.4148 45.8189 83.7157 45.8192C82.7783 45.8195 81.8792 45.4474 81.2161 44.7849C80.5529 44.1223 80.1802 43.2235 80.1797 42.2861Z" fill="#5EE890"/>
<path d="M83.715 46.0644C82.9668 46.0651 82.2351 45.8438 81.6126 45.4285C80.9902 45.0132 80.5049 44.4226 80.2182 43.7314C79.9316 43.0402 79.8564 42.2796 80.0022 41.5456C80.148 40.8117 80.5082 40.1375 81.0374 39.6084C81.5665 39.0793 82.2407 38.719 82.9746 38.5732C83.7085 38.4274 84.4692 38.5026 85.1604 38.7893C85.8516 39.076 86.4422 39.5612 86.8575 40.1837C87.2727 40.8062 87.494 41.5378 87.4933 42.2861C87.4924 43.2879 87.094 44.2483 86.3857 44.9567C85.6773 45.6651 84.7168 46.0634 83.715 46.0644ZM83.715 38.9953C83.0645 38.995 82.4285 39.1875 81.8875 39.5486C81.3464 39.9097 80.9246 40.4232 80.6753 41.024C80.4261 41.6249 80.3606 42.2862 80.4871 42.9242C80.6137 43.5623 80.9266 44.1485 81.3863 44.6087C81.8461 45.069 82.4319 45.3825 83.0699 45.5098C83.7078 45.637 84.3692 45.5723 84.9703 45.3236C85.5714 45.075 86.0853 44.6537 86.447 44.1131C86.8087 43.5724 87.0019 42.9366 87.0023 42.2861C87.0013 41.4142 86.6548 40.5783 86.0387 39.9615C85.4225 39.3446 84.5869 38.9972 83.715 38.9953Z" fill="#2D2D2D"/>
<path d="M76.7169 66.5181H100.058C100.665 66.5181 101.157 66.8963 101.157 67.3637V78.1938C101.157 78.6613 100.665 79.0394 100.058 79.0394H76.7169C76.1094 79.0394 75.6172 78.6613 75.6172 78.1938V67.3637C75.6172 66.8963 76.1076 66.5181 76.7169 66.5181Z" fill="#E0E6E2"/>
<path d="M76.7169 51.0593H100.058C100.665 51.0593 101.157 51.4375 101.157 51.9049V62.7351C101.157 63.2025 100.665 63.5807 100.058 63.5807H76.7169C76.1094 63.5807 75.6172 63.2025 75.6172 62.7351V51.9049C75.6172 51.4375 76.1076 51.0593 76.7169 51.0593Z" fill="#E0E6E2"/>
<path d="M76.7169 83.0393H100.058C100.665 83.0393 101.157 83.4181 101.157 83.8855V94.7157C101.157 95.1825 100.665 95.5613 100.058 95.5613H76.7169C76.1094 95.5613 75.6172 95.1825 75.6172 94.7157V83.8855C75.6172 83.4181 76.1076 83.0393 76.7169 83.0393Z" fill="#E0E6E2"/>
<path d="M30.4579 67.2507C30.6672 66.0542 29.8669 64.9146 28.6704 64.7054C27.4738 64.4961 26.3342 65.2964 26.125 66.4929C25.9157 67.6895 26.7161 68.8291 27.9126 69.0383C29.1091 69.2476 30.2487 68.4472 30.4579 67.2507Z" fill="#5EE890"/>
<path d="M32.3612 65.8528H49.7422C49.8253 65.853 49.9075 65.8696 49.9842 65.9016C50.0608 65.9337 50.1304 65.9805 50.189 66.0394C50.2475 66.0984 50.2939 66.1683 50.3254 66.2451C50.3569 66.322 50.373 66.4043 50.3727 66.4874C50.3724 66.6545 50.3059 66.8147 50.1877 66.9329C50.0695 67.0511 49.9093 67.1176 49.7422 67.1179H32.3612C32.2781 67.1182 32.1958 67.1022 32.1189 67.0706C32.0421 67.0391 31.9722 66.9927 31.9132 66.9342C31.8543 66.8756 31.8075 66.806 31.7754 66.7294C31.7434 66.6527 31.7268 66.5705 31.7266 66.4874C31.7264 66.404 31.7427 66.3214 31.7746 66.2444C31.8064 66.1673 31.8531 66.0973 31.9121 66.0383C31.9711 65.9794 32.0411 65.9326 32.1181 65.9008C32.1952 65.8689 32.2778 65.8526 32.3612 65.8528Z" fill="#ADB5B0"/>
<path d="M32.3612 68.6831H39.9313C40.0147 68.683 40.0973 68.6993 40.1743 68.7311C40.2513 68.763 40.3213 68.8097 40.3802 68.8687C40.4391 68.9276 40.4858 68.9977 40.5176 69.0747C40.5494 69.1518 40.5656 69.2344 40.5654 69.3177C40.5651 69.4008 40.5486 69.483 40.5166 69.5596C40.4846 69.6362 40.4378 69.7058 40.3789 69.7643C40.3201 69.8229 40.2502 69.8692 40.1734 69.9008C40.0966 69.9324 40.0144 69.9485 39.9313 69.9482H32.3612C32.2781 69.9486 32.1958 69.9325 32.1189 69.901C32.0421 69.8694 31.9722 69.8231 31.9132 69.7645C31.8543 69.706 31.8075 69.6364 31.7754 69.5597C31.7434 69.4831 31.7268 69.4008 31.7266 69.3177C31.7264 69.2344 31.7427 69.1518 31.7746 69.0747C31.8064 68.9976 31.8531 68.9276 31.9121 68.8686C31.9711 68.8097 32.0411 68.7629 32.1181 68.7311C32.1952 68.6993 32.2778 68.683 32.3612 68.6831Z" fill="#E0E6E2"/>
<path d="M43.3801 68.6831H63.3564C63.4398 68.683 63.5223 68.6993 63.5994 68.7311C63.6764 68.763 63.7464 68.8097 63.8053 68.8687C63.8642 68.9276 63.9109 68.9977 63.9427 69.0747C63.9745 69.1518 63.9907 69.2344 63.9905 69.3177C63.9902 69.4008 63.9736 69.483 63.9417 69.5596C63.9097 69.6362 63.8629 69.7058 63.804 69.7643C63.7451 69.8229 63.6753 69.8692 63.5985 69.9008C63.5217 69.9324 63.4394 69.9485 63.3564 69.9482H43.3801C43.2971 69.9485 43.2148 69.9324 43.138 69.9008C43.0612 69.8692 42.9914 69.8229 42.9325 69.7643C42.8737 69.7058 42.8269 69.6362 42.7949 69.5596C42.7629 69.483 42.7463 69.4008 42.7461 69.3177C42.7459 69.2344 42.7621 69.1518 42.7939 69.0747C42.8256 68.9977 42.8723 68.9276 42.9312 68.8687C42.9902 68.8097 43.0601 68.763 43.1372 68.7311C43.2142 68.6993 43.2968 68.683 43.3801 68.6831Z" fill="#E0E6E2"/>
<path d="M32.4387 71.4622H52.415C52.5832 71.4625 52.7444 71.5295 52.8632 71.6484C52.9821 71.7674 53.0489 71.9286 53.0491 72.0968C53.0492 72.1801 53.0329 72.2626 53.0011 72.3396C52.9693 72.4166 52.9226 72.4866 52.8637 72.5455C52.8048 72.6044 52.7348 72.6511 52.6578 72.6829C52.5808 72.7147 52.4983 72.731 52.415 72.7308H32.4387C32.3554 72.731 32.2729 72.7147 32.1959 72.6829C32.1189 72.6511 32.049 72.6044 31.99 72.5455C31.9311 72.4866 31.8844 72.4166 31.8526 72.3396C31.8208 72.2626 31.8045 72.1801 31.8047 72.0968C31.8048 71.9286 31.8717 71.7674 31.9905 71.6484C32.1094 71.5295 32.2706 71.4625 32.4387 71.4622Z" fill="#E0E6E2"/>
<path d="M29.2571 57.0022C30.3474 56.4667 30.7971 55.1487 30.2616 54.0584C29.726 52.9682 28.4081 52.5185 27.3178 53.054C26.2276 53.5896 25.7779 54.9075 26.3134 55.9978C26.8489 57.088 28.1669 57.5377 29.2571 57.0022Z" fill="#5EE890"/>
<path d="M32.3612 54.009H49.7422C49.8252 54.0093 49.9074 54.0259 49.984 54.0578C50.0606 54.0898 50.1302 54.1366 50.1888 54.1955C50.2473 54.2544 50.2937 54.3242 50.3253 54.401C50.3568 54.4778 50.3729 54.56 50.3727 54.6431C50.3725 54.8103 50.3061 54.9706 50.1879 55.0889C50.0697 55.2073 49.9094 55.2739 49.7422 55.2742H32.3612C32.2781 55.2745 32.1957 55.2584 32.1188 55.2268C32.0419 55.1953 31.972 55.1489 31.913 55.0902C31.8541 55.0316 31.8072 54.962 31.7753 54.8852C31.7433 54.8085 31.7267 54.7262 31.7266 54.6431C31.7264 54.5597 31.7427 54.4772 31.7746 54.4001C31.8064 54.3231 31.8532 54.2531 31.9121 54.1942C31.9711 54.1353 32.0411 54.0886 32.1182 54.0568C32.1953 54.025 32.2778 54.0088 32.3612 54.009Z" fill="#ADB5B0"/>
<path d="M32.3612 56.8396H39.9313C40.0147 56.8394 40.0973 56.8558 40.1743 56.8876C40.2513 56.9194 40.3213 56.9662 40.3802 57.0252C40.4391 57.0841 40.4858 57.1542 40.5176 57.2312C40.5494 57.3083 40.5656 57.3909 40.5654 57.4742C40.5651 57.5573 40.5486 57.6394 40.5166 57.7161C40.4846 57.7927 40.4378 57.8623 40.3789 57.9208C40.3201 57.9793 40.2502 58.0257 40.1734 58.0573C40.0966 58.0888 40.0144 58.105 39.9313 58.1047H32.3612C32.2781 58.105 32.1958 58.089 32.1189 58.0575C32.0421 58.0259 31.9722 57.9796 31.9132 57.921C31.8543 57.8625 31.8075 57.7929 31.7754 57.7162C31.7434 57.6395 31.7268 57.5573 31.7266 57.4742C31.7264 57.3909 31.7427 57.3083 31.7746 57.2312C31.8064 57.1541 31.8531 57.0841 31.9121 57.0251C31.9711 56.9662 32.0411 56.9194 32.1181 56.8876C32.1952 56.8558 32.2778 56.8394 32.3612 56.8396Z" fill="#E0E6E2"/>
<path d="M43.3801 56.8396H63.3564C63.4398 56.8394 63.5223 56.8558 63.5994 56.8876C63.6764 56.9194 63.7464 56.9662 63.8053 57.0252C63.8642 57.0841 63.9109 57.1542 63.9427 57.2312C63.9745 57.3083 63.9907 57.3909 63.9905 57.4742C63.9902 57.5573 63.9736 57.6394 63.9417 57.7161C63.9097 57.7927 63.8629 57.8623 63.804 57.9208C63.7451 57.9793 63.6753 58.0257 63.5985 58.0573C63.5217 58.0888 63.4394 58.105 63.3564 58.1047H43.3801C43.2971 58.105 43.2148 58.0888 43.138 58.0573C43.0612 58.0257 42.9914 57.9793 42.9325 57.9208C42.8737 57.8623 42.8269 57.7927 42.7949 57.7161C42.7629 57.6394 42.7463 57.5573 42.7461 57.4742C42.7459 57.3909 42.7621 57.3083 42.7939 57.2312C42.8256 57.1542 42.8723 57.0841 42.9312 57.0252C42.9902 56.9662 43.0601 56.9194 43.1372 56.8876C43.2142 56.8558 43.2968 56.8394 43.3801 56.8396Z" fill="#E0E6E2"/>
<path d="M32.4387 59.6191H52.415C52.5831 59.6193 52.7443 59.6861 52.8632 59.805C52.982 59.9239 53.0489 60.0851 53.0491 60.2532C53.0492 60.3365 53.0329 60.419 53.0011 60.496C52.9693 60.573 52.9226 60.643 52.8637 60.7019C52.8048 60.7608 52.7348 60.8075 52.6578 60.8393C52.5808 60.8711 52.4983 60.8874 52.415 60.8872H32.4387C32.3554 60.8874 32.2729 60.8711 32.1959 60.8393C32.1189 60.8075 32.049 60.7608 31.99 60.7019C31.9311 60.643 31.8844 60.573 31.8526 60.496C31.8208 60.419 31.8045 60.3365 31.8047 60.2532C31.8048 60.0851 31.8717 59.9239 31.9906 59.805C32.1094 59.6861 32.2706 59.6193 32.4387 59.6191Z" fill="#E0E6E2"/>
<path d="M26.0898 77.8085C26.0901 77.3736 26.2193 76.9485 26.4611 76.587C26.7029 76.2254 27.0465 75.9437 27.4484 75.7774C27.8503 75.6111 28.2925 75.5678 28.719 75.6528C29.1456 75.7378 29.5373 75.9473 29.8448 76.2549C30.1523 76.5626 30.3616 76.9545 30.4464 77.3811C30.5312 77.8077 30.4875 78.2498 30.321 78.6516C30.1545 79.0535 29.8726 79.3969 29.511 79.6385C29.1493 79.8801 28.7242 80.0091 28.2892 80.0091C28.0002 80.0092 27.7141 79.9524 27.4471 79.8419C27.1801 79.7313 26.9375 79.5692 26.7333 79.3648C26.529 79.1604 26.367 78.9178 26.2566 78.6507C26.1462 78.3837 26.0895 78.0975 26.0898 77.8085Z" fill="#5EE890"/>
<path d="M32.3612 76.7922H49.7422C49.8253 76.7925 49.9075 76.8091 49.9842 76.8411C50.0608 76.8731 50.1304 76.9199 50.189 76.9789C50.2475 77.0378 50.2939 77.1077 50.3254 77.1846C50.357 77.2615 50.373 77.3438 50.3727 77.4269C50.3729 77.5943 50.3065 77.7549 50.1883 77.8735C50.0701 77.9921 49.9096 78.0588 49.7422 78.0591H32.3612C32.2781 78.0595 32.1958 78.0434 32.1189 78.0119C32.0421 77.9803 31.9722 77.934 31.9132 77.8754C31.8543 77.8169 31.8075 77.7473 31.7754 77.6706C31.7434 77.5939 31.7268 77.5117 31.7266 77.4286C31.7262 77.3451 31.7423 77.2623 31.7741 77.185C31.8058 77.1078 31.8525 77.0375 31.9115 76.9784C31.9705 76.9192 32.0406 76.8723 32.1177 76.8404C32.1949 76.8084 32.2777 76.7921 32.3612 76.7922Z" fill="#ADB5B0"/>
<path d="M32.3612 79.6226H39.9313C40.0146 79.6224 40.0972 79.6387 40.1742 79.6705C40.2512 79.7023 40.3211 79.749 40.38 79.8079C40.4389 79.8668 40.4856 79.9368 40.5174 80.0138C40.5492 80.0908 40.5655 80.1733 40.5654 80.2566C40.5652 80.3397 40.5487 80.4219 40.5167 80.4986C40.4848 80.5753 40.438 80.6449 40.3791 80.7036C40.3203 80.7622 40.2504 80.8086 40.1736 80.8402C40.0967 80.8718 40.0144 80.8879 39.9313 80.8877H32.3612C32.2781 80.888 32.1957 80.8719 32.1188 80.8404C32.0419 80.8088 31.972 80.7624 31.913 80.7038C31.8541 80.6452 31.8072 80.5755 31.7753 80.4988C31.7433 80.422 31.7267 80.3397 31.7266 80.2566C31.7264 80.1732 31.7427 80.0907 31.7746 80.0136C31.8064 79.9366 31.8532 79.8666 31.9121 79.8077C31.9711 79.7488 32.0411 79.7021 32.1182 79.6703C32.1953 79.6386 32.2778 79.6223 32.3612 79.6226Z" fill="#E0E6E2"/>
<path d="M43.3801 79.6226H63.3564C63.4397 79.6224 63.5222 79.6387 63.5992 79.6705C63.6762 79.7023 63.7462 79.749 63.8051 79.8079C63.864 79.8668 63.9107 79.9368 63.9425 80.0138C63.9743 80.0908 63.9906 80.1733 63.9905 80.2566C63.9903 80.3397 63.9738 80.4219 63.9418 80.4986C63.9099 80.5753 63.8631 80.6449 63.8042 80.7036C63.7453 80.7622 63.6755 80.8086 63.5986 80.8402C63.5218 80.8718 63.4395 80.8879 63.3564 80.8877H43.3801C43.2971 80.8879 43.2147 80.8718 43.1379 80.8402C43.0611 80.8086 42.9912 80.7622 42.9323 80.7036C42.8734 80.6449 42.8267 80.5753 42.7947 80.4986C42.7628 80.4219 42.7462 80.3397 42.7461 80.2566C42.7459 80.1733 42.7622 80.0908 42.794 80.0138C42.8258 79.9368 42.8725 79.8668 42.9315 79.8079C42.9904 79.749 43.0603 79.7023 43.1373 79.6705C43.2143 79.6387 43.2968 79.6224 43.3801 79.6226Z" fill="#E0E6E2"/>
<path d="M32.4387 82.4053H52.415C52.4981 82.405 52.5804 82.4212 52.6572 82.4528C52.7341 82.4844 52.8039 82.5308 52.8628 82.5894C52.9217 82.648 52.9685 82.7177 53.0004 82.7944C53.0324 82.871 53.0489 82.9533 53.0491 83.0364C53.0495 83.1199 53.0335 83.2026 53.0018 83.2799C52.9701 83.3572 52.9235 83.4274 52.8645 83.4866C52.8056 83.5457 52.7355 83.5926 52.6584 83.6246C52.5812 83.6566 52.4985 83.6729 52.415 83.6728H32.4387C32.3554 83.6729 32.2729 83.6566 32.1959 83.6248C32.1189 83.593 32.049 83.5463 31.99 83.4874C31.9311 83.4285 31.8844 83.3585 31.8526 83.2815C31.8208 83.2046 31.8045 83.122 31.8047 83.0387C31.8045 82.9554 31.8208 82.873 31.8526 82.796C31.8845 82.719 31.9312 82.6491 31.9901 82.5903C32.049 82.5314 32.119 82.4847 32.196 82.453C32.2729 82.4213 32.3555 82.405 32.4387 82.4053Z" fill="#E0E6E2"/>
<path d="M26.0898 88.5944C26.0898 88.1594 26.2188 87.7342 26.4605 87.3725C26.7022 87.0108 27.0457 86.7289 27.4475 86.5624C27.8494 86.396 28.2916 86.3524 28.7183 86.4373C29.1449 86.5221 29.5368 86.7316 29.8444 87.0392C30.152 87.3468 30.3615 87.7387 30.4463 88.1653C30.5312 88.5919 30.4876 89.0342 30.3212 89.436C30.1547 89.8379 29.8728 90.1814 29.5111 90.4231C29.1494 90.6648 28.7242 90.7937 28.2892 90.7937C28.0003 90.7939 27.7143 90.7371 27.4474 90.6266C27.1805 90.5162 26.9379 90.3542 26.7337 90.1499C26.5294 89.9457 26.3674 89.7031 26.2569 89.4362C26.1465 89.1693 26.0897 88.8833 26.0898 88.5944Z" fill="#5EE890"/>
<path d="M32.3612 87.5781H49.7422C49.8253 87.5784 49.9075 87.595 49.9842 87.627C50.0608 87.659 50.1304 87.7058 50.189 87.7648C50.2475 87.8237 50.2939 87.8936 50.3254 87.9705C50.3569 88.0474 50.373 88.1297 50.3727 88.2128C50.3724 88.3799 50.3059 88.5401 50.1877 88.6583C50.0695 88.7764 49.9093 88.843 49.7422 88.8433H32.3612C32.2781 88.8436 32.1958 88.8275 32.1189 88.796C32.0421 88.7645 31.9722 88.7181 31.9132 88.6595C31.8543 88.601 31.8075 88.5314 31.7754 88.4547C31.7434 88.3781 31.7268 88.2958 31.7266 88.2128C31.7264 88.1294 31.7427 88.0468 31.7746 87.9697C31.8064 87.8927 31.8531 87.8226 31.9121 87.7637C31.9711 87.7047 32.0411 87.658 32.1181 87.6261C32.1952 87.5943 32.2778 87.578 32.3612 87.5781Z" fill="#ADB5B0"/>
<path d="M32.3612 90.4092H39.9313C40.0147 90.409 40.0973 90.4253 40.1743 90.4572C40.2513 90.489 40.3213 90.5358 40.3802 90.5947C40.4391 90.6537 40.4858 90.7237 40.5176 90.8008C40.5494 90.8779 40.5656 90.9605 40.5654 91.0438C40.5651 91.2119 40.4982 91.373 40.3793 91.4918C40.2605 91.6106 40.0994 91.6775 39.9313 91.6779H32.3612C32.193 91.6777 32.0318 91.6109 31.9128 91.492C31.7939 91.3732 31.7269 91.212 31.7266 91.0438C31.7264 90.9604 31.7427 90.8778 31.7746 90.8008C31.8064 90.7237 31.8531 90.6537 31.9121 90.5947C31.9711 90.5358 32.0411 90.489 32.1181 90.4572C32.1952 90.4253 32.2778 90.409 32.3612 90.4092Z" fill="#E0E6E2"/>
<path d="M43.3801 90.4092H63.3564C63.4398 90.409 63.5223 90.4253 63.5994 90.4572C63.6764 90.489 63.7464 90.5358 63.8053 90.5947C63.8642 90.6537 63.9109 90.7237 63.9427 90.8008C63.9745 90.8779 63.9907 90.9605 63.9905 91.0438C63.9901 91.2119 63.9232 91.373 63.8044 91.4918C63.6856 91.6106 63.5245 91.6775 63.3564 91.6779H43.3801C43.2121 91.6775 43.051 91.6106 42.9321 91.4918C42.8133 91.373 42.7464 91.2119 42.7461 91.0438C42.7459 90.9605 42.7621 90.8779 42.7939 90.8008C42.8256 90.7237 42.8723 90.6537 42.9312 90.5947C42.9902 90.5358 43.0601 90.489 43.1372 90.4572C43.2142 90.4253 43.2968 90.409 43.3801 90.4092Z" fill="#E0E6E2"/>
<path d="M32.4387 93.1912H52.415C52.4981 93.1909 52.5804 93.2071 52.6572 93.2387C52.7341 93.2703 52.8039 93.3167 52.8628 93.3753C52.9217 93.4339 52.9685 93.5036 53.0004 93.5803C53.0324 93.6569 53.0489 93.7392 53.0491 93.8223C53.0492 93.9056 53.0329 93.9881 53.0011 94.0651C52.9693 94.1421 52.9226 94.212 52.8637 94.2709C52.8048 94.3299 52.7348 94.3765 52.6578 94.4084C52.5808 94.4402 52.4983 94.4565 52.415 94.4563H32.4387C32.3554 94.4565 32.2729 94.4402 32.1959 94.4084C32.1189 94.3765 32.049 94.3299 31.99 94.2709C31.9311 94.212 31.8844 94.1421 31.8526 94.0651C31.8208 93.9881 31.8045 93.9056 31.8047 93.8223C31.8048 93.7392 31.8214 93.6569 31.8533 93.5803C31.8853 93.5036 31.932 93.4339 31.9909 93.3753C32.0498 93.3167 32.1197 93.2703 32.1965 93.2387C32.2733 93.2071 32.3557 93.1909 32.4387 93.1912Z" fill="#E0E6E2"/>
<path d="M54.6114 20.2297H74.6344C75.2959 20.2297 75.9303 20.4925 76.3981 20.9603C76.8658 21.428 77.1286 22.0625 77.1286 22.724V34.6219C77.1286 35.2834 76.8658 35.9178 76.3981 36.3856C75.9303 36.8534 75.2959 37.1161 74.6344 37.1161H74.4222L74.245 42.6707L70.0767 37.1161H54.6114C53.9499 37.1161 53.3155 36.8534 52.8477 36.3856C52.38 35.9178 52.1172 35.2834 52.1172 34.6219V22.724C52.1172 22.0625 52.38 21.428 52.8477 20.9603C53.3155 20.4925 53.9499 20.2297 54.6114 20.2297Z" fill="#5EE890"/>
<path d="M74.236 42.9194C74.1979 42.9194 74.1603 42.9106 74.1261 42.8936C74.092 42.8765 74.0622 42.8518 74.0393 42.8213L69.9449 37.3619H54.6066C53.8803 37.361 53.1839 37.072 52.6704 36.5583C52.1568 36.0446 51.868 35.3482 51.8672 34.6219V22.7239C51.868 21.9976 52.1568 21.3012 52.6704 20.7875C53.1839 20.2738 53.8803 19.9848 54.6066 19.9839H74.6296C75.3561 19.9847 76.0525 20.2736 76.5662 20.7873C77.0799 21.301 77.3689 21.9975 77.3696 22.7239V34.6219C77.3688 35.3438 77.0833 36.0363 76.5753 36.5492C76.0672 37.0622 75.3775 37.3542 74.6556 37.3619L74.4836 42.6801C74.482 42.7309 74.4646 42.78 74.4339 42.8205C74.4032 42.861 74.3607 42.8911 74.3123 42.9064C74.2877 42.9147 74.262 42.9191 74.236 42.9194ZM54.6066 20.4755C54.011 20.4769 53.4403 20.7144 53.0194 21.1358C52.5985 21.5572 52.3618 22.1283 52.3612 22.7239V34.6219C52.3618 35.2176 52.5985 35.7887 53.0193 36.2102C53.4402 36.6318 54.011 36.8693 54.6066 36.8709H70.0678C70.1059 36.8708 70.1434 36.8796 70.1775 36.8967C70.2116 36.9137 70.2412 36.9385 70.264 36.969L74.0127 41.9669L74.1699 37.1084C74.1722 37.0449 74.199 36.9848 74.2448 36.9407C74.2905 36.8966 74.3516 36.872 74.4151 36.8721H74.6296C75.2253 36.8705 75.796 36.6329 76.2169 36.2114C76.6378 35.7899 76.8744 35.2187 76.8751 34.6231V22.7239C76.8744 22.1283 76.6378 21.5572 76.2169 21.1358C75.796 20.7144 75.2252 20.4769 74.6296 20.4755H54.6066Z" fill="#2D2D2D"/>
<path d="M41.6878 34.9932H60.9987C61.8562 34.9936 62.6785 35.3346 63.2848 35.9412C63.891 36.5478 64.2315 37.3702 64.2315 38.2278V49.1638C64.2315 50.0216 63.8907 50.8444 63.2841 51.451C62.6775 52.0576 61.8548 52.3984 60.9969 52.3984H45.7243L41.4278 58.1302L41.2416 52.3671C40.4684 52.2598 39.7601 51.8763 39.2476 51.2875C38.735 50.6987 38.4529 49.9444 38.4531 49.1638V38.2278C38.4531 37.3699 38.7939 36.5472 39.4005 35.9406C40.0071 35.334 40.8299 34.9932 41.6878 34.9932Z" fill="#5EE890"/>
<path d="M41.4275 58.3748C41.4024 58.3749 41.3775 58.3711 41.3536 58.3636C41.3051 58.3482 41.2625 58.3182 41.2317 58.2777C41.2009 58.2372 41.1834 58.1881 41.1817 58.1373L41.0044 52.5744C40.2169 52.4146 39.5086 51.988 38.999 51.3667C38.4895 50.7453 38.2097 49.9673 38.207 49.1637V38.2278C38.2086 37.3052 38.5758 36.4208 39.2282 35.7684C39.8805 35.1161 40.7649 34.7489 41.6875 34.7473H60.9984C61.921 34.7489 62.8054 35.1161 63.4577 35.7684C64.1101 36.4208 64.4773 37.3052 64.4788 38.2278V49.1637C64.4773 50.0863 64.1101 50.9707 63.4577 51.6231C62.8054 52.2754 61.921 52.6426 60.9984 52.6442H45.8469L41.6237 58.2744C41.6011 58.3053 41.5716 58.3305 41.5376 58.348C41.5035 58.3654 41.4658 58.3746 41.4275 58.3748ZM41.6875 35.2384C40.895 35.2395 40.1354 35.5548 39.5751 36.1152C39.0148 36.6756 38.6996 37.4353 38.6987 38.2278V49.1637C38.7016 49.8835 38.9636 50.5782 39.4367 51.1207C39.9098 51.6633 40.5623 52.0174 41.275 52.1183C41.3326 52.1263 41.3854 52.1545 41.4243 52.1977C41.4631 52.241 41.4854 52.2965 41.4872 52.3546L41.6503 57.4187L45.5278 52.2494C45.5505 52.2188 45.5801 52.1939 45.6142 52.1768C45.6482 52.1597 45.6858 52.1507 45.724 52.1508H60.9984C61.7905 52.1498 62.5499 51.8349 63.1101 51.275C63.6704 50.715 63.9858 49.9558 63.9872 49.1637V38.2278C63.9863 37.4353 63.6711 36.6756 63.1108 36.1152C62.5505 35.5548 61.7908 35.2395 60.9984 35.2384H41.6875Z" fill="#272727"/>
<path d="M58.4961 24.4713H63.5596V22.6318C63.4054 22.6082 63.3339 22.5485 63.3232 22.4652L64.381 22.3943V24.4743H69.3612V25.259H67.0678L67.5553 25.4132C66.8539 27.3508 65.8795 28.9912 64.5955 30.3101C65.9032 31.3921 67.5193 32.1762 69.4687 32.7328C69.3145 32.9237 69.0887 33.2558 69.0054 33.4585C66.9845 32.8398 65.3323 32.0078 63.9892 30.8792C62.6224 32.0793 60.9584 32.9473 58.9263 33.4697C58.7703 33.1814 58.5785 32.914 58.3555 32.6737C60.3403 32.2223 61.9925 31.4021 63.3356 30.2847C62.0876 29.0367 61.1493 27.4915 60.4597 25.5421C60.2931 25.5421 60.1979 25.5066 60.1642 25.4239C60.247 25.3878 60.3303 25.3648 60.637 25.2578H58.4961V24.4713ZM61.2421 25.2561C61.872 27.0879 62.7636 28.548 63.9401 29.7251C65.1881 28.5007 66.1153 26.991 66.7334 25.2561H61.2421Z" fill="#272727"/>
<path d="M54.5198 47.6864L53.8822 45.9834H50.5253L49.8516 47.6864H47.5234L51.128 39.0112H53.1619L56.7983 47.6864H54.5198ZM52.1792 41.3264L51.1014 44.304H53.2818L52.1792 41.3264Z" fill="#272727"/>
<path d="M87.9602 93.0587C87.9602 93.6622 87.9389 94.2597 87.8964 94.851C86.9769 107.902 76.0989 118.204 62.8152 118.204C58.7975 118.204 54.8382 117.242 51.269 115.397C47.6997 113.552 44.6244 110.879 42.3006 107.602C39.9769 104.324 38.4723 100.538 37.9129 96.5592C37.3535 92.5806 37.7556 88.5259 39.0855 84.7347C40.4154 80.9434 42.6344 77.5261 45.5567 74.7688C48.4789 72.0115 52.0193 69.9946 55.8813 68.887C59.7433 67.7794 63.8145 67.6133 67.7539 68.4027C71.6933 69.1921 75.3863 70.9139 78.5234 73.424C84.2776 78.0313 87.9602 85.1157 87.9602 93.0587Z" fill="#5EE890"/>
<path d="M62.8126 118.449C57.2693 118.449 52.002 116.694 47.5802 113.375C43.8779 110.596 41.0049 106.858 39.2713 102.566C37.5378 98.2733 37.0094 93.5888 37.7433 89.018C38.6386 83.4085 41.4519 78.1931 45.6651 74.3327C50.1315 70.2422 55.9132 67.8831 61.9664 67.6813C68.0196 67.4796 73.9455 69.4484 78.6744 73.2324C84.7306 78.0779 88.2034 85.3071 88.2034 93.058C88.2034 93.6525 88.1815 94.2617 88.139 94.868C87.681 101.272 84.8139 107.265 80.1147 111.641C75.4155 116.016 69.2333 118.449 62.8126 118.449ZM62.8126 68.1589C56.5862 68.1519 50.5844 70.4847 45.9971 74.6949C41.8655 78.4803 39.1066 83.5946 38.2285 89.096C37.5076 93.5787 38.0254 98.1732 39.7261 102.383C41.4268 106.593 44.2457 110.258 47.878 112.982C52.2135 116.236 57.3792 117.957 62.815 117.957C75.828 117.957 86.7374 107.8 87.6509 94.8331C87.6935 94.2381 87.7147 93.6407 87.7147 93.0574C87.7147 85.4566 84.3087 78.3698 78.3701 73.6165C73.9164 70.0457 68.5374 68.1589 62.8126 68.1589Z" fill="#2D2D2D"/>
<path d="M87.9614 93.0587C87.9614 93.6622 87.9401 94.2596 87.8976 94.8509C87.7446 94.6268 87.6281 94.3799 87.5525 94.1194C87.2121 93.0388 86.8734 91.9594 86.5361 90.8812C86.418 90.516 86.2903 90.1296 85.9901 89.895C85.7934 89.7425 85.5476 89.674 85.3088 89.6078L79.6213 88.0496C79.528 88.0189 79.43 88.0045 79.3318 88.007C78.8591 88.0578 78.9181 88.8431 79.3164 89.1014C79.7147 89.3596 80.24 89.3336 80.6714 89.5416C81.6594 90.0143 81.6464 91.6192 80.7754 92.2846C79.9044 92.95 78.589 92.7491 77.7292 92.066C76.8695 91.3829 76.3938 90.3305 76.0747 89.2804C75.8891 88.6641 75.5376 87.8811 74.9011 87.9633C74.2181 88.0513 74.1253 89.011 74.3102 89.6716C74.9136 91.7989 76.5386 93.6088 78.5855 94.4355C79.1315 94.6565 79.8122 94.9461 79.8323 95.534C79.8388 95.7639 79.7348 95.9807 79.6201 96.1775C79.1598 96.9735 78.508 97.6365 77.9532 98.3639C75.4418 101.662 74.9691 106.2 72.3496 109.414C71.4041 110.576 69.856 111.584 68.4744 111.003C67.2477 110.486 66.7874 108.947 66.9067 107.623C67.0261 106.299 67.5615 105.041 67.6915 103.719C67.8794 101.811 67.2187 99.9327 66.5687 98.1311C66.343 97.5053 66.0535 96.811 65.4348 96.5681C64.8533 96.3406 64.2122 96.5988 63.6089 96.7601C62.55 97.0456 61.3693 97.006 60.412 96.4688C59.8306 96.1391 59.3555 95.6416 58.9974 95.0826C57.9763 93.4871 57.9101 91.3823 58.6175 89.6249C59.3248 87.8676 60.7447 86.4523 62.3993 85.524C63.8766 84.6926 65.9447 84.3174 67.1141 85.5417C67.5278 85.9731 67.7641 86.5498 68.2126 86.9451C68.6611 87.3405 69.4731 87.4409 69.7715 86.9256C69.8896 86.72 69.9038 86.4529 70.0669 86.2756C70.2767 86.0523 70.633 86.0812 70.9355 86.1297C71.9819 86.3038 73.0171 86.5134 74.0414 86.7584C74.455 86.1971 73.951 85.3656 73.3027 85.1039C72.6545 84.8421 71.9283 84.9231 71.2428 84.7877C70.7053 84.6759 70.203 84.435 69.7793 84.0857C69.3557 83.7364 69.0234 83.2892 68.8112 82.7828C68.738 82.6055 68.6741 82.4141 68.5241 82.2965C68.1636 82.0181 67.6087 82.4448 67.5951 82.9021C67.5816 83.3595 67.8983 83.7513 68.1943 84.0958C68.0927 84.419 67.5709 84.3239 67.3919 84.0367C67.2128 83.7495 67.2217 83.3867 67.0757 83.08C66.7578 82.4058 65.8047 82.2728 65.1175 82.5647C64.4302 82.8566 63.9191 83.4399 63.353 83.9238C62.7869 84.4078 62.053 84.8208 61.3238 84.6619C61.1229 84.3664 60.9196 84.071 60.7181 83.7802C61.7286 83.7513 62.573 82.6746 62.3585 81.6866C62.3053 81.4326 62.1925 81.1802 62.235 80.9261C62.3532 80.2011 63.3956 80.2076 64.0184 79.8188C64.6412 79.43 64.8125 78.637 65.1683 78.0017C65.524 77.3665 66.4216 76.8518 66.9345 77.3671C66.5764 77.9864 67.2022 78.8479 67.916 78.8349C68.6298 78.8219 69.2089 78.1341 69.2686 77.4226C69.3395 76.5954 68.6895 75.709 67.8628 75.7315C67.1975 75.7492 66.2999 76.1936 66.0216 75.5896C65.9264 75.3822 65.982 75.1364 66.0724 74.9266C66.4547 74.0314 67.4143 73.4742 68.3822 73.3791C69.3501 73.2839 70.3186 73.5936 71.1855 74.0356C71.78 74.3411 72.3549 74.7145 73.0114 74.8404C73.5397 74.9396 74.0857 74.8693 74.614 74.7606C75.9665 74.4799 77.2465 73.9499 78.5264 73.421C84.2789 78.0313 87.9614 85.1157 87.9614 93.0587Z" fill="#84F7AD"/>
<path d="M54.8603 104.169C54.732 104.583 54.712 105.026 54.5648 105.433C54.0537 106.823 52.3625 107.265 51.0696 107.984C49.197 109.028 47.9331 111.057 47.7339 113.179C46.2954 112.099 44.9763 110.868 43.799 109.507C43.9409 108.172 44.3586 106.848 44.8668 105.599C45.1942 104.785 45.5676 103.897 45.2976 103.063C45.079 102.389 44.4845 101.917 44.0602 101.346C43.1981 100.19 43.0699 98.5294 43.7441 97.2543C43.9917 96.7857 44.3386 96.3632 44.4798 95.8526C44.621 95.3421 44.4709 94.6879 43.9805 94.4935C43.7394 94.3984 43.4611 94.4297 43.233 94.308C42.6497 93.9919 42.895 93.0322 42.4506 92.5394C42.0813 92.1258 41.361 92.1849 41.0135 91.7547C40.8191 91.5136 40.7907 91.1709 40.6046 90.9239C40.406 90.6562 40.0657 90.548 39.7602 90.4151C39.0511 90.1078 38.4738 89.6351 37.9922 89.056C38.889 83.4621 41.653 78.3365 45.8341 74.5137C46.5335 74.3982 47.2184 74.2076 47.8769 73.9453C48.6835 73.6203 49.7915 73.2604 50.2666 73.9872C50.7416 74.714 50.1005 76.0365 50.8941 76.3993C50.2754 76.8212 49.5504 77.1551 49.148 77.7874C48.7456 78.4196 48.9246 79.4874 49.6609 79.6192C50.6376 79.7964 51.0466 78.3611 51.8998 77.8553C52.6272 77.4263 53.6135 77.7803 54.1636 78.4232C54.7137 79.0661 54.9318 79.9199 55.1297 80.7419C55.2113 81.0829 55.2863 81.4717 55.0813 81.7571C54.6676 82.3291 53.6796 81.8652 53.0958 82.2605C52.5345 82.6387 52.6739 83.5605 52.1917 84.038C51.6392 84.5864 50.7286 84.2153 49.9528 84.1396C48.7964 84.0268 47.6736 84.6839 46.9261 85.572C46.1786 86.4601 45.7443 87.5639 45.3171 88.6447C44.7486 88.9632 44.3043 88.1034 43.8782 87.6124C43.3742 87.0292 42.4187 86.9033 41.7823 87.3429C41.1459 87.7826 40.9201 88.7156 41.2847 89.3964C41.7492 89.1245 42.4258 89.16 42.7395 89.5996C43.0533 90.0393 42.7224 90.8104 42.1906 90.7637C42.0559 91.0533 42.3785 91.3546 42.684 91.4468C42.9895 91.539 43.3535 91.5685 43.5461 91.825C43.7388 92.0814 43.672 92.4372 43.7601 92.7444C43.9793 93.4896 44.9826 93.6308 45.7431 93.4807C46.5036 93.3306 47.3386 93.0364 48.0181 93.4098C48.836 93.8589 48.9996 95.0549 49.811 95.5081C50.4119 95.8438 51.2291 95.6889 51.7515 96.138C52.0056 96.3567 52.1386 96.6817 52.2999 96.9754C53.1975 98.6222 55.0606 99.4495 56.7961 100.166C56.9864 101.664 55.3023 102.721 54.8603 104.169Z" fill="#84F7AD"/>
<path d="M62.8123 118.332C57.2949 118.332 52.0518 116.586 47.6501 113.281C43.9652 110.515 41.1057 106.794 39.3802 102.522C37.6547 98.2492 37.1286 93.5866 37.8588 89.0369C38.7498 83.4528 41.5502 78.2617 45.7438 74.419C50.1897 70.3483 55.9441 68.0007 61.9688 67.7999C67.9934 67.5991 73.8914 69.5584 78.5984 73.324C84.6257 78.15 88.0837 85.3425 88.0837 93.0604C88.0837 93.6513 88.0618 94.2582 88.0192 94.8621C87.5627 101.236 84.7088 107.2 80.032 111.555C75.3551 115.909 69.2025 118.331 62.8123 118.332ZM62.8123 68.0419C56.5565 68.0347 50.5264 70.3786 45.9176 74.6087C41.7688 78.4135 38.9986 83.5503 38.1123 89.0777C37.3875 93.5812 37.9071 98.1971 39.6151 102.427C41.3231 106.656 44.1544 110.339 47.8032 113.076C52.1593 116.346 57.3487 118.075 62.8123 118.075C75.8867 118.075 86.8475 107.87 87.7652 94.842C87.8077 94.2446 87.829 93.6442 87.829 93.0586C87.829 85.4211 84.407 78.3013 78.44 73.5244C73.968 69.9375 68.5642 68.0419 62.8123 68.0419Z" fill="#313131"/>
<path d="M88.0522 67.5935C88.0522 60.3638 82.1874 54.5203 74.9789 54.5203C67.7497 54.5203 61.9062 60.385 61.9062 67.5935C61.9062 74.8227 74.6805 92.3314 74.9789 92.3314C75.4913 92.3314 88.0522 74.8227 88.0522 67.5935Z" fill="#5CFF97"/>
<path d="M74.9765 92.5772C74.8507 92.5772 74.6935 92.5772 72.6076 89.6227C71.7318 88.3817 69.9845 85.8491 68.1167 82.8C65.1692 77.9823 61.6562 71.4339 61.6562 67.5918C61.6562 60.248 67.6309 54.2727 74.9742 54.2727C82.3174 54.2727 88.2927 60.248 88.2927 67.5918C88.2927 71.4699 84.8234 78.0024 81.9108 82.7988C80.0046 85.9413 78.2862 88.4237 77.4312 89.6238C75.3328 92.5772 75.1101 92.5772 74.9765 92.5772ZM74.9765 54.7661C67.9039 54.7661 62.1497 60.5204 62.1497 67.5936C62.1497 74.4079 73.6233 90.3938 74.9937 92.0052C75.6797 91.2861 78.6331 87.2974 81.668 82.2599C84.4671 77.6142 87.804 71.2986 87.804 67.5936C87.8063 60.5204 82.0497 54.7661 74.9765 54.7661Z" fill="#272727"/>
<path d="M75.1094 76.7997C80.0792 76.7303 84.0518 72.6452 83.9824 67.6753C83.913 62.7055 79.8279 58.7329 74.858 58.8023C69.8882 58.8717 65.9156 62.9568 65.985 67.9266C66.0544 72.8965 70.1395 76.8691 75.1094 76.7997Z" fill="white"/>
<path d="M74.9791 77.0545C69.8814 77.0545 65.7344 72.9069 65.7344 67.8098C65.7344 62.7126 69.8814 58.5591 74.9791 58.5591C80.0769 58.5591 84.2245 62.7067 84.2245 67.8044C84.2245 72.9022 80.0775 77.0545 74.9791 77.0545ZM74.9791 59.0554C70.1526 59.0554 66.2254 62.9826 66.2254 67.8098C66.2254 72.6369 70.1526 76.5635 74.9791 76.5635C79.8057 76.5635 83.7317 72.6334 83.7317 67.8068C83.7317 62.9803 79.8063 59.0525 74.9791 59.0525V59.0554Z" fill="#389F5D"/>
<path d="M75.2829 74.0201C74.941 74.02 74.6031 73.9459 74.2925 73.8032C73.9819 73.6604 73.7057 73.4522 73.4829 73.1929L68.4602 67.266C68.2556 67.0302 68.0999 66.7562 68.0019 66.4598C67.904 66.1634 67.8659 65.8505 67.8897 65.5392C67.9135 65.2279 67.9989 64.9245 68.1408 64.6465C68.2827 64.3684 68.4784 64.1213 68.7165 63.9194C68.9546 63.7175 69.2304 63.5648 69.5279 63.4702C69.8254 63.3757 70.1387 63.341 70.4496 63.3684C70.7606 63.3957 71.0631 63.4845 71.3395 63.6295C71.6159 63.7746 71.8608 63.973 72.06 64.2134L75.2161 67.9444L80.6909 61.0189C80.8772 60.7619 81.1135 60.5452 81.3857 60.3818C81.6579 60.2185 81.9604 60.1118 82.2748 60.0683C82.5893 60.0249 82.9093 60.0454 83.2156 60.1287C83.522 60.2121 83.8083 60.3565 84.0574 60.5533C84.3064 60.7501 84.5132 60.9953 84.6651 61.274C84.817 61.5528 84.911 61.8594 84.9414 62.1754C84.9718 62.4914 84.938 62.8103 84.842 63.1129C84.746 63.4155 84.5898 63.6956 84.3829 63.9363L77.1147 73.1237C76.8992 73.3985 76.6248 73.6215 76.3118 73.7763C75.9988 73.9311 75.6551 74.0138 75.3059 74.0183L75.2829 74.0201Z" fill="#5EE890"/>
<path d="M75.3097 74.2661H75.2819C74.9044 74.2662 74.5313 74.1844 74.1884 74.0264C73.8456 73.8684 73.541 73.6379 73.2959 73.3508L68.2731 67.4234C67.848 66.894 67.6463 66.2195 67.7111 65.5436C67.7759 64.8678 68.1019 64.2438 68.6199 63.8048C69.1378 63.3657 69.8067 63.1462 70.484 63.193C71.1614 63.2398 71.7937 63.5491 72.2464 64.0552L75.2098 67.5581L80.4984 60.8679C80.7082 60.5942 80.9703 60.365 81.2695 60.1936C81.5687 60.0222 81.899 59.912 82.2412 59.8695C82.5833 59.8269 82.9306 59.8529 83.2626 59.9458C83.5947 60.0387 83.9049 60.1968 84.1753 60.4107C84.4457 60.6247 84.6708 60.8903 84.8376 61.1921C85.0044 61.4939 85.1095 61.8259 85.1467 62.1686C85.184 62.5114 85.1527 62.8582 85.0547 63.1888C84.9566 63.5194 84.7938 63.8272 84.5757 64.0942L77.3111 73.2805C77.0721 73.5832 76.7688 73.8289 76.4232 73.9999C76.0776 74.1709 75.6982 74.2628 75.3126 74.2691L75.3097 74.2661ZM70.2574 63.6298C69.8541 63.6291 69.459 63.744 69.119 63.9609C68.7789 64.1778 68.5081 64.4876 68.3387 64.8536C68.1692 65.2196 68.1081 65.6265 68.1627 66.0261C68.2173 66.4257 68.3852 66.8013 68.6466 67.1084L73.6693 73.0347C73.8688 73.2671 74.1162 73.4537 74.3945 73.5815C74.6729 73.7093 74.9756 73.7753 75.2819 73.7751H75.3085C75.6201 73.7702 75.9268 73.696 76.2063 73.5581C76.4858 73.4201 76.7312 73.2217 76.9246 72.9774L84.1928 63.7887C84.3657 63.5727 84.4938 63.3243 84.5695 63.0582C84.6452 62.792 84.667 62.5135 84.6336 62.2388C84.6016 61.9632 84.5155 61.6966 84.3804 61.4542C84.2452 61.2119 84.0636 60.9986 83.8459 60.8265C83.6293 60.6535 83.3805 60.5251 83.1139 60.4488C82.8473 60.3725 82.5683 60.3498 82.2929 60.382C82.0175 60.4142 81.7513 60.5007 81.5095 60.6364C81.2677 60.7721 81.0552 60.9544 80.8843 61.1728L75.4101 68.0982C75.3875 68.1268 75.3588 68.15 75.3261 68.1661C75.2934 68.1823 75.2575 68.191 75.221 68.1916C75.1485 68.1879 75.0801 68.1569 75.0296 68.1047L71.8729 64.3731C71.6737 64.1398 71.4262 63.9523 71.1477 63.8236C70.8691 63.6949 70.566 63.628 70.2592 63.6274L70.2574 63.6298Z" fill="#272727"/>
<path d="M64.0955 91.5146H28.8519C28.5993 91.5146 28.3945 91.7194 28.3945 91.972V107.191C28.3945 107.443 28.5993 107.648 28.8519 107.648H64.0955C64.3481 107.648 64.5528 107.443 64.5528 107.191V91.972C64.5528 91.7194 64.3481 91.5146 64.0955 91.5146Z" fill="#303030"/>
<path d="M64.99 90.5437H29.7464C29.4938 90.5437 29.2891 90.7485 29.2891 91.0011V106.22C29.2891 106.473 29.4938 106.677 29.7464 106.677H64.99C65.2426 106.677 65.4474 106.473 65.4474 106.22V91.0011C65.4474 90.7485 65.2426 90.5437 64.99 90.5437Z" fill="white"/>
<path d="M63.5501 106.923H31.1931C30.624 106.923 30.0785 106.696 29.6762 106.294C29.2738 105.892 29.0475 105.346 29.0469 104.777V92.4448C29.0475 91.8758 29.2738 91.3302 29.6762 90.9279C30.0785 90.5255 30.624 90.2992 31.1931 90.2986H63.5501C64.1191 90.2992 64.6647 90.5255 65.0672 90.9278C65.4696 91.3302 65.696 91.8757 65.6968 92.4448V104.777C65.696 105.346 65.4696 105.892 65.0672 106.294C64.6647 106.696 64.1191 106.923 63.5501 106.923ZM31.1931 90.7914C30.7542 90.7914 30.3334 90.9657 30.0231 91.276C29.7128 91.5863 29.5385 92.0071 29.5385 92.4459V104.778C29.5385 105.217 29.7128 105.638 30.0231 105.948C30.3334 106.258 30.7542 106.433 31.1931 106.433H63.5501C63.9889 106.433 64.4097 106.258 64.72 105.948C65.0303 105.638 65.2046 105.217 65.2046 104.778V92.4459C65.2046 92.0071 65.0303 91.5863 64.72 91.276C64.4097 90.9657 63.9889 90.7914 63.5501 90.7914H31.1931Z" fill="#303030"/>
<path d="M38.8298 105.169C42.4529 105.169 45.3901 102.232 45.3901 98.6086C45.3901 94.9855 42.4529 92.0483 38.8298 92.0483C35.2067 92.0483 32.2695 94.9855 32.2695 98.6086C32.2695 102.232 35.2067 105.169 38.8298 105.169Z" fill="#5EE890"/>
<path d="M37.3183 103.104H37.297C37.1254 103.101 36.9563 103.062 36.8004 102.99C36.6446 102.919 36.5054 102.815 36.3918 102.686L33.6612 99.5953C33.4441 99.3495 33.3336 99.0275 33.3539 98.7002C33.3743 98.3729 33.5238 98.0671 33.7696 97.85C34.0154 97.633 34.3374 97.5225 34.6647 97.5428C34.992 97.5631 35.2978 97.7126 35.5149 97.9585L37.3467 100.036L41.7785 95.3514C42.0038 95.1131 42.3145 94.974 42.6423 94.9648C42.9701 94.9556 43.2881 95.077 43.5264 95.3023C43.7647 95.5276 43.9037 95.8383 43.9129 96.1661C43.9221 96.4939 43.8007 96.8119 43.5755 97.0502L38.2183 102.716C38.1024 102.839 37.9628 102.936 37.8081 103.003C37.6534 103.069 37.4867 103.103 37.3183 103.104Z" fill="white"/>
<path d="M37.3153 103.35H37.2845C37.0795 103.346 36.8775 103.299 36.6914 103.213C36.5053 103.127 36.339 103.003 36.2032 102.85L33.4732 99.7592C33.2128 99.4644 33.0801 99.0784 33.1044 98.6859C33.1287 98.2933 33.3079 97.9266 33.6026 97.6662C33.8973 97.4058 34.2834 97.2731 34.6759 97.2974C35.0684 97.3217 35.4352 97.5009 35.6956 97.7956L37.3501 99.6711L41.5934 95.1802C41.7271 95.0387 41.8873 94.925 42.0649 94.8454C42.2425 94.7659 42.434 94.7221 42.6286 94.7167C42.8231 94.7112 43.0168 94.7441 43.1986 94.8135C43.3804 94.8829 43.5468 94.9874 43.6882 95.1211C43.9738 95.3911 44.1404 95.7634 44.1515 96.1563C44.1626 96.5491 44.0172 96.9302 43.7473 97.2159L38.3901 102.882C38.2519 103.029 38.0854 103.146 37.9007 103.226C37.7159 103.307 37.5168 103.349 37.3153 103.35ZM34.5847 97.7873C34.394 97.7873 34.2073 97.8423 34.0471 97.9458C33.8869 98.0493 33.76 98.1968 33.6817 98.3706C33.6033 98.5445 33.5768 98.7373 33.6053 98.9258C33.6338 99.1144 33.7162 99.2907 33.8425 99.4336L36.5754 102.523C36.6666 102.626 36.7782 102.709 36.9031 102.766C37.0281 102.824 37.1636 102.855 37.3011 102.857L37.3182 103.103V102.857C37.4529 102.857 37.5862 102.83 37.71 102.776C37.8337 102.723 37.9453 102.645 38.0379 102.547L43.3951 96.8808C43.5624 96.6877 43.6487 96.4374 43.6359 96.1822C43.6231 95.927 43.5122 95.6867 43.3263 95.5113C43.1405 95.3359 42.8941 95.2391 42.6386 95.241C42.3831 95.243 42.1382 95.3436 41.9551 95.5218L37.5274 100.205C37.4785 100.253 37.4133 100.28 37.3448 100.282C37.3106 100.281 37.277 100.274 37.246 100.259C37.215 100.245 37.1873 100.224 37.1646 100.199L35.3328 98.1223C35.2392 98.0162 35.1241 97.9313 34.9951 97.8734C34.866 97.8154 34.7261 97.7856 34.5847 97.7861V97.7873Z" fill="#303030"/>
<path d="M54.9719 95.4318H48.5848C48.3136 95.4318 48.0938 95.2598 48.0938 94.9886C48.0938 94.7174 48.3136 94.5454 48.5848 94.5454H54.9719C55.2432 94.5454 55.463 94.7174 55.463 94.9886C55.463 95.2598 55.2432 95.4318 54.9719 95.4318Z" fill="#303030"/>
<path d="M54.9714 101.577H48.5843C48.4511 101.577 48.3233 101.524 48.2291 101.43C48.1349 101.336 48.082 101.208 48.082 101.075C48.082 100.942 48.1349 100.814 48.2291 100.72C48.3233 100.626 48.4511 100.573 48.5843 100.573H54.9714C55.1046 100.573 55.2324 100.626 55.3266 100.72C55.4208 100.814 55.4737 100.942 55.4737 101.075C55.4737 101.208 55.4208 101.336 55.3266 101.43C55.2324 101.524 55.1046 101.577 54.9714 101.577Z" fill="#303030"/>
<path d="M62.8322 95.4318H56.6909C56.4196 95.4318 56.1992 95.2598 56.1992 94.9886C56.1992 94.7174 56.4196 94.5454 56.6909 94.5454H62.8322C63.1034 94.5454 63.3232 94.7174 63.3232 94.9886C63.3232 95.2598 63.1034 95.4318 62.8322 95.4318Z" fill="#303030"/>
<path d="M58.411 98.4455H48.5848C48.3136 98.4455 48.0938 98.1258 48.0938 97.8546C48.0938 97.5834 48.3136 97.2637 48.5848 97.2637H58.411C58.6822 97.2637 58.9021 97.5834 58.9021 97.8546C58.9021 98.1258 58.6822 98.4455 58.411 98.4455Z" fill="#303030"/>
</svg>
